<?xml version="1.0" encoding="UTF-8" standalone="no"?>
<!-- Created with Inkscape (http://www.inkscape.org/) -->
<svg xmlns:dc="http://purl.org/dc/elements/1.1/" xmlns:cc="http://creativecommons.org/ns#" xmlns:rdf="http://www.w3.org/1999/02/22-rdf-syntax-ns#" xmlns:svg="http://www.w3.org/2000/svg" xmlns="http://www.w3.org/2000/svg" xmlns:inkscape="http://www.inkscape.org/namespaces/inkscape" version="1.1" width="971.5625" height="1154.8824" id="svg2" xml:space="preserve"><metadata id="metadata8"><rdf:RDF><cc:Work rdf:about=""><dc:format>image/svg+xml</dc:format><dc:type rdf:resource="http://purl.org/dc/dcmitype/StillImage"/></cc:Work></rdf:RDF></metadata><defs id="defs6"><clipPath id="clipPath16"><path d="m 0,923.906 777.25,0 L 777.25,0 0,0 0,923.906 z" inkscape:connector-curvature="0" id="path18"/></clipPath></defs><g transform="matrix(1.25,0,0,-1.25,0,1154.8825)" id="g10"><g id="g12"><g clip-path="url(#clipPath16)" id="g14"><g transform="translate(5.9565,904.9365)" id="g20"><path d="m 0,0 c -2.027,-127.778 -1.908,-255.575 0,-383.35 1.838,-123.108 7.979,-219.176 63.13,-294.295 66.436,-90.487 177.114,-155.787 319.485,-219.943 142.371,64.156 253.05,129.456 319.485,219.943 55.15,75.119 61.292,171.187 63.131,294.295 1.907,127.774 2.027,255.571 0,383.35 L 0,0 z" inkscape:connector-curvature="0" id="path22" style="fill:#1353b4;fill-opacity:1;fill-rule:nonzero;stroke:none"/></g><g transform="translate(112.4985,786.7397)" id="g24"><path d="m 0,0 558.291,0 c -1.999,-16.405 0,6.923 0,-6.77 l 0,-242.737 c 0,-70.138 1.931,-144.035 -22.483,-194.563 -76.415,-158.149 -255.11,-215.568 -258.171,-216.84 -2.391,0.993 -130.138,40.595 -210.61,143.309 -24.663,31.479 -44.912,70.916 -54.999,116.24 -10.105,45.405 -9.585,96.722 -10.027,151.854 L 0,0 z m -105.923,116.022 0,-2.039 0,-351.386 c 0,-55.808 3.833,-132.764 9.254,-169.111 10.163,-68.144 30.486,-130.347 70.217,-173.177 130.969,-141.186 301.882,-200.27 301.882,-200.27 l 0.677,-0.255 0.676,0.255 c 0,0 119.688,47.809 185.448,97.66 61.817,41.129 133.371,95.878 166.222,177.448 11.646,28.919 20.726,61.178 25.028,96.887 6.406,53.171 4.655,112.772 4.655,170.564 l 0,321.187 0,28.16 0,1.699 0,1.147 0,0.085 0,0.042 -1.91,0 0,1.104 -760.239,0 -1.91,0 z" inkscape:connector-curvature="0" id="path26" style="fill:#ce0f25;fill-opacity:1;fill-rule:nonzero;stroke:none"/></g><g transform="translate(390.5918,903.6021)" id="g28"><path d="M 0,0 102.09,-0.026 102.21,-114.209 0.139,-114.254 0,0 z" inkscape:connector-curvature="0" id="path30" style="fill:#ffffff;fill-opacity:1;fill-rule:nonzero;stroke:none"/></g><g transform="translate(616.8828,903.6074)" id="g32"><path d="M 0,0 0.333,-116.541 52.66,-116.074 153.952,-0.425 0,0 z" inkscape:connector-curvature="0" id="path34" style="fill:#ffffff;fill-opacity:1;fill-rule:nonzero;stroke:none"/></g><g transform="translate(771.5498,721.6953)" id="g36"><path d="m 0,0 -2.001,-110.39 -98.232,1.143 L -100.59,-0.802 0,0 z" inkscape:connector-curvature="0" id="path38" style="fill:#ffffff;fill-opacity:1;fill-rule:nonzero;stroke:none"/></g><g transform="translate(769.9844,491.4824)" id="g40"><path d="m 0,0 c 3.157,-56.659 -4.727,-96.24 -9.097,-138.641 l -98.68,27.879 c 12.409,34.252 9.003,72.143 10.05,111.538 L 0,0 z" inkscape:connector-curvature="0" id="path42" style="fill:#ffffff;fill-opacity:1;fill-rule:nonzero;stroke:none"/></g><g transform="translate(617.4453,289.1621)" id="g44"><path d="m 0,0 83.52,-75.166 c -25.717,-33.947 -61.51,-63.637 -90.977,-88.668 l -65.539,85.686 C -51.467,-57.212 -18.692,-24.973 0,0" inkscape:connector-curvature="0" id="path46" style="fill:#ffffff;fill-opacity:1;fill-rule:nonzero;stroke:none"/></g><g transform="translate(392.7754,126.4795)" id="g48"><path d="m 0,0 -0.794,-118.05 c 44.885,14.053 82.589,43.365 116.24,56.322 L 75.189,33.064 C 56.491,21.981 58.275,25.573 0,0" inkscape:connector-curvature="0" id="path50" style="fill:#ffffff;fill-opacity:1;fill-rule:nonzero;stroke:none"/></g><g transform="translate(228.73,217.1113)" id="g52"><path d="m 0,0 -65.177,-84.478 c 27.956,-31.178 65.248,-44.621 101.396,-68.954 L 78.605,-50.746 C 46.627,-31.178 13.956,-14.914 0,0" inkscape:connector-curvature="0" id="path54" style="fill:#ffffff;fill-opacity:1;fill-rule:nonzero;stroke:none"/></g><g transform="translate(19.5205,353.6436)" id="g56"><path d="m 0,0 c 14.223,-43.951 21.634,-93.904 59.055,-133.856 l 80.952,80.368 c -14.654,26.188 -20.699,42.909 -31.962,75.581" inkscape:connector-curvature="0" id="path58" style="fill:#ffffff;fill-opacity:1;fill-rule:nonzero;stroke:none"/></g><g transform="translate(7.8037,606.6895)" id="g60"><path d="m 0,0 c -1.132,-36.697 -1.17,-72.251 2.346,-108.947 l 105.074,-0.38 c -4.23,34.463 -2.856,73.045 -2.607,109.42" inkscape:connector-curvature="0" id="path62" style="fill:#ffffff;fill-opacity:1;fill-rule:nonzero;stroke:none"/></g><g transform="translate(8.6313,903.624)" id="g64"><path d="m 0,0 101.532,-116.397 2.968,-66.004 -105.75,0.25 L 0,0 z" inkscape:connector-curvature="0" id="path66" style="fill:#ffffff;fill-opacity:1;fill-rule:nonzero;stroke:none"/></g><g transform="translate(161.0674,903.8574)" id="g68"><path d="m 0,0 3.442,-117.031 109.589,1.064 -2.277,115.817" inkscape:connector-curvature="0" id="path70" style="fill:#ffffff;fill-opacity:1;fill-rule:nonzero;stroke:none"/></g><g transform="translate(5.9565,903.0796)" id="g72"><path d="m 0,0 c -2.027,-127.779 -1.908,-255.575 0,-383.35 1.838,-123.107 7.979,-219.177 63.13,-294.295 66.436,-90.487 177.114,-155.787 319.485,-219.942 142.371,64.155 253.05,129.455 319.485,219.942 55.15,75.118 61.292,171.188 63.131,294.295 1.907,127.775 2.027,255.571 0,383.35 L 0,0 z" inkscape:connector-curvature="0" id="path74" style="fill:none;stroke:#554400;stroke-width:2.5710001;stroke-linecap:butt;stroke-linejoin:miter;stroke-miterlimit:4;stroke-opacity:1;stroke-dasharray:none"/></g><g transform="translate(503.1016,555.439)" id="g76"><path d="m 0,0 c 1.225,11.508 0.572,33.213 -5.482,43.076 -2.047,3.333 -7.059,7.214 -10.965,7.049 -3.852,-0.162 -9.147,-1.3 -10.963,-4.7 -1.664,-3.115 -2.746,-9.804 -2.35,-13.315 0.549,-4.875 6.262,-14.881 6.262,-14.881 0,0 -20.479,4.109 -27.41,9.398 -6.86,5.233 -14.262,15.151 -16.447,23.497 -0.752,2.863 -3.68,12.122 0.017,23.229 2.147,6.446 8.604,15.074 13.596,19.374 13.047,11.229 38.379,7.963 43.556,5.172 C -3.332,94.208 5.018,86.357 7.83,79.103 10.014,73.47 14.553,56.847 15.664,50.908 17.926,38.79 18.584,34.218 19.578,21.93 20.262,13.496 22.143,5.923 20.361,-2.349 19.4,-6.805 18.203,-17.035 15.598,-23.77 12.979,-30.541 8.951,-33.815 5.48,-36.81 c -7.085,-6.12 -29.761,-9.398 -29.761,-9.398 0,0 12.459,15.715 15.664,22.713 C -4.809,-15.187 -0.965,-9.088 0,0" inkscape:connector-curvature="0" id="path78" style="fill:#ffe24b;fill-opacity:1;fill-rule:nonzero;stroke:none"/></g><g transform="translate(558.6387,555.439)" id="g80"><path d="m 0,0 c -1.225,11.508 -0.576,33.213 5.482,43.076 2.043,3.333 7.059,7.214 10.965,7.049 3.848,-0.162 9.147,-1.3 10.963,-4.7 1.664,-3.115 2.746,-9.804 2.35,-13.315 -0.549,-4.875 -6.264,-14.881 -6.264,-14.881 0,0 20.481,4.109 27.412,9.398 6.858,5.233 14.26,15.151 16.447,23.497 0.75,2.863 3.678,12.122 -0.019,23.229 -2.147,6.446 -8.604,15.074 -13.6,19.374 C 40.693,103.956 15.359,100.69 10.18,97.899 3.33,94.208 -5.021,86.357 -7.834,79.103 -10.018,73.47 -14.559,56.847 -15.666,50.908 -17.93,38.79 -18.586,34.218 -19.58,21.93 c -0.684,-8.434 -2.565,-16.007 -0.785,-24.279 0.961,-4.456 2.16,-14.686 4.765,-21.421 2.62,-6.771 6.647,-10.045 10.118,-13.04 7.086,-6.12 29.761,-9.398 29.761,-9.398 0,0 -12.459,15.715 -15.664,22.713 C 4.807,-15.187 0.965,-9.088 0,0" inkscape:connector-curvature="0" id="path82" style="fill:#ffe24b;fill-opacity:1;fill-rule:nonzero;stroke:none"/></g><g transform="translate(579.7031,510.5195)" id="g84"><path d="M 0,0 -5.979,0.096 -25.111,6.108 -48.072,26.335 -65.016,10.209 -76.496,4.742 -89.615,0.368 -98.324,-0.224 c 0,0 15.422,10.381 20.744,16.219 3.809,4.175 7.689,10.773 10.184,15.842 4.3,8.734 10.939,30.552 11.169,30.701 l 4.891,0.734 9.428,-0.753 c 0,0 6.637,-21.82 10.939,-30.552 2.494,-5.07 6.377,-11.668 10.182,-15.842 C -15.465,10.285 0,0 0,0" inkscape:connector-curvature="0" id="path86" style="fill:#ddad00;fill-opacity:1;fill-rule:nonzero;stroke:none"/></g><g transform="translate(582.7656,573.2046)" id="g88"><path d="m 0,0 c 0,0 11.646,4.913 15.117,8.862 3.701,4.212 6.182,11.711 7.297,17.204 0.842,4.138 -1.211,12.92 -3.129,16.683 -2.892,5.686 -6.441,8.973 -12.51,10.947 -4.164,1.354 -10.494,1.527 -14.597,0 -4.262,-1.585 -10.223,-5.288 -13.032,-8.863 -4.236,-5.388 -6.732,-11.583 -8.341,-18.246 -0.991,-4.104 -3.213,-16.63 -3.129,-20.852 0.08,-3.756 0.523,-15.64 0.523,-15.64 l 7.817,-13.032 0.199,0.593 -0.586,21.612 0,9.054 4.088,14.019 6.717,9.054 7.884,1.168 L 1.914,28.766 5.127,20.588 4.541,10.659 0,0 z" inkscape:connector-curvature="0" id="path90" style="fill:#ddad00;fill-opacity:1;fill-rule:nonzero;stroke:none"/></g><g transform="translate(479.0039,573.229)" id="g92"><path d="m 0,0 c 0,0 -11.646,4.913 -15.117,8.862 -3.701,4.212 -6.182,11.711 -7.299,17.203 -0.842,4.138 1.213,12.92 3.127,16.682 2.896,5.687 6.441,8.975 12.512,10.949 4.164,1.353 10.494,1.528 14.597,0 4.262,-1.584 10.223,-5.288 13.032,-8.862 C 25.088,39.445 27.586,33.25 29.191,26.589 30.184,22.483 32.408,9.958 32.318,5.736 32.24,1.98 31.799,-9.903 31.799,-9.903 l -7.82,-13.033 -0.196,0.594 0.586,21.612 0,9.054 -4.092,14.019 -6.713,9.054 -7.89,1.169 -7.59,-3.796 -3.215,-8.179 0.586,-9.929 L 0,0 z" inkscape:connector-curvature="0" id="path94" style="fill:#ddad00;fill-opacity:1;fill-rule:nonzero;stroke:none"/></g><g transform="translate(503.1016,555.439)" id="g96"><path d="m 0,0 c 1.225,11.508 0.572,33.213 -5.482,43.076 -2.047,3.333 -7.059,7.214 -10.965,7.049 -3.852,-0.162 -9.147,-1.3 -10.963,-4.7 -1.664,-3.115 -2.746,-9.804 -2.35,-13.315 0.549,-4.875 6.262,-14.881 6.262,-14.881 0,0 -20.479,4.109 -27.41,9.398 -6.86,5.233 -14.262,15.151 -16.447,23.497 -0.752,2.863 -3.68,12.122 0.017,23.229 2.147,6.446 8.604,15.074 13.596,19.374 13.047,11.229 38.379,7.963 43.556,5.172 C -3.332,94.208 5.018,86.357 7.83,79.103 10.014,73.47 14.553,56.847 15.664,50.908 17.926,38.79 18.584,34.218 19.578,21.93 20.262,13.496 22.143,5.923 20.361,-2.349 19.4,-6.805 18.203,-17.035 15.598,-23.77 12.979,-30.541 8.951,-33.815 5.48,-36.81 c -7.085,-6.12 -29.761,-9.398 -29.761,-9.398 0,0 12.459,15.715 15.664,22.713 C -4.809,-15.187 -0.965,-9.088 0,0 z" inkscape:connector-curvature="0" id="path98" style="fill:none;stroke:#554400;stroke-width:1.29999995;stroke-linecap:butt;stroke-linejoin:miter;stroke-miterlimit:4;stroke-opacity:1;stroke-dasharray:none"/></g><g transform="translate(558.6387,555.439)" id="g100"><path d="m 0,0 c -1.225,11.508 -0.576,33.213 5.482,43.076 2.043,3.333 7.059,7.214 10.965,7.049 3.848,-0.162 9.147,-1.3 10.963,-4.7 1.664,-3.115 2.746,-9.804 2.35,-13.315 -0.549,-4.875 -6.264,-14.881 -6.264,-14.881 0,0 20.481,4.109 27.412,9.398 6.858,5.233 14.26,15.151 16.447,23.497 0.75,2.863 3.678,12.122 -0.019,23.229 -2.147,6.446 -8.604,15.074 -13.6,19.374 C 40.693,103.956 15.359,100.69 10.18,97.899 3.33,94.208 -5.021,86.357 -7.834,79.103 -10.018,73.47 -14.559,56.847 -15.666,50.908 -17.93,38.79 -18.586,34.218 -19.58,21.93 c -0.684,-8.434 -2.565,-16.007 -0.785,-24.279 0.961,-4.456 2.16,-14.686 4.765,-21.421 2.62,-6.771 6.647,-10.045 10.118,-13.04 7.086,-6.12 29.761,-9.398 29.761,-9.398 0,0 -12.459,15.715 -15.664,22.713 C 4.807,-15.187 0.965,-9.088 0,0 z" inkscape:connector-curvature="0" id="path102" style="fill:none;stroke:#554400;stroke-width:1.29999995;stroke-linecap:butt;stroke-linejoin:miter;stroke-miterlimit:4;stroke-opacity:1;stroke-dasharray:none"/></g><g transform="translate(447.627,602.9917)" id="g104"><path d="m 0,0 c 0,0 1.012,8.028 1.908,11.936 1.104,4.808 3.531,11.465 7.162,14.801 3.84,3.526 9.659,6.295 14.803,7.162 4.52,0.761 10.828,0.645 15.275,-0.478 3.418,-0.863 7.498,-3.416 10.504,-5.251 2.274,-1.388 7.162,-5.251 7.162,-5.251 0,0 -8.884,14.089 -14.802,17.665 -5.768,3.488 -15.221,4.951 -21.961,4.775 C 15.154,45.23 9.811,42.82 5.729,40.106 0.885,36.886 -4.312,30.328 -6.207,24.828 -7.561,20.902 -7.393,14.963 -6.207,10.983 -4.937,6.718 0,0.001 0,0" inkscape:connector-curvature="0" id="path106" style="fill:#fff2ac;fill-opacity:1;fill-rule:nonzero;stroke:none"/></g><g transform="translate(571.7598,637.3691)" id="g108"><path d="m 0,0 c 0,0 12.131,2.002 17.187,0.955 6.274,-1.298 14.516,-5.073 19.098,-9.549 3.944,-3.85 8.596,-16.232 8.596,-16.232 0,0 0.385,12.993 -1.434,18.143 C 42.35,-3.574 39.754,0.253 37.24,2.389 33.385,5.668 27.025,9.48 21.963,9.551 19.305,9.59 13.223,9.724 9.615,8.075 3.48,5.262 0,0 0,0" inkscape:connector-curvature="0" id="path110" style="fill:#fff2ac;fill-opacity:1;fill-rule:nonzero;stroke:none"/></g><g transform="translate(530.7266,469.9585)" id="g112"><path d="M 0,0 C 0,0 18.297,15.008 21.326,31.988 24.047,47.262 11.92,65.152 11,72.346 c -3.676,28.773 4.113,67.102 4.814,70.236 2.791,12.445 6.301,17.771 8.17,21.845 1.344,2.933 5.19,8.767 9.034,14.423 2.205,3.245 7.117,9.287 9.619,15.433 2.654,6.512 2.836,13.141 2.873,16.682 0.068,6.028 -1.071,11.154 -2.672,16.062 -1.522,4.665 -6.475,12.301 -13.656,16.689 -7.741,4.731 -14,8.534 -16.381,10.039 C 4.936,258.73 0.092,275.094 0,275.094 c -0.09,0 -4.936,-16.363 -12.801,-21.339 -2.383,-1.505 -8.355,-5.308 -16.097,-10.041 -7.18,-4.387 -12.135,-12.022 -13.657,-16.688 -1.599,-4.907 -2.736,-10.035 -2.672,-16.061 0.038,-3.54 0.221,-10.169 2.873,-16.682 2.502,-6.146 7.416,-12.188 9.622,-15.433 3.841,-5.656 7.685,-11.49 9.031,-14.424 1.869,-4.074 5.379,-9.4 8.168,-21.845 0.703,-3.133 8.49,-41.464 4.814,-70.237 C -11.635,65.15 -24.053,47.26 -21.328,31.987 -18.299,15.008 0,0 0,0" inkscape:connector-curvature="0" id="path114" style="fill:#ffe24b;fill-opacity:1;fill-rule:nonzero;stroke:none"/></g><g transform="translate(530.7266,469.9585)" id="g116"><path d="M 0,0 -0.023,272.865" inkscape:connector-curvature="0" id="path118" style="fill:none;stroke:#9e7500;stroke-width:1.29999995;stroke-linecap:butt;stroke-linejoin:miter;stroke-miterlimit:4;stroke-opacity:1;stroke-dasharray:none"/></g><g transform="translate(531.2832,470.5137)" id="g120"><path d="m 0,0 14.918,16.641 5.736,10.902 -1.144,14.92 -4.018,15.493 -6.314,13.771 0,22.378 2.299,22.38 2.869,24.673 6.31,19.51 10.328,14.346 8.61,14.92 3.443,8.032 1.721,14.346 -2.295,13.772 -7.266,11.641 -13.967,9.589 c 0,0 8.276,-9.302 13.704,-18.051 2.916,-4.698 2.879,-10.46 2.939,-11.788 0.256,-5.675 -0.176,-8.307 -1.723,-13.771 -1.429,-5.057 -4.464,-10.601 -7.459,-14.92 C 25.336,183.945 19.336,178.525 16.643,173.292 12.779,165.785 10.172,154.618 8.609,146.321 6.689,136.137 6.426,122.235 5.74,111.893 5.043,101.401 3.188,87.371 4.016,76.89 4.545,70.227 7.43,60.883 8.609,55.085 c 0.815,-4.01 2.922,-9.139 3.442,-13.198 0.506,-3.928 0.541,-9.275 0,-13.198 C 11.443,24.261 9.744,18.474 8.037,14.344 6.148,9.786 0,0 0,0" inkscape:connector-curvature="0" id="path122" style="fill:#ddad00;fill-opacity:1;fill-rule:nonzero;stroke:none"/></g><g transform="translate(511.1953,495.7617)" id="g124"><path d="m 0,0 c 0,0 0.352,8.906 1.15,12.625 1.11,5.163 3.879,11.698 5.739,16.64 1.765,4.698 5.269,10.583 6.31,15.493 2.289,10.782 1.789,25.721 1.149,36.723 -0.477,8.166 -2.868,18.872 -4.016,26.971 -0.904,6.363 -2.594,16.269 -4.592,22.38 -2.129,6.516 -5.617,14.834 -9.179,20.691 -3.028,4.977 -7.131,9.873 -10.903,14.311 -2.918,3.434 -10.902,10.328 -10.902,10.328 l 1.109,-0.418 1.319,-6.146 5.267,-8.78 5.27,-9.66 8.781,-13.608 5.705,-14.487 3.074,-15.365 2.633,-21.073 1.318,-21.072 0,-19.756 L 4.402,35.701 -1.303,20.336 -3.061,7.605 0,0 z" inkscape:connector-curvature="0" id="path126" style="fill:#ddad00;fill-opacity:1;fill-rule:nonzero;stroke:none"/></g><g transform="translate(530.7266,469.9595)" id="g128"><path d="m 0,0 c 0,0 18.297,15.008 21.324,31.988 2.723,15.273 -9.406,33.163 -10.326,40.358 -3.674,28.772 4.115,67.102 4.816,70.236 2.791,12.445 6.299,17.771 8.168,21.845 1.346,2.933 5.192,8.767 9.034,14.423 2.207,3.245 7.117,9.287 9.619,15.432 2.656,6.513 2.836,13.142 2.873,16.682 0.068,6.029 -1.07,11.155 -2.672,16.063 -1.518,4.665 -6.475,12.301 -13.656,16.689 -7.739,4.73 -14,8.533 -16.379,10.039 C 4.934,258.73 0.092,275.094 0,275.094 c -0.092,0 -4.936,-16.363 -12.803,-21.339 -2.381,-1.506 -8.353,-5.309 -16.095,-10.039 -7.18,-4.388 -12.137,-12.024 -13.659,-16.689 -1.597,-4.908 -2.736,-10.034 -2.672,-16.063 0.041,-3.54 0.221,-10.169 2.874,-16.682 2.501,-6.145 7.417,-12.187 9.623,-15.432 3.839,-5.656 7.685,-11.49 9.029,-14.423 1.869,-4.076 5.381,-9.4 8.168,-21.845 0.705,-3.132 8.492,-41.464 4.816,-70.236 C -11.637,65.151 -24.049,47.261 -21.328,31.988 -18.299,15.008 0,0 0,0 z" inkscape:connector-curvature="0" id="path130" style="fill:none;stroke:#554400;stroke-width:1.29999995;stroke-linecap:butt;stroke-linejoin:miter;stroke-miterlimit:4;stroke-opacity:1;stroke-dasharray:none"/></g><g transform="translate(520.582,644.3008)" id="g132"><path d="m 0,0 1.568,70.577 c 0,0 -8.783,-6.587 -12.547,-9.41 -2.822,-2.118 -7.65,-4 -9.41,-7.059 -4.017,-6.981 -5.781,-14.67 -2.351,-21.956 2.027,-4.311 9.31,-9.834 12.547,-13.332 C -5.836,14.106 0,0 0,0" inkscape:connector-curvature="0" id="path134" style="fill:#fff2ac;fill-opacity:1;fill-rule:nonzero;stroke:none"/></g><g transform="translate(538.6172,655.2793)" id="g136"><path d="m 0,0 0,50.972 c 0,0 2.799,-5.374 4.705,-7.057 1.578,-1.394 4.711,-1.728 6.275,-3.137 2.276,-2.054 4.891,-5.619 5.487,-8.626 0.791,-3.984 -0.391,-9.776 -2.35,-13.333 C 12.428,15.757 7.6,13.766 5.488,10.978 3.268,8.043 0,0 0,0" inkscape:connector-curvature="0" id="path138" style="fill:#fff2ac;fill-opacity:1;fill-rule:nonzero;stroke:none"/></g><g transform="translate(525.791,492.166)" id="g140"><path d="m 0,0 c -0.654,6.794 -0.502,22.743 -0.502,22.743 0,0 -5.803,-8.578 -6.771,-12.458 C -7.787,8.23 -8.299,3.789 -7.768,1.739 -6.555,-2.95 1.365,-12.575 1.365,-12.575 1.365,-12.575 0.303,-3.125 0,0" inkscape:connector-curvature="0" id="path142" style="fill:#fff2ac;fill-opacity:1;fill-rule:nonzero;stroke:none"/></g><g transform="translate(571.834,562.2568)" id="g144"><path d="m 0,0 -8.801,12.194 -64.295,0 L -81.93,0 l 8.834,-12.14 64.295,0 L 0,0 z" inkscape:connector-curvature="0" id="path146" style="fill:#ffe24b;fill-opacity:1;fill-rule:nonzero;stroke:none"/></g><g transform="translate(494.7187,567.3027)" id="g148"><path d="M 0,0 72.924,-0.394 67.535,7.227 3.809,7.358 0,0 z" inkscape:connector-curvature="0" id="path150" style="fill:#fff2ac;fill-opacity:1;fill-rule:nonzero;stroke:none"/></g><g transform="translate(567.3379,557.043)" id="g152"><path d="M 0,0 -72.922,0.394 -67.535,-7.227 -3.809,-7.358 0,0 z" inkscape:connector-curvature="0" id="path154" style="fill:#ddad00;fill-opacity:1;fill-rule:nonzero;stroke:none"/></g><g transform="translate(571.834,562.2568)" id="g156"><path d="m 0,0 -8.801,12.194 -64.295,0 L -81.93,0 l 8.834,-12.14 64.295,0 L 0,0 z" inkscape:connector-curvature="0" id="path158" style="fill:none;stroke:#554400;stroke-width:1.29999995;stroke-linecap:butt;stroke-linejoin:miter;stroke-miterlimit:4;stroke-opacity:1;stroke-dasharray:none"/></g><g transform="translate(223.5063,554.7153)" id="g160"><path d="m 0,0 c 1.223,11.508 0.573,33.213 -5.483,43.076 -2.047,3.333 -7.059,7.214 -10.965,7.049 -3.85,-0.162 -9.148,-1.3 -10.964,-4.7 -1.665,-3.115 -2.746,-9.804 -2.349,-13.315 0.55,-4.875 6.264,-14.881 6.264,-14.881 0,0 -20.48,4.109 -27.411,9.398 -6.86,5.233 -14.262,15.151 -16.448,23.497 -0.75,2.863 -3.677,12.122 0.021,23.229 2.145,6.446 8.601,15.074 13.596,19.374 13.044,11.229 38.377,7.963 43.557,5.172 C -3.33,94.208 5.02,86.357 7.832,79.103 10.016,73.47 14.555,56.847 15.664,50.908 17.928,38.79 18.585,34.218 19.58,21.93 20.262,13.496 22.145,5.923 20.362,-2.349 19.402,-6.805 18.203,-17.035 15.599,-23.77 12.981,-30.541 8.952,-33.815 5.483,-36.81 c -7.087,-6.12 -29.763,-9.398 -29.763,-9.398 0,0 12.458,15.715 15.665,22.713 C -4.808,-15.187 -0.967,-9.088 0,0" inkscape:connector-curvature="0" id="path162" style="fill:#ffe24b;fill-opacity:1;fill-rule:nonzero;stroke:none"/></g><g transform="translate(279.04,554.7153)" id="g164"><path d="m 0,0 c -1.223,11.508 -0.573,33.213 5.483,43.076 2.047,3.333 7.059,7.214 10.964,7.049 3.851,-0.162 9.149,-1.3 10.967,-4.7 1.665,-3.115 2.746,-9.804 2.349,-13.315 -0.552,-4.875 -6.266,-14.881 -6.266,-14.881 0,0 20.48,4.109 27.411,9.398 6.86,5.233 14.262,15.151 16.447,23.497 0.751,2.863 3.68,12.122 -0.018,23.229 C 65.192,79.799 58.736,88.427 53.739,92.727 40.694,103.956 15.362,100.69 10.183,97.899 3.332,94.208 -5.018,86.357 -7.831,79.103 -10.015,73.47 -14.554,56.847 -15.664,50.908 -17.927,38.79 -18.585,34.218 -19.58,21.93 c -0.682,-8.434 -2.565,-16.007 -0.783,-24.279 0.961,-4.456 2.16,-14.686 4.764,-21.421 2.618,-6.771 6.647,-10.045 10.116,-13.04 7.087,-6.12 29.763,-9.398 29.763,-9.398 0,0 -12.458,15.715 -15.665,22.713 C 4.808,-15.187 0.967,-9.088 0,0" inkscape:connector-curvature="0" id="path166" style="fill:#ffe24b;fill-opacity:1;fill-rule:nonzero;stroke:none"/></g><g transform="translate(300.1045,509.7959)" id="g168"><path d="m 0,0 -5.974,0.096 -19.133,6.012 -22.959,20.227 -16.946,-16.126 -11.481,-5.467 -13.12,-4.374 -8.71,-0.592 c 0,0 15.422,10.381 20.744,16.219 3.808,4.175 7.689,10.773 10.185,15.842 4.301,8.734 10.938,30.552 11.17,30.701 l 4.888,0.734 9.429,-0.753 c 0,0 6.637,-21.82 10.938,-30.552 2.496,-5.07 6.378,-11.668 10.185,-15.842 C -15.462,10.285 0,0 0,0" inkscape:connector-curvature="0" id="path170" style="fill:#ddad00;fill-opacity:1;fill-rule:nonzero;stroke:none"/></g><g transform="translate(303.1675,572.481)" id="g172"><path d="m 0,0 c 0,0 11.648,4.913 15.118,8.862 3.7,4.212 6.181,11.711 7.299,17.204 0.842,4.138 -1.211,12.92 -3.128,16.683 -2.896,5.686 -6.443,8.973 -12.512,10.947 -4.164,1.354 -10.491,1.527 -14.595,0 -4.262,-1.585 -10.224,-5.288 -13.033,-8.863 -4.236,-5.388 -6.732,-11.583 -8.34,-18.246 -0.992,-4.104 -3.216,-16.63 -3.128,-20.852 0.079,-3.756 0.521,-15.64 0.521,-15.64 l 7.819,-13.032 0.195,0.593 -0.584,21.612 0,9.054 4.089,14.019 6.717,9.054 7.884,1.168 L 1.917,28.766 5.129,20.588 4.545,10.659 0,0 z" inkscape:connector-curvature="0" id="path174" style="fill:#ddad00;fill-opacity:1;fill-rule:nonzero;stroke:none"/></g><g transform="translate(199.4082,572.5054)" id="g176"><path d="m 0,0 c 0,0 -11.647,4.913 -15.118,8.862 -3.7,4.212 -6.181,11.711 -7.298,17.203 -0.841,4.138 1.213,12.92 3.128,16.682 2.896,5.687 6.442,8.975 12.512,10.949 4.164,1.353 10.493,1.528 14.597,0 4.262,-1.584 10.223,-5.288 13.033,-8.862 C 25.09,39.445 27.586,33.25 29.194,26.589 30.186,22.483 32.41,9.958 32.321,5.736 32.243,1.98 31.801,-9.903 31.801,-9.903 l -7.82,-13.033 -0.194,0.594 0.584,21.612 0,9.054 -4.089,14.019 -6.717,9.054 L 5.679,32.566 -1.914,28.77 -5.126,20.591 -4.542,10.662 0,0 z" inkscape:connector-curvature="0" id="path178" style="fill:#ddad00;fill-opacity:1;fill-rule:nonzero;stroke:none"/></g><g transform="translate(223.5063,554.7153)" id="g180"><path d="m 0,0 c 1.223,11.508 0.573,33.213 -5.483,43.076 -2.047,3.333 -7.059,7.214 -10.965,7.049 -3.85,-0.162 -9.148,-1.3 -10.964,-4.7 -1.665,-3.115 -2.746,-9.804 -2.349,-13.315 0.55,-4.875 6.264,-14.881 6.264,-14.881 0,0 -20.48,4.109 -27.411,9.398 -6.86,5.233 -14.262,15.151 -16.448,23.497 -0.75,2.863 -3.677,12.122 0.021,23.229 2.145,6.446 8.601,15.074 13.596,19.374 13.044,11.229 38.377,7.963 43.557,5.172 C -3.33,94.208 5.02,86.357 7.832,79.103 10.016,73.47 14.555,56.847 15.664,50.908 17.928,38.79 18.585,34.218 19.58,21.93 20.262,13.496 22.145,5.923 20.362,-2.349 19.402,-6.805 18.203,-17.035 15.599,-23.77 12.981,-30.541 8.952,-33.815 5.483,-36.81 c -7.087,-6.12 -29.763,-9.398 -29.763,-9.398 0,0 12.458,15.715 15.665,22.713 C -4.808,-15.187 -0.967,-9.088 0,0 z" inkscape:connector-curvature="0" id="path182" style="fill:none;stroke:#554400;stroke-width:1.29999995;stroke-linecap:butt;stroke-linejoin:miter;stroke-miterlimit:4;stroke-opacity:1;stroke-dasharray:none"/></g><g transform="translate(279.04,554.7153)" id="g184"><path d="m 0,0 c -1.223,11.508 -0.573,33.213 5.483,43.076 2.047,3.333 7.059,7.214 10.964,7.049 3.851,-0.162 9.149,-1.3 10.967,-4.7 1.665,-3.115 2.746,-9.804 2.349,-13.315 -0.552,-4.875 -6.266,-14.881 -6.266,-14.881 0,0 20.48,4.109 27.411,9.398 6.86,5.233 14.262,15.151 16.447,23.497 0.751,2.863 3.68,12.122 -0.018,23.229 C 65.192,79.799 58.736,88.427 53.739,92.727 40.694,103.956 15.362,100.69 10.183,97.899 3.332,94.208 -5.018,86.357 -7.831,79.103 -10.015,73.47 -14.554,56.847 -15.664,50.908 -17.927,38.79 -18.585,34.218 -19.58,21.93 c -0.682,-8.434 -2.565,-16.007 -0.783,-24.279 0.961,-4.456 2.16,-14.686 4.764,-21.421 2.618,-6.771 6.647,-10.045 10.116,-13.04 7.087,-6.12 29.763,-9.398 29.763,-9.398 0,0 -12.458,15.715 -15.665,22.713 C 4.808,-15.187 0.967,-9.088 0,0 z" inkscape:connector-curvature="0" id="path186" style="fill:none;stroke:#554400;stroke-width:1.29999995;stroke-linecap:butt;stroke-linejoin:miter;stroke-miterlimit:4;stroke-opacity:1;stroke-dasharray:none"/></g><g transform="translate(168.0298,602.2681)" id="g188"><path d="m 0,0 c 0,0 1.013,8.028 1.909,11.936 1.103,4.808 3.528,11.465 7.162,14.801 3.841,3.526 9.659,6.295 14.801,7.162 4.521,0.761 10.832,0.645 15.278,-0.478 3.416,-0.863 7.497,-3.416 10.504,-5.251 2.274,-1.388 7.162,-5.251 7.162,-5.251 0,0 -8.884,14.089 -14.801,17.665 -5.77,3.488 -15.223,4.951 -21.961,4.775 C 15.156,45.23 9.809,42.82 5.73,40.106 0.887,36.886 -4.312,30.328 -6.206,24.828 -7.559,20.902 -7.392,14.963 -6.206,10.983 -4.936,6.718 0,0.001 0,0" inkscape:connector-curvature="0" id="path190" style="fill:#fff2ac;fill-opacity:1;fill-rule:nonzero;stroke:none"/></g><g transform="translate(292.1646,636.6455)" id="g192"><path d="m 0,0 c 0,0 12.13,2.002 17.188,0.955 6.273,-1.298 14.516,-5.073 19.098,-9.549 3.942,-3.85 8.595,-16.232 8.595,-16.232 0,0 0.385,12.993 -1.433,18.143 C 42.35,-3.574 39.754,0.253 37.242,2.389 33.386,5.668 27.025,9.48 21.964,9.551 19.306,9.59 13.221,9.724 9.618,8.075 3.479,5.262 0,0 0,0" inkscape:connector-curvature="0" id="path194" style="fill:#fff2ac;fill-opacity:1;fill-rule:nonzero;stroke:none"/></g><g transform="translate(251.1294,469.2349)" id="g196"><path d="m 0,0 c 0,0 18.299,15.008 21.327,31.988 2.721,15.274 -9.407,33.164 -10.326,40.358 -3.675,28.773 4.115,67.102 4.816,70.236 2.79,12.445 6.3,17.771 8.169,21.845 1.346,2.933 5.19,8.767 9.033,14.423 2.205,3.245 7.116,9.287 9.62,15.433 2.652,6.512 2.834,13.141 2.871,16.682 0.067,6.028 -1.072,11.154 -2.672,16.062 -1.52,4.665 -6.476,12.301 -13.656,16.689 -7.741,4.731 -13.999,8.534 -16.381,10.039 C 4.935,258.73 0.093,275.094 0,275.094 c -0.093,0 -4.935,-16.363 -12.801,-21.339 -2.381,-1.505 -8.354,-5.308 -16.095,-10.041 -7.18,-4.387 -12.135,-12.022 -13.656,-16.688 -1.6,-4.907 -2.739,-10.035 -2.674,-16.061 0.038,-3.54 0.221,-10.169 2.873,-16.682 2.503,-6.146 7.415,-12.188 9.621,-15.433 3.842,-5.656 7.687,-11.49 9.032,-14.424 1.868,-4.074 5.379,-9.4 8.167,-21.845 0.703,-3.133 8.493,-41.464 4.816,-70.237 C -11.636,65.15 -24.049,47.26 -21.326,31.987 -18.297,15.008 0,0 0,0" inkscape:connector-curvature="0" id="path198" style="fill:#ffe24b;fill-opacity:1;fill-rule:nonzero;stroke:none"/></g><g transform="translate(251.1294,469.2349)" id="g200"><path d="M 0,0 -0.023,272.865" inkscape:connector-curvature="0" id="path202" style="fill:none;stroke:#9e7500;stroke-width:1.29999995;stroke-linecap:butt;stroke-linejoin:miter;stroke-miterlimit:4;stroke-opacity:1;stroke-dasharray:none"/></g><g transform="translate(251.686,469.79)" id="g204"><path d="m 0,0 14.92,16.641 5.739,10.902 -1.149,14.92 -4.017,15.493 -6.311,13.771 0,22.378 2.296,22.38 2.869,24.673 6.312,19.51 10.328,14.346 8.608,14.92 3.443,8.032 1.722,14.346 -2.295,13.772 -7.266,11.641 -13.967,9.589 c 0,0 8.276,-9.302 13.703,-18.051 2.915,-4.698 2.878,-10.46 2.94,-11.788 0.257,-5.675 -0.175,-8.307 -1.723,-13.771 -1.431,-5.057 -4.465,-10.601 -7.458,-14.92 -3.356,-4.839 -9.357,-10.259 -12.05,-15.492 -3.863,-7.507 -6.47,-18.674 -8.033,-26.971 C 6.691,136.137 6.427,122.235 5.741,111.893 5.046,101.401 3.188,87.371 4.019,76.89 4.549,70.227 7.431,60.883 8.611,55.085 c 0.815,-4.01 2.922,-9.139 3.443,-13.198 0.503,-3.928 0.538,-9.275 0,-13.198 C 11.445,24.261 9.743,18.474 8.036,14.344 6.15,9.786 0,0 0,0" inkscape:connector-curvature="0" id="path206" style="fill:#ddad00;fill-opacity:1;fill-rule:nonzero;stroke:none"/></g><g transform="translate(231.6016,495.0381)" id="g208"><path d="m 0,0 c 0,0 0.349,8.906 1.147,12.625 1.108,5.163 3.88,11.698 5.738,16.64 1.766,4.698 5.272,10.583 6.313,15.493 2.287,10.782 1.79,25.721 1.147,36.723 -0.477,8.166 -2.866,18.872 -4.017,26.971 -0.904,6.363 -2.595,16.269 -4.59,22.38 -2.13,6.516 -5.616,14.834 -9.181,20.691 -3.029,4.977 -7.131,9.873 -10.902,14.311 -2.918,3.434 -10.903,10.328 -10.903,10.328 l 1.11,-0.418 1.318,-6.146 5.268,-8.78 5.268,-9.66 8.781,-13.608 5.707,-14.487 3.073,-15.365 2.634,-21.073 1.318,-21.072 0,-19.756 L 4.399,35.701 -1.308,20.336 -3.064,7.605 0,0 z" inkscape:connector-curvature="0" id="path210" style="fill:#ddad00;fill-opacity:1;fill-rule:nonzero;stroke:none"/></g><g transform="translate(251.1304,469.2358)" id="g212"><path d="m 0,0 c 0,0 18.297,15.008 21.326,31.988 2.722,15.273 -9.406,33.163 -10.325,40.358 -3.676,28.772 4.115,67.102 4.816,70.236 2.789,12.445 6.3,17.771 8.169,21.845 1.345,2.933 5.189,8.767 9.032,14.423 2.206,3.245 7.117,9.287 9.621,15.432 2.652,6.513 2.834,13.142 2.873,16.682 0.065,6.029 -1.074,11.155 -2.674,16.063 -1.52,4.665 -6.476,12.301 -13.655,16.689 -7.741,4.73 -13.999,8.533 -16.381,10.039 C 4.935,258.73 0.092,275.094 0,275.094 c -0.093,0 -4.935,-16.363 -12.801,-21.339 -2.382,-1.506 -8.354,-5.309 -16.095,-10.039 -7.181,-4.388 -12.135,-12.024 -13.657,-16.689 -1.6,-4.908 -2.738,-10.034 -2.673,-16.063 0.038,-3.54 0.221,-10.169 2.872,-16.682 2.502,-6.145 7.414,-12.187 9.62,-15.432 3.842,-5.656 7.687,-11.49 9.032,-14.423 1.869,-4.076 5.379,-9.4 8.167,-21.845 0.703,-3.132 8.493,-41.464 4.816,-70.236 C -11.638,65.151 -24.051,47.261 -21.328,31.988 -18.299,15.008 0,0 0,0 z" inkscape:connector-curvature="0" id="path214" style="fill:none;stroke:#554400;stroke-width:1.29999995;stroke-linecap:butt;stroke-linejoin:miter;stroke-miterlimit:4;stroke-opacity:1;stroke-dasharray:none"/></g><g transform="translate(240.9858,643.5771)" id="g216"><path d="m 0,0 1.568,70.577 c 0,0 -8.784,-6.587 -12.548,-9.41 -2.823,-2.118 -7.65,-4 -9.41,-7.059 -4.018,-6.981 -5.781,-14.67 -2.353,-21.956 2.028,-4.311 9.312,-9.834 12.548,-13.332 C -5.835,14.106 -0.001,0 0,0" inkscape:connector-curvature="0" id="path218" style="fill:#fff2ac;fill-opacity:1;fill-rule:nonzero;stroke:none"/></g><g transform="translate(259.0225,654.5557)" id="g220"><path d="m 0,0 0,50.972 c 0,0 2.797,-5.374 4.705,-7.057 1.577,-1.394 4.711,-1.728 6.274,-3.137 2.277,-2.054 4.891,-5.619 5.489,-8.626 0.79,-3.984 -0.393,-9.776 -2.353,-13.333 C 12.426,15.757 7.601,13.766 5.489,10.978 3.265,8.043 0,0 0,0" inkscape:connector-curvature="0" id="path222" style="fill:#fff2ac;fill-opacity:1;fill-rule:nonzero;stroke:none"/></g><g transform="translate(246.1973,491.4424)" id="g224"><path d="m 0,0 c -0.657,6.794 -0.505,22.743 -0.505,22.743 0,0 -5.8,-8.578 -6.77,-12.458 C -7.789,8.23 -8.302,3.789 -7.771,1.739 -6.555,-2.95 1.36,-12.575 1.36,-12.575 1.36,-12.575 0.301,-3.125 0,0" inkscape:connector-curvature="0" id="path226" style="fill:#fff2ac;fill-opacity:1;fill-rule:nonzero;stroke:none"/></g><g transform="translate(292.2402,561.5332)" id="g228"><path d="m 0,0 -8.802,12.194 -64.296,0 L -81.934,0 l 8.836,-12.14 64.294,0 L 0,0 z" inkscape:connector-curvature="0" id="path230" style="fill:#ffe24b;fill-opacity:1;fill-rule:nonzero;stroke:none"/></g><g transform="translate(215.1235,566.5791)" id="g232"><path d="M 0,0 72.923,-0.394 67.536,7.227 3.81,7.358 0,0 z" inkscape:connector-curvature="0" id="path234" style="fill:#fff2ac;fill-opacity:1;fill-rule:nonzero;stroke:none"/></g><g transform="translate(287.7427,556.3193)" id="g236"><path d="M 0,0 -72.924,0.394 -67.537,-7.227 -3.811,-7.358 0,0 z" inkscape:connector-curvature="0" id="path238" style="fill:#ddad00;fill-opacity:1;fill-rule:nonzero;stroke:none"/></g><g transform="translate(292.2402,561.5332)" id="g240"><path d="m 0,0 -8.802,12.194 -64.296,0 L -81.934,0 l 8.836,-12.14 64.294,0 L 0,0 z" inkscape:connector-curvature="0" id="path242" style="fill:none;stroke:#554400;stroke-width:1.29999995;stroke-linecap:butt;stroke-linejoin:miter;stroke-miterlimit:4;stroke-opacity:1;stroke-dasharray:none"/></g><g transform="translate(360.9946,273.4111)" id="g244"><path d="m 0,0 c 1.225,11.508 0.573,33.213 -5.481,43.076 -2.047,3.333 -7.059,7.214 -10.966,7.049 -3.851,-0.164 -9.148,-1.301 -10.965,-4.7 -1.665,-3.115 -2.746,-9.805 -2.349,-13.316 0.552,-4.876 6.266,-14.88 6.266,-14.88 0,0 -20.48,4.11 -27.411,9.398 -6.86,5.232 -14.262,15.151 -16.448,23.496 -0.75,2.862 -3.677,12.123 0.019,23.23 2.147,6.447 8.601,15.074 13.597,19.374 13.045,11.227 38.378,7.963 43.557,5.172 C -3.33,94.208 5.02,86.358 7.833,79.103 10.016,73.47 14.556,56.847 15.665,50.908 17.929,38.79 18.587,34.218 19.582,21.93 c 0.682,-8.433 2.565,-16.007 0.782,-24.28 -0.96,-4.456 -2.159,-14.684 -4.763,-21.421 -2.618,-6.77 -6.647,-10.044 -10.116,-13.041 -7.087,-6.12 -29.763,-9.398 -29.763,-9.398 0,0 12.458,15.715 15.665,22.713 C -4.808,-15.188 -0.965,-9.088 0,0" inkscape:connector-curvature="0" id="path246" style="fill:#ffe24b;fill-opacity:1;fill-rule:nonzero;stroke:none"/></g><g transform="translate(416.5303,273.4111)" id="g248"><path d="m 0,0 c -1.225,11.508 -0.571,33.213 5.483,43.076 2.046,3.333 7.058,7.214 10.964,7.049 3.851,-0.164 9.15,-1.301 10.965,-4.7 1.666,-3.115 2.744,-9.805 2.349,-13.316 -0.55,-4.876 -6.265,-14.88 -6.265,-14.88 0,0 20.483,4.11 27.412,9.398 6.858,5.232 14.261,15.151 16.447,23.496 0.751,2.862 3.679,12.123 -0.018,23.23 C 65.19,79.8 58.734,88.427 53.741,92.727 40.694,103.954 15.363,100.69 10.183,97.899 3.331,94.208 -5.018,86.358 -7.83,79.103 -10.015,73.47 -14.554,56.847 -15.664,50.908 -17.927,38.79 -18.585,34.218 -19.579,21.93 c -0.682,-8.433 -2.565,-16.007 -0.782,-24.28 0.961,-4.456 2.161,-14.684 4.761,-21.421 2.621,-6.77 6.651,-10.044 10.119,-13.041 7.085,-6.12 29.76,-9.398 29.76,-9.398 0,0 -12.456,15.715 -15.662,22.713 C 4.809,-15.188 0.969,-9.088 0,0" inkscape:connector-curvature="0" id="path250" style="fill:#ffe24b;fill-opacity:1;fill-rule:nonzero;stroke:none"/></g><g transform="translate(437.5947,228.4902)" id="g252"><path d="m 0,0 -5.974,0.096 -19.133,6.013 -22.96,20.226 -16.949,-16.126 -11.48,-5.466 -13.12,-4.374 -8.71,-0.594 c 0,0 15.422,10.383 20.746,16.221 3.807,4.175 7.688,10.773 10.183,15.842 4.301,8.734 10.938,30.551 11.169,30.7 l 4.889,0.733 9.43,-0.751 c 0,0 6.639,-21.818 10.937,-30.553 2.497,-5.07 6.377,-11.666 10.186,-15.843 C -15.46,10.284 0,0 0,0" inkscape:connector-curvature="0" id="path254" style="fill:#ddad00;fill-opacity:1;fill-rule:nonzero;stroke:none"/></g><g transform="translate(440.6572,291.1748)" id="g256"><path d="m 0,0 c 0,0 11.65,4.913 15.118,8.864 3.703,4.21 6.184,11.709 7.299,17.202 0.842,4.138 -1.212,12.92 -3.127,16.683 -2.896,5.687 -6.442,8.975 -12.513,10.947 -4.164,1.355 -10.49,1.528 -14.593,0 -4.261,-1.585 -10.223,-5.287 -13.033,-8.861 -4.236,-5.39 -6.734,-11.583 -8.34,-18.246 -0.992,-4.104 -3.217,-16.631 -3.127,-20.853 0.078,-3.756 0.52,-15.639 0.52,-15.639 l 7.819,-13.033 0.195,0.593 -0.582,21.612 0,9.054 4.089,14.018 6.716,9.055 7.886,1.168 L 1.922,28.768 5.134,20.59 4.552,10.662 0,0 z" inkscape:connector-curvature="0" id="path258" style="fill:#ddad00;fill-opacity:1;fill-rule:nonzero;stroke:none"/></g><g transform="translate(336.8965,291.1992)" id="g260"><path d="m 0,0 c 0,0 -11.647,4.914 -15.117,8.862 -3.701,4.211 -6.181,11.711 -7.298,17.204 -0.842,4.137 1.211,12.919 3.127,16.683 2.896,5.686 6.443,8.974 12.513,10.947 4.164,1.354 10.491,1.527 14.596,0 4.262,-1.586 10.223,-5.288 13.033,-8.862 4.237,-5.391 6.732,-11.584 8.34,-18.246 C 30.184,22.483 32.41,9.956 32.322,5.735 32.243,1.98 31.801,-9.904 31.801,-9.904 l -7.82,-13.032 -0.194,0.594 0.584,21.613 0,9.053 -4.089,14.018 -6.717,9.054 L 5.679,32.563 -1.914,28.767 -5.127,20.59 -4.544,10.66 0,0 z" inkscape:connector-curvature="0" id="path262" style="fill:#ddad00;fill-opacity:1;fill-rule:nonzero;stroke:none"/></g><g transform="translate(360.9946,273.4111)" id="g264"><path d="m 0,0 c 1.225,11.508 0.573,33.213 -5.481,43.076 -2.047,3.333 -7.059,7.214 -10.966,7.049 -3.851,-0.164 -9.148,-1.301 -10.965,-4.7 -1.665,-3.115 -2.746,-9.805 -2.349,-13.316 0.552,-4.876 6.266,-14.88 6.266,-14.88 0,0 -20.48,4.11 -27.411,9.398 -6.86,5.232 -14.262,15.151 -16.448,23.496 -0.75,2.862 -3.677,12.123 0.019,23.23 2.147,6.447 8.601,15.074 13.597,19.374 13.045,11.227 38.378,7.963 43.557,5.172 C -3.33,94.208 5.02,86.358 7.833,79.103 10.016,73.47 14.556,56.847 15.665,50.908 17.929,38.79 18.587,34.218 19.582,21.93 c 0.682,-8.433 2.565,-16.007 0.782,-24.28 -0.96,-4.456 -2.159,-14.684 -4.763,-21.421 -2.618,-6.77 -6.647,-10.044 -10.116,-13.041 -7.087,-6.12 -29.763,-9.398 -29.763,-9.398 0,0 12.458,15.715 15.665,22.713 C -4.808,-15.188 -0.965,-9.088 0,0 z" inkscape:connector-curvature="0" id="path266" style="fill:none;stroke:#554400;stroke-width:1.29999995;stroke-linecap:butt;stroke-linejoin:miter;stroke-miterlimit:4;stroke-opacity:1;stroke-dasharray:none"/></g><g transform="translate(416.5303,273.4111)" id="g268"><path d="m 0,0 c -1.225,11.508 -0.571,33.213 5.483,43.076 2.046,3.333 7.058,7.214 10.964,7.049 3.851,-0.164 9.15,-1.301 10.965,-4.7 1.666,-3.115 2.744,-9.805 2.349,-13.316 -0.55,-4.876 -6.265,-14.88 -6.265,-14.88 0,0 20.483,4.11 27.412,9.398 6.858,5.232 14.261,15.151 16.447,23.496 0.751,2.862 3.679,12.123 -0.018,23.23 C 65.19,79.8 58.734,88.427 53.741,92.727 40.694,103.954 15.363,100.69 10.183,97.899 3.331,94.208 -5.018,86.358 -7.83,79.103 -10.015,73.47 -14.554,56.847 -15.664,50.908 -17.927,38.79 -18.585,34.218 -19.579,21.93 c -0.682,-8.433 -2.565,-16.007 -0.782,-24.28 0.961,-4.456 2.161,-14.684 4.761,-21.421 2.621,-6.77 6.651,-10.044 10.119,-13.041 7.085,-6.12 29.76,-9.398 29.76,-9.398 0,0 -12.456,15.715 -15.662,22.713 C 4.809,-15.188 0.969,-9.088 0,0 z" inkscape:connector-curvature="0" id="path270" style="fill:none;stroke:#554400;stroke-width:1.29999995;stroke-linecap:butt;stroke-linejoin:miter;stroke-miterlimit:4;stroke-opacity:1;stroke-dasharray:none"/></g><g transform="translate(305.52,320.9639)" id="g272"><path d="m 0,0 c 0,0 1.013,8.026 1.911,11.936 1.103,4.808 3.527,11.464 7.162,14.8 3.841,3.527 9.659,6.294 14.801,7.164 4.52,0.76 10.831,0.644 15.278,-0.479 3.414,-0.861 7.496,-3.414 10.504,-5.251 2.273,-1.39 7.161,-5.251 7.161,-5.251 0,0 -8.883,14.089 -14.8,17.666 -5.77,3.487 -15.223,4.948 -21.963,4.773 C 15.156,45.23 9.811,42.819 5.73,40.105 0.888,36.886 -4.312,30.327 -6.206,24.829 -7.559,20.901 -7.392,14.964 -6.206,10.982 -4.937,6.716 0,0 0,0" inkscape:connector-curvature="0" id="path274" style="fill:#fff2ac;fill-opacity:1;fill-rule:nonzero;stroke:none"/></g><g transform="translate(429.6543,355.3398)" id="g276"><path d="m 0,0 c 0,0 12.131,2.002 17.189,0.954 6.272,-1.299 14.517,-5.072 19.099,-9.548 3.941,-3.851 8.591,-16.234 8.591,-16.234 0,0 0.386,12.995 -1.432,18.143 C 42.349,-3.576 39.753,0.25 37.241,2.386 33.383,5.665 27.022,9.476 21.962,9.548 19.305,9.587 13.218,9.721 9.616,8.071 3.48,5.262 0,0 0,0" inkscape:connector-curvature="0" id="path278" style="fill:#fff2ac;fill-opacity:1;fill-rule:nonzero;stroke:none"/></g><g transform="translate(388.6196,187.9287)" id="g280"><path d="m 0,0 c 0,0 18.299,15.008 21.325,31.987 2.723,15.274 -9.403,33.163 -10.324,40.358 -3.675,28.772 4.114,67.102 4.816,70.236 2.788,12.445 6.301,17.77 8.168,21.845 1.345,2.933 5.187,8.766 9.03,14.423 2.206,3.245 7.119,9.287 9.622,15.434 2.651,6.513 2.835,13.142 2.873,16.682 0.065,6.026 -1.073,11.153 -2.674,16.061 -1.519,4.664 -6.473,12.3 -13.656,16.689 -7.742,4.73 -14.001,8.534 -16.382,10.04 -7.867,4.975 -12.708,21.338 -12.801,21.338 -0.093,0 -4.934,-16.363 -12.802,-21.338 -2.382,-1.506 -8.355,-5.31 -16.095,-10.04 -7.181,-4.389 -12.136,-12.023 -13.657,-16.688 -1.6,-4.908 -2.738,-10.034 -2.672,-16.06 0.039,-3.542 0.221,-10.169 2.873,-16.683 2.503,-6.146 7.415,-12.189 9.621,-15.433 3.844,-5.657 7.687,-11.491 9.033,-14.423 1.869,-4.074 5.378,-9.4 8.167,-21.846 0.703,-3.134 8.493,-41.464 4.818,-70.235 C -11.636,65.153 -24.049,47.262 -21.326,31.988 -18.297,15.008 0,0 0,0" inkscape:connector-curvature="0" id="path282" style="fill:#ffe24b;fill-opacity:1;fill-rule:nonzero;stroke:none"/></g><g transform="translate(388.6196,187.9287)" id="g284"><path d="M 0,0 -0.023,272.865" inkscape:connector-curvature="0" id="path286" style="fill:none;stroke:#9e7500;stroke-width:1.29999995;stroke-linecap:butt;stroke-linejoin:miter;stroke-miterlimit:4;stroke-opacity:1;stroke-dasharray:none"/></g><g transform="translate(389.1758,188.4844)" id="g288"><path d="m 0,0 14.921,16.642 5.737,10.901 -1.149,14.92 -4.016,15.493 -6.312,13.771 0,22.379 2.296,22.38 2.869,24.673 6.312,19.511 10.33,14.345 8.608,14.92 3.44,8.033 1.723,14.346 -2.295,13.771 -7.268,11.643 -13.965,9.588 c 0,0 8.277,-9.302 13.707,-18.05 2.911,-4.698 2.876,-10.461 2.935,-11.788 0.26,-5.676 -0.173,-8.306 -1.721,-13.773 -1.431,-5.055 -4.465,-10.6 -7.458,-14.918 -3.357,-4.84 -9.358,-10.257 -12.051,-15.494 -3.862,-7.507 -6.47,-18.675 -8.034,-26.969 C 6.689,136.139 6.426,122.236 5.74,111.895 5.047,101.404 3.188,87.372 4.02,76.892 4.547,70.227 7.432,60.884 8.609,55.086 c 0.818,-4.01 2.923,-9.141 3.444,-13.197 0.503,-3.927 0.539,-9.276 0,-13.199 C 11.442,24.264 9.742,18.476 8.035,14.346 6.15,9.787 0,0 0,0" inkscape:connector-curvature="0" id="path290" style="fill:#ddad00;fill-opacity:1;fill-rule:nonzero;stroke:none"/></g><g transform="translate(369.0918,213.7324)" id="g292"><path d="m 0,0 c 0,0 0.349,8.905 1.147,12.625 1.108,5.161 3.88,11.696 5.738,16.639 1.766,4.699 5.27,10.584 6.311,15.494 2.289,10.782 1.79,25.719 1.149,36.723 -0.477,8.167 -2.866,18.871 -4.017,26.97 -0.904,6.365 -2.593,16.269 -4.59,22.379 -2.129,6.516 -5.617,14.836 -9.181,20.692 -3.029,4.976 -7.131,9.872 -10.902,14.311 -2.918,3.433 -10.903,10.329 -10.903,10.329 l 1.11,-0.418 1.316,-6.147 5.269,-8.78 5.268,-9.66 8.781,-13.609 5.707,-14.485 3.073,-15.367 2.633,-21.071 1.318,-21.072 0,-19.756 L 4.397,35.701 -1.31,20.336 -3.066,7.605 0,0 z" inkscape:connector-curvature="0" id="path294" style="fill:#ddad00;fill-opacity:1;fill-rule:nonzero;stroke:none"/></g><g transform="translate(388.6201,187.9297)" id="g296"><path d="m 0,0 c 0,0 18.3,15.008 21.325,31.986 2.723,15.274 -9.403,33.164 -10.323,40.359 -3.677,28.772 4.112,67.102 4.815,70.235 2.788,12.446 6.3,17.77 8.167,21.846 1.346,2.933 5.189,8.766 9.032,14.423 2.205,3.245 7.118,9.287 9.622,15.434 2.65,6.513 2.834,13.142 2.873,16.682 0.064,6.026 -1.074,11.152 -2.674,16.061 -1.52,4.664 -6.475,12.3 -13.656,16.689 -7.744,4.73 -13.998,8.534 -16.383,10.04 -7.866,4.975 -12.708,21.338 -12.801,21.338 -0.093,0 -4.934,-16.363 -12.801,-21.338 -2.381,-1.506 -8.354,-5.31 -16.095,-10.04 -7.18,-4.389 -12.135,-12.025 -13.655,-16.689 -1.6,-4.909 -2.738,-10.035 -2.673,-16.061 0.039,-3.542 0.221,-10.169 2.873,-16.682 2.503,-6.147 7.415,-12.189 9.62,-15.434 3.844,-5.657 7.687,-11.49 9.032,-14.423 1.869,-4.076 5.38,-9.4 8.169,-21.846 0.701,-3.133 8.492,-41.463 4.816,-70.235 C -11.636,65.152 -24.049,47.26 -21.326,31.986 -18.299,15.008 0,0 0,0 z" inkscape:connector-curvature="0" id="path298" style="fill:none;stroke:#554400;stroke-width:1.29999995;stroke-linecap:butt;stroke-linejoin:miter;stroke-miterlimit:4;stroke-opacity:1;stroke-dasharray:none"/></g><g transform="translate(378.4746,362.2695)" id="g300"><path d="m 0,0 1.569,70.578 c 0,0 -8.783,-6.588 -12.548,-9.411 -2.821,-2.117 -7.649,-3.999 -9.409,-7.059 -4.017,-6.977 -5.78,-14.669 -2.352,-21.956 2.028,-4.312 9.314,-9.836 12.548,-13.334 C -5.833,14.107 0,0 0,0" inkscape:connector-curvature="0" id="path302" style="fill:#fff2ac;fill-opacity:1;fill-rule:nonzero;stroke:none"/></g><g transform="translate(396.5127,373.25)" id="g304"><path d="m 0,0 0,50.971 c 0,0 2.797,-5.373 4.706,-7.057 1.577,-1.392 4.711,-1.726 6.273,-3.137 2.278,-2.053 4.891,-5.617 5.49,-8.627 C 17.26,28.168 16.075,22.377 14.115,18.819 12.427,15.758 7.604,13.765 5.489,10.979 3.265,8.043 0,0 0,0" inkscape:connector-curvature="0" id="path306" style="fill:#fff2ac;fill-opacity:1;fill-rule:nonzero;stroke:none"/></g><g transform="translate(383.6855,210.1367)" id="g308"><path d="m 0,0 c -0.655,6.796 -0.506,22.741 -0.506,22.741 0,0 -5.8,-8.577 -6.77,-12.458 C -7.789,8.23 -8.303,3.789 -7.772,1.739 -6.556,-2.95 1.359,-12.574 1.359,-12.574 1.359,-12.574 0.301,-3.125 0,0" inkscape:connector-curvature="0" id="path310" style="fill:#fff2ac;fill-opacity:1;fill-rule:nonzero;stroke:none"/></g><g transform="translate(429.7305,280.2275)" id="g312"><path d="m 0,0 -8.806,12.194 -64.292,0 L -81.934,0 l 8.836,-12.139 64.292,0 L 0,0 z" inkscape:connector-curvature="0" id="path314" style="fill:#ffe24b;fill-opacity:1;fill-rule:nonzero;stroke:none"/></g><g transform="translate(352.6138,285.2754)" id="g316"><path d="M 0,0 72.925,-0.395 67.538,7.227 3.812,7.357 0,0 z" inkscape:connector-curvature="0" id="path318" style="fill:#fff2ac;fill-opacity:1;fill-rule:nonzero;stroke:none"/></g><g transform="translate(425.2324,275.0137)" id="g320"><path d="M 0,0 -72.921,0.394 -67.534,-7.227 -3.81,-7.358 0,0 z" inkscape:connector-curvature="0" id="path322" style="fill:#ddad00;fill-opacity:1;fill-rule:nonzero;stroke:none"/></g><g transform="translate(429.7305,280.2275)" id="g324"><path d="m 0,0 -8.802,12.194 -64.296,0 L -81.934,0 l 8.836,-12.139 64.296,0 L 0,0 z" inkscape:connector-curvature="0" id="path326" style="fill:none;stroke:#554400;stroke-width:1.29999995;stroke-linecap:butt;stroke-linejoin:miter;stroke-miterlimit:4;stroke-opacity:1;stroke-dasharray:none"/></g><g transform="translate(150.5786,651.3408)" id="g328"><path d="m 0,0 29.601,71.49 417.425,0 31.869,-71.49 -92.27,0 21.133,51.43 -142.427,0 L 284.961,0 193.316,0 214.444,51.43 68.803,51.43 90.131,0 0,0 z" inkscape:connector-curvature="0" id="path330" style="fill:#ffffff;fill-opacity:1;fill-rule:nonzero;stroke:none"/></g><g transform="translate(150.5786,651.3408)" id="g332"><path d="m 0,0 29.601,71.49 417.425,0 31.869,-71.49 -92.27,0 21.133,51.43 -142.427,0 L 284.961,0 193.316,0 214.444,51.43 68.803,51.43 90.131,0 0,0 z" inkscape:connector-curvature="0" id="path334" style="fill:none;stroke:#808080;stroke-width:2.99000001;stroke-linecap:butt;stroke-linejoin:miter;stroke-miterlimit:4;stroke-opacity:1;stroke-dasharray:none"/></g></g></g></g></svg>