<?xml version="1.0" encoding="UTF-8" standalone="no"?>
<svg xmlns:dc="http://purl.org/dc/elements/1.1/" xmlns:cc="http://creativecommons.org/ns#" xmlns:rdf="http://www.w3.org/1999/02/22-rdf-syntax-ns#" xmlns:svg="http://www.w3.org/2000/svg" xmlns="http://www.w3.org/2000/svg" xmlns:xlink="http://www.w3.org/1999/xlink" xmlns:sodipodi="http://sodipodi.sourceforge.net/DTD/sodipodi-0.dtd" xmlns:inkscape="http://www.inkscape.org/namespaces/inkscape" id="svg149" version="1.1" width="600" height="659.99982" sodipodi:docname="Escutcheon_fr_region_Hauts-de-France.svg" inkscape:version="1.0 (4035a4fb49, 2020-05-01)">
  <sodipodi:namedview inkscape:document-rotation="0" pagecolor="#ffffff" bordercolor="#666666" borderopacity="1" objecttolerance="10" gridtolerance="10" guidetolerance="10" inkscape:pageopacity="0" inkscape:pageshadow="2" inkscape:window-width="1565" inkscape:window-height="1040" id="namedview83" showgrid="false" inkscape:zoom="0.64393955" inkscape:cx="465.91614" inkscape:cy="329.99991" inkscape:window-x="434" inkscape:window-y="0" inkscape:window-maximized="0" inkscape:current-layer="svg149"/>
  <metadata id="metadata155">
    <rdf:RDF>
      <cc:Work rdf:about="">
        <dc:format>image/svg+xml</dc:format>
        <dc:type rdf:resource="http://purl.org/dc/dcmitype/StillImage"/>
        <dc:title/>
      </cc:Work>
    </rdf:RDF>
  </metadata>
  <defs id="defs153"/>
  <radialGradient r="300" gradientUnits="userSpaceOnUse" gradientTransform="matrix(-1.353218,0,0,1.348928,676.54931,-85.558617)" cy="226.33101" cx="221.44487" id="a">
    <stop id="stop2" stop-opacity=".313726" stop-color="#fff" offset="0"/>
    <stop id="stop4" stop-opacity=".25098" stop-color="#fff" offset=".19"/>
    <stop id="stop6" stop-opacity=".12549" stop-color="#6b6b6b" offset=".60000002"/>
    <stop id="stop8" stop-opacity=".12549" offset="1"/>
  </radialGradient>
  <path style="fill:#ffffff;fill-opacity:1" id="path11" fill-rule="evenodd" fill="#2b5df2" d="m300 299.74023v-298.75863406h298.5v259.10231406l-2.78726 39.65685z"/>
  <path style="fill:#2b5df2;fill-opacity:1" id="path13" fill-rule="evenodd" fill="#fff" d="m300 299.74023v358.65625s265.55346-100.25469 295.71289-351.26562v-7.39063z"/>
  <path id="path15" fill-rule="evenodd" fill="#fcef3c" d="m300 658.49985v-657.0000041h-298.4999998v259.1023141c0 285.31292 298.4999998 397.89769 298.4999998 397.89769z"/>
  <path id="path17" stroke-width="3" stroke="#000" fill="none" d="m300 299.87713 295.71274-.13637m-295.71274-298.75916406v656.25529406"/>
  <path id="path147" stroke-width="3" stroke="#000" fill="none" d="m300 658.39653s298.49999-112.68301 298.49999-398.24489c0-285.561861 0-258.6516398 0-258.6516398h-596.9999898v258.6516398c0 285.56188 298.4999998 398.24489 298.4999998 398.24489z"/>
  <g id="g1798">
    <g id="g1725">
      <g transform="translate(-618.35285,-52.023802)" id="g101">
        <g style="stroke:#000000;stroke-width:1.31914" transform="matrix(1.5172107,0,0,1.5150711,930.80468,359.32539)" id="b-4">
          <path style="fill:#fcef3c;fill-rule:evenodd;stroke:#000000;stroke-width:1.31914" id="path21-9" d="m 29.738807,62.945549 c -2.689943,6.351213 -6.015432,8.922247 -9.243665,12.043068 3.618431,0.01652 7.225043,-0.678341 10.962762,-3.813951 0.06366,9.674934 1.458013,12.982212 4.819106,16.232778 3.322963,-3.148967 4.858497,-6.547149 4.847287,-16.232778 3.737718,3.135613 7.334938,3.830472 10.953368,3.813951 -3.227999,-3.120592 -6.544434,-5.692883 -9.234271,-12.043068 z"/>
          <path style="fill:#fcef3c;stroke:#000000;stroke-width:1.31914" id="path23-0" d="m 21.706974,58.178268 h 29.158859 v 4.771534 H 21.706974 Z"/>
          <path style="fill:#fcef3c;fill-rule:evenodd;stroke:#000000;stroke-width:4.38825" id="path25-9" transform="matrix(0.300607,0,0,0.300607,-1.678333,0)" d="m 126.28125,7.9375 c -34.941678,37.094566 -48.391726,79.825556 -20.625,133.34375 6.34161,16.25846 11.33844,33.04455 10.3125,52.25 h 20.625 c -1.02594,-19.20545 3.97088,-35.99154 10.3125,-52.25 27.76673,-53.518189 14.31668,-96.249184 -20.625,-133.34375 z"/>
          <path style="fill:#fcef3c;fill-rule:evenodd;stroke:#000000;stroke-width:4.38825" id="path27" transform="matrix(0.300607,0,0,0.300607,-1.678333,0)" d="m 52.25,100 c -35.235309,0.84534 -58.7273133,60.01799 15.21875,88.875 -24.439711,-47.87444 20.895745,-30.13204 26.875,4.65625 H 111.875 C 102.19567,122.87043 74.822961,99.458446 52.25,100 Z"/>
          <path style="fill:#fcef3c;fill-rule:evenodd;stroke:#000000;stroke-width:4.38825" id="path29-6" transform="matrix(0.300607,0,0,0.300607,-1.678333,0)" d="m 198.96875,100 c -22.30142,0.41761 -48.7644,24.28444 -58.25,93.53125 h 17.5 C 164.19831,158.74296 209.56471,141.00056 185.125,188.875 260.01909,159.64802 234.94647,99.326296 198.96875,100 Z"/>
        </g>
        <use y="0" x="0" xlink:href="#b-4" width="100%" transform="translate(135)" height="100%" id="c-8"/>
        <g style="fill:#e20909;stroke:#000000;stroke-width:5.56522;stroke-linecap:round;stroke-linejoin:round" transform="matrix(0.22427971,0,0,0.22493915,937.39689,66.999202)" id="e">
          <path id="path40" style="fill:#e20909;fill-rule:evenodd;stroke:#000000;stroke-width:5.56522;stroke-linecap:round;stroke-linejoin:round" d="m 46.888115,258.05508 c -7.078585,0.0646 -13.598783,6.95176 -15.109881,11.05493 7.645878,-3.03609 12.880464,-1.62303 17.316429,3.02401 l 11.340704,-7.97521 c 0,0 -6.040259,-5.27696 -12.123905,-6.03575 -0.475458,-0.0593 -0.95144,-0.0723 -1.423348,-0.0679 z m -21.2881,32.76195 c -3.850928,0.0207 -9.908703,0.66602 -14.834717,3.93657 -7.7215562,5.1266 -9.87834751,16.77145 -9.1252361,19.10711 7.6051657,-7.90033 13.3558621,-10.24069 27.4522781,-7.28084 l 0.324575,-15.57023 c 0,0 -1.506343,-0.20503 -3.816901,-0.19256 z m 3.564266,28.42812 c 0,0 -12.373666,3.95288 -15.372072,13.76892 -3.198208,10.47015 3.475552,18.71842 6.551806,20.3412 1.364655,-7.32571 2.97891,-17.82305 17.359459,-20.7149 z m 18.090712,19.982 c -2.202972,4.26871 -6.228992,10.67123 -3.761987,18.33437 3.005181,9.33483 14.729675,11.55934 18.036547,11.78663 -5.708727,-9.73982 -3.891994,-16.53446 0.713853,-25.95687 z M 328.13851,502.97256 c -1.04761,-0.022 -2.09758,0.0446 -3.18008,0.24436 -7.88176,1.45498 -12.92997,10.75698 -13.48017,14.52877 7.62034,-4.89308 12.73638,-5.26133 20.87601,3.14535 2.59709,-3.0538 6.46741,-7.25248 10.35997,-11.49759 -1.02649,-1.28396 -7.2425,-6.26649 -14.57573,-6.42089 z m -17.04707,22.47166 c -2.32566,-0.11339 -4.97914,0.33958 -7.65565,1.78422 -9.97766,5.38545 -8.90659,18.20226 -8.39774,19.80545 8.85172,-10.46833 14.74473,-10.38623 22.30181,-2.06576 l 1.51403,-16.51211 c -0.88203,-1.09285 -3.88634,-2.82289 -7.76245,-3.0118 z m 10.43914,25.49082 c 0,0 -10.01042,1.21433 -12.92831,13.1823 -2.91472,11.95494 5.02302,17.38979 7.11586,18.5092 0.31687,-9.18995 4.88382,-16.8439 15.83328,-19.26328 z m 22.35839,13.80549 c -2.40272,1.73589 -7.35815,4.31094 -7.13297,13.26244 0.24221,9.6277 8.59192,14.26216 12.23232,14.65347 -3.36073,-9.01279 -0.0913,-15.69134 5.80593,-19.77309 z M 88.099337,428.09853 c -7.418292,0.0293 -12.699231,5.55177 -13.315073,6.63037 13.627801,0.89189 14.274404,6.256 17.936216,15.80011 5.195912,-3.7759 9.78201,-7.01237 12.78507,-8.7488 0.26331,-2.20256 -3.0216,-8.70164 -10.739389,-12.1871 -2.360109,-1.06585 -4.589698,-1.50278 -6.666824,-1.49458 z m -16.613352,21.96432 c -1.514323,-0.0285 -3.057165,0.1181 -4.612318,0.53242 -11.379938,3.03184 -11.21406,11.6985 -11.376306,14.58137 12.600077,-6.12654 17.230346,10e-4 24.527834,6.05437 l 6.128772,-15.84614 c -2.24941,-1.57029 -8.105895,-5.19645 -14.667982,-5.32202 z m 15.724586,31.59761 c 0,0 -9.97129,-4.10173 -17.259566,0.0539 -7.85754,4.48022 -7.252313,15.02232 -5.761472,18.6437 6.678642,-9.77466 15.414038,-7.89484 21.938119,-3.30139 z m 27.964459,20.27824 c 2.05152,12.8118 -3.03088,14.86184 -11.88286,15.41078 3.00395,2.75658 13.06423,7.34644 19.72536,3.82911 7.31884,-3.8646 9.18263,-15.33456 8.45517,-15.62604 z M 46.777797,34.514266 c -10.480195,-0.06305 -16.358119,7.963615 -17.923402,10.887406 18.684547,-2.35428 16.930902,3.076244 20.080524,14.234403 L 65.255305,53.275211 C 63.937788,47.419177 61.609507,37.908296 53.069974,35.448907 50.81039,34.798146 48.718575,34.525942 46.777797,34.514266 Z m 39.250068,1.434913 c -3.519069,-0.157468 -6.993249,0.765481 -9.520016,2.514873 7.230892,2.786102 11.175722,5.985715 7.226676,17.961408 l 13.590927,9.537884 c 3.550998,-4.08398 7.410348,-13.527457 0.717884,-23.527708 -2.864555,-4.28038 -7.490958,-6.284005 -12.015471,-6.486457 z M 23.584123,59.293639 C 17.334175,58.94894 9.7370033,62.785961 6.2748448,78.001771 22.865628,66.115068 22.634572,77.969534 30.58984,86.091288 L 42.063312,67.625875 c 0,0 -6.141039,-4.590812 -14.41873,-7.518176 -1.231108,-0.435375 -2.618164,-0.734514 -4.060459,-0.81406 z m 32.306946,61.501901 c -7.093572,10.85924 -16.20678,11.33612 -27.922404,5.35822 7.015166,22.30567 24.173656,22.50563 40.026829,10.52282 z"/>
          <path id="path42" style="fill:#e20909;fill-rule:evenodd;stroke:#000000;stroke-width:5.56522;stroke-linecap:round;stroke-linejoin:round" d="m 382.33141,373.30069 c 7.44178,-0.31418 15.48357,-8.5507 28.25933,5.76503 2.65795,-5.35981 2.39143,-12.27186 -3.50558,-16.42049 8.67772,-5.63218 17.99338,-20.17639 20.6105,-28.9045 3.41002,-11.37244 5.56748,-24.66605 14.58985,-27.95596 4.78675,-1.74548 9.26813,1.69463 8.85606,7.57927 -0.89447,12.77349 -5.32241,10.02586 -10.01454,27.26987 -1.76179,6.47475 1.71644,16.63251 16.69407,14.39093 -6.33998,-2.92583 -6.67509,-6.7902 -5.99075,-11.89758 1.1881,-8.86717 16.61773,-19.25156 18.23136,-33.81778 1.89806,-17.13365 -12.10051,-24.84308 -19.04675,-25.5053 -9.30094,-0.88671 -20.63428,4.96871 -27.48325,16.58892 -3.61897,-16.92251 8.21935,-33.38198 21.05557,-41.254 10.75545,-6.59597 22.97091,-12.36926 28.95655,-21.87147 6.74863,-10.71352 5.39091,-24.19448 -1.53251,-30.83599 -0.35355,6.40809 -4.84112,17.17118 -18.27866,24.06171 -16.31202,8.36462 -32.08182,13.16456 -45.2538,37.00218 -2.76393,-42.64828 42.96851,-59.27094 61.96887,-72.47447 23.58219,-16.38756 15.87991,-52.09645 8.72205,-56.97138 0.41431,5.97983 0.66186,15.34189 -6.4631,26.41451 -8.24138,12.80773 -22.65155,18.61379 -40.03945,28.18159 -17.29236,9.51526 -31.64803,24.71613 -38.45632,40.66719 -1.87709,-10.76557 6.09491,-26.35977 16.13609,-37.28036 10.40033,-11.31115 22.82493,-21.22726 29.89086,-27.21748 14.07384,-11.93133 34.57669,-28.44665 36.7047,-64.66093 1.50178,-25.46925 -11.17136,-43.30419 -28.93824,-50.74816 -10.41978,-4.36556 -25.69505,-5.01936 -36.21395,-2.66055 -5.27752,1.18344 -10.53867,3.00398 -15.47873,5.97313 -3.47827,2.09055 -9.47957,0.80402 -8.8759,-5.26669 0.71134,-7.15379 10.92547,-7.68136 12.01335,-16.06494 0.89742,-6.91594 -4.3595,-12.47604 -9.92251,-15.2266 1.39234,4.23625 -0.11741,9.15148 -3.03635,14.05438 -3.80445,6.39032 -12.42016,5.70973 -13.54203,17.80092 -0.55593,6.04755 3.47731,12.8652 9.20015,14.55762 0.67842,0.4149 1.81624,1.32915 1.33266,1.99276 -6.3161,8.6678 -7.45819,20.13495 -6.8184,28.08741 1.06856,13.28013 5.6613,17.96105 5.72057,30.25952 0.0186,3.83334 0.0132,14.8871 -4.59827,22.17358 -5.68453,8.98203 -10.55054,12.54123 -15.96783,15.37081 7.643,0.47959 15.81348,-1.29359 21.53229,-3.51267 10.57067,-4.10171 19.54133,-17.16129 21.3252,-25.81949 1.18781,-5.76506 0.9201,-11.1544 0.16274,-16.40466 5.17446,1.75032 14.18531,2.00002 20.48892,-2.17585 6.47284,-4.28797 10.05703,-13.55229 5.2966,-21.63188 -1.64412,8.1883 -7.11614,11.15854 -15.33057,11.48449 -7.81695,0.31019 -14.06495,-4.57279 -14.74735,-13.06258 -1.00585,-12.51308 9.6323,-21.62964 24.25544,-21.80341 19.37149,-0.23021 29.89592,13.99524 28.86799,32.60918 -1.03033,18.65773 -10.27015,32.39101 -23.33416,43.49622 -11.22378,9.54089 -23.03466,18.80896 -34.71486,30.40316 -9.10976,9.04269 -27.05546,28.21263 -27.65722,53.63025 -0.44628,18.83526 5.0321,34.06611 13.60335,47.78861 8.57119,13.72258 13.64843,25.15507 17.30492,35.79589 4.39492,12.79026 2.33555,30.24448 -10.05154,35.13943 -12.83058,5.07025 -30.24839,-2.61161 -36.43087,-19.35145 -2.19915,12.23261 -5.19869,37.53404 7.18678,36.58644 7.49976,2.58311 14.25528,6.03057 22.75669,5.67162 z"/>
          <g style="fill:#e20909;stroke:#000000;stroke-width:5.56522;stroke-linecap:round;stroke-linejoin:round" id="g48">
            <path id="path44" style="fill:#e20909;fill-rule:evenodd;stroke:#000000;stroke-width:5.56522;stroke-linecap:round;stroke-linejoin:round" d="m 196.10277,331.94571 c -23.28256,-0.009 -37.71561,15.53662 -40.6994,32.88207 -1.28064,7.44469 -2.49078,12.53923 -5.971,15.46939 -8.53659,7.18737 -22.25816,8.70876 -23.53675,8.22974 8.19927,9.76956 15.45244,13.04041 26.38867,10.66832 -2.27819,12.02671 8.78654,26.94649 14.50151,39.26194 1.92952,4.15804 -7.76546,7.08864 -19.41769,9.08881 -3.79197,0.65094 -11.23,5.32146 -14.87405,6.33728 -3.77416,1.05208 -9.47386,0.68495 -11.66268,-0.66792 -2.26255,-1.39845 -10.42493,-10.6004 -16.62592,-12.63747 -5.77037,-1.89562 -12.99472,-0.80906 -14.33667,3.8912 -2.13753,7.49966 7.83299,10.49934 9.16243,13.15089 1.28572,2.56441 -0.92492,4.61652 -2.79441,3.5406 -2.218,-1.27648 -9.36882,-9.22104 -13.7878,-7.81768 -3.32975,1.05742 -6.07142,4.04424 -6.90959,12.31734 -0.71044,7.01234 10.76284,9.1539 15.10162,9.48539 3.53233,0.26987 3.07213,3.76712 0.94363,4.43157 -2.29,0.71489 -12.29567,-5.27899 -12.86444,-0.52744 -0.56876,4.75156 -1.31345,15.1074 4.96408,18.7424 4.93549,2.85786 23.49026,-2.56915 25.61552,-3.10462 2.53054,-0.63759 5.00133,-1.38092 5.82466,-0.61954 5.59649,5.17535 -5.85374,7.02313 -1.97663,11.82846 4.11998,5.10636 10.07517,5.57637 15.56656,6.48103 11.28327,1.85879 5.55909,-19.52362 8.05427,-19.65459 5.38451,-0.74811 7.49285,-1.57138 11.83332,1.93213 4.34047,3.50352 10.86126,14.3362 19.99976,17.1604 -0.79661,-8.28214 -0.14074,-15.73145 2.65769,-21.2978 3.17439,9.5057 14.61636,14.21669 26.23636,17.24508 -5.8156,-6.79702 -7.40448,-19.13005 -5.54343,-21.01175 7.63832,8.50866 14.82049,11.60632 29.24895,11.19335 -4.29519,-3.1898 -6.49132,-12.49805 -5.54264,-15.1163 1.45534,-4.01652 4.60325,2.97771 8.47202,-5.18283 2.43883,-5.14425 -1.49573,-11.34471 -3.12637,-14.55059 -7.47826,-14.70252 -8.60907,-48.74557 25.93179,-56.78479 18.78561,-4.37227 47.17369,-15.28759 49.63102,-18.37807 19.58438,-24.63052 1.50447,-45.44216 -8.59998,-57.38372 -25.5632,12.19957 -62.48074,1.80842 -91.86441,1.39772 z"/>
            <path id="path46" style="fill:#e20909;fill-rule:evenodd;stroke:#000000;stroke-width:5.56522;stroke-linecap:round;stroke-linejoin:round" d="m 203.34783,451.745 c 0,0 6.2763,8.74934 1.51199,17.9677 -4.96807,9.61261 -16.37799,3.97068 -16.37799,3.97068"/>
          </g>
          <path id="path50" transform="matrix(1.17469,0.09537,-0.09538,1.17453,-19.84846,-9.50878)" style="fill:#e20909;fill-rule:evenodd;stroke:#000000;stroke-width:4.72239;stroke-linecap:round;stroke-linejoin:round" d="m 98.500709,125.34746 c 0.88889,5.2289 4.910771,12.55632 3.959011,18.97791 3.50256,-3.89576 6.61747,-8.7125 6.65116,-13.63794 6.55475,9.62818 0.39257,24.3043 1.84003,35.24775 2.62357,-4.04816 9.27731,-10.23654 10.46505,-15.43766 6.78129,12.0134 -6.142,15.90635 2.69376,40.02754 1.65378,-9.10276 7.09173,-16.96108 9.13492,-23.27594 3.32446,16.80134 20.52506,26.67692 29.47706,23.12148 23.27955,25.7437 47.76019,12.99651 44.11117,-16.76576 0,0 -23.47244,-42.40815 -28.92659,-45.78872 -5.92248,-3.67085 -13.33339,-6.81712 -21.86029,-11.33419 -9.62392,-5.09821 -17.514,-9.17816 -25.14265,-15.16679 -7.62865,-5.988662 -11.52232,-11.601098 -16.54382,-15.833403 -7.06935,-5.958319 -11.99981,-12.81212 -12.41068,-16.147276 -0.50275,-4.080989 3.37322,-5.50043 4.31579,-12.122321 1.12156,-7.879327 -7.502758,-15.531612 -14.804024,-13.781373 -4.162382,0.997795 -3.978014,8.880724 -6.125479,10.644356 -0.506187,0.415712 -1.138493,0.596782 -1.982763,0.422568 -4.426031,-0.913308 -1.888526,-13.769181 -8.913975,-13.698927 -7.025459,0.07025 -12.420462,2.647279 -15.639818,9.805612 -2.587905,5.754282 8.236187,8.657286 8.895094,11.860954 0.147688,0.718075 -1.291513,1.893496 -2.031211,1.935404 -0.488313,0.02766 -8.665811,-7.470167 -14.389728,-5.030714 -4.460463,1.900987 -8.996275,7.679584 -6.823204,15.007294 1.879055,6.336273 10.44943,6.103221 14.582211,6.208524 4.90019,0.124857 16.887848,13.111791 16.518836,19.431152 0.140507,5.05833 -7.503884,3.68389 -8.609232,9.58684 -1.417445,7.56966 5.048929,15.39893 11.485448,13.88352 4.81575,-1.13382 9.536236,-7.90739 11.73672,-8.29539 5.372736,-0.46635 7.351603,4.3497 8.337204,10.1555 z"/>
          <path id="path52" style="fill:#e20909;fill-rule:evenodd;stroke:#000000;stroke-width:5.56522;stroke-linecap:round;stroke-linejoin:round" d="m 237.0441,320.23703 c 15.17041,5.69924 28.03896,19.75064 29.70305,29.84924 -8.74164,17.42545 -2.97443,25.21626 9.51898,23.13147 10.19595,-1.69622 10.2128,-9.837 7.52724,-19.22928 -2.39599,-8.37952 -6.04209,-14.04004 -13.80464,-20.03355 -10.13587,-7.82599 -28.58771,-14.48447 -32.94463,-13.71788 z"/>
          <g style="fill:#e20909;stroke:#000000;stroke-width:5.56522;stroke-linecap:round;stroke-linejoin:round" id="g60">
            <path id="path54" style="fill:#e20909;fill-rule:evenodd;stroke:#000000;stroke-width:5.56522;stroke-linecap:round;stroke-linejoin:round" d="m 375.92248,546.08868 c 5.57959,-18.31752 25.27069,-5.71075 35.48774,-20.63388 -6.20825,-0.40291 -13.61889,-4.89916 -15.69674,-11.56905 16.19384,0.48409 23.5066,-4.59036 31.82926,-11.65927 -6.5203,0.0385 -16.14326,-1.58827 -17.50881,-11.004 7.79732,-0.15487 24.12809,-0.22222 33.10275,-14.12018 -15.8339,2.64276 -23.53791,-2.61595 -22.80832,-7.16337 2.1566,-13.44199 10.01303,-12.71879 -0.64443,-22.55448 -2.99449,-2.76359 -15.7134,-5.22967 -14.67705,-12.07315 0.54964,-3.62949 11.06268,-10.12979 16.1846,-12.95927 -3.27955,-0.36039 -11.59365,-4.68273 -19.18435,-2.56233 -7.5907,2.12041 -14.35669,3.06423 -25.69271,-8.74253 -5.21236,-5.45194 -7.78018,-6.89191 -14.02763,-19.67755 -1.25584,-2.57012 -7.76857,-24.2848 -5.59192,-23.88781 7.41792,-10.16624 0.50453,-25.85202 -4.21887,-37.51653 -4.59906,-12.44295 -8.66962,-25.01533 -17.65673,-38.04297 -6.90327,-10.00692 -25.29795,-27.11166 -26.28584,-40.50653 -1.29164,-17.36215 -1.61972,-35.89657 -0.54643,-44.92719 2.94094,-24.74493 3.97729,-29.44587 -19.4588,-37.41198 -13.85462,-4.70927 -61.97863,-17.06553 -84.7589,8.1367 -11.63948,12.87695 -24.16832,12.01357 -34.29254,29.20975 -10.12421,17.19618 -10.35321,11.72369 -19.12153,19.92872 -8.76832,8.20503 -16.70744,14.57234 -19.2186,16.2 -5.02233,3.25532 -6.79144,3.90547 -15.24264,10.32588 -8.4512,6.4204 -15.998969,12.42078 -17.407569,13.99608 -2.817199,3.15058 -17.899026,9.07261 -21.260151,8.68862 -2.073807,-0.23693 -7.977765,-10.42379 -12.405492,-11.24773 -5.549882,-1.03277 -18.6207,2.88153 -18.774635,9.93457 -0.08246,3.77802 10.073771,7.36462 8.467369,11.60076 -1.09346,2.88348 -9.094149,5.73704 -12.643155,4.92053 -2.028488,-0.4667 -7.881682,-3.86847 -12.687447,-2.57805 -8.979281,2.41108 -11.717322,15.37674 -6.395568,20.42909 2.705097,2.56815 13.234968,-0.58314 14.816529,0.33676 1.792408,1.04255 2.940223,1.86273 1.979019,3.88953 -1.042705,2.19871 -14.077561,1.61189 -15.721727,4.47568 -5.59818,9.75086 2.368907,23.65464 12.560733,19.2234 3.423315,-1.48841 6.697199,-3.98676 8.988738,-5.65251 2.033495,-1.47798 3.926899,0.37699 4.132399,1.49242 0.467818,2.53912 -8.933368,8.47738 -7.675679,12.32909 2.419005,7.4083 18.165015,9.34093 21.993928,3.15599 2.97136,-4.79971 9.017485,-16.18217 10.154532,-17.72748 0.568534,-0.77266 1.451254,-2.50388 8.496147,-4.38818 17.577449,-4.23013 23.447039,3.42305 29.831399,18.28724 5.72142,-4.83465 14.74934,-19.11248 10.1332,-26.92995 6.53276,6.90996 17.52392,14.78029 26.9712,15.76964 -3.80518,-10.48099 1.09715,-19.30565 2.60746,-22.89489 6.03646,6.25891 22.33659,12.92707 34.00639,10.4348 -10.03795,-6.28478 -15.7656,-17.63603 -4.52652,-22.93392 11.23909,-5.29788 14.10321,-8.35164 16.68373,-18.30575 2.58051,-9.95411 15.50567,-6.83703 20.40988,0.19309 4.9042,7.03013 6.87001,9.6283 12.5607,16.0325 6.12286,6.89057 14.35784,13.66897 19.74311,17.83606 6.08528,4.70874 11.74829,9.86708 16.8617,17.31215 6.55009,9.53687 9.63556,20.32958 9.29369,33.45234 -1.49392,12.64507 4.15094,23.82648 2.25836,36.14519 -1.13486,4.67846 -7.4665,11.44965 -1.34832,23.44151 6.11818,11.99186 7.83555,36.76053 -0.36941,45.52915 21.61465,-1.07899 30.63038,-19.65886 27.17675,-35.8946 8.24864,7.00782 13.86557,8.8756 20.55821,14.89739 2.53522,2.28109 14.02293,13.06978 16.8949,15.32677 5.85424,5.71954 5.06211,4.72034 14.09874,11.78368 0.64835,1.27805 2.29328,10.00348 2.2859,12.25244 -0.002,0.65051 0.35602,5.85018 -1.48929,11.81912 -1.6328,5.28155 -4.65781,11.19381 -7.75967,13.10842 -3.19284,1.97078 -4.08637,-5.84543 -7.761,-5.21555 -4.86086,0.83322 -14.75715,8.12097 -13.43694,12.81041 1.2843,4.56188 12.62054,2.84065 8.44532,5.15052 l -5.33859,2.9535 c -3.28181,1.8156 -4.35814,-2.61619 -11.30273,-1.54592 -8.53447,1.31527 -10.82332,11.84997 -6.16076,17.55562 3.06736,3.75358 9.62749,1.38319 9.62749,1.38319 7.28841,-1.68211 9.7887,0.93558 0.5954,3.32108 0,0 -8.87263,2.4843 -7.76469,9.51939 0.75573,4.79868 7.39842,9.86757 11.01468,9.25608 4.79923,-0.81154 10.17432,-3.85179 11.73817,-6.58428 2.93313,-5.12503 5.35865,-2.04501 3.29529,2.03451 -1.17228,2.31771 -3.19247,7.26746 0.10769,9.77566 4.02219,3.05696 13.67689,1.31167 16.68837,-1.60212 4.61104,-4.46143 3.94627,-11.59525 2.81815,-13.63542 7.64528,-2.36032 11.70502,-7.11896 13.96256,-11.5066 z"/>
            <path id="path56" style="fill:#e20909;fill-rule:evenodd;stroke:#000000;stroke-width:5.56522;stroke-linecap:round;stroke-linejoin:round" d="m 395.03897,449.49761 c 0,0 10.04425,0.70486 14.03077,10.89496 4.157,10.6259 -6.58864,16.28535 -6.58864,16.28535"/>
            <path id="path58" style="fill:#e20909;fill-rule:evenodd;stroke:#000000;stroke-width:5.56522;stroke-linecap:round;stroke-linejoin:round" d="m 100.92877,310.30778 c 0,0 61.87951,-19.78687 101.21665,-61.47879"/>
          </g>
          <g style="fill:#e20909;stroke:#000000;stroke-width:5.56522;stroke-linecap:round;stroke-linejoin:round" id="g82">
            <g style="fill:#e20909;stroke:#000000;stroke-width:5.56522;stroke-linecap:round;stroke-linejoin:round" id="g74">
              <path id="path62" transform="matrix(1.03484,0.29274,-0.16123,1.05513,-31.95674,-114.95021)" style="fill:#e20909;fill-rule:evenodd;stroke:#000000;stroke-width:5.21439;stroke-linecap:round;stroke-linejoin:round" d="m 318.73852,150.2645 c -7.93442,0.23895 -15.58694,0.48326 -22.24297,-1.62967 -6.20014,-1.96821 -14.92829,-0.94152 -21.61337,2.34223 -10.75456,5.28269 -17.63205,9.15348 -29.36013,9.38071 -9.87627,0.19136 -13.65969,-5.13279 -13.46928,-15.96275 2.91738,5.46765 6.72038,7.44433 10.06341,7.46167 4.30082,0.0223 11.6565,-2.0068 17.09386,-5.60432 28.14959,-18.62465 48.98279,-15.29393 59.52848,4.01213 z"/>
              <path id="path64" transform="rotate(1.4323643,444.32599,-1807.361)" style="fill:#e20909;fill-rule:evenodd;stroke:#000000;stroke-width:5.56522;stroke-linecap:round;stroke-linejoin:round" d="m 246.65625,96.875 c -1.23904,3.21457 -0.77199,13.10696 5.625,16.09375 0.86096,-5.64452 3.42933,-12.22234 5.375,-15.59375 z m 10.51251,36.50062 c -0.71633,3.47468 0.37801,7.84627 2.03125,10.5 l 7.5625,-1.9375 c -3.92913,-2.0289 -7.45461,-5.09122 -9.59375,-8.5625 z"/>
              <path id="path66" transform="matrix(1.05493,0.16125,-0.16123,1.05513,-37.490074,-78.73753)" style="fill:#e20909;fill-rule:evenodd;stroke:#000000;stroke-width:5.2144;stroke-linecap:round;stroke-linejoin:round" d="m 371.21891,274.33981 c -3.63616,-3.97595 -4.20247,-10.72779 -3.31996,-16.50133 1.20339,-7.8727 5.73826,-14.84059 6.23408,-23.44866 0.57067,-10.06872 -4.70956,-11.67356 -4.67522,-16.59978 5.17561,6.62108 16.99273,5.38232 19.13052,-4.26509 -5.33275,0.0595 -10.57868,-2.68627 -13.00792,-7.31658 -4.37481,-8.33865 2.63385,-12.52387 2.5388,-21.23391 -0.11061,-10.2752 -6.74169,-13.74636 -7.77303,-17.94628 5.23451,0.76199 10.87845,-2.97213 10.7996,-8.34095 -2.50511,1.39032 -5.33214,1.12164 -7.45386,-1.5469 -2.54437,-3.20012 -1.64188,-8.06218 -2.89951,-11.7715 -2.33526,-6.88761 -7.87838,-6.9293 -9.24575,-11.23207 5.68115,1.86232 12.11869,-3.04907 11.21199,-9.83616 -1.76068,1.56755 -4.26936,2.12464 -6.57527,1.13479 -4.14726,-1.78027 -2.81917,-6.61393 -4.86526,-10.54379 -1.48187,-2.8462 -8.05979,-5.38481 -8.89896,-8.61272 4.7476,0.54446 8.68359,-2.7944 7.9079,-8.40936 -2.21438,1.4199 -7.70876,1.474255 -9.80819,-0.357165 -9.82575,-8.57145 -16.92602,-15.822536 -27.79367,-21.249275 -8.8104,-4.399458 -29.95373,-5.082891 -46.03153,-3.604527 -11.84919,1.089541 -21.0464,7.687984 -27.68585,12.480591 -5.78662,4.176991 -1.37012,6.835454 0.73105,9.659047 -5.46779,0.159383 -10.19241,-0.06064 -14.96713,2.689186 -2.75446,1.586327 -6.19406,4.654123 -5.63309,6.253993 0.32419,0.92462 2.88209,3.70087 4.48972,2.29694 0.44884,3.70995 0.0346,5.91932 0.73007,9.73321 0.91465,5.01603 4.50233,9.1898 8.76379,9.60822 11.30044,1.10956 21.19388,-0.98531 30.62876,-6.34067 12.77404,-7.25071 18.21971,-0.22613 20.56751,7.88964 2.36704,8.18234 1.20076,18.94612 -5.32201,26.56498 -3.38632,3.95536 -10.03439,8.36356 -17.03916,9.11664 -3.93175,0.42269 -7.99927,-0.94473 -11.19253,1.07919 -1.62809,1.0319 -1.20348,6.84454 -1.24855,10.06893 -0.0353,2.51693 2.05727,3.57598 4.76113,3.81103 6.26755,0.54487 5.66526,7.09181 9.42397,7.54546 -0.011,-1.68603 0.57753,-8.55774 2.05515,-8.82724 5.93891,-1.08316 19.38978,-4.87515 19.31098,-2.55611 -0.20178,5.83357 -6.26036,9.60332 -20.59093,14.52177 -11.11721,3.81558 -34.25219,0.54006 -35.03739,-26.1383 -13.70286,10.44207 -14.69237,35.72095 -1.38178,41.42041 -4.4644,0.0723 -9.25155,1.14191 -14.41604,2.81956 -7.6738,2.49278 -17.03563,-2.61207 -23.06444,-8.07249 0.50846,19.00014 5.47419,29.0394 15.8261,33.71717 12.30163,5.55879 19.8832,3.08788 27.68272,3.29605 -5.88819,4.22165 -9.56886,10.88357 -14.59537,17.12956 -5.64782,7.01802 -14.41539,13.28069 -25.06249,13.48325 5.74028,8.32916 14.99901,12.56877 25.51747,12.75811 14.19297,0.25802 25.1358,-5.2541 33.68466,-13.6164 -0.28951,9.11278 -8.97024,13.61576 -9.1422,24.60333 -0.15365,9.81864 5.46127,17.78262 15.42757,18.61396 -4.94154,-14.9571 9.83001,-21.53613 18.45193,-26.10019 8.15941,-4.31922 15.02143,-9.71544 20.17096,-17.77925 2.27399,8.93812 -8.88267,17.05111 -1.37227,29.56367 5.05031,8.41396 14.83049,11.01093 24.85395,9.56454 -7.04672,-3.39664 -9.85378,-12.0941 -6.56321,-20.68333 4.72525,-12.33415 12.60485,-14.08366 19.02673,-28.55501 1.70365,-3.83906 2.40406,-9.89684 2.83351,-15.65585 4.40015,5.82673 3.17654,11.87196 2.67147,17.10813 -0.94882,9.83655 8.48631,21.43075 21.23048,18.60953 z"/>
              <g style="fill:#e20909;stroke:#000000;stroke-width:5.56522;stroke-linecap:round;stroke-linejoin:round" id="g72">
                <path id="path68" transform="matrix(1.05493,0.16125,-0.16123,1.05513,-37.490074,-78.737527)" style="fill:#e20909;fill-rule:evenodd;stroke:#000000;stroke-width:5.2144;stroke-linecap:round;stroke-linejoin:round" d="m 306.52204,78.102415 c -3.74068,-14.827748 9.99923,-18.072256 19.94382,-23.831648 -0.26946,9.856206 2.07809,22.369124 -4.05954,26.268137"/>
                <path style="fill:#e20909;stroke:#000000;stroke-width:5.56522;stroke-linecap:round;stroke-linejoin:round" id="path70" transform="translate(-46.629309,-6.402298)" d="m 239.2893,75.683907 c 0,0 1.76183,4.164338 4.64484,1.761835 m 13.37781,-9.486166 c 4.78105,6.825992 8.26432,2.472551 12.49155,0.43929 14.90499,-8.340841 18.08618,-2.264282 25.57688,2.212118 m -2.97635,87.942826 c 17.46552,1.10666 24.7078,-20.37059 24.7078,-20.37059 0,0 7.90245,10.32513 3.33442,18.74416 9.80362,-6.8894 15.18842,-20.65394 5.98986,-39.20038 5.70077,0.87138 11.35181,6.8408 12.28693,10.26593 3.70875,-13.3728 0.46185,-31.657453 -12.23585,-41.62147"/>
              </g>
            </g>
            <g style="fill:#e20909;stroke:#000000;stroke-width:5.56522;stroke-linecap:round;stroke-linejoin:round" id="g80">
              <path id="path76" style="fill:#e20909;fill-rule:evenodd;stroke:#000000;stroke-width:5.56522;stroke-linecap:round;stroke-linejoin:round" d="m 216.20891,65.947309 c 4.66241,3.095517 8.18291,4.850739 12.57505,3.622242 7.13802,-1.76843 9.43959,-5.7979 12.7246,-5.415123 -0.70806,-7.91465 -9.45045,-7.319973 -14.4114,-3.621218 -0.59021,0.352976 0.95152,4.00922 2.25888,7.084267 -1.18139,-0.06185 -4.62959,-1.756757 -4.93114,-5.303545 -1.90616,1.337781 -4.67195,2.220351 -8.21599,3.633377 z"/>
              <path style="fill:#e20909;stroke:#000000;stroke-width:5.56522;stroke-linecap:round;stroke-linejoin:round" id="path78" d="m 227.14835,63.051245 c 0.59171,0.976289 2.60973,4.961262 2.20753,4.96126 -0.76868,0.274856 -5.14098,-3.759153 -4.7792,-4.84747 0.25772,-0.775269 0.53088,-1.411001 0.93309,-1.411001 0.40221,0 1.21513,0.598536 1.63858,1.297211 z"/>
            </g>
          </g>
          <g style="fill:#e20909;stroke:#000000;stroke-width:5.56522;stroke-linecap:round;stroke-linejoin:round" id="g88">
            <path id="path84" style="fill:#e20909;fill-rule:evenodd;stroke:#000000;stroke-width:5.56522;stroke-linecap:round;stroke-linejoin:round" d="m 273.27707,53.09609 c -1.55555,-16.24839 13.46218,-17.45627 24.88158,-21.92966 -1.87333,10.35614 -1.41422,23.93744 -8.51761,27.06175"/>
            <path style="fill:#e20909;stroke:#000000;stroke-width:5.56522;stroke-linecap:round;stroke-linejoin:round" id="path86" d="m 296.41288,41.89166 c 0,0 -13.88716,-2.79663 -16.07225,12.7402"/>
          </g>
        </g>
        <use y="0" x="0" xlink:href="#e" width="100%" transform="translate(80,135)" height="100%" id="f"/>
        <use y="0" x="0" xlink:href="#e" width="100%" transform="translate(152.5)" height="100%" id="g"/>
        <g id="d" transform="matrix(1.5172107,0,0,1.5150711,998.30477,469.32514)" style="stroke:#000000;stroke-width:1.31914">
          <path d="m 29.738807,62.945549 c -2.689943,6.351213 -6.015432,8.922247 -9.243665,12.043068 3.618431,0.01652 7.225043,-0.678341 10.962762,-3.813951 0.06366,9.674934 1.458013,12.982212 4.819106,16.232778 3.322963,-3.148967 4.858497,-6.547149 4.847287,-16.232778 3.737718,3.135613 7.334938,3.830472 10.953368,3.813951 -3.227999,-3.120592 -6.544434,-5.692883 -9.234271,-12.043068 z" id="path21-9-7" style="fill:#fcef3c;fill-rule:evenodd;stroke:#000000;stroke-width:1.31914"/>
          <path d="m 21.706974,58.178268 h 29.158859 v 4.771534 H 21.706974 Z" id="path23-0-4" style="fill:#fcef3c;stroke:#000000;stroke-width:1.31914"/>
          <path d="m 126.28125,7.9375 c -34.941678,37.094566 -48.391726,79.825556 -20.625,133.34375 6.34161,16.25846 11.33844,33.04455 10.3125,52.25 h 20.625 c -1.02594,-19.20545 3.97088,-35.99154 10.3125,-52.25 27.76673,-53.518189 14.31668,-96.249184 -20.625,-133.34375 z" transform="matrix(0.300607,0,0,0.300607,-1.678333,0)" id="path25-9-7" style="fill:#fcef3c;fill-rule:evenodd;stroke:#000000;stroke-width:4.38825"/>
          <path d="m 52.25,100 c -35.235309,0.84534 -58.7273133,60.01799 15.21875,88.875 -24.439711,-47.87444 20.895745,-30.13204 26.875,4.65625 H 111.875 C 102.19567,122.87043 74.822961,99.458446 52.25,100 Z" transform="matrix(0.300607,0,0,0.300607,-1.678333,0)" id="path27-7" style="fill:#fcef3c;fill-rule:evenodd;stroke:#000000;stroke-width:4.38825"/>
          <path d="m 198.96875,100 c -22.30142,0.41761 -48.7644,24.28444 -58.25,93.53125 h 17.5 C 164.19831,158.74296 209.56471,141.00056 185.125,188.875 260.01909,159.64802 234.94647,99.326296 198.96875,100 Z" transform="matrix(0.300607,0,0,0.300607,-1.678333,0)" id="path29-6-2" style="fill:#fcef3c;fill-rule:evenodd;stroke:#000000;stroke-width:4.38825"/>
        </g>
      </g>
    </g>
    <g stroke="#313131" stroke-linecap="round" stroke-linejoin="round" stroke-width="3.399224" transform="matrix(.57345074 0 0 .76402809 10.133609 25.895119)" id="g73">
      <path d="m46.888115 258.05508c-7.078585.0646-13.598783 6.95176-15.109881 11.05493 7.645878-3.03609 12.880464-1.62303 17.316429 3.02401l11.340704-7.97521s-6.040259-5.27696-12.123905-6.03575c-.475458-.0593-.95144-.0723-1.423348-.0679zm-21.2881 32.76195c-3.850928.0207-9.908703.66602-14.834717 3.93657-7.7215562 5.1266-9.87834751 16.77145-9.1252361 19.10711 7.6051657-7.90033 13.3558621-10.24069 27.4522781-7.28084l.324575-15.57023s-1.506343-.20503-3.816901-.19256zm3.564266 28.42812s-12.373666 3.95288-15.372072 13.76892c-3.198208 10.47015 3.475552 18.71842 6.551806 20.3412 1.364655-7.32571 2.97891-17.82305 17.359459-20.7149zm18.090712 19.982c-2.202972 4.26871-6.228992 10.67123-3.761987 18.33437 3.005181 9.33483 14.729675 11.55934 18.036547 11.78663-5.708727-9.73982-3.891994-16.53446.713853-25.95687zm280.883517 163.74541c-1.04761-.022-2.09758.0446-3.18008.24436-7.88176 1.45498-12.92997 10.75698-13.48017 14.52877 7.62034-4.89308 12.73638-5.26133 20.87601 3.14535 2.59709-3.0538 6.46741-7.25248 10.35997-11.49759-1.02649-1.28396-7.2425-6.26649-14.57573-6.42089zm-17.04707 22.47166c-2.32566-.11339-4.97914.33958-7.65565 1.78422-9.97766 5.38545-8.90659 18.20226-8.39774 19.80545 8.85172-10.46833 14.74473-10.38623 22.30181-2.06576l1.51403-16.51211c-.88203-1.09285-3.88634-2.82289-7.76245-3.0118zm10.43914 25.49082s-10.01042 1.21433-12.92831 13.1823c-2.91472 11.95494 5.02302 17.38979 7.11586 18.5092.31687-9.18995 4.88382-16.8439 15.83328-19.26328zm22.35839 13.80549c-2.40272 1.73589-7.35815 4.31094-7.13297 13.26244.24221 9.6277 8.59192 14.26216 12.23232 14.65347-3.36073-9.01279-.0913-15.69134 5.80593-19.77309zm-255.789633-136.642c-7.418292.0293-12.699231 5.55177-13.315073 6.63037 13.627801.89189 14.274404 6.256 17.936216 15.80011 5.195912-3.7759 9.78201-7.01237 12.78507-8.7488.26331-2.20256-3.0216-8.70164-10.739389-12.1871-2.360109-1.06585-4.589698-1.50278-6.666824-1.49458zm-16.613352 21.96432c-1.514323-.0285-3.057165.1181-4.612318.53242-11.379938 3.03184-11.21406 11.6985-11.376306 14.58137 12.600077-6.12654 17.230346.001 24.527834 6.05437l6.128772-15.84614c-2.24941-1.57029-8.105895-5.19645-14.667982-5.32202zm15.724586 31.59761s-9.97129-4.10173-17.259566.0539c-7.85754 4.48022-7.252313 15.02232-5.761472 18.6437 6.678642-9.77466 15.414038-7.89484 21.938119-3.30139zm27.964459 20.27824c2.05152 12.8118-3.03088 14.86184-11.88286 15.41078 3.00395 2.75658 13.06423 7.34644 19.72536 3.82911 7.31884-3.8646 9.18263-15.33456 8.45517-15.62604zm-68.397233-467.424434c-10.480195-.06305-16.358119 7.963615-17.923402 10.887406 18.684547-2.35428 16.930902 3.076244 20.080524 14.234403l16.320386-6.360864c-1.317517-5.856034-3.645798-15.366915-12.185331-17.826304-2.259584-.650761-4.351399-.922965-6.292177-.934641zm39.250068 1.434913c-3.519069-.157468-6.993249.765481-9.520016 2.514873 7.230892 2.786102 11.175722 5.985715 7.226676 17.961408l13.590927 9.537884c3.550998-4.08398 7.410348-13.527457.717884-23.527708-2.864555-4.28038-7.490958-6.284005-12.015471-6.486457zm-62.443742 23.34446c-6.249948-.344699-13.8471197 3.492322-17.3092782 18.708132 16.5907832-11.886703 16.3597272-.032237 24.3149952 8.089517l11.473472-18.465413s-6.141039-4.590812-14.41873-7.518176c-1.231108-.435375-2.618164-.734514-4.060459-.81406zm32.306946 61.501901c-7.093572 10.85924-16.20678 11.33612-27.922404 5.35822 7.015166 22.30567 24.173656 22.50563 40.026829 10.52282z" fill="#e20909" fill-rule="evenodd" stroke="#000" stroke-width="3.399224" id="path19"/>
      <g stroke="#313131" id="g71">
        <path d="m382.33141 373.30069c7.44178-.31418 15.48357-8.5507 28.25933 5.76503 2.65795-5.35981 2.39143-12.27186-3.50558-16.42049 8.67772-5.63218 17.99338-20.17639 20.6105-28.9045 3.41002-11.37244 5.56748-24.66605 14.58985-27.95596 4.78675-1.74548 9.26813 1.69463 8.85606 7.57927-.89447 12.77349-5.32241 10.02586-10.01454 27.26987-1.76179 6.47475 1.71644 16.63251 16.69407 14.39093-6.33998-2.92583-6.67509-6.7902-5.99075-11.89758 1.1881-8.86717 16.61773-19.25156 18.23136-33.81778 1.89806-17.13365-12.10051-24.84308-19.04675-25.5053-9.30094-.88671-20.63428 4.96871-27.48325 16.58892-3.61897-16.92251 8.21935-33.38198 21.05557-41.254 10.75545-6.59597 22.97091-12.36926 28.95655-21.87147 6.74863-10.71352 5.39091-24.19448-1.53251-30.83599-.35355 6.40809-4.84112 17.17118-18.27866 24.06171-16.31202 8.36462-32.08182 13.16456-45.2538 37.00218-2.76393-42.64828 42.96851-59.27094 61.96887-72.47447 23.58219-16.38756 15.87991-52.09645 8.72205-56.97138.41431 5.97983.66186 15.34189-6.4631 26.41451-8.24138 12.80773-22.65155 18.61379-40.03945 28.18159-17.29236 9.51526-31.64803 24.71613-38.45632 40.66719-1.87709-10.76557 6.09491-26.35977 16.13609-37.28036 10.40033-11.31115 22.82493-21.22726 29.89086-27.21748 14.07384-11.93133 34.57669-28.44665 36.7047-64.66093 1.50178-25.46925-11.17136-43.30419-28.93824-50.74816-10.41978-4.36556-25.69505-5.01936-36.21395-2.66055-5.27752 1.18344-10.53867 3.00398-15.47873 5.97313-3.47827 2.09055-9.47957.80402-8.8759-5.26669.71134-7.15379 10.92547-7.68136 12.01335-16.06494.89742-6.91594-4.3595-12.47604-9.92251-15.2266 1.39234 4.23625-.11741 9.15148-3.03635 14.05438-3.80445 6.39032-12.42016 5.70973-13.54203 17.80092-.55593 6.04755 3.47731 12.8652 9.20015 14.55762.67842.4149 1.81624 1.32915 1.33266 1.99276-6.3161 8.6678-7.45819 20.13495-6.8184 28.08741 1.06856 13.28013 5.6613 17.96105 5.72057 30.25952.0186 3.83334.0132 14.8871-4.59827 22.17358-5.68453 8.98203-10.55054 12.54123-15.96783 15.37081 7.643.47959 15.81348-1.29359 21.53229-3.51267 10.57067-4.10171 19.54133-17.16129 21.3252-25.81949 1.18781-5.76506.9201-11.1544.16274-16.40466 5.17446 1.75032 14.18531 2.00002 20.48892-2.17585 6.47284-4.28797 10.05703-13.55229 5.2966-21.63188-1.64412 8.1883-7.11614 11.15854-15.33057 11.48449-7.81695.31019-14.06495-4.57279-14.74735-13.06258-1.00585-12.51308 9.6323-21.62964 24.25544-21.80341 19.37149-.23021 29.89592 13.99524 28.86799 32.60918-1.03033 18.65773-10.27015 32.39101-23.33416 43.49622-11.22378 9.54089-23.03466 18.80896-34.71486 30.40316-9.10976 9.04269-27.05546 28.21263-27.65722 53.63025-.44628 18.83526 5.0321 34.06611 13.60335 47.78861 8.57119 13.72258 13.64843 25.15507 17.30492 35.79589 4.39492 12.79026 2.33555 30.24448-10.05154 35.13943-12.83058 5.07025-30.24839-2.61161-36.43087-19.35145-2.19915 12.23261-5.19869 37.53404 7.18678 36.58644 7.49976 2.58311 14.25528 6.03057 22.75669 5.67162z" fill-rule="evenodd" stroke-width="3.399224" id="path21"/>
        <g fill-rule="evenodd" stroke-width="3.399224" id="g27">
          <path d="m196.10277 331.94571c-23.28256-.009-37.71561 15.53662-40.6994 32.88207-1.28064 7.44469-2.49078 12.53923-5.971 15.46939-8.53659 7.18737-22.25816 8.70876-23.53675 8.22974 8.19927 9.76956 15.45244 13.04041 26.38867 10.66832-2.27819 12.02671 8.78654 26.94649 14.50151 39.26194 1.92952 4.15804-7.76546 7.08864-19.41769 9.08881-3.79197.65094-11.23 5.32146-14.87405 6.33728-3.77416 1.05208-9.47386.68495-11.66268-.66792-2.26255-1.39845-10.42493-10.6004-16.62592-12.63747-5.77037-1.89562-12.99472-.80906-14.33667 3.8912-2.13753 7.49966 7.83299 10.49934 9.16243 13.15089 1.28572 2.56441-.92492 4.61652-2.79441 3.5406-2.218-1.27648-9.36882-9.22104-13.7878-7.81768-3.32975 1.05742-6.07142 4.04424-6.90959 12.31734-.71044 7.01234 10.76284 9.1539 15.10162 9.48539 3.53233.26987 3.07213 3.76712.94363 4.43157-2.29.71489-12.29567-5.27899-12.86444-.52744-.56876 4.75156-1.31345 15.1074 4.96408 18.7424 4.93549 2.85786 23.49026-2.56915 25.61552-3.10462 2.53054-.63759 5.00133-1.38092 5.82466-.61954 5.59649 5.17535-5.85374 7.02313-1.97663 11.82846 4.11998 5.10636 10.07517 5.57637 15.56656 6.48103 11.28327 1.85879 5.55909-19.52362 8.05427-19.65459 5.38451-.74811 7.49285-1.57138 11.83332 1.93213 4.34047 3.50352 10.86126 14.3362 19.99976 17.1604-.79661-8.28214-.14074-15.73145 2.65769-21.2978 3.17439 9.5057 14.61636 14.21669 26.23636 17.24508-5.8156-6.79702-7.40448-19.13005-5.54343-21.01175 7.63832 8.50866 14.82049 11.60632 29.24895 11.19335-4.29519-3.1898-6.49132-12.49805-5.54264-15.1163 1.45534-4.01652 4.60325 2.97771 8.47202-5.18283 2.43883-5.14425-1.49573-11.34471-3.12637-14.55059-7.47826-14.70252-8.60907-48.74557 25.93179-56.78479 18.78561-4.37227 47.17369-15.28759 49.63102-18.37807 19.58438-24.63052 1.50447-45.44216-8.59998-57.38372-25.5632 12.19957-62.48074 1.80842-91.86441 1.39772z" id="path23"/>
          <path d="m203.34783 451.745s6.2763 8.74934 1.51199 17.9677c-4.96807 9.61261-16.37799 3.97068-16.37799 3.97068" id="path25"/>
        </g>
        <path d="m98.500709 125.34746c.88889 5.2289 4.910771 12.55632 3.959011 18.97791 3.50256-3.89576 6.61747-8.7125 6.65116-13.63794 6.55475 9.62818.39257 24.3043 1.84003 35.24775 2.62357-4.04816 9.27731-10.23654 10.46505-15.43766 6.78129 12.0134-6.142 15.90635 2.69376 40.02754 1.65378-9.10276 7.09173-16.96108 9.13492-23.27594 3.32446 16.80134 20.52506 26.67692 29.47706 23.12148 23.27955 25.7437 47.76019 12.99651 44.11117-16.76576 0 0-23.47244-42.40815-28.92659-45.78872-5.92248-3.67085-13.33339-6.81712-21.86029-11.33419-9.62392-5.09821-17.514-9.17816-25.14265-15.16679-7.62865-5.988662-11.52232-11.601098-16.54382-15.833403-7.06935-5.958319-11.99981-12.81212-12.41068-16.147276-.50275-4.080989 3.37322-5.50043 4.31579-12.122321 1.12156-7.879327-7.502758-15.531612-14.804024-13.781373-4.162382.997795-3.978014 8.880724-6.125479 10.644356-.506187.415712-1.138493.596782-1.982763.422568-4.426031-.913308-1.888526-13.769181-8.913975-13.698927-7.025459.07025-12.420462 2.647279-15.639818 9.805612-2.587905 5.754282 8.236187 8.657286 8.895094 11.860954.147688.718075-1.291513 1.893496-2.031211 1.935404-.488313.02766-8.665811-7.470167-14.389728-5.030714-4.460463 1.900987-8.996275 7.679584-6.823204 15.007294 1.879055 6.336273 10.44943 6.103221 14.582211 6.208524 4.90019.124857 16.887848 13.111791 16.518836 19.431152.140507 5.05833-7.503884 3.68389-8.609232 9.58684-1.417445 7.56966 5.048929 15.39893 11.485448 13.88352 4.81575-1.13382 9.536236-7.90739 11.73672-8.29539 5.372736-.46635 7.351603 4.3497 8.337204 10.1555z" fill-rule="evenodd" stroke-width="2.884424" transform="matrix(1.17469 .09537 -.09538 1.17453 -19.84846 -9.50878)" id="path29"/>
        <path d="m237.0441 320.23703c15.17041 5.69924 28.03896 19.75064 29.70305 29.84924-8.74164 17.42545-2.97443 25.21626 9.51898 23.13147 10.19595-1.69622 10.2128-9.837 7.52724-19.22928-2.39599-8.37952-6.04209-14.04004-13.80464-20.03355-10.13587-7.82599-28.58771-14.48447-32.94463-13.71788z" fill-rule="evenodd" stroke-width="3.399224" id="path31"/>
        <g fill-rule="evenodd" stroke-width="3.399224" id="g39">
          <path d="m375.92248 546.08868c5.57959-18.31752 25.27069-5.71075 35.48774-20.63388-6.20825-.40291-13.61889-4.89916-15.69674-11.56905 16.19384.48409 23.5066-4.59036 31.82926-11.65927-6.5203.0385-16.14326-1.58827-17.50881-11.004 7.79732-.15487 24.12809-.22222 33.10275-14.12018-15.8339 2.64276-23.53791-2.61595-22.80832-7.16337 2.1566-13.44199 10.01303-12.71879-.64443-22.55448-2.99449-2.76359-15.7134-5.22967-14.67705-12.07315.54964-3.62949 11.06268-10.12979 16.1846-12.95927-3.27955-.36039-11.59365-4.68273-19.18435-2.56233-7.5907 2.12041-14.35669 3.06423-25.69271-8.74253-5.21236-5.45194-7.78018-6.89191-14.02763-19.67755-1.25584-2.57012-7.76857-24.2848-5.59192-23.88781 7.41792-10.16624.50453-25.85202-4.21887-37.51653-4.59906-12.44295-8.66962-25.01533-17.65673-38.04297-6.90327-10.00692-25.29795-27.11166-26.28584-40.50653-1.29164-17.36215-1.61972-35.89657-.54643-44.92719 2.94094-24.74493 3.97729-29.44587-19.4588-37.41198-13.85462-4.70927-61.97863-17.06553-84.7589 8.1367-11.63948 12.87695-24.16832 12.01357-34.29254 29.20975-10.12421 17.19618-10.35321 11.72369-19.12153 19.92872s-16.70744 14.57234-19.2186 16.2c-5.02233 3.25532-6.79144 3.90547-15.24264 10.32588-8.4512 6.4204-15.998969 12.42078-17.407569 13.99608-2.817199 3.15058-17.899026 9.07261-21.260151 8.68862-2.073807-.23693-7.977765-10.42379-12.405492-11.24773-5.549882-1.03277-18.6207 2.88153-18.774635 9.93457-.08246 3.77802 10.073771 7.36462 8.467369 11.60076-1.09346 2.88348-9.094149 5.73704-12.643155 4.92053-2.028488-.4667-7.881682-3.86847-12.687447-2.57805-8.979281 2.41108-11.717322 15.37674-6.395568 20.42909 2.705097 2.56815 13.234968-.58314 14.816529.33676 1.792408 1.04255 2.940223 1.86273 1.979019 3.88953-1.042705 2.19871-14.077561 1.61189-15.721727 4.47568-5.59818 9.75086 2.368907 23.65464 12.560733 19.2234 3.423315-1.48841 6.697199-3.98676 8.988738-5.65251 2.033495-1.47798 3.926899.37699 4.132399 1.49242.467818 2.53912-8.933368 8.47738-7.675679 12.32909 2.419005 7.4083 18.165015 9.34093 21.993928 3.15599 2.97136-4.79971 9.017485-16.18217 10.154532-17.72748.568534-.77266 1.451254-2.50388 8.496147-4.38818 17.577449-4.23013 23.447039 3.42305 29.831399 18.28724 5.72142-4.83465 14.74934-19.11248 10.1332-26.92995 6.53276 6.90996 17.52392 14.78029 26.9712 15.76964-3.80518-10.48099 1.09715-19.30565 2.60746-22.89489 6.03646 6.25891 22.33659 12.92707 34.00639 10.4348-10.03795-6.28478-15.7656-17.63603-4.52652-22.93392 11.23909-5.29788 14.10321-8.35164 16.68373-18.30575 2.58051-9.95411 15.50567-6.83703 20.40988.19309 4.9042 7.03013 6.87001 9.6283 12.5607 16.0325 6.12286 6.89057 14.35784 13.66897 19.74311 17.83606 6.08528 4.70874 11.74829 9.86708 16.8617 17.31215 6.55009 9.53687 9.63556 20.32958 9.29369 33.45234-1.49392 12.64507 4.15094 23.82648 2.25836 36.14519-1.13486 4.67846-7.4665 11.44965-1.34832 23.44151s7.83555 36.76053-.36941 45.52915c21.61465-1.07899 30.63038-19.65886 27.17675-35.8946 8.24864 7.00782 13.86557 8.8756 20.55821 14.89739 2.53522 2.28109 14.02293 13.06978 16.8949 15.32677 5.85424 5.71954 5.06211 4.72034 14.09874 11.78368.64835 1.27805 2.29328 10.00348 2.2859 12.25244-.002.65051.35602 5.85018-1.48929 11.81912-1.6328 5.28155-4.65781 11.19381-7.75967 13.10842-3.19284 1.97078-4.08637-5.84543-7.761-5.21555-4.86086.83322-14.75715 8.12097-13.43694 12.81041 1.2843 4.56188 12.62054 2.84065 8.44532 5.15052l-5.33859 2.9535c-3.28181 1.8156-4.35814-2.61619-11.30273-1.54592-8.53447 1.31527-10.82332 11.84997-6.16076 17.55562 3.06736 3.75358 9.62749 1.38319 9.62749 1.38319 7.28841-1.68211 9.7887.93558.5954 3.32108 0 0-8.87263 2.4843-7.76469 9.51939.75573 4.79868 7.39842 9.86757 11.01468 9.25608 4.79923-.81154 10.17432-3.85179 11.73817-6.58428 2.93313-5.12503 5.35865-2.04501 3.29529 2.03451-1.17228 2.31771-3.19247 7.26746.10769 9.77566 4.02219 3.05696 13.67689 1.31167 16.68837-1.60212 4.61104-4.46143 3.94627-11.59525 2.81815-13.63542 7.64528-2.36032 11.70502-7.11896 13.96256-11.5066z" id="path33"/>
          <path d="m395.03897 449.49761s10.04425.70486 14.03077 10.89496c4.157 10.6259-6.58864 16.28535-6.58864 16.28535" id="path35"/>
          <path d="m100.92877 310.30778s61.87951-19.78687 101.21665-61.47879" id="path37"/>
        </g>
        <g stroke-width="3.399224" id="g63">
          <g id="g55">
            <g fill-rule="evenodd" id="g47">
              <path d="m318.73852 150.2645c-7.93442.23895-15.58694.48326-22.24297-1.62967-6.20014-1.96821-14.92829-.94152-21.61337 2.34223-10.75456 5.28269-17.63205 9.15348-29.36013 9.38071-9.87627.19136-13.65969-5.13279-13.46928-15.96275 2.91738 5.46765 6.72038 7.44433 10.06341 7.46167 4.30082.0223 11.6565-2.0068 17.09386-5.60432 28.14959-18.62465 48.98279-15.29393 59.52848 4.01213z" fill="#e20909" stroke="#000" stroke-width="3.184937" transform="matrix(1.03484 .29274 -.16123 1.05513 -31.95674 -114.95021)" id="path41"/>
              <path d="m246.65625 96.875c-1.23904 3.21457-.77199 13.10696 5.625 16.09375.86096-5.64452 3.42933-12.22234 5.375-15.59375zm10.51251 36.50062c-.71633 3.47468.37801 7.84627 2.03125 10.5l7.5625-1.9375c-3.92913-2.0289-7.45461-5.09122-9.59375-8.5625z" stroke="#313131" stroke-width="3.399224" transform="matrix(.99968753 .02499687 -.02499687 .99968753 -45.039529 -11.671505)" id="path43"/>
              <path d="m371.21891 274.33981c-3.63616-3.97595-4.20247-10.72779-3.31996-16.50133 1.20339-7.8727 5.73826-14.84059 6.23408-23.44866.57067-10.06872-4.70956-11.67356-4.67522-16.59978 5.17561 6.62108 16.99273 5.38232 19.13052-4.26509-5.33275.0595-10.57868-2.68627-13.00792-7.31658-4.37481-8.33865 2.63385-12.52387 2.5388-21.23391-.11061-10.2752-6.74169-13.74636-7.77303-17.94628 5.23451.76199 10.87845-2.97213 10.7996-8.34095-2.50511 1.39032-5.33214 1.12164-7.45386-1.5469-2.54437-3.20012-1.64188-8.06218-2.89951-11.7715-2.33526-6.88761-7.87838-6.9293-9.24575-11.23207 5.68115 1.86232 12.11869-3.04907 11.21199-9.83616-1.76068 1.56755-4.26936 2.12464-6.57527 1.13479-4.14726-1.78027-2.81917-6.61393-4.86526-10.54379-1.48187-2.8462-8.05979-5.38481-8.89896-8.61272 4.7476.54446 8.68359-2.7944 7.9079-8.40936-2.21438 1.4199-7.70876 1.474255-9.80819-.357165-9.82575-8.57145-16.92602-15.822536-27.79367-21.249275-8.8104-4.399458-29.95373-5.082891-46.03153-3.604527-11.84919 1.089541-21.0464 7.687984-27.68585 12.480591-5.78662 4.176991-1.37012 6.835454.73105 9.659047-5.46779.159383-10.19241-.06064-14.96713 2.689186-2.75446 1.586327-6.19406 4.654123-5.63309 6.253993.32419.92462 2.88209 3.70087 4.48972 2.29694.44884 3.70995.0346 5.91932.73007 9.73321.91465 5.01603 4.50233 9.1898 8.76379 9.60822 11.30044 1.10956 21.19388-.98531 30.62876-6.34067 12.77404-7.25071 18.21971-.22613 20.56751 7.88964 2.36704 8.18234 1.20076 18.94612-5.32201 26.56498-3.38632 3.95536-10.03439 8.36356-17.03916 9.11664-3.93175.42269-7.99927-.94473-11.19253 1.07919-1.62809 1.0319-1.20348 6.84454-1.24855 10.06893-.0353 2.51693 2.05727 3.57598 4.76113 3.81103 6.26755.54487 5.66526 7.09181 9.42397 7.54546-.011-1.68603.57753-8.55774 2.05515-8.82724 5.93891-1.08316 19.38978-4.87515 19.31098-2.55611-.20178 5.83357-6.26036 9.60332-20.59093 14.52177-11.11721 3.81558-34.25219.54006-35.03739-26.1383-13.70286 10.44207-14.69237 35.72095-1.38178 41.42041-4.4644.0723-9.25155 1.14191-14.41604 2.81956-7.6738 2.49278-17.03563-2.61207-23.06444-8.07249.50846 19.00014 5.47419 29.0394 15.8261 33.71717 12.30163 5.55879 19.8832 3.08788 27.68272 3.29605-5.88819 4.22165-9.56886 10.88357-14.59537 17.12956-5.64782 7.01802-14.41539 13.28069-25.06249 13.48325 5.74028 8.32916 14.99901 12.56877 25.51747 12.75811 14.19297.25802 25.1358-5.2541 33.68466-13.6164-.28951 9.11278-8.97024 13.61576-9.1422 24.60333-.15365 9.81864 5.46127 17.78262 15.42757 18.61396-4.94154-14.9571 9.83001-21.53613 18.45193-26.10019 8.15941-4.31922 15.02143-9.71544 20.17096-17.77925 2.27399 8.93812-8.88267 17.05111-1.37227 29.56367 5.05031 8.41396 14.83049 11.01093 24.85395 9.56454-7.04672-3.39664-9.85378-12.0941-6.56321-20.68333 4.72525-12.33415 12.60485-14.08366 19.02673-28.55501 1.70365-3.83906 2.40406-9.89684 2.83351-15.65585 4.40015 5.82673 3.17654 11.87196 2.67147 17.10813-.94882 9.83655 8.48631 21.43075 21.23048 18.60953z" stroke="#313131" stroke-width="3.184941" transform="matrix(1.05493 .16125 -.16123 1.05513 -37.490074 -78.73753)" id="path45"/>
            </g>
            <g stroke="#313131" stroke-width="3.399224" id="g53">
              <path d="m306.52204 78.102415c-3.74068-14.827748 9.99923-18.072256 19.94382-23.831648-.26946 9.856206 2.07809 22.369124-4.05954 26.268137" fill-rule="evenodd" stroke-width="3.184941" transform="matrix(1.05493 .16125 -.16123 1.05513 -37.490074 -78.737527)" id="path49"/>
              <path d="m239.2893 75.683907s1.76183 4.164338 4.64484 1.761835m13.37781-9.486166c4.78105 6.825992 8.26432 2.472551 12.49155.43929 14.90499-8.340841 18.08618-2.264282 25.57688 2.212118m-2.97635 87.942826c17.46552 1.10666 24.7078-20.37059 24.7078-20.37059s7.90245 10.32513 3.33442 18.74416c9.80362-6.8894 15.18842-20.65394 5.98986-39.20038 5.70077.87138 11.35181 6.8408 12.28693 10.26593 3.70875-13.3728.46185-31.657453-12.23585-41.62147" stroke-width="3.399224" transform="translate(-46.629309 -6.402298)" id="path51"/>
            </g>
          </g>
          <g id="g61">
            <path d="m216.20891 65.947309c4.66241 3.095517 8.18291 4.850739 12.57505 3.622242 7.13802-1.76843 9.43959-5.7979 12.7246-5.415123-.70806-7.91465-9.45045-7.319973-14.4114-3.621218-.59021.352976.95152 4.00922 2.25888 7.084267-1.18139-.06185-4.62959-1.756757-4.93114-5.303545-1.90616 1.337781-4.67195 2.220351-8.21599 3.633377z" fill-rule="evenodd" id="path57"/>
            <path d="m227.14835 63.051245c.59171.976289 2.60973 4.961262 2.20753 4.96126-.76868.274856-5.14098-3.759153-4.7792-4.84747.25772-.775269.53088-1.411001.93309-1.411001s1.21513.598536 1.63858 1.297211z" fill="#313131" id="path59"/>
          </g>
        </g>
        <g stroke-width="3.399224" id="g69">
          <path d="m273.27707 53.09609c-1.55555-16.24839 13.46218-17.45627 24.88158-21.92966-1.87333 10.35614-1.41422 23.93744-8.51761 27.06175" fill-rule="evenodd" id="path65"/>
          <path d="m296.41288 41.89166s-13.88716-2.79663-16.07225 12.7402" id="path67"/>
        </g>
      </g>
    </g>
  </g>
  <path style="fill:url(#a)" id="path145" fill-rule="evenodd" fill="url(#a)" d="m 299.99998,658.49993 c 0,0 -298.499995,-112.32032 -298.499995,-397.77186 0,-285.451489 0,-258.551689 0,-258.551689 H 598.50002 V 260.72807 c 0,285.45154 -298.50003,397.77186 -298.50004,397.77186 z"/>
</svg>