<?xml version="1.0" encoding="UTF-8" standalone="no"?>
<svg xmlns:dc="http://purl.org/dc/elements/1.1/" xmlns:cc="http://creativecommons.org/ns#" xmlns:rdf="http://www.w3.org/1999/02/22-rdf-syntax-ns#" xmlns:svg="http://www.w3.org/2000/svg" xmlns="http://www.w3.org/2000/svg" viewBox="0 0 1010.425 1187.4" height="1187.4" width="1010.425" xml:space="preserve" version="1.1" id="svg2"><metadata id="metadata8"><rdf:RDF><cc:Work rdf:about=""><dc:format>image/svg+xml</dc:format><dc:type rdf:resource="http://purl.org/dc/dcmitype/StillImage"/></cc:Work></rdf:RDF></metadata><defs id="defs6"><clipPath id="clipPath16" clipPathUnits="userSpaceOnUse"><path id="path18" d="m 0,949.92 808.34,0 L 808.34,0 0,0 0,949.92 Z"/></clipPath></defs><g transform="matrix(1.25,0,0,-1.25,0,1187.4)" id="g10"><g id="g12"><g clip-path="url(#clipPath16)" id="g14"><g transform="translate(6.9839,540.5596)" id="g20"><path id="path22" style="fill:#ffffff;fill-opacity:1;fill-rule:nonzero;stroke:none" d="m 0,0 c 1.726,-127.979 8.295,-227.85 65.63,-305.949 69.066,-94.07 184.12,-161.96 332.13,-228.651 148.01,66.696 263.069,134.58 332.13,228.651 57.334,78.092 63.719,177.96 65.629,305.948 1.983,132.832 2.107,265.69 0,398.522 l -795.53,0 C -2.4,265.69 -1.798,132.84 -0.007,0 L 0,0 Z"/></g><g transform="translate(263.2202,103.4854)" id="g24"><path id="path26" style="fill:#1353b4;fill-opacity:1;fill-rule:nonzero;stroke:none" d="m 0,0 c 1.698,4.209 3.506,8.339 5.317,12.46 1.808,4.123 3.616,8.253 5.314,12.462 1.695,4.209 3.276,8.508 4.635,12.973 1.355,4.464 2.487,9.1 3.279,13.995 0.789,4.894 1.243,10.036 1.243,15.528 0,5.495 -0.454,10.755 -1.243,15.85 -0.792,5.092 -1.924,10.017 -3.279,14.824 -1.359,4.807 -2.94,9.488 -4.635,14.124 -1.698,4.635 -3.506,9.223 -5.314,13.802 -1.811,4.579 -3.619,9.168 -5.317,13.804 -1.694,4.634 -3.276,9.317 -4.634,14.121 -1.355,4.808 -2.488,9.735 -3.28,14.828 -0.789,5.092 -1.242,10.354 -1.242,15.847 0,5.492 0.453,10.755 1.242,15.849 0.792,5.093 1.925,10.017 3.28,14.825 1.358,4.808 2.94,9.489 4.634,14.123 1.698,4.635 3.506,9.226 5.317,13.804 1.808,4.579 3.616,9.167 5.314,13.803 1.695,4.636 3.276,9.316 4.635,14.122 1.355,4.807 2.487,9.734 3.279,14.827 0.789,5.091 1.243,10.354 1.243,15.846 0,5.495 -0.454,10.756 -1.243,15.85 -0.792,5.095 -1.924,10.02 -3.279,14.825 -1.359,4.807 -2.94,9.489 -4.635,14.123 -1.698,4.635 -3.506,9.226 -5.314,13.803 -1.811,4.58 -3.619,9.167 -5.317,13.804 -1.694,4.636 -3.276,9.316 -4.634,14.122 -1.355,4.807 -2.488,9.734 -3.28,14.826 -0.789,5.093 -1.242,10.357 -1.242,15.85 0,5.127 0.453,10.124 1.242,15.017 0.792,4.893 1.925,9.704 3.28,14.443 2.713,9.476 6.332,18.713 9.951,28.054 1.808,4.669 3.616,9.367 5.314,14.122 1.695,4.756 3.276,9.585 4.635,14.506 1.355,4.922 2.487,9.915 3.279,15.082 0.789,5.167 1.243,10.483 1.243,15.976 0,5.493 -0.454,10.755 -1.243,15.848 -0.792,5.093 -1.924,10.019 -3.279,14.827 -1.359,4.806 -2.94,9.486 -4.635,14.122 -1.698,4.635 -3.506,9.225 -5.314,13.803 -1.811,4.577 -3.619,9.168 -5.317,13.804 -1.694,4.635 -3.276,9.315 -4.634,14.122 -1.355,4.808 -2.488,9.732 -3.28,14.826 -0.789,5.093 -1.242,10.354 -1.242,15.848 0,5.494 0.453,10.755 1.242,15.848 0.792,5.094 1.925,10.019 3.28,14.826 1.358,4.807 2.94,9.487 4.634,14.123 1.698,4.635 3.506,9.224 5.317,13.803 1.808,4.578 3.616,9.167 5.314,13.803 1.695,4.635 3.276,9.316 4.635,14.122 1.355,4.808 2.487,9.734 3.279,14.826 0.789,5.094 1.243,10.356 1.243,15.849 0,5.494 -0.454,10.635 -1.243,15.529 -0.792,4.893 -1.924,9.53 -3.279,13.995 -1.359,4.465 -2.94,8.763 -4.635,12.972 -1.698,4.209 -3.506,8.339 -5.314,12.462 -1.457,3.318 -2.898,6.651 -4.296,10.017 l -45.297,0 c 1.641,-2.903 5.291,-7.872 6.231,-10.017 1.811,-4.123 3.619,-8.253 5.314,-12.462 1.698,-4.209 3.279,-8.507 4.638,-12.972 1.355,-4.465 2.487,-9.102 3.28,-13.995 0.789,-4.894 1.241,-10.035 1.241,-15.529 0,-5.493 -0.452,-10.755 -1.241,-15.849 -0.793,-5.092 -1.925,-10.018 -3.28,-14.826 -1.359,-4.806 -2.94,-9.487 -4.638,-14.122 -1.695,-4.636 -3.503,-9.225 -5.314,-13.803 -1.808,-4.579 -3.616,-9.168 -5.314,-13.803 -1.695,-4.636 -3.276,-9.316 -4.635,-14.123 -1.355,-4.807 -2.487,-9.732 -3.279,-14.826 -0.789,-5.093 -1.242,-10.354 -1.242,-15.848 0,-5.494 0.453,-10.755 1.242,-15.848 0.792,-5.094 1.924,-10.018 3.279,-14.826 1.359,-4.807 2.94,-9.487 4.635,-14.122 1.698,-4.636 3.506,-9.227 5.314,-13.804 1.811,-4.578 3.619,-9.168 5.314,-13.803 1.698,-4.636 3.279,-9.316 4.638,-14.122 1.355,-4.808 2.487,-9.734 3.28,-14.827 0.789,-5.093 1.241,-10.355 1.241,-15.848 0,-5.493 -0.452,-10.756 -1.241,-15.848 -0.793,-5.094 -1.925,-10.019 -3.28,-14.826 -1.359,-4.807 -2.94,-9.487 -4.638,-14.123 -1.695,-4.636 -3.503,-9.225 -5.314,-13.803 -1.808,-4.578 -3.616,-9.168 -5.314,-13.803 -1.695,-4.636 -3.276,-9.316 -4.635,-14.124 -1.355,-4.806 -2.487,-9.732 -3.279,-14.825 -0.789,-5.093 -1.242,-10.355 -1.242,-15.848 0,-5.493 0.453,-10.757 1.242,-15.85 0.792,-5.092 1.924,-10.019 3.279,-14.826 1.359,-4.806 2.94,-9.486 4.635,-14.122 1.698,-4.637 3.506,-9.224 5.314,-13.804 1.811,-4.577 3.619,-9.168 5.314,-13.803 1.698,-4.634 3.279,-9.316 4.638,-14.123 1.355,-4.805 2.487,-9.73 3.28,-14.825 0.789,-5.094 1.241,-10.355 1.241,-15.85 0,-5.492 -0.452,-10.755 -1.241,-15.846 -0.793,-5.093 -1.925,-10.02 -3.28,-14.827 -1.359,-4.806 -2.94,-9.486 -4.638,-14.122 -1.695,-4.636 -3.503,-9.225 -5.314,-13.803 -1.808,-4.578 -3.616,-9.169 -5.314,-13.804 -1.695,-4.634 -3.276,-9.315 -4.635,-14.123 -1.355,-4.808 -2.487,-9.732 -3.279,-14.825 -0.789,-5.094 -1.242,-10.357 -1.242,-15.849 0,-5.493 0.453,-10.755 1.242,-15.847 0.792,-5.093 1.924,-10.02 3.279,-14.828 1.359,-4.804 2.94,-9.487 4.635,-14.121 1.698,-4.636 3.506,-9.225 5.314,-13.804 1.811,-4.579 3.619,-9.167 5.314,-13.802 1.698,-4.636 3.279,-9.317 4.638,-14.124 1.355,-4.807 2.487,-9.732 3.28,-14.824 0.789,-5.095 1.241,-10.355 1.241,-15.85 0,-6.591 -0.452,-12.591 -1.241,-18.085 -0.793,-5.494 -1.925,-10.474 -3.28,-15.145 -1.359,-4.671 -2.94,-9.041 -4.638,-13.163 -1.695,-4.125 -3.503,-8.039 -5.314,-11.887 -1.587,-3.378 -3.163,-6.684 -4.675,-10.043 11.485,-7.352 23.367,-14.573 35.626,-21.69 0.688,3.308 1.515,6.511 2.46,9.622 C -3.276,-8.508 -1.694,-4.209 0,0"/></g><g transform="translate(263.2202,103.4854)" id="g28"><path id="path30" style="fill:none;stroke:#554400;stroke-width:1.29999995;stroke-linecap:butt;stroke-linejoin:miter;stroke-miterlimit:4;stroke-dasharray:none;stroke-opacity:1" d="m 0,0 c 1.698,4.209 3.506,8.339 5.317,12.46 1.808,4.123 3.616,8.253 5.314,12.462 1.695,4.209 3.276,8.508 4.635,12.973 1.355,4.464 2.487,9.1 3.279,13.995 0.789,4.894 1.243,10.036 1.243,15.528 0,5.495 -0.454,10.755 -1.243,15.85 -0.792,5.092 -1.924,10.017 -3.279,14.824 -1.359,4.807 -2.94,9.488 -4.635,14.124 -1.698,4.635 -3.506,9.223 -5.314,13.802 -1.811,4.579 -3.619,9.168 -5.317,13.804 -1.694,4.634 -3.276,9.317 -4.634,14.121 -1.355,4.808 -2.488,9.735 -3.28,14.828 -0.789,5.092 -1.242,10.354 -1.242,15.847 0,5.492 0.453,10.755 1.242,15.849 0.792,5.093 1.925,10.017 3.28,14.825 1.358,4.808 2.94,9.489 4.634,14.123 1.698,4.635 3.506,9.226 5.317,13.804 1.808,4.579 3.616,9.167 5.314,13.803 1.695,4.636 3.276,9.316 4.635,14.122 1.355,4.807 2.487,9.734 3.279,14.827 0.789,5.091 1.243,10.354 1.243,15.846 0,5.495 -0.454,10.756 -1.243,15.85 -0.792,5.095 -1.924,10.02 -3.279,14.825 -1.359,4.807 -2.94,9.489 -4.635,14.123 -1.698,4.635 -3.506,9.226 -5.314,13.803 -1.811,4.58 -3.619,9.167 -5.317,13.804 -1.694,4.636 -3.276,9.316 -4.634,14.122 -1.355,4.807 -2.488,9.734 -3.28,14.826 -0.789,5.093 -1.242,10.357 -1.242,15.85 0,5.127 0.453,10.124 1.242,15.017 0.792,4.893 1.925,9.704 3.28,14.443 2.713,9.476 6.332,18.713 9.951,28.054 1.808,4.669 3.616,9.367 5.314,14.122 1.695,4.756 3.276,9.585 4.635,14.506 1.355,4.922 2.487,9.915 3.279,15.082 0.789,5.167 1.243,10.483 1.243,15.976 0,5.493 -0.454,10.755 -1.243,15.848 -0.792,5.093 -1.924,10.019 -3.279,14.827 -1.359,4.806 -2.94,9.486 -4.635,14.122 -1.698,4.635 -3.506,9.225 -5.314,13.803 -1.811,4.577 -3.619,9.168 -5.317,13.804 -1.694,4.635 -3.276,9.315 -4.634,14.122 -1.355,4.808 -2.488,9.732 -3.28,14.826 -0.789,5.093 -1.242,10.354 -1.242,15.848 0,5.494 0.453,10.755 1.242,15.848 0.792,5.094 1.925,10.019 3.28,14.826 1.358,4.807 2.94,9.487 4.634,14.123 1.698,4.635 3.506,9.224 5.317,13.803 1.808,4.578 3.616,9.167 5.314,13.803 1.695,4.635 3.276,9.316 4.635,14.122 1.355,4.808 2.487,9.734 3.279,14.826 0.789,5.094 1.243,10.356 1.243,15.849 0,5.494 -0.454,10.635 -1.243,15.529 -0.792,4.893 -1.924,9.53 -3.279,13.995 -1.359,4.465 -2.94,8.763 -4.635,12.972 -1.698,4.209 -3.506,8.339 -5.314,12.462 -1.457,3.318 -2.898,6.651 -4.296,10.017 l -45.297,0 c 1.641,-2.903 5.291,-7.872 6.231,-10.017 1.811,-4.123 3.619,-8.253 5.314,-12.462 1.698,-4.209 3.279,-8.507 4.638,-12.972 1.355,-4.465 2.487,-9.102 3.28,-13.995 0.789,-4.894 1.241,-10.035 1.241,-15.529 0,-5.493 -0.452,-10.755 -1.241,-15.849 -0.793,-5.092 -1.925,-10.018 -3.28,-14.826 -1.359,-4.806 -2.94,-9.487 -4.638,-14.122 -1.695,-4.636 -3.503,-9.225 -5.314,-13.803 -1.808,-4.579 -3.616,-9.168 -5.314,-13.803 -1.695,-4.636 -3.276,-9.316 -4.635,-14.123 -1.355,-4.807 -2.487,-9.732 -3.279,-14.826 -0.789,-5.093 -1.242,-10.354 -1.242,-15.848 0,-5.494 0.453,-10.755 1.242,-15.848 0.792,-5.094 1.924,-10.018 3.279,-14.826 1.359,-4.807 2.94,-9.487 4.635,-14.122 1.698,-4.636 3.506,-9.227 5.314,-13.804 1.811,-4.578 3.619,-9.168 5.314,-13.803 1.698,-4.636 3.279,-9.316 4.638,-14.122 1.355,-4.808 2.487,-9.734 3.28,-14.827 0.789,-5.093 1.241,-10.355 1.241,-15.848 0,-5.493 -0.452,-10.756 -1.241,-15.848 -0.793,-5.094 -1.925,-10.019 -3.28,-14.826 -1.359,-4.807 -2.94,-9.487 -4.638,-14.123 -1.695,-4.636 -3.503,-9.225 -5.314,-13.803 -1.808,-4.578 -3.616,-9.168 -5.314,-13.803 -1.695,-4.636 -3.276,-9.316 -4.635,-14.124 -1.355,-4.806 -2.487,-9.732 -3.279,-14.825 -0.789,-5.093 -1.242,-10.355 -1.242,-15.848 0,-5.493 0.453,-10.757 1.242,-15.85 0.792,-5.092 1.924,-10.019 3.279,-14.826 1.359,-4.806 2.94,-9.486 4.635,-14.122 1.698,-4.637 3.506,-9.224 5.314,-13.804 1.811,-4.577 3.619,-9.168 5.314,-13.803 1.698,-4.634 3.279,-9.316 4.638,-14.123 1.355,-4.805 2.487,-9.73 3.28,-14.825 0.789,-5.094 1.241,-10.355 1.241,-15.85 0,-5.492 -0.452,-10.755 -1.241,-15.846 -0.793,-5.093 -1.925,-10.02 -3.28,-14.827 -1.359,-4.806 -2.94,-9.486 -4.638,-14.122 -1.695,-4.636 -3.503,-9.225 -5.314,-13.803 -1.808,-4.578 -3.616,-9.169 -5.314,-13.804 -1.695,-4.634 -3.276,-9.315 -4.635,-14.123 -1.355,-4.808 -2.487,-9.732 -3.279,-14.825 -0.789,-5.094 -1.242,-10.357 -1.242,-15.849 0,-5.493 0.453,-10.755 1.242,-15.847 0.792,-5.093 1.924,-10.02 3.279,-14.828 1.359,-4.804 2.94,-9.487 4.635,-14.121 1.698,-4.636 3.506,-9.225 5.314,-13.804 1.811,-4.579 3.619,-9.167 5.314,-13.802 1.698,-4.636 3.279,-9.317 4.638,-14.124 1.355,-4.807 2.487,-9.732 3.28,-14.824 0.789,-5.095 1.241,-10.355 1.241,-15.85 0,-6.591 -0.452,-12.591 -1.241,-18.085 -0.793,-5.494 -1.925,-10.474 -3.28,-15.145 -1.359,-4.671 -2.94,-9.041 -4.638,-13.163 -1.695,-4.125 -3.503,-8.039 -5.314,-11.887 -1.587,-3.378 -3.163,-6.684 -4.675,-10.043 11.485,-7.352 23.367,-14.573 35.626,-21.69 0.688,3.308 1.515,6.511 2.46,9.622 C -3.276,-8.508 -1.694,-4.209 0,0 Z"/></g><g transform="translate(188.4863,141.3799)" id="g32"><path id="path34" style="fill:#1353b4;fill-opacity:1;fill-rule:nonzero;stroke:none" d="m 0,0 c 1.355,4.465 2.486,9.101 3.279,13.995 0.789,4.895 1.242,10.036 1.242,15.528 0,5.496 -0.453,10.755 -1.242,15.85 C 2.486,50.466 1.355,55.391 0,60.197 c -1.359,4.808 -2.939,9.489 -4.635,14.124 -1.698,4.635 -3.506,9.224 -5.314,13.802 -1.811,4.579 -3.619,9.168 -5.317,13.805 -1.695,4.634 -3.276,9.316 -4.634,14.121 -1.356,4.807 -2.488,9.734 -3.28,14.827 -0.789,5.093 -1.242,10.354 -1.242,15.848 0,5.492 0.453,10.755 1.242,15.848 0.792,5.093 1.924,10.018 3.28,14.825 1.358,4.808 2.939,9.49 4.634,14.124 1.698,4.634 3.506,9.225 5.317,13.803 1.808,4.579 3.616,9.167 5.314,13.804 1.696,4.636 3.276,9.315 4.635,14.121 1.355,4.808 2.486,9.734 3.279,14.827 0.789,5.092 1.242,10.355 1.242,15.847 0,5.495 -0.453,10.756 -1.242,15.849 -0.793,5.095 -1.924,10.02 -3.279,14.826 -1.359,4.806 -2.939,9.489 -4.635,14.123 -1.698,4.634 -3.506,9.225 -5.314,13.802 -1.811,4.581 -3.619,9.167 -5.317,13.805 -1.695,4.635 -3.276,9.315 -4.634,14.121 -1.356,4.808 -2.488,9.734 -3.28,14.827 -0.789,5.092 -1.242,10.356 -1.242,15.849 0,5.127 0.453,10.125 1.242,15.018 0.792,4.892 1.924,9.703 3.28,14.442 2.713,9.477 6.332,18.714 9.951,28.054 1.808,4.67 3.616,9.368 5.314,14.123 1.696,4.755 3.276,9.584 4.635,14.506 1.355,4.921 2.486,9.914 3.279,15.082 0.789,5.167 1.242,10.482 1.242,15.976 0,5.492 -0.453,10.755 -1.242,15.848 C 2.486,519.267 1.355,524.192 0,529 c -1.359,4.806 -2.939,9.487 -4.635,14.123 -1.698,4.635 -3.506,9.224 -5.314,13.802 -1.811,4.578 -3.619,9.168 -5.317,13.804 -1.695,4.635 -3.276,9.316 -4.634,14.122 -1.356,4.808 -2.488,9.732 -3.28,14.826 -0.789,5.094 -1.242,10.355 -1.242,15.848 0,5.494 0.453,10.755 1.242,15.849 0.792,5.093 1.924,10.018 3.28,14.826 1.358,4.806 2.939,9.487 4.634,14.122 1.698,4.636 3.506,9.225 5.317,13.803 1.808,4.579 3.616,9.168 5.314,13.804 1.696,4.635 3.276,9.316 4.635,14.122 1.355,4.808 2.486,9.733 3.279,14.826 0.789,5.094 1.242,10.355 1.242,15.849 0,5.493 -0.453,10.634 -1.242,15.528 -0.793,4.894 -1.924,9.53 -3.279,13.995 -1.359,4.466 -2.939,8.764 -4.635,12.973 -1.698,4.209 -3.506,8.339 -5.314,12.462 -1.457,3.317 -2.898,6.651 -4.296,10.016 l -45.297,0 c 1.641,-2.902 5.291,-7.872 6.23,-10.016 1.812,-4.123 3.62,-8.253 5.314,-12.462 1.699,-4.209 3.28,-8.507 4.639,-12.973 1.355,-4.465 2.487,-9.101 3.279,-13.995 0.789,-4.894 1.242,-10.035 1.242,-15.528 0,-5.494 -0.453,-10.755 -1.242,-15.849 -0.792,-5.093 -1.924,-10.018 -3.279,-14.826 -1.359,-4.806 -2.94,-9.487 -4.639,-14.122 -1.694,-4.636 -3.502,-9.225 -5.314,-13.804 -1.807,-4.578 -3.615,-9.167 -5.313,-13.803 -1.695,-4.635 -3.276,-9.316 -4.635,-14.122 -1.355,-4.808 -2.487,-9.733 -3.28,-14.826 -0.788,-5.094 -1.241,-10.355 -1.241,-15.849 0,-5.493 0.453,-10.754 1.241,-15.848 0.793,-5.094 1.925,-10.018 3.28,-14.826 1.359,-4.806 2.94,-9.487 4.635,-14.122 1.698,-4.636 3.506,-9.226 5.313,-13.804 1.812,-4.578 3.62,-9.167 5.314,-13.802 1.699,-4.636 3.28,-9.317 4.639,-14.123 1.355,-4.808 2.487,-9.733 3.279,-14.826 0.789,-5.093 1.242,-10.356 1.242,-15.848 0,-5.494 -0.453,-10.756 -1.242,-15.848 -0.792,-5.094 -1.924,-10.02 -3.279,-14.827 -1.359,-4.807 -2.94,-9.486 -4.639,-14.123 -1.694,-4.635 -3.502,-9.225 -5.314,-13.802 -1.807,-4.579 -3.615,-9.168 -5.313,-13.804 -1.695,-4.636 -3.276,-9.316 -4.635,-14.123 -1.355,-4.807 -2.487,-9.733 -3.28,-14.826 -0.788,-5.092 -1.241,-10.354 -1.241,-15.848 0,-5.493 0.453,-10.757 1.241,-15.849 0.793,-5.093 1.925,-10.019 3.28,-14.827 1.359,-4.806 2.94,-9.486 4.635,-14.121 1.698,-4.638 3.506,-9.224 5.313,-13.805 1.812,-4.577 3.62,-9.168 5.314,-13.802 1.699,-4.634 3.28,-9.317 4.639,-14.123 1.355,-4.806 2.487,-9.731 3.279,-14.826 0.789,-5.093 1.242,-10.354 1.242,-15.849 0,-5.492 -0.453,-10.755 -1.242,-15.847 -0.792,-5.093 -1.924,-10.019 -3.279,-14.827 -1.359,-4.806 -2.94,-9.485 -4.639,-14.121 -1.694,-4.637 -3.502,-9.226 -5.314,-13.804 -1.807,-4.578 -3.615,-9.169 -5.313,-13.803 -1.695,-4.634 -3.276,-9.316 -4.635,-14.124 -1.355,-4.807 -2.487,-9.732 -3.28,-14.825 -0.788,-5.093 -1.241,-10.356 -1.241,-15.848 0,-5.494 0.453,-10.755 1.241,-15.848 0.793,-5.093 1.925,-10.02 3.28,-14.827 1.359,-4.805 2.94,-9.487 4.635,-14.121 1.698,-4.637 3.506,-9.226 5.313,-13.805 1.812,-4.578 3.62,-9.167 5.314,-13.802 1.699,-4.635 3.28,-9.316 4.639,-14.124 1.355,-4.806 2.487,-9.731 3.279,-14.824 0.789,-5.095 1.242,-10.354 1.242,-15.85 0,-5.807 -0.368,-11.132 -0.991,-16.081 11.081,-9.276 22.715,-18.309 34.895,-27.13 0.098,0.24 0.203,0.475 0.299,0.715 C -2.939,-8.764 -1.359,-4.465 0,0"/></g><g transform="translate(188.4863,141.3799)" id="g36"><path id="path38" style="fill:none;stroke:#554400;stroke-width:1.29999995;stroke-linecap:butt;stroke-linejoin:miter;stroke-miterlimit:4;stroke-dasharray:none;stroke-opacity:1" d="m 0,0 c 1.355,4.465 2.486,9.101 3.279,13.995 0.789,4.895 1.242,10.036 1.242,15.528 0,5.496 -0.453,10.755 -1.242,15.85 C 2.486,50.466 1.355,55.391 0,60.197 c -1.359,4.808 -2.939,9.489 -4.635,14.124 -1.698,4.635 -3.506,9.224 -5.314,13.802 -1.811,4.579 -3.619,9.168 -5.317,13.805 -1.695,4.634 -3.276,9.316 -4.634,14.121 -1.356,4.807 -2.488,9.734 -3.28,14.827 -0.789,5.093 -1.242,10.354 -1.242,15.848 0,5.492 0.453,10.755 1.242,15.848 0.792,5.093 1.924,10.018 3.28,14.825 1.358,4.808 2.939,9.49 4.634,14.124 1.698,4.634 3.506,9.225 5.317,13.803 1.808,4.579 3.616,9.167 5.314,13.804 1.696,4.636 3.276,9.315 4.635,14.121 1.355,4.808 2.486,9.734 3.279,14.827 0.789,5.092 1.242,10.355 1.242,15.847 0,5.495 -0.453,10.756 -1.242,15.849 -0.793,5.095 -1.924,10.02 -3.279,14.826 -1.359,4.806 -2.939,9.489 -4.635,14.123 -1.698,4.634 -3.506,9.225 -5.314,13.802 -1.811,4.581 -3.619,9.167 -5.317,13.805 -1.695,4.635 -3.276,9.315 -4.634,14.121 -1.356,4.808 -2.488,9.734 -3.28,14.827 -0.789,5.092 -1.242,10.356 -1.242,15.849 0,5.127 0.453,10.125 1.242,15.018 0.792,4.892 1.924,9.703 3.28,14.442 2.713,9.477 6.332,18.714 9.951,28.054 1.808,4.67 3.616,9.368 5.314,14.123 1.696,4.755 3.276,9.584 4.635,14.506 1.355,4.921 2.486,9.914 3.279,15.082 0.789,5.167 1.242,10.482 1.242,15.976 0,5.492 -0.453,10.755 -1.242,15.848 C 2.486,519.267 1.355,524.192 0,529 c -1.359,4.806 -2.939,9.487 -4.635,14.123 -1.698,4.635 -3.506,9.224 -5.314,13.802 -1.811,4.578 -3.619,9.168 -5.317,13.804 -1.695,4.635 -3.276,9.316 -4.634,14.122 -1.356,4.808 -2.488,9.732 -3.28,14.826 -0.789,5.094 -1.242,10.355 -1.242,15.848 0,5.494 0.453,10.755 1.242,15.849 0.792,5.093 1.924,10.018 3.28,14.826 1.358,4.806 2.939,9.487 4.634,14.122 1.698,4.636 3.506,9.225 5.317,13.803 1.808,4.579 3.616,9.168 5.314,13.804 1.696,4.635 3.276,9.316 4.635,14.122 1.355,4.808 2.486,9.733 3.279,14.826 0.789,5.094 1.242,10.355 1.242,15.849 0,5.493 -0.453,10.634 -1.242,15.528 -0.793,4.894 -1.924,9.53 -3.279,13.995 -1.359,4.466 -2.939,8.764 -4.635,12.973 -1.698,4.209 -3.506,8.339 -5.314,12.462 -1.457,3.317 -2.898,6.651 -4.296,10.016 l -45.297,0 c 1.641,-2.902 5.291,-7.872 6.23,-10.016 1.812,-4.123 3.62,-8.253 5.314,-12.462 1.699,-4.209 3.28,-8.507 4.639,-12.973 1.355,-4.465 2.487,-9.101 3.279,-13.995 0.789,-4.894 1.242,-10.035 1.242,-15.528 0,-5.494 -0.453,-10.755 -1.242,-15.849 -0.792,-5.093 -1.924,-10.018 -3.279,-14.826 -1.359,-4.806 -2.94,-9.487 -4.639,-14.122 -1.694,-4.636 -3.502,-9.225 -5.314,-13.804 -1.807,-4.578 -3.615,-9.167 -5.313,-13.803 -1.695,-4.635 -3.276,-9.316 -4.635,-14.122 -1.355,-4.808 -2.487,-9.733 -3.28,-14.826 -0.788,-5.094 -1.241,-10.355 -1.241,-15.849 0,-5.493 0.453,-10.754 1.241,-15.848 0.793,-5.094 1.925,-10.018 3.28,-14.826 1.359,-4.806 2.94,-9.487 4.635,-14.122 1.698,-4.636 3.506,-9.226 5.313,-13.804 1.812,-4.578 3.62,-9.167 5.314,-13.802 1.699,-4.636 3.28,-9.317 4.639,-14.123 1.355,-4.808 2.487,-9.733 3.279,-14.826 0.789,-5.093 1.242,-10.356 1.242,-15.848 0,-5.494 -0.453,-10.756 -1.242,-15.848 -0.792,-5.094 -1.924,-10.02 -3.279,-14.827 -1.359,-4.807 -2.94,-9.486 -4.639,-14.123 -1.694,-4.635 -3.502,-9.225 -5.314,-13.802 -1.807,-4.579 -3.615,-9.168 -5.313,-13.804 -1.695,-4.636 -3.276,-9.316 -4.635,-14.123 -1.355,-4.807 -2.487,-9.733 -3.28,-14.826 -0.788,-5.092 -1.241,-10.354 -1.241,-15.848 0,-5.493 0.453,-10.757 1.241,-15.849 0.793,-5.093 1.925,-10.019 3.28,-14.827 1.359,-4.806 2.94,-9.486 4.635,-14.121 1.698,-4.638 3.506,-9.224 5.313,-13.805 1.812,-4.577 3.62,-9.168 5.314,-13.802 1.699,-4.634 3.28,-9.317 4.639,-14.123 1.355,-4.806 2.487,-9.731 3.279,-14.826 0.789,-5.093 1.242,-10.354 1.242,-15.849 0,-5.492 -0.453,-10.755 -1.242,-15.847 -0.792,-5.093 -1.924,-10.019 -3.279,-14.827 -1.359,-4.806 -2.94,-9.485 -4.639,-14.121 -1.694,-4.637 -3.502,-9.226 -5.314,-13.804 -1.807,-4.578 -3.615,-9.169 -5.313,-13.803 -1.695,-4.634 -3.276,-9.316 -4.635,-14.124 -1.355,-4.807 -2.487,-9.732 -3.28,-14.825 -0.788,-5.093 -1.241,-10.356 -1.241,-15.848 0,-5.494 0.453,-10.755 1.241,-15.848 0.793,-5.093 1.925,-10.02 3.28,-14.827 1.359,-4.805 2.94,-9.487 4.635,-14.121 1.698,-4.637 3.506,-9.226 5.313,-13.805 1.812,-4.578 3.62,-9.167 5.314,-13.802 1.699,-4.635 3.28,-9.316 4.639,-14.124 1.355,-4.806 2.487,-9.731 3.279,-14.824 0.789,-5.095 1.242,-10.354 1.242,-15.85 0,-5.807 -0.368,-11.132 -0.991,-16.081 11.081,-9.276 22.715,-18.309 34.895,-27.13 0.098,0.24 0.203,0.475 0.299,0.715 C -2.939,-8.764 -1.359,-4.465 0,0 Z"/></g><g transform="translate(87.832,229.5029)" id="g40"><path id="path42" style="fill:#1353b4;fill-opacity:1;fill-rule:nonzero;stroke:none" d="m 0,0 c -1.811,4.579 -3.619,9.168 -5.316,13.805 -1.696,4.633 -3.277,9.316 -4.635,14.121 -1.356,4.807 -2.487,9.734 -3.279,14.827 -0.79,5.093 -1.243,10.354 -1.243,15.848 0,5.492 0.453,10.754 1.243,15.848 0.792,5.093 1.923,10.018 3.279,14.825 1.358,4.808 2.939,9.49 4.635,14.123 1.697,4.635 3.505,9.226 5.316,13.804 1.809,4.579 3.616,9.167 5.314,13.804 1.696,4.636 3.276,9.315 4.635,14.121 1.356,4.808 2.487,9.734 3.28,14.827 0.789,5.092 1.242,10.355 1.242,15.847 0,5.495 -0.453,10.756 -1.242,15.849 -0.793,5.095 -1.924,10.02 -3.28,14.826 -1.359,4.806 -2.939,9.489 -4.635,14.123 -1.698,4.634 -3.505,9.225 -5.314,13.802 -1.811,4.58 -3.619,9.167 -5.316,13.805 -1.696,4.635 -3.277,9.315 -4.635,14.121 -1.356,4.808 -2.487,9.734 -3.279,14.827 -0.79,5.092 -1.243,10.356 -1.243,15.849 0,5.127 0.453,10.124 1.243,15.018 0.792,4.892 1.923,9.703 3.279,14.442 2.713,9.476 6.332,18.714 9.951,28.054 1.809,4.67 3.616,9.368 5.314,14.123 1.696,4.755 3.276,9.584 4.635,14.506 1.356,4.921 2.487,9.914 3.28,15.082 0.789,5.167 1.242,10.482 1.242,15.976 0,5.492 -0.453,10.755 -1.242,15.848 -0.793,5.093 -1.924,10.018 -3.28,14.826 C 8.59,445.683 7.01,450.364 5.314,455 3.616,459.635 1.809,464.224 0,468.802 c -1.811,4.578 -3.619,9.168 -5.316,13.804 -1.696,4.635 -3.277,9.316 -4.635,14.122 -1.356,4.808 -2.487,9.732 -3.279,14.826 -0.79,5.093 -1.243,10.355 -1.243,15.848 0,5.494 0.453,10.755 1.243,15.848 0.792,5.094 1.923,10.019 3.279,14.827 1.358,4.806 2.939,9.486 4.635,14.122 1.697,4.635 3.505,9.225 5.316,13.803 1.809,4.579 3.616,9.168 5.314,13.804 1.696,4.635 3.276,9.316 4.635,14.122 1.356,4.808 2.487,9.733 3.28,14.826 0.789,5.094 1.242,10.355 1.242,15.849 0,5.493 -0.453,10.634 -1.242,15.528 -0.793,4.894 -1.924,9.53 -3.28,13.995 -1.359,4.466 -2.939,8.764 -4.635,12.973 -1.698,4.209 -3.505,8.338 -5.314,12.462 -1.457,3.317 -2.898,6.651 -4.295,10.016 l -45.298,0 c 1.641,-2.902 5.291,-7.872 6.231,-10.016 1.811,-4.124 3.619,-8.253 5.314,-12.462 1.698,-4.209 3.279,-8.507 4.638,-12.973 1.355,-4.465 2.487,-9.101 3.28,-13.995 0.789,-4.894 1.241,-10.035 1.241,-15.528 0,-5.494 -0.452,-10.755 -1.241,-15.849 -0.793,-5.093 -1.925,-10.018 -3.28,-14.826 -1.359,-4.806 -2.94,-9.487 -4.638,-14.122 -1.695,-4.636 -3.503,-9.225 -5.314,-13.804 -1.808,-4.578 -3.616,-9.168 -5.314,-13.803 -1.695,-4.636 -3.276,-9.316 -4.635,-14.122 -1.355,-4.808 -2.487,-9.733 -3.279,-14.827 -0.789,-5.093 -1.242,-10.354 -1.242,-15.848 0,-5.493 0.453,-10.755 1.242,-15.848 0.792,-5.094 1.924,-10.018 3.279,-14.826 1.359,-4.806 2.94,-9.487 4.635,-14.122 1.698,-4.636 3.506,-9.226 5.314,-13.804 1.811,-4.578 3.619,-9.167 5.314,-13.802 1.698,-4.636 3.279,-9.317 4.638,-14.123 1.355,-4.808 2.487,-9.733 3.28,-14.826 0.789,-5.093 1.241,-10.356 1.241,-15.848 0,-5.494 -0.452,-10.756 -1.241,-15.849 -0.793,-5.093 -1.925,-10.019 -3.28,-14.826 -1.359,-4.807 -2.94,-9.486 -4.638,-14.123 -1.695,-4.635 -3.503,-9.225 -5.314,-13.802 -1.808,-4.579 -3.616,-9.168 -5.314,-13.804 -1.695,-4.636 -3.276,-9.316 -4.635,-14.123 -1.355,-4.807 -2.487,-9.733 -3.279,-14.826 -0.789,-5.092 -1.242,-10.354 -1.242,-15.848 0,-5.493 0.453,-10.757 1.242,-15.849 0.792,-5.093 1.924,-10.019 3.279,-14.827 1.359,-4.806 2.94,-9.486 4.635,-14.121 1.698,-4.638 3.506,-9.225 5.314,-13.805 1.811,-4.577 3.619,-9.168 5.314,-13.802 1.698,-4.634 3.279,-9.317 4.638,-14.123 1.355,-4.806 2.487,-9.731 3.28,-14.826 0.789,-5.093 1.241,-10.354 1.241,-15.849 0,-5.492 -0.452,-10.755 -1.241,-15.847 -0.793,-5.093 -1.925,-10.019 -3.28,-14.827 -1.359,-4.806 -2.94,-9.485 -4.638,-14.121 -1.695,-4.637 -3.503,-9.226 -5.314,-13.804 -1.808,-4.578 -3.616,-9.169 -5.314,-13.804 -1.695,-4.633 -3.276,-9.315 -4.635,-14.123 -0.574,-2.038 -1.098,-4.103 -1.584,-6.188 9.353,-28.149 22.136,-54.085 39.677,-77.979 7.537,-10.266 15.623,-20.22 24.24,-29.896 -1.133,3.715 -2.383,7.366 -3.708,10.987 C 3.616,-9.167 1.809,-4.578 0,0"/></g><g transform="translate(87.832,229.5029)" id="g44"><path id="path46" style="fill:none;stroke:#554400;stroke-width:1.29999995;stroke-linecap:butt;stroke-linejoin:miter;stroke-miterlimit:4;stroke-dasharray:none;stroke-opacity:1" d="m 0,0 c -1.811,4.579 -3.619,9.168 -5.316,13.805 -1.696,4.633 -3.277,9.316 -4.635,14.121 -1.356,4.807 -2.487,9.734 -3.279,14.827 -0.79,5.093 -1.243,10.354 -1.243,15.848 0,5.492 0.453,10.754 1.243,15.848 0.792,5.093 1.923,10.018 3.279,14.825 1.358,4.808 2.939,9.49 4.635,14.123 1.697,4.635 3.505,9.226 5.316,13.804 1.809,4.579 3.616,9.167 5.314,13.804 1.696,4.636 3.276,9.315 4.635,14.121 1.356,4.808 2.487,9.734 3.28,14.827 0.789,5.092 1.242,10.355 1.242,15.847 0,5.495 -0.453,10.756 -1.242,15.849 -0.793,5.095 -1.924,10.02 -3.28,14.826 -1.359,4.806 -2.939,9.489 -4.635,14.123 -1.698,4.634 -3.505,9.225 -5.314,13.802 -1.811,4.58 -3.619,9.167 -5.316,13.805 -1.696,4.635 -3.277,9.315 -4.635,14.121 -1.356,4.808 -2.487,9.734 -3.279,14.827 -0.79,5.092 -1.243,10.356 -1.243,15.849 0,5.127 0.453,10.124 1.243,15.018 0.792,4.892 1.923,9.703 3.279,14.442 2.713,9.476 6.332,18.714 9.951,28.054 1.809,4.67 3.616,9.368 5.314,14.123 1.696,4.755 3.276,9.584 4.635,14.506 1.356,4.921 2.487,9.914 3.28,15.082 0.789,5.167 1.242,10.482 1.242,15.976 0,5.492 -0.453,10.755 -1.242,15.848 -0.793,5.093 -1.924,10.018 -3.28,14.826 C 8.59,445.683 7.01,450.364 5.314,455 3.616,459.635 1.809,464.224 0,468.802 c -1.811,4.578 -3.619,9.168 -5.316,13.804 -1.696,4.635 -3.277,9.316 -4.635,14.122 -1.356,4.808 -2.487,9.732 -3.279,14.826 -0.79,5.093 -1.243,10.355 -1.243,15.848 0,5.494 0.453,10.755 1.243,15.848 0.792,5.094 1.923,10.019 3.279,14.827 1.358,4.806 2.939,9.486 4.635,14.122 1.697,4.635 3.505,9.225 5.316,13.803 1.809,4.579 3.616,9.168 5.314,13.804 1.696,4.635 3.276,9.316 4.635,14.122 1.356,4.808 2.487,9.733 3.28,14.826 0.789,5.094 1.242,10.355 1.242,15.849 0,5.493 -0.453,10.634 -1.242,15.528 -0.793,4.894 -1.924,9.53 -3.28,13.995 -1.359,4.466 -2.939,8.764 -4.635,12.973 -1.698,4.209 -3.505,8.338 -5.314,12.462 -1.457,3.317 -2.898,6.651 -4.295,10.016 l -45.298,0 c 1.641,-2.902 5.291,-7.872 6.231,-10.016 1.811,-4.124 3.619,-8.253 5.314,-12.462 1.698,-4.209 3.279,-8.507 4.638,-12.973 1.355,-4.465 2.487,-9.101 3.28,-13.995 0.789,-4.894 1.241,-10.035 1.241,-15.528 0,-5.494 -0.452,-10.755 -1.241,-15.849 -0.793,-5.093 -1.925,-10.018 -3.28,-14.826 -1.359,-4.806 -2.94,-9.487 -4.638,-14.122 -1.695,-4.636 -3.503,-9.225 -5.314,-13.804 -1.808,-4.578 -3.616,-9.168 -5.314,-13.803 -1.695,-4.636 -3.276,-9.316 -4.635,-14.122 -1.355,-4.808 -2.487,-9.733 -3.279,-14.827 -0.789,-5.093 -1.242,-10.354 -1.242,-15.848 0,-5.493 0.453,-10.755 1.242,-15.848 0.792,-5.094 1.924,-10.018 3.279,-14.826 1.359,-4.806 2.94,-9.487 4.635,-14.122 1.698,-4.636 3.506,-9.226 5.314,-13.804 1.811,-4.578 3.619,-9.167 5.314,-13.802 1.698,-4.636 3.279,-9.317 4.638,-14.123 1.355,-4.808 2.487,-9.733 3.28,-14.826 0.789,-5.093 1.241,-10.356 1.241,-15.848 0,-5.494 -0.452,-10.756 -1.241,-15.849 -0.793,-5.093 -1.925,-10.019 -3.28,-14.826 -1.359,-4.807 -2.94,-9.486 -4.638,-14.123 -1.695,-4.635 -3.503,-9.225 -5.314,-13.802 -1.808,-4.579 -3.616,-9.168 -5.314,-13.804 -1.695,-4.636 -3.276,-9.316 -4.635,-14.123 -1.355,-4.807 -2.487,-9.733 -3.279,-14.826 -0.789,-5.092 -1.242,-10.354 -1.242,-15.848 0,-5.493 0.453,-10.757 1.242,-15.849 0.792,-5.093 1.924,-10.019 3.279,-14.827 1.359,-4.806 2.94,-9.486 4.635,-14.121 1.698,-4.638 3.506,-9.225 5.314,-13.805 1.811,-4.577 3.619,-9.168 5.314,-13.802 1.698,-4.634 3.279,-9.317 4.638,-14.123 1.355,-4.806 2.487,-9.731 3.28,-14.826 0.789,-5.093 1.241,-10.354 1.241,-15.849 0,-5.492 -0.452,-10.755 -1.241,-15.847 -0.793,-5.093 -1.925,-10.019 -3.28,-14.827 -1.359,-4.806 -2.94,-9.485 -4.638,-14.121 -1.695,-4.637 -3.503,-9.226 -5.314,-13.804 -1.808,-4.578 -3.616,-9.169 -5.314,-13.804 -1.695,-4.633 -3.276,-9.315 -4.635,-14.123 -0.574,-2.038 -1.098,-4.103 -1.584,-6.188 9.353,-28.149 22.136,-54.085 39.677,-77.979 7.537,-10.266 15.623,-20.22 24.24,-29.896 -1.133,3.715 -2.383,7.366 -3.708,10.987 C 3.616,-9.167 1.809,-4.578 0,0 Z"/></g><g transform="translate(6.4351,540.5596)" id="g48"><path id="path50" style="fill:none;stroke:#554400;stroke-width:3;stroke-linecap:butt;stroke-linejoin:miter;stroke-miterlimit:4;stroke-dasharray:none;stroke-opacity:1" d="m 0,0 c 1.726,-127.979 8.295,-227.85 65.63,-305.949 69.066,-94.07 184.12,-161.96 332.13,-228.651 148.01,66.696 263.069,134.58 332.13,228.651 57.334,78.092 63.719,177.96 65.629,305.948 1.983,132.832 2.107,265.69 0,398.522 l -795.53,0 C -2.4,265.69 -1.798,132.84 -0.007,0 L 0,0 Z"/></g><g transform="translate(399.248,438.625)" id="g52"><path id="path54" style="fill:#cd0707;fill-opacity:1;fill-rule:nonzero;stroke:none" d="m 0,0 9.683,-19.882 c 0,0 15.538,1.644 23.189,3.681 10.463,2.785 26.724,11.255 26.724,11.255 7.34,3.491 -9.031,13.752 -14.763,19.242 -4.42,4.238 -7.429,9.721 -7.429,9.721 -4.369,6.218 10.987,15.769 22.088,22.193 14.223,8.228 30.692,16.045 45.59,18.419 25.381,4.044 85.618,10.373 85.618,10.373 L 196.796,55.44 182.877,26.803 162.063,14.125 c 3.972,-4.015 -30.175,-1.691 -56.417,-0.931 -8.405,0.243 1.576,-21.672 1.576,-21.672 0,0 6.539,-4.33 9.032,-7.735 2.494,-3.406 3.884,-7.326 1.838,-10.883 -2.047,-3.556 -8.031,-5.247 -12.995,-6.114 -4.964,-0.868 -11.859,1.813 -11.859,1.813 2.172,-3.215 4.1,-6.495 3.638,-9.964 -0.817,-6.142 -15.206,-13.576 -15.206,-13.576 0,0 2.794,6.042 1.822,8.952 -1.164,3.477 -5.458,7.655 -5.458,7.655 0,0 -0.528,-5.032 -1.653,-7.478 -3.119,-6.77 -19.814,-13.44 -19.814,-13.44 0,0 3.668,6.938 3.621,10.636 -0.046,3.642 -4.521,7.047 -4.521,7.047 0,0 -1.462,-5.792 -4.678,-9.317 -3.865,-4.236 -15.578,-8.902 -15.578,-8.902 0,0 2.493,5.703 2.695,8.702 0.197,2.871 -1.439,8.533 -1.439,8.533 0,0 -6.702,-9.432 -10.781,-12.643 -4.945,-3.896 -15.531,-6.716 -15.531,-6.716 0,0 6.32,9.752 4.245,14.346 -1.998,4.426 -15.773,7.06 -15.773,7.06 0,0 -14.72,-6.133 -24.155,-7.46 -4.678,-0.656 -10.855,-1.218 -14.057,1.829 -4.379,4.166 -4.937,7.822 -2.629,13.104 1.156,2.641 8.888,6.588 8.888,6.588 0,0 -5.849,2.926 -7.485,4.853 -2.95,3.469 -2.855,7.645 -0.698,11.532 2.271,4.092 6.767,5.52 11.982,5.535 3.848,0.009 10.279,-4.13 10.279,-4.13 0,0 1.699,10.876 6.582,12.832 C -7.753,6.067 0,0 0,0"/></g><g transform="translate(399.248,438.625)" id="g56"><path id="path58" style="fill:none;stroke:#800000;stroke-width:1.32200003;stroke-linecap:butt;stroke-linejoin:miter;stroke-miterlimit:4;stroke-dasharray:none;stroke-opacity:1" d="m 0,0 9.683,-19.882 c 0,0 15.538,1.644 23.189,3.681 10.463,2.785 26.724,11.255 26.724,11.255 7.34,3.491 -9.031,13.752 -14.763,19.242 -4.42,4.238 -7.429,9.721 -7.429,9.721 -4.369,6.218 10.987,15.769 22.088,22.193 14.223,8.228 30.692,16.045 45.59,18.419 25.381,4.044 85.618,10.373 85.618,10.373 L 196.796,55.44 182.877,26.803 162.063,14.125 c 3.972,-4.015 -30.175,-1.691 -56.417,-0.931 -8.405,0.243 1.576,-21.672 1.576,-21.672 0,0 6.539,-4.33 9.032,-7.735 2.494,-3.406 3.884,-7.326 1.838,-10.883 -2.047,-3.556 -8.031,-5.247 -12.995,-6.114 -4.964,-0.868 -11.859,1.813 -11.859,1.813 2.172,-3.215 4.1,-6.495 3.638,-9.964 -0.817,-6.142 -15.206,-13.576 -15.206,-13.576 0,0 2.794,6.042 1.822,8.952 -1.164,3.477 -5.458,7.655 -5.458,7.655 0,0 -0.528,-5.032 -1.653,-7.478 -3.119,-6.77 -19.814,-13.44 -19.814,-13.44 0,0 3.668,6.938 3.621,10.636 -0.046,3.642 -4.521,7.047 -4.521,7.047 0,0 -1.462,-5.792 -4.678,-9.317 -3.865,-4.236 -15.578,-8.902 -15.578,-8.902 0,0 2.493,5.703 2.695,8.702 0.197,2.871 -1.439,8.533 -1.439,8.533 0,0 -6.702,-9.432 -10.781,-12.643 -4.945,-3.896 -15.531,-6.716 -15.531,-6.716 0,0 6.32,9.752 4.245,14.346 -1.998,4.426 -15.773,7.06 -15.773,7.06 0,0 -14.72,-6.133 -24.155,-7.46 -4.678,-0.656 -10.855,-1.218 -14.057,1.829 -4.379,4.166 -4.937,7.822 -2.629,13.104 1.156,2.641 8.888,6.588 8.888,6.588 0,0 -5.849,2.926 -7.485,4.853 -2.95,3.469 -2.855,7.645 -0.698,11.532 2.271,4.092 6.767,5.52 11.982,5.535 3.848,0.009 10.279,-4.13 10.279,-4.13 0,0 1.699,10.876 6.582,12.832 C -7.753,6.067 0,0 0,0 Z"/></g><g transform="translate(558.7256,462.3613)" id="g60"><path id="path62" style="fill:#e94545;fill-opacity:1;fill-rule:nonzero;stroke:none" d="m 0,0 -5.739,12.79 c -1.892,4.219 8.056,7.386 7.539,11.891 -0.555,4.832 -3.57,9.697 -8.536,11.894 -6.472,2.862 -34.652,-2.499 -41.832,-3.409 C -59.525,31.761 -69.897,27.503 -79.656,22.934 -90.2,17.999 -108.784,4.631 -108.784,4.631 c 0,0 1.377,-5.794 3.12,-8.266 6.072,-8.614 18.572,-12.174 18.268,-22.282 -0.186,-6.184 -4.92,-8.652 -9.498,-11.624 -9.78,-6.352 -19.639,-8.674 -31.585,-10.814 -8.884,-1.594 -24.286,-1.037 -24.286,-1.037 0,0 -5.513,14.729 -11.203,20.412 -1.252,1.251 -3.037,3.421 -4.773,2.739 -4.572,-1.803 -2.1,-12.998 -2.1,-12.998 0,0 -9.959,4.262 -15.34,4.394 -3.703,0.091 -6.631,0.742 -8.22,-2.178 -0.881,-1.623 -1.413,-3.949 0.026,-5.236 3.343,-2.993 15.539,-8.114 15.539,-8.114 0,0 -12.802,-4.19 -15.276,-8.7 -1.308,-2.38 -2.879,-4.679 -0.632,-6.446 2,-1.568 6.083,-1.233 8.716,-0.752 9.212,1.683 26.512,8.268 26.512,8.268 l 21.237,-6.259 1.362,-8.061 15.36,15.822 6.741,-14.483 7.142,13.645 14.65,-10.475 7.439,14.432 13.685,-9.848 -2.598,15.389 c 0,0 11.354,-2.278 17.132,-2.294 2.124,-0.007 5.037,-0.678 6.303,0.808 1.437,1.684 -0.004,4.341 -1.05,6.229 -1.726,3.115 -8.149,7.566 -8.149,7.566 0,0 -7.536,13.298 -6.403,20.141 0.683,4.135 1.728,9.414 6.437,10.188 C -48.159,-3.225 1.626,-9.222 0,0"/></g><g transform="translate(515.5596,491.5312)" id="g64"><path id="path66" style="fill:#ee6c6c;fill-opacity:1;fill-rule:nonzero;stroke:none" d="m 0,0 c 0,0 -18.153,-3.077 -26.345,-6.467 -12.527,-5.182 -32.712,-21.174 -32.712,-21.174 l 16.628,-19.857 -6.842,19.57 c 0,0 15.12,7.336 21.985,11.31 C -17.009,-10.671 0,0 0,0"/></g><g transform="translate(358.5713,431.9609)" id="g68"><path id="path70" style="fill:#cd0707;fill-opacity:1;fill-rule:nonzero;stroke:none" d="m 0,0 c 4.763,-0.976 7.25,-3.922 6.968,-7.949 -0.141,-2.002 -1.606,-3.786 -5,-4.889 -6.901,4.005 -9.997,4.669 -18.172,2.755 C -8.759,-0.005 -2.976,-1.862 0,0"/></g><g transform="translate(358.5713,431.9609)" id="g72"><path id="path74" style="fill:none;stroke:#800000;stroke-width:1.32200003;stroke-linecap:butt;stroke-linejoin:miter;stroke-miterlimit:4;stroke-dasharray:none;stroke-opacity:1" d="m 0,0 c 4.763,-0.976 7.25,-3.922 6.968,-7.949 -0.141,-2.002 -1.606,-3.786 -5,-4.889 -6.901,4.005 -9.997,4.669 -18.172,2.755 C -8.759,-0.005 -2.976,-1.862 0,0 Z"/></g><g transform="translate(357.8174,401.4365)" id="g76"><path id="path78" style="fill:#cd0707;fill-opacity:1;fill-rule:nonzero;stroke:none" d="M 0,0 C 4.741,1.055 8.507,-0.553 10.393,-4.239 11.33,-6.071 10.978,-8.244 8.552,-10.589 0.31,-9.82 -2.787,-10.479 -9.021,-15.473 -7.765,-3.535 -1.651,-2.851 0,0"/></g><g transform="translate(357.8174,401.4365)" id="g80"><path id="path82" style="fill:none;stroke:#800000;stroke-width:1.32200003;stroke-linecap:butt;stroke-linejoin:miter;stroke-miterlimit:4;stroke-dasharray:none;stroke-opacity:1" d="M 0,0 C 4.741,1.055 8.507,-0.553 10.393,-4.239 11.33,-6.071 10.978,-8.244 8.552,-10.589 0.31,-9.82 -2.787,-10.479 -9.021,-15.473 -7.765,-3.535 -1.651,-2.851 0,0 Z"/></g><g transform="translate(391.5537,445.2959)" id="g84"><path id="path86" style="fill:#cd0707;fill-opacity:1;fill-rule:nonzero;stroke:none" d="M 0,0 C 2.853,-3.467 2.505,-7.111 -0.747,-9.983 -2.362,-11.41 -4.813,-11.915 -8.2,-10.8 -10.378,-3.824 -12.208,-1.55 -19.812,1.697 -6.602,5.02 -3.646,0.304 0,0"/></g><g transform="translate(391.5537,445.2959)" id="g88"><path id="path90" style="fill:none;stroke:#800000;stroke-width:1.32200003;stroke-linecap:butt;stroke-linejoin:miter;stroke-miterlimit:4;stroke-dasharray:none;stroke-opacity:1" d="M 0,0 C 2.853,-3.467 2.505,-7.111 -0.747,-9.983 -2.362,-11.41 -4.813,-11.915 -8.2,-10.8 -10.378,-3.824 -12.208,-1.55 -19.812,1.697 -6.602,5.02 -3.646,0.304 0,0 Z"/></g><g transform="translate(513.9805,583.5093)" id="g92"><path id="path94" style="fill:#cd0707;fill-opacity:1;fill-rule:nonzero;stroke:none" d="m 0,0 c 0,0 -11.492,2.296 -15.555,5.743 -4.417,3.749 -7.687,14.629 -7.687,14.629 0,0 -13.105,0.481 -18.684,2.802 -5.828,2.425 -13.143,10.721 -13.143,10.721 6.003,-0.304 10.532,-0.305 17.098,2.945 0,0 -11.113,2.722 -17.011,6.289 -5.137,3.107 -12.79,11.6 -12.79,11.6 5.456,0.226 11.04,-1.004 16.155,3.03 0,0 -11.021,2.018 -15.636,4.706 -4.609,2.681 -11.094,10.844 -11.094,10.844 6.152,-0.663 12.13,-0.702 17.005,3.19 0,0 -11.219,1.78 -15.565,4.447 -6.001,3.683 -14.247,13.699 -14.247,13.699 6.366,-0.757 12.715,-1.442 18.176,1.025 l -2.077,7.475 c -2.508,9.023 -12.04,7.84 -17.481,11.24 -5.345,3.339 -7.317,10.022 -6.911,13.477 0.717,6.095 5.888,14.623 19.714,9.98 -4.897,11.598 4.039,17.538 12.197,19.037 7.836,1.441 14.06,-0.558 16.583,-12.709 0,0 7.684,3.803 11.422,3.866 5.202,0.09 10.479,-2.556 11.306,-7.322 0.34,-1.959 -0.205,-5.816 -1.909,-7.853 -2.695,-3.223 -7.472,-4.868 -9.981,-9.858 -2.84,-5.649 0.737,-17.144 0.737,-17.144 0,0 22.97,-25.83 33.154,-39.515 C -0.806,59.061 8.589,43.75 8.589,43.75 L 9.34,43.99 36.454,38.783 29.621,-5.121 0,0 Z"/></g><g transform="translate(513.9805,583.5093)" id="g96"><path id="path98" style="fill:none;stroke:#800000;stroke-width:1.32200003;stroke-linecap:butt;stroke-linejoin:miter;stroke-miterlimit:4;stroke-dasharray:none;stroke-opacity:1" d="m 0,0 c 0,0 -11.492,2.296 -15.555,5.743 -4.417,3.749 -7.687,14.629 -7.687,14.629 0,0 -13.105,0.481 -18.684,2.802 -5.828,2.425 -13.143,10.721 -13.143,10.721 6.003,-0.304 10.532,-0.305 17.098,2.945 0,0 -11.113,2.722 -17.011,6.289 -5.137,3.107 -12.79,11.6 -12.79,11.6 5.456,0.226 11.04,-1.004 16.155,3.03 0,0 -11.021,2.018 -15.636,4.706 -4.609,2.681 -11.094,10.844 -11.094,10.844 6.152,-0.663 12.13,-0.702 17.005,3.19 0,0 -11.219,1.78 -15.565,4.447 -6.001,3.683 -14.247,13.699 -14.247,13.699 6.366,-0.757 12.715,-1.442 18.176,1.025 l -2.077,7.475 c -2.508,9.023 -12.04,7.84 -17.481,11.24 -5.345,3.339 -7.317,10.022 -6.911,13.477 0.717,6.095 5.888,14.623 19.714,9.98 -4.897,11.598 4.039,17.538 12.197,19.037 7.836,1.441 14.06,-0.558 16.583,-12.709 0,0 7.684,3.803 11.422,3.866 5.202,0.09 10.479,-2.556 11.306,-7.322 0.34,-1.959 -0.205,-5.816 -1.909,-7.853 -2.695,-3.223 -7.472,-4.868 -9.981,-9.858 -2.84,-5.649 0.737,-17.144 0.737,-17.144 0,0 22.97,-25.83 33.154,-39.515 C -0.806,59.061 8.589,43.75 8.589,43.75 L 9.34,43.99 36.454,38.783 29.621,-5.121 0,0 Z"/></g><g transform="translate(495.3379,609.5776)" id="g100"><path id="path102" style="fill:#e94545;fill-opacity:1;fill-rule:nonzero;stroke:none" d="m 0,0 c 0,0 5.495,-11.708 9.38,-14.484 3.719,-2.657 11.976,-2.3 11.976,-2.3 l -1.443,5.773 -3.42,0.657 C 9.734,1.546 4.66,14.982 9.991,28.094 c 0,0 -7.865,12.623 -12.879,18.959 -6.593,8.331 -24.841,27.598 -24.841,27.598 0,0 -2.504,12.26 -1.494,20.155 0.448,3.495 1.978,6.998 4.301,9.742 2.388,2.816 7.666,2.993 9.344,6.237 0.528,1.023 0.411,2.413 -0.163,3.413 -0.686,1.194 -2.085,2.174 -3.504,2.364 -5.359,0.722 -15.33,-5.087 -15.33,-5.087 0,0 -3.34,9.959 -7.502,12.854 -1.76,1.224 -4.274,1.63 -6.414,1.232 -2.02,-0.374 -4.173,-1.518 -5.144,-3.239 -3.083,-5.469 0.044,-18.609 0.044,-18.609 0,0 -11.714,5.352 -17.109,3.287 -2.056,-0.788 -3.521,-3.104 -3.779,-5.193 -0.28,-2.284 0.991,-4.742 2.639,-6.425 4.492,-4.588 17.866,-8.082 17.866,-8.082 l 11.502,-23.344 -17.633,-1.264 c 5.655,-4.504 10.395,-6.575 27.705,-9.97 -5.028,-6.365 -10.716,-7.783 -15.941,-10.043 l 28.22,-9.646 c -4.003,-6.426 -11.74,-5.605 -15.937,-7.931 6.363,-6.058 17.637,-9.898 29.151,-13.631 C -9.711,6.113 -17.563,6.137 -23.953,4.6 -20.056,2.114 -12.34,1.854 0,0"/></g><g transform="translate(501.3906,628.1582)" id="g104"><path id="path106" style="fill:#ee6c6c;fill-opacity:1;fill-rule:nonzero;stroke:none" d="M 0,0 C -7.414,27.678 -26.679,45.61 -47.515,63.627 -34.241,35.606 -16.646,16.574 0,0"/></g><g transform="translate(483.4395,728.3926)" id="g108"><path id="path110" style="fill:#cd0707;fill-opacity:1;fill-rule:nonzero;stroke:none" d="m 0,0 c 0.039,-4.475 -2.531,-7.206 -6.879,-7.603 -2.16,-0.196 -4.388,0.842 -6.325,3.738 2.698,6.902 2.703,9.815 -1.177,16.912 C -1.983,7.936 -2.653,2.394 0,0"/></g><g transform="translate(483.4395,728.3926)" id="g112"><path id="path114" style="fill:none;stroke:#800000;stroke-width:1.32200003;stroke-linecap:butt;stroke-linejoin:miter;stroke-miterlimit:4;stroke-dasharray:none;stroke-opacity:1" d="m 0,0 c 0.039,-4.475 -2.531,-7.206 -6.879,-7.603 -2.16,-0.196 -4.388,0.842 -6.325,3.738 2.698,6.902 2.703,9.815 -1.177,16.912 C -1.983,7.936 -2.653,2.394 0,0 Z"/></g><g transform="translate(448.0293,738.6548)" id="g116"><path id="path118" style="fill:#cd0707;fill-opacity:1;fill-rule:nonzero;stroke:none" d="m 0,0 c 1.987,-4.058 0.84,-7.555 -2.942,-9.625 -1.882,-1.029 -4.363,-0.96 -7.389,0.914 -0.555,7.344 -1.821,9.997 -8.45,14.931 C -5.267,6.443 -3.459,1.135 0,0"/></g><g transform="translate(448.0293,738.6548)" id="g120"><path id="path122" style="fill:none;stroke:#800000;stroke-width:1.32200003;stroke-linecap:butt;stroke-linejoin:miter;stroke-miterlimit:4;stroke-dasharray:none;stroke-opacity:1" d="m 0,0 c 1.987,-4.058 0.84,-7.555 -2.942,-9.625 -1.882,-1.029 -4.363,-0.96 -7.389,0.914 -0.555,7.344 -1.821,9.997 -8.45,14.931 C -5.267,6.443 -3.459,1.135 0,0 Z"/></g><g transform="translate(422.3389,718.2993)" id="g124"><path id="path126" style="fill:#cd0707;fill-opacity:1;fill-rule:nonzero;stroke:none" d="m 0,0 c 3.587,-2.902 4.079,-6.535 1.55,-9.913 -1.256,-1.679 -3.542,-2.6 -7.118,-2.095 -3.728,6.457 -6.042,8.367 -14.234,10.227 C -7.618,3.771 -3.644,-0.336 0,0"/></g><g transform="translate(422.3389,718.2993)" id="g128"><path id="path130" style="fill:none;stroke:#800000;stroke-width:1.32200003;stroke-linecap:butt;stroke-linejoin:miter;stroke-miterlimit:4;stroke-dasharray:none;stroke-opacity:1" d="m 0,0 c 3.587,-2.902 4.079,-6.535 1.55,-9.913 -1.256,-1.679 -3.542,-2.6 -7.118,-2.095 -3.728,6.457 -6.042,8.367 -14.234,10.227 C -7.618,3.771 -3.644,-0.336 0,0 Z"/></g><g transform="translate(601.2393,473.252)" id="g132"><path id="path134" style="fill:#e94545;fill-opacity:1;fill-rule:nonzero;stroke:none" d="m 0,0 c 0,0 -13.88,-7.06 -22.749,-3.737 -3.819,1.431 -7.42,4.513 -8.404,8.035 -0.954,3.41 0.814,7.295 3.117,10.175 1.473,1.844 12.454,7.688 12.454,7.688 0,0 -2.963,8.697 -6.507,13.721 -5.219,7.398 -30.644,15.045 -30.644,15.045 10.347,2.829 22.404,3.178 34.604,0.657 L 2.512,29.62 0,0 Z"/></g><g transform="translate(601.2393,473.252)" id="g136"><path id="path138" style="fill:none;stroke:#800000;stroke-width:1.32200003;stroke-linecap:butt;stroke-linejoin:miter;stroke-miterlimit:4;stroke-dasharray:none;stroke-opacity:1" d="m 0,0 c 0,0 -13.88,-7.06 -22.749,-3.737 -3.819,1.431 -7.42,4.513 -8.404,8.035 -0.954,3.41 0.814,7.295 3.117,10.175 1.473,1.844 12.454,7.688 12.454,7.688 0,0 -2.963,8.697 -6.507,13.721 -5.219,7.398 -30.644,15.045 -30.644,15.045 10.347,2.829 22.404,3.178 34.604,0.657 L 2.512,29.62 0,0 Z"/></g><g transform="translate(602.7666,328.873)" id="g140"><path id="path142" style="fill:#cd0707;fill-opacity:1;fill-rule:nonzero;stroke:none" d="m 0,0 c 0,0 4.479,0.944 6.266,0 4.572,-2.42 11.959,-8.441 11.959,-8.441 0,0 1.811,7.413 -0.213,13.313 -1.199,3.492 -8.009,8.35 -8.009,8.35 0,0 8.773,2.021 12.778,-0.497 3.945,-2.484 8.899,-11.111 8.899,-11.111 0,0 1.872,9.475 0.569,15.393 -0.996,4.519 -9.682,10.925 -9.682,10.925 0,0 7.158,1.261 10.25,0 5.371,-2.196 11.391,-11.918 11.391,-11.918 0,0 4.521,12.771 1.14,19.862 -1.561,3.27 -9.682,6.455 -9.682,6.455 0,0 11.19,2.578 15.376,0 5.102,-3.142 7.404,-10.924 7.404,-10.924 0,0 5.279,9.498 3.416,16.387 -1.148,4.252 -9.111,10.427 -9.111,10.427 0,0 6.137,4.453 7.974,7.448 1.562,2.549 3.599,5.791 2.277,8.441 -1.364,2.733 -5.524,3.992 -8.906,4.437 C 50.015,79.084 42.01,76.2 42.01,76.2 l -4.963,3.784 c -8.736,6.664 -13.511,17.47 -14.848,28.291 -1.385,11.205 9.009,32.216 9.009,32.216 0,0 4.836,-13.719 12.297,-21.311 5.219,-5.314 12.74,-9.41 20.586,-10.878 10.035,-1.88 15.137,-2.355 24.328,1.632 8.295,3.596 17.246,9.536 19.338,17.403 8.226,30.945 -2.418,81.046 -1.872,77.235 0,0 5.746,6.415 7.486,10.877 2.077,5.331 3.742,18.494 3.742,18.494 1.367,4.466 5.765,8.447 10.606,10.333 3.038,1.184 6.89,1.074 9.98,0 5.057,-1.755 11.853,-9.789 11.853,-9.789 0,0 -0.541,11.515 -4.366,15.772 -3.902,4.34 -10.532,7.262 -16.844,7.615 -9.673,0.542 -19.206,-2.72 -19.206,-2.72 0,0 10.516,9.917 15.439,19.72 3.896,7.757 4.506,22.347 4.506,22.347 0,10.571 -5.826,22.477 -14.027,30.846 -10.397,10.608 -28.603,17.81 -28.603,17.81 0,0 6.615,-9.389 10.913,-18.717 2.976,-6.454 4.006,-14.755 4.006,-14.755 0,0 -6.123,5.44 -11.483,9.277 -7.436,5.321 -22.01,5.648 -22.01,5.648 0,0 12.649,-8.697 16.846,-18.889 1.878,-4.563 1.759,-9.708 1.04,-14.515 -1.135,-7.586 -5.809,-18.693 -7.824,-26.139 -2.817,-10.407 -6.391,-16.714 -5.704,-27.388 0.694,-10.791 9.344,-31.381 9.344,-31.381 0,0 -14.275,-1.646 -19.502,-4.687 -7.459,-4.34 -8.676,-17.882 -8.676,-17.882 0,0 8.205,7.197 13.337,8.253 3.825,0.787 11.185,-3.25 11.185,-3.25 0,0 -14.561,-5.173 -18.643,-10.566 -3.995,-5.28 -3.728,-16.069 -3.728,-16.069 0,0 5.279,6.645 10.254,8.754 4.192,1.777 13.982,0 13.982,0 0,0 -13.407,-7.178 -16.779,-13.004 -3.092,-5.342 -1.864,-17.879 -1.864,-17.879 0,0 6.102,8.761 11.042,11.065 3.56,1.662 8.169,2.246 12.117,1.501 3.669,-0.694 6.502,-1.687 8.533,-4.439 3.7,-5.011 2.973,-11.623 0,-17.88 -2.187,-4.602 -4.044,-8.66 -9.321,-10.566 -6.602,-2.384 -15.058,-2.806 -21.439,0 -7.935,3.491 -8.649,6.683 -12.118,13.818 -6.637,13.654 -5.911,32.515 -12.117,46.325 -5.157,11.471 -17.384,19.078 -21.44,30.883 -4.189,12.196 0.162,25.587 -1.864,38.197 -1.255,7.812 -6.202,19.82 -7.457,27.634 -0.99,6.17 0,13.815 0,13.815 l -62.779,2.853 -33.83,-26.094 c 0,0 -12.896,-3.065 -19.519,-3.403 -16.074,-0.817 -34.622,3.395 -50.708,3.962 -17.336,0.612 -49.485,1.677 -49.485,1.677 l -6.175,12.067 c -2.353,4.598 -2.483,10.129 -7.692,12.296 -4.051,1.684 -10.062,2.553 -13.463,0 -3.273,-2.459 -1.923,-11.178 -1.923,-11.178 0,0 -10.347,1.917 -14.743,0 -4.778,-2.083 -7.619,-4.844 -7.692,-9.501 -0.085,-5.48 3.392,-11.456 8.974,-13.972 2.468,-1.119 8.333,-1.119 8.333,-1.119 0,0 -5.097,-2.198 -6.41,-5.589 -1.69,-4.366 -0.026,-10.278 3.846,-13.414 4.608,-3.729 9.419,-3.41 15.385,-1.676 5.02,1.457 10.897,7.825 10.897,7.825 0,0 9.217,0.92 12.82,-1.119 2.892,-1.635 4.245,-4.921 5.129,-7.824 0.657,-2.161 0.981,-4.642 0,-6.707 -2.661,-5.6 -13.431,-14.163 -13.431,-14.163 0,0 10.408,-0.613 15.219,0.816 10.074,2.993 23.622,14.143 23.622,14.143 0,0 -0.807,-5.281 -3.429,-8.285 -3.305,-3.789 -11.666,-9.903 -11.666,-9.903 0,0 15.915,1.468 23.417,4.61 6.706,2.807 16.202,13.055 16.202,13.055 0,0 -0.217,-4.976 -1.62,-7.524 -1.672,-3.04 -5.322,-9.978 -5.322,-9.978 0,0 14.386,2.774 20.755,6.023 4.859,2.477 10.815,10.409 10.815,10.409 0,0 0.238,-5.423 -0.75,-8.269 -0.891,-2.566 -5.116,-7.999 -5.116,-7.999 0,0 13.74,2.229 19.612,5.026 5.999,2.854 14.499,12.639 14.499,12.639 0,0 8.074,1.757 13.276,-0.811 10.27,-5.069 14.885,-17.1 26.888,-22.635 19.502,-8.995 45.464,-14.165 53.773,-33.951 2.865,-6.821 3.056,-11.386 -0.927,-17.784 -4.867,-7.82 -25.358,-17.273 -30.596,-25.87 0,0 -8.201,-9.792 -10.198,-19.399 -1.279,-6.15 -0.231,-12.921 2.781,-18.593 3.862,-7.271 11.508,-12.63 18.544,-17.785 8.401,-6.156 27.813,-15.359 27.813,-15.359 l 3.274,-5.794 c 0,0 -12.273,-7.345 -16.87,-12.536 -5.632,-6.361 -14.807,-20.359 -14.807,-20.359 0,0 -5.701,5.197 -12.01,7.211 -4.869,1.552 -11.809,3.124 -15.558,0 -3.59,-2.994 -3.825,-6.581 -2.03,-10.619 1.615,-3.628 7.441,-6.488 7.441,-6.488 0,0 -4.835,-3.915 -6.087,-6.488 -1.508,-3.098 -1.484,-7.236 0.676,-10.027 2.878,-3.714 7.724,-3.22 12.853,-3.539 3.627,-0.225 10.823,1.181 10.823,1.181 0,0 -1.644,-3.716 -1.352,-5.898 0.457,-3.411 1.395,-7.619 4.736,-9.437 4.594,-2.502 11.799,-2.123 16.234,0.589 C -2.94,-17.062 0,0 0,0"/></g><g transform="translate(533.7764,557.3462)" id="g144"><path id="path146" style="fill:#e94545;fill-opacity:1;fill-rule:nonzero;stroke:none" d="m 0,0 c 0,0 3.335,8.745 1.846,12.867 -1.93,5.34 -10.063,7.447 -12.911,12.464 -1.114,1.955 -1.386,6.434 -1.386,6.434 0,0 -6.124,-3.733 -9.684,-4.022 -5.382,-0.435 -10.277,3.398 -15.679,3.619 -4.668,0.193 -13.833,-2.011 -13.833,-2.011 0,0 -29.992,4.805 -41.966,6.032 -18.335,1.879 -51.65,0 -51.65,0 l -8.761,20.908 c 0,0 -0.044,3.429 -2.306,4.825 -1.632,1.006 -4.608,1.254 -5.996,0 -2.991,-2.703 0,-11.66 0,-11.66 0,0 -11.408,3.633 -17.062,1.207 -2.262,-0.972 -4.567,-3.03 -4.612,-5.229 -0.046,-2.305 2.458,-4.29 4.612,-5.629 5.744,-3.567 20.29,-5.628 20.29,-5.628 0,0 -12.399,-3.853 -14.756,-8.444 -1.005,-1.958 -1.699,-4.883 0,-6.433 2.338,-2.135 6.916,-1.289 10.145,-0.402 4.81,1.321 11.99,8.041 11.99,8.041 0,0 14.896,-0.218 20.29,-4.022 3.692,-2.599 4.973,-7.216 5.994,-11.257 0.699,-2.749 0.149,-5.632 0,-8.444 -0.074,-1.479 -0.459,-4.423 -0.459,-4.423 l 26.287,18.496 c 3.33,-7.237 0.255,-14.475 -3.69,-21.712 l 25.362,19.299 c 5.689,-6.433 2.681,-12.866 0,-19.299 l 23.058,17.692 c 5.481,-6.315 4.057,-11.624 2.306,-16.888 0,0 6.35,2.665 9.222,4.422 5.53,3.383 15.22,11.661 15.22,11.661 0,0 9.476,-2.144 13.833,-4.021 C -9.133,6.222 0,0 0,0"/></g><g transform="translate(488.5977,581.9209)" id="g148"><path id="path150" style="fill:#ee6c6c;fill-opacity:1;fill-rule:nonzero;stroke:none" d="M 0,0 C -29.701,8.184 -57.746,10.508 -86.823,8.583 -53.241,0.718 -25.215,-1.435 0,0"/></g><g transform="translate(620.0234,381.7881)" id="g152"><path id="path154" style="fill:#e94545;fill-opacity:1;fill-rule:nonzero;stroke:none" d="m 0,0 c 0,0 -3.916,9.899 -7.618,13.889 -11.183,12.05 -33.708,16.889 -41.556,30.798 -2.853,5.056 -2.527,9.088 -0.693,14.494 2.889,8.511 10.553,15.215 16.623,22.342 7.033,8.255 19.294,13.748 22.855,23.551 3.152,8.67 1.353,18.822 -2.769,27.175 -3.169,6.419 -9.49,11.543 -15.93,15.7 -11.627,7.504 -28.753,7.241 -39.478,15.702 -2.379,1.875 -4.849,7.246 -4.849,7.246 0,0 30.285,6.502 40.864,15.098 2.948,2.396 4.848,7.246 4.848,7.246 l 15.929,-5.435 c 0,0 -1.219,-19.334 2.078,-28.383 C -7.348,152.974 -4.09,147.661 0,141.912 4.219,135.98 11.405,131.207 13.16,124.398 14.998,117.26 14.647,109.725 12.468,102.659 9.292,92.371 -2.495,81.107 -4.849,70.654 -6.67,62.556 -6.945,53.942 -4.849,45.894 -2.125,35.447 14.545,19.323 14.545,19.323 l 8.311,-3.622 c 0,0 9.899,3.615 11.774,0.603 C 37.229,12.129 24.934,4.83 24.934,4.83 l 8.312,-7.851 -29.783,-6.037 12.467,-9.663 -24.24,-0.604 13.159,-15.699 -24.935,0 12.468,-11.475 -11.775,-0.605 c 0,0 -3.741,-14.582 -9.696,-19.324 -2.156,-1.717 -5.942,-3.904 -8.31,-2.415 -2.247,1.411 0,4.83 0,7.248 l 0,9.66 c 0,0 -10.083,-2.16 -15.239,-2.415 -3.465,-0.17 -8.594,-1.987 -10.388,0.605 -2.349,3.394 5.541,10.87 5.541,10.87 0,0 -7.411,5.751 -9.005,9.661 -0.462,1.138 -0.979,2.77 0,3.624 2.123,1.849 6.128,0.747 9.005,0 6.873,-1.786 18.006,-10.265 18.006,-10.265 L -24.934,-17.514 0,0 Z"/></g><g transform="translate(750.3311,567.4707)" id="g156"><path id="path158" style="fill:#e94545;fill-opacity:1;fill-rule:nonzero;stroke:none" d="m 0,0 c 0,0 -6.853,9.958 -12.575,12.181 -5.53,2.147 -8.272,1.173 -13.97,-0.61 -4.828,-1.509 -9.616,-4.513 -11.875,-8.526 -3.387,-6.018 -2.849,-13.028 -4.89,-19.491 -2.546,-8.06 -13.97,-21.925 -13.97,-21.925 l -9.781,12.789 1.171,-1.16 -8.881,21.082 0,15.058 6.415,22.373 6.414,20.651 0,10.756 -5.428,13.336 -12.83,12.049 19.738,-3.443 14.311,-10.756 -4.935,15.489 -8.883,16.778 20.232,-10.326 18.257,-21.51 3.947,-19.791 -7.402,-23.233 -10.855,-13.338 22.205,0 L -1.249,11.12 0,0 Z"/></g><g transform="translate(680.4932,656.0332)" id="g160"><path id="path162" style="fill:#ee6c6c;fill-opacity:1;fill-rule:nonzero;stroke:none" d="m 0,0 c 0,0 11.057,-6.693 14.311,-11.617 4.799,-7.265 6.712,-16.143 6.414,-24.524 -0.179,-5.08 -2.968,-9.843 -4.935,-14.628 -2.41,-5.867 -6.683,-11.156 -8.387,-17.208 -1.968,-6.986 -2.846,-14.359 -1.975,-21.512 0.546,-4.467 4.441,-12.908 4.441,-12.908 -5.098,2.098 -10.197,5.521 -15.296,18.931 l 0,8.603 8.389,21.512 6.414,20.652 -0.987,12.477 -9.375,12.907 -7.401,6.883 L 0,0 Z"/></g><g transform="translate(602.7666,328.873)" id="g164"><path id="path166" style="fill:none;stroke:#800000;stroke-width:1.32200003;stroke-linecap:butt;stroke-linejoin:miter;stroke-miterlimit:4;stroke-dasharray:none;stroke-opacity:1" d="m 0,0 c 0,0 4.479,0.944 6.266,0 4.572,-2.42 11.959,-8.441 11.959,-8.441 0,0 1.811,7.413 -0.213,13.313 -1.199,3.492 -8.009,8.35 -8.009,8.35 0,0 8.773,2.023 12.778,-0.497 3.945,-2.484 8.899,-11.111 8.899,-11.111 0,0 1.872,9.475 0.569,15.393 -0.996,4.519 -9.682,10.925 -9.682,10.925 0,0 7.158,1.263 10.25,0 5.371,-2.196 11.391,-11.918 11.391,-11.918 0,0 4.521,12.771 1.14,19.862 -1.561,3.27 -9.682,6.455 -9.682,6.455 0,0 11.19,2.578 15.376,0 5.102,-3.142 7.404,-10.924 7.404,-10.924 0,0 5.279,9.498 3.416,16.387 -1.148,4.252 -9.111,10.427 -9.111,10.427 0,0 6.137,4.453 7.974,7.448 1.562,2.55 3.599,5.791 2.277,8.441 -1.364,2.733 -5.524,3.992 -8.906,4.437 C 50.015,79.084 42.01,76.2 42.01,76.2 l -4.963,3.784 c -8.736,6.664 -13.511,17.47 -14.848,28.291 -1.385,11.205 9.009,32.216 9.009,32.216 0,0 4.836,-13.719 12.297,-21.311 5.219,-5.314 12.74,-9.41 20.586,-10.878 10.035,-1.88 15.137,-2.355 24.328,1.632 8.295,3.596 17.246,9.536 19.338,17.403 8.226,30.945 -2.418,81.046 -1.872,77.235 0,0 5.746,6.415 7.486,10.877 2.077,5.331 3.742,18.494 3.742,18.494 1.367,4.466 5.765,8.447 10.606,10.333 3.038,1.184 6.89,1.074 9.98,0 5.057,-1.755 11.853,-9.789 11.853,-9.789 0,0 -0.541,11.515 -4.366,15.772 -3.902,4.34 -10.532,7.262 -16.844,7.615 -9.673,0.542 -19.206,-2.72 -19.206,-2.72 0,0 10.516,9.917 15.439,19.72 3.896,7.757 4.506,22.347 4.506,22.347 0,10.571 -5.826,22.477 -14.027,30.846 -10.397,10.608 -28.603,17.81 -28.603,17.81 0,0 6.615,-9.389 10.913,-18.717 2.976,-6.454 4.006,-14.755 4.006,-14.755 0,0 -6.123,5.44 -11.483,9.277 -7.436,5.321 -22.01,5.648 -22.01,5.648 0,0 12.649,-8.697 16.846,-18.889 1.878,-4.563 1.759,-9.708 1.04,-14.515 -1.135,-7.586 -5.809,-18.693 -7.824,-26.139 -2.817,-10.407 -6.391,-16.714 -5.704,-27.388 0.694,-10.791 9.344,-31.381 9.344,-31.381 0,0 -14.275,-1.646 -19.502,-4.687 -7.459,-4.34 -8.676,-17.882 -8.676,-17.882 0,0 8.205,7.197 13.337,8.253 3.825,0.787 11.185,-3.25 11.185,-3.25 0,0 -14.561,-5.173 -18.643,-10.566 -3.995,-5.28 -3.728,-16.069 -3.728,-16.069 0,0 5.279,6.645 10.254,8.754 4.192,1.777 13.982,0 13.982,0 0,0 -13.407,-7.178 -16.779,-13.004 -3.092,-5.342 -1.864,-17.879 -1.864,-17.879 0,0 6.102,8.761 11.042,11.065 3.56,1.662 8.169,2.246 12.117,1.501 3.669,-0.694 6.502,-1.687 8.533,-4.439 3.7,-5.011 2.973,-11.623 0,-17.88 -2.187,-4.602 -4.044,-8.66 -9.321,-10.566 -6.602,-2.384 -15.058,-2.806 -21.439,0 -7.935,3.491 -8.649,6.683 -12.118,13.818 -6.637,13.654 -5.911,32.515 -12.117,46.325 -5.157,11.471 -17.384,19.078 -21.44,30.883 -4.189,12.196 0.162,25.587 -1.864,38.197 -1.255,7.812 -6.202,19.82 -7.457,27.634 -0.99,6.17 0,13.815 0,13.815 l -62.779,2.853 -33.83,-26.094 c 0,0 -12.896,-3.065 -19.519,-3.403 -16.074,-0.817 -34.622,3.395 -50.708,3.962 -17.336,0.612 -49.485,1.677 -49.485,1.677 l -6.175,12.067 c -2.353,4.598 -2.483,10.129 -7.692,12.296 -4.051,1.684 -10.062,2.553 -13.463,0 -3.273,-2.459 -1.923,-11.178 -1.923,-11.178 0,0 -10.347,1.917 -14.743,0 -4.778,-2.082 -7.619,-4.844 -7.692,-9.501 -0.085,-5.48 3.392,-11.456 8.974,-13.972 2.468,-1.119 8.333,-1.119 8.333,-1.119 0,0 -5.097,-2.198 -6.41,-5.589 -1.69,-4.366 -0.026,-10.278 3.846,-13.414 4.608,-3.729 9.419,-3.41 15.385,-1.676 5.02,1.457 10.897,7.825 10.897,7.825 0,0 9.217,0.92 12.82,-1.119 2.892,-1.635 4.245,-4.921 5.129,-7.824 0.657,-2.161 0.981,-4.642 0,-6.707 -2.661,-5.598 -13.431,-14.163 -13.431,-14.163 0,0 10.408,-0.613 15.219,0.816 10.074,2.993 23.622,14.143 23.622,14.143 0,0 -0.807,-5.281 -3.429,-8.285 -3.305,-3.789 -11.666,-9.903 -11.666,-9.903 0,0 15.915,1.468 23.417,4.61 6.706,2.807 16.202,13.055 16.202,13.055 0,0 -0.217,-4.976 -1.62,-7.524 -1.672,-3.04 -5.322,-9.978 -5.322,-9.978 0,0 14.386,2.774 20.755,6.023 4.859,2.477 10.815,10.409 10.815,10.409 0,0 0.238,-5.423 -0.75,-8.269 -0.891,-2.566 -5.116,-7.999 -5.116,-7.999 0,0 13.74,2.229 19.612,5.026 5.999,2.854 14.499,12.639 14.499,12.639 0,0 8.074,1.757 13.276,-0.811 10.27,-5.069 14.885,-17.1 26.888,-22.635 19.502,-8.995 45.464,-14.165 53.773,-33.951 2.865,-6.821 3.056,-11.386 -0.927,-17.784 -4.867,-7.82 -25.358,-17.273 -30.596,-25.868 0,0 -8.201,-9.794 -10.198,-19.401 -1.279,-6.15 -0.231,-12.921 2.781,-18.593 3.862,-7.271 11.508,-12.63 18.544,-17.785 8.401,-6.156 27.813,-15.359 27.813,-15.359 l 3.274,-5.794 c 0,0 -12.273,-7.345 -16.87,-12.536 -5.632,-6.361 -14.807,-20.359 -14.807,-20.359 0,0 -5.701,5.197 -12.01,7.211 -4.869,1.552 -11.809,3.124 -15.558,0 -3.59,-2.994 -3.825,-6.581 -2.03,-10.619 1.615,-3.628 7.441,-6.488 7.441,-6.488 0,0 -4.835,-3.915 -6.087,-6.488 -1.508,-3.098 -1.484,-7.236 0.676,-10.027 2.878,-3.714 7.724,-3.22 12.853,-3.539 3.627,-0.225 10.823,1.181 10.823,1.181 0,0 -1.644,-3.716 -1.352,-5.898 0.457,-3.411 1.395,-7.619 4.736,-9.437 4.594,-2.502 11.799,-2.123 16.234,0.589 C -2.94,-17.062 0,0 0,0 Z"/></g><g transform="translate(374.707,628.3184)" id="g168"><path id="path170" style="fill:#cd0707;fill-opacity:1;fill-rule:nonzero;stroke:none" d="M 0,0 C 3.145,-3.271 3.113,-6.929 0.119,-10.006 -1.37,-11.535 -3.77,-12.198 -7.244,-11.307 -10.017,-4.496 -12.04,-2.348 -19.901,0.39 -7.015,4.571 -3.661,0.062 0,0"/></g><g transform="translate(374.707,628.3184)" id="g172"><path id="path174" style="fill:none;stroke:#800000;stroke-width:1.32200003;stroke-linecap:butt;stroke-linejoin:miter;stroke-miterlimit:4;stroke-dasharray:none;stroke-opacity:1" d="M 0,0 C 3.145,-3.271 3.113,-6.929 0.119,-10.006 -1.37,-11.535 -3.77,-12.198 -7.244,-11.307 -10.017,-4.496 -12.04,-2.348 -19.901,0.39 -7.015,4.571 -3.661,0.062 0,0 Z"/></g><g transform="translate(344.4062,613.1035)" id="g176"><path id="path178" style="fill:#cd0707;fill-opacity:1;fill-rule:nonzero;stroke:none" d="m 0,0 c 4.55,-1.57 6.52,-4.8 5.566,-8.749 -0.474,-1.963 -2.22,-3.543 -5.762,-4.202 -6.159,4.838 -9.111,5.888 -17.519,5.032 C -8.667,1.107 -3.255,-1.465 0,0"/></g><g transform="translate(344.4062,613.1035)" id="g180"><path id="path182" style="fill:none;stroke:#800000;stroke-width:1.32200003;stroke-linecap:butt;stroke-linejoin:miter;stroke-miterlimit:4;stroke-dasharray:none;stroke-opacity:1" d="m 0,0 c 4.55,-1.57 6.52,-4.8 5.566,-8.749 -0.474,-1.963 -2.22,-3.543 -5.762,-4.202 -6.159,4.838 -9.111,5.888 -17.519,5.032 C -8.667,1.107 -3.255,-1.465 0,0 Z"/></g><g transform="translate(354.3364,579.1997)" id="g184"><path id="path186" style="fill:#cd0707;fill-opacity:1;fill-rule:nonzero;stroke:none" d="m 0,0 c 4.833,0.676 8.417,-1.223 9.912,-5.042 0.743,-1.898 0.166,-4.035 -2.491,-6.179 -8.131,1.417 -11.283,1.003 -18.01,-3.476 2.49,11.789 8.65,11.988 10.59,14.697 L 0,0 Z"/></g><g transform="translate(354.3364,579.1997)" id="g188"><path id="path190" style="fill:none;stroke:#800000;stroke-width:1.32200003;stroke-linecap:butt;stroke-linejoin:miter;stroke-miterlimit:4;stroke-dasharray:none;stroke-opacity:1" d="m 0,0 c 4.833,0.676 8.417,-1.223 9.912,-5.042 0.743,-1.898 0.166,-4.035 -2.491,-6.179 -8.131,1.417 -11.283,1.003 -18.01,-3.476 2.49,11.789 8.65,11.988 10.59,14.697 L 0,0 Z"/></g><g transform="translate(555.8818,549.8823)" id="g192"><path id="path194" style="fill:#ee6c6c;fill-opacity:1;fill-rule:nonzero;stroke:none" d="M 0,0 C 0,0 4.472,-3.704 7.146,-4.985 15.53,-9 26.646,-8.08 34.299,-13.083 L 51.448,-24.297 27.868,9.344 c 0,0 -6.357,-4.249 -10.004,-5.607 C 12.232,1.641 0,0 0,0"/></g><g transform="translate(603.7578,468.8896)" id="g196"><path id="path198" style="fill:#ee6c6c;fill-opacity:1;fill-rule:nonzero;stroke:none" d="m 0,0 c 0,0 -19.028,-11.684 -24.295,-23.051 -2.957,-6.38 -3.032,-12.959 0,-19.314 7.603,-15.933 36.441,-24.298 36.441,-24.298 0,0 -20.605,10.684 -25.723,24.921 -1.923,5.351 -1.133,11.303 0,16.821 C -11.521,-14.894 0,0 0,0"/></g><g transform="translate(549.8877,359.0635)" id="g200"><path id="path202" style="fill:#cd0707;fill-opacity:1;fill-rule:nonzero;stroke:none" d="m 0,0 c 3.982,-2.478 5.003,-6.026 2.989,-9.659 -1.002,-1.805 -3.134,-2.972 -6.754,-2.869 -4.641,5.989 -7.216,7.626 -15.614,8.56 C -8.105,2.895 -3.563,-0.738 0,0"/></g><g transform="translate(549.8877,359.0635)" id="g204"><path id="path206" style="fill:none;stroke:#800000;stroke-width:1.32200003;stroke-linecap:butt;stroke-linejoin:miter;stroke-miterlimit:4;stroke-dasharray:none;stroke-opacity:1" d="m 0,0 c 3.982,-2.478 5.003,-6.026 2.989,-9.659 -1.002,-1.805 -3.134,-2.972 -6.754,-2.869 -4.641,5.989 -7.216,7.626 -15.614,8.56 C -8.105,2.895 -3.563,-0.738 0,0 Z"/></g><g transform="translate(547.4756,332.5098)" id="g208"><path id="path210" style="fill:#cd0707;fill-opacity:1;fill-rule:nonzero;stroke:none" d="m 0,0 c 4.832,0.672 8.416,-1.231 9.905,-5.05 0.742,-1.899 0.163,-4.036 -2.499,-6.178 -8.127,1.423 -11.28,1.014 -18.011,-3.461 C -8.102,-2.902 -1.942,-2.709 0,0"/></g><g transform="translate(547.4756,332.5098)" id="g212"><path id="path214" style="fill:none;stroke:#800000;stroke-width:1.32200003;stroke-linecap:butt;stroke-linejoin:miter;stroke-miterlimit:4;stroke-dasharray:none;stroke-opacity:1" d="m 0,0 c 4.832,0.672 8.416,-1.231 9.905,-5.05 0.742,-1.899 0.163,-4.036 -2.499,-6.178 -8.127,1.423 -11.28,1.014 -18.011,-3.461 C -8.102,-2.902 -1.942,-2.709 0,0 Z"/></g><g transform="translate(576.6484,316.79)" id="g216"><path id="path218" style="fill:#cd0707;fill-opacity:1;fill-rule:nonzero;stroke:none" d="m 0,0 c 4.774,0.936 8.488,-0.768 10.252,-4.499 0.874,-1.855 0.451,-4.018 -2.051,-6.3 C -0.013,-9.823 -3.13,-10.404 -9.526,-15.24 -7.877,-3.339 -1.743,-2.808 0,0"/></g><g transform="translate(576.6484,316.79)" id="g220"><path id="path222" style="fill:none;stroke:#800000;stroke-width:1.32200003;stroke-linecap:butt;stroke-linejoin:miter;stroke-miterlimit:4;stroke-dasharray:none;stroke-opacity:1" d="m 0,0 c 4.774,0.936 8.488,-0.768 10.252,-4.499 0.874,-1.855 0.451,-4.018 -2.051,-6.3 C -0.013,-9.823 -3.13,-10.404 -9.526,-15.24 -7.877,-3.339 -1.743,-2.808 0,0 Z"/></g><g transform="translate(595.4854,681.4702)" id="g224"><path id="path226" style="fill:#cd0707;fill-opacity:1;fill-rule:nonzero;stroke:none" d="m 0,0 c 0,0 -22.72,4.25 -31.908,6.104 -10.761,2.172 -26.363,-2.184 -36.885,0.742 -6.191,1.721 -7.714,2.94 -10.738,7.954 -1.869,3.099 -2.793,8.373 -2.793,8.373 0,0 -5.105,-5.618 -4.298,-10.504 0.698,-4.248 4.189,-8.487 8.532,-10.504 12.114,-5.626 33.245,-1.888 46.614,-4.598 9.334,-1.892 20.65,-13.381 20.65,-13.381 L 0,0 Z"/></g><g transform="translate(595.4854,681.4702)" id="g228"><path id="path230" style="fill:none;stroke:#800000;stroke-width:1.32200003;stroke-linecap:butt;stroke-linejoin:miter;stroke-miterlimit:4;stroke-dasharray:none;stroke-opacity:1" d="m 0,0 c 0,0 -22.72,4.25 -31.908,6.104 -10.761,2.172 -26.363,-2.184 -36.885,0.742 -6.191,1.721 -7.714,2.94 -10.738,7.954 -1.869,3.099 -2.793,8.373 -2.793,8.373 0,0 -5.105,-5.618 -4.298,-10.504 0.698,-4.248 4.189,-8.487 8.532,-10.504 12.114,-5.626 33.245,-1.888 46.614,-4.598 9.334,-1.892 20.65,-13.381 20.65,-13.381 L 0,0 Z"/></g><g transform="translate(534.707,671.0361)" id="g232"><path id="path234" style="fill:#ffffff;fill-opacity:1;fill-rule:nonzero;stroke:none" d="M 0,0 C 1.718,9.252 4.012,10.17 6.204,13.222 L 6.302,0.199 0,0 0.001,0 0,0 Z"/></g><g transform="translate(534.707,671.0361)" id="g236"><path id="path238" style="fill:none;stroke:#800000;stroke-width:1.32200003;stroke-linecap:butt;stroke-linejoin:miter;stroke-miterlimit:4;stroke-dasharray:none;stroke-opacity:1" d="M 0,0 C 1.718,9.252 4.012,10.17 6.204,13.222 L 6.302,0.199 0,0 0.001,0 0,0 Z"/></g><g transform="translate(534.707,698.5278)" id="g240"><path id="path242" style="fill:#ffffff;fill-opacity:1;fill-rule:nonzero;stroke:none" d="M 0,0 C 1.718,-9.252 4.012,-10.171 6.204,-13.222 L 6.302,-0.199 0,0 0.001,0 0,0 Z"/></g><g transform="translate(534.707,698.5278)" id="g244"><path id="path246" style="fill:none;stroke:#800000;stroke-width:1.32200003;stroke-linecap:butt;stroke-linejoin:miter;stroke-miterlimit:4;stroke-dasharray:none;stroke-opacity:1" d="M 0,0 C 1.718,-9.252 4.012,-10.171 6.204,-13.222 L 6.302,-0.199 0,0 0.001,0 0,0 Z"/></g><g transform="translate(497.916,595.7476)" id="g248"><path id="path250" style="fill:#e94545;fill-opacity:1;fill-rule:nonzero;stroke:none" d="m 0,0 10.934,4.164 c 3.096,1.179 1.983,5.792 3.171,8.39 1.357,2.966 7.422,7.059 7.422,7.059 L 7.145,20.019 c 0,0 10.428,4.342 11.134,10.515 0.18,1.566 -0.476,6.518 -0.464,8.091 0.039,5.388 5.529,9.954 10.67,12.943 3.259,1.894 12.063,2.657 13.918,5.662 l 3.247,5.259 c 0,0 -4.464,-2.72 -8.738,-3.2 -4.165,-0.469 -10.669,1.214 -10.669,1.214 l 9.278,7.685 c 1.458,1.208 -1.001,6.401 -0.463,8.09 0.975,3.066 8.35,4.45 8.35,4.45 0,0 15.492,-2.521 22.295,0.98 6.491,3.341 9.705,9.831 7.572,15.566 l -1.444,3.881 c -1.808,4.862 -22.147,-1.64 -27.958,-2.319 -5.097,-0.594 -10.028,1.423 -12.71,5.247 -4.982,7.107 -0.83,14.214 0,21.321 l 30.904,1.237 c 11.486,13.135 44.565,12.139 68.245,5.841 5.51,2.8 1.936,3.704 13.454,6.503 0,0 3.498,-2.69 2.432,-7.723 -0.444,-2.103 -6.478,-6.582 -6.23,-8.298 0.163,-1.123 3.843,1.996 7.868,1.682 5.079,-0.396 10.709,-4.144 10.531,-5.154 -0.562,-3.214 -1.373,-8.883 -4.767,-11.796 -2.57,-2.206 -7.546,-1.815 -9.71,-3.396 -2.576,-1.886 -10.892,-2.39 -10.892,-2.39 0,0 10.381,-5.543 13.245,-9.974 5.299,-8.195 -0.914,-17.447 4.216,-25.722 1.822,-2.941 6.02,-4.725 6.02,-4.725 0,0 -4.727,-3.55 -9.031,-2.625 -3.946,0.849 -8.428,2.101 -8.428,2.101 0,0 7.932,-8.184 8.428,-15.225 0.574,-8.14 -9.991,-14.448 -10.837,-22.571 -0.595,-5.709 4.214,-16.798 4.214,-16.798 0,0 -6.048,1.664 -9.031,3.673 -2.481,1.672 -7.225,6.825 -7.225,6.825 l 2.409,-11.548 c 1.156,-5.544 -11.555,-9.131 -12.644,-15.748 -0.7,-4.262 3.612,-8.924 3.612,-8.924 0,0 -11.593,2.271 -16.256,5.249 -3.691,2.357 -8.428,9.448 -8.428,9.448 0,0 -4.23,-9.69 -7.826,-13.123 -4.03,-3.845 -12.565,-5.713 -19.445,-8.523 -11.731,-4.793 -22.098,-9.325 -22.098,-9.325 0,0 2.086,6.739 1.203,10.499 -1.368,5.823 -10.659,12.069 -13.847,17.322 -3.226,5.317 0,12.599 0,12.599 0,0 -7.654,-6.366 -13.245,-7.35 C 11.866,-3.631 0,-0.003 0,-0.003 L 0,-0.001 0,0 Z"/></g><g transform="translate(566.3076,717.1914)" id="g252"><path id="path254" style="fill:#ffffff;fill-opacity:1;fill-rule:nonzero;stroke:none" d="m 0,0 c 0.123,-3.939 5.379,-8.066 12.072,-7.907 6.693,0.159 10.805,3.453 10.682,7.393 C 22.631,3.425 18.35,5.461 11.657,5.3 4.966,5.141 -0.123,3.939 0,0"/></g><g transform="translate(572.6934,716.5508)" id="g256"><path id="path258" style="fill:#2b2200;fill-opacity:1;fill-rule:nonzero;stroke:none" d="m 0,0 c 0.07,-2.188 2.16,-3.914 4.67,-3.854 2.51,0.06 4.488,1.882 4.421,4.07 C 9.021,2.405 6.93,4.13 4.42,4.071 1.912,4.011 -0.067,2.188 0,0"/></g><g transform="translate(577.9561,721.5937)" id="g260"><path id="path262" style="fill:#9c0000;fill-opacity:1;fill-rule:nonzero;stroke:none" d="m 0,0 c -3.28,-0.078 -6.067,-0.528 -7.92,-1.247 -1.851,-0.72 -2.651,-1.507 -2.6,-3.121 0.101,-3.227 4.709,-7.179 10.878,-7.032 3.149,0.075 5.591,0.878 7.22,2.053 1.627,1.176 2.477,2.733 2.423,4.41 C 9.95,-3.259 9.123,-2.084 7.458,-1.233 5.793,-0.383 3.216,0.077 0,0 m -0.06,1.881 c 3.479,0.082 6.503,-0.445 8.683,-1.557 2.18,-1.114 3.465,-2.947 3.536,-5.209 0.07,-2.261 -1.117,-4.344 -3.19,-5.84 -2.07,-1.495 -5.01,-2.471 -8.552,-2.556 -7.217,-0.172 -12.948,4.213 -13.094,8.862 -0.072,2.325 1.558,4.009 3.893,4.915 2.335,0.907 5.312,1.303 8.724,1.385"/></g><g transform="translate(630.9141,697.6592)" id="g264"><path id="path266" style="fill:#cd0707;fill-opacity:1;fill-rule:nonzero;stroke:none" d="m 0,0 c 0,0 10.381,-5.543 13.245,-9.974 5.299,-8.195 -0.914,-17.446 4.216,-25.722 1.822,-2.941 6.019,-4.725 6.019,-4.725 0,0 -4.726,-3.55 -9.03,-2.625 -3.946,0.849 -8.429,2.101 -8.429,2.101 0,0 7.933,-8.184 8.429,-15.224 0.574,-8.141 -9.991,-14.449 -10.837,-22.572 -0.595,-5.709 4.214,-16.798 4.214,-16.798 0,0 -6.048,1.664 -9.031,3.673 -2.481,1.672 -7.225,6.824 -7.225,6.824 l 2.408,-11.547 c 1.157,-5.543 -11.554,-9.131 -12.643,-15.748 -0.7,-4.261 3.612,-8.925 3.612,-8.925 0,0 -11.594,2.272 -16.256,5.25 -3.691,2.357 -8.428,9.449 -8.428,9.449 0,0 -4.23,-9.691 -7.827,-13.125 -4.029,-3.844 -12.564,-5.712 -19.444,-8.523 -11.731,-4.792 -22.098,-9.325 -22.098,-9.325 0,0 2.085,6.74 1.203,10.5 -1.369,5.823 -10.66,12.069 -13.847,17.323 -3.226,5.316 0,12.599 0,12.599 0,0 -7.654,-6.366 -13.245,-7.349 -6.138,-1.079 -18.004,2.55 -18.004,2.55 l 10.934,4.165 c 3.096,1.18 1.983,5.792 3.171,8.389 1.355,2.967 7.422,7.06 7.422,7.06 l -14.383,0.404 c 0,0 10.429,4.345 11.135,10.517 0.18,1.566 -0.476,6.518 -0.464,8.091 0.039,5.388 5.529,9.954 10.67,12.943 3.259,1.895 12.063,2.657 13.918,5.663 l 3.247,5.258 c 0,0 1.957,-3.48 1.787,-6.513 -0.165,-2.986 -0.748,-6.467 -3.252,-8.509 -3.136,-2.558 -16.81,-4.681 -16.805,-8.509 0.003,-5.001 0.033,-6.68 -1.628,-11.344 l 13.012,3.781 c 0,0 -10.38,-12.447 -13.553,-18.435 -0.924,-1.74 -1.085,-5.673 -1.085,-5.673 0,0 7.258,6.367 11.673,8.569 3.238,1.616 24.651,20.74 24.651,20.74 0,0 -20.352,-30.935 -18.432,-37.346 1.722,-5.752 8.711,-9.477 10.841,-15.126 0.737,-1.951 0.543,-6.145 0.543,-6.145 0,0 17.44,5.993 23.313,11.346 7.911,7.211 12.469,42.543 12.469,42.543 0,0 7.577,-29.13 12.47,-34.507 1.43,-1.571 4.879,-4.255 4.879,-4.255 0,0 6.444,8.524 8.133,13.709 3.229,9.909 -9.217,52.942 -9.217,52.942 l 22.771,-34.507 c 0,0 -0.309,8.829 1.628,12.763 1.769,3.598 3.717,5.105 4.336,8.981 1.391,8.732 -15.723,35.926 -15.723,35.926 l 24.397,-15.6 c 0,0 -1.303,13.389 -3.254,19.855 C 5.068,-9.636 0,0 0,0"/></g><g transform="translate(533.6162,669.9253)" id="g268"><path id="path270" style="fill:#cd0707;fill-opacity:1;fill-rule:nonzero;stroke:none" d="m 0,0 c 0,0 5.13,-3.781 8.29,-4.196 4.702,-0.618 9.178,2.328 13.903,2.798 7.173,0.711 14.638,-1.466 21.659,0 6.319,1.318 13.305,3.28 17.381,7.693 5.544,6.004 6.684,22.381 6.684,22.381 L 70.592,26.112 71.66,14.688 68.72,2.331 58.29,-5.827 45.991,-9.325 l -15.509,1.166 -9.892,0 -8.825,-3.964 L 1.338,-15.62 -8.289,-13.056 0,-6.062 0,0 Z"/></g><g transform="translate(598.2275,701.9434)" id="g272"><path id="path274" style="fill:#800000;fill-opacity:1;fill-rule:nonzero;stroke:none" d="m 0,0 c 0,0 2.471,-1.834 3.718,-4.398 1.246,-2.563 2.663,-5.709 2.911,-7.525 0.709,-5.18 -0.668,-12.491 -3.177,-16.736 -3.227,-5.459 -9.021,-8.236 -16.182,-10.464 -4.508,-1.402 -9.584,-1.202 -14.968,-0.823 -5.383,0.379 -11.256,1.549 -16.937,0.562 -2.58,-0.449 -5.631,-1.696 -8.035,-2.821 -2.405,-1.127 -4.316,-2.867 -4.316,-2.867 l 0.359,-2.238 c 0,0 3.936,2.441 6.194,3.499 2.258,1.058 5.065,2.013 6.608,2.281 4.789,0.833 10.163,-0.293 15.643,-0.68 5.478,-0.384 11.174,-0.854 16.721,0.871 7.539,2.346 13.477,4.84 17.399,11.478 3.16,5.345 4.043,11.822 3.288,17.354 -0.37,2.689 -2.485,9.23 -5.413,10.653 L 0,0 Z"/></g><g transform="translate(528.5781,721.3232)" id="g276"><path id="path278" style="fill:#9c0000;fill-opacity:1;fill-rule:nonzero;stroke:none" d="m 0,0 -1.447,-9.671 c 0,0 9.171,0.673 12.743,1.95 5.422,1.939 8.344,8.773 8.344,8.773 L 0,0 Z"/></g><g transform="translate(567.3525,727.4668)" id="g280"><path id="path282" style="fill:#ee6c6c;fill-opacity:1;fill-rule:nonzero;stroke:none" d="M 0,0 9.823,2.837 19.179,4.641 41.865,2.87 59.362,0.178 75.734,6.108 C 68.765,6.324 73.948,6.455 74.018,3.851 74.073,1.731 69.473,-4.196 62.466,-5.643 54.695,-7.247 35.909,-2.743 18.937,-2.585 7.854,-2.481 -2.457,-5.602 -8.421,-5.821 L 0,0 Z"/></g><g transform="translate(630.9141,697.6597)" id="g284"><path id="path286" style="fill:none;stroke:#800000;stroke-width:1.32200003;stroke-linecap:butt;stroke-linejoin:miter;stroke-miterlimit:4;stroke-dasharray:none;stroke-opacity:1" d="m 0,0 c 0,0 10.381,-5.542 13.245,-9.974 5.299,-8.194 -0.914,-17.446 4.216,-25.723 1.822,-2.94 6.019,-4.724 6.019,-4.724 0,0 -4.726,-3.55 -9.03,-2.624 -3.946,0.848 -8.429,2.099 -8.429,2.099 0,0 7.933,-8.183 8.429,-15.222 C 15.024,-64.31 4.459,-70.619 3.613,-78.742 3.018,-84.45 7.827,-95.54 7.827,-95.54 c 0,0 -6.048,1.664 -9.031,3.674 -2.481,1.672 -7.225,6.824 -7.225,6.824 l 2.408,-11.547 c 1.157,-5.544 -11.554,-9.131 -12.643,-15.749 -0.7,-4.26 3.612,-8.924 3.612,-8.924 0,0 -11.594,2.273 -16.256,5.249 -3.691,2.358 -8.428,9.45 -8.428,9.45 0,0 -4.23,-9.692 -7.827,-13.125 -4.029,-3.845 -12.564,-5.712 -19.444,-8.523 -11.731,-4.792 -22.098,-9.325 -22.098,-9.325 0,0 2.085,6.739 1.203,10.499 -1.369,5.823 -10.66,12.069 -13.847,17.323 -3.226,5.316 0,12.599 0,12.599 0,0 -7.654,-6.366 -13.245,-7.348 -6.138,-1.079 -18.004,2.551 -18.004,2.551 l 0,-0.002 10.934,4.166 c 3.096,1.179 1.983,5.792 3.171,8.389 1.355,2.966 7.422,7.06 7.422,7.06 l -14.383,0.403 c 0,0 10.429,4.345 11.135,10.518 0.18,1.565 -0.476,6.518 -0.464,8.09 0.039,5.389 5.529,9.955 10.67,12.944 3.259,1.894 12.063,2.657 13.918,5.662 l 3.752,4.818 c 0,0 -4.717,-2.718 -8.989,-3.199 -4.167,-0.469 -10.671,1.214 -10.671,1.214 l 9.279,7.684 c 1.457,1.207 -1.001,6.402 -0.464,8.091 0.976,3.066 8.35,4.449 8.35,4.449 0,0 16.405,-2.081 23.209,1.422 6.493,3.342 8.929,8.814 6.795,14.55 l -1.443,3.881 c -1.81,4.861 -21.529,0.513 -27.338,-0.165 -5.096,-0.596 -11.038,1.422 -13.72,5.246 -4.982,7.107 -0.83,12.858 0,19.964 19.778,2.477 17.592,0.623 31.272,1.224 26.887,22.737 55.548,0.176 71.633,7.862 l 9.973,4.288 c 2.982,-6.41 -0.321,-10.162 -3.757,-15.483 14.86,1.337 15.438,-1.69 18.1,-3.276 0,0 -2.145,-7.638 -6.147,-11.909 C 14.545,0.967 0,0 0,0 Z"/></g><g transform="translate(623.7529,704.3916)" id="g288"><path id="path290" style="fill:#800000;fill-opacity:1;fill-rule:nonzero;stroke:none" d="M 0,0 C 6.706,10.485 14.598,11.501 27.136,9.9 22.901,2.12 16.975,-6.597 0,0"/></g><g transform="translate(580.7998,645.4775)" id="g292"><path id="path294" style="fill:#ee6c6c;fill-opacity:1;fill-rule:nonzero;stroke:none" d="m 0,0 c 0,0 -24.708,-23.144 -24.793,-36.3 -0.025,-4.267 5.071,-7.588 5.614,-11.829 0.615,-4.798 -2.806,-14.275 -2.806,-14.275 0,0 10.867,9.627 11.228,15.091 0.312,4.767 -4.078,9.094 -4.211,13.867 C -15.301,-21.495 0,0 0,0"/></g><g transform="translate(542.4414,626.3071)" id="g296"><path id="path298" style="fill:#ee6c6c;fill-opacity:1;fill-rule:nonzero;stroke:none" d="m 0,0 c 0,0 9.536,4.111 11.228,6.933 1.667,2.783 1.264,8.001 3.273,10.606 4.206,5.447 14.034,8.972 14.034,8.972 0,0 -13.203,-0.576 -18.244,-6.527 C 8.346,17.689 8.678,12.98 7.953,10.196 7.072,6.816 0,0 0,0"/></g><g transform="translate(604.7031,602.979)" id="g300"><path id="path302" style="fill:#ee6c6c;fill-opacity:1;fill-rule:nonzero;stroke:none" d="m 0,0 c 0,0 -6.813,7.121 -7.051,10.299 -0.234,3.134 2.555,7.764 1.925,10.854 -1.319,6.466 -8.672,13.155 -8.672,13.155 0,0 11.809,-5.183 13.657,-12.402 C 0.573,19.119 -1.914,14.931 -2.542,12.13 -3.307,8.727 0,0 0,0"/></g><g transform="translate(625.9043,633.8877)" id="g304"><path id="path306" style="fill:#ee6c6c;fill-opacity:1;fill-rule:nonzero;stroke:none" d="m 0,0 c 0,0 -7.995,6.12 -8.793,9.227 -0.785,3.063 1.148,8.014 -0.02,10.982 -2.448,6.21 -10.899,11.83 -10.899,11.83 0,0 12.584,-3.531 15.691,-10.415 1.198,-2.655 -0.516,-7.13 -0.641,-9.983 C -4.815,8.177 -0.002,0 -0.002,0 L 0,0 Z"/></g></g></g></g></svg>