<?xml version="1.0" encoding="UTF-8"?>
<!DOCTYPE svg PUBLIC "-//W3C//DTD SVG 1.1//EN" "http://www.w3.org/Graphics/SVG/1.1/DTD/svg11.dtd">
<svg xmlns="http://www.w3.org/2000/svg" version="1.1" width="700px" height="850px" style="shape-rendering:geometricPrecision; text-rendering:geometricPrecision; image-rendering:optimizeQuality; fill-rule:evenodd; clip-rule:evenodd" xmlns:xlink="http://www.w3.org/1999/xlink">
<g><path style="opacity:1" fill="#4d4100" d="M 76.5,74.5 C 258.5,74.5 440.5,74.5 622.5,74.5C 622.667,199.167 622.5,323.834 622,448.5C 616.593,496.127 604.927,542.127 587,586.5C 560.17,635.918 525.337,679.084 482.5,716C 451.746,738.544 418.079,755.544 381.5,767C 374.105,769.132 366.772,771.465 359.5,774C 352.833,776 346.167,776 339.5,774C 307.673,764.415 277.006,752.082 247.5,737C 222.337,721.187 199.504,702.354 179,680.5C 168.373,667.538 157.373,654.871 146,642.5C 134.177,624.199 122.844,605.532 112,586.5C 94.0733,542.127 82.4067,496.127 77,448.5C 76.5,323.834 76.3333,199.167 76.5,74.5 Z"/></g>
<g><path style="opacity:1" fill="#fe0000" d="M 81.5,79.5 C 260.167,79.5 438.833,79.5 617.5,79.5C 617.667,201.834 617.5,324.167 617,446.5C 611.753,494.488 600.086,540.821 582,585.5C 556.351,633.497 522.851,675.331 481.5,711C 455.274,730.453 426.607,745.786 395.5,757C 380.192,761.936 364.858,766.77 349.5,771.5C 314.23,762.189 280.563,749.023 248.5,732C 224.677,717.526 203.177,700.026 184,679.5C 168.166,662.01 153.499,643.677 140,624.5C 132.068,611.632 124.401,598.632 117,585.5C 98.9135,540.821 87.2469,494.488 82,446.5C 81.5,324.167 81.3333,201.834 81.5,79.5 Z"/></g>
<g><path style="opacity:1" fill="#4d4100" d="M 285.5,133.5 C 319.45,131.469 340.783,146.802 349.5,179.5C 358.191,146.652 379.525,131.485 413.5,134C 442.75,140.417 458.084,158.584 459.5,188.5C 459.655,195.05 458.655,201.384 456.5,207.5C 455.325,207.719 454.325,207.386 453.5,206.5C 452.245,200.129 450.078,194.129 447,188.5C 434.798,178.298 424.464,179.965 416,193.5C 415.206,196.471 414.539,199.471 414,202.5C 413.5,251.832 413.333,301.166 413.5,350.5C 454.835,350.667 496.168,350.5 537.5,350C 553.106,348.24 559.606,339.74 557,324.5C 555.533,321.734 553.7,319.234 551.5,317C 545.976,314.869 540.309,313.202 534.5,312C 533.027,311.29 532.36,310.124 532.5,308.5C 564.426,298.884 587.926,308.884 603,338.5C 612.024,366.948 604.524,389.781 580.5,407C 574.237,410.587 567.571,413.087 560.5,414.5C 593.348,423.191 608.515,444.525 606,478.5C 600.064,506.103 583.064,521.436 555,524.5C 547.306,524.045 539.806,522.712 532.5,520.5C 532.36,518.876 533.027,517.71 534.5,517C 540.309,515.798 545.976,514.131 551.5,512C 561.702,499.798 560.035,489.464 546.5,481C 543.529,480.206 540.529,479.539 537.5,479C 496.168,478.5 454.835,478.333 413.5,478.5C 413.333,527.834 413.5,577.168 414,626.5C 415.76,642.106 424.26,648.606 439.5,646C 448.183,641.153 452.683,633.653 453,623.5C 453.71,622.027 454.876,621.36 456.5,621.5C 465.103,653.451 454.77,676.951 425.5,692C 397.052,701.024 374.219,693.524 357,669.5C 353.413,663.237 350.913,656.571 349.5,649.5C 340.809,682.348 319.475,697.515 285.5,695C 256.25,688.583 240.916,670.416 239.5,640.5C 239.345,633.95 240.345,627.616 242.5,621.5C 243.675,621.281 244.675,621.614 245.5,622.5C 246.755,628.871 248.922,634.871 252,640.5C 264.202,650.702 274.536,649.035 283,635.5C 283.794,632.529 284.461,629.529 285,626.5C 285.5,577.168 285.667,527.834 285.5,478.5C 244.165,478.333 202.832,478.5 161.5,479C 145.894,480.76 139.394,489.26 142,504.5C 143.467,507.266 145.3,509.766 147.5,512C 153.024,514.131 158.691,515.798 164.5,517C 165.973,517.71 166.64,518.876 166.5,520.5C 134.574,530.116 111.074,520.116 96,490.5C 86.9763,462.052 94.4763,439.219 118.5,422C 124.763,418.413 131.429,415.913 138.5,414.5C 105.652,405.809 90.4854,384.475 93,350.5C 98.9358,322.897 115.936,307.564 144,304.5C 151.694,304.955 159.194,306.288 166.5,308.5C 166.64,310.124 165.973,311.29 164.5,312C 158.691,313.202 153.024,314.869 147.5,317C 137.298,329.202 138.965,339.536 152.5,348C 155.471,348.794 158.471,349.461 161.5,350C 202.832,350.5 244.165,350.667 285.5,350.5C 285.667,301.166 285.5,251.832 285,202.5C 283.24,186.894 274.74,180.394 259.5,183C 250.817,187.847 246.317,195.347 246,205.5C 245.29,206.973 244.124,207.64 242.5,207.5C 233.897,175.549 244.23,152.049 273.5,137C 277.623,135.808 281.623,134.641 285.5,133.5 Z"/></g>
<g><path style="opacity:1" fill="#bfc0bf" d="M 288.5,136.5 C 321.277,136.945 340.61,153.278 346.5,185.5C 348.5,185.5 350.5,185.5 352.5,185.5C 356.714,158.786 372.047,142.619 398.5,137C 430.009,136.511 449.176,151.677 456,182.5C 456.903,188.281 456.57,193.947 455,199.5C 451.761,181.632 441.261,175.132 423.5,180C 416.195,183.984 412.029,190.15 411,198.5C 410.5,250.166 410.333,301.832 410.5,353.5C 454.168,353.667 497.835,353.5 541.5,353C 559.792,348.589 565.625,337.423 559,319.5C 554.866,312.591 548.699,309.424 540.5,310C 564.21,305.266 582.71,313.099 596,333.5C 608.544,358.78 604.378,380.947 583.5,400C 574.95,406.607 565.284,410.44 554.5,411.5C 554.5,413.5 554.5,415.5 554.5,417.5C 581.214,421.714 597.381,437.047 603,463.5C 602.913,496.759 586.413,516.092 553.5,521.5C 549.043,521.174 544.71,520.341 540.5,519C 551.521,519.251 558.355,514.084 561,503.5C 563.207,488.063 556.707,478.897 541.5,476C 497.835,475.5 454.168,475.333 410.5,475.5C 410.333,527.168 410.5,578.834 411,630.5C 414.734,647.794 425.234,653.96 442.5,649C 450.268,644.882 454.435,638.382 455,629.5C 458.727,653.216 450.56,671.716 430.5,685C 405.22,697.544 383.053,693.378 364,672.5C 357.393,663.95 353.56,654.284 352.5,643.5C 350.5,643.5 348.5,643.5 346.5,643.5C 342.286,670.214 326.953,686.381 300.5,692C 268.991,692.489 249.824,677.323 243,646.5C 242.097,640.719 242.43,635.053 244,629.5C 247.239,647.368 257.739,653.868 275.5,649C 282.805,645.016 286.971,638.85 288,630.5C 288.5,578.834 288.667,527.168 288.5,475.5C 244.832,475.333 201.165,475.5 157.5,476C 139.208,480.411 133.375,491.577 140,509.5C 144.134,516.409 150.301,519.576 158.5,519C 134.79,523.734 116.29,515.901 103,495.5C 90.4557,470.22 94.6224,448.053 115.5,429C 124.05,422.393 133.716,418.56 144.5,417.5C 144.5,415.5 144.5,413.5 144.5,411.5C 117.786,407.286 101.619,391.953 96,365.5C 96.087,332.241 112.587,312.908 145.5,307.5C 149.957,307.826 154.29,308.659 158.5,310C 147.479,309.749 140.645,314.916 138,325.5C 135.793,340.937 142.293,350.103 157.5,353C 201.165,353.5 244.832,353.667 288.5,353.5C 288.667,301.832 288.5,250.166 288,198.5C 284.266,181.206 273.766,175.04 256.5,180C 248.732,184.118 244.565,190.618 244,199.5C 240.273,175.784 248.44,157.284 268.5,144C 274.878,140.379 281.545,137.879 288.5,136.5 Z"/></g>
</svg>
