<?xml version="1.0" encoding="UTF-8"?>
<!DOCTYPE svg PUBLIC "-//W3C//DTD SVG 1.1//EN" "http://www.w3.org/Graphics/SVG/1.1/DTD/svg11.dtd">
<svg xmlns="http://www.w3.org/2000/svg" version="1.1" width="700px" height="850px" style="shape-rendering:geometricPrecision; text-rendering:geometricPrecision; image-rendering:optimizeQuality; fill-rule:evenodd; clip-rule:evenodd" xmlns:xlink="http://www.w3.org/1999/xlink">
<g><path style="opacity:1" fill="#483d00" d="M 76.5,74.5 C 258.5,74.5 440.5,74.5 622.5,74.5C 622.667,199.167 622.5,323.834 622,448.5C 616.593,496.127 604.927,542.127 587,586.5C 560.17,635.918 525.337,679.084 482.5,716C 451.746,738.544 418.079,755.544 381.5,767C 374.105,769.132 366.772,771.465 359.5,774C 352.833,776 346.167,776 339.5,774C 307.673,764.415 277.006,752.082 247.5,737C 222.337,721.187 199.504,702.354 179,680.5C 168.373,667.538 157.373,654.871 146,642.5C 134.177,624.199 122.844,605.532 112,586.5C 94.0733,542.127 82.4067,496.127 77,448.5C 76.5,323.834 76.3333,199.167 76.5,74.5 Z"/></g>
<g><path style="opacity:1" fill="#fe0000" d="M 81.5,79.5 C 260.167,79.5 438.833,79.5 617.5,79.5C 617.5,152.5 617.5,225.5 617.5,298.5C 438.833,298.5 260.167,298.5 81.5,298.5C 81.5,225.5 81.5,152.5 81.5,79.5 Z"/></g>
<g><path style="opacity:1" fill="#4e4100" d="M 148.5,104.5 C 162.685,102.837 172.519,108.504 178,121.5C 180.626,129.815 179.959,137.815 176,145.5C 169.373,153.796 162.373,161.796 155,169.5C 152.999,172.52 151.332,175.52 150,178.5C 153.479,175.35 156.646,171.85 159.5,168C 160.833,167.333 162.167,166.667 163.5,166C 177.15,163.558 190.817,161.225 204.5,159C 211.658,155.588 218.658,151.922 225.5,148C 227.019,146.649 228.352,145.149 229.5,143.5C 232.727,146.214 234.394,149.714 234.5,154C 232.061,161.929 229.394,169.762 226.5,177.5C 233.416,179.312 240.416,180.146 247.5,180C 250.082,176.718 253.416,175.718 257.5,177C 260.167,180.667 260.167,184.333 257.5,188C 258.746,192.49 258.58,196.99 257,201.5C 250.45,207.051 243.617,212.217 236.5,217C 229.814,224.209 223.981,232.042 219,240.5C 218.095,246.14 218.595,251.64 220.5,257C 220.122,258.635 219.456,260.135 218.5,261.5C 215.921,260.294 213.421,258.961 211,257.5C 210.667,261.833 210.333,266.167 210,270.5C 205.82,268.412 201.82,266.079 198,263.5C 195.509,266.473 193.509,269.806 192,273.5C 190.249,274.809 188.749,274.475 187.5,272.5C 186.673,268.541 186.173,264.541 186,260.5C 182.167,257.333 178.333,254.167 174.5,251C 170.833,250.333 167.167,250.333 163.5,251C 158.884,255.738 154.384,260.571 150,265.5C 148.991,267.025 148.491,268.692 148.5,270.5C 147.178,270.67 146.011,270.337 145,269.5C 143.248,266.328 141.248,263.328 139,260.5C 135.912,262.294 132.746,263.961 129.5,265.5C 128.511,261.893 128.177,258.226 128.5,254.5C 122.848,255.302 117.182,255.469 111.5,255C 117.655,250.089 123.989,245.423 130.5,241C 132.767,238.066 133.434,234.899 132.5,231.5C 124.378,227.885 117.545,222.552 112,215.5C 109.499,210.494 106.499,205.827 103,201.5C 100.534,187.935 103.201,175.602 111,164.5C 117.69,156.464 125.523,149.964 134.5,145C 131.924,144.218 129.924,142.718 128.5,140.5C 131.772,132.076 131.772,123.743 128.5,115.5C 130.537,112.637 133.204,110.47 136.5,109C 140.715,107.766 144.715,106.266 148.5,104.5 Z"/></g>
<g><path style="opacity:1" fill="#4e4100" d="M 317.5,105.5 C 331.685,103.837 341.519,109.504 347,122.5C 349.626,130.815 348.959,138.815 345,146.5C 338.373,154.796 331.373,162.796 324,170.5C 321.999,173.52 320.332,176.52 319,179.5C 322.479,176.35 325.646,172.85 328.5,169C 329.833,168.333 331.167,167.667 332.5,167C 346.15,164.558 359.817,162.225 373.5,160C 380.658,156.588 387.658,152.922 394.5,149C 396.019,147.649 397.352,146.149 398.5,144.5C 401.727,147.214 403.394,150.714 403.5,155C 401.061,162.929 398.394,170.762 395.5,178.5C 402.416,180.312 409.416,181.146 416.5,181C 419.082,177.718 422.416,176.718 426.5,178C 429.167,181.667 429.167,185.333 426.5,189C 427.746,193.49 427.58,197.99 426,202.5C 419.45,208.051 412.617,213.217 405.5,218C 398.814,225.209 392.981,233.042 388,241.5C 387.095,247.14 387.595,252.64 389.5,258C 389.122,259.635 388.456,261.135 387.5,262.5C 384.921,261.294 382.421,259.961 380,258.5C 379.667,262.833 379.333,267.167 379,271.5C 374.82,269.412 370.82,267.079 367,264.5C 364.509,267.473 362.509,270.806 361,274.5C 359.249,275.809 357.749,275.475 356.5,273.5C 355.673,269.541 355.173,265.541 355,261.5C 351.167,258.333 347.333,255.167 343.5,252C 339.833,251.333 336.167,251.333 332.5,252C 327.884,256.738 323.384,261.571 319,266.5C 317.991,268.025 317.491,269.692 317.5,271.5C 316.178,271.67 315.011,271.337 314,270.5C 312.248,267.328 310.248,264.328 308,261.5C 304.912,263.294 301.746,264.961 298.5,266.5C 297.511,262.893 297.177,259.226 297.5,255.5C 291.848,256.302 286.182,256.469 280.5,256C 286.655,251.089 292.989,246.423 299.5,242C 301.767,239.066 302.434,235.899 301.5,232.5C 293.378,228.885 286.545,223.552 281,216.5C 278.499,211.494 275.499,206.827 272,202.5C 269.534,188.935 272.201,176.602 280,165.5C 286.69,157.464 294.523,150.964 303.5,146C 300.924,145.218 298.924,143.718 297.5,141.5C 300.772,133.076 300.772,124.743 297.5,116.5C 299.537,113.637 302.204,111.47 305.5,110C 309.715,108.766 313.715,107.266 317.5,105.5 Z"/></g>
<g><path style="opacity:1" fill="#4e4100" d="M 486.5,106.5 C 500.685,104.837 510.519,110.504 516,123.5C 518.626,131.815 517.959,139.815 514,147.5C 507.373,155.796 500.373,163.796 493,171.5C 490.999,174.52 489.332,177.52 488,180.5C 491.479,177.35 494.646,173.85 497.5,170C 498.833,169.333 500.167,168.667 501.5,168C 515.15,165.558 528.817,163.225 542.5,161C 549.658,157.588 556.658,153.922 563.5,150C 565.019,148.649 566.352,147.149 567.5,145.5C 570.727,148.214 572.394,151.714 572.5,156C 570.061,163.929 567.394,171.762 564.5,179.5C 571.416,181.312 578.416,182.146 585.5,182C 588.082,178.718 591.416,177.718 595.5,179C 598.167,182.667 598.167,186.333 595.5,190C 596.746,194.49 596.58,198.99 595,203.5C 588.45,209.051 581.617,214.217 574.5,219C 567.814,226.209 561.981,234.042 557,242.5C 556.095,248.14 556.595,253.64 558.5,259C 558.122,260.635 557.456,262.135 556.5,263.5C 553.921,262.294 551.421,260.961 549,259.5C 548.667,263.833 548.333,268.167 548,272.5C 543.82,270.412 539.82,268.079 536,265.5C 533.509,268.473 531.509,271.806 530,275.5C 528.249,276.809 526.749,276.475 525.5,274.5C 524.673,270.541 524.173,266.541 524,262.5C 520.167,259.333 516.333,256.167 512.5,253C 508.833,252.333 505.167,252.333 501.5,253C 496.884,257.738 492.384,262.571 488,267.5C 486.991,269.025 486.491,270.692 486.5,272.5C 485.178,272.67 484.011,272.337 483,271.5C 481.248,268.328 479.248,265.328 477,262.5C 473.912,264.294 470.746,265.961 467.5,267.5C 466.511,263.893 466.177,260.226 466.5,256.5C 460.848,257.302 455.182,257.469 449.5,257C 455.655,252.089 461.989,247.423 468.5,243C 470.767,240.066 471.434,236.899 470.5,233.5C 462.378,229.885 455.545,224.552 450,217.5C 447.499,212.494 444.499,207.827 441,203.5C 438.534,189.935 441.201,177.602 449,166.5C 455.69,158.464 463.523,151.964 472.5,147C 469.924,146.218 467.924,144.718 466.5,142.5C 469.772,134.076 469.772,125.743 466.5,117.5C 468.537,114.637 471.204,112.47 474.5,111C 478.715,109.766 482.715,108.266 486.5,106.5 Z"/></g>
<g><path style="opacity:1" fill="#bfbfbf" d="M 148.5,107.5 C 152.846,107.334 157.179,107.501 161.5,108C 173.543,114.056 178.376,123.89 176,137.5C 175.158,140.689 173.825,143.689 172,146.5C 158.25,160.371 146.417,175.204 136.5,191C 139.597,190.262 141.931,188.262 143.5,185C 147.112,183.861 150.446,182.194 153.5,180C 156.88,174.953 161.214,170.953 166.5,168C 179.528,166.106 192.528,164.106 205.5,162C 213.864,158.134 221.864,153.634 229.5,148.5C 232.584,161.485 227.584,169.651 214.5,173C 203.415,174.521 192.415,176.521 181.5,179C 179.003,179.412 177.003,180.578 175.5,182.5C 176,182.833 176.5,183.167 177,183.5C 189.702,180.36 202.536,177.86 215.5,176C 218.208,174.931 220.875,173.764 223.5,172.5C 224.151,179.687 221.817,185.854 216.5,191C 201.563,195.754 186.23,198.254 170.5,198.5C 170.5,199.5 170.5,200.5 170.5,201.5C 185.088,200.857 199.422,199.024 213.5,196C 207.373,203.965 199.373,208.799 189.5,210.5C 199.578,210.712 207.745,206.712 214,198.5C 211.763,204.093 207.929,208.593 202.5,212C 186.834,215.001 171.168,215.168 155.5,212.5C 154.396,213.631 154.729,214.465 156.5,215C 169.566,216.973 182.566,216.973 195.5,215C 181.883,222.657 167.55,224.324 152.5,220C 148.835,218.722 145.168,217.556 141.5,216.5C 141.281,217.675 141.614,218.675 142.5,219.5C 167.295,229.562 190.128,226.228 211,209.5C 213,206.833 215,204.167 217,201.5C 218.125,198.216 219.125,194.883 220,191.5C 222.335,188.834 224.169,185.834 225.5,182.5C 227,182.167 228.5,181.833 230,181.5C 236.418,183.144 242.918,183.644 249.5,183C 251.067,180.259 253.401,179.092 256.5,179.5C 256.844,182.62 256.177,185.453 254.5,188C 256.095,192.74 255.595,197.24 253,201.5C 243.08,207.758 234.08,215.091 226,223.5C 221.897,228.705 218.563,234.372 216,240.5C 215.544,246.204 215.544,251.87 216,257.5C 213.165,256.084 210.498,254.417 208,252.5C 207.667,256.833 207.333,261.167 207,265.5C 204.144,263.156 200.977,261.489 197.5,260.5C 196.5,260.833 195.5,261.167 194.5,261.5C 193,264.5 191.5,267.5 190,270.5C 189.827,266.459 189.327,262.459 188.5,258.5C 184.022,255.19 179.689,251.69 175.5,248C 171.167,247.333 166.833,247.333 162.5,248C 156.613,253.384 151.28,259.217 146.5,265.5C 144.333,262.5 142.167,259.5 140,256.5C 137.579,257.961 135.079,259.294 132.5,260.5C 131.516,257.572 131.183,254.572 131.5,251.5C 127.746,251.496 124.079,251.663 120.5,252C 125.271,248.862 129.771,245.362 134,241.5C 134.875,238.372 136.042,235.372 137.5,232.5C 146.382,236.775 155.382,240.775 164.5,244.5C 164.833,244.167 165.167,243.833 165.5,243.5C 152.531,237.35 139.531,231.183 126.5,225C 122.701,222.203 119.201,219.036 116,215.5C 113.089,210.249 109.756,205.249 106,200.5C 103.545,187.56 106.211,175.893 114,165.5C 121.82,157.499 130.32,150.499 139.5,144.5C 137.417,143.041 135.25,141.708 133,140.5C 133,135.157 133.5,129.824 134.5,124.5C 133.922,121.512 132.922,118.678 131.5,116C 136.894,112.489 142.561,109.655 148.5,107.5 Z"/></g>
<g><path style="opacity:1" fill="#bfbfbf" d="M 317.5,108.5 C 321.846,108.334 326.179,108.501 330.5,109C 342.543,115.056 347.376,124.89 345,138.5C 344.158,141.689 342.825,144.689 341,147.5C 327.25,161.371 315.417,176.204 305.5,192C 308.597,191.262 310.931,189.262 312.5,186C 316.112,184.861 319.446,183.194 322.5,181C 325.88,175.953 330.214,171.953 335.5,169C 348.528,167.106 361.528,165.106 374.5,163C 382.864,159.134 390.864,154.634 398.5,149.5C 401.584,162.485 396.584,170.651 383.5,174C 372.415,175.521 361.415,177.521 350.5,180C 348.003,180.412 346.003,181.578 344.5,183.5C 345,183.833 345.5,184.167 346,184.5C 358.702,181.36 371.536,178.86 384.5,177C 387.208,175.931 389.875,174.764 392.5,173.5C 393.151,180.687 390.817,186.854 385.5,192C 370.563,196.754 355.23,199.254 339.5,199.5C 339.5,200.5 339.5,201.5 339.5,202.5C 354.088,201.857 368.422,200.024 382.5,197C 376.373,204.965 368.373,209.799 358.5,211.5C 368.578,211.712 376.745,207.712 383,199.5C 380.763,205.093 376.929,209.593 371.5,213C 355.834,216.001 340.168,216.168 324.5,213.5C 323.396,214.631 323.729,215.465 325.5,216C 338.566,217.973 351.566,217.973 364.5,216C 350.883,223.657 336.55,225.324 321.5,221C 317.835,219.722 314.168,218.556 310.5,217.5C 310.281,218.675 310.614,219.675 311.5,220.5C 336.295,230.562 359.128,227.228 380,210.5C 382,207.833 384,205.167 386,202.5C 387.125,199.216 388.125,195.883 389,192.5C 391.335,189.834 393.169,186.834 394.5,183.5C 396,183.167 397.5,182.833 399,182.5C 405.418,184.144 411.918,184.644 418.5,184C 420.067,181.259 422.401,180.092 425.5,180.5C 425.844,183.62 425.177,186.453 423.5,189C 425.095,193.74 424.595,198.24 422,202.5C 412.08,208.758 403.08,216.091 395,224.5C 390.897,229.705 387.563,235.372 385,241.5C 384.544,247.204 384.544,252.87 385,258.5C 382.165,257.084 379.498,255.417 377,253.5C 376.667,257.833 376.333,262.167 376,266.5C 373.144,264.156 369.977,262.489 366.5,261.5C 365.5,261.833 364.5,262.167 363.5,262.5C 362,265.5 360.5,268.5 359,271.5C 358.827,267.459 358.327,263.459 357.5,259.5C 353.022,256.19 348.689,252.69 344.5,249C 340.167,248.333 335.833,248.333 331.5,249C 325.613,254.384 320.28,260.217 315.5,266.5C 313.333,263.5 311.167,260.5 309,257.5C 306.579,258.961 304.079,260.294 301.5,261.5C 300.516,258.572 300.183,255.572 300.5,252.5C 296.746,252.496 293.079,252.663 289.5,253C 294.271,249.862 298.771,246.362 303,242.5C 303.875,239.372 305.042,236.372 306.5,233.5C 315.382,237.775 324.382,241.775 333.5,245.5C 333.833,245.167 334.167,244.833 334.5,244.5C 321.531,238.35 308.531,232.183 295.5,226C 291.701,223.203 288.201,220.036 285,216.5C 282.089,211.249 278.756,206.249 275,201.5C 272.545,188.56 275.211,176.893 283,166.5C 290.82,158.499 299.32,151.499 308.5,145.5C 306.417,144.041 304.25,142.708 302,141.5C 302,136.157 302.5,130.824 303.5,125.5C 302.922,122.512 301.922,119.678 300.5,117C 305.894,113.489 311.561,110.655 317.5,108.5 Z"/></g>
<g><path style="opacity:1" fill="#bfbfbf" d="M 486.5,109.5 C 490.846,109.334 495.179,109.501 499.5,110C 511.543,116.056 516.376,125.89 514,139.5C 513.158,142.689 511.825,145.689 510,148.5C 496.25,162.371 484.417,177.204 474.5,193C 477.597,192.262 479.931,190.262 481.5,187C 485.112,185.861 488.446,184.194 491.5,182C 494.88,176.953 499.214,172.953 504.5,170C 517.528,168.106 530.528,166.106 543.5,164C 551.864,160.134 559.864,155.634 567.5,150.5C 570.584,163.485 565.584,171.651 552.5,175C 541.415,176.521 530.415,178.521 519.5,181C 517.003,181.412 515.003,182.578 513.5,184.5C 514,184.833 514.5,185.167 515,185.5C 527.702,182.36 540.536,179.86 553.5,178C 556.208,176.931 558.875,175.764 561.5,174.5C 562.151,181.687 559.817,187.854 554.5,193C 539.563,197.754 524.23,200.254 508.5,200.5C 508.5,201.5 508.5,202.5 508.5,203.5C 523.088,202.857 537.422,201.024 551.5,198C 545.373,205.965 537.373,210.799 527.5,212.5C 537.578,212.712 545.745,208.712 552,200.5C 549.763,206.093 545.929,210.593 540.5,214C 524.834,217.001 509.168,217.168 493.5,214.5C 492.396,215.631 492.729,216.465 494.5,217C 507.566,218.973 520.566,218.973 533.5,217C 519.883,224.657 505.55,226.324 490.5,222C 486.835,220.722 483.168,219.556 479.5,218.5C 479.281,219.675 479.614,220.675 480.5,221.5C 505.295,231.562 528.128,228.228 549,211.5C 551,208.833 553,206.167 555,203.5C 556.125,200.216 557.125,196.883 558,193.5C 560.335,190.834 562.169,187.834 563.5,184.5C 565,184.167 566.5,183.833 568,183.5C 574.418,185.144 580.918,185.644 587.5,185C 589.067,182.259 591.401,181.092 594.5,181.5C 594.844,184.62 594.177,187.453 592.5,190C 594.095,194.74 593.595,199.24 591,203.5C 581.08,209.758 572.08,217.091 564,225.5C 559.897,230.705 556.563,236.372 554,242.5C 553.544,248.204 553.544,253.87 554,259.5C 551.165,258.084 548.498,256.417 546,254.5C 545.667,258.833 545.333,263.167 545,267.5C 542.144,265.156 538.977,263.489 535.5,262.5C 534.5,262.833 533.5,263.167 532.5,263.5C 531,266.5 529.5,269.5 528,272.5C 527.827,268.459 527.327,264.459 526.5,260.5C 522.022,257.19 517.689,253.69 513.5,250C 509.167,249.333 504.833,249.333 500.5,250C 494.613,255.384 489.28,261.217 484.5,267.5C 482.333,264.5 480.167,261.5 478,258.5C 475.579,259.961 473.079,261.294 470.5,262.5C 469.516,259.572 469.183,256.572 469.5,253.5C 465.746,253.496 462.079,253.663 458.5,254C 463.271,250.862 467.771,247.362 472,243.5C 472.875,240.372 474.042,237.372 475.5,234.5C 484.382,238.775 493.382,242.775 502.5,246.5C 502.833,246.167 503.167,245.833 503.5,245.5C 490.531,239.35 477.531,233.183 464.5,227C 460.701,224.203 457.201,221.036 454,217.5C 451.089,212.249 447.756,207.249 444,202.5C 441.545,189.56 444.211,177.893 452,167.5C 459.82,159.499 468.32,152.499 477.5,146.5C 475.417,145.041 473.25,143.708 471,142.5C 471,137.157 471.5,131.824 472.5,126.5C 471.922,123.512 470.922,120.678 469.5,118C 474.894,114.489 480.561,111.655 486.5,109.5 Z"/></g>
<g><path style="opacity:1" fill="#4d4100" d="M 142.5,115.5 C 149.819,113.681 153.319,116.347 153,123.5C 150.091,126.394 146.591,127.227 142.5,126C 138.565,122.504 138.565,119.004 142.5,115.5 Z"/></g>
<g><path style="opacity:1" fill="#4d4100" d="M 311.5,116.5 C 318.819,114.681 322.319,117.347 322,124.5C 319.091,127.394 315.591,128.227 311.5,127C 307.565,123.504 307.565,120.004 311.5,116.5 Z"/></g>
<g><path style="opacity:1" fill="#bfc0bf" d="M 144.5,117.5 C 147.599,117.092 149.933,118.259 151.5,121C 150.667,121.833 149.833,122.667 149,123.5C 147.747,119.956 145.913,119.623 143.5,122.5C 142.692,122.192 142.025,121.692 141.5,121C 142.71,119.961 143.71,118.794 144.5,117.5 Z"/></g>
<g><path style="opacity:1" fill="#4d4100" d="M 480.5,117.5 C 487.819,115.681 491.319,118.347 491,125.5C 488.091,128.394 484.591,129.227 480.5,128C 476.565,124.504 476.565,121.004 480.5,117.5 Z"/></g>
<g><path style="opacity:1" fill="#bfc0bf" d="M 313.5,118.5 C 316.599,118.092 318.933,119.259 320.5,122C 319.667,122.833 318.833,123.667 318,124.5C 316.747,120.956 314.913,120.623 312.5,123.5C 311.692,123.192 311.025,122.692 310.5,122C 311.71,120.961 312.71,119.794 313.5,118.5 Z"/></g>
<g><path style="opacity:1" fill="#bfc0bf" d="M 482.5,119.5 C 485.599,119.092 487.933,120.259 489.5,123C 488.667,123.833 487.833,124.667 487,125.5C 485.747,121.956 483.913,121.623 481.5,124.5C 480.692,124.192 480.025,123.692 479.5,123C 480.71,121.961 481.71,120.794 482.5,119.5 Z"/></g>
<g><path style="opacity:1" fill="#fed700" d="M 81.5,302.5 C 260.167,302.5 438.833,302.5 617.5,302.5C 617.963,353.193 617.463,403.859 616,454.5C 610.675,502.14 598.341,547.807 579,591.5C 553.506,636.95 521.006,676.784 481.5,711C 455.274,730.453 426.607,745.786 395.5,757C 380.192,761.936 364.858,766.77 349.5,771.5C 314.23,762.189 280.563,749.023 248.5,732C 224.677,717.526 203.177,700.026 184,679.5C 168.166,662.01 153.499,643.677 140,624.5C 133.585,613.334 126.918,602.334 120,591.5C 100.659,547.807 88.3252,502.14 83,454.5C 81.5372,403.859 81.0372,353.193 81.5,302.5 Z"/></g>
</svg>
