<?xml version="1.0" encoding="UTF-8"?>
<!DOCTYPE svg PUBLIC "-//W3C//DTD SVG 1.1//EN" "http://www.w3.org/Graphics/SVG/1.1/DTD/svg11.dtd">
<svg xmlns="http://www.w3.org/2000/svg" version="1.1" width="700px" height="850px" style="shape-rendering:geometricPrecision; text-rendering:geometricPrecision; image-rendering:optimizeQuality; fill-rule:evenodd; clip-rule:evenodd" xmlns:xlink="http://www.w3.org/1999/xlink">
<g><path style="opacity:1" fill="#493d00" d="M 76.5,74.5 C 258.5,74.5 440.5,74.5 622.5,74.5C 622.667,199.167 622.5,323.834 622,448.5C 616.593,496.127 604.927,542.127 587,586.5C 560.17,635.918 525.337,679.084 482.5,716C 451.746,738.544 418.079,755.544 381.5,767C 374.105,769.132 366.772,771.465 359.5,774C 352.833,776 346.167,776 339.5,774C 307.673,764.415 277.006,752.082 247.5,737C 222.337,721.187 199.504,702.354 179,680.5C 168.373,667.538 157.373,654.871 146,642.5C 134.177,624.199 122.844,605.532 112,586.5C 94.0733,542.127 82.4067,496.127 77,448.5C 76.5,323.834 76.3333,199.167 76.5,74.5 Z"/></g>
<g><path style="opacity:1" fill="#fed700" d="M 243.5,143.5 C 243.572,140.478 242.238,138.312 239.5,137C 230.978,134.023 222.645,134.69 214.5,139C 218.095,141.963 222.095,144.13 226.5,145.5C 178.171,146.5 129.838,146.833 81.5,146.5C 81.5,124.167 81.5,101.833 81.5,79.5C 260.167,79.5 438.833,79.5 617.5,79.5C 617.5,101.833 617.5,124.167 617.5,146.5C 578.499,146.667 539.499,146.5 500.5,146C 492.483,139.566 483.483,137.899 473.5,141C 469.323,145.452 464.99,145.452 460.5,141C 456.115,137.205 453.615,132.371 453,126.5C 449.534,123.313 445.534,122.646 441,124.5C 439.351,125.786 438.185,127.453 437.5,129.5C 440.145,130.192 442.645,131.192 445,132.5C 446.892,136.626 448.059,140.959 448.5,145.5C 431.179,146.5 413.846,146.833 396.5,146.5C 394.126,140.73 392.126,134.73 390.5,128.5C 391.868,122.098 395.034,116.764 400,112.5C 401.395,107.11 402.895,101.777 404.5,96.5C 398.648,94.7562 393.981,96.4228 390.5,101.5C 391.485,103.098 391.651,104.765 391,106.5C 389.425,100.859 386.759,100.192 383,104.5C 381.627,106.695 381.294,109.029 382,111.5C 384.079,113.077 385.579,115.077 386.5,117.5C 384.262,123.529 381.428,123.863 378,118.5C 377.79,117.197 377.957,115.864 378.5,114.5C 378.456,111.59 377.29,110.59 375,111.5C 373.861,114.261 373.194,116.927 373,119.5C 371.556,121.155 369.722,121.822 367.5,121.5C 367.224,116.588 369.058,112.588 373,109.5C 376.117,102.31 373.951,99.4767 366.5,101C 368.66,95.9581 367.327,92.1247 362.5,89.5C 357.673,92.1247 356.34,95.9581 358.5,101C 351.049,99.4767 348.883,102.31 352,109.5C 355.942,112.588 357.776,116.588 357.5,121.5C 355.278,121.822 353.444,121.155 352,119.5C 351.806,116.927 351.139,114.261 350,111.5C 347.71,110.59 346.544,111.59 346.5,114.5C 347.599,117.969 346.432,120.636 343,122.5C 340.614,121.615 339.114,119.948 338.5,117.5C 339.421,115.077 340.921,113.077 343,111.5C 343.997,106.827 342.33,103.494 338,101.5C 335.974,102.52 334.641,104.187 334,106.5C 334.749,99.5652 331.416,95.8986 324,95.5C 322.833,95.8333 321.667,96.1667 320.5,96.5C 322.105,101.777 323.605,107.11 325,112.5C 331.005,117.506 334.005,123.84 334,131.5C 332.555,134.09 331.388,136.757 330.5,139.5C 324.155,138.005 319.822,140.172 317.5,146C 302.17,146.5 286.837,146.667 271.5,146.5C 269.222,140.773 268.056,134.773 268,128.5C 264.438,122.579 259.272,119.745 252.5,120C 255.183,121.845 256.85,124.345 257.5,127.5C 255.561,130.615 253.394,133.615 251,136.5C 250.503,138.81 250.337,141.143 250.5,143.5C 248.167,143.5 245.833,143.5 243.5,143.5 Z"/></g>
<g><path style="opacity:1" fill="#fe0000" d="M 361.5,91.5 C 365.428,93.573 366.428,96.7397 364.5,101C 364.95,102.285 365.617,103.452 366.5,104.5C 365.833,105.167 365.167,105.833 364.5,106.5C 364.833,106.833 365.167,107.167 365.5,107.5C 367.361,106.472 368.695,104.972 369.5,103C 370.448,102.517 371.448,102.351 372.5,102.5C 372.628,104.655 372.128,106.655 371,108.5C 368.443,111.392 366.276,114.559 364.5,118C 365.237,122.703 367.903,124.37 372.5,123C 374.774,120.656 375.941,117.822 376,114.5C 375.812,119.323 377.812,122.99 382,125.5C 389.949,120.648 390.449,115.315 383.5,109.5C 385.649,101.793 388.149,101.793 391,109.5C 393.593,107.3 394.26,104.633 393,101.5C 395.298,98.5688 398.131,97.5688 401.5,98.5C 400.668,102.155 399.835,105.821 399,109.5C 396.089,112.99 393.422,116.656 391,120.5C 389.241,123.608 388.408,126.941 388.5,130.5C 371.167,130.5 353.833,130.5 336.5,130.5C 336.579,127.729 336.079,125.063 335,122.5C 332.247,117.992 329.247,113.659 326,109.5C 325.165,105.821 324.332,102.155 323.5,98.5C 326.869,97.5688 329.702,98.5688 332,101.5C 330.74,104.633 331.407,107.3 334,109.5C 336.851,101.793 339.351,101.793 341.5,109.5C 334.551,115.315 335.051,120.648 343,125.5C 347.188,122.99 349.188,119.323 349,114.5C 348.693,120.828 351.526,123.661 357.5,123C 359.004,121.663 360.004,119.996 360.5,118C 358.724,114.559 356.557,111.392 354,108.5C 352.872,106.655 352.372,104.655 352.5,102.5C 353.552,102.351 354.552,102.517 355.5,103C 356.257,104.512 357.257,105.846 358.5,107C 359.332,107.688 359.998,107.521 360.5,106.5C 359.833,105.833 359.167,105.167 358.5,104.5C 360.833,102.299 361.166,99.7986 359.5,97C 359.954,95.0614 360.621,93.228 361.5,91.5 Z"/></g>
<g><path style="opacity:1" fill="#fe0000" d="M 257.5,123.5 C 258.721,122.535 260.054,122.702 261.5,124C 265.703,128.075 267.703,133.075 267.5,139C 264.568,141.614 261.401,143.781 258,145.5C 252.306,144.184 250.972,140.851 254,135.5C 255.667,133.833 257.333,132.167 259,130.5C 259.826,127.788 259.326,125.455 257.5,123.5 Z"/></g>
<g><path style="opacity:1" fill="#bfc0bf" d="M 474.5,178.5 C 473.883,178.389 473.383,178.056 473,177.5C 466.713,186.122 460.047,194.455 453,202.5C 451.79,207.804 451.29,213.137 451.5,218.5C 450.185,216.684 448.685,215.017 447,213.5C 447.495,203.192 450.329,193.526 455.5,184.5C 455.192,183.692 454.692,183.025 454,182.5C 449.403,190.958 446.403,199.958 445,209.5C 444.358,207.238 443.525,205.071 442.5,203C 444.696,196.061 446.529,188.895 448,181.5C 449.97,178.032 452.136,174.699 454.5,171.5C 453.833,170.167 453.167,170.167 452.5,171.5C 445.803,179.924 442.303,189.591 442,200.5C 440.048,196.696 439.381,192.696 440,188.5C 441.848,179.8 446.014,172.466 452.5,166.5C 451.998,165.479 451.332,165.312 450.5,166C 444.75,171.329 440.916,177.829 439,185.5C 437.326,175.184 440.16,166.35 447.5,159C 453.146,155.951 459.146,153.784 465.5,152.5C 461.318,150.564 456.984,149.064 452.5,148C 450.302,142.657 448.469,137.157 447,131.5C 445.075,129.787 442.908,128.453 440.5,127.5C 443.208,125.564 446.208,125.064 449.5,126C 451.676,129.511 453.176,133.344 454,137.5C 458.239,143.135 463.739,145.968 470.5,146C 485.157,138.124 496.991,141.291 506,155.5C 511.921,168.202 511.921,180.869 506,193.5C 494.474,204.27 483.141,215.27 472,226.5C 469.938,228.901 468.271,231.567 467,234.5C 463.231,244.378 459.731,254.378 456.5,264.5C 457.002,265.521 457.668,265.688 458.5,265C 459.217,259.352 461.217,254.185 464.5,249.5C 473.328,244.92 481.995,240.087 490.5,235C 496.054,229.074 501.387,224.074 506.5,220C 505.436,224.533 503.603,228.7 501,232.5C 494.688,239.149 487.521,244.649 479.5,249C 466.036,260.741 461.369,275.241 465.5,292.5C 466.031,289.901 466.198,287.235 466,284.5C 472.656,275.233 481.49,267.733 492.5,262C 497.746,257.425 502.246,252.258 506,246.5C 506.703,251.727 505.37,256.394 502,260.5C 491.956,267.543 483.623,276.21 477,286.5C 472.568,294.252 472.568,301.918 477,309.5C 477.473,306.049 476.973,302.715 475.5,299.5C 478.623,295.875 481.956,292.375 485.5,289C 493.739,284.381 502.072,280.048 510.5,276C 514.994,271.864 517.16,266.697 517,260.5C 518.555,262.443 519.722,264.61 520.5,267C 519.222,273.892 515.888,279.559 510.5,284C 496.48,289.352 487.313,299.186 483,313.5C 482.333,317.5 482.333,321.5 483,325.5C 486.708,319.249 490.541,313.083 494.5,307C 499.119,304.337 504.119,302.67 509.5,302C 512.04,299.795 514.207,297.295 516,294.5C 516.318,298.705 514.818,302.205 511.5,305C 507.628,307.435 503.628,309.602 499.5,311.5C 497.808,313.359 496.308,315.359 495,317.5C 492.915,328.756 491.249,340.089 490,351.5C 486.622,363.554 479.455,372.721 468.5,379C 454.496,384.277 440.829,383.611 427.5,377C 424.5,375.333 422.167,373 420.5,370C 419.668,369.312 419.002,369.479 418.5,370.5C 425.594,380.263 434.26,388.263 444.5,394.5C 441.893,395.318 439.226,395.818 436.5,396C 439.667,399.167 442.833,402.333 446,405.5C 447.482,412.964 451.316,418.797 457.5,423C 452.889,424.621 448.389,424.121 444,421.5C 443.833,421.833 443.667,422.167 443.5,422.5C 446.142,429.1 448.309,435.766 450,442.5C 452.93,444.066 456.097,444.9 459.5,445C 453.98,449.954 447.647,451.621 440.5,450C 446.883,452.908 448.549,457.408 445.5,463.5C 446.599,467.533 448.599,471.033 451.5,474C 446.165,473.706 441.998,471.206 439,466.5C 438.502,468.527 438.669,470.527 439.5,472.5C 438.596,475.711 437.596,478.877 436.5,482C 436.871,485.455 438.205,488.455 440.5,491C 440.167,491.333 439.833,491.667 439.5,492C 430.152,491.868 425.318,487.035 425,477.5C 424.093,483.473 423.427,489.473 423,495.5C 420.81,500.363 417.81,504.696 414,508.5C 410.447,502.93 407.78,496.93 406,490.5C 404.2,498.254 400.7,505.087 395.5,511C 393.667,512.167 391.833,513.333 390,514.5C 391.731,509.206 390.397,504.873 386,501.5C 385.667,498.5 385.333,495.5 385,492.5C 382.154,494.257 379.488,496.257 377,498.5C 376.285,502.442 374.952,506.109 373,509.5C 372.419,500.508 368.252,498.175 360.5,502.5C 358.616,501.307 358.116,499.641 359,497.5C 362.463,493.981 364.963,490.315 366.5,486.5C 361.645,490.432 356.978,494.599 352.5,499C 347.131,502.636 342.131,502.302 337.5,498C 343.113,496.383 347.613,493.216 351,488.5C 352.396,481.839 349.896,479.006 343.5,480C 342.167,478.667 340.833,477.333 339.5,476C 342.76,476.482 346.093,476.482 349.5,476C 352.374,474.701 354.207,472.535 355,469.5C 356.049,470.517 357.216,470.684 358.5,470C 355.628,467.463 353.128,464.63 351,461.5C 350.251,460.365 350.417,459.365 351.5,458.5C 354.721,461.179 358.221,461.845 362,460.5C 365.535,469.027 371.869,474.36 381,476.5C 385.29,475.883 389.457,474.717 393.5,473C 405.767,462.637 411.6,449.47 411,433.5C 407.243,425.068 401.91,417.735 395,411.5C 389.898,400.322 389.232,388.989 393,377.5C 385.716,381.899 382.216,388.399 382.5,397C 385.112,405.586 384.946,414.086 382,422.5C 379.333,429.082 374.499,431.915 367.5,431C 366.313,429.981 365.313,428.814 364.5,427.5C 371.13,427.607 375.63,424.607 378,418.5C 378.299,408.435 377.965,398.435 377,388.5C 379.007,381.146 380.674,373.813 382,366.5C 380.281,368.557 378.281,370.224 376,371.5C 373.964,371.046 372.13,370.213 370.5,369C 371.624,368.751 372.624,368.251 373.5,367.5C 371.03,366.862 369.363,365.362 368.5,363C 369.987,360.589 370.821,358.089 371,355.5C 369.171,357.156 367.837,359.156 367,361.5C 363.557,359.003 362.724,355.837 364.5,352C 366.608,351.64 368.608,350.973 370.5,350C 364.658,346.246 358.991,342.246 353.5,338C 355.834,337.661 358.168,337.828 360.5,338.5C 361.5,338.333 362.5,338.167 363.5,338C 357.309,335.913 350.975,334.58 344.5,334C 351.5,339 358.5,344 365.5,349C 364.069,349.465 362.903,350.299 362,351.5C 361.333,354.167 361.333,356.833 362,359.5C 364.996,361.914 367.496,364.747 369.5,368C 366.039,367.428 362.539,366.594 359,365.5C 342.369,366.815 335.369,375.815 338,392.5C 341.224,396.281 343.39,400.614 344.5,405.5C 342.503,409.495 340.503,413.495 338.5,417.5C 339.848,419.657 341.848,420.99 344.5,421.5C 342.473,425.105 339.973,425.439 337,422.5C 336.567,417.59 337.067,412.757 338.5,408C 337.724,405.005 336.557,402.172 335,399.5C 329.813,405.94 328.313,413.106 330.5,421C 329.551,421.617 328.718,421.451 328,420.5C 327.261,418.779 326.427,417.113 325.5,415.5C 324.765,418.702 323.598,421.702 322,424.5C 321.385,422.884 320.385,421.551 319,420.5C 319.564,428.631 319.398,436.631 318.5,444.5C 312.929,438.681 310.096,431.681 310,423.5C 306.182,431.727 304.515,440.393 305,449.5C 304.085,450.328 303.419,451.328 303,452.5C 301.093,448.59 298.427,445.256 295,442.5C 294.13,438.176 293.297,433.842 292.5,429.5C 291.083,434.158 291.416,438.658 293.5,443C 291.78,446.341 290.28,449.841 289,453.5C 288,454.5 287,455.5 286,456.5C 285.587,453.768 284.92,451.101 284,448.5C 281.228,444.059 278.894,439.392 277,434.5C 276.93,431.407 277.264,428.407 278,425.5C 275.708,426.79 273.708,428.457 272,430.5C 270.151,436.083 268.484,441.75 267,447.5C 265.867,449.211 264.367,449.711 262.5,449C 263.352,446.583 264.019,444.083 264.5,441.5C 263.423,435.114 262.089,428.78 260.5,422.5C 262.081,418.697 263.581,415.031 265,411.5C 261.667,414.833 258.333,418.167 255,421.5C 253.898,425.416 253.231,429.416 253,433.5C 251.981,434.687 250.814,435.687 249.5,436.5C 249.167,436 248.833,435.5 248.5,435C 249.888,432.522 250.554,429.855 250.5,427C 249.634,422.18 249.467,417.347 250,412.5C 251.925,410.787 254.092,409.453 256.5,408.5C 252.269,407.948 248.935,409.614 246.5,413.5C 243.489,415.91 240.823,415.743 238.5,413C 241.544,410.088 242.711,406.588 242,402.5C 239.428,401.272 237.262,399.605 235.5,397.5C 235.608,396.558 235.941,395.725 236.5,395C 238.78,394.767 240.78,393.934 242.5,392.5C 242.167,392.167 241.833,391.833 241.5,391.5C 238.595,392.813 235.595,393.313 232.5,393C 230.018,391.045 229.852,388.879 232,386.5C 235.199,389.129 238.199,388.796 241,385.5C 241.667,384.167 241.667,382.833 241,381.5C 238.733,378.299 237.066,374.966 236,371.5C 240.625,375.646 244.959,375.313 249,370.5C 252.381,372.88 255.047,375.88 257,379.5C 257.974,373.401 257.14,367.568 254.5,362C 254.6,359.63 255.6,357.797 257.5,356.5C 256.831,364.706 260.497,369.206 268.5,370C 261.108,385.716 265.775,395.883 282.5,400.5C 296.669,397.333 305.669,388.666 309.5,374.5C 308.007,370.176 306.507,365.843 305,361.5C 304.228,356.096 304.561,350.762 306,345.5C 310.833,341.333 315.667,337.167 320.5,333C 311.737,335.775 302.737,338.108 293.5,340C 289,343.428 284,344.762 278.5,344C 282.718,341.718 286.384,338.718 289.5,335C 293.419,333.138 297.419,331.471 301.5,330C 296.16,329.814 290.826,330.148 285.5,331C 269.474,335.147 253.307,338.647 237,341.5C 228.794,342.701 222.628,339.868 218.5,333C 224.273,334.771 230.273,335.938 236.5,336.5C 248.906,332.733 261.573,329.9 274.5,328C 289.756,326.864 304.923,325.03 320,322.5C 329.156,323.294 338.322,324.127 347.5,325C 348.5,326 349.5,327 350.5,328C 345.766,328.683 341.1,329.683 336.5,331C 335.549,331.718 335.383,332.551 336,333.5C 341.479,331.969 346.813,330.303 352,328.5C 360.918,332.417 367.585,338.751 372,347.5C 375.055,352.942 377.555,358.609 379.5,364.5C 379.833,363.667 380.167,362.833 380.5,362C 376.802,350.603 370.802,340.603 362.5,332C 353.114,328.272 345.948,322.105 341,313.5C 338.167,310.667 335.333,307.833 332.5,305C 334.09,303.954 335.59,302.787 337,301.5C 338.806,296.554 341.139,291.888 344,287.5C 344.652,294.139 346.985,300.139 351,305.5C 351.914,310.196 351.414,314.696 349.5,319C 353.065,319.036 356.398,318.036 359.5,316C 362.349,312.984 365.349,310.15 368.5,307.5C 373.476,316.642 380.81,323.142 390.5,327C 393.167,327.667 395.833,327.667 398.5,327C 391.57,320.517 389.404,312.684 392,303.5C 393.333,301.5 394.667,299.5 396,297.5C 403.275,313.717 410.275,330.051 417,346.5C 421.07,353.24 425.904,359.407 431.5,365C 454.351,375.494 469.518,368.661 477,344.5C 479.031,334.87 477.031,326.204 471,318.5C 464.667,310.167 458.333,301.833 452,293.5C 448.374,281.747 446.707,269.747 447,257.5C 449.777,245.826 454.11,234.826 460,224.5C 471.024,214.475 481.691,204.142 492,193.5C 500.633,183.936 503.3,172.936 500,160.5C 492.892,152.361 484.892,151.361 476,157.5C 474.865,169.676 479.698,173.01 490.5,167.5C 491.807,176.027 488.14,179.86 479.5,179C 476.09,176.702 473.757,173.535 472.5,169.5C 466.551,167.118 466.218,167.784 471.5,171.5C 472.788,173.739 473.788,176.072 474.5,178.5 Z"/></g>
<g><path style="opacity:1" fill="#fe0000" d="M 335.5,132.5 C 353.5,132.5 371.5,132.5 389.5,132.5C 389.5,133.5 389.5,134.5 389.5,135.5C 371.5,135.5 353.5,135.5 335.5,135.5C 335.5,134.5 335.5,133.5 335.5,132.5 Z"/></g>
<g><path style="opacity:1" fill="#fe0000" d="M 243.5,143.5 C 244.17,146.59 243.003,148.257 240,148.5C 233.271,145.047 226.437,142.047 219.5,139.5C 228.699,134.543 236.699,135.877 243.5,143.5 Z"/></g>
<g><path style="opacity:1" fill="#bfc0bf" d="M 333.5,136.5 C 347.837,136.333 362.171,136.5 376.5,137C 373.574,139.337 372.574,142.171 373.5,145.5C 376.402,138.1 381.735,135.266 389.5,137C 395.779,142.633 396.112,148.633 390.5,155C 386.705,155.793 383.705,157.793 381.5,161C 385.35,159.836 389.35,159.502 393.5,160C 398.139,165.314 403.805,168.981 410.5,171C 406.475,173.514 402.141,175.181 397.5,176C 400,178.5 402.5,181 405,183.5C 405.764,191.037 409.097,197.037 415,201.5C 416.009,203.025 416.509,204.692 416.5,206.5C 411.976,206.128 407.976,207.295 404.5,210C 410.772,215.133 413.772,221.8 413.5,230C 412.927,233.176 412.76,236.343 413,239.5C 415.79,244.917 418.957,250.084 422.5,255C 421.167,255.667 419.833,255.667 418.5,255C 415.507,252.714 412.507,250.381 409.5,248C 406.911,246.686 404.244,246.019 401.5,246C 404.459,250.751 407.293,255.584 410,260.5C 408.681,269.901 410.681,278.567 416,286.5C 418.287,289.462 421.12,291.629 424.5,293C 419.628,299.584 413.295,301.251 405.5,298C 399.363,294.695 394.696,289.861 391.5,283.5C 390.833,282.167 390.167,282.167 389.5,283.5C 391.245,287.408 393.578,290.908 396.5,294C 386.617,303.821 385.951,314.154 394.5,325C 383.899,323.088 376.065,317.255 371,307.5C 370.228,303.11 370.394,298.777 371.5,294.5C 371.192,293.692 370.692,293.025 370,292.5C 368.898,296.416 368.231,300.416 368,304.5C 364.5,308 361,311.5 357.5,315C 352.095,317.588 351.095,316.421 354.5,311.5C 353.638,305.109 351.138,299.442 347,294.5C 346.833,293.333 346.667,292.167 346.5,291C 350.394,280.961 348.561,279.794 341,287.5C 339.153,292.694 336.653,297.528 333.5,302C 328.537,305.1 323.204,306.767 317.5,307C 319.82,303.863 321.153,300.363 321.5,296.5C 319.088,287.011 320.421,278.177 325.5,270C 324.833,269.333 324.167,269.333 323.5,270C 317.833,274.333 312.167,278.667 306.5,283C 301.072,285.153 295.738,284.986 290.5,282.5C 293.251,280.707 296.084,279.041 299,277.5C 300.538,272.385 302.372,267.385 304.5,262.5C 306.053,261.561 307.387,260.394 308.5,259C 308.333,258.5 308.167,258 308,257.5C 304.833,258.667 302.667,260.833 301.5,264C 290.997,264.806 285.83,259.973 286,249.5C 290.7,254.373 296.2,255.54 302.5,253C 310.111,248.722 315.611,242.555 319,234.5C 320.255,233.789 321.421,232.956 322.5,232C 330.457,230 338.457,228 346.5,226C 354.898,222.276 360.398,216.11 363,207.5C 365.835,206.084 368.502,204.417 371,202.5C 372.485,197.241 373.652,191.908 374.5,186.5C 374.006,183.988 373.006,181.655 371.5,179.5C 374.699,174.661 373.865,170.661 369,167.5C 368.5,168 368,168.5 367.5,169C 372.373,171.932 372.706,175.265 368.5,179C 370.63,181.261 371.964,183.928 372.5,187C 371.793,192.214 370.46,197.214 368.5,202C 365.117,204.072 361.45,205.239 357.5,205.5C 350.847,204.834 344.181,204.334 337.5,204C 334.427,203.303 332.427,201.47 331.5,198.5C 332.803,196.032 334.303,193.699 336,191.5C 341.26,198.364 347.76,199.864 355.5,196C 357.378,194.457 358.878,192.624 360,190.5C 361.011,183.964 360.344,177.631 358,171.5C 349.536,161.966 341.869,162.299 335,172.5C 331.35,167.187 327.35,162.187 323,157.5C 322.938,153.593 321.771,150.093 319.5,147C 319.99,145.018 320.99,143.351 322.5,142C 326.167,141.333 329.833,141.333 333.5,142C 334.77,145.905 336.27,149.739 338,153.5C 344.223,157.992 349.723,157.158 354.5,151C 354,150.5 353.5,150 353,149.5C 351.823,151.176 350.323,152.509 348.5,153.5C 348.113,151.269 347.947,148.936 348,146.5C 347.3,144.968 346.134,143.968 344.5,143.5C 342.219,145.8 340.386,148.466 339,151.5C 334.649,141.335 338.149,137.502 349.5,140C 351.281,142.237 353.281,144.237 355.5,146C 367.413,146.136 367.413,145.302 355.5,143.5C 352.045,137.798 347.045,135.965 340.5,138C 338.464,138.454 336.63,139.287 335,140.5C 333.775,140.138 332.609,139.638 331.5,139C 332.381,138.292 333.047,137.458 333.5,136.5 Z"/></g>
<g><path style="opacity:1" fill="#bfc0bf" d="M 265.5,141.5 C 267.635,141.147 268.968,141.98 269.5,144C 267.078,148.756 264.244,153.256 261,157.5C 260.042,159.199 259.542,161.033 259.5,163C 260.671,169.511 262.837,175.678 266,181.5C 273.333,190.833 280.667,200.167 288,209.5C 297.041,218.708 306.208,227.708 315.5,236.5C 312.097,245.361 305.764,250.694 296.5,252.5C 290.278,251.943 286.611,248.61 285.5,242.5C 282.009,249.817 283.009,256.317 288.5,262C 284.855,262.719 281.188,263.219 277.5,263.5C 278.317,260.521 279.151,257.521 280,254.5C 280.667,251.833 280.667,249.167 280,246.5C 277.032,249.883 273.532,252.05 269.5,253C 270.46,251.581 271.293,250.081 272,248.5C 272.667,242.167 272.667,235.833 272,229.5C 269.423,235.385 265.59,239.885 260.5,243C 261.894,241.261 262.561,239.261 262.5,237C 261.661,232.655 259.994,228.655 257.5,225C 258.958,222.942 259.625,220.609 259.5,218C 258.769,214.847 258.103,211.68 257.5,208.5C 257.809,206.097 257.976,203.763 258,201.5C 257.667,201.167 257.333,200.833 257,200.5C 256.533,207.606 254.7,214.272 251.5,220.5C 249.886,222.863 247.886,223.529 245.5,222.5C 249.633,217.506 250.966,211.839 249.5,205.5C 247.728,204.73 246.728,203.397 246.5,201.5C 247.224,198.385 248.724,195.718 251,193.5C 251.667,192.5 251.667,191.5 251,190.5C 248.597,192.305 246.93,194.638 246,197.5C 244.795,196.929 243.628,196.262 242.5,195.5C 241.746,192.223 241.246,188.89 241,185.5C 239.795,184.929 238.628,184.262 237.5,183.5C 239.526,180.323 239.859,176.989 238.5,173.5C 235.227,174.585 231.894,174.752 228.5,174C 228.043,173.586 227.709,173.086 227.5,172.5C 232.753,171.415 235.753,168.249 236.5,163C 234.468,157.956 231.968,153.123 229,148.5C 228.333,147.5 228.333,146.5 229,145.5C 233.095,149.469 237.929,150.969 243.5,150C 244.216,146.816 246.216,145.316 249.5,145.5C 253.108,146.648 256.775,147.148 260.5,147C 263.056,145.945 264.723,144.112 265.5,141.5 Z"/></g>
<g><path style="opacity:1" fill="#483d00" d="M 377.5,143.5 C 385.064,143.21 387.897,146.543 386,153.5C 384.829,155.616 383.329,156.282 381.5,155.5C 387.271,151.043 386.771,147.71 380,145.5C 377.974,146.52 376.641,148.187 376,150.5C 375.308,149.975 374.808,149.308 374.5,148.5C 375.26,146.64 376.26,144.973 377.5,143.5 Z"/></g>
<g><path style="opacity:1" fill="#fefffe" d="M 344.5,145.5 C 345.88,145.962 346.547,146.962 346.5,148.5C 346,150.5 345.5,152.5 345,154.5C 342.67,151.361 342.503,148.361 344.5,145.5 Z"/></g>
<g><path style="opacity:1" fill="#0000ff" d="M 81.5,148.5 C 129.834,148.333 178.168,148.5 226.5,149C 228.219,150.87 229.219,153.037 229.5,155.5C 217.587,157.219 212.42,163.886 214,175.5C 216.143,172.675 218.81,170.675 222,169.5C 222.833,169.833 223.667,170.167 224.5,170.5C 225.034,172.614 226.034,174.448 227.5,176C 230.817,176.498 234.15,176.665 237.5,176.5C 234.367,190.999 227.2,193.332 216,183.5C 214.246,191.158 217.079,196.324 224.5,199C 230.095,200.655 235.428,199.822 240.5,196.5C 241.7,197.531 243.034,198.365 244.5,199C 244.962,200.722 245.128,202.555 245,204.5C 248.78,207.738 249.613,211.738 247.5,216.5C 192.167,216.5 136.833,216.5 81.5,216.5C 81.5,193.833 81.5,171.167 81.5,148.5 Z"/></g>
<g><path style="opacity:1" fill="#0000ff" d="M 269.5,148.5 C 285.503,148.333 301.503,148.5 317.5,149C 318.701,149.903 319.535,151.069 320,152.5C 320.241,155.289 320.908,157.956 322,160.5C 327.913,164.908 332.079,170.575 334.5,177.5C 336.341,173.293 339.008,169.793 342.5,167C 351.16,166.166 356.493,169.999 358.5,178.5C 357.833,178.833 357.167,179.167 356.5,179.5C 352.676,178.787 348.843,178.12 345,177.5C 335.401,178.812 326.068,181.145 317,184.5C 305.755,180.606 304.588,174.44 313.5,166C 300.742,167.453 295.575,174.619 298,187.5C 298.333,188.5 298.667,189.5 299,190.5C 304.019,194.88 309.852,196.38 316.5,195C 323.868,192.815 330.868,189.815 337.5,186C 344.627,185.108 351.627,185.608 358.5,187.5C 355.202,196.56 349.202,198.726 340.5,194C 338.707,192.22 337.04,190.387 335.5,188.5C 332.997,191.502 330.997,194.835 329.5,198.5C 330.58,202.564 333.247,205.064 337.5,206C 345.17,206.522 352.837,207.022 360.5,207.5C 360.654,211.025 359.321,213.859 356.5,216C 336.833,216.667 317.167,216.667 297.5,216C 285.148,203.655 274.314,190.155 265,175.5C 262.517,170.401 261.517,165.068 262,159.5C 264.52,155.776 267.02,152.109 269.5,148.5 Z"/></g>
<g><path style="opacity:1" fill="#0000ff" d="M 396.5,148.5 C 414.503,148.333 432.503,148.5 450.5,149C 453.139,150.946 456.139,151.946 459.5,152C 444.044,155.813 436.378,165.813 436.5,182C 437.005,194.18 440.338,205.513 446.5,216C 435.152,216.832 423.819,216.666 412.5,215.5C 411.018,213.517 409.351,211.684 407.5,210C 411.804,208.894 416.137,207.894 420.5,207C 416.817,201.736 412.983,196.569 409,191.5C 408.461,188.471 407.794,185.471 407,182.5C 405.075,181.12 403.241,179.62 401.5,178C 406.5,175.167 411.5,172.333 416.5,169.5C 413.215,168.676 409.882,168.176 406.5,168C 401.916,165.42 397.916,162.087 394.5,158C 393.167,157.667 391.833,157.333 390.5,157C 393.49,154.847 395.49,152.013 396.5,148.5 Z"/></g>
<g><path style="opacity:1" fill="#0000ff" d="M 503.5,149.5 C 541.33,148.501 579.33,148.168 617.5,148.5C 617.5,171.167 617.5,193.833 617.5,216.5C 581.167,216.5 544.833,216.5 508.5,216.5C 508.663,214.143 508.497,211.81 508,209.5C 506.961,211.746 505.794,213.913 504.5,216C 498.167,216.667 491.833,216.667 485.5,216C 495.414,208.088 503.914,198.922 511,188.5C 513.433,177.631 512.767,166.965 509,156.5C 507.303,153.98 505.47,151.647 503.5,149.5 Z"/></g>
<g><path style="opacity:1" fill="#fe0000" d="M 230.5,155.5 C 234.487,158.788 235.32,162.788 233,167.5C 229.9,170.288 227.067,170.455 224.5,168C 220.579,167.041 217.412,168.208 215,171.5C 215.171,166.669 217.337,162.836 221.5,160C 224.724,158.641 227.724,157.141 230.5,155.5 Z"/></g>
<g><path style="opacity:1" fill="#0000ff" d="M 474.5,178.5 C 484.346,184.338 490.679,181.672 493.5,170.5C 492.973,167.419 492.14,164.419 491,161.5C 489.097,168.456 485.097,170.123 479,166.5C 476.555,162.669 477.055,159.503 480.5,157C 492.848,153.167 499.181,157.667 499.5,170.5C 499.378,176.7 497.545,182.367 494,187.5C 485.833,198.333 476.333,207.833 465.5,216C 461.848,216.499 458.182,216.665 454.5,216.5C 453.171,212.073 453.337,207.739 455,203.5C 458.586,197.909 462.92,192.909 468,188.5C 470.426,185.309 472.593,181.975 474.5,178.5 Z"/></g>
<g><path style="opacity:1" fill="#fe0000" d="M 305.5,169.5 C 306.239,169.369 306.906,169.536 307.5,170C 303.587,181.768 307.92,187.102 320.5,186C 332.418,180.057 344.751,178.723 357.5,182C 358.731,183.183 358.731,184.349 357.5,185.5C 350.98,183.509 344.314,183.009 337.5,184C 330.384,187.559 323.051,190.559 315.5,193C 302.526,194.772 297.359,189.272 300,176.5C 301.666,174.004 303.5,171.671 305.5,169.5 Z"/></g>
<g><path style="opacity:1" fill="#483d00" d="M 386.5,184.5 C 387.496,184.414 388.329,184.748 389,185.5C 389.5,187 390,188.5 390.5,190C 389.421,194.458 389.254,198.958 390,203.5C 391.854,206.613 393.52,209.613 395,212.5C 387.317,211.813 382.317,207.813 380,200.5C 379.244,198.191 379.744,196.191 381.5,194.5C 381.37,197.384 381.87,200.384 383,203.5C 385.414,206.851 388.247,208.851 391.5,209.5C 390.139,207.972 388.972,206.305 388,204.5C 387.247,199.625 387.414,194.792 388.5,190C 387.68,188.2 387.014,186.366 386.5,184.5 Z"/></g>
<g><path style="opacity:1" fill="#fe0000" d="M 235.5,185.5 C 236.708,186.234 238.041,186.567 239.5,186.5C 239.664,189.187 239.497,191.854 239,194.5C 230.911,199.903 223.911,198.569 218,190.5C 217.333,189.5 217.333,188.5 218,187.5C 224.821,193.403 230.654,192.737 235.5,185.5 Z"/></g>
<g><path style="opacity:1" fill="#483d00" d="M 261.5,206.5 C 262.748,207.334 263.415,208.667 263.5,210.5C 264.044,212.674 264.044,214.674 263.5,216.5C 262.808,215.975 262.308,215.308 262,214.5C 261.503,211.854 261.336,209.187 261.5,206.5 Z"/></g>
<g><path style="opacity:1" fill="#0000ff" d="M 256.5,214.5 C 257.773,215.077 257.773,215.743 256.5,216.5C 255.537,216.03 255.537,215.363 256.5,214.5 Z"/></g>
<g><path style="opacity:1" fill="#483d00" d="M 267.5,214.5 C 269.302,215.315 270.302,216.815 270.5,219C 270.117,221.618 270.117,224.118 270.5,226.5C 269.289,225.126 268.289,223.626 267.5,222C 268.517,219.527 268.517,217.027 267.5,214.5 Z"/></g>
<g><path style="opacity:1" fill="#fed700" d="M 81.5,218.5 C 136.168,218.333 190.834,218.5 245.5,219C 240.284,225.702 241.617,227.702 249.5,225C 252.096,222.494 254.763,220.327 257.5,218.5C 257.134,220.905 256.467,223.238 255.5,225.5C 257.566,229.135 259.233,232.968 260.5,237C 259.647,239.875 258.647,242.708 257.5,245.5C 258.922,246.547 260.422,246.547 262,245.5C 264.668,242.825 267.335,240.158 270,237.5C 271.527,244.44 270.027,250.607 265.5,256C 270.168,256.387 274.168,254.887 277.5,251.5C 277.833,252 278.167,252.5 278.5,253C 277.044,256.4 276.044,259.9 275.5,263.5C 264.753,265.216 254.087,267.383 243.5,270C 240.5,270.667 237.5,270.667 234.5,270C 227.86,266.713 221.193,263.379 214.5,260C 214.833,259.667 215.167,259.333 215.5,259C 207.03,249.932 197.363,248.265 186.5,254C 185.743,255.512 184.743,256.846 183.5,258C 187.791,257.792 191.458,259.125 194.5,262C 192.876,265.206 193.542,267.872 196.5,270C 200.287,270.16 203.954,270.826 207.5,272C 197.804,272.503 190.804,277.003 186.5,285.5C 151.506,286.5 116.506,286.833 81.5,286.5C 81.5,263.833 81.5,241.167 81.5,218.5 Z"/></g>
<g><path style="opacity:1" fill="#fed700" d="M 300.5,219.5 C 317.995,218.338 335.662,218.171 353.5,219C 345.488,224.782 336.488,227.782 326.5,228C 322.782,229.237 319.449,231.07 316.5,233.5C 310.878,229.214 305.544,224.548 300.5,219.5 Z"/></g>
<g><path style="opacity:1" fill="#fed700" d="M 413.5,218.5 C 425.505,218.333 437.505,218.5 449.5,219C 450.333,219.833 451.167,220.667 452,221.5C 454.909,218.606 458.409,217.773 462.5,219C 452.326,231.666 446.326,246.166 444.5,262.5C 445.209,270.548 446.209,278.548 447.5,286.5C 437.828,286.666 428.161,286.5 418.5,286C 412.656,278.452 410.49,269.952 412,260.5C 410.213,256.423 408.046,252.59 405.5,249C 407.279,249.044 408.945,249.711 410.5,251C 413.763,256.131 418.429,258.297 424.5,257.5C 424.313,255.436 423.813,253.436 423,251.5C 419.782,247.526 417.116,243.193 415,238.5C 415.937,231.755 415.437,225.088 413.5,218.5 Z"/></g>
<g><path style="opacity:1" fill="#fed700" d="M 482.5,218.5 C 489.508,218.334 496.508,218.5 503.5,219C 499.167,224.667 494.167,229.667 488.5,234C 480.919,238.04 473.419,242.207 466,246.5C 466.436,241.191 468.103,236.191 471,231.5C 474.67,226.998 478.503,222.665 482.5,218.5 Z"/></g>
<g><path style="opacity:1" fill="#fed700" d="M 508.5,218.5 C 544.833,218.5 581.167,218.5 617.5,218.5C 617.5,241.167 617.5,263.833 617.5,286.5C 581.832,286.667 546.165,286.5 510.5,286C 517.316,281.503 521.316,275.17 522.5,267C 521.425,262.47 518.925,258.97 515,256.5C 516.197,264.482 513.697,270.982 507.5,276C 500.348,279.077 493.348,282.41 486.5,286C 484.167,286.667 481.833,286.667 479.5,286C 486,276.833 493.833,269 503,262.5C 508.05,256.018 509.717,248.685 508,240.5C 503.909,246.347 499.576,252.013 495,257.5C 488.92,261.79 482.753,265.957 476.5,270C 472.248,273.581 468.748,277.748 466,282.5C 465.776,272.173 468.942,263.006 475.5,255C 485.301,248.678 494.468,241.512 503,233.5C 505.973,228.893 507.807,223.893 508.5,218.5 Z"/></g>
<g><path style="opacity:1" fill="#483d00" d="M 380.5,219.5 C 382.624,220.031 384.124,221.365 385,223.5C 386.005,229.893 388.005,235.893 391,241.5C 398.347,246.884 397.18,248.718 387.5,247C 383.74,245.539 380.907,243.039 379,239.5C 378.226,237.597 378.56,235.93 380,234.5C 381.176,241.684 385.343,245.184 392.5,245C 389.598,242.76 387.431,239.927 386,236.5C 385.225,230.42 383.392,224.753 380.5,219.5 Z"/></g>
<g><path style="opacity:1" fill="#483d00" d="M 275.5,225.5 C 277.303,228.92 278.97,232.587 280.5,236.5C 278.675,237.571 277.508,236.904 277,234.5C 276.047,231.568 275.547,228.568 275.5,225.5 Z"/></g>
<g><path style="opacity:1" fill="#483d00" d="M 357.5,230.5 C 358.756,230.461 359.756,230.961 360.5,232C 353.906,235.263 348.572,239.93 344.5,246C 341.592,246.689 338.925,247.855 336.5,249.5C 340.149,252.33 344.149,252.997 348.5,251.5C 349.308,251.808 349.975,252.308 350.5,253C 343.931,255.399 338.098,254.232 333,249.5C 332.409,248.517 332.743,247.85 334,247.5C 337.991,246.392 341.825,244.892 345.5,243C 348.358,237.644 352.358,233.477 357.5,230.5 Z"/></g>
<g><path style="opacity:1" fill="#483d00" d="M 354.5,251.5 C 355.376,251.369 356.043,251.702 356.5,252.5C 353.8,256.704 351.3,261.037 349,265.5C 346.933,268.07 344.433,270.07 341.5,271.5C 343.765,272.647 346.098,272.814 348.5,272C 351.919,270.414 354.919,268.248 357.5,265.5C 358.521,266.002 358.688,266.668 358,267.5C 352.033,274.733 344.867,276.233 336.5,272C 340.167,269.5 343.833,267 347.5,264.5C 349.591,259.98 351.925,255.647 354.5,251.5 Z"/></g>
<g><path style="opacity:1" fill="#fe0000" d="M 192.5,252.5 C 201.058,251.378 208.058,254.045 213.5,260.5C 210.03,263.394 206.03,264.227 201.5,263C 197.131,260.098 192.465,257.764 187.5,256C 189.233,254.811 190.9,253.644 192.5,252.5 Z"/></g>
<g><path style="opacity:1" fill="#483d00" d="M 369.5,254.5 C 373.713,257.562 376.046,261.729 376.5,267C 373.901,275.56 375.568,283.06 381.5,289.5C 381,289.833 380.5,290.167 380,290.5C 375.657,289.079 371.491,287.246 367.5,285C 363.502,280.887 362.836,276.387 365.5,271.5C 364.574,280.482 368.574,285.649 377.5,287C 375.959,285.421 374.792,283.587 374,281.5C 373.219,276.446 373.386,271.446 374.5,266.5C 373.923,262.179 371.923,258.679 368.5,256C 369.056,255.617 369.389,255.117 369.5,254.5 Z"/></g>
<g><path style="opacity:1" fill="#bfc0bf" d="M 222.5,297.5 C 224.148,296.073 226.148,295.24 228.5,295C 229.5,294.167 230.5,293.333 231.5,292.5C 226.499,292.809 221.833,294.642 217.5,298C 215.272,298.82 213.272,298.487 211.5,297C 213.238,294.358 214.571,291.525 215.5,288.5C 217.413,287.627 219.247,286.627 221,285.5C 221.688,284.668 221.521,284.002 220.5,283.5C 215.473,286.678 209.973,288.678 204,289.5C 201.63,289.4 199.797,288.4 198.5,286.5C 202.025,285.488 205.192,283.821 208,281.5C 212.076,271.263 208.576,266.763 197.5,268C 195.485,266.445 195.152,264.611 196.5,262.5C 202.899,266.446 209.233,266.446 215.5,262.5C 220.628,265.133 225.628,267.967 230.5,271C 233.269,271.863 236.102,272.363 239,272.5C 254.983,268.737 271.15,266.07 287.5,264.5C 291.887,265.017 296.22,265.85 300.5,267C 299.594,269.447 298.761,271.947 298,274.5C 297.5,276.333 296.333,277.5 294.5,278C 289.989,279.836 285.323,281.17 280.5,282C 284.894,283.131 289.227,284.465 293.5,286C 303.188,287.489 311.188,284.489 317.5,277C 318.332,276.312 318.998,276.479 319.5,277.5C 318.726,281.779 318.226,286.113 318,290.5C 312.161,292.84 309.328,297.173 309.5,303.5C 304.417,301.62 299.917,298.62 296,294.5C 294.787,296.13 293.954,297.964 293.5,300C 295.348,302.824 296.681,305.824 297.5,309C 297.74,312.026 296.573,314.192 294,315.5C 293.5,315.333 293,315.167 292.5,315C 294.654,312.237 294.82,309.404 293,306.5C 287.493,303.08 282.159,299.414 277,295.5C 278.636,298.932 280.469,302.432 282.5,306C 282.212,310.87 280.379,315.037 277,318.5C 276.713,316.109 276.213,313.776 275.5,311.5C 272.193,309.36 269.026,307.026 266,304.5C 266.147,298.027 263.314,293.86 257.5,292C 260.177,294.822 262.177,297.988 263.5,301.5C 261.274,306.185 259.774,311.185 259,316.5C 256.298,310.46 252.131,305.627 246.5,302C 247.86,297.518 246.694,293.685 243,290.5C 244.507,293.91 245.174,297.576 245,301.5C 243.701,306.461 240.701,309.794 236,311.5C 234.421,309.542 234.588,307.542 236.5,305.5C 236.15,302.569 234.65,300.569 232,299.5C 228.2,301.175 225.034,300.508 222.5,297.5 Z"/></g>
<g><path style="opacity:1" fill="#fe0000" d="M 201.5,274.5 C 203.5,274.5 205.5,274.5 207.5,274.5C 207.683,276.936 207.016,279.103 205.5,281C 199.672,282.749 194.005,284.915 188.5,287.5C 188.491,285.692 188.991,284.025 190,282.5C 193.482,279.161 197.315,276.494 201.5,274.5 Z"/></g>
<g><path style="opacity:1" fill="#0000ff" d="M 222.5,297.5 C 222.738,300.148 224.072,301.982 226.5,303C 224.766,305.7 222.432,307.7 219.5,309C 215.167,310 210.833,311 206.5,312C 208.167,313.667 209.833,315.333 211.5,317C 216.833,317.667 222.167,317.667 227.5,317C 230.173,315.999 232.507,314.499 234.5,312.5C 235.086,312.709 235.586,313.043 236,313.5C 237.399,312.773 238.899,312.273 240.5,312C 242.549,309.407 244.715,306.907 247,304.5C 252.021,308.001 255.187,312.668 256.5,318.5C 257.978,318.762 259.311,318.429 260.5,317.5C 262.224,314.05 262.891,310.383 262.5,306.5C 263.873,306.343 265.207,306.51 266.5,307C 268.556,309.444 271.056,311.277 274,312.5C 274.769,315.099 274.602,317.599 273.5,320C 277.684,321.165 280.517,319.665 282,315.5C 283.605,311.172 284.272,306.838 284,302.5C 293.07,305.295 294.57,310.295 288.5,317.5C 297.672,318.817 301.172,314.817 299,305.5C 297.818,303.656 296.651,301.823 295.5,300C 295.833,299.5 296.167,299 296.5,298.5C 300.249,301.589 304.249,304.256 308.5,306.5C 309.799,305.91 310.632,304.91 311,303.5C 311.023,298.115 313.523,294.448 318.5,292.5C 320.009,299.471 318.009,305.304 312.5,310C 318.917,309.688 325.084,308.188 331,305.5C 335.739,310.404 339.906,315.737 343.5,321.5C 342.667,321.833 341.833,322.167 341,322.5C 333.987,321.872 326.987,321.205 320,320.5C 304.923,323.03 289.756,324.864 274.5,326C 261.562,327.903 248.895,330.736 236.5,334.5C 229.041,334.125 222.041,332.125 215.5,328.5C 216.37,333.697 219.037,338.197 223.5,342C 227.807,342.734 232.14,343.234 236.5,343.5C 254.322,340.421 271.989,336.921 289.5,333C 286.203,335.295 283.203,337.962 280.5,341C 276.385,342.48 272.385,344.147 268.5,346C 274.167,346.667 279.833,346.667 285.5,346C 294.148,341.924 303.148,339.258 312.5,338C 305.184,341.498 301.85,347.332 302.5,355.5C 291.495,355.667 280.495,355.5 269.5,355C 267.302,349.969 263.636,346.469 258.5,344.5C 257.63,346.758 257.63,349.091 258.5,351.5C 258.291,352.994 257.624,354.161 256.5,355C 198.168,355.5 139.834,355.667 81.5,355.5C 81.5,333.167 81.5,310.833 81.5,288.5C 120.223,288.411 158.89,288.578 197.5,289C 198.833,290 200.167,291 201.5,292C 197.472,295.887 194.306,300.387 192,305.5C 191.376,307.464 191.876,309.131 193.5,310.5C 200.238,308.27 205.738,304.27 210,298.5C 211.438,299.718 213.105,300.385 215,300.5C 217.708,299.891 220.208,298.891 222.5,297.5 Z"/></g>
<g><path style="opacity:1" fill="#483d00" d="M 283.5,288.5 C 284.879,291.386 286.879,293.886 289.5,296C 289,296.5 288.5,297 288,297.5C 285.595,295.597 283.761,293.264 282.5,290.5C 282.863,289.817 283.196,289.15 283.5,288.5 Z"/></g>
<g><path style="opacity:1" fill="#0000ff" d="M 421.5,289.5 C 430.324,288.343 439.324,288.176 448.5,289C 449.406,291.447 450.239,293.947 451,296.5C 458.242,305.319 465.242,314.319 472,323.5C 477.017,334.277 476.517,344.777 470.5,355C 455.5,355.667 440.5,355.667 425.5,355C 422.627,351.423 420.127,347.589 418,343.5C 411.913,328.159 405.413,312.993 398.5,298C 398.667,297.5 398.833,297 399,296.5C 407.178,302.598 415.511,302.932 424,297.5C 425.411,295.35 426.245,293.016 426.5,290.5C 424.784,290.371 423.117,290.038 421.5,289.5 Z"/></g>
<g><path style="opacity:1" fill="#0000ff" d="M 478.5,288.5 C 479.873,288.343 481.207,288.51 482.5,289C 480.291,290.873 478.458,293.04 477,295.5C 476.761,293.041 477.261,290.707 478.5,288.5 Z"/></g>
<g><path style="opacity:1" fill="#0000ff" d="M 505.5,288.5 C 509.555,288.176 513.555,288.509 517.5,289.5C 515.062,293.442 512.062,296.942 508.5,300C 502.695,300.823 497.361,302.823 492.5,306C 489.874,310.084 487.374,314.25 485,318.5C 486.596,304.991 493.429,294.991 505.5,288.5 Z"/></g>
<g><path style="opacity:1" fill="#0000ff" d="M 518.5,288.5 C 551.5,288.5 584.5,288.5 617.5,288.5C 617.5,310.833 617.5,333.167 617.5,355.5C 575.5,355.5 533.5,355.5 491.5,355.5C 493.005,342.779 494.838,330.112 497,317.5C 497.465,316.069 498.299,314.903 499.5,314C 504.917,311.21 510.084,308.043 515,304.5C 518.059,299.645 519.226,294.311 518.5,288.5 Z"/></g>
<g><path style="opacity:1" fill="#fe0000" d="M 209.5,289.5 C 210.5,289.5 211.5,289.5 212.5,289.5C 212.509,291.308 212.009,292.975 211,294.5C 206.441,300.599 200.774,305.266 194,308.5C 196.033,299.632 201.199,293.299 209.5,289.5 Z"/></g>
<g><path style="opacity:1" fill="#483d00" d="M 265.5,289.5 C 267.74,290.568 269.574,292.234 271,294.5C 271.688,295.332 271.521,295.998 270.5,296.5C 268.09,294.674 266.423,292.34 265.5,289.5 Z"/></g>
<g><path style="opacity:1" fill="#483d00" d="M 250.5,290.5 C 253.544,292.501 254.544,295.167 253.5,298.5C 252.961,295.834 251.628,293.667 249.5,292C 250.056,291.617 250.389,291.117 250.5,290.5 Z"/></g>
<g><path style="opacity:1" fill="#fe0000" d="M 230.5,301.5 C 231.5,301.5 232.5,301.5 233.5,301.5C 234.692,311.643 230.026,316.309 219.5,315.5C 217.167,315.333 214.833,315.167 212.5,315C 211.833,314.333 211.167,313.667 210.5,313C 219.261,312.463 225.928,308.63 230.5,301.5 Z"/></g>
<g><path style="opacity:1" fill="#483d00" d="M 341.5,337.5 C 343.288,337.215 344.955,337.548 346.5,338.5C 342.59,340.346 338.59,340.68 334.5,339.5C 336.969,338.832 339.302,338.165 341.5,337.5 Z"/></g>
<g><path style="opacity:1" fill="#483d00" d="M 345.5,343.5 C 348.113,344.095 348.113,344.929 345.5,346C 343.302,346.373 341.135,346.873 339,347.5C 338.5,347.167 338,346.833 337.5,346.5C 340.184,345.247 342.85,344.247 345.5,343.5 Z"/></g>
<g><path style="opacity:1" fill="#fe0000" d="M 259.5,347.5 C 267.387,351.942 270.387,358.609 268.5,367.5C 264.818,368.275 262.318,366.941 261,363.5C 260.735,358.118 260.235,352.785 259.5,347.5 Z"/></g>
<g><path style="opacity:1" fill="#483d00" d="M 349.5,348.5 C 350.774,349.189 350.774,350.023 349.5,351C 346.526,352.436 343.526,353.436 340.5,354C 343.263,351.626 346.263,349.792 349.5,348.5 Z"/></g>
<g><path style="opacity:1" fill="#483d00" d="M 349.5,356.5 C 351.604,356.201 353.604,356.534 355.5,357.5C 351.922,358.875 348.256,359.375 344.5,359C 346.175,358.015 347.842,357.181 349.5,356.5 Z"/></g>
<g><path style="opacity:1" fill="#fed700" d="M 81.5,357.5 C 131.168,357.333 180.834,357.5 230.5,358C 228.5,358.333 226.5,358.667 224.5,359C 226.146,362.31 228.48,364.977 231.5,367C 231.167,367.333 230.833,367.667 230.5,368C 236.845,374.479 235.845,376.646 227.5,374.5C 222.752,374.139 218.585,375.472 215,378.5C 213.504,380.45 213.337,382.45 214.5,384.5C 219.815,381.538 224.815,381.872 229.5,385.5C 228.894,387.709 228.227,389.876 227.5,392C 229.333,393.167 231.167,394.333 233,395.5C 233.346,397.218 233.846,398.885 234.5,400.5C 234.291,401.086 233.957,401.586 233.5,402C 226.807,403.573 221.641,401.406 218,395.5C 216.348,402.858 218.848,408.358 225.5,412C 228.824,413.511 232.157,414.011 235.5,413.5C 238.646,417.559 242.313,418.225 246.5,415.5C 247.445,418.788 248.112,422.121 248.5,425.5C 192.833,425.5 137.167,425.5 81.5,425.5C 81.5,402.833 81.5,380.167 81.5,357.5 Z"/></g>
<g><path style="opacity:1" fill="#fed700" d="M 237.5,358.5 C 242.65,357.349 247.984,357.183 253.5,358C 252.903,359.062 252.57,360.228 252.5,361.5C 254.081,365.392 254.914,369.392 255,373.5C 251.955,369.244 248.788,365.077 245.5,361C 242.904,359.864 240.237,359.031 237.5,358.5 Z"/></g>
<g><path style="opacity:1" fill="#fed700" d="M 270.5,357.5 C 281.167,357.5 291.833,357.5 302.5,357.5C 303.46,363.213 305.126,368.713 307.5,374C 303.95,387.05 295.617,395.216 282.5,398.5C 274.651,396.68 269.485,392.014 267,384.5C 268.254,377.037 269.754,369.537 271.5,362C 271.227,360.467 270.894,358.967 270.5,357.5 Z"/></g>
<g><path style="opacity:1" fill="#fed700" d="M 427.5,358.5 C 440.994,357.339 454.66,357.173 468.5,358C 458.673,369.803 447.006,371.803 433.5,364C 431.63,361.96 429.63,360.127 427.5,358.5 Z"/></g>
<g><path style="opacity:1" fill="#fed700" d="M 490.5,357.5 C 532.833,357.5 575.167,357.5 617.5,357.5C 617.5,380.167 617.5,402.833 617.5,425.5C 565.166,425.667 512.832,425.5 460.5,425C 460.833,424.667 461.167,424.333 461.5,424C 454.1,419.052 449.267,412.219 447,403.5C 444.555,402.023 442.388,400.19 440.5,398C 444.488,397.424 448.155,396.091 451.5,394C 447.392,392.973 443.392,391.64 439.5,390C 436.833,387.333 434.167,384.667 431.5,382C 435.941,383.069 440.441,384.236 445,385.5C 452.524,384.8 460.024,383.633 467.5,382C 477.769,376.232 485.436,368.066 490.5,357.5 Z"/></g>
<g><path style="opacity:1" fill="#fe0000" d="M 230.5,359.5 C 237.998,358.918 243.998,361.584 248.5,367.5C 246.836,371.036 244.169,372.536 240.5,372C 235.091,370.09 231.091,366.59 228.5,361.5C 229.243,360.818 229.909,360.151 230.5,359.5 Z"/></g>
<g><path style="opacity:1" fill="#fed700" d="M 357.5,367.5 C 364.418,369.793 371.418,371.793 378.5,373.5C 376.767,380.262 375.434,387.096 374.5,394C 375.272,399.485 375.939,404.985 376.5,410.5C 377.288,415.975 375.621,420.475 371.5,424C 362.652,424.854 353.652,425.187 344.5,425C 346.054,422.776 347.054,420.276 347.5,417.5C 345.526,418.433 343.192,418.433 340.5,417.5C 342.945,413.722 344.945,409.722 346.5,405.5C 345.162,400.489 342.995,395.822 340,391.5C 337.742,377.293 343.575,369.293 357.5,367.5 Z"/></g>
<g><path style="opacity:1" fill="#fe0000" d="M 221.5,376.5 C 226.459,376.735 231.292,376.735 236,376.5C 237.696,378.56 238.863,380.893 239.5,383.5C 239.048,385.312 237.882,386.312 236,386.5C 232.768,384.8 229.601,382.966 226.5,381C 223.106,380.248 219.773,380.415 216.5,381.5C 216.167,381.333 215.833,381.167 215.5,381C 217.141,378.837 219.141,377.337 221.5,376.5 Z"/></g>
<g><path style="opacity:1" fill="#fed700" d="M 388.5,383.5 C 388.514,388.951 388.68,394.618 389,400.5C 389.879,405.136 391.545,409.469 394,413.5C 397.869,417.034 401.369,420.867 404.5,425C 397.476,425.831 390.476,425.664 383.5,424.5C 385.088,420.144 386.088,415.644 386.5,411C 383.182,401.403 383.849,392.237 388.5,383.5 Z"/></g>
<g><path style="opacity:1" fill="#fe0000" d="M 219.5,400.5 C 225.008,405.235 230.675,405.569 236.5,401.5C 241.464,403.962 241.798,407.128 237.5,411C 231.538,412.714 226.372,411.214 222,406.5C 220.441,404.783 219.608,402.783 219.5,400.5 Z"/></g>
<g><path style="opacity:1" fill="#fed700" d="M 334.5,403.5 C 335.434,404.772 336.101,406.272 336.5,408C 335.564,411.782 334.897,415.615 334.5,419.5C 334.326,421.693 334.993,423.527 336.5,425C 332.167,425.667 327.833,425.667 323.5,425C 324.211,423.745 325.044,422.579 326,421.5C 327.734,423.451 329.901,424.451 332.5,424.5C 330.726,417.237 331.393,410.237 334.5,403.5 Z"/></g>
<g><path style="opacity:1" fill="#483d00" d="M 433.5,414.5 C 438.711,416.922 440.711,420.922 439.5,426.5C 438.005,422.177 436.005,418.177 433.5,414.5 Z"/></g>
<g><path style="opacity:1" fill="#fed700" d="M 257.5,420.5 C 258.234,421.878 258.901,423.378 259.5,425C 258.167,425.667 256.833,425.667 255.5,425C 256.267,423.53 256.933,422.03 257.5,420.5 Z"/></g>
<g><path style="opacity:1" fill="#0000ff" d="M 81.5,427.5 C 137.167,427.5 192.833,427.5 248.5,427.5C 247.016,432.09 246.183,436.757 246,441.5C 248.846,439.743 251.512,437.743 254,435.5C 255.252,432.986 255.752,430.32 255.5,427.5C 257.144,427.286 258.644,427.62 260,428.5C 260.834,432.835 261.667,437.168 262.5,441.5C 262.032,444.547 261.032,447.381 259.5,450C 262.241,452.792 265.074,452.625 268,449.5C 270.211,443.521 272.211,437.521 274,431.5C 276.446,438.393 279.446,445.06 283,451.5C 283.182,454.226 283.682,456.893 284.5,459.5C 290.17,456.177 293.336,451.177 294,444.5C 297.572,447.055 299.905,450.388 301,454.5C 301.893,455.711 302.726,455.711 303.5,454.5C 304.861,452.972 306.028,451.305 307,449.5C 307.094,443.722 307.761,438.056 309,432.5C 311.203,437.744 314.036,442.578 317.5,447C 319.3,447.236 320.966,446.736 322.5,445.5C 321.781,442.687 321.114,439.854 320.5,437C 321.432,433.865 321.432,430.699 320.5,427.5C 334.504,427.333 348.504,427.5 362.5,428C 365.849,433.567 370.516,434.9 376.5,432C 378.455,431.047 380.122,429.713 381.5,428C 389.853,427.168 398.187,427.335 406.5,428.5C 409.334,433.486 410.167,438.82 409,444.5C 406,456.822 399.167,466.322 388.5,473C 374.085,474.911 365.585,468.745 363,454.5C 356.246,445.227 347.746,443.06 337.5,448C 340.412,449.373 343.246,450.873 346,452.5C 347.946,455.139 348.946,458.139 349,461.5C 349.785,463.286 350.951,464.786 352.5,466C 349.545,465.581 346.545,464.914 343.5,464C 336.451,462.114 330.618,463.947 326,469.5C 325.319,471.529 324.986,473.529 325,475.5C 325.75,474.874 326.584,474.374 327.5,474C 330.468,473.83 333.301,473.664 336,473.5C 337.031,476.539 338.865,479.039 341.5,481C 335.433,483.745 331.433,488.411 329.5,495C 249.501,495.5 169.501,495.667 89.5,495.5C 85.0522,473.034 82.3855,450.367 81.5,427.5 Z"/></g>
<g><path style="opacity:1" fill="#0000ff" d="M 448.5,427.5 C 504.833,427.5 561.167,427.5 617.5,427.5C 616.614,450.367 613.948,473.034 609.5,495.5C 548.167,495.5 486.833,495.5 425.5,495.5C 425.336,492.813 425.503,490.146 426,487.5C 430.723,493.355 436.557,495.022 443.5,492.5C 441.161,489.322 439.494,485.822 438.5,482C 439.52,478.791 440.686,475.624 442,472.5C 446.075,475.981 450.575,476.814 455.5,475C 448.549,470.472 446.549,464.472 449.5,457C 449.01,455.018 448.01,453.351 446.5,452C 453.143,451.85 458.81,449.183 463.5,444C 459.886,443.055 456.219,442.388 452.5,442C 452,441.5 451.5,441 451,440.5C 449.658,436.28 448.825,431.947 448.5,427.5 Z"/></g>
<g><path style="opacity:1" fill="#483d00" d="M 435.5,428.5 C 440.287,432.469 441.621,437.469 439.5,443.5C 439.444,438.309 437.777,433.809 434.5,430C 435.056,429.617 435.389,429.117 435.5,428.5 Z"/></g>
<g><path style="opacity:1" fill="#483d00" d="M 436.5,452.5 C 436.722,449.61 436.055,446.943 434.5,444.5C 434.833,444.167 435.167,443.833 435.5,443.5C 438.839,446.452 439.172,449.452 436.5,452.5 Z"/></g>
<g><path style="opacity:1" fill="#fe0000" d="M 341.5,448.5 C 351.609,445.888 358.275,449.555 361.5,459.5C 354.824,459.327 349.824,456.327 346.5,450.5C 344.925,449.544 343.258,448.877 341.5,448.5 Z"/></g>
<g><path style="opacity:1" fill="#483d00" d="M 436.5,452.5 C 437.26,456.051 437.094,459.718 436,463.5C 434.871,465.141 433.371,466.141 431.5,466.5C 431.685,464.804 432.519,463.471 434,462.5C 435.008,458.229 434.508,454.229 432.5,450.5C 432.833,450.167 433.167,449.833 433.5,449.5C 434.735,450.34 435.735,451.34 436.5,452.5 Z"/></g>
<g><path style="opacity:1" fill="#fe0000" d="M 334.5,465.5 C 341.128,464.824 347.128,466.324 352.5,470C 351.252,473.581 348.752,475.081 345,474.5C 341.8,474.853 339.133,473.853 337,471.5C 325.715,472.964 324.882,470.964 334.5,465.5 Z"/></g>
<g><path style="opacity:1" fill="#483d00" d="M 431.5,466.5 C 432.057,470.634 431.057,474.301 428.5,477.5C 428.167,477.167 427.833,476.833 427.5,476.5C 429.062,473.026 429.895,469.36 430,465.5C 430.383,466.056 430.883,466.389 431.5,466.5 Z"/></g>
<g><path style="opacity:1" fill="#483d00" d="M 420.5,470.5 C 423.086,473.709 422.919,477.042 420,480.5C 420.046,477.2 420.212,473.866 420.5,470.5 Z"/></g>
<g><path style="opacity:1" fill="#fe0000" d="M 342.5,481.5 C 344.339,482.752 346.172,482.752 348,481.5C 350.243,485.604 349.41,489.104 345.5,492C 340.877,493.7 336.544,495.867 332.5,498.5C 331.581,495.374 332.081,492.374 334,489.5C 336.157,486.024 338.99,483.357 342.5,481.5 Z"/></g>
<g><path style="opacity:1" fill="#fed700" d="M 90.5,497.5 C 170.167,497.333 249.834,497.5 329.5,498C 329.043,498.414 328.709,498.914 328.5,499.5C 330.42,506.96 331.087,514.627 330.5,522.5C 311.833,522.5 293.167,522.5 274.5,522.5C 274.5,515.167 274.5,507.833 274.5,500.5C 262.167,500.5 249.833,500.5 237.5,500.5C 237.038,513.599 237.538,526.599 239,539.5C 247.084,550.911 257.584,559.411 270.5,565C 216.83,565.833 163.164,565.667 109.5,564.5C 100.528,542.917 94.1948,520.584 90.5,497.5 Z"/></g>
<g><path style="opacity:1" fill="#fed700" d="M 380.5,497.5 C 381.5,497.5 382.5,497.5 383.5,497.5C 383.343,498.873 383.51,500.207 384,501.5C 385.959,503.777 387.459,506.277 388.5,509C 387.624,512.273 386.79,515.439 386,518.5C 390.668,516.335 395.001,513.668 399,510.5C 401.588,506.326 403.921,501.993 406,497.5C 407.271,500.433 408.938,503.099 411,505.5C 411.333,508.167 411.667,510.833 412,513.5C 416.546,508.623 420.713,503.456 424.5,498C 485.832,497.5 547.166,497.333 608.5,497.5C 604.805,520.584 598.472,542.917 589.5,564.5C 535.836,565.667 482.17,565.833 428.5,565C 441.416,559.411 451.916,550.911 460,539.5C 461.462,526.599 461.962,513.599 461.5,500.5C 449.167,500.5 436.833,500.5 424.5,500.5C 424.5,507.833 424.5,515.167 424.5,522.5C 405.833,522.5 387.167,522.5 368.5,522.5C 368.336,519.813 368.503,517.146 369,514.5C 371.854,512.402 374.521,510.069 377,507.5C 377.013,503.695 378.179,500.362 380.5,497.5 Z"/></g>
<g><path style="opacity:1" fill="#fe0000" d="M 239.5,502.5 C 250.5,502.5 261.5,502.5 272.5,502.5C 272.5,509.833 272.5,517.167 272.5,524.5C 292.5,524.5 312.5,524.5 332.5,524.5C 332.5,517.167 332.5,509.833 332.5,502.5C 340.83,503.582 349.163,503.748 357.5,503C 359.713,505.663 359.713,508.496 357.5,511.5C 353.746,513.81 349.746,515.643 345.5,517C 351.994,521.439 358.66,521.605 365.5,517.5C 366.474,519.743 366.808,522.076 366.5,524.5C 386.5,524.5 406.5,524.5 426.5,524.5C 426.5,517.167 426.5,509.833 426.5,502.5C 437.5,502.5 448.5,502.5 459.5,502.5C 459.667,514.171 459.5,525.838 459,537.5C 458.085,538.328 457.419,539.328 457,540.5C 385.333,539.167 313.667,539.167 242,540.5C 241.581,539.328 240.915,538.328 240,537.5C 239.5,525.838 239.333,514.171 239.5,502.5 Z"/></g>
<g><path style="opacity:1" fill="#fe0000" d="M 363.5,502.5 C 365.467,502.261 367.301,502.594 369,503.5C 371.062,510.187 368.562,514.687 361.5,517C 357.718,518.703 354.052,518.703 350.5,517C 353.408,516.311 356.075,515.145 358.5,513.5C 360.018,509.747 361.685,506.08 363.5,502.5 Z"/></g>
<g><path style="opacity:1" fill="#fe0000" d="M 268.5,541.5 C 268.5,543.5 268.5,545.5 268.5,547.5C 261.833,547.5 255.167,547.5 248.5,547.5C 246.33,546.162 244.664,544.328 243.5,542C 251.827,541.5 260.16,541.334 268.5,541.5 Z"/></g>
<g><path style="opacity:1" fill="#000000" d="M 268.5,541.5 C 269.167,541.5 269.833,541.5 270.5,541.5C 270.5,543.5 270.5,545.5 270.5,547.5C 283.167,547.5 295.833,547.5 308.5,547.5C 308.5,545.5 308.5,543.5 308.5,541.5C 309.167,541.5 309.833,541.5 310.5,541.5C 310.5,543.5 310.5,545.5 310.5,547.5C 323.167,547.5 335.833,547.5 348.5,547.5C 348.5,545.5 348.5,543.5 348.5,541.5C 349.167,541.5 349.833,541.5 350.5,541.5C 350.5,543.5 350.5,545.5 350.5,547.5C 363.167,547.5 375.833,547.5 388.5,547.5C 388.5,545.5 388.5,543.5 388.5,541.5C 389.167,541.5 389.833,541.5 390.5,541.5C 390.5,543.5 390.5,545.5 390.5,547.5C 403.167,547.5 415.833,547.5 428.5,547.5C 428.5,545.5 428.5,543.5 428.5,541.5C 429.167,541.5 429.833,541.5 430.5,541.5C 430.5,543.5 430.5,545.5 430.5,547.5C 437.167,547.5 443.833,547.5 450.5,547.5C 450.167,548.5 449.5,549.167 448.5,549.5C 435.833,549.5 423.167,549.5 410.5,549.5C 410.5,553.5 410.5,557.5 410.5,561.5C 417.167,561.5 423.833,561.5 430.5,561.5C 429.486,562.674 428.153,563.34 426.5,563.5C 414.5,563.5 402.5,563.5 390.5,563.5C 390.5,567.5 390.5,571.5 390.5,575.5C 398.833,575.5 407.167,575.5 415.5,575.5C 415.5,576.167 415.5,576.833 415.5,577.5C 413.833,577.5 412.167,577.5 410.5,577.5C 410.5,581.5 410.5,585.5 410.5,589.5C 411.833,589.5 413.167,589.5 414.5,589.5C 414.5,590.167 414.5,590.833 414.5,591.5C 406.5,591.5 398.5,591.5 390.5,591.5C 390.5,595.5 390.5,599.5 390.5,603.5C 398.5,603.5 406.5,603.5 414.5,603.5C 414.5,604.167 414.5,604.833 414.5,605.5C 413.167,605.5 411.833,605.5 410.5,605.5C 410.5,609.5 410.5,613.5 410.5,617.5C 411.833,617.5 413.167,617.5 414.5,617.5C 414.5,618.167 414.5,618.833 414.5,619.5C 406.5,619.5 398.5,619.5 390.5,619.5C 390.5,623.5 390.5,627.5 390.5,631.5C 398.5,631.5 406.5,631.5 414.5,631.5C 414.5,632.167 414.5,632.833 414.5,633.5C 413.167,633.5 411.833,633.5 410.5,633.5C 410.5,637.5 410.5,641.5 410.5,645.5C 411.833,645.5 413.167,645.5 414.5,645.5C 414.5,646.167 414.5,646.833 414.5,647.5C 406.5,647.5 398.5,647.5 390.5,647.5C 390.5,651.5 390.5,655.5 390.5,659.5C 398.5,659.5 406.5,659.5 414.5,659.5C 414.5,660.167 414.5,660.833 414.5,661.5C 413.167,661.5 411.833,661.5 410.5,661.5C 410.5,665.5 410.5,669.5 410.5,673.5C 412.167,673.5 413.833,673.5 415.5,673.5C 415.5,674.167 415.5,674.833 415.5,675.5C 407.167,675.5 398.833,675.5 390.5,675.5C 390.5,679.5 390.5,683.5 390.5,687.5C 398.833,687.5 407.167,687.5 415.5,687.5C 415.5,688.167 415.5,688.833 415.5,689.5C 413.833,689.5 412.167,689.5 410.5,689.5C 410.5,693.5 410.5,697.5 410.5,701.5C 412.5,701.5 414.5,701.5 416.5,701.5C 416.5,702.167 416.5,702.833 416.5,703.5C 407.833,703.5 399.167,703.5 390.5,703.5C 390.5,707.5 390.5,711.5 390.5,715.5C 399.5,715.5 408.5,715.5 417.5,715.5C 417.5,716.167 417.5,716.833 417.5,717.5C 415.167,717.5 412.833,717.5 410.5,717.5C 410.5,721.5 410.5,725.5 410.5,729.5C 413.5,729.5 416.5,729.5 419.5,729.5C 419.5,730.167 419.5,730.833 419.5,731.5C 409.833,731.5 400.167,731.5 390.5,731.5C 390.5,735.5 390.5,739.5 390.5,743.5C 400.833,743.5 411.167,743.5 421.5,743.5C 421.5,744.167 421.5,744.833 421.5,745.5C 417.833,745.5 414.167,745.5 410.5,745.5C 410.5,746.833 410.5,748.167 410.5,749.5C 410.158,750.338 409.492,750.672 408.5,750.5C 408.5,748.833 408.5,747.167 408.5,745.5C 395.833,745.5 383.167,745.5 370.5,745.5C 370.5,749.5 370.5,753.5 370.5,757.5C 377.833,757.5 385.167,757.5 392.5,757.5C 390.786,758.738 388.786,759.405 386.5,759.5C 374.5,759.5 362.5,759.5 350.5,759.5C 350.5,763.5 350.5,767.5 350.5,771.5C 349.833,771.5 349.167,771.5 348.5,771.5C 348.5,767.5 348.5,763.5 348.5,759.5C 336.5,759.5 324.5,759.5 312.5,759.5C 310.214,759.405 308.214,758.738 306.5,757.5C 313.833,757.5 321.167,757.5 328.5,757.5C 328.5,753.5 328.5,749.5 328.5,745.5C 315.833,745.5 303.167,745.5 290.5,745.5C 290.5,747.167 290.5,748.833 290.5,750.5C 289.508,750.672 288.842,750.338 288.5,749.5C 288.5,748.167 288.5,746.833 288.5,745.5C 284.833,745.5 281.167,745.5 277.5,745.5C 277.5,744.833 277.5,744.167 277.5,743.5C 287.833,743.5 298.167,743.5 308.5,743.5C 308.5,739.5 308.5,735.5 308.5,731.5C 298.833,731.5 289.167,731.5 279.5,731.5C 279.5,730.833 279.5,730.167 279.5,729.5C 282.5,729.5 285.5,729.5 288.5,729.5C 288.5,725.5 288.5,721.5 288.5,717.5C 286.167,717.5 283.833,717.5 281.5,717.5C 281.5,716.833 281.5,716.167 281.5,715.5C 290.5,715.5 299.5,715.5 308.5,715.5C 308.5,711.5 308.5,707.5 308.5,703.5C 299.833,703.5 291.167,703.5 282.5,703.5C 282.5,702.833 282.5,702.167 282.5,701.5C 284.5,701.5 286.5,701.5 288.5,701.5C 288.5,697.5 288.5,693.5 288.5,689.5C 286.833,689.5 285.167,689.5 283.5,689.5C 283.5,688.833 283.5,688.167 283.5,687.5C 291.833,687.5 300.167,687.5 308.5,687.5C 308.5,683.5 308.5,679.5 308.5,675.5C 300.167,675.5 291.833,675.5 283.5,675.5C 283.5,674.833 283.5,674.167 283.5,673.5C 285.167,673.5 286.833,673.5 288.5,673.5C 288.5,669.5 288.5,665.5 288.5,661.5C 287.167,661.5 285.833,661.5 284.5,661.5C 284.5,660.833 284.5,660.167 284.5,659.5C 292.5,659.5 300.5,659.5 308.5,659.5C 308.5,655.5 308.5,651.5 308.5,647.5C 300.5,647.5 292.5,647.5 284.5,647.5C 284.5,646.833 284.5,646.167 284.5,645.5C 285.833,645.5 287.167,645.5 288.5,645.5C 288.5,641.5 288.5,637.5 288.5,633.5C 287.167,633.5 285.833,633.5 284.5,633.5C 284.5,632.833 284.5,632.167 284.5,631.5C 292.5,631.5 300.5,631.5 308.5,631.5C 308.5,627.5 308.5,623.5 308.5,619.5C 300.5,619.5 292.5,619.5 284.5,619.5C 284.5,618.833 284.5,618.167 284.5,617.5C 285.833,617.5 287.167,617.5 288.5,617.5C 288.5,613.5 288.5,609.5 288.5,605.5C 287.167,605.5 285.833,605.5 284.5,605.5C 284.5,604.833 284.5,604.167 284.5,603.5C 292.5,603.5 300.5,603.5 308.5,603.5C 308.5,599.5 308.5,595.5 308.5,591.5C 300.5,591.5 292.5,591.5 284.5,591.5C 284.5,590.833 284.5,590.167 284.5,589.5C 285.833,589.5 287.167,589.5 288.5,589.5C 288.5,585.5 288.5,581.5 288.5,577.5C 286.833,577.5 285.167,577.5 283.5,577.5C 283.5,576.833 283.5,576.167 283.5,575.5C 291.833,575.5 300.167,575.5 308.5,575.5C 308.5,571.5 308.5,567.5 308.5,563.5C 296.5,563.5 284.5,563.5 272.5,563.5C 270.847,563.34 269.514,562.674 268.5,561.5C 275.167,561.5 281.833,561.5 288.5,561.5C 288.5,557.5 288.5,553.5 288.5,549.5C 275.833,549.5 263.167,549.5 250.5,549.5C 249.5,549.167 248.833,548.5 248.5,547.5C 255.167,547.5 261.833,547.5 268.5,547.5C 268.5,545.5 268.5,543.5 268.5,541.5 Z"/></g>
<g><path style="opacity:1" fill="#fe0000" d="M 270.5,541.5 C 283.167,541.5 295.833,541.5 308.5,541.5C 308.5,543.5 308.5,545.5 308.5,547.5C 295.833,547.5 283.167,547.5 270.5,547.5C 270.5,545.5 270.5,543.5 270.5,541.5 Z"/></g>
<g><path style="opacity:1" fill="#fe0000" d="M 310.5,541.5 C 323.167,541.5 335.833,541.5 348.5,541.5C 348.5,543.5 348.5,545.5 348.5,547.5C 335.833,547.5 323.167,547.5 310.5,547.5C 310.5,545.5 310.5,543.5 310.5,541.5 Z"/></g>
<g><path style="opacity:1" fill="#fe0000" d="M 350.5,541.5 C 363.167,541.5 375.833,541.5 388.5,541.5C 388.5,543.5 388.5,545.5 388.5,547.5C 375.833,547.5 363.167,547.5 350.5,547.5C 350.5,545.5 350.5,543.5 350.5,541.5 Z"/></g>
<g><path style="opacity:1" fill="#fe0000" d="M 390.5,541.5 C 403.167,541.5 415.833,541.5 428.5,541.5C 428.5,543.5 428.5,545.5 428.5,547.5C 415.833,547.5 403.167,547.5 390.5,547.5C 390.5,545.5 390.5,543.5 390.5,541.5 Z"/></g>
<g><path style="opacity:1" fill="#fe0000" d="M 430.5,541.5 C 438.84,541.334 447.173,541.5 455.5,542C 454.336,544.328 452.67,546.162 450.5,547.5C 443.833,547.5 437.167,547.5 430.5,547.5C 430.5,545.5 430.5,543.5 430.5,541.5 Z"/></g>
<g><path style="opacity:1" fill="#fe0000" d="M 250.5,549.5 C 263.167,549.5 275.833,549.5 288.5,549.5C 288.5,553.5 288.5,557.5 288.5,561.5C 281.833,561.5 275.167,561.5 268.5,561.5C 261.803,558.489 255.803,554.489 250.5,549.5 Z"/></g>
<g><path style="opacity:1" fill="#fe0000" d="M 290.5,549.5 C 303.167,549.5 315.833,549.5 328.5,549.5C 328.5,553.5 328.5,557.5 328.5,561.5C 315.833,561.5 303.167,561.5 290.5,561.5C 290.5,557.5 290.5,553.5 290.5,549.5 Z"/></g>
<g><path style="opacity:1" fill="#fe0000" d="M 330.5,549.5 C 343.167,549.5 355.833,549.5 368.5,549.5C 368.5,553.5 368.5,557.5 368.5,561.5C 355.833,561.5 343.167,561.5 330.5,561.5C 330.5,557.5 330.5,553.5 330.5,549.5 Z"/></g>
<g><path style="opacity:1" fill="#fe0000" d="M 370.5,549.5 C 383.167,549.5 395.833,549.5 408.5,549.5C 408.5,553.5 408.5,557.5 408.5,561.5C 395.833,561.5 383.167,561.5 370.5,561.5C 370.5,557.5 370.5,553.5 370.5,549.5 Z"/></g>
<g><path style="opacity:1" fill="#fe0000" d="M 448.5,549.5 C 443.197,554.489 437.197,558.489 430.5,561.5C 423.833,561.5 417.167,561.5 410.5,561.5C 410.5,557.5 410.5,553.5 410.5,549.5C 423.167,549.5 435.833,549.5 448.5,549.5 Z"/></g>
<g><path style="opacity:1" fill="#fe0000" d="M 272.5,563.5 C 284.5,563.5 296.5,563.5 308.5,563.5C 308.5,567.5 308.5,571.5 308.5,575.5C 300.167,575.5 291.833,575.5 283.5,575.5C 283.628,573.345 283.128,571.345 282,569.5C 278.853,567.35 275.687,565.35 272.5,563.5 Z"/></g>
<g><path style="opacity:1" fill="#fe0000" d="M 310.5,563.5 C 323.167,563.5 335.833,563.5 348.5,563.5C 348.5,567.5 348.5,571.5 348.5,575.5C 335.833,575.5 323.167,575.5 310.5,575.5C 310.5,571.5 310.5,567.5 310.5,563.5 Z"/></g>
<g><path style="opacity:1" fill="#fe0000" d="M 350.5,563.5 C 363.167,563.5 375.833,563.5 388.5,563.5C 388.5,567.5 388.5,571.5 388.5,575.5C 375.833,575.5 363.167,575.5 350.5,575.5C 350.5,571.5 350.5,567.5 350.5,563.5 Z"/></g>
<g><path style="opacity:1" fill="#fe0000" d="M 426.5,563.5 C 423.313,565.35 420.147,567.35 417,569.5C 415.872,571.345 415.372,573.345 415.5,575.5C 407.167,575.5 398.833,575.5 390.5,575.5C 390.5,571.5 390.5,567.5 390.5,563.5C 402.5,563.5 414.5,563.5 426.5,563.5 Z"/></g>
<g><path style="opacity:1" fill="#0000ff" d="M 110.5,568.5 C 165.332,567.335 220.332,567.168 275.5,568C 277.587,568.792 279.421,569.959 281,571.5C 282.277,592.813 282.777,614.147 282.5,635.5C 237.499,635.667 192.499,635.5 147.5,635C 137.971,620.786 128.804,606.286 120,591.5C 116.719,583.807 113.552,576.141 110.5,568.5 Z"/></g>
<g><path style="opacity:1" fill="#0000ff" d="M 423.5,567.5 C 478.501,567.333 533.501,567.5 588.5,568C 585.524,575.93 582.358,583.764 579,591.5C 570.196,606.286 561.029,620.786 551.5,635C 506.501,635.5 461.501,635.667 416.5,635.5C 416.223,614.147 416.723,592.813 418,571.5C 419.812,570.023 421.645,568.69 423.5,567.5 Z"/></g>
<g><path style="opacity:1" fill="#fe0000" d="M 283.5,577.5 C 285.167,577.5 286.833,577.5 288.5,577.5C 288.5,581.5 288.5,585.5 288.5,589.5C 287.167,589.5 285.833,589.5 284.5,589.5C 283.64,585.566 283.307,581.566 283.5,577.5 Z"/></g>
<g><path style="opacity:1" fill="#fe0000" d="M 290.5,577.5 C 303.167,577.5 315.833,577.5 328.5,577.5C 328.5,581.5 328.5,585.5 328.5,589.5C 315.833,589.5 303.167,589.5 290.5,589.5C 290.5,585.5 290.5,581.5 290.5,577.5 Z"/></g>
<g><path style="opacity:1" fill="#fe0000" d="M 330.5,577.5 C 343.167,577.5 355.833,577.5 368.5,577.5C 368.5,581.5 368.5,585.5 368.5,589.5C 355.833,589.5 343.167,589.5 330.5,589.5C 330.5,585.5 330.5,581.5 330.5,577.5 Z"/></g>
<g><path style="opacity:1" fill="#fe0000" d="M 370.5,577.5 C 383.167,577.5 395.833,577.5 408.5,577.5C 408.5,581.5 408.5,585.5 408.5,589.5C 395.833,589.5 383.167,589.5 370.5,589.5C 370.5,585.5 370.5,581.5 370.5,577.5 Z"/></g>
<g><path style="opacity:1" fill="#fe0000" d="M 415.5,577.5 C 415.693,581.566 415.36,585.566 414.5,589.5C 413.167,589.5 411.833,589.5 410.5,589.5C 410.5,585.5 410.5,581.5 410.5,577.5C 412.167,577.5 413.833,577.5 415.5,577.5 Z"/></g>
<g><path style="opacity:1" fill="#fe0000" d="M 284.5,591.5 C 292.5,591.5 300.5,591.5 308.5,591.5C 308.5,595.5 308.5,599.5 308.5,603.5C 300.5,603.5 292.5,603.5 284.5,603.5C 284.5,599.5 284.5,595.5 284.5,591.5 Z"/></g>
<g><path style="opacity:1" fill="#fe0000" d="M 310.5,591.5 C 323.167,591.5 335.833,591.5 348.5,591.5C 348.5,595.5 348.5,599.5 348.5,603.5C 335.833,603.5 323.167,603.5 310.5,603.5C 310.5,599.5 310.5,595.5 310.5,591.5 Z"/></g>
<g><path style="opacity:1" fill="#fe0000" d="M 350.5,591.5 C 363.167,591.5 375.833,591.5 388.5,591.5C 388.5,595.5 388.5,599.5 388.5,603.5C 375.833,603.5 363.167,603.5 350.5,603.5C 350.5,599.5 350.5,595.5 350.5,591.5 Z"/></g>
<g><path style="opacity:1" fill="#fe0000" d="M 414.5,591.5 C 414.5,595.5 414.5,599.5 414.5,603.5C 406.5,603.5 398.5,603.5 390.5,603.5C 390.5,599.5 390.5,595.5 390.5,591.5C 398.5,591.5 406.5,591.5 414.5,591.5 Z"/></g>
<g><path style="opacity:1" fill="#fe0000" d="M 284.5,605.5 C 285.833,605.5 287.167,605.5 288.5,605.5C 288.5,609.5 288.5,613.5 288.5,617.5C 287.167,617.5 285.833,617.5 284.5,617.5C 284.5,613.5 284.5,609.5 284.5,605.5 Z"/></g>
<g><path style="opacity:1" fill="#fe0000" d="M 290.5,605.5 C 303.167,605.5 315.833,605.5 328.5,605.5C 328.5,609.5 328.5,613.5 328.5,617.5C 315.833,617.5 303.167,617.5 290.5,617.5C 290.5,613.5 290.5,609.5 290.5,605.5 Z"/></g>
<g><path style="opacity:1" fill="#fe0000" d="M 330.5,605.5 C 343.167,605.5 355.833,605.5 368.5,605.5C 368.5,609.5 368.5,613.5 368.5,617.5C 355.833,617.5 343.167,617.5 330.5,617.5C 330.5,613.5 330.5,609.5 330.5,605.5 Z"/></g>
<g><path style="opacity:1" fill="#fe0000" d="M 370.5,605.5 C 383.167,605.5 395.833,605.5 408.5,605.5C 408.5,609.5 408.5,613.5 408.5,617.5C 395.833,617.5 383.167,617.5 370.5,617.5C 370.5,613.5 370.5,609.5 370.5,605.5 Z"/></g>
<g><path style="opacity:1" fill="#fe0000" d="M 414.5,605.5 C 414.5,609.5 414.5,613.5 414.5,617.5C 413.167,617.5 411.833,617.5 410.5,617.5C 410.5,613.5 410.5,609.5 410.5,605.5C 411.833,605.5 413.167,605.5 414.5,605.5 Z"/></g>
<g><path style="opacity:1" fill="#fe0000" d="M 284.5,619.5 C 292.5,619.5 300.5,619.5 308.5,619.5C 308.5,623.5 308.5,627.5 308.5,631.5C 300.5,631.5 292.5,631.5 284.5,631.5C 284.5,627.5 284.5,623.5 284.5,619.5 Z"/></g>
<g><path style="opacity:1" fill="#fe0000" d="M 310.5,619.5 C 323.167,619.5 335.833,619.5 348.5,619.5C 348.5,623.5 348.5,627.5 348.5,631.5C 335.833,631.5 323.167,631.5 310.5,631.5C 310.5,627.5 310.5,623.5 310.5,619.5 Z"/></g>
<g><path style="opacity:1" fill="#fe0000" d="M 350.5,619.5 C 363.167,619.5 375.833,619.5 388.5,619.5C 388.5,623.5 388.5,627.5 388.5,631.5C 375.833,631.5 363.167,631.5 350.5,631.5C 350.5,627.5 350.5,623.5 350.5,619.5 Z"/></g>
<g><path style="opacity:1" fill="#fe0000" d="M 414.5,619.5 C 414.5,623.5 414.5,627.5 414.5,631.5C 406.5,631.5 398.5,631.5 390.5,631.5C 390.5,627.5 390.5,623.5 390.5,619.5C 398.5,619.5 406.5,619.5 414.5,619.5 Z"/></g>
<g><path style="opacity:1" fill="#fe0000" d="M 284.5,633.5 C 285.833,633.5 287.167,633.5 288.5,633.5C 288.5,637.5 288.5,641.5 288.5,645.5C 287.167,645.5 285.833,645.5 284.5,645.5C 284.5,641.5 284.5,637.5 284.5,633.5 Z"/></g>
<g><path style="opacity:1" fill="#fe0000" d="M 290.5,633.5 C 303.167,633.5 315.833,633.5 328.5,633.5C 328.5,637.5 328.5,641.5 328.5,645.5C 315.833,645.5 303.167,645.5 290.5,645.5C 290.5,641.5 290.5,637.5 290.5,633.5 Z"/></g>
<g><path style="opacity:1" fill="#fe0000" d="M 330.5,633.5 C 343.167,633.5 355.833,633.5 368.5,633.5C 368.5,637.5 368.5,641.5 368.5,645.5C 355.833,645.5 343.167,645.5 330.5,645.5C 330.5,641.5 330.5,637.5 330.5,633.5 Z"/></g>
<g><path style="opacity:1" fill="#fe0000" d="M 370.5,633.5 C 383.167,633.5 395.833,633.5 408.5,633.5C 408.5,637.5 408.5,641.5 408.5,645.5C 395.833,645.5 383.167,645.5 370.5,645.5C 370.5,641.5 370.5,637.5 370.5,633.5 Z"/></g>
<g><path style="opacity:1" fill="#fe0000" d="M 414.5,633.5 C 414.5,637.5 414.5,641.5 414.5,645.5C 413.167,645.5 411.833,645.5 410.5,645.5C 410.5,641.5 410.5,637.5 410.5,633.5C 411.833,633.5 413.167,633.5 414.5,633.5 Z"/></g>
<g><path style="opacity:1" fill="#fed700" d="M 149.5,638.5 C 193.664,637.501 237.997,637.168 282.5,637.5C 282.139,660.182 281.473,682.848 280.5,705.5C 257.498,705.667 234.498,705.5 211.5,705C 188.566,684.901 167.9,662.735 149.5,638.5 Z"/></g>
<g><path style="opacity:1" fill="#fed700" d="M 416.5,637.5 C 460.835,637.333 505.168,637.5 549.5,638C 531.238,662.594 510.571,684.927 487.5,705C 464.502,705.5 441.502,705.667 418.5,705.5C 417.527,682.848 416.861,660.182 416.5,637.5 Z"/></g>
<g><path style="opacity:1" fill="#fe0000" d="M 284.5,647.5 C 292.5,647.5 300.5,647.5 308.5,647.5C 308.5,651.5 308.5,655.5 308.5,659.5C 300.5,659.5 292.5,659.5 284.5,659.5C 284.5,655.5 284.5,651.5 284.5,647.5 Z"/></g>
<g><path style="opacity:1" fill="#fe0000" d="M 310.5,647.5 C 323.167,647.5 335.833,647.5 348.5,647.5C 348.5,651.5 348.5,655.5 348.5,659.5C 335.833,659.5 323.167,659.5 310.5,659.5C 310.5,655.5 310.5,651.5 310.5,647.5 Z"/></g>
<g><path style="opacity:1" fill="#fe0000" d="M 350.5,647.5 C 363.167,647.5 375.833,647.5 388.5,647.5C 388.5,651.5 388.5,655.5 388.5,659.5C 375.833,659.5 363.167,659.5 350.5,659.5C 350.5,655.5 350.5,651.5 350.5,647.5 Z"/></g>
<g><path style="opacity:1" fill="#fe0000" d="M 414.5,647.5 C 414.5,651.5 414.5,655.5 414.5,659.5C 406.5,659.5 398.5,659.5 390.5,659.5C 390.5,655.5 390.5,651.5 390.5,647.5C 398.5,647.5 406.5,647.5 414.5,647.5 Z"/></g>
<g><path style="opacity:1" fill="#fe0000" d="M 284.5,661.5 C 285.833,661.5 287.167,661.5 288.5,661.5C 288.5,665.5 288.5,669.5 288.5,673.5C 286.833,673.5 285.167,673.5 283.5,673.5C 283.183,669.298 283.517,665.298 284.5,661.5 Z"/></g>
<g><path style="opacity:1" fill="#fe0000" d="M 290.5,661.5 C 303.167,661.5 315.833,661.5 328.5,661.5C 328.5,665.5 328.5,669.5 328.5,673.5C 315.833,673.5 303.167,673.5 290.5,673.5C 290.5,669.5 290.5,665.5 290.5,661.5 Z"/></g>
<g><path style="opacity:1" fill="#fe0000" d="M 330.5,661.5 C 343.167,661.5 355.833,661.5 368.5,661.5C 368.5,665.5 368.5,669.5 368.5,673.5C 355.833,673.5 343.167,673.5 330.5,673.5C 330.5,669.5 330.5,665.5 330.5,661.5 Z"/></g>
<g><path style="opacity:1" fill="#fe0000" d="M 370.5,661.5 C 383.167,661.5 395.833,661.5 408.5,661.5C 408.5,665.5 408.5,669.5 408.5,673.5C 395.833,673.5 383.167,673.5 370.5,673.5C 370.5,669.5 370.5,665.5 370.5,661.5 Z"/></g>
<g><path style="opacity:1" fill="#fe0000" d="M 414.5,661.5 C 415.483,665.298 415.817,669.298 415.5,673.5C 413.833,673.5 412.167,673.5 410.5,673.5C 410.5,669.5 410.5,665.5 410.5,661.5C 411.833,661.5 413.167,661.5 414.5,661.5 Z"/></g>
<g><path style="opacity:1" fill="#fe0000" d="M 283.5,675.5 C 291.833,675.5 300.167,675.5 308.5,675.5C 308.5,679.5 308.5,683.5 308.5,687.5C 300.167,687.5 291.833,687.5 283.5,687.5C 283.5,683.5 283.5,679.5 283.5,675.5 Z"/></g>
<g><path style="opacity:1" fill="#fe0000" d="M 310.5,675.5 C 323.167,675.5 335.833,675.5 348.5,675.5C 348.5,679.5 348.5,683.5 348.5,687.5C 335.833,687.5 323.167,687.5 310.5,687.5C 310.5,683.5 310.5,679.5 310.5,675.5 Z"/></g>
<g><path style="opacity:1" fill="#fe0000" d="M 350.5,675.5 C 363.167,675.5 375.833,675.5 388.5,675.5C 388.5,679.5 388.5,683.5 388.5,687.5C 375.833,687.5 363.167,687.5 350.5,687.5C 350.5,683.5 350.5,679.5 350.5,675.5 Z"/></g>
<g><path style="opacity:1" fill="#fe0000" d="M 415.5,675.5 C 415.5,679.5 415.5,683.5 415.5,687.5C 407.167,687.5 398.833,687.5 390.5,687.5C 390.5,683.5 390.5,679.5 390.5,675.5C 398.833,675.5 407.167,675.5 415.5,675.5 Z"/></g>
<g><path style="opacity:1" fill="#fe0000" d="M 283.5,689.5 C 285.167,689.5 286.833,689.5 288.5,689.5C 288.5,693.5 288.5,697.5 288.5,701.5C 286.5,701.5 284.5,701.5 282.5,701.5C 283.272,697.548 283.605,693.548 283.5,689.5 Z"/></g>
<g><path style="opacity:1" fill="#fe0000" d="M 290.5,689.5 C 303.167,689.5 315.833,689.5 328.5,689.5C 328.5,693.5 328.5,697.5 328.5,701.5C 315.833,701.5 303.167,701.5 290.5,701.5C 290.5,697.5 290.5,693.5 290.5,689.5 Z"/></g>
<g><path style="opacity:1" fill="#fe0000" d="M 330.5,689.5 C 343.167,689.5 355.833,689.5 368.5,689.5C 368.5,693.5 368.5,697.5 368.5,701.5C 355.833,701.5 343.167,701.5 330.5,701.5C 330.5,697.5 330.5,693.5 330.5,689.5 Z"/></g>
<g><path style="opacity:1" fill="#fe0000" d="M 370.5,689.5 C 383.167,689.5 395.833,689.5 408.5,689.5C 408.5,693.5 408.5,697.5 408.5,701.5C 395.833,701.5 383.167,701.5 370.5,701.5C 370.5,697.5 370.5,693.5 370.5,689.5 Z"/></g>
<g><path style="opacity:1" fill="#fe0000" d="M 415.5,689.5 C 415.395,693.548 415.728,697.548 416.5,701.5C 414.5,701.5 412.5,701.5 410.5,701.5C 410.5,697.5 410.5,693.5 410.5,689.5C 412.167,689.5 413.833,689.5 415.5,689.5 Z"/></g>
<g><path style="opacity:1" fill="#fe0000" d="M 282.5,703.5 C 291.167,703.5 299.833,703.5 308.5,703.5C 308.5,707.5 308.5,711.5 308.5,715.5C 299.5,715.5 290.5,715.5 281.5,715.5C 281.833,711.5 282.167,707.5 282.5,703.5 Z"/></g>
<g><path style="opacity:1" fill="#fe0000" d="M 310.5,703.5 C 323.167,703.5 335.833,703.5 348.5,703.5C 348.5,707.5 348.5,711.5 348.5,715.5C 335.833,715.5 323.167,715.5 310.5,715.5C 310.5,711.5 310.5,707.5 310.5,703.5 Z"/></g>
<g><path style="opacity:1" fill="#fe0000" d="M 350.5,703.5 C 363.167,703.5 375.833,703.5 388.5,703.5C 388.5,707.5 388.5,711.5 388.5,715.5C 375.833,715.5 363.167,715.5 350.5,715.5C 350.5,711.5 350.5,707.5 350.5,703.5 Z"/></g>
<g><path style="opacity:1" fill="#fe0000" d="M 416.5,703.5 C 416.833,707.5 417.167,711.5 417.5,715.5C 408.5,715.5 399.5,715.5 390.5,715.5C 390.5,711.5 390.5,707.5 390.5,703.5C 399.167,703.5 407.833,703.5 416.5,703.5 Z"/></g>
<g><path style="opacity:1" fill="#0000ff" d="M 214.5,708.5 C 236.337,707.172 258.337,707.172 280.5,708.5C 278.835,720.489 277.168,732.489 275.5,744.5C 266.262,740.881 257.262,736.715 248.5,732C 236.892,724.379 225.559,716.546 214.5,708.5 Z"/></g>
<g><path style="opacity:1" fill="#0000ff" d="M 418.5,707.5 C 440.503,707.333 462.503,707.5 484.5,708C 466.09,723.212 445.757,735.379 423.5,744.5C 421.738,732.166 420.071,719.832 418.5,707.5 Z"/></g>
<g><path style="opacity:1" fill="#fe0000" d="M 281.5,717.5 C 283.833,717.5 286.167,717.5 288.5,717.5C 288.5,721.5 288.5,725.5 288.5,729.5C 285.5,729.5 282.5,729.5 279.5,729.5C 280.075,725.477 280.741,721.477 281.5,717.5 Z"/></g>
<g><path style="opacity:1" fill="#fe0000" d="M 290.5,717.5 C 303.167,717.5 315.833,717.5 328.5,717.5C 328.5,721.5 328.5,725.5 328.5,729.5C 315.833,729.5 303.167,729.5 290.5,729.5C 290.5,725.5 290.5,721.5 290.5,717.5 Z"/></g>
<g><path style="opacity:1" fill="#fe0000" d="M 330.5,717.5 C 343.167,717.5 355.833,717.5 368.5,717.5C 368.5,721.5 368.5,725.5 368.5,729.5C 355.833,729.5 343.167,729.5 330.5,729.5C 330.5,725.5 330.5,721.5 330.5,717.5 Z"/></g>
<g><path style="opacity:1" fill="#fe0000" d="M 370.5,717.5 C 383.167,717.5 395.833,717.5 408.5,717.5C 408.5,721.5 408.5,725.5 408.5,729.5C 395.833,729.5 383.167,729.5 370.5,729.5C 370.5,725.5 370.5,721.5 370.5,717.5 Z"/></g>
<g><path style="opacity:1" fill="#fe0000" d="M 417.5,717.5 C 418.259,721.477 418.925,725.477 419.5,729.5C 416.5,729.5 413.5,729.5 410.5,729.5C 410.5,725.5 410.5,721.5 410.5,717.5C 412.833,717.5 415.167,717.5 417.5,717.5 Z"/></g>
<g><path style="opacity:1" fill="#fe0000" d="M 279.5,731.5 C 289.167,731.5 298.833,731.5 308.5,731.5C 308.5,735.5 308.5,739.5 308.5,743.5C 298.167,743.5 287.833,743.5 277.5,743.5C 277.74,739.394 278.407,735.394 279.5,731.5 Z"/></g>
<g><path style="opacity:1" fill="#fe0000" d="M 310.5,731.5 C 323.167,731.5 335.833,731.5 348.5,731.5C 348.5,735.5 348.5,739.5 348.5,743.5C 335.833,743.5 323.167,743.5 310.5,743.5C 310.5,739.5 310.5,735.5 310.5,731.5 Z"/></g>
<g><path style="opacity:1" fill="#fe0000" d="M 350.5,731.5 C 363.167,731.5 375.833,731.5 388.5,731.5C 388.5,735.5 388.5,739.5 388.5,743.5C 375.833,743.5 363.167,743.5 350.5,743.5C 350.5,739.5 350.5,735.5 350.5,731.5 Z"/></g>
<g><path style="opacity:1" fill="#fe0000" d="M 419.5,731.5 C 420.593,735.394 421.26,739.394 421.5,743.5C 411.167,743.5 400.833,743.5 390.5,743.5C 390.5,739.5 390.5,735.5 390.5,731.5C 400.167,731.5 409.833,731.5 419.5,731.5 Z"/></g>
<g><path style="opacity:1" fill="#fe0000" d="M 277.5,745.5 C 281.167,745.5 284.833,745.5 288.5,745.5C 288.5,746.833 288.5,748.167 288.5,749.5C 284.285,749.075 280.285,747.908 276.5,746C 276.728,745.601 277.062,745.435 277.5,745.5 Z"/></g>
<g><path style="opacity:1" fill="#fe0000" d="M 306.5,757.5 C 300.64,756.234 295.307,753.9 290.5,750.5C 290.5,748.833 290.5,747.167 290.5,745.5C 303.167,745.5 315.833,745.5 328.5,745.5C 328.5,749.5 328.5,753.5 328.5,757.5C 321.167,757.5 313.833,757.5 306.5,757.5 Z"/></g>
<g><path style="opacity:1" fill="#fe0000" d="M 330.5,745.5 C 343.167,745.5 355.833,745.5 368.5,745.5C 368.5,749.5 368.5,753.5 368.5,757.5C 355.833,757.5 343.167,757.5 330.5,757.5C 330.5,753.5 330.5,749.5 330.5,745.5 Z"/></g>
<g><path style="opacity:1" fill="#fe0000" d="M 408.5,750.5 C 403.693,753.9 398.36,756.234 392.5,757.5C 385.167,757.5 377.833,757.5 370.5,757.5C 370.5,753.5 370.5,749.5 370.5,745.5C 383.167,745.5 395.833,745.5 408.5,745.5C 408.5,747.167 408.5,748.833 408.5,750.5 Z"/></g>
<g><path style="opacity:1" fill="#fe0000" d="M 421.5,745.5 C 421.938,745.435 422.272,745.601 422.5,746C 418.715,747.908 414.715,749.075 410.5,749.5C 410.5,748.167 410.5,746.833 410.5,745.5C 414.167,745.5 417.833,745.5 421.5,745.5 Z"/></g>
<g><path style="opacity:1" fill="#fe0000" d="M 312.5,759.5 C 324.5,759.5 336.5,759.5 348.5,759.5C 348.5,763.5 348.5,767.5 348.5,771.5C 336.373,767.68 324.373,763.68 312.5,759.5 Z"/></g>
<g><path style="opacity:1" fill="#fe0000" d="M 386.5,759.5 C 374.627,763.68 362.627,767.68 350.5,771.5C 350.5,767.5 350.5,763.5 350.5,759.5C 362.5,759.5 374.5,759.5 386.5,759.5 Z"/></g>
</svg>
