<?xml version="1.0" encoding="UTF-8"?>
<!DOCTYPE svg PUBLIC "-//W3C//DTD SVG 1.1//EN" "http://www.w3.org/Graphics/SVG/1.1/DTD/svg11.dtd">
<svg xmlns="http://www.w3.org/2000/svg" version="1.1" width="700px" height="850px" style="shape-rendering:geometricPrecision; text-rendering:geometricPrecision; image-rendering:optimizeQuality; fill-rule:evenodd; clip-rule:evenodd" xmlns:xlink="http://www.w3.org/1999/xlink">
<g><path style="opacity:1" fill="#483d00" d="M 76.5,74.5 C 258.5,74.5 440.5,74.5 622.5,74.5C 622.667,199.167 622.5,323.834 622,448.5C 616.593,496.127 604.927,542.127 587,586.5C 560.17,635.918 525.337,679.084 482.5,716C 451.746,738.544 418.079,755.544 381.5,767C 374.105,769.132 366.772,771.465 359.5,774C 352.833,776 346.167,776 339.5,774C 307.673,764.415 277.006,752.082 247.5,737C 222.337,721.187 199.504,702.354 179,680.5C 168.373,667.538 157.373,654.871 146,642.5C 134.177,624.199 122.844,605.532 112,586.5C 94.0733,542.127 82.4067,496.127 77,448.5C 76.5,323.834 76.3333,199.167 76.5,74.5 Z"/></g>
<g><path style="opacity:1" fill="#bfc0bf" d="M 81.5,80.5 C 260.167,80.5 438.833,80.5 617.5,80.5C 617.667,202.5 617.5,324.5 617,446.5C 611.753,494.488 600.086,540.821 582,585.5C 573.793,600.21 564.959,614.543 555.5,628.5C 554.833,628.833 554.167,629.167 553.5,629.5C 531.467,623.951 509.8,625.118 488.5,633C 481.52,636.633 474.52,640.3 467.5,644C 447.5,650 427.5,650 407.5,644C 398.167,639.333 388.833,634.667 379.5,630C 359.5,624 339.5,624 319.5,630C 310.167,634.667 300.833,639.333 291.5,644C 271.5,650 251.5,650 231.5,644C 219.951,637.557 207.951,632.224 195.5,628C 178.762,624.94 162.095,625.44 145.5,629.5C 143.543,628.046 141.71,626.38 140,624.5C 132.068,611.632 124.401,598.632 117,585.5C 98.9135,540.821 87.2469,494.488 82,446.5C 81.5,324.5 81.3333,202.5 81.5,80.5 Z"/></g>
<g><path style="opacity:1" fill="#493d00" d="M 226.5,130.5 C 236.5,130.5 246.5,130.5 256.5,130.5C 256.5,137.833 256.5,145.167 256.5,152.5C 264.5,152.5 272.5,152.5 280.5,152.5C 280.5,145.167 280.5,137.833 280.5,130.5C 290.5,130.5 300.5,130.5 310.5,130.5C 310.5,137.833 310.5,145.167 310.5,152.5C 318.5,152.5 326.5,152.5 334.5,152.5C 334.5,145.167 334.5,137.833 334.5,130.5C 344.5,130.5 354.5,130.5 364.5,130.5C 364.5,137.833 364.5,145.167 364.5,152.5C 372.5,152.5 380.5,152.5 388.5,152.5C 388.5,145.167 388.5,137.833 388.5,130.5C 398.5,130.5 408.5,130.5 418.5,130.5C 418.5,137.833 418.5,145.167 418.5,152.5C 426.5,152.5 434.5,152.5 442.5,152.5C 442.5,145.167 442.5,137.833 442.5,130.5C 452.5,130.5 462.5,130.5 472.5,130.5C 472.667,145.17 472.5,159.837 472,174.5C 468.574,180.921 464.074,186.421 458.5,191C 449.245,196.879 439.745,202.379 430,207.5C 429.833,228.333 429.667,249.167 429.5,270C 429.489,317.196 430.322,364.363 432,411.5C 438.247,430.994 446.914,449.328 458,466.5C 460.196,471.42 462.196,476.42 464,481.5C 465.857,495.776 467.19,510.109 468,524.5C 468.653,527.807 470.319,530.473 473,532.5C 473.5,541.827 473.666,551.161 473.5,560.5C 390.833,560.5 308.167,560.5 225.5,560.5C 225.334,551.161 225.5,541.827 226,532.5C 228.681,530.473 230.347,527.807 231,524.5C 231.81,510.109 233.143,495.776 235,481.5C 236.667,477.167 238.333,472.833 240,468.5C 248.097,455.311 255.43,441.644 262,427.5C 264.269,422.36 265.935,417.027 267,411.5C 268.678,364.363 269.511,317.196 269.5,270C 269.333,249.167 269.167,228.333 269,207.5C 259.255,202.379 249.755,196.879 240.5,191C 234.926,186.421 230.426,180.921 227,174.5C 226.5,159.837 226.333,145.17 226.5,130.5 Z"/></g>
<g><path style="opacity:1" fill="#fe0000" d="M 228.5,132.5 C 237.167,132.5 245.833,132.5 254.5,132.5C 254.5,139.833 254.5,147.167 254.5,154.5C 263.833,154.5 273.167,154.5 282.5,154.5C 282.5,147.167 282.5,139.833 282.5,132.5C 291.167,132.5 299.833,132.5 308.5,132.5C 308.5,139.833 308.5,147.167 308.5,154.5C 317.833,154.5 327.167,154.5 336.5,154.5C 336.5,147.167 336.5,139.833 336.5,132.5C 345.167,132.5 353.833,132.5 362.5,132.5C 362.5,139.833 362.5,147.167 362.5,154.5C 371.833,154.5 381.167,154.5 390.5,154.5C 390.5,147.167 390.5,139.833 390.5,132.5C 399.167,132.5 407.833,132.5 416.5,132.5C 416.5,139.833 416.5,147.167 416.5,154.5C 425.833,154.5 435.167,154.5 444.5,154.5C 444.5,147.167 444.5,139.833 444.5,132.5C 453.167,132.5 461.833,132.5 470.5,132.5C 470.667,146.504 470.5,160.504 470,174.5C 469.626,175.416 469.126,176.25 468.5,177C 389.167,177.667 309.833,177.667 230.5,177C 229.874,176.25 229.374,175.416 229,174.5C 228.5,160.504 228.333,146.504 228.5,132.5 Z"/></g>
<g><path style="opacity:1" fill="#fe0000" d="M 232.5,180.5 C 310.332,179.334 388.332,179.168 466.5,180C 464.874,182.628 462.874,184.961 460.5,187C 450.164,193.837 439.497,200.17 428.5,206C 375.833,206.667 323.167,206.667 270.5,206C 259.503,200.17 248.836,193.837 238.5,187C 236.266,184.937 234.266,182.771 232.5,180.5 Z"/></g>
<g><path style="opacity:1" fill="#fe0000" d="M 288.5,208.5 C 288.5,212.5 288.5,216.5 288.5,220.5C 282.833,220.5 277.167,220.5 271.5,220.5C 271.5,216.5 271.5,212.5 271.5,208.5C 277.167,208.5 282.833,208.5 288.5,208.5 Z"/></g>
<g><path style="opacity:1" fill="#000000" d="M 288.5,208.5 C 289.167,208.5 289.833,208.5 290.5,208.5C 290.5,212.5 290.5,216.5 290.5,220.5C 303.167,220.5 315.833,220.5 328.5,220.5C 328.5,216.5 328.5,212.5 328.5,208.5C 329.167,208.5 329.833,208.5 330.5,208.5C 330.5,212.5 330.5,216.5 330.5,220.5C 343.167,220.5 355.833,220.5 368.5,220.5C 368.5,216.5 368.5,212.5 368.5,208.5C 369.167,208.5 369.833,208.5 370.5,208.5C 370.5,212.5 370.5,216.5 370.5,220.5C 383.167,220.5 395.833,220.5 408.5,220.5C 408.5,216.5 408.5,212.5 408.5,208.5C 409.167,208.5 409.833,208.5 410.5,208.5C 410.5,212.5 410.5,216.5 410.5,220.5C 416.167,220.5 421.833,220.5 427.5,220.5C 427.5,221.167 427.5,221.833 427.5,222.5C 415.167,222.5 402.833,222.5 390.5,222.5C 390.5,226.5 390.5,230.5 390.5,234.5C 402.833,234.5 415.167,234.5 427.5,234.5C 427.5,235.167 427.5,235.833 427.5,236.5C 421.833,236.5 416.167,236.5 410.5,236.5C 410.5,240.5 410.5,244.5 410.5,248.5C 416.167,248.5 421.833,248.5 427.5,248.5C 427.5,249.167 427.5,249.833 427.5,250.5C 415.167,250.5 402.833,250.5 390.5,250.5C 390.5,254.5 390.5,258.5 390.5,262.5C 402.833,262.5 415.167,262.5 427.5,262.5C 427.5,263.167 427.5,263.833 427.5,264.5C 421.833,264.5 416.167,264.5 410.5,264.5C 410.5,268.5 410.5,272.5 410.5,276.5C 416.167,276.5 421.833,276.5 427.5,276.5C 427.5,277.167 427.5,277.833 427.5,278.5C 415.167,278.5 402.833,278.5 390.5,278.5C 390.5,282.5 390.5,286.5 390.5,290.5C 402.833,290.5 415.167,290.5 427.5,290.5C 427.5,291.167 427.5,291.833 427.5,292.5C 421.833,292.5 416.167,292.5 410.5,292.5C 410.5,296.5 410.5,300.5 410.5,304.5C 416.167,304.5 421.833,304.5 427.5,304.5C 427.5,305.167 427.5,305.833 427.5,306.5C 415.167,306.5 402.833,306.5 390.5,306.5C 390.5,310.5 390.5,314.5 390.5,318.5C 402.833,318.5 415.167,318.5 427.5,318.5C 427.5,319.167 427.5,319.833 427.5,320.5C 421.833,320.5 416.167,320.5 410.5,320.5C 410.5,324.5 410.5,328.5 410.5,332.5C 416.167,332.5 421.833,332.5 427.5,332.5C 428.338,332.842 428.672,333.508 428.5,334.5C 415.833,334.5 403.167,334.5 390.5,334.5C 390.5,338.5 390.5,342.5 390.5,346.5C 403.167,346.5 415.833,346.5 428.5,346.5C 428.5,347.167 428.5,347.833 428.5,348.5C 422.5,348.5 416.5,348.5 410.5,348.5C 410.5,352.5 410.5,356.5 410.5,360.5C 416.5,360.5 422.5,360.5 428.5,360.5C 428.5,361.167 428.5,361.833 428.5,362.5C 415.833,362.5 403.167,362.5 390.5,362.5C 390.5,366.5 390.5,370.5 390.5,374.5C 403.167,374.5 415.833,374.5 428.5,374.5C 428.5,375.167 428.5,375.833 428.5,376.5C 422.5,376.5 416.5,376.5 410.5,376.5C 410.5,380.5 410.5,384.5 410.5,388.5C 416.5,388.5 422.5,388.5 428.5,388.5C 428.5,389.167 428.5,389.833 428.5,390.5C 415.833,390.5 403.167,390.5 390.5,390.5C 390.5,394.5 390.5,398.5 390.5,402.5C 403.167,402.5 415.833,402.5 428.5,402.5C 428.833,403.167 429.167,403.833 429.5,404.5C 423.167,404.5 416.833,404.5 410.5,404.5C 410.5,408.5 410.5,412.5 410.5,416.5C 417.5,416.5 424.5,416.5 431.5,416.5C 431.5,417.167 431.5,417.833 431.5,418.5C 430.517,422.298 430.183,426.298 430.5,430.5C 432.5,430.5 434.5,430.5 436.5,430.5C 436.5,431.167 436.5,431.833 436.5,432.5C 427.833,432.5 419.167,432.5 410.5,432.5C 410.5,436.5 410.5,440.5 410.5,444.5C 421.5,444.5 432.5,444.5 443.5,444.5C 443.833,445.167 444.167,445.833 444.5,446.5C 439.833,446.5 435.167,446.5 430.5,446.5C 430.5,450.5 430.5,454.5 430.5,458.5C 437.167,458.5 443.833,458.5 450.5,458.5C 451.338,458.842 451.672,459.508 451.5,460.5C 450.517,464.298 450.183,468.298 450.5,472.5C 453.167,472.5 455.833,472.5 458.5,472.5C 458.5,473.167 458.5,473.833 458.5,474.5C 449.167,474.5 439.833,474.5 430.5,474.5C 430.5,478.5 430.5,482.5 430.5,486.5C 441.167,486.5 451.833,486.5 462.5,486.5C 463.338,486.842 463.672,487.508 463.5,488.5C 459.167,488.5 454.833,488.5 450.5,488.5C 450.5,492.5 450.5,496.5 450.5,500.5C 455.167,500.5 459.833,500.5 464.5,500.5C 464.5,501.167 464.5,501.833 464.5,502.5C 453.167,502.5 441.833,502.5 430.5,502.5C 430.5,506.5 430.5,510.5 430.5,514.5C 441.833,514.5 453.167,514.5 464.5,514.5C 465.338,514.842 465.672,515.508 465.5,516.5C 460.5,516.5 455.5,516.5 450.5,516.5C 450.5,520.5 450.5,524.5 450.5,528.5C 456.167,528.5 461.833,528.5 467.5,528.5C 467.833,529.167 468.167,529.833 468.5,530.5C 455.833,530.5 443.167,530.5 430.5,530.5C 430.5,534.5 430.5,538.5 430.5,542.5C 443.167,542.5 455.833,542.5 468.5,542.5C 468.5,538.833 468.5,535.167 468.5,531.5C 469.117,531.611 469.617,531.944 470,532.5C 470.304,536.548 470.804,540.548 471.5,544.5C 464.5,544.5 457.5,544.5 450.5,544.5C 450.5,549.167 450.5,553.833 450.5,558.5C 449.833,558.5 449.167,558.5 448.5,558.5C 448.5,553.833 448.5,549.167 448.5,544.5C 435.833,544.5 423.167,544.5 410.5,544.5C 410.5,549.167 410.5,553.833 410.5,558.5C 409.833,558.5 409.167,558.5 408.5,558.5C 408.5,553.833 408.5,549.167 408.5,544.5C 397.833,544.5 387.167,544.5 376.5,544.5C 376.5,543.833 376.5,543.167 376.5,542.5C 380.5,542.5 384.5,542.5 388.5,542.5C 388.5,538.5 388.5,534.5 388.5,530.5C 384.5,530.5 380.5,530.5 376.5,530.5C 376.5,529.833 376.5,529.167 376.5,528.5C 387.167,528.5 397.833,528.5 408.5,528.5C 408.5,524.5 408.5,520.5 408.5,516.5C 397.833,516.5 387.167,516.5 376.5,516.5C 376.5,515.833 376.5,515.167 376.5,514.5C 380.5,514.5 384.5,514.5 388.5,514.5C 388.5,510.5 388.5,506.5 388.5,502.5C 384.5,502.5 380.5,502.5 376.5,502.5C 376.5,501.833 376.5,501.167 376.5,500.5C 387.167,500.5 397.833,500.5 408.5,500.5C 408.5,496.5 408.5,492.5 408.5,488.5C 397.833,488.5 387.167,488.5 376.5,488.5C 376.5,487.833 376.5,487.167 376.5,486.5C 380.5,486.5 384.5,486.5 388.5,486.5C 388.5,482.5 388.5,478.5 388.5,474.5C 384.5,474.5 380.5,474.5 376.5,474.5C 375.833,474.5 375.167,474.5 374.5,474.5C 372.885,471.55 370.885,468.884 368.5,466.5C 368.5,465.5 368.5,464.5 368.5,463.5C 368.5,462.5 368.5,461.5 368.5,460.5C 366.5,460.5 364.5,460.5 362.5,460.5C 360.5,460.5 358.5,460.5 356.5,460.5C 351.833,460.5 347.167,460.5 342.5,460.5C 340.5,460.5 338.5,460.5 336.5,460.5C 334.5,460.5 332.5,460.5 330.5,460.5C 330.5,461.5 330.5,462.5 330.5,463.5C 330.5,464.5 330.5,465.5 330.5,466.5C 328.115,468.884 326.115,471.55 324.5,474.5C 323.833,474.5 323.167,474.5 322.5,474.5C 318.5,474.5 314.5,474.5 310.5,474.5C 310.5,478.5 310.5,482.5 310.5,486.5C 314.5,486.5 318.5,486.5 322.5,486.5C 322.5,487.167 322.5,487.833 322.5,488.5C 311.833,488.5 301.167,488.5 290.5,488.5C 290.5,492.5 290.5,496.5 290.5,500.5C 301.167,500.5 311.833,500.5 322.5,500.5C 322.5,501.167 322.5,501.833 322.5,502.5C 318.5,502.5 314.5,502.5 310.5,502.5C 310.5,506.5 310.5,510.5 310.5,514.5C 314.5,514.5 318.5,514.5 322.5,514.5C 322.5,515.167 322.5,515.833 322.5,516.5C 311.833,516.5 301.167,516.5 290.5,516.5C 290.5,520.5 290.5,524.5 290.5,528.5C 301.167,528.5 311.833,528.5 322.5,528.5C 322.5,529.167 322.5,529.833 322.5,530.5C 318.5,530.5 314.5,530.5 310.5,530.5C 310.5,534.5 310.5,538.5 310.5,542.5C 314.5,542.5 318.5,542.5 322.5,542.5C 322.5,543.167 322.5,543.833 322.5,544.5C 311.833,544.5 301.167,544.5 290.5,544.5C 290.5,549.167 290.5,553.833 290.5,558.5C 289.833,558.5 289.167,558.5 288.5,558.5C 288.5,553.833 288.5,549.167 288.5,544.5C 275.833,544.5 263.167,544.5 250.5,544.5C 250.5,549.167 250.5,553.833 250.5,558.5C 249.833,558.5 249.167,558.5 248.5,558.5C 248.5,553.833 248.5,549.167 248.5,544.5C 241.5,544.5 234.5,544.5 227.5,544.5C 228.196,540.548 228.696,536.548 229,532.5C 229.383,531.944 229.883,531.611 230.5,531.5C 230.5,535.167 230.5,538.833 230.5,542.5C 243.167,542.5 255.833,542.5 268.5,542.5C 268.5,538.5 268.5,534.5 268.5,530.5C 255.833,530.5 243.167,530.5 230.5,530.5C 230.833,529.833 231.167,529.167 231.5,528.5C 237.167,528.5 242.833,528.5 248.5,528.5C 248.5,524.5 248.5,520.5 248.5,516.5C 243.5,516.5 238.5,516.5 233.5,516.5C 233.328,515.508 233.662,514.842 234.5,514.5C 245.833,514.5 257.167,514.5 268.5,514.5C 268.5,510.5 268.5,506.5 268.5,502.5C 257.167,502.5 245.833,502.5 234.5,502.5C 234.5,501.833 234.5,501.167 234.5,500.5C 239.167,500.5 243.833,500.5 248.5,500.5C 248.5,496.5 248.5,492.5 248.5,488.5C 244.167,488.5 239.833,488.5 235.5,488.5C 235.328,487.508 235.662,486.842 236.5,486.5C 247.167,486.5 257.833,486.5 268.5,486.5C 268.5,482.5 268.5,478.5 268.5,474.5C 259.167,474.5 249.833,474.5 240.5,474.5C 240.5,473.833 240.5,473.167 240.5,472.5C 243.167,472.5 245.833,472.5 248.5,472.5C 248.817,468.298 248.483,464.298 247.5,460.5C 247.328,459.508 247.662,458.842 248.5,458.5C 255.167,458.5 261.833,458.5 268.5,458.5C 268.5,454.5 268.5,450.5 268.5,446.5C 263.833,446.5 259.167,446.5 254.5,446.5C 254.833,445.833 255.167,445.167 255.5,444.5C 266.5,444.5 277.5,444.5 288.5,444.5C 288.5,440.5 288.5,436.5 288.5,432.5C 279.833,432.5 271.167,432.5 262.5,432.5C 262.5,431.833 262.5,431.167 262.5,430.5C 264.5,430.5 266.5,430.5 268.5,430.5C 268.817,426.298 268.483,422.298 267.5,418.5C 267.5,417.833 267.5,417.167 267.5,416.5C 274.5,416.5 281.5,416.5 288.5,416.5C 288.5,412.5 288.5,408.5 288.5,404.5C 282.167,404.5 275.833,404.5 269.5,404.5C 269.833,403.833 270.167,403.167 270.5,402.5C 283.167,402.5 295.833,402.5 308.5,402.5C 308.5,398.5 308.5,394.5 308.5,390.5C 295.833,390.5 283.167,390.5 270.5,390.5C 270.5,389.833 270.5,389.167 270.5,388.5C 276.5,388.5 282.5,388.5 288.5,388.5C 288.5,384.5 288.5,380.5 288.5,376.5C 282.5,376.5 276.5,376.5 270.5,376.5C 270.5,375.833 270.5,375.167 270.5,374.5C 283.167,374.5 295.833,374.5 308.5,374.5C 308.5,370.5 308.5,366.5 308.5,362.5C 295.833,362.5 283.167,362.5 270.5,362.5C 270.5,361.833 270.5,361.167 270.5,360.5C 276.5,360.5 282.5,360.5 288.5,360.5C 288.5,356.5 288.5,352.5 288.5,348.5C 282.5,348.5 276.5,348.5 270.5,348.5C 270.5,347.833 270.5,347.167 270.5,346.5C 283.167,346.5 295.833,346.5 308.5,346.5C 308.5,342.5 308.5,338.5 308.5,334.5C 295.833,334.5 283.167,334.5 270.5,334.5C 270.328,333.508 270.662,332.842 271.5,332.5C 277.167,332.5 282.833,332.5 288.5,332.5C 288.5,328.5 288.5,324.5 288.5,320.5C 282.833,320.5 277.167,320.5 271.5,320.5C 271.5,319.833 271.5,319.167 271.5,318.5C 283.833,318.5 296.167,318.5 308.5,318.5C 308.5,314.5 308.5,310.5 308.5,306.5C 296.167,306.5 283.833,306.5 271.5,306.5C 271.5,305.833 271.5,305.167 271.5,304.5C 277.167,304.5 282.833,304.5 288.5,304.5C 288.5,300.5 288.5,296.5 288.5,292.5C 282.833,292.5 277.167,292.5 271.5,292.5C 271.5,291.833 271.5,291.167 271.5,290.5C 283.833,290.5 296.167,290.5 308.5,290.5C 308.5,286.5 308.5,282.5 308.5,278.5C 296.167,278.5 283.833,278.5 271.5,278.5C 271.5,277.833 271.5,277.167 271.5,276.5C 277.167,276.5 282.833,276.5 288.5,276.5C 288.5,272.5 288.5,268.5 288.5,264.5C 282.833,264.5 277.167,264.5 271.5,264.5C 271.5,263.833 271.5,263.167 271.5,262.5C 283.833,262.5 296.167,262.5 308.5,262.5C 308.5,258.5 308.5,254.5 308.5,250.5C 296.167,250.5 283.833,250.5 271.5,250.5C 271.5,249.833 271.5,249.167 271.5,248.5C 277.167,248.5 282.833,248.5 288.5,248.5C 288.5,244.5 288.5,240.5 288.5,236.5C 282.833,236.5 277.167,236.5 271.5,236.5C 271.5,235.833 271.5,235.167 271.5,234.5C 283.833,234.5 296.167,234.5 308.5,234.5C 308.5,230.5 308.5,226.5 308.5,222.5C 296.167,222.5 283.833,222.5 271.5,222.5C 271.5,221.833 271.5,221.167 271.5,220.5C 277.167,220.5 282.833,220.5 288.5,220.5C 288.5,216.5 288.5,212.5 288.5,208.5 Z"/></g>
<g><path style="opacity:1" fill="#fe0000" d="M 290.5,208.5 C 303.167,208.5 315.833,208.5 328.5,208.5C 328.5,212.5 328.5,216.5 328.5,220.5C 315.833,220.5 303.167,220.5 290.5,220.5C 290.5,216.5 290.5,212.5 290.5,208.5 Z"/></g>
<g><path style="opacity:1" fill="#fe0000" d="M 330.5,208.5 C 343.167,208.5 355.833,208.5 368.5,208.5C 368.5,212.5 368.5,216.5 368.5,220.5C 355.833,220.5 343.167,220.5 330.5,220.5C 330.5,216.5 330.5,212.5 330.5,208.5 Z"/></g>
<g><path style="opacity:1" fill="#fe0000" d="M 370.5,208.5 C 383.167,208.5 395.833,208.5 408.5,208.5C 408.5,212.5 408.5,216.5 408.5,220.5C 395.833,220.5 383.167,220.5 370.5,220.5C 370.5,216.5 370.5,212.5 370.5,208.5 Z"/></g>
<g><path style="opacity:1" fill="#fe0000" d="M 410.5,208.5 C 416.167,208.5 421.833,208.5 427.5,208.5C 427.5,212.5 427.5,216.5 427.5,220.5C 421.833,220.5 416.167,220.5 410.5,220.5C 410.5,216.5 410.5,212.5 410.5,208.5 Z"/></g>
<g><path style="opacity:1" fill="#fe0000" d="M 271.5,222.5 C 283.833,222.5 296.167,222.5 308.5,222.5C 308.5,226.5 308.5,230.5 308.5,234.5C 296.167,234.5 283.833,234.5 271.5,234.5C 271.5,230.5 271.5,226.5 271.5,222.5 Z"/></g>
<g><path style="opacity:1" fill="#fe0000" d="M 310.5,222.5 C 323.167,222.5 335.833,222.5 348.5,222.5C 348.5,226.5 348.5,230.5 348.5,234.5C 335.833,234.5 323.167,234.5 310.5,234.5C 310.5,230.5 310.5,226.5 310.5,222.5 Z"/></g>
<g><path style="opacity:1" fill="#fe0000" d="M 350.5,222.5 C 363.167,222.5 375.833,222.5 388.5,222.5C 388.5,226.5 388.5,230.5 388.5,234.5C 375.833,234.5 363.167,234.5 350.5,234.5C 350.5,230.5 350.5,226.5 350.5,222.5 Z"/></g>
<g><path style="opacity:1" fill="#fe0000" d="M 427.5,222.5 C 427.5,226.5 427.5,230.5 427.5,234.5C 415.167,234.5 402.833,234.5 390.5,234.5C 390.5,230.5 390.5,226.5 390.5,222.5C 402.833,222.5 415.167,222.5 427.5,222.5 Z"/></g>
<g><path style="opacity:1" fill="#fe0000" d="M 271.5,236.5 C 277.167,236.5 282.833,236.5 288.5,236.5C 288.5,240.5 288.5,244.5 288.5,248.5C 282.833,248.5 277.167,248.5 271.5,248.5C 271.5,244.5 271.5,240.5 271.5,236.5 Z"/></g>
<g><path style="opacity:1" fill="#fe0000" d="M 290.5,236.5 C 303.167,236.5 315.833,236.5 328.5,236.5C 328.5,240.5 328.5,244.5 328.5,248.5C 315.833,248.5 303.167,248.5 290.5,248.5C 290.5,244.5 290.5,240.5 290.5,236.5 Z"/></g>
<g><path style="opacity:1" fill="#fe0000" d="M 330.5,236.5 C 343.167,236.5 355.833,236.5 368.5,236.5C 368.5,240.5 368.5,244.5 368.5,248.5C 355.833,248.5 343.167,248.5 330.5,248.5C 330.5,244.5 330.5,240.5 330.5,236.5 Z"/></g>
<g><path style="opacity:1" fill="#fe0000" d="M 370.5,236.5 C 383.167,236.5 395.833,236.5 408.5,236.5C 408.5,240.5 408.5,244.5 408.5,248.5C 395.833,248.5 383.167,248.5 370.5,248.5C 370.5,244.5 370.5,240.5 370.5,236.5 Z"/></g>
<g><path style="opacity:1" fill="#fe0000" d="M 427.5,236.5 C 427.5,240.5 427.5,244.5 427.5,248.5C 421.833,248.5 416.167,248.5 410.5,248.5C 410.5,244.5 410.5,240.5 410.5,236.5C 416.167,236.5 421.833,236.5 427.5,236.5 Z"/></g>
<g><path style="opacity:1" fill="#fe0000" d="M 271.5,250.5 C 283.833,250.5 296.167,250.5 308.5,250.5C 308.5,254.5 308.5,258.5 308.5,262.5C 296.167,262.5 283.833,262.5 271.5,262.5C 271.5,258.5 271.5,254.5 271.5,250.5 Z"/></g>
<g><path style="opacity:1" fill="#fe0000" d="M 310.5,250.5 C 323.167,250.5 335.833,250.5 348.5,250.5C 348.5,254.5 348.5,258.5 348.5,262.5C 335.833,262.5 323.167,262.5 310.5,262.5C 310.5,258.5 310.5,254.5 310.5,250.5 Z"/></g>
<g><path style="opacity:1" fill="#fe0000" d="M 350.5,250.5 C 363.167,250.5 375.833,250.5 388.5,250.5C 388.5,254.5 388.5,258.5 388.5,262.5C 375.833,262.5 363.167,262.5 350.5,262.5C 350.5,258.5 350.5,254.5 350.5,250.5 Z"/></g>
<g><path style="opacity:1" fill="#fe0000" d="M 427.5,250.5 C 427.5,254.5 427.5,258.5 427.5,262.5C 415.167,262.5 402.833,262.5 390.5,262.5C 390.5,258.5 390.5,254.5 390.5,250.5C 402.833,250.5 415.167,250.5 427.5,250.5 Z"/></g>
<g><path style="opacity:1" fill="#483d00" d="M 93.5,257.5 C 149.5,257.5 205.5,257.5 261.5,257.5C 261.667,294.168 261.5,330.835 261,367.5C 256.508,420.16 228.675,453.16 177.5,466.5C 126.325,453.16 98.4919,420.16 94,367.5C 93.5,330.835 93.3333,294.168 93.5,257.5 Z"/></g>
<g><path style="opacity:1" fill="#483d00" d="M 437.5,257.5 C 493.5,257.5 549.5,257.5 605.5,257.5C 605.667,294.168 605.5,330.835 605,367.5C 600.508,420.16 572.675,453.16 521.5,466.5C 470.325,453.16 442.492,420.16 438,367.5C 437.5,330.835 437.333,294.168 437.5,257.5 Z"/></g>
<g><path style="opacity:1" fill="#0000ff" d="M 95.5,259.5 C 150.167,259.5 204.833,259.5 259.5,259.5C 259.667,295.502 259.5,331.502 259,367.5C 254.478,418.856 227.311,451.189 177.5,464.5C 127.689,451.189 100.522,418.856 96,367.5C 95.5,331.502 95.3333,295.502 95.5,259.5 Z"/></g>
<g><path style="opacity:1" fill="#fe0000" d="M 439.5,259.5 C 494.167,259.5 548.833,259.5 603.5,259.5C 603.667,295.502 603.5,331.502 603,367.5C 598.478,418.856 571.311,451.189 521.5,464.5C 471.689,451.189 444.522,418.856 440,367.5C 439.5,331.502 439.333,295.502 439.5,259.5 Z"/></g>
<g><path style="opacity:1" fill="#483d00" d="M 539.5,404.5 C 537.675,402.197 535.842,399.864 534,397.5C 532.649,399.019 531.149,400.352 529.5,401.5C 528.728,398.865 528.562,396.199 529,393.5C 527.855,397.963 525.189,399.629 521,398.5C 521.61,392.768 523.777,387.602 527.5,383C 522.411,382.174 517.411,382.508 512.5,384C 510.643,385.182 509.643,386.849 509.5,389C 510.263,392.023 511.43,394.856 513,397.5C 513.777,400.429 513.61,403.263 512.5,406C 511.584,406.374 510.75,406.874 510,407.5C 509.661,403.332 507.828,399.998 504.5,397.5C 503.695,401.351 504.028,405.184 505.5,409C 505.124,413.043 502.958,415.543 499,416.5C 498.882,413.629 498.216,410.962 497,408.5C 495.738,412.313 495.071,416.313 495,420.5C 493.915,421.293 492.748,421.96 491.5,422.5C 490.777,419.93 489.61,417.597 488,415.5C 486.756,418.638 486.089,421.972 486,425.5C 484.615,426.551 483.615,427.884 483,429.5C 481.133,427.192 480.133,424.525 480,421.5C 477.403,427.297 472.903,429.463 466.5,428C 468.405,426.185 470.072,424.185 471.5,422C 469.953,421.667 468.62,422.167 467.5,423.5C 467.167,422.167 466.833,420.833 466.5,419.5C 462.73,422.243 460.897,421.243 461,416.5C 464.039,413.941 463.206,412.774 458.5,413C 453.117,407.735 449.117,401.568 446.5,394.5C 446.833,393.833 447.167,393.167 447.5,392.5C 449.918,393.457 452.084,394.791 454,396.5C 455.014,392.901 455.847,389.235 456.5,385.5C 458.662,387.02 460.995,388.02 463.5,388.5C 463.232,390.099 463.566,391.432 464.5,392.5C 464.107,389.07 464.773,385.904 466.5,383C 467.167,382.333 467.833,382.333 468.5,383C 470.809,385.715 472.143,388.882 472.5,392.5C 471.504,395.797 471.337,399.131 472,402.5C 474.627,404.988 477.46,405.155 480.5,403C 487.52,395.808 488.187,388.308 482.5,380.5C 479.916,382.153 477.249,382.486 474.5,381.5C 473.461,377.625 471.128,374.792 467.5,373C 472.911,372.64 478.244,371.806 483.5,370.5C 485.038,370.673 486.538,371.006 488,371.5C 495.296,364.278 504.13,361.111 514.5,362C 509.684,358.019 505.018,353.852 500.5,349.5C 499.051,351.611 498.051,353.944 497.5,356.5C 496.998,357.521 496.332,357.688 495.5,357C 493.771,355.211 493.104,353.044 493.5,350.5C 488.285,351.776 483.285,353.609 478.5,356C 485.738,357.192 487.072,360.526 482.5,366C 478.803,367.899 475.136,367.899 471.5,366C 473.585,364.959 475.252,363.459 476.5,361.5C 473.97,359.066 471.303,358.9 468.5,361C 463.54,363.282 461.04,367.116 461,372.5C 459.187,372.747 457.353,373.08 455.5,373.5C 454.948,375.333 454.115,377 453,378.5C 448.103,376.022 447.27,372.522 450.5,368C 448.442,366.192 448.108,364.025 449.5,361.5C 453.673,360.956 457.673,359.79 461.5,358C 460.892,357.13 460.059,356.63 459,356.5C 455.61,359.025 452.276,359.025 449,356.5C 447.748,358.001 446.748,359.668 446,361.5C 443.356,358.231 442.856,354.565 444.5,350.5C 446.945,348.722 449.611,347.389 452.5,346.5C 456.198,348.268 460.031,349.601 464,350.5C 470.729,349.051 476.563,345.884 481.5,341C 472.831,335.522 473.497,333.688 483.5,335.5C 485.754,334.876 487.421,333.543 488.5,331.5C 481.161,325.474 474.161,318.974 467.5,312C 469.577,311.808 471.577,311.308 473.5,310.5C 470.064,304.627 466.897,298.627 464,292.5C 462.335,295.513 461.168,298.68 460.5,302C 448.267,305.83 443.767,301.663 447,289.5C 447.333,289.167 447.667,288.833 448,288.5C 448.36,290.421 449.194,292.088 450.5,293.5C 452.295,291.297 454.629,290.131 457.5,290C 460.347,285.16 459.014,281.66 453.5,279.5C 449.943,279.588 446.61,280.921 443.5,283.5C 442.234,266.585 447.4,264.252 459,276.5C 460.631,274.045 460.797,271.545 459.5,269C 455.71,268.77 452.376,267.437 449.5,265C 454.573,259.87 460.073,259.037 466,262.5C 466.29,264.952 466.956,267.285 468,269.5C 468.414,269.043 468.914,268.709 469.5,268.5C 470.48,269.981 471.647,271.315 473,272.5C 472.037,277.44 471.371,282.44 471,287.5C 474.667,292.167 478.333,296.833 482,301.5C 481.965,297.249 483.631,293.916 487,291.5C 486.208,299.768 489.375,305.768 496.5,309.5C 497.662,311.824 498.829,314.158 500,316.5C 503.91,314.795 507.743,312.962 511.5,311C 510.833,310.833 510.167,310.667 509.5,310.5C 507.527,311.331 505.527,311.498 503.5,311C 507.601,305.695 512.934,302.529 519.5,301.5C 520.452,299.955 520.785,298.288 520.5,296.5C 517.115,296.154 513.782,295.488 510.5,294.5C 507.47,295.342 504.47,295.842 501.5,296C 502.939,293.775 504.606,291.775 506.5,290C 510.676,288.644 514.676,288.144 518.5,288.5C 515.216,287.343 511.882,287.176 508.5,288C 503.656,289.253 498.822,290.42 494,291.5C 488.601,291.379 485.101,288.712 483.5,283.5C 484.41,279.874 486.743,277.874 490.5,277.5C 490.841,279.49 491.174,281.49 491.5,283.5C 492.833,283.833 494.167,284.167 495.5,284.5C 501.737,283.063 508.071,282.229 514.5,282C 510.581,281.541 506.748,280.708 503,279.5C 500.849,279.643 499.182,280.643 498,282.5C 493.063,279.689 491.73,275.689 494,270.5C 496.485,268.481 499.152,266.815 502,265.5C 503.971,267.1 505.804,267.266 507.5,266C 515.054,264.653 522.054,265.986 528.5,270C 532.5,270.333 536.5,270.667 540.5,271C 538.5,272.667 536.5,274.333 534.5,276C 538.284,277.947 542.284,279.28 546.5,280C 544.099,282.062 541.433,283.729 538.5,285C 541.167,288.333 543.833,291.667 546.5,295C 543.808,295.43 541.141,295.263 538.5,294.5C 539.791,298.646 541.791,302.479 544.5,306C 538.181,307.813 538.181,310.146 544.5,313C 543.773,314.399 543.273,315.899 543,317.5C 541.006,318.279 539.172,318.613 537.5,318.5C 538.167,319.833 538.833,321.167 539.5,322.5C 545.202,322.013 549.202,318.847 551.5,313C 550.051,309.609 549.051,306.109 548.5,302.5C 550.885,297.127 550.218,291.961 546.5,287C 548.167,286.667 549.833,286.333 551.5,286C 551.027,282.249 550.861,278.416 551,274.5C 550.235,271.804 549.068,269.304 547.5,267C 550.037,261.218 553.203,261.051 557,266.5C 560.142,272.221 561.475,278.221 561,284.5C 564.219,277.348 564.052,270.181 560.5,263C 561.337,261.413 562.67,260.58 564.5,260.5C 567.655,261.15 570.155,262.817 572,265.5C 573.576,271.388 573.909,277.388 573,283.5C 571.398,285.369 570.398,287.369 570,289.5C 577.484,283.512 583.317,276.179 587.5,267.5C 589.074,266.369 590.741,266.202 592.5,267C 595.416,274.515 594.582,281.682 590,288.5C 586.167,292.333 582.333,296.167 578.5,300C 580.976,299.253 583.309,297.919 585.5,296C 589.216,291.952 592.55,287.618 595.5,283C 596.5,282.333 597.5,282.333 598.5,283C 594.215,289.286 589.215,294.952 583.5,300C 581.294,302.346 578.794,302.846 576,301.5C 575.25,302.126 574.416,302.626 573.5,303C 574.337,304.011 574.67,305.178 574.5,306.5C 584.287,303.893 591.62,298.06 596.5,289C 597.993,287.632 599.493,287.465 601,288.5C 603.582,294.512 602.582,299.845 598,304.5C 590.978,309.077 583.478,312.91 575.5,316C 576.43,316.991 577.596,317.491 579,317.5C 586.35,316.279 593.517,314.779 600.5,313C 603.323,321.875 599.99,326.875 590.5,328C 586.134,328.363 581.801,328.363 577.5,328C 583.201,330.607 589.201,332.107 595.5,332.5C 592.216,333.657 588.882,333.824 585.5,333C 580.926,331.53 576.592,329.863 572.5,328C 580.297,333.564 588.964,336.897 598.5,338C 601.575,344.682 599.408,348.848 592,350.5C 584.312,349.488 577.146,347.322 570.5,344C 573.328,346.248 576.328,348.248 579.5,350C 586.494,351.944 593.494,353.778 600.5,355.5C 599.833,355.833 599.167,356.167 598.5,356.5C 592.055,355.472 585.722,353.972 579.5,352C 574.785,349.973 570.785,346.973 567.5,343C 566.833,342.333 566.167,342.333 565.5,343C 568.916,347.087 572.916,350.42 577.5,353C 584.414,356.707 591.248,360.54 598,364.5C 598.896,367.025 598.396,369.192 596.5,371C 593.833,371.667 591.167,371.667 588.5,371C 573.912,366.455 561.745,358.288 552,346.5C 554.613,353.879 558.446,360.712 563.5,367C 558.67,367.268 554.004,366.435 549.5,364.5C 549.167,365 548.833,365.5 548.5,366C 551.075,371.391 555.408,374.224 561.5,374.5C 567.197,372.835 572.697,373.168 578,375.5C 581.906,384.043 579.739,390.71 571.5,395.5C 573.274,396.187 574.941,397.02 576.5,398C 573.277,400.541 569.61,402.041 565.5,402.5C 569.434,406.301 574.101,408.801 579.5,410C 577.124,412.68 574.124,414.013 570.5,414C 573.538,416.703 576.205,419.703 578.5,423C 575.711,424.664 572.877,424.83 570,423.5C 569.947,426.202 570.447,428.869 571.5,431.5C 571.167,432.167 570.833,432.833 570.5,433.5C 563.944,430.864 562.61,433.03 566.5,440C 563.259,440.026 560.426,438.859 558,436.5C 557.242,438.769 557.409,440.936 558.5,443C 556.169,444.751 553.836,444.585 551.5,442.5C 550.571,443.689 550.238,445.022 550.5,446.5C 549.127,446.343 547.793,446.51 546.5,447C 541.891,453.953 537.224,454.119 532.5,447.5C 534.769,446.185 537.102,445.018 539.5,444C 535.719,442.421 532.386,442.755 529.5,445C 526.5,445.667 523.5,445.667 520.5,445C 519.09,444.632 518.09,443.799 517.5,442.5C 520.385,439.454 523.718,436.954 527.5,435C 524.833,434.667 522.167,434.333 519.5,434C 522.07,429.922 525.736,427.755 530.5,427.5C 528.35,425.851 526.35,424.018 524.5,422C 526.01,421.15 527.51,420.317 529,419.5C 532.475,422.132 536.309,424.132 540.5,425.5C 547.077,423.817 549.244,419.817 547,413.5C 528.994,413.028 517.994,421.695 514,439.5C 510.692,443.327 506.526,444.494 501.5,443C 503.26,440.971 504.427,438.804 505,436.5C 499.099,442.01 492.599,442.843 485.5,439C 484.5,437.333 483.5,435.667 482.5,434C 485.833,433.667 489.167,433.333 492.5,433C 491.128,431.758 490.128,430.258 489.5,428.5C 492.865,427.099 496.199,425.599 499.5,424C 508.491,413.102 520.158,407.769 534.5,408C 535.789,406.198 537.456,405.031 539.5,404.5 Z"/></g>
<g><path style="opacity:1" fill="#bfc0bf" d="M 454.5,262.5 C 456.199,262.34 457.866,262.506 459.5,263C 458.663,264.011 458.33,265.178 458.5,266.5C 454.56,267.234 453.227,265.901 454.5,262.5 Z"/></g>
<g><path style="opacity:1" fill="#bfc0bf" d="M 454.5,405.5 C 459.894,406.446 461.561,404.446 459.5,399.5C 458.335,398.416 457.002,397.583 455.5,397C 456.5,395 457.5,395 458.5,397C 462.547,398.148 464.547,396.648 464.5,392.5C 465.65,395.146 467.65,396.979 470.5,398C 469.658,406.433 473.325,408.767 481.5,405C 489.126,396.969 490.626,387.802 486,377.5C 482.943,378.248 479.943,379.248 477,380.5C 476.5,380.167 476,379.833 475.5,379.5C 476.833,378.5 478.167,377.5 479.5,376.5C 477.939,375.653 476.439,375.986 475,377.5C 474.626,376.584 474.126,375.75 473.5,375C 479.032,372.686 484.698,372.02 490.5,373C 497.407,364.922 506.073,362.255 516.5,365C 517.833,367.333 519.167,369.667 520.5,372C 516.931,375.441 517.764,377.941 523,379.5C 523.5,379.333 524,379.167 524.5,379C 520.403,377.676 519.736,375.51 522.5,372.5C 521.253,370.503 520.419,368.503 520,366.5C 524.676,369.667 527.509,374 528.5,379.5C 529.946,376.178 529.446,373.178 527,370.5C 518.549,363.349 510.382,355.849 502.5,348C 507.175,345.664 511.508,342.831 515.5,339.5C 516.877,337.711 517.877,335.711 518.5,333.5C 517.726,332.289 516.893,332.289 516,333.5C 515.837,335.676 515.004,337.509 513.5,339C 508.833,341.667 504.167,344.333 499.5,347C 497.438,349.068 496.272,351.568 496,354.5C 495.056,353.737 494.556,352.737 494.5,351.5C 495.467,349.238 496.134,346.905 496.5,344.5C 494.143,344.663 491.81,344.497 489.5,344C 492.228,340.988 494.395,337.821 496,334.5C 492.347,336.993 488.347,338.66 484,339.5C 482.029,339.532 480.529,338.698 479.5,337C 483.429,338.248 486.762,337.248 489.5,334C 494.914,333.639 500.248,332.806 505.5,331.5C 506.167,330.5 506.833,329.5 507.5,328.5C 506.176,327.313 505.176,327.646 504.5,329.5C 499.907,331.326 495.241,331.659 490.5,330.5C 484.731,324.776 478.731,319.276 472.5,314C 474.81,313.503 477.143,313.337 479.5,313.5C 479.149,311.131 478.982,308.797 479,306.5C 480.586,307.376 482.086,308.376 483.5,309.5C 484.105,304.423 484.938,299.423 486,294.5C 486.333,297.833 486.667,301.167 487,304.5C 489.703,307.538 492.703,310.205 496,312.5C 496.707,314.081 497.54,315.581 498.5,317C 497.833,317.333 497.167,317.667 496.5,318C 499.043,318.14 501.377,318.806 503.5,320C 500.006,321.217 496.673,322.717 493.5,324.5C 495.204,326.041 497.037,327.375 499,328.5C 502.848,327.332 506.681,326.165 510.5,325C 511.888,324.111 511.722,323.611 510,323.5C 506.545,324.69 503.045,325.69 499.5,326.5C 498.692,326.192 498.025,325.692 497.5,325C 501.968,322.619 506.635,320.619 511.5,319C 508.833,318.333 506.167,317.667 503.5,317C 509.449,315.027 514.783,312.027 519.5,308C 516.144,307.785 512.811,307.785 509.5,308C 512.139,306.054 515.139,305.054 518.5,305C 521.5,303.027 523,300.194 523,296.5C 525.652,295.41 527.152,293.41 527.5,290.5C 526.919,288.276 525.586,287.443 523.5,288C 526.158,290.386 525.825,292.386 522.5,294C 518.61,294.241 514.777,293.741 511,292.5C 509.188,292.493 507.688,293.16 506.5,294.5C 506.167,294.167 505.833,293.833 505.5,293.5C 506.381,292.029 507.714,291.196 509.5,291C 513.524,290.503 517.524,290.669 521.5,291.5C 521.27,287.306 519.603,283.806 516.5,281C 512.011,279.78 507.511,278.613 503,277.5C 500.855,277.396 499.021,278.063 497.5,279.5C 493.083,275.166 493.75,271.833 499.5,269.5C 506.089,275.71 513.922,278.71 523,278.5C 523.617,277.551 523.451,276.718 522.5,276C 518.778,275.762 515.111,275.262 511.5,274.5C 510.614,273.675 510.281,272.675 510.5,271.5C 513.365,271.055 515.865,271.722 518,273.5C 518.5,273 519,272.5 519.5,272C 516.489,269.498 513.155,268.998 509.5,270.5C 508.897,271.635 508.564,272.635 508.5,273.5C 506.076,272.577 504.076,271.077 502.5,269C 503.784,268.316 504.951,268.483 506,269.5C 507.822,267.955 509.989,267.288 512.5,267.5C 520.318,268.831 527.985,270.664 535.5,273C 533.884,273.615 532.551,274.615 531.5,276C 534.596,278.215 537.929,279.881 541.5,281C 539.038,282.216 536.371,282.882 533.5,283C 536.87,286.035 539.87,289.368 542.5,293C 539.833,292.667 537.167,292.333 534.5,292C 536.31,296.62 538.643,300.954 541.5,305C 539.5,305.333 537.5,305.667 535.5,306C 536.723,308.944 538.556,311.444 541,313.5C 541.483,314.448 541.649,315.448 541.5,316.5C 537.893,316.621 535.727,314.955 535,311.5C 535.112,318.568 537.612,324.735 542.5,330C 540.586,331.827 538.586,331.827 536.5,330C 534.833,328.333 533.167,326.667 531.5,325C 529.741,324.202 528.074,324.369 526.5,325.5C 530.553,327.379 534.22,329.879 537.5,333C 545.367,333.07 546.367,330.404 540.5,325C 545.86,324.005 550.027,320.838 553,315.5C 552.707,311.104 551.874,306.771 550.5,302.5C 550.404,300.074 551.07,297.907 552.5,296C 551.802,293.546 550.802,291.213 549.5,289C 551.745,289.195 553.578,290.362 555,292.5C 554.529,289.177 553.695,285.843 552.5,282.5C 554.121,276.853 553.121,271.686 549.5,267C 550.047,266.075 550.713,265.242 551.5,264.5C 556.412,268.188 559.079,273.188 559.5,279.5C 558.281,281.768 556.615,283.601 554.5,285C 556.04,287.083 557.04,289.416 557.5,292C 555.874,296.048 555.374,300.215 556,304.5C 560.374,308.306 561.54,312.973 559.5,318.5C 555.577,320.423 551.577,322.256 547.5,324C 545.063,325.279 544.563,326.779 546,328.5C 551.217,325.022 556.55,321.689 562,318.5C 562.667,315.5 562.667,312.5 562,309.5C 560.205,306.57 558.705,303.57 557.5,300.5C 559.169,296.648 559.669,292.648 559,288.5C 558.535,287.069 557.701,285.903 556.5,285C 557.996,284.493 559.163,284.993 560,286.5C 560.219,287.938 560.719,289.271 561.5,290.5C 562.381,287.07 563.548,283.737 565,280.5C 565.486,274.425 564.986,268.425 563.5,262.5C 566.638,263.126 569.138,264.792 571,267.5C 571.667,272.833 571.667,278.167 571,283.5C 569.542,285.96 567.709,288.127 565.5,290C 567.668,291.965 569.002,294.465 569.5,297.5C 570.478,297.023 571.311,296.357 572,295.5C 572.718,296.451 573.551,296.617 574.5,296C 579,291.5 583.5,287 588,282.5C 590.088,275.144 589.422,274.811 586,281.5C 581.888,286.951 576.888,291.285 571,294.5C 570.333,293.167 570.333,291.833 571,290.5C 578.814,285.022 584.814,278.022 589,269.5C 589.893,268.289 590.726,268.289 591.5,269.5C 593.045,275.467 592.211,281.134 589,286.5C 584.651,290.682 580.485,295.015 576.5,299.5C 573.557,300.244 570.557,300.744 567.5,301C 569.67,301.811 571.337,303.145 572.5,305C 570.811,306.358 569.478,308.025 568.5,310C 578.238,309.213 586.405,305.047 593,297.5C 598.18,286.868 600.514,287.201 600,298.5C 598.285,300.759 596.452,302.926 594.5,305C 588.221,308.141 581.888,310.974 575.5,313.5C 575.778,311.654 575.111,310.32 573.5,309.5C 573.12,311.021 572.954,312.687 573,314.5C 572.075,315.047 571.242,315.713 570.5,316.5C 571.767,318.371 571.767,320.204 570.5,322C 579.077,325.658 587.411,325.158 595.5,320.5C 595,320.167 594.5,319.833 594,319.5C 587.389,322.549 580.556,323.216 573.5,321.5C 573.5,320.5 573.5,319.5 573.5,318.5C 575.342,318.723 577.175,319.057 579,319.5C 585.862,318.206 592.696,316.873 599.5,315.5C 600.542,320.133 598.875,323.299 594.5,325C 587.567,326.506 580.567,326.839 573.5,326C 571.919,325.293 570.419,324.46 569,323.5C 569.062,328.009 571.229,331.176 575.5,333C 582.5,336.507 589.833,338.84 597.5,340C 598.595,344.594 596.762,347.428 592,348.5C 587.012,347.969 582.178,346.802 577.5,345C 570.184,341.195 563.351,337.362 557,333.5C 556.749,335.433 556.249,337.266 555.5,339C 553.343,339.078 551.343,339.245 549.5,339.5C 552.824,340.828 555.824,342.661 558.5,345C 566.625,354.564 576.625,361.397 588.5,365.5C 589.833,364.833 589.833,364.167 588.5,363.5C 576.291,358.226 565.624,350.726 556.5,341C 557.618,339.926 558.618,338.76 559.5,337.5C 560.795,338.098 562.128,338.598 563.5,339C 563.277,343.538 565.277,347.205 569.5,350C 577.84,355.505 586.507,360.505 595.5,365C 596.833,366.333 596.833,367.667 595.5,369C 587.914,369.252 580.914,367.252 574.5,363C 565.581,356.752 557.248,349.752 549.5,342C 547.5,341.667 545.5,341.333 543.5,341C 541.738,338.199 540.738,338.865 540.5,343C 542.297,350.792 546.464,356.959 553,361.5C 553.5,361 554,360.5 554.5,360C 548.81,355.961 544.81,350.628 542.5,344C 544.167,343.333 545.833,343.333 547.5,344C 550.856,351.212 554.856,358.045 559.5,364.5C 553.366,365.04 548.199,362.706 544,357.5C 541.144,352.931 539.477,347.931 539,342.5C 538.282,343.451 537.449,343.617 536.5,343C 535.8,338.54 534.133,337.874 531.5,341C 529.915,341.085 528.582,341.251 527.5,341.5C 528.09,342.799 529.09,343.632 530.5,344C 529.015,348.567 529.849,352.734 533,356.5C 533.001,353.303 532.501,350.137 531.5,347C 531.258,344.652 532.092,342.818 534,341.5C 532.969,350.611 535.135,358.778 540.5,366C 534.086,363.655 529.586,359.155 527,352.5C 525.037,327.272 524.37,327.272 525,352.5C 527.942,361.795 534.109,366.961 543.5,368C 537.678,361.532 535.512,354.032 537,345.5C 537.741,352.411 540.741,358.077 546,362.5C 546.802,371.795 551.969,376.462 561.5,376.5C 566.143,375.517 570.809,375.35 575.5,376C 579.417,380.887 579.251,385.72 575,390.5C 572.691,391.975 570.524,393.642 568.5,395.5C 567.328,395.081 566.328,394.415 565.5,393.5C 568.441,390.733 570.775,387.567 572.5,384C 571.956,380.624 569.956,378.79 566.5,378.5C 561.194,381.316 556.194,380.983 551.5,377.5C 549.744,379.191 549.244,381.191 550,383.5C 552.5,385.333 555,387.167 557.5,389C 555.5,390.333 553.5,391.667 551.5,393C 558.299,393.351 564.633,395.185 570.5,398.5C 566.573,399.655 562.573,400.488 558.5,401C 563.833,404.333 569.167,407.667 574.5,411C 571.486,411.128 568.486,411.128 565.5,411C 568.313,414.647 571.313,418.147 574.5,421.5C 571.475,422.674 568.808,422.007 566.5,419.5C 566.308,423.12 567.308,426.62 569.5,430C 567.08,430.687 564.913,430.187 563,428.5C 565.621,438.689 563.287,440.022 556,432.5C 555.667,435.833 555.333,439.167 555,442.5C 553.333,441.5 551.667,440.5 550,439.5C 549.529,441.246 548.862,442.913 548,444.5C 543.543,443.191 539.043,442.191 534.5,441.5C 534.579,440.07 534.246,438.736 533.5,437.5C 531.833,436.333 530.167,435.167 528.5,434C 531.941,432.682 533.275,430.182 532.5,426.5C 542.149,429.846 548.149,426.679 550.5,417C 549.397,413.961 547.897,411.127 546,408.5C 542.143,404.611 538.643,400.444 535.5,396C 536.968,393.272 537.801,390.439 538,387.5C 536.206,391.224 533.873,394.558 531,397.5C 531.434,393.548 531.434,389.548 531,385.5C 529.084,390.067 526.418,394.067 523,397.5C 523.306,395.177 523.972,392.844 525,390.5C 527.391,387.667 529.224,384.5 530.5,381C 525.167,380.333 519.833,380.333 514.5,381C 506.512,384.867 505.345,390.367 511,397.5C 511.667,399.167 511.667,400.833 511,402.5C 509,399.833 507,397.167 505,394.5C 502.984,395.839 501.817,397.672 501.5,400C 501.977,402.888 502.644,405.721 503.5,408.5C 502.948,410.333 502.115,412 501,413.5C 500.38,409.779 499.547,406.112 498.5,402.5C 497.721,405.066 496.221,407.066 494,408.5C 493.667,412.167 493.333,415.833 493,419.5C 491.579,416.991 489.912,414.657 488,412.5C 487,413.5 486,414.5 485,415.5C 484.911,419.028 484.244,422.362 483,425.5C 482.667,421.833 482.333,418.167 482,414.5C 479.635,419.611 476.135,423.611 471.5,426.5C 471.167,426.333 470.833,426.167 470.5,426C 473.431,423.702 474.431,420.869 473.5,417.5C 472.252,418.04 471.085,418.707 470,419.5C 470.719,414.621 469.219,414.121 465.5,418C 464.5,418.667 463.5,418.667 462.5,418C 466.42,415.309 466.253,412.809 462,410.5C 460.817,411.731 459.651,411.731 458.5,410.5C 457.143,408.814 455.81,407.148 454.5,405.5 Z"/></g>
<g><path style="opacity:1" fill="#bfc0bf" d="M 461.5,263.5 C 462.5,263.5 463.5,263.5 464.5,263.5C 465.372,271.381 466.872,279.381 469,287.5C 473.257,293.679 477.757,299.679 482.5,305.5C 482.333,305.833 482.167,306.167 482,306.5C 475.104,299.772 473.604,301.272 477.5,311C 477.167,311.167 476.833,311.333 476.5,311.5C 471.538,303.909 467.371,295.909 464,287.5C 461.609,291.613 459.776,295.946 458.5,300.5C 457.42,297.879 455.753,295.712 453.5,294C 455.569,292.477 457.903,291.643 460.5,291.5C 462.48,285.603 460.813,281.103 455.5,278C 454.101,277.405 452.768,277.572 451.5,278.5C 450.539,275.945 449.206,273.612 447.5,271.5C 448.79,270.592 450.123,270.759 451.5,272C 456.634,276.133 461.468,280.633 466,285.5C 464.853,282.191 463.353,278.858 461.5,275.5C 462.322,271.297 462.322,267.297 461.5,263.5 Z"/></g>
<g><path style="opacity:1" fill="#fe0000" d="M 271.5,264.5 C 277.167,264.5 282.833,264.5 288.5,264.5C 288.5,268.5 288.5,272.5 288.5,276.5C 282.833,276.5 277.167,276.5 271.5,276.5C 271.5,272.5 271.5,268.5 271.5,264.5 Z"/></g>
<g><path style="opacity:1" fill="#fe0000" d="M 290.5,264.5 C 303.167,264.5 315.833,264.5 328.5,264.5C 328.5,268.5 328.5,272.5 328.5,276.5C 315.833,276.5 303.167,276.5 290.5,276.5C 290.5,272.5 290.5,268.5 290.5,264.5 Z"/></g>
<g><path style="opacity:1" fill="#fe0000" d="M 330.5,264.5 C 343.167,264.5 355.833,264.5 368.5,264.5C 368.5,268.5 368.5,272.5 368.5,276.5C 355.833,276.5 343.167,276.5 330.5,276.5C 330.5,272.5 330.5,268.5 330.5,264.5 Z"/></g>
<g><path style="opacity:1" fill="#fe0000" d="M 370.5,264.5 C 383.167,264.5 395.833,264.5 408.5,264.5C 408.5,268.5 408.5,272.5 408.5,276.5C 395.833,276.5 383.167,276.5 370.5,276.5C 370.5,272.5 370.5,268.5 370.5,264.5 Z"/></g>
<g><path style="opacity:1" fill="#fe0000" d="M 427.5,264.5 C 427.5,268.5 427.5,272.5 427.5,276.5C 421.833,276.5 416.167,276.5 410.5,276.5C 410.5,272.5 410.5,268.5 410.5,264.5C 416.167,264.5 421.833,264.5 427.5,264.5 Z"/></g>
<g><path style="opacity:1" fill="#bfc0bf" d="M 468.5,270.5 C 471.699,272.978 472.199,275.978 470,279.5C 468.069,276.603 467.569,273.603 468.5,270.5 Z"/></g>
<g><path style="opacity:1" fill="#483d00" d="M 178.5,303.5 C 175.807,303.428 173.14,303.095 170.5,302.5C 166.847,304.238 163.014,305.571 159,306.5C 153.447,305.938 151.447,302.938 153,297.5C 156.294,291.714 158.294,291.714 159,297.5C 159.667,298.833 160.667,299.833 162,300.5C 167.57,297.594 173.403,296.761 179.5,298C 176.448,294.089 172.948,293.589 169,296.5C 167,294.5 165,292.5 163,290.5C 162.386,288.121 162.053,285.788 162,283.5C 169.641,275.781 178.308,274.448 188,279.5C 193.318,277.127 196.485,278.793 197.5,284.5C 197.124,286.383 196.124,287.883 194.5,289C 197.994,290.579 201.327,292.413 204.5,294.5C 203.5,296.167 202.167,297.5 200.5,298.5C 201.913,303.158 204.247,307.324 207.5,311C 206.377,312.044 205.044,312.71 203.5,313C 205.108,317.648 205.942,322.481 206,327.5C 207.812,330.28 209.979,332.78 212.5,335C 209.888,334.641 207.221,334.141 204.5,333.5C 203.41,339.613 205.077,344.779 209.5,349C 205.529,352.925 201.196,353.425 196.5,350.5C 196.264,351.247 195.93,352.08 195.5,353C 199.194,359.55 203.027,366.05 207,372.5C 209.5,375 212,377.5 214.5,380C 222.622,382.852 227.789,380.019 230,371.5C 230.667,368.833 230.667,366.167 230,363.5C 213.941,345.993 213.941,328.659 230,311.5C 233.632,308.87 236.965,305.87 240,302.5C 241.368,299.262 241.701,295.928 241,292.5C 238.872,289.542 236.206,288.876 233,290.5C 232.517,291.448 232.351,292.448 232.5,293.5C 236.509,293.014 238.342,294.68 238,298.5C 237.044,299.894 235.711,300.561 234,300.5C 232.45,300.05 230.95,299.883 229.5,300C 229.294,302.865 227.794,305.365 225,307.5C 223.4,310.334 222.234,313.334 221.5,316.5C 218.435,315.603 216.602,313.603 216,310.5C 215.333,304.5 215.333,298.5 216,292.5C 216.972,290.695 218.139,289.028 219.5,287.5C 219.165,283.167 217.498,279.5 214.5,276.5C 214.434,274.734 215.268,273.734 217,273.5C 220.445,275.113 222.612,277.78 223.5,281.5C 229.226,281.408 234.892,281.908 240.5,283C 244.944,285.111 247.444,288.611 248,293.5C 248.658,297.572 248.325,301.572 247,305.5C 241.635,311.199 235.969,316.533 230,321.5C 228.646,324.505 227.646,327.505 227,330.5C 229.963,327.089 233.463,324.256 237.5,322C 240.704,319.131 243.537,315.965 246,312.5C 246.007,315.479 245.673,318.479 245,321.5C 240.29,327.509 234.957,332.842 229,337.5C 227.41,339.65 226.743,341.983 227,344.5C 230.214,339.618 234.381,335.785 239.5,333C 242,330.5 244.5,328 247,325.5C 246.782,328.179 246.115,330.845 245,333.5C 241.368,338.134 237.368,342.467 233,346.5C 232.333,347.833 232.333,349.167 233,350.5C 234.902,345.6 238.402,342.433 243.5,341C 245.351,339.316 247.018,337.483 248.5,335.5C 250.954,337.876 251.121,340.543 249,343.5C 245.167,347.333 241.333,351.167 237.5,355C 243.252,353.522 248.086,350.355 252,345.5C 251.362,348.909 250.196,352.242 248.5,355.5C 245.478,357.688 242.978,360.355 241,363.5C 240.333,368.167 239.667,372.833 239,377.5C 238.55,379.519 237.717,381.352 236.5,383C 233.167,385 229.833,387 226.5,389C 221.265,389.432 216.265,388.765 211.5,387C 214.833,389.667 218.167,392.333 221.5,395C 219.956,395.29 218.623,395.956 217.5,397C 220.731,399.727 223.397,402.894 225.5,406.5C 223.5,407.333 221.5,408.167 219.5,409C 220.898,412.261 223.231,414.595 226.5,416C 224.842,417.663 222.842,418.496 220.5,418.5C 219.9,422.516 220.9,426.016 223.5,429C 220.854,429.497 218.187,429.664 215.5,429.5C 214.959,432.652 215.959,435.152 218.5,437C 215.764,437.422 213.098,437.422 210.5,437C 209.312,440.544 207.478,443.71 205,446.5C 203.171,444.844 201.837,442.844 201,440.5C 196.302,448.543 192.635,448.209 190,439.5C 187.619,445.716 183.119,449.05 176.5,449.5C 176.798,446.735 177.798,444.235 179.5,442C 178.874,441.25 178.374,440.416 178,439.5C 174.102,439.282 170.268,440.282 166.5,442.5C 166.131,439.402 166.964,436.402 169,433.5C 173.852,430.806 173.352,429.306 167.5,429C 164.937,426.474 165.603,424.807 169.5,424C 171.568,423.313 173.568,423.48 175.5,424.5C 176.298,424.043 176.631,423.376 176.5,422.5C 173.879,421.879 172.212,420.212 171.5,417.5C 175.866,415.738 179.699,416.405 183,419.5C 183.169,425.886 186.669,428.386 193.5,427C 198.197,424.13 201.197,419.964 202.5,414.5C 200.336,409.486 197.503,404.819 194,400.5C 193.505,398.527 193.338,396.527 193.5,394.5C 192.989,399.495 191.989,404.495 190.5,409.5C 186.621,412.529 183.288,412.029 180.5,408C 187.09,404.642 188.756,399.642 185.5,393C 189.295,386.282 187.295,382.782 179.5,382.5C 175.22,383.277 172.887,385.777 172.5,390C 173.422,392.961 174.422,395.961 175.5,399C 175.097,400.473 174.43,401.806 173.5,403C 176.46,407.404 175.293,408.571 170,406.5C 167.903,408.247 167.237,410.58 168,413.5C 166.333,412.167 164.667,410.833 163,409.5C 162.845,411.856 162.845,414.189 163,416.5C 161.51,417.728 160.01,417.728 158.5,416.5C 157.441,422.428 155.607,422.761 153,417.5C 150.655,419.514 148.655,421.847 147,424.5C 146.066,420.363 144.732,416.363 143,412.5C 142.482,415.946 140.648,418.279 137.5,419.5C 136.675,415.878 136.175,412.211 136,408.5C 134.649,410.019 133.149,411.352 131.5,412.5C 129.426,409.303 129.093,405.969 130.5,402.5C 129.041,402.567 127.708,402.234 126.5,401.5C 125.341,403.377 123.674,403.877 121.5,403C 118.759,400.77 117.592,397.936 118,394.5C 120.228,396.113 122.728,396.78 125.5,396.5C 125.693,393.525 124.693,391.025 122.5,389C 120.048,388.71 117.715,388.044 115.5,387C 118.226,384.97 121.226,383.47 124.5,382.5C 122.02,381.585 121.353,380.085 122.5,378C 127.261,376.465 130.427,377.965 132,382.5C 132.75,381.874 133.584,381.374 134.5,381C 133.864,378.606 133.864,376.106 134.5,373.5C 141.555,373.471 143.221,376.471 139.5,382.5C 140.226,385.852 141.059,389.185 142,392.5C 148.48,396.182 153.146,394.516 156,387.5C 156.422,381.425 156.755,375.425 157,369.5C 153.88,370.573 150.713,371.573 147.5,372.5C 145.651,370.826 143.484,369.826 141,369.5C 134.891,370.945 128.725,371.445 122.5,371C 113.091,366.151 113.424,364.651 123.5,366.5C 139.617,363.047 155.951,361.214 172.5,361C 170.65,358.982 168.65,357.149 166.5,355.5C 164.929,356.309 163.262,356.643 161.5,356.5C 161.657,355.127 161.49,353.793 161,352.5C 159.249,357.314 156.749,357.648 153.5,353.5C 152.895,354.587 153.228,355.754 154.5,357C 153,358.5 151.5,360 150,361.5C 149.333,359.5 148.667,357.5 148,355.5C 146.732,357.717 145.232,359.717 143.5,361.5C 142.167,359.5 140.833,357.5 139.5,355.5C 138.243,357.679 136.743,359.679 135,361.5C 133.959,359.415 132.459,357.748 130.5,356.5C 129.167,357.5 127.833,358.5 126.5,359.5C 125.702,359.043 125.369,358.376 125.5,357.5C 120.919,360.852 115.919,361.352 110.5,359C 113.87,357.654 116.87,355.821 119.5,353.5C 118.372,352.738 117.205,352.071 116,351.5C 113.579,353.594 110.912,355.26 108,356.5C 107.041,352.579 108.208,349.412 111.5,347C 108.8,346.747 106.133,346.747 103.5,347C 105.506,343.983 107.506,340.983 109.5,338C 109.355,337.228 109.022,336.561 108.5,336C 103.977,335.713 102.977,334.047 105.5,331C 107.833,330.333 110.167,330.333 112.5,331C 116.275,333.624 120.275,335.957 124.5,338C 132.398,338.087 140.065,336.754 147.5,334C 146.382,332.926 145.382,331.76 144.5,330.5C 142.412,329.821 140.412,329.488 138.5,329.5C 140.333,328.032 140.666,326.365 139.5,324.5C 138.522,324.977 137.689,325.643 137,326.5C 136.788,323.242 136.288,320.076 135.5,317C 133.744,316.86 132.078,317.36 130.5,318.5C 129.394,316.716 129.394,314.882 130.5,313C 130.184,307.787 127.684,306.287 123,308.5C 118.431,308.016 116.931,305.682 118.5,301.5C 120.432,302.52 122.432,302.687 124.5,302C 125.337,300.989 125.67,299.822 125.5,298.5C 124.127,298.657 122.793,298.49 121.5,298C 122.634,296.984 122.301,296.317 120.5,296C 118.102,295.626 115.769,295.626 113.5,296C 116.024,291.976 119.358,288.809 123.5,286.5C 121.488,284.545 119.154,283.045 116.5,282C 121.564,277.502 126.564,277.669 131.5,282.5C 132.833,279.5 134.167,276.5 135.5,273.5C 139.217,274.92 141.55,277.587 142.5,281.5C 141.305,285.389 139.971,289.222 138.5,293C 140.063,298.291 142.563,303.125 146,307.5C 151,312.5 156,317.5 161,322.5C 161.903,321.299 163.069,320.465 164.5,320C 170.07,319.907 174.903,318.074 179,314.5C 179.167,314.167 179.333,313.833 179.5,313.5C 175.698,312.903 172.032,311.903 168.5,310.5C 165.746,308.002 166.08,306.002 169.5,304.5C 172.028,305.942 174.695,306.442 177.5,306C 178.252,305.329 178.586,304.496 178.5,303.5 Z"/></g>
<g><path style="opacity:1" fill="#bfc0bf" d="M 445.5,274.5 C 449.486,276.473 449.32,278.473 445,280.5C 444.51,278.455 444.677,276.455 445.5,274.5 Z"/></g>
<g><path style="opacity:1" fill="#fed700" d="M 193.5,394.5 C 193.519,392.94 193.852,391.44 194.5,390C 194.026,388.392 193.359,388.226 192.5,389.5C 190.954,395.04 190.12,400.706 190,406.5C 188.677,409.059 186.843,409.725 184.5,408.5C 189.245,404.024 190.245,398.858 187.5,393C 191.369,386.122 191.369,379.289 187.5,372.5C 180.664,367.162 174.331,361.329 168.5,355C 170.53,353.104 172.197,350.937 173.5,348.5C 175.76,352.524 177.26,356.858 178,361.5C 179.815,359.595 181.815,357.928 184,356.5C 186.849,360.357 190.515,363.023 195,364.5C 194.68,361.54 194.68,358.54 195,355.5C 198.903,364.738 204.403,372.904 211.5,380C 224.244,385.775 231.244,381.442 232.5,367C 231.703,362.502 229.536,358.669 226,355.5C 216.352,340.071 218.019,326.071 231,313.5C 234.145,310.266 237.478,307.266 241,304.5C 244.809,298.431 244.309,292.931 239.5,288C 232.673,285.997 229.673,288.497 230.5,295.5C 232.75,295.181 234.75,295.681 236.5,297C 235.892,297.87 235.059,298.37 234,298.5C 232.343,297.516 230.677,296.516 229,295.5C 228.383,296.449 228.549,297.282 229.5,298C 225.508,302.659 222.342,307.826 220,313.5C 219.085,312.672 218.419,311.672 218,310.5C 217.333,304.5 217.333,298.5 218,292.5C 219.938,289.894 222.438,288.061 225.5,287C 224.128,286.598 222.795,286.098 221.5,285.5C 220.488,281.975 218.821,278.808 216.5,276C 217.332,275.312 217.998,275.479 218.5,276.5C 220.043,279.086 221.709,281.586 223.5,284C 227.351,284.54 231.185,284.374 235,283.5C 242.644,284.981 246.477,289.648 246.5,297.5C 246.421,301.238 245.254,304.572 243,307.5C 239.167,310.667 235.333,313.833 231.5,317C 226.261,323.635 223.428,331.135 223,339.5C 228.253,330.903 235.086,324.57 243.5,320.5C 238.483,326.351 232.983,331.684 227,336.5C 224.928,339.932 224.262,343.598 225,347.5C 225.333,347.833 225.667,348.167 226,348.5C 230.305,342.502 235.472,337.502 241.5,333.5C 241.833,333.667 242.167,333.833 242.5,334C 238.355,337.815 234.522,341.981 231,346.5C 229.723,350.097 229.39,353.764 230,357.5C 231.763,353.78 234.096,350.447 237,347.5C 241.021,345.323 244.688,342.656 248,339.5C 248.667,340.167 248.667,340.833 248,341.5C 244.333,345.167 240.667,348.833 237,352.5C 232.866,361.978 234.033,363.144 240.5,356C 242.746,354.961 244.913,353.794 247,352.5C 245.219,355.306 242.886,357.973 240,360.5C 238.774,367.431 237.274,374.264 235.5,381C 231.761,384.091 227.595,386.258 223,387.5C 218.612,386.871 214.445,385.537 210.5,383.5C 209.268,384.145 207.935,384.311 206.5,384C 209.167,388 212.5,391.333 216.5,394C 215.377,395.044 214.044,395.71 212.5,396C 216.132,398.63 219.465,401.63 222.5,405C 220.624,406.017 218.624,406.851 216.5,407.5C 218.131,410.596 220.131,413.43 222.5,416C 221.207,416.49 219.873,416.657 218.5,416.5C 218.211,420.106 218.544,423.606 219.5,427C 217.633,427.711 216.133,427.211 215,425.5C 214.355,428.559 213.522,431.559 212.5,434.5C 211.186,433.687 210.019,432.687 209,431.5C 208.856,435.931 207.523,439.931 205,443.5C 203.333,441.167 201.667,438.833 200,436.5C 197,445.833 194,445.833 191,436.5C 189.028,437.305 187.528,438.639 186.5,440.5C 184.775,439.985 183.108,439.318 181.5,438.5C 181.927,434.834 180.927,434.667 178.5,438C 177.056,438.781 175.723,438.614 174.5,437.5C 175.701,433.465 177.367,429.632 179.5,426C 179.167,425.667 178.833,425.333 178.5,425C 181.521,425.292 184.188,426.625 186.5,429C 194.926,430.199 200.426,426.699 203,418.5C 204.714,415.55 204.714,412.55 203,409.5C 200.667,406.5 198.333,403.5 196,400.5C 195.963,398.026 195.13,396.026 193.5,394.5 Z"/></g>
<g><path style="opacity:1" fill="#fed700" d="M 136.5,276.5 C 142.017,281.345 141.017,283.345 133.5,282.5C 134.559,280.466 135.559,278.466 136.5,276.5 Z"/></g>
<g><path style="opacity:1" fill="#fed700" d="M 171.5,278.5 C 175.182,278.335 178.848,278.501 182.5,279C 184.223,279.523 185.556,280.523 186.5,282C 185.548,283.3 185.548,284.467 186.5,285.5C 187.624,284.086 188.624,282.586 189.5,281C 192.814,279.835 194.814,281.002 195.5,284.5C 194.184,288.479 192.851,288.479 191.5,284.5C 191.159,286.49 190.826,288.49 190.5,290.5C 194.384,291.441 198.051,292.941 201.5,295C 199.833,296 198.167,297 196.5,298C 199.31,301.881 201.977,305.881 204.5,310C 203.09,310.368 202.09,311.201 201.5,312.5C 203.079,317.35 203.912,322.35 204,327.5C 204.645,328.646 205.478,329.646 206.5,330.5C 206,330.833 205.5,331.167 205,331.5C 199.301,325.576 198.301,326.242 202,333.5C 201.67,339.099 203.17,344.099 206.5,348.5C 201.699,351.579 197.699,350.579 194.5,345.5C 193.544,350.574 192.71,355.907 192,361.5C 187.964,358.958 185.797,355.292 185.5,350.5C 186.36,348.728 187.693,347.395 189.5,346.5C 187.817,342.764 186.984,338.764 187,334.5C 186.282,333.549 185.449,333.383 184.5,334C 185.513,338.116 186.013,342.283 186,346.5C 185.138,344.913 184.471,343.246 184,341.5C 183.282,340.549 182.449,340.383 181.5,341C 184.418,345.294 184.918,349.794 183,354.5C 181.846,355.743 180.512,356.743 179,357.5C 178.294,353.037 176.628,349.037 174,345.5C 164.325,358.566 161.159,356.9 164.5,340.5C 164.167,340.167 163.833,339.833 163.5,339.5C 160.735,341.601 157.735,343.267 154.5,344.5C 154.167,344.167 153.833,343.833 153.5,343.5C 156.266,340.503 157.599,337.169 157.5,333.5C 154.612,337.122 151.946,336.789 149.5,332.5C 152.497,332.829 155.497,331.996 158.5,330C 160.146,326.69 162.48,324.023 165.5,322C 169.653,321.616 173.653,320.616 177.5,319C 180.008,315.662 182.675,312.495 185.5,309.5C 187.077,304.954 186.744,300.621 184.5,296.5C 184.702,300.582 184.369,304.748 183.5,309C 178.275,311.243 173.275,310.909 168.5,308C 169.025,307.308 169.692,306.808 170.5,306.5C 175.964,309.889 179.631,308.555 181.5,302.5C 181.067,293.656 176.9,290.989 169,294.5C 165.495,292.262 163.662,289.095 163.5,285C 164.354,283.978 165.354,283.145 166.5,282.5C 168.508,285.34 171.008,287.674 174,289.5C 178.244,288.831 180.744,286.497 181.5,282.5C 178.128,281.599 174.795,281.599 171.5,282.5C 172.522,283.354 173.355,284.354 174,285.5C 175.081,283.233 176.581,283.066 178.5,285C 174.413,288.36 171.413,287.36 169.5,282C 169.978,280.697 170.645,279.531 171.5,278.5 Z"/></g>
<g><path style="opacity:1" fill="#fe0000" d="M 271.5,278.5 C 283.833,278.5 296.167,278.5 308.5,278.5C 308.5,282.5 308.5,286.5 308.5,290.5C 296.167,290.5 283.833,290.5 271.5,290.5C 271.5,286.5 271.5,282.5 271.5,278.5 Z"/></g>
<g><path style="opacity:1" fill="#fe0000" d="M 310.5,278.5 C 323.167,278.5 335.833,278.5 348.5,278.5C 348.5,282.5 348.5,286.5 348.5,290.5C 335.833,290.5 323.167,290.5 310.5,290.5C 310.5,286.5 310.5,282.5 310.5,278.5 Z"/></g>
<g><path style="opacity:1" fill="#fe0000" d="M 350.5,278.5 C 363.167,278.5 375.833,278.5 388.5,278.5C 388.5,282.5 388.5,286.5 388.5,290.5C 375.833,290.5 363.167,290.5 350.5,290.5C 350.5,286.5 350.5,282.5 350.5,278.5 Z"/></g>
<g><path style="opacity:1" fill="#fe0000" d="M 427.5,278.5 C 427.5,282.5 427.5,286.5 427.5,290.5C 415.167,290.5 402.833,290.5 390.5,290.5C 390.5,286.5 390.5,282.5 390.5,278.5C 402.833,278.5 415.167,278.5 427.5,278.5 Z"/></g>
<g><path style="opacity:1" fill="#fed700" d="M 123.5,280.5 C 125.868,281.014 127.868,282.18 129.5,284C 128.407,285.365 127.074,285.699 125.5,285C 123.999,283.748 122.332,282.748 120.5,282C 121.737,281.768 122.737,281.268 123.5,280.5 Z"/></g>
<g><path style="opacity:1" fill="#bfc0bf" d="M 486.5,280.5 C 488.27,281.856 489.603,283.689 490.5,286C 499.041,285.598 507.541,284.764 516,283.5C 516.5,284 517,284.5 517.5,285C 510.644,285.381 503.977,286.714 497.5,289C 492.07,290.615 488.07,288.948 485.5,284C 486.337,282.989 486.67,281.822 486.5,280.5 Z"/></g>
<g><path style="opacity:1" fill="#fed700" d="M 130.5,284.5 C 133.627,285.391 136.627,285.725 139.5,285.5C 135.734,290.306 135.567,295.306 139,300.5C 144.748,309.584 151.915,317.417 160.5,324C 158.82,327.68 155.987,329.847 152,330.5C 150.467,329.305 148.967,329.305 147.5,330.5C 145.929,328.585 143.929,327.585 141.5,327.5C 141.662,325.473 141.495,323.473 141,321.5C 140.692,322.308 140.192,322.975 139.5,323.5C 137.458,318.929 136.625,314.262 137,309.5C 136,311.167 135,312.833 134,314.5C 131.562,315.866 131.062,315.366 132.5,313C 130.844,306.86 128.511,301.026 125.5,295.5C 127.769,293.119 127.769,290.619 125.5,288C 126.833,287.667 128.167,287.333 129.5,287C 130.252,286.329 130.586,285.496 130.5,284.5 Z"/></g>
<g><path style="opacity:1" fill="#fed700" d="M 122.5,289.5 C 124.256,290.552 124.923,292.219 124.5,294.5C 117.632,294.417 116.965,292.75 122.5,289.5 Z"/></g>
<g><path style="opacity:1" fill="#fe0000" d="M 271.5,292.5 C 277.167,292.5 282.833,292.5 288.5,292.5C 288.5,296.5 288.5,300.5 288.5,304.5C 282.833,304.5 277.167,304.5 271.5,304.5C 271.5,300.5 271.5,296.5 271.5,292.5 Z"/></g>
<g><path style="opacity:1" fill="#fe0000" d="M 290.5,292.5 C 303.167,292.5 315.833,292.5 328.5,292.5C 328.5,296.5 328.5,300.5 328.5,304.5C 315.833,304.5 303.167,304.5 290.5,304.5C 290.5,300.5 290.5,296.5 290.5,292.5 Z"/></g>
<g><path style="opacity:1" fill="#fe0000" d="M 330.5,292.5 C 343.167,292.5 355.833,292.5 368.5,292.5C 368.5,296.5 368.5,300.5 368.5,304.5C 355.833,304.5 343.167,304.5 330.5,304.5C 330.5,300.5 330.5,296.5 330.5,292.5 Z"/></g>
<g><path style="opacity:1" fill="#fe0000" d="M 370.5,292.5 C 383.167,292.5 395.833,292.5 408.5,292.5C 408.5,296.5 408.5,300.5 408.5,304.5C 395.833,304.5 383.167,304.5 370.5,304.5C 370.5,300.5 370.5,296.5 370.5,292.5 Z"/></g>
<g><path style="opacity:1" fill="#fe0000" d="M 427.5,292.5 C 427.5,296.5 427.5,300.5 427.5,304.5C 421.833,304.5 416.167,304.5 410.5,304.5C 410.5,300.5 410.5,296.5 410.5,292.5C 416.167,292.5 421.833,292.5 427.5,292.5 Z"/></g>
<g><path style="opacity:1" fill="#bfc0bf" d="M 447.5,294.5 C 449.189,295.931 451.189,296.764 453.5,297C 455.037,298.11 455.703,299.61 455.5,301.5C 449.992,302.322 447.325,299.989 447.5,294.5 Z"/></g>
<g><path style="opacity:1" fill="#fed700" d="M 178.5,303.5 C 175.949,302.155 173.116,301.489 170,301.5C 166.448,302.196 162.948,303.196 159.5,304.5C 154.449,303.671 153.282,301.004 156,296.5C 157.02,297.891 157.853,299.391 158.5,301C 159.5,301.167 160.5,301.333 161.5,301.5C 167.347,299.767 173.347,299.1 179.5,299.5C 179.768,301.099 179.434,302.432 178.5,303.5 Z"/></g>
<g><path style="opacity:1" fill="#fed700" d="M 119.5,303.5 C 122.081,304.195 124.415,304.528 126.5,304.5C 126.291,305.086 125.957,305.586 125.5,306C 123.527,306.495 121.527,306.662 119.5,306.5C 119.5,305.5 119.5,304.5 119.5,303.5 Z"/></g>
<g><path style="opacity:1" fill="#fe0000" d="M 271.5,306.5 C 283.833,306.5 296.167,306.5 308.5,306.5C 308.5,310.5 308.5,314.5 308.5,318.5C 296.167,318.5 283.833,318.5 271.5,318.5C 271.5,314.5 271.5,310.5 271.5,306.5 Z"/></g>
<g><path style="opacity:1" fill="#fe0000" d="M 310.5,306.5 C 323.167,306.5 335.833,306.5 348.5,306.5C 348.5,310.5 348.5,314.5 348.5,318.5C 335.833,318.5 323.167,318.5 310.5,318.5C 310.5,314.5 310.5,310.5 310.5,306.5 Z"/></g>
<g><path style="opacity:1" fill="#fe0000" d="M 350.5,306.5 C 363.167,306.5 375.833,306.5 388.5,306.5C 388.5,310.5 388.5,314.5 388.5,318.5C 375.833,318.5 363.167,318.5 350.5,318.5C 350.5,314.5 350.5,310.5 350.5,306.5 Z"/></g>
<g><path style="opacity:1" fill="#fe0000" d="M 427.5,306.5 C 427.5,310.5 427.5,314.5 427.5,318.5C 415.167,318.5 402.833,318.5 390.5,318.5C 390.5,314.5 390.5,310.5 390.5,306.5C 402.833,306.5 415.167,306.5 427.5,306.5 Z"/></g>
<g><path style="opacity:1" fill="#fe0000" d="M 271.5,320.5 C 277.167,320.5 282.833,320.5 288.5,320.5C 288.5,324.5 288.5,328.5 288.5,332.5C 282.833,332.5 277.167,332.5 271.5,332.5C 271.5,328.5 271.5,324.5 271.5,320.5 Z"/></g>
<g><path style="opacity:1" fill="#fe0000" d="M 290.5,320.5 C 303.167,320.5 315.833,320.5 328.5,320.5C 328.5,324.5 328.5,328.5 328.5,332.5C 315.833,332.5 303.167,332.5 290.5,332.5C 290.5,328.5 290.5,324.5 290.5,320.5 Z"/></g>
<g><path style="opacity:1" fill="#fe0000" d="M 330.5,320.5 C 343.167,320.5 355.833,320.5 368.5,320.5C 368.5,324.5 368.5,328.5 368.5,332.5C 355.833,332.5 343.167,332.5 330.5,332.5C 330.5,328.5 330.5,324.5 330.5,320.5 Z"/></g>
<g><path style="opacity:1" fill="#fe0000" d="M 370.5,320.5 C 383.167,320.5 395.833,320.5 408.5,320.5C 408.5,324.5 408.5,328.5 408.5,332.5C 395.833,332.5 383.167,332.5 370.5,332.5C 370.5,328.5 370.5,324.5 370.5,320.5 Z"/></g>
<g><path style="opacity:1" fill="#fe0000" d="M 427.5,320.5 C 427.5,324.5 427.5,328.5 427.5,332.5C 421.833,332.5 416.167,332.5 410.5,332.5C 410.5,328.5 410.5,324.5 410.5,320.5C 416.167,320.5 421.833,320.5 427.5,320.5 Z"/></g>
<g><path style="opacity:1" fill="#fed700" d="M 106.5,333.5 C 109.445,331.937 112.112,332.437 114.5,335C 111.678,335.428 109.012,334.928 106.5,333.5 Z"/></g>
<g><path style="opacity:1" fill="#fe0000" d="M 270.5,334.5 C 283.167,334.5 295.833,334.5 308.5,334.5C 308.5,338.5 308.5,342.5 308.5,346.5C 295.833,346.5 283.167,346.5 270.5,346.5C 270.5,342.5 270.5,338.5 270.5,334.5 Z"/></g>
<g><path style="opacity:1" fill="#fe0000" d="M 310.5,334.5 C 323.167,334.5 335.833,334.5 348.5,334.5C 348.5,338.5 348.5,342.5 348.5,346.5C 335.833,346.5 323.167,346.5 310.5,346.5C 310.5,342.5 310.5,338.5 310.5,334.5 Z"/></g>
<g><path style="opacity:1" fill="#fe0000" d="M 350.5,334.5 C 363.167,334.5 375.833,334.5 388.5,334.5C 388.5,338.5 388.5,342.5 388.5,346.5C 375.833,346.5 363.167,346.5 350.5,346.5C 350.5,342.5 350.5,338.5 350.5,334.5 Z"/></g>
<g><path style="opacity:1" fill="#fe0000" d="M 428.5,334.5 C 428.5,338.5 428.5,342.5 428.5,346.5C 415.833,346.5 403.167,346.5 390.5,346.5C 390.5,342.5 390.5,338.5 390.5,334.5C 403.167,334.5 415.833,334.5 428.5,334.5 Z"/></g>
<g><path style="opacity:1" fill="#fed700" d="M 125.5,357.5 C 126.15,355.565 126.483,353.565 126.5,351.5C 124.856,351.286 123.356,351.62 122,352.5C 122.661,350.965 122.994,349.298 123,347.5C 119.404,351.942 116.904,351.442 115.5,346C 114.5,345.667 113.5,345.333 112.5,345C 115.172,342.321 114.838,339.988 111.5,338C 113.355,337.578 115.189,337.078 117,336.5C 120.122,338.811 123.622,340.144 127.5,340.5C 134.306,339.758 140.972,338.425 147.5,336.5C 149.459,336.875 151.293,337.541 153,338.5C 153.333,338.167 153.667,337.833 154,337.5C 154.667,338.5 154.667,339.5 154,340.5C 147.756,343.645 148.089,345.645 155,346.5C 157.139,345.764 159.139,344.764 161,343.5C 162.248,347.686 161.081,351.02 157.5,353.5C 156.167,352.5 154.833,351.5 153.5,350.5C 149.921,352.16 149.588,354.327 152.5,357C 152,357.5 151.5,358 151,358.5C 150.403,355.321 148.737,352.987 146,351.5C 145.508,352.549 145.674,353.549 146.5,354.5C 145.469,355.7 144.635,357.034 144,358.5C 142.392,354.957 140.058,351.957 137,349.5C 135.563,351.221 136.063,352.721 138.5,354C 136.741,355.008 135.574,356.508 135,358.5C 133.234,356.404 131.901,354.071 131,351.5C 129.669,353.996 127.836,355.996 125.5,357.5 Z"/></g>
<g><path style="opacity:1" fill="#fed700" d="M 110.5,339.5 C 113.026,341.202 112.859,342.868 110,344.5C 109.5,344.167 109,343.833 108.5,343.5C 109.63,342.378 110.297,341.044 110.5,339.5 Z"/></g>
<g><path style="opacity:1" fill="#bfc0bf" d="M 489.5,339.5 C 490.043,339.56 490.376,339.893 490.5,340.5C 488.493,342.008 486.826,343.842 485.5,346C 488.553,346.179 491.553,346.679 494.5,347.5C 487.583,349.628 480.916,352.295 474.5,355.5C 476.745,357.623 479.412,358.623 482.5,358.5C 482.839,363.791 480.506,366.124 475.5,365.5C 478.379,364.197 479.045,362.197 477.5,359.5C 470.392,357.148 464.559,359.148 460,365.5C 459.667,367.5 459.333,369.5 459,371.5C 456.314,370.324 453.981,368.657 452,366.5C 451.333,365.5 451.333,364.5 452,363.5C 457.429,362.038 462.596,359.871 467.5,357C 464.682,355.746 461.682,354.913 458.5,354.5C 456.423,355.937 454.09,356.604 451.5,356.5C 451.683,354.064 451.016,351.897 449.5,350C 449.833,349.667 450.167,349.333 450.5,349C 453.924,349.361 457.258,350.361 460.5,352C 463.167,352.667 465.833,352.667 468.5,352C 475.429,347.54 482.429,343.373 489.5,339.5 Z"/></g>
<g><path style="opacity:1" fill="#fed700" d="M 112.5,347.5 C 113.922,347.75 114.922,348.583 115.5,350C 113.667,351.167 111.833,352.333 110,353.5C 110.483,351.463 111.316,349.463 112.5,347.5 Z"/></g>
<g><path style="opacity:1" fill="#fe0000" d="M 270.5,348.5 C 276.5,348.5 282.5,348.5 288.5,348.5C 288.5,352.5 288.5,356.5 288.5,360.5C 282.5,360.5 276.5,360.5 270.5,360.5C 270.5,356.5 270.5,352.5 270.5,348.5 Z"/></g>
<g><path style="opacity:1" fill="#fe0000" d="M 290.5,348.5 C 303.167,348.5 315.833,348.5 328.5,348.5C 328.5,352.5 328.5,356.5 328.5,360.5C 315.833,360.5 303.167,360.5 290.5,360.5C 290.5,356.5 290.5,352.5 290.5,348.5 Z"/></g>
<g><path style="opacity:1" fill="#fe0000" d="M 330.5,348.5 C 343.167,348.5 355.833,348.5 368.5,348.5C 368.5,352.5 368.5,356.5 368.5,360.5C 355.833,360.5 343.167,360.5 330.5,360.5C 330.5,356.5 330.5,352.5 330.5,348.5 Z"/></g>
<g><path style="opacity:1" fill="#fe0000" d="M 370.5,348.5 C 383.167,348.5 395.833,348.5 408.5,348.5C 408.5,352.5 408.5,356.5 408.5,360.5C 395.833,360.5 383.167,360.5 370.5,360.5C 370.5,356.5 370.5,352.5 370.5,348.5 Z"/></g>
<g><path style="opacity:1" fill="#fe0000" d="M 428.5,348.5 C 428.5,352.5 428.5,356.5 428.5,360.5C 422.5,360.5 416.5,360.5 410.5,360.5C 410.5,356.5 410.5,352.5 410.5,348.5C 416.5,348.5 422.5,348.5 428.5,348.5 Z"/></g>
<g><path style="opacity:1" fill="#bfc0bf" d="M 447.5,350.5 C 448.931,351.78 449.598,353.447 449.5,355.5C 447.61,355.297 446.11,355.963 445,357.5C 443.916,354.341 444.75,352.008 447.5,350.5 Z"/></g>
<g><path style="opacity:1" fill="#fed700" d="M 121.5,353.5 C 125.135,353.656 125.468,354.822 122.5,357C 120.305,358.373 117.971,358.706 115.5,358C 118.106,357.208 120.106,355.708 121.5,353.5 Z"/></g>
<g><path style="opacity:1" fill="#fed700" d="M 158.5,416.5 C 157.542,416.953 156.708,417.619 156,418.5C 154.282,416.103 153.115,413.436 152.5,410.5C 151.52,413.086 151.187,415.753 151.5,418.5C 149.876,418.36 148.71,419.027 148,420.5C 146.729,416.021 145.062,411.688 143,407.5C 141.941,410.618 140.608,413.618 139,416.5C 138.667,412.167 138.333,407.833 138,403.5C 136.333,405.167 134.667,406.833 133,408.5C 132.667,408.167 132.333,407.833 132,407.5C 132.062,404.159 133.229,401.159 135.5,398.5C 135.167,398.167 134.833,397.833 134.5,397.5C 132.503,398.747 130.503,399.581 128.5,400C 128.957,399.586 129.291,399.086 129.5,398.5C 127.331,394.71 127.164,390.71 129,386.5C 131.64,384.69 134.306,383.024 137,381.5C 137.957,385.956 139.29,390.289 141,394.5C 147.637,398.093 152.97,396.76 157,390.5C 158.204,384.247 158.871,377.914 159,371.5C 161.229,369.638 162.896,367.638 164,365.5C 158.431,367.77 152.931,369.103 147.5,369.5C 149.624,368.542 151.624,367.375 153.5,366C 153,365.833 152.5,365.667 152,365.5C 142.291,367.86 132.457,369.026 122.5,369C 128.244,367.987 133.911,366.654 139.5,365C 150.755,364.589 161.921,363.755 173,362.5C 176.962,366.642 181.296,370.308 186,373.5C 188.072,376.932 188.738,380.598 188,384.5C 187.209,382.396 185.709,381.063 183.5,380.5C 182.167,378.833 182.167,377.167 183.5,375.5C 180.516,373.016 177.682,370.35 175,367.5C 176.237,370.776 178.403,373.609 181.5,376C 180.903,377.628 181.237,379.295 182.5,381C 170.061,381.544 167.061,387.377 173.5,398.5C 172.756,407.484 171.089,407.484 168.5,398.5C 167.288,400.841 167.622,403.007 169.5,405C 167.697,405.637 166.364,406.803 165.5,408.5C 164.376,406.631 163.543,404.631 163,402.5C 161.143,406.759 160.477,411.093 161,415.5C 159.957,413.299 159.123,410.966 158.5,408.5C 157.386,411.156 157.386,413.823 158.5,416.5 Z"/></g>
<g><path style="opacity:1" fill="#fe0000" d="M 270.5,362.5 C 283.167,362.5 295.833,362.5 308.5,362.5C 308.5,366.5 308.5,370.5 308.5,374.5C 295.833,374.5 283.167,374.5 270.5,374.5C 270.5,370.5 270.5,366.5 270.5,362.5 Z"/></g>
<g><path style="opacity:1" fill="#fe0000" d="M 310.5,362.5 C 323.167,362.5 335.833,362.5 348.5,362.5C 348.5,366.5 348.5,370.5 348.5,374.5C 335.833,374.5 323.167,374.5 310.5,374.5C 310.5,370.5 310.5,366.5 310.5,362.5 Z"/></g>
<g><path style="opacity:1" fill="#fe0000" d="M 350.5,362.5 C 363.167,362.5 375.833,362.5 388.5,362.5C 388.5,366.5 388.5,370.5 388.5,374.5C 375.833,374.5 363.167,374.5 350.5,374.5C 350.5,370.5 350.5,366.5 350.5,362.5 Z"/></g>
<g><path style="opacity:1" fill="#fe0000" d="M 428.5,362.5 C 428.5,366.5 428.5,370.5 428.5,374.5C 415.833,374.5 403.167,374.5 390.5,374.5C 390.5,370.5 390.5,366.5 390.5,362.5C 403.167,362.5 415.833,362.5 428.5,362.5 Z"/></g>
<g><path style="opacity:1" fill="#bfc0bf" d="M 451.5,369.5 C 454.611,370.694 454.778,372.694 452,375.5C 450.2,373.635 450.034,371.635 451.5,369.5 Z"/></g>
<g><path style="opacity:1" fill="#fed700" d="M 136.5,374.5 C 137.496,374.414 138.329,374.748 139,375.5C 139.679,381.289 138.513,381.789 135.5,377C 136.252,376.329 136.586,375.496 136.5,374.5 Z"/></g>
<g><path style="opacity:1" fill="#fe0000" d="M 270.5,376.5 C 276.5,376.5 282.5,376.5 288.5,376.5C 288.5,380.5 288.5,384.5 288.5,388.5C 282.5,388.5 276.5,388.5 270.5,388.5C 270.5,384.5 270.5,380.5 270.5,376.5 Z"/></g>
<g><path style="opacity:1" fill="#fe0000" d="M 290.5,376.5 C 303.167,376.5 315.833,376.5 328.5,376.5C 328.5,380.5 328.5,384.5 328.5,388.5C 315.833,388.5 303.167,388.5 290.5,388.5C 290.5,384.5 290.5,380.5 290.5,376.5 Z"/></g>
<g><path style="opacity:1" fill="#fe0000" d="M 330.5,376.5 C 343.167,376.5 355.833,376.5 368.5,376.5C 368.5,380.5 368.5,384.5 368.5,388.5C 355.833,388.5 343.167,388.5 330.5,388.5C 330.5,384.5 330.5,380.5 330.5,376.5 Z"/></g>
<g><path style="opacity:1" fill="#fe0000" d="M 370.5,376.5 C 383.167,376.5 395.833,376.5 408.5,376.5C 408.5,380.5 408.5,384.5 408.5,388.5C 395.833,388.5 383.167,388.5 370.5,388.5C 370.5,384.5 370.5,380.5 370.5,376.5 Z"/></g>
<g><path style="opacity:1" fill="#fe0000" d="M 428.5,376.5 C 428.5,380.5 428.5,384.5 428.5,388.5C 422.5,388.5 416.5,388.5 410.5,388.5C 410.5,384.5 410.5,380.5 410.5,376.5C 416.5,376.5 422.5,376.5 428.5,376.5 Z"/></g>
<g><path style="opacity:1" fill="#fed700" d="M 124.5,380.5 C 127.045,378.977 129.045,379.643 130.5,382.5C 129.478,383.354 128.645,384.354 128,385.5C 127.098,383.569 125.931,381.903 124.5,380.5 Z"/></g>
<g><path style="opacity:1" fill="#fe0000" d="M 551.5,380.5 C 556.377,382.873 561.377,382.873 566.5,380.5C 568.303,381.137 569.636,382.303 570.5,384C 567.954,386.884 565.787,390.051 564,393.5C 561.931,392.736 559.764,392.236 557.5,392C 559.349,390.907 561.016,389.574 562.5,388C 559.833,387 557.167,386 554.5,385C 552.859,383.871 551.859,382.371 551.5,380.5 Z"/></g>
<g><path style="opacity:1" fill="#fed700" d="M 120.5,386.5 C 125.493,384.319 127.327,385.986 126,391.5C 125.563,388.228 123.73,386.561 120.5,386.5 Z"/></g>
<g><path style="opacity:1" fill="#bfc0bf" d="M 466.5,385.5 C 467.496,385.414 468.329,385.748 469,386.5C 469.422,388.355 469.922,390.189 470.5,392C 469.276,395.184 468.109,395.017 467,391.5C 466.505,389.527 466.338,387.527 466.5,385.5 Z"/></g>
<g><path style="opacity:1" fill="#bfc0bf" d="M 457.5,388.5 C 460.719,389.72 462.385,392.053 462.5,395.5C 458.352,395.166 456.685,392.833 457.5,388.5 Z"/></g>
<g><path style="opacity:1" fill="#fe0000" d="M 270.5,390.5 C 283.167,390.5 295.833,390.5 308.5,390.5C 308.5,394.5 308.5,398.5 308.5,402.5C 295.833,402.5 283.167,402.5 270.5,402.5C 270.5,398.5 270.5,394.5 270.5,390.5 Z"/></g>
<g><path style="opacity:1" fill="#fe0000" d="M 310.5,390.5 C 323.167,390.5 335.833,390.5 348.5,390.5C 348.5,394.5 348.5,398.5 348.5,402.5C 335.833,402.5 323.167,402.5 310.5,402.5C 310.5,398.5 310.5,394.5 310.5,390.5 Z"/></g>
<g><path style="opacity:1" fill="#fe0000" d="M 350.5,390.5 C 363.167,390.5 375.833,390.5 388.5,390.5C 388.5,394.5 388.5,398.5 388.5,402.5C 375.833,402.5 363.167,402.5 350.5,402.5C 350.5,398.5 350.5,394.5 350.5,390.5 Z"/></g>
<g><path style="opacity:1" fill="#fe0000" d="M 428.5,390.5 C 428.5,394.5 428.5,398.5 428.5,402.5C 415.833,402.5 403.167,402.5 390.5,402.5C 390.5,398.5 390.5,394.5 390.5,390.5C 403.167,390.5 415.833,390.5 428.5,390.5 Z"/></g>
<g><path style="opacity:1" fill="#bfc0bf" d="M 454.5,405.5 C 453.663,403.141 452.163,401.141 450,399.5C 449.251,398.365 449.417,397.365 450.5,396.5C 453.961,397.551 456.627,399.551 458.5,402.5C 456.816,403.15 455.483,404.15 454.5,405.5 Z"/></g>
<g><path style="opacity:1" fill="#fed700" d="M 126.5,401.5 C 119.627,400.386 119.294,399.053 125.5,397.5C 127.7,398.325 128.034,399.658 126.5,401.5 Z"/></g>
<g><path style="opacity:1" fill="#fe0000" d="M 269.5,404.5 C 275.833,404.5 282.167,404.5 288.5,404.5C 288.5,408.5 288.5,412.5 288.5,416.5C 281.5,416.5 274.5,416.5 267.5,416.5C 269,412.674 269.666,408.674 269.5,404.5 Z"/></g>
<g><path style="opacity:1" fill="#fe0000" d="M 290.5,404.5 C 303.167,404.5 315.833,404.5 328.5,404.5C 328.5,408.5 328.5,412.5 328.5,416.5C 315.833,416.5 303.167,416.5 290.5,416.5C 290.5,412.5 290.5,408.5 290.5,404.5 Z"/></g>
<g><path style="opacity:1" fill="#fe0000" d="M 330.5,404.5 C 343.167,404.5 355.833,404.5 368.5,404.5C 368.5,408.5 368.5,412.5 368.5,416.5C 355.833,416.5 343.167,416.5 330.5,416.5C 330.5,412.5 330.5,408.5 330.5,404.5 Z"/></g>
<g><path style="opacity:1" fill="#fe0000" d="M 370.5,404.5 C 383.167,404.5 395.833,404.5 408.5,404.5C 408.5,408.5 408.5,412.5 408.5,416.5C 395.833,416.5 383.167,416.5 370.5,416.5C 370.5,412.5 370.5,408.5 370.5,404.5 Z"/></g>
<g><path style="opacity:1" fill="#fe0000" d="M 429.5,404.5 C 429.334,408.674 430,412.674 431.5,416.5C 424.5,416.5 417.5,416.5 410.5,416.5C 410.5,412.5 410.5,408.5 410.5,404.5C 416.833,404.5 423.167,404.5 429.5,404.5 Z"/></g>
<g><path style="opacity:1" fill="#bfc0bf" d="M 539.5,404.5 C 540.931,406.437 542.598,408.27 544.5,410C 532.998,411.257 523.831,416.424 517,425.5C 515.692,430.94 513.526,435.94 510.5,440.5C 508.926,441.631 507.259,441.798 505.5,441C 508.056,438.494 509.056,435.661 508.5,432.5C 503.781,434.926 499.114,437.259 494.5,439.5C 491.135,439.213 488.135,438.046 485.5,436C 491.24,434.962 496.907,433.629 502.5,432C 502,431.5 501.5,431 501,430.5C 498.599,431.602 496.099,431.769 493.5,431C 493.043,430.586 492.709,430.086 492.5,429.5C 494.5,428.667 496.5,427.833 498.5,427C 503.167,423 507.833,419 512.5,415C 519.662,412.694 526.995,411.027 534.5,410C 537.079,408.924 538.746,407.091 539.5,404.5 Z"/></g>
<g><path style="opacity:1" fill="#fed700" d="M 176.5,422.5 C 176.489,420.983 175.823,419.816 174.5,419C 177.579,417.91 179.912,418.743 181.5,421.5C 179.955,422.452 178.288,422.785 176.5,422.5 Z"/></g>
<g><path style="opacity:1" fill="#fe0000" d="M 267.5,418.5 C 268.483,422.298 268.817,426.298 268.5,430.5C 266.5,430.5 264.5,430.5 262.5,430.5C 264.557,426.662 266.224,422.662 267.5,418.5 Z"/></g>
<g><path style="opacity:1" fill="#fe0000" d="M 270.5,418.5 C 283.167,418.5 295.833,418.5 308.5,418.5C 308.5,422.5 308.5,426.5 308.5,430.5C 295.833,430.5 283.167,430.5 270.5,430.5C 270.5,426.5 270.5,422.5 270.5,418.5 Z"/></g>
<g><path style="opacity:1" fill="#fe0000" d="M 310.5,418.5 C 323.167,418.5 335.833,418.5 348.5,418.5C 348.5,422.5 348.5,426.5 348.5,430.5C 335.833,430.5 323.167,430.5 310.5,430.5C 310.5,426.5 310.5,422.5 310.5,418.5 Z"/></g>
<g><path style="opacity:1" fill="#fe0000" d="M 350.5,418.5 C 363.167,418.5 375.833,418.5 388.5,418.5C 388.5,422.5 388.5,426.5 388.5,430.5C 375.833,430.5 363.167,430.5 350.5,430.5C 350.5,426.5 350.5,422.5 350.5,418.5 Z"/></g>
<g><path style="opacity:1" fill="#fe0000" d="M 390.5,418.5 C 403.167,418.5 415.833,418.5 428.5,418.5C 428.5,422.5 428.5,426.5 428.5,430.5C 415.833,430.5 403.167,430.5 390.5,430.5C 390.5,426.5 390.5,422.5 390.5,418.5 Z"/></g>
<g><path style="opacity:1" fill="#fe0000" d="M 431.5,418.5 C 432.776,422.662 434.443,426.662 436.5,430.5C 434.5,430.5 432.5,430.5 430.5,430.5C 430.183,426.298 430.517,422.298 431.5,418.5 Z"/></g>
<g><path style="opacity:1" fill="#bfc0bf" d="M 528.5,421.5 C 530.423,421.795 532.09,422.628 533.5,424C 530.783,425.839 529.116,425.006 528.5,421.5 Z"/></g>
<g><path style="opacity:1" fill="#fed700" d="M 169.5,425.5 C 171.924,425.192 174.257,425.526 176.5,426.5C 175.563,430.417 174.23,430.917 172.5,428C 171.167,427.667 169.833,427.333 168.5,427C 169.056,426.617 169.389,426.117 169.5,425.5 Z"/></g>
<g><path style="opacity:1" fill="#bfc0bf" d="M 524.5,430.5 C 526.527,430.338 528.527,430.505 530.5,431C 528.385,431.557 526.385,432.391 524.5,433.5C 523.438,432.575 523.438,431.575 524.5,430.5 Z"/></g>
<g><path style="opacity:1" fill="#fed700" d="M 173.5,431.5 C 174.537,433.493 174.203,435.493 172.5,437.5C 171.277,438.614 169.944,438.781 168.5,438C 170.054,435.629 171.721,433.463 173.5,431.5 Z"/></g>
<g><path style="opacity:1" fill="#fe0000" d="M 262.5,432.5 C 271.167,432.5 279.833,432.5 288.5,432.5C 288.5,436.5 288.5,440.5 288.5,444.5C 277.5,444.5 266.5,444.5 255.5,444.5C 257.848,440.465 260.182,436.465 262.5,432.5 Z"/></g>
<g><path style="opacity:1" fill="#fe0000" d="M 290.5,432.5 C 303.167,432.5 315.833,432.5 328.5,432.5C 328.5,436.5 328.5,440.5 328.5,444.5C 315.833,444.5 303.167,444.5 290.5,444.5C 290.5,440.5 290.5,436.5 290.5,432.5 Z"/></g>
<g><path style="opacity:1" fill="#fe0000" d="M 330.5,432.5 C 343.167,432.5 355.833,432.5 368.5,432.5C 368.5,436.5 368.5,440.5 368.5,444.5C 355.833,444.5 343.167,444.5 330.5,444.5C 330.5,440.5 330.5,436.5 330.5,432.5 Z"/></g>
<g><path style="opacity:1" fill="#fe0000" d="M 370.5,432.5 C 383.167,432.5 395.833,432.5 408.5,432.5C 408.5,436.5 408.5,440.5 408.5,444.5C 395.833,444.5 383.167,444.5 370.5,444.5C 370.5,440.5 370.5,436.5 370.5,432.5 Z"/></g>
<g><path style="opacity:1" fill="#fe0000" d="M 436.5,432.5 C 438.818,436.465 441.152,440.465 443.5,444.5C 432.5,444.5 421.5,444.5 410.5,444.5C 410.5,440.5 410.5,436.5 410.5,432.5C 419.167,432.5 427.833,432.5 436.5,432.5 Z"/></g>
<g><path style="opacity:1" fill="#bfc0bf" d="M 527.5,436.5 C 529.03,437.067 530.53,437.733 532,438.5C 532.492,439.549 532.326,440.549 531.5,441.5C 528.001,443.562 524.335,443.895 520.5,442.5C 523.163,440.701 525.496,438.701 527.5,436.5 Z"/></g>
<g><path style="opacity:1" fill="#fed700" d="M 180.5,441.5 C 183.022,441.128 185.022,441.961 186.5,444C 184.064,444.93 181.731,446.097 179.5,447.5C 179.167,447.333 178.833,447.167 178.5,447C 179.861,445.416 180.528,443.582 180.5,441.5 Z"/></g>
<g><path style="opacity:1" fill="#bfc0bf" d="M 541.5,444.5 C 542.756,444.461 543.756,444.961 544.5,446C 542.796,448.757 540.462,450.09 537.5,450C 535.088,447.965 535.755,446.965 539.5,447C 540.381,446.292 541.047,445.458 541.5,444.5 Z"/></g>
<g><path style="opacity:1" fill="#fe0000" d="M 254.5,446.5 C 259.167,446.5 263.833,446.5 268.5,446.5C 268.5,450.5 268.5,454.5 268.5,458.5C 261.833,458.5 255.167,458.5 248.5,458.5C 250.487,454.527 252.487,450.527 254.5,446.5 Z"/></g>
<g><path style="opacity:1" fill="#fe0000" d="M 270.5,446.5 C 283.167,446.5 295.833,446.5 308.5,446.5C 308.5,450.5 308.5,454.5 308.5,458.5C 295.833,458.5 283.167,458.5 270.5,458.5C 270.5,454.5 270.5,450.5 270.5,446.5 Z"/></g>
<g><path style="opacity:1" fill="#fe0000" d="M 310.5,446.5 C 323.167,446.5 335.833,446.5 348.5,446.5C 348.5,450.5 348.5,454.5 348.5,458.5C 335.833,458.5 323.167,458.5 310.5,458.5C 310.5,454.5 310.5,450.5 310.5,446.5 Z"/></g>
<g><path style="opacity:1" fill="#fe0000" d="M 350.5,446.5 C 363.167,446.5 375.833,446.5 388.5,446.5C 388.5,450.5 388.5,454.5 388.5,458.5C 375.833,458.5 363.167,458.5 350.5,458.5C 350.5,454.5 350.5,450.5 350.5,446.5 Z"/></g>
<g><path style="opacity:1" fill="#fe0000" d="M 390.5,446.5 C 403.167,446.5 415.833,446.5 428.5,446.5C 428.5,450.5 428.5,454.5 428.5,458.5C 415.833,458.5 403.167,458.5 390.5,458.5C 390.5,454.5 390.5,450.5 390.5,446.5 Z"/></g>
<g><path style="opacity:1" fill="#fe0000" d="M 444.5,446.5 C 446.513,450.527 448.513,454.527 450.5,458.5C 443.833,458.5 437.167,458.5 430.5,458.5C 430.5,454.5 430.5,450.5 430.5,446.5C 435.167,446.5 439.833,446.5 444.5,446.5 Z"/></g>
<g><path style="opacity:1" fill="#fe0000" d="M 247.5,460.5 C 248.483,464.298 248.817,468.298 248.5,472.5C 245.833,472.5 243.167,472.5 240.5,472.5C 242.344,468.136 244.677,464.136 247.5,460.5 Z"/></g>
<g><path style="opacity:1" fill="#fe0000" d="M 250.5,460.5 C 263.167,460.5 275.833,460.5 288.5,460.5C 288.5,464.5 288.5,468.5 288.5,472.5C 275.833,472.5 263.167,472.5 250.5,472.5C 250.5,468.5 250.5,464.5 250.5,460.5 Z"/></g>
<g><path style="opacity:1" fill="#fe0000" d="M 290.5,460.5 C 303.167,460.5 315.833,460.5 328.5,460.5C 328.662,462.527 328.495,464.527 328,466.5C 326.122,468.043 324.622,469.876 323.5,472C 312.505,472.5 301.505,472.667 290.5,472.5C 290.5,468.5 290.5,464.5 290.5,460.5 Z"/></g>
<g><path style="opacity:1" fill="#fe0000" d="M 336.5,460.5 C 334.544,461.492 332.544,462.492 330.5,463.5C 330.5,462.5 330.5,461.5 330.5,460.5C 332.5,460.5 334.5,460.5 336.5,460.5 Z"/></g>
<g><path style="opacity:1" fill="#483d00" d="M 336.5,460.5 C 338.5,460.5 340.5,460.5 342.5,460.5C 338.297,461.935 334.297,463.935 330.5,466.5C 330.5,465.5 330.5,464.5 330.5,463.5C 332.544,462.492 334.544,461.492 336.5,460.5 Z"/></g>
<g><path style="opacity:1" fill="#fe0000" d="M 342.5,460.5 C 347.167,460.5 351.833,460.5 356.5,460.5C 360.703,461.935 364.703,463.935 368.5,466.5C 370.885,468.884 372.885,471.55 374.5,474.5C 374.5,502.5 374.5,530.5 374.5,558.5C 357.833,558.5 341.167,558.5 324.5,558.5C 324.5,530.5 324.5,502.5 324.5,474.5C 326.115,471.55 328.115,468.884 330.5,466.5C 334.297,463.935 338.297,461.935 342.5,460.5 Z"/></g>
<g><path style="opacity:1" fill="#483d00" d="M 356.5,460.5 C 358.5,460.5 360.5,460.5 362.5,460.5C 364.456,461.492 366.456,462.492 368.5,463.5C 368.5,464.5 368.5,465.5 368.5,466.5C 364.703,463.935 360.703,461.935 356.5,460.5 Z"/></g>
<g><path style="opacity:1" fill="#fe0000" d="M 362.5,460.5 C 364.5,460.5 366.5,460.5 368.5,460.5C 368.5,461.5 368.5,462.5 368.5,463.5C 366.456,462.492 364.456,461.492 362.5,460.5 Z"/></g>
<g><path style="opacity:1" fill="#fe0000" d="M 370.5,460.5 C 383.167,460.5 395.833,460.5 408.5,460.5C 408.5,464.5 408.5,468.5 408.5,472.5C 397.495,472.667 386.495,472.5 375.5,472C 374.378,469.876 372.878,468.043 371,466.5C 370.505,464.527 370.338,462.527 370.5,460.5 Z"/></g>
<g><path style="opacity:1" fill="#fe0000" d="M 410.5,460.5 C 423.167,460.5 435.833,460.5 448.5,460.5C 448.5,464.5 448.5,468.5 448.5,472.5C 435.833,472.5 423.167,472.5 410.5,472.5C 410.5,468.5 410.5,464.5 410.5,460.5 Z"/></g>
<g><path style="opacity:1" fill="#fe0000" d="M 451.5,460.5 C 454.323,464.136 456.656,468.136 458.5,472.5C 455.833,472.5 453.167,472.5 450.5,472.5C 450.183,468.298 450.517,464.298 451.5,460.5 Z"/></g>
<g><path style="opacity:1" fill="#fe0000" d="M 240.5,474.5 C 249.833,474.5 259.167,474.5 268.5,474.5C 268.5,478.5 268.5,482.5 268.5,486.5C 257.833,486.5 247.167,486.5 236.5,486.5C 236.861,482.085 238.194,478.085 240.5,474.5 Z"/></g>
<g><path style="opacity:1" fill="#fe0000" d="M 270.5,474.5 C 283.167,474.5 295.833,474.5 308.5,474.5C 308.5,478.5 308.5,482.5 308.5,486.5C 295.833,486.5 283.167,486.5 270.5,486.5C 270.5,482.5 270.5,478.5 270.5,474.5 Z"/></g>
<g><path style="opacity:1" fill="#fe0000" d="M 322.5,474.5 C 322.5,478.5 322.5,482.5 322.5,486.5C 318.5,486.5 314.5,486.5 310.5,486.5C 310.5,482.5 310.5,478.5 310.5,474.5C 314.5,474.5 318.5,474.5 322.5,474.5 Z"/></g>
<g><path style="opacity:1" fill="#fe0000" d="M 376.5,474.5 C 380.5,474.5 384.5,474.5 388.5,474.5C 388.5,478.5 388.5,482.5 388.5,486.5C 384.5,486.5 380.5,486.5 376.5,486.5C 376.5,482.5 376.5,478.5 376.5,474.5 Z"/></g>
<g><path style="opacity:1" fill="#fe0000" d="M 390.5,474.5 C 403.167,474.5 415.833,474.5 428.5,474.5C 428.5,478.5 428.5,482.5 428.5,486.5C 415.833,486.5 403.167,486.5 390.5,486.5C 390.5,482.5 390.5,478.5 390.5,474.5 Z"/></g>
<g><path style="opacity:1" fill="#fe0000" d="M 458.5,474.5 C 460.806,478.085 462.139,482.085 462.5,486.5C 451.833,486.5 441.167,486.5 430.5,486.5C 430.5,482.5 430.5,478.5 430.5,474.5C 439.833,474.5 449.167,474.5 458.5,474.5 Z"/></g>
<g><path style="opacity:1" fill="#fe0000" d="M 235.5,488.5 C 239.833,488.5 244.167,488.5 248.5,488.5C 248.5,492.5 248.5,496.5 248.5,500.5C 243.833,500.5 239.167,500.5 234.5,500.5C 235.021,496.519 235.354,492.519 235.5,488.5 Z"/></g>
<g><path style="opacity:1" fill="#fe0000" d="M 250.5,488.5 C 263.167,488.5 275.833,488.5 288.5,488.5C 288.5,492.5 288.5,496.5 288.5,500.5C 275.833,500.5 263.167,500.5 250.5,500.5C 250.5,496.5 250.5,492.5 250.5,488.5 Z"/></g>
<g><path style="opacity:1" fill="#fe0000" d="M 322.5,488.5 C 322.5,492.5 322.5,496.5 322.5,500.5C 311.833,500.5 301.167,500.5 290.5,500.5C 290.5,496.5 290.5,492.5 290.5,488.5C 301.167,488.5 311.833,488.5 322.5,488.5 Z"/></g>
<g><path style="opacity:1" fill="#fe0000" d="M 376.5,488.5 C 387.167,488.5 397.833,488.5 408.5,488.5C 408.5,492.5 408.5,496.5 408.5,500.5C 397.833,500.5 387.167,500.5 376.5,500.5C 376.5,496.5 376.5,492.5 376.5,488.5 Z"/></g>
<g><path style="opacity:1" fill="#fe0000" d="M 410.5,488.5 C 423.167,488.5 435.833,488.5 448.5,488.5C 448.5,492.5 448.5,496.5 448.5,500.5C 435.833,500.5 423.167,500.5 410.5,500.5C 410.5,496.5 410.5,492.5 410.5,488.5 Z"/></g>
<g><path style="opacity:1" fill="#fe0000" d="M 463.5,488.5 C 463.646,492.519 463.979,496.519 464.5,500.5C 459.833,500.5 455.167,500.5 450.5,500.5C 450.5,496.5 450.5,492.5 450.5,488.5C 454.833,488.5 459.167,488.5 463.5,488.5 Z"/></g>
<g><path style="opacity:1" fill="#fe0000" d="M 234.5,502.5 C 245.833,502.5 257.167,502.5 268.5,502.5C 268.5,506.5 268.5,510.5 268.5,514.5C 257.167,514.5 245.833,514.5 234.5,514.5C 234.5,510.5 234.5,506.5 234.5,502.5 Z"/></g>
<g><path style="opacity:1" fill="#fe0000" d="M 270.5,502.5 C 283.167,502.5 295.833,502.5 308.5,502.5C 308.5,506.5 308.5,510.5 308.5,514.5C 295.833,514.5 283.167,514.5 270.5,514.5C 270.5,510.5 270.5,506.5 270.5,502.5 Z"/></g>
<g><path style="opacity:1" fill="#fe0000" d="M 322.5,502.5 C 322.5,506.5 322.5,510.5 322.5,514.5C 318.5,514.5 314.5,514.5 310.5,514.5C 310.5,510.5 310.5,506.5 310.5,502.5C 314.5,502.5 318.5,502.5 322.5,502.5 Z"/></g>
<g><path style="opacity:1" fill="#fe0000" d="M 376.5,502.5 C 380.5,502.5 384.5,502.5 388.5,502.5C 388.5,506.5 388.5,510.5 388.5,514.5C 384.5,514.5 380.5,514.5 376.5,514.5C 376.5,510.5 376.5,506.5 376.5,502.5 Z"/></g>
<g><path style="opacity:1" fill="#fe0000" d="M 390.5,502.5 C 403.167,502.5 415.833,502.5 428.5,502.5C 428.5,506.5 428.5,510.5 428.5,514.5C 415.833,514.5 403.167,514.5 390.5,514.5C 390.5,510.5 390.5,506.5 390.5,502.5 Z"/></g>
<g><path style="opacity:1" fill="#fe0000" d="M 464.5,502.5 C 464.5,506.5 464.5,510.5 464.5,514.5C 453.167,514.5 441.833,514.5 430.5,514.5C 430.5,510.5 430.5,506.5 430.5,502.5C 441.833,502.5 453.167,502.5 464.5,502.5 Z"/></g>
<g><path style="opacity:1" fill="#fe0000" d="M 233.5,516.5 C 238.5,516.5 243.5,516.5 248.5,516.5C 248.5,520.5 248.5,524.5 248.5,528.5C 242.833,528.5 237.167,528.5 231.5,528.5C 233.143,524.705 233.809,520.705 233.5,516.5 Z"/></g>
<g><path style="opacity:1" fill="#fe0000" d="M 250.5,516.5 C 263.167,516.5 275.833,516.5 288.5,516.5C 288.5,520.5 288.5,524.5 288.5,528.5C 275.833,528.5 263.167,528.5 250.5,528.5C 250.5,524.5 250.5,520.5 250.5,516.5 Z"/></g>
<g><path style="opacity:1" fill="#fe0000" d="M 322.5,516.5 C 322.5,520.5 322.5,524.5 322.5,528.5C 311.833,528.5 301.167,528.5 290.5,528.5C 290.5,524.5 290.5,520.5 290.5,516.5C 301.167,516.5 311.833,516.5 322.5,516.5 Z"/></g>
<g><path style="opacity:1" fill="#fe0000" d="M 376.5,516.5 C 387.167,516.5 397.833,516.5 408.5,516.5C 408.5,520.5 408.5,524.5 408.5,528.5C 397.833,528.5 387.167,528.5 376.5,528.5C 376.5,524.5 376.5,520.5 376.5,516.5 Z"/></g>
<g><path style="opacity:1" fill="#fe0000" d="M 410.5,516.5 C 423.167,516.5 435.833,516.5 448.5,516.5C 448.5,520.5 448.5,524.5 448.5,528.5C 435.833,528.5 423.167,528.5 410.5,528.5C 410.5,524.5 410.5,520.5 410.5,516.5 Z"/></g>
<g><path style="opacity:1" fill="#fe0000" d="M 465.5,516.5 C 465.191,520.705 465.857,524.705 467.5,528.5C 461.833,528.5 456.167,528.5 450.5,528.5C 450.5,524.5 450.5,520.5 450.5,516.5C 455.5,516.5 460.5,516.5 465.5,516.5 Z"/></g>
<g><path style="opacity:1" fill="#fe0000" d="M 230.5,530.5 C 243.167,530.5 255.833,530.5 268.5,530.5C 268.5,534.5 268.5,538.5 268.5,542.5C 255.833,542.5 243.167,542.5 230.5,542.5C 230.5,538.833 230.5,535.167 230.5,531.5C 230.5,531.167 230.5,530.833 230.5,530.5 Z"/></g>
<g><path style="opacity:1" fill="#fe0000" d="M 270.5,530.5 C 283.167,530.5 295.833,530.5 308.5,530.5C 308.5,534.5 308.5,538.5 308.5,542.5C 295.833,542.5 283.167,542.5 270.5,542.5C 270.5,538.5 270.5,534.5 270.5,530.5 Z"/></g>
<g><path style="opacity:1" fill="#fe0000" d="M 322.5,530.5 C 322.5,534.5 322.5,538.5 322.5,542.5C 318.5,542.5 314.5,542.5 310.5,542.5C 310.5,538.5 310.5,534.5 310.5,530.5C 314.5,530.5 318.5,530.5 322.5,530.5 Z"/></g>
<g><path style="opacity:1" fill="#fe0000" d="M 376.5,530.5 C 380.5,530.5 384.5,530.5 388.5,530.5C 388.5,534.5 388.5,538.5 388.5,542.5C 384.5,542.5 380.5,542.5 376.5,542.5C 376.5,538.5 376.5,534.5 376.5,530.5 Z"/></g>
<g><path style="opacity:1" fill="#fe0000" d="M 390.5,530.5 C 403.167,530.5 415.833,530.5 428.5,530.5C 428.5,534.5 428.5,538.5 428.5,542.5C 415.833,542.5 403.167,542.5 390.5,542.5C 390.5,538.5 390.5,534.5 390.5,530.5 Z"/></g>
<g><path style="opacity:1" fill="#fe0000" d="M 468.5,530.5 C 468.5,530.833 468.5,531.167 468.5,531.5C 468.5,535.167 468.5,538.833 468.5,542.5C 455.833,542.5 443.167,542.5 430.5,542.5C 430.5,538.5 430.5,534.5 430.5,530.5C 443.167,530.5 455.833,530.5 468.5,530.5 Z"/></g>
<g><path style="opacity:1" fill="#fe0000" d="M 227.5,544.5 C 234.5,544.5 241.5,544.5 248.5,544.5C 248.5,549.167 248.5,553.833 248.5,558.5C 241.5,558.5 234.5,558.5 227.5,558.5C 227.5,553.833 227.5,549.167 227.5,544.5 Z"/></g>
<g><path style="opacity:1" fill="#fe0000" d="M 288.5,558.5 C 275.833,558.5 263.167,558.5 250.5,558.5C 250.5,553.833 250.5,549.167 250.5,544.5C 263.167,544.5 275.833,544.5 288.5,544.5C 288.5,549.167 288.5,553.833 288.5,558.5 Z"/></g>
<g><path style="opacity:1" fill="#fe0000" d="M 322.5,544.5 C 322.5,549.167 322.5,553.833 322.5,558.5C 311.833,558.5 301.167,558.5 290.5,558.5C 290.5,553.833 290.5,549.167 290.5,544.5C 301.167,544.5 311.833,544.5 322.5,544.5 Z"/></g>
<g><path style="opacity:1" fill="#fe0000" d="M 376.5,544.5 C 387.167,544.5 397.833,544.5 408.5,544.5C 408.5,549.167 408.5,553.833 408.5,558.5C 397.833,558.5 387.167,558.5 376.5,558.5C 376.5,553.833 376.5,549.167 376.5,544.5 Z"/></g>
<g><path style="opacity:1" fill="#fe0000" d="M 448.5,558.5 C 435.833,558.5 423.167,558.5 410.5,558.5C 410.5,553.833 410.5,549.167 410.5,544.5C 423.167,544.5 435.833,544.5 448.5,544.5C 448.5,549.167 448.5,553.833 448.5,558.5 Z"/></g>
<g><path style="opacity:1" fill="#fe0000" d="M 471.5,544.5 C 471.5,549.167 471.5,553.833 471.5,558.5C 464.5,558.5 457.5,558.5 450.5,558.5C 450.5,553.833 450.5,549.167 450.5,544.5C 457.5,544.5 464.5,544.5 471.5,544.5 Z"/></g>
<g><path style="opacity:1" fill="#0000ff" d="M 172.5,627.5 C 182.964,627.963 193.297,629.463 203.5,632C 212.833,636.667 222.167,641.333 231.5,646C 251.5,652 271.5,652 291.5,646C 300.833,641.333 310.167,636.667 319.5,632C 339.5,626 359.5,626 379.5,632C 388.833,636.667 398.167,641.333 407.5,646C 427.5,652 447.5,652 467.5,646C 476.833,641.333 486.167,636.667 495.5,632C 512.765,627.622 530.098,626.955 547.5,630C 549.78,630.233 551.78,631.066 553.5,632.5C 548.436,640.121 542.769,647.288 536.5,654C 522.698,653.447 509.031,654.781 495.5,658C 486.167,662.667 476.833,667.333 467.5,672C 447.5,678 427.5,678 407.5,672C 398.167,667.333 388.833,662.667 379.5,658C 359.5,652 339.5,652 319.5,658C 310.167,662.667 300.833,667.333 291.5,672C 271.5,678 251.5,678 231.5,672C 219.951,665.557 207.951,660.224 195.5,656C 184.5,654.358 173.5,653.691 162.5,654C 156.231,647.288 150.564,640.121 145.5,632.5C 147.22,631.066 149.22,630.233 151.5,630C 158.649,629.163 165.649,628.33 172.5,627.5 Z"/></g>
<g><path style="opacity:1" fill="#bfc0bf" d="M 172.5,655.5 C 182.964,655.963 193.297,657.463 203.5,660C 212.833,664.667 222.167,669.333 231.5,674C 251.5,680 271.5,680 291.5,674C 300.833,669.333 310.167,664.667 319.5,660C 339.5,654 359.5,654 379.5,660C 388.833,664.667 398.167,669.333 407.5,674C 427.5,680 447.5,680 467.5,674C 476.833,669.333 486.167,664.667 495.5,660C 508.406,656.579 521.406,655.579 534.5,657C 526.795,665.037 519.461,673.37 512.5,682C 506.84,683.24 501.173,684.573 495.5,686C 486.167,690.667 476.833,695.333 467.5,700C 447.5,706 427.5,706 407.5,700C 398.167,695.333 388.833,690.667 379.5,686C 359.5,680 339.5,680 319.5,686C 310.167,690.667 300.833,695.333 291.5,700C 271.5,706 251.5,706 231.5,700C 222.167,695.333 212.833,690.667 203.5,686C 197.827,684.573 192.16,683.24 186.5,682C 179.539,673.37 172.205,665.037 164.5,657C 167.365,656.817 170.031,656.317 172.5,655.5 Z"/></g>
<g><path style="opacity:1" fill="#0000ff" d="M 348.5,683.5 C 358.964,683.963 369.297,685.463 379.5,688C 388.833,692.667 398.167,697.333 407.5,702C 427.5,708 447.5,708 467.5,702C 476.833,697.333 486.167,692.667 495.5,688C 499.754,686.516 504.087,685.849 508.5,686C 499.5,694.333 490.5,702.667 481.5,711C 471.57,717.642 461.57,724.308 451.5,731C 436.729,732.659 422.063,731.659 407.5,728C 398.167,723.333 388.833,718.667 379.5,714C 359.5,708 339.5,708 319.5,714C 310.167,718.667 300.833,723.333 291.5,728C 276.177,732.098 260.844,732.765 245.5,730C 236.096,723.642 226.763,717.309 217.5,711C 208.5,702.667 199.5,694.333 190.5,686C 194.913,685.849 199.246,686.516 203.5,688C 212.833,692.667 222.167,697.333 231.5,702C 251.5,708 271.5,708 291.5,702C 300.833,697.333 310.167,692.667 319.5,688C 329.174,685.596 338.841,684.096 348.5,683.5 Z"/></g>
<g><path style="opacity:1" fill="#bfc0bf" d="M 348.5,711.5 C 367.546,711.093 384.879,716.259 400.5,727C 415.334,732.73 430.668,735.063 446.5,734C 432.491,741.758 417.991,748.258 403,753.5C 395.105,749.803 387.272,745.969 379.5,742C 359.5,736 339.5,736 319.5,742C 311.728,745.969 303.895,749.803 296,753.5C 281.009,748.258 266.509,741.758 252.5,734C 268.332,735.063 283.666,732.73 298.5,727C 305.48,723.367 312.48,719.7 319.5,716C 329.174,713.596 338.841,712.096 348.5,711.5 Z"/></g>
<g><path style="opacity:1" fill="#0000ff" d="M 348.5,739.5 C 367.546,739.093 384.879,744.259 400.5,755C 384.887,760.32 369.22,765.487 353.5,770.5C 350.833,771.833 348.167,771.833 345.5,770.5C 329.78,765.487 314.113,760.32 298.5,755C 305.48,751.367 312.48,747.7 319.5,744C 329.174,741.596 338.841,740.096 348.5,739.5 Z"/></g>
</svg>
