<?xml version="1.0" encoding="UTF-8" standalone="no"?>
<!-- Created with Inkscape (http://www.inkscape.org/) -->
<svg xmlns:svg="http://www.w3.org/2000/svg" xmlns="http://www.w3.org/2000/svg" xmlns:xlink="http://www.w3.org/1999/xlink" version="1.0" width="175" height="199" id="svg2211">
  <defs id="defs2214">
    <linearGradient id="linearGradient4652">
      <stop id="stop4654" style="stop-color:#ffcb05;stop-opacity:1" offset="0"/>
      <stop id="stop4656" style="stop-color:#d5a903;stop-opacity:1" offset="0.46083334"/>
      <stop id="stop4658" style="stop-color:#a18000;stop-opacity:1" offset="0.65833336"/>
      <stop id="stop4660" style="stop-color:#ffcb05;stop-opacity:1" offset="1"/>
    </linearGradient>
    <linearGradient id="linearGradient4629">
      <stop id="stop4631" style="stop-color:#000000;stop-opacity:1" offset="0"/>
      <stop id="stop4633" style="stop-color:#ef9232;stop-opacity:1" offset="1"/>
    </linearGradient>
    <linearGradient id="linearGradient4621">
      <stop id="stop4623" style="stop-color:#000000;stop-opacity:1" offset="0"/>
      <stop id="stop4625" style="stop-color:#000000;stop-opacity:0.34463301" offset="1"/>
    </linearGradient>
    <linearGradient id="linearGradient4507">
      <stop id="stop4509" style="stop-color:#ffcb05;stop-opacity:1" offset="0"/>
      <stop id="stop4517" style="stop-color:#d5a903;stop-opacity:1" offset="0.46083334"/>
      <stop id="stop4515" style="stop-color:#000000;stop-opacity:1" offset="0.65833336"/>
      <stop id="stop4511" style="stop-color:#ffcb05;stop-opacity:1" offset="1"/>
    </linearGradient>
    <linearGradient id="linearGradient4490">
      <stop id="stop4492" style="stop-color:#000000;stop-opacity:1" offset="0"/>
      <stop id="stop4494" style="stop-color:#000000;stop-opacity:0.423729" offset="1"/>
    </linearGradient>
    <linearGradient x1="82.460243" y1="187.44926" x2="95.175728" y2="187.44926" id="linearGradient3392" xlink:href="#linearGradient4652" gradientUnits="userSpaceOnUse"/>
    <linearGradient x1="83.99791" y1="172.53033" x2="94.223854" y2="172.53033" id="linearGradient3395" xlink:href="#linearGradient4652" gradientUnits="userSpaceOnUse"/>
    <linearGradient x1="94.907944" y1="166.56276" x2="79.945602" y2="169.05231" id="linearGradient3398" xlink:href="#linearGradient4629" gradientUnits="userSpaceOnUse" gradientTransform="translate(-0.146444,0.732218)"/>
    <linearGradient x1="94.907944" y1="166.56276" x2="82.874474" y2="170.22385" id="linearGradient3400" xlink:href="#linearGradient4621" gradientUnits="userSpaceOnUse" gradientTransform="translate(-0.146444,0.732218)"/>
    <linearGradient x1="91.953468" y1="29.227804" x2="89.261139" y2="26.639025" id="linearGradient3646" xlink:href="#linearGradient4490" gradientUnits="userSpaceOnUse" gradientTransform="translate(0.155293,0.170696)"/>
    <linearGradient x1="83.924683" y1="38.424686" x2="93.638069" y2="38.424686" id="linearGradient3655" xlink:href="#linearGradient4507" gradientUnits="userSpaceOnUse" gradientTransform="translate(0.155293,0.170696)"/>
  </defs>
  <rect width="8.7133894" height="18.305439" x="84.579979" y="29.442663" id="rect4486" style="fill:url(#linearGradient3655);fill-opacity:1;stroke:#000000;stroke-width:1;stroke-linecap:square;stroke-linejoin:bevel;stroke-miterlimit:4;stroke-opacity:1;stroke-dasharray:none;stroke-dashoffset:0"/>
  <path d="m 108.88405,8.8435862 c 0,0 8.10289,7.7404528 8.077,16.0504368 -0.0259,8.309984 -8.077,16.153987 -8.077,16.153987 0,0 1.13907,-6.47195 -3.83139,-9.940915 -4.97045,-3.468965 -16.050435,-3.934946 -16.050435,-3.934946 -5.178544,-0.180839 -13.461657,3.21008 -13.461657,3.21008 L 65.289,24.99757 75.540568,19.612911 c 0,0 7.973302,3.632044 13.461657,3.727844 0,0 11.157645,-1.139064 16.050435,-4.763356 4.89279,-3.624292 3.83139,-9.7338128 3.83139,-9.7338128 z" id="path14985" style="fill:#ffcd05;fill-opacity:1;fill-rule:evenodd;stroke:#000000;stroke-width:1px;stroke-linecap:butt;stroke-linejoin:miter;stroke-opacity:1"/>
  <path d="m 71.912615,25.342244 8.347281,0 -4.320084,2.562762 -4.027197,-2.562762 z" id="path14987" style="fill:#000000;fill-opacity:1;fill-rule:evenodd;stroke:none"/>
  <rect width="11.079979" height="10.458672" rx="1.6568191" ry="1.6568191" x="82.996254" y="20.234221" id="rect16931" style="fill:#ffcd05;fill-opacity:1;stroke:#000000;stroke-width:1;stroke-linecap:butt;stroke-linejoin:bevel;stroke-miterlimit:4;stroke-opacity:1;stroke-dasharray:none;stroke-dashoffset:0"/>
  <rect width="8.0769949" height="2.8994336" rx="1.4359101" ry="1.6568192" x="21.42506" y="-84.187088" transform="matrix(0,1,-1,0,0,0)" id="rect16929" style="fill:#ffcd05;fill-opacity:1;stroke:#000000;stroke-width:1;stroke-linecap:butt;stroke-linejoin:bevel;stroke-miterlimit:4;stroke-opacity:1;stroke-dasharray:none;stroke-dashoffset:0"/>
  <path d="m 86.827649,18.266746 -3.727843,-6.420175 5.591765,-10.3551202 5.074009,10.3551202 -3.106536,6.420175 -3.831395,0 z" id="path16933" style="fill:#ffcd05;fill-opacity:1;fill-rule:evenodd;stroke:#000000;stroke-width:1px;stroke-linecap:butt;stroke-linejoin:miter;stroke-opacity:1"/>
  <rect width="8.3876476" height="3.3136384" rx="1.6568192" ry="1.6568192" x="84.342422" y="17.024132" id="rect15958" style="fill:#ffcd05;fill-opacity:1;stroke:#000000;stroke-width:1;stroke-linecap:butt;stroke-linejoin:bevel;stroke-miterlimit:4;stroke-opacity:1;stroke-dasharray:none;stroke-dashoffset:0"/>
  <path d="m 87.39718,29.398501 4.71158,0 0,-5.17756 c -1.035512,2.692331 -2.847658,4.504477 -4.71158,5.17756 z" id="path4488" style="fill:url(#linearGradient3646);fill-opacity:1;fill-rule:evenodd;stroke:none"/>
  <path d="m 88.5625,35.57999 c -6.989157,-0.164691 -11.344006,1.447784 -16.25,4.82626 l 0,128.375 32.46875,0 0,-128.375 C 100.33412,36.690112 95.551657,35.744681 88.5625,35.57999 z" id="rect5159" style="fill:#ffcb05;fill-opacity:1;stroke:#000000;stroke-width:0.5;stroke-linecap:butt;stroke-linejoin:bevel;stroke-miterlimit:4;stroke-opacity:1;stroke-dasharray:none;stroke-dashoffset:0;display:inline"/>
  <path d="m 75.54874,38.500165 0,126.519395" id="path6162" style="fill:none;stroke:#000000;stroke-width:0.60000002;stroke-linecap:butt;stroke-linejoin:miter;stroke-miterlimit:4;stroke-opacity:1;stroke-dasharray:none"/>
  <path d="m 79.507626,36.718666 0,127.113224" id="path6164" style="fill:none;stroke:#000000;stroke-width:0.60000002;stroke-linecap:butt;stroke-linejoin:miter;stroke-miterlimit:4;stroke-opacity:1;stroke-dasharray:none"/>
  <path d="m 83.551819,35.864224 0,127.113226" id="path6166" style="fill:none;stroke:#000000;stroke-width:0.60000002;stroke-linecap:butt;stroke-linejoin:miter;stroke-miterlimit:4;stroke-opacity:1;stroke-dasharray:none"/>
  <path d="m 89.370144,35.633289 0,127.113221" id="path6168" style="fill:none;stroke:#000000;stroke-width:0.60000002;stroke-linecap:butt;stroke-linejoin:miter;stroke-miterlimit:4;stroke-opacity:1;stroke-dasharray:none"/>
  <path d="m 98.171381,36.85063 0,127.11322" id="path6172" style="fill:none;stroke:#000000;stroke-width:0.60000002;stroke-linecap:butt;stroke-linejoin:miter;stroke-miterlimit:4;stroke-opacity:1;stroke-dasharray:none"/>
  <path d="m 101.56943,38.269231 0,127.113219" id="path6174" style="fill:none;stroke:#000000;stroke-width:0.60000002;stroke-linecap:butt;stroke-linejoin:miter;stroke-miterlimit:4;stroke-opacity:1;stroke-dasharray:none"/>
  <path d="m 93.569176,35.959881 0,127.113219" id="path6170" style="fill:none;stroke:#000000;stroke-width:0.60000002;stroke-linecap:butt;stroke-linejoin:miter;stroke-miterlimit:4;stroke-opacity:1;stroke-dasharray:none"/>
  <path d="m 104.54235,161.21757 c -1.47179,-2.73217 -3.95092,-5.42545 -6.708223,-7.6478 -2.782427,-2.2426 -7.681837,-5.96785 -11.025525,-8.29514 -3.261592,-2.27015 -10.535518,-6.65893 -14.337368,-5.32426 l 0,-7.3954 c 5.276777,-0.81405 16.546435,7.72502 18.196044,8.65262 5.836276,4.26759 9.283846,7.6711 13.893382,13.23697 l -0.0183,6.77301 z" id="path10072" style="fill:#ef9232;fill-opacity:1;fill-rule:evenodd;stroke:#000000;stroke-width:0.69999999;stroke-linecap:butt;stroke-linejoin:miter;stroke-miterlimit:4;stroke-opacity:1;stroke-dasharray:none"/>
  <path d="m 72.48954,161.21757 c 1.471794,-2.73217 3.950919,-5.42545 6.708227,-7.6478 2.782427,-2.2426 7.681837,-5.96785 11.025525,-8.29514 3.261592,-2.27015 10.535518,-6.65893 14.337368,-5.32426 l 0,-7.3954 c -5.276777,-0.81405 -16.546435,7.72502 -18.196044,8.65262 -5.836276,4.26759 -9.283846,7.6711 -13.893382,13.23697 l 0.01831,6.77301 z" id="path9097" style="fill:#ef9232;fill-opacity:1;fill-rule:evenodd;stroke:#000000;stroke-width:0.69999999;stroke-linecap:butt;stroke-linejoin:miter;stroke-miterlimit:4;stroke-opacity:1;stroke-dasharray:none"/>
  <path d="m 72.48954,161.21757 c 2.196652,-1.90376 5.271966,-3.07531 8.054393,-3.66108 2.782427,-0.58578 6.077406,-1.17155 9.006276,-1.09833 2.928871,0.0732 4.612971,0.29289 7.102511,1.17155 2.489539,0.87866 5.19874,1.6841 6.51674,2.63598 1.31799,0.95188 1.3912,1.17155 1.3912,1.17155 l 0,-7.3954 c 0,0 -1.61087,-0.73222 -2.92886,-1.17155 -1.31799,-0.43933 -3.770921,-1.46444 -5.601465,-1.72071 -1.812864,-0.2538 -4.210251,-0.76883 -8.164226,-0.62238 -3.953975,0.14644 -8.933055,1.09832 -11.276151,1.97698 -2.343096,0.87867 -4.118724,1.94038 -4.118724,1.94038 l 0.01831,6.77301 z" id="path7149" style="fill:#ef9232;fill-opacity:1;fill-rule:evenodd;stroke:#000000;stroke-width:0.69999999;stroke-linecap:butt;stroke-linejoin:miter;stroke-miterlimit:4;stroke-opacity:1;stroke-dasharray:none"/>
  <path d="m 104.53494,159.44344 0.047,-1.34633 c 0,0 -2.22159,-1.81198 -5.431674,-2.84749 -3.210087,-1.03552 -4.763355,-0.98374 -4.763355,-0.98374 0,0 1.242614,0.25888 2.485229,0.67308 1.242614,0.41421 3.98672,1.96748 4.50448,2.27813 0.51775,0.31065 3.26186,2.27813 3.15831,2.22635 z" id="path8120" style="fill:#000000;fill-opacity:1;fill-rule:evenodd;stroke:none"/>
  <path d="m 76.265461,152.50551 c 1.190838,-1.55327 5.850642,-5.28111 5.850642,-5.28111 0,0 -1.967472,2.01925 -2.58878,2.84766 -0.621307,0.82841 -1.29439,1.91569 -1.29439,1.91569 l -1.967472,0.51776 z" id="path10074" style="fill:#000000;fill-opacity:1;fill-rule:evenodd;stroke:none"/>
  <path d="m 72.383276,134.47686 c 2.440237,0.26485 5.538019,2.61026 6.314653,4.11175 0,0 -2.577936,-1.76261 -3.570837,-2.0566 -0.992901,-0.294 -2.557155,-0.80526 -2.557155,-0.80526 l -0.186661,-1.24989 z" id="path11045" style="fill:#000000;fill-opacity:1;fill-rule:evenodd;stroke:none"/>
  <path d="m 89.986981,146.43703 c 1.094071,0.1613 1.732548,0.10112 2.884519,0.94049 1.127835,0.82178 1.421729,0.94267 1.982096,2.25372 -0.939185,-0.96351 -2.026527,-1.68942 -2.414772,-1.9961 -0.380325,-0.30043 -2.451843,-1.19811 -2.451843,-1.19811 z" id="path11047" style="fill:#000000;fill-opacity:1;fill-rule:evenodd;stroke:none"/>
  <path d="m 92.598788,145.925 c 1.063522,0.3032 2.325688,0.48249 3.357806,1.4655 1.010494,0.96241 1.078922,1.69028 1.462756,3.06343 -0.804906,-1.07822 -1.580709,-2.50981 -1.925445,-2.8647 -0.337702,-0.34765 -2.895117,-1.66423 -2.895117,-1.66423 z" id="path11049" style="fill:#000000;fill-opacity:1;fill-rule:evenodd;stroke:none"/>
  <path d="M 104.48457,78.4049 C 103.01278,75.67273 100.53365,72.97945 97.776347,70.7571 94.99392,68.5145 90.09451,64.78925 86.750822,62.46196 83.48923,60.19181 76.215304,55.803032 72.413454,57.1377 l 0,-7.395398 c 5.276777,-0.81405 16.546435,7.725018 18.196044,8.652618 5.836276,4.26759 9.283846,7.6711 13.893382,13.23697 l -0.0183,6.77301 z" id="path11066" style="fill:#ef9232;fill-opacity:1;fill-rule:evenodd;stroke:#000000;stroke-width:0.69999999;stroke-linecap:butt;stroke-linejoin:miter;stroke-miterlimit:4;stroke-opacity:1;stroke-dasharray:none"/>
  <path d="m 72.43176,78.58257 c 1.471794,-2.73217 3.950919,-5.42545 6.708227,-7.6478 2.782427,-2.2426 7.681837,-5.96785 11.025525,-8.29514 3.261592,-2.27015 10.535518,-6.658933 14.337368,-5.32426 l 0,-7.395403 C 99.226103,49.105917 87.956445,57.64499 86.306836,58.57259 80.47056,62.84018 77.02299,66.24369 72.413454,71.80956 l 0.01831,6.77301 z" id="path11068" style="fill:#ef9232;fill-opacity:1;fill-rule:evenodd;stroke:#000000;stroke-width:0.69999999;stroke-linecap:butt;stroke-linejoin:miter;stroke-miterlimit:4;stroke-opacity:1;stroke-dasharray:none"/>
  <path d="m 72.43154,53.83902 c 2.196652,-1.90376 5.271966,-3.58786 8.054393,-4.17363 2.782427,-0.58578 6.077406,-1.17155 9.006276,-1.09833 2.928871,0.0732 4.612971,0.29289 7.102511,1.17155 2.489539,0.87866 5.19874,1.6841 6.51674,2.63598 1.31799,0.95188 1.3912,1.17155 1.3912,1.17155 l 0,-7.3954 c 0,0 -1.61087,-0.73222 -2.92886,-1.17155 -1.31799,-0.43933 -3.770921,-1.46444 -5.601465,-1.72071 -1.812864,-0.2538 -4.210251,-0.76883 -8.164226,-0.62238 -3.953975,0.14644 -8.933055,1.09832 -11.276151,1.97698 -2.343096,0.87867 -4.118724,1.94038 -4.118724,1.94038 l 0.01831,7.28556 z" id="path11072" style="fill:#ef9232;fill-opacity:1;fill-rule:evenodd;stroke:#000000;stroke-width:0.69999999;stroke-linecap:butt;stroke-linejoin:miter;stroke-miterlimit:4;stroke-opacity:1;stroke-dasharray:none"/>
  <path d="m 104.47694,51.55234 0.047,-1.34633 c 0,0 -2.22159,-1.81198 -5.431674,-2.84749 -3.210087,-1.03552 -4.763355,-0.98374 -4.763355,-0.98374 0,0 1.242614,0.25888 2.485229,0.67308 1.242614,0.41421 3.98672,1.96748 4.50448,2.27813 0.51775,0.31065 3.26186,2.27813 3.15831,2.22635 z" id="path11074" style="fill:#000000;fill-opacity:1;fill-rule:evenodd;stroke:none"/>
  <path d="m 74.335527,52.557624 c 1.574268,0 5.198745,1.354603 5.198745,1.354603 -0.549163,-0.878661 -2.306486,-1.757322 -4.320084,-2.160042 l -0.878661,0.805439 z" id="path11093" style="fill:#000000;fill-opacity:1;fill-rule:evenodd;stroke:none"/>
  <path d="m 72.468372,55.156996 c 1.574268,0 5.198745,1.354603 5.198745,1.354603 -0.549163,-0.878661 -3.075314,-1.867155 -5.088912,-2.269875 l -0.109833,0.915272 z" id="path12064" style="fill:#000000;fill-opacity:1;fill-rule:evenodd;stroke:none"/>
  <path d="m 76.133388,49.316735 c 0,0 3.019558,-1.277999 6.527355,-2.054633 3.507797,-0.776634 7.503833,-1.051903 7.503833,-1.051903 0,0 -4.258543,-0.621308 -7.76634,0.155326 -3.507797,0.776634 -6.264848,2.95121 -6.264848,2.95121 z" id="path12066" style="fill:#000000;fill-opacity:1;fill-rule:evenodd;stroke:none"/>
  <path d="m 88.5625,162.78125 c -8.959788,0 -16.250002,2.58224 -16.25,5.75 0,3.16775 7.290211,5.74999 16.25,5.75 8.959788,0 16.21875,-2.58226 16.21875,-5.75 0,-3.16775 -7.258963,-5.75001 -16.21875,-5.75 z" id="path6152" style="fill:#ef9232;fill-opacity:1;stroke:#000000;stroke-width:0.5;stroke-linecap:butt;stroke-linejoin:bevel;stroke-miterlimit:4;stroke-opacity:1;stroke-dasharray:none;stroke-dashoffset:0"/>
  <path d="m 99.215477,168.6862 a 10.177824,2.4895396 0 0 1 -20.355648,0 10.177824,2.4895396 0 1 1 20.355648,0 z" id="path4619" style="fill:url(#linearGradient3398);fill-opacity:1;stroke:url(#linearGradient3400);stroke-width:1;stroke-linecap:square;stroke-linejoin:bevel;stroke-miterlimit:4;stroke-opacity:1;stroke-dasharray:none;stroke-dashoffset:0"/>
  <path d="m 84.49791,167.00209 c 0,0 2.306486,-0.73222 4.612971,-0.73222 2.306485,0 4.61297,0.73222 4.61297,0.73222 l 0,11.7887 -9.225941,0 0,-11.7887 z" id="rect4614" style="fill:url(#linearGradient3395);fill-opacity:1;stroke:#000000;stroke-width:1;stroke-linecap:square;stroke-linejoin:bevel;stroke-miterlimit:4;stroke-opacity:1;stroke-dashoffset:0"/>
  <path d="m 82.960245,177.76569 c 0.878661,-1.31799 2.928871,-1.64749 5.857741,-1.64749 2.928869,0 4.539747,0.40272 5.857739,1.64749 l 0,17.28033 c 0,1.50817 -2.92887,3.73431 -5.857739,3.73431 -2.928871,0 -5.857741,-2.23326 -5.857741,-3.73431 l 0,-17.28033 z" id="rect4637" style="fill:url(#linearGradient3392);fill-opacity:1;stroke:#000000;stroke-width:1;stroke-linecap:square;stroke-linejoin:bevel;stroke-miterlimit:4;stroke-opacity:1;stroke-dashoffset:0"/>
  <path d="m 82.887029,184.64854 c 3.148536,-4.17364 11.495816,-5.19875 11.495816,-5.19875" id="path4640" style="fill:none;stroke:#000000;stroke-width:1px;stroke-linecap:butt;stroke-linejoin:miter;stroke-opacity:1"/>
  <path d="m 88.598326,180.841 c 3.73431,0.51255 5.125523,1.90377 6.077406,3.07532" id="path4642" style="fill:none;stroke:#000000;stroke-width:1px;stroke-linecap:butt;stroke-linejoin:miter;stroke-opacity:1"/>
  <path d="m 40.358221,90.864354 c 0,0 0.585774,2.050209 4.393303,4.539748 3.80753,2.48954 8.64017,4.979078 11.27615,5.418408 2.63599,0.43933 8.0544,0.73221 10.54394,0.14644 2.48954,-0.58577 14.937231,-13.253132 14.937231,-13.253132 l 12.74059,0 c 0,0 4.686189,8.713389 9.079495,10.763598 4.39331,2.050204 10.98326,3.514634 15.52301,2.782424 4.53975,-0.73222 17.28034,-5.711294 17.28034,-5.711294 0,0 0.14644,2.196653 -2.05021,6.589954 -2.19665,4.3933 -5.41841,10.25104 -11.12971,14.93724 -5.7113,4.68619 -12.59414,8.34728 -19.33054,10.39749 -6.736406,2.05021 -15.376566,3.22175 -20.355646,2.63598 -4.97908,-0.58577 -10.10461,-1.31799 -16.54812,-4.68619 -6.44351,-3.3682 -11.86192,-5.7113 -16.69456,-11.27615 -4.83264,-5.56486 -8.786612,-10.69038 -9.372386,-14.790793 -0.585774,-4.100418 -0.146443,-8.493723 -0.292887,-8.493723 z" id="path4240" style="fill:#ef9232;fill-opacity:1;fill-rule:evenodd;stroke:none"/>
  <path d="m 48.638773,96.48954 0,16.10879" id="path4670" style="fill:none;stroke:#000000;stroke-width:0.60000002;stroke-linecap:butt;stroke-linejoin:miter;stroke-miterlimit:4;stroke-opacity:1;stroke-dasharray:none"/>
  <path d="m 51.650629,98.100419 0,17.866111" id="path5641" style="fill:none;stroke:#000000;stroke-width:0.60000002;stroke-linecap:butt;stroke-linejoin:miter;stroke-miterlimit:4;stroke-opacity:1;stroke-dasharray:none"/>
  <path d="m 54.662485,98.832637 0,19.623433" id="path5643" style="fill:none;stroke:#000000;stroke-width:0.60000002;stroke-linecap:butt;stroke-linejoin:miter;stroke-miterlimit:4;stroke-opacity:1;stroke-dasharray:none"/>
  <path d="m 57.674341,100.00419 0,20.13598" id="path5645" style="fill:none;stroke:#000000;stroke-width:0.60000002;stroke-linecap:butt;stroke-linejoin:miter;stroke-miterlimit:4;stroke-opacity:1;stroke-dasharray:none"/>
  <path d="m 60.686197,100.51674 0,21.38075" id="path5647" style="fill:none;stroke:#000000;stroke-width:0.60000002;stroke-linecap:butt;stroke-linejoin:miter;stroke-miterlimit:4;stroke-opacity:1;stroke-dasharray:none"/>
  <path d="m 45.626917,95.171548 0,14.424692" id="path5649" style="fill:none;stroke:#000000;stroke-width:0.60000002;stroke-linecap:butt;stroke-linejoin:miter;stroke-miterlimit:4;stroke-opacity:1;stroke-dasharray:none"/>
  <path d="m 42.615063,93.194561 0,12.301259" id="path5651" style="fill:none;stroke:#000000;stroke-width:0.60000002;stroke-linecap:butt;stroke-linejoin:miter;stroke-miterlimit:4;stroke-opacity:1;stroke-dasharray:none"/>
  <path d="m 63.698053,100.51674 0,23.28452" id="path5653" style="fill:none;stroke:#000000;stroke-width:0.60000002;stroke-linecap:butt;stroke-linejoin:miter;stroke-miterlimit:4;stroke-opacity:1;stroke-dasharray:none"/>
  <path d="m 66.709909,100.51674 0,24.74896" id="path5655" style="fill:none;stroke:#000000;stroke-width:0.60000002;stroke-linecap:butt;stroke-linejoin:miter;stroke-miterlimit:4;stroke-opacity:1;stroke-dasharray:none"/>
  <path d="m 69.721765,99.345192 0,27.531388" id="path5657" style="fill:none;stroke:#000000;stroke-width:0.60000002;stroke-linecap:butt;stroke-linejoin:miter;stroke-miterlimit:4;stroke-opacity:1;stroke-dasharray:none"/>
  <path d="m 72.733621,96.416322 0,31.631808" id="path5659" style="fill:none;stroke:#000000;stroke-width:0.60000002;stroke-linecap:butt;stroke-linejoin:miter;stroke-miterlimit:4;stroke-opacity:1;stroke-dasharray:none"/>
  <path d="m 126.94703,98.027197 0,14.571133" id="path5688" style="fill:none;stroke:#000000;stroke-width:0.60000002;stroke-linecap:butt;stroke-linejoin:miter;stroke-miterlimit:4;stroke-opacity:1;stroke-dasharray:none"/>
  <path d="m 123.93517,98.97908 0,16.98745" id="path5690" style="fill:none;stroke:#000000;stroke-width:0.60000002;stroke-linecap:butt;stroke-linejoin:miter;stroke-miterlimit:4;stroke-opacity:1;stroke-dasharray:none"/>
  <path d="m 120.92332,99.930963 0,18.525107" id="path5692" style="fill:none;stroke:#000000;stroke-width:0.60000002;stroke-linecap:butt;stroke-linejoin:miter;stroke-miterlimit:4;stroke-opacity:1;stroke-dasharray:none"/>
  <path d="m 117.91146,100.44352 0,19.69665" id="path5694" style="fill:none;stroke:#000000;stroke-width:0.60000002;stroke-linecap:butt;stroke-linejoin:miter;stroke-miterlimit:4;stroke-opacity:1;stroke-dasharray:none"/>
  <path d="m 114.89961,101.10251 0,20.79498" id="path5696" style="fill:none;stroke:#000000;stroke-width:0.60000002;stroke-linecap:butt;stroke-linejoin:miter;stroke-miterlimit:4;stroke-opacity:1;stroke-dasharray:none"/>
  <path d="m 129.95889,97.221757 0,12.374483" id="path5698" style="fill:none;stroke:#000000;stroke-width:0.60000002;stroke-linecap:butt;stroke-linejoin:miter;stroke-miterlimit:4;stroke-opacity:1;stroke-dasharray:none"/>
  <path d="m 132.97074,96.123431 0,9.372389" id="path5700" style="fill:none;stroke:#000000;stroke-width:0.60000002;stroke-linecap:butt;stroke-linejoin:miter;stroke-miterlimit:4;stroke-opacity:1;stroke-dasharray:none"/>
  <path d="m 111.88775,100.88285 0,22.91841" id="path5702" style="fill:none;stroke:#000000;stroke-width:0.60000002;stroke-linecap:butt;stroke-linejoin:miter;stroke-miterlimit:4;stroke-opacity:1;stroke-dasharray:none"/>
  <path d="m 108.87589,100.51674 0,24.74896" id="path5704" style="fill:none;stroke:#000000;stroke-width:0.60000002;stroke-linecap:butt;stroke-linejoin:miter;stroke-miterlimit:4;stroke-opacity:1;stroke-dasharray:none"/>
  <path d="m 105.86404,99.345192 0,27.531388" id="path5706" style="fill:none;stroke:#000000;stroke-width:0.60000002;stroke-linecap:butt;stroke-linejoin:miter;stroke-miterlimit:4;stroke-opacity:1;stroke-dasharray:none"/>
  <path d="m 102.85218,98.100422 0,29.947708" id="path5708" style="fill:none;stroke:#000000;stroke-width:0.60000002;stroke-linecap:butt;stroke-linejoin:miter;stroke-miterlimit:4;stroke-opacity:1;stroke-dasharray:none"/>
  <path d="m 88.5625,61.59375 -7.625,7.625 2.1875,2.1875 L 88.5625,66 94,71.40625 l 2.1875,-2.1875 -7.625,-7.625 z" id="rect4519" style="fill:#ffcb05;fill-opacity:1;stroke:#000000;stroke-width:1;stroke-linecap:square;stroke-linejoin:bevel;stroke-miterlimit:4;stroke-opacity:1;stroke-dasharray:none;stroke-dashoffset:0"/>
  <path d="m 123.01883,53.821217 c 1.00099,-0.207105 2.00199,-0.414203 3.00298,-0.621308 1.52752,0.596438 3.0769,1.139067 4.64108,1.628054 0.68714,0.376086 1.22604,0.966072 1.86888,1.409399 0.71494,0.498255 1.29092,1.197393 1.65509,1.986627 0.0678,0.610185 0.73281,1.435836 0.0516,1.904497 -0.58341,0.386735 -0.94787,1.222089 -1.6299,1.366584 -1.27332,0.04899 -2.54812,0.19451 -3.82148,0.161399 -1.1378,-0.18635 -2.28759,-0.298584 -3.4315,-0.423721 -0.58178,-0.203394 -1.40859,-0.236964 -1.82706,-0.582005 -0.16989,-2.276509 -0.33978,-4.553018 -0.50966,-6.829526 z" id="path4440" style="fill:#ffcb05;fill-opacity:1;fill-rule:evenodd;stroke:#000000;stroke-width:1px;stroke-linecap:butt;stroke-linejoin:miter;stroke-opacity:1"/>
  <path d="m 150.8741,34.042934 c 0.79327,-0.82926 1.36271,-1.924365 2.31289,-2.571937 0.74217,-0.275434 1.22868,-0.890912 1.75006,-1.448303 0.75689,-0.600391 0.85765,-1.662104 1.50493,-2.321824 0.50482,-0.789992 1.51009,-0.306672 1.46455,0.548507 0.0652,0.847491 0.70885,1.421859 1.17597,2.068562 0.48172,0.723102 1.09128,1.332711 1.83431,1.784113 0.85617,0.529764 1.0729,1.773974 0.66942,2.658834 -0.17597,1.081135 -1.90296,0.84344 -1.96493,2.103951 -0.29401,0.991258 0.21667,2.049646 0.0547,3.080517 -0.66126,0.431215 -1.43007,0.750353 -1.86603,1.449085 -0.73151,0.993411 -1.76305,1.671133 -2.75346,2.373245 -0.77772,0.564937 -1.18006,1.380618 -1.05681,2.341652 -0.39251,0.850968 -1.30279,1.658825 -2.00857,2.212865 -0.771,-0.124525 -1.74513,0.137509 -2.35591,-0.412221 0.004,-1.281909 -0.0237,-2.58543 -0.12388,-3.872514 -0.2735,-1.123417 -0.96535,-2.190302 -0.88377,-3.366356 0.093,-1.829703 0.18607,-3.659407 0.27911,-5.489111 0.65582,-0.37969 1.31165,-0.759376 1.96747,-1.139065 z" id="path4387" style="fill:#ffcb05;fill-opacity:1;fill-rule:evenodd;stroke:#000000;stroke-width:1px;stroke-linecap:butt;stroke-linejoin:miter;stroke-opacity:1"/>
  <path d="m 152.08159,39.376572 c 0.50062,-0.511484 1.0067,-1.020336 1.57999,-1.45139 0.34048,-0.289771 0.65573,-0.60805 1.00152,-0.891708 0.28549,-0.04728 0.67373,0.133286 0.86093,-0.176362 0.49889,-0.600801 0.96574,-1.227083 1.44462,-1.843706 0.27073,0.227174 0.23202,0.600652 0.15251,0.903319 -0.0487,0.35878 -0.42585,0.475419 -0.66543,0.681707 -0.33821,0.199254 -0.64604,0.447165 -0.56616,0.885498 0.0267,0.510651 -0.56883,0.376793 -0.87585,0.550085 -0.39923,0.217783 -0.78801,0.476557 -1.07088,0.841168 -0.48109,0.554551 -0.94247,1.126021 -1.39433,1.704766 -0.30694,0.132342 -0.65178,0.132736 -0.97782,0.185392 -0.512,0.04518 -1.02662,0.04204 -1.5393,0.07566 -0.0227,-0.297979 -0.33599,-0.818625 0.1839,-0.842333 0.6221,-0.207366 1.2442,-0.414732 1.8663,-0.622098 z" id="path4389" style="fill:#000000;fill-opacity:1;fill-rule:evenodd;stroke:none"/>
  <path d="m 49.083271,91.306747 c 2.414788,-1.544046 4.938405,-3.192793 7.858499,-3.494132 1.688588,0.01696 3.371813,0.200182 5.062713,0.198434 1.272782,-0.03671 2.479018,0.373803 3.629059,0.877757 3.6993,1.427286 7.398597,2.854576 11.097896,4.281864 -1.380682,2.140057 -2.761363,4.280115 -4.142044,6.420173 -7.214068,-1.27713 -14.428137,-2.55426 -21.642205,-3.83139 -0.621306,-1.484235 -1.242613,-2.968472 -1.863918,-4.452706 z" id="path4344" style="fill:#ffcb05;fill-opacity:1;fill-rule:evenodd;stroke:#000000;stroke-width:1px;stroke-linecap:butt;stroke-linejoin:miter;stroke-opacity:1"/>
  <path d="m 147.46861,101.54184 c 1.45635,-0.47063 2.58907,-2.221701 4.30214,-1.572583 1.56345,0.210343 2.57756,2.519643 4.24562,1.675393 1.20934,-0.89732 2.91918,-1.02626 4.22926,-0.29586 1.13502,1.03906 2.35701,2.09949 4.02445,1.96142 1.4654,-0.0876 2.49717,1.27995 2.61824,2.62687 0.50603,1.31182 -0.19553,2.62011 -1.24351,3.40395 -0.92147,1.28611 -2.5019,1.64984 -3.98166,1.3277 -1.49989,-0.35601 -2.68604,0.70982 -3.68417,1.66037 -1.16839,1.08751 -3.05851,0.89038 -4.14025,-0.22355 -0.91247,-1.13216 -3.16489,-1.12395 -3.45972,0.52056 -0.11596,1.48364 1.17871,3.12309 0.11964,4.4816 -1.07585,0.90194 -2.22469,1.72972 -3.2341,2.67383 -1.35919,0.55479 -2.81554,-0.22015 -3.60425,-1.34526 -0.59736,-1.36483 -2.10726,-1.49549 -3.00591,-2.59356 -0.71347,-1.4382 -2.26327,-2.22393 -2.93683,-3.64948 0.0823,-1.26194 1.12207,-2.32175 1.58526,-3.50679 1.46528,-2.81441 2.88985,-5.64981 4.35827,-8.4626 1.18085,0.82054 2.53553,1.70741 4.04344,1.45055 l -0.009,-0.0301 -0.2266,-0.10248 0,0 z" id="path8173" style="fill:#ffdb07;fill-opacity:1;fill-rule:evenodd;stroke:#000000;stroke-width:1px;stroke-linecap:butt;stroke-linejoin:miter;stroke-opacity:1"/>
  <path d="m 145.12552,105.20293 c 0.67034,-0.1899 1.33155,-0.41187 2.00747,-0.58196 1.21027,0.15289 2.42461,0.34459 3.64846,0.29984 0.65499,-0.12849 0.19211,-1.1901 0.82244,-1.28859 0.67342,0.33281 -0.0598,1.29198 0.35529,1.81167 0.55892,0.42252 1.30035,0.13536 1.93431,0.31147 0.6241,0.0589 1.25081,0.0907 1.87769,0.0931 0.23698,-0.16787 0.53684,-1.14247 0.70799,-0.41227 0.30737,0.7504 1.2523,0.44454 1.87647,0.55419 0.45443,0.0765 1.27684,-0.1129 1.44779,0.27773 -0.3769,0.58103 -1.21382,0.22897 -1.79223,0.36209 -0.50365,-0.0459 -1.11614,0.28694 -0.86351,0.84346 -0.35494,0.65316 -1.02365,-0.14033 -1.0084,-0.58357 -0.52561,-0.4826 -1.29095,-0.22875 -1.9275,-0.34697 -0.70713,-0.056 -1.41377,-0.14104 -2.12426,-0.13263 -0.52334,0.43156 -1.37212,0.45349 -1.86016,-0.0454 -0.41542,-0.27803 -1.33623,-0.67309 -1.49165,0.07 0.23524,0.45641 -0.45749,1.41815 -0.71083,0.65872 0.0225,-0.62168 -0.44646,-1.25795 -1.10282,-0.9968 -0.70627,-0.0406 -1.23072,-0.53939 -1.79655,-0.89405 z" id="path8178" style="fill:#000000;fill-opacity:1;fill-rule:evenodd;stroke:none"/>
  <path d="m 150.71877,112.48297 c -0.86675,-0.34995 -1.738,-0.68871 -2.60193,-1.04563 -0.61815,-0.50337 -1.3327,-0.91714 -1.79369,-1.5862 -0.24339,-0.2963 -0.48677,-0.59261 -0.73016,-0.88891 -0.36243,-0.20711 -0.72485,-0.41421 -1.08728,-0.62131 -0.31768,-0.006 -0.20544,0.42658 0.0525,0.41652 0.44234,0.30997 0.93289,0.58994 1.22401,1.06252 0.58733,0.76479 1.21842,1.49525 1.84034,2.23094 0.35249,0.47988 0.97781,0.57879 1.47978,0.83401 0.45253,0.19393 0.90504,0.38786 1.35756,0.5818 0.0863,-0.32791 0.17259,-0.65584 0.25887,-0.98374 z" id="path8188" style="fill:#000000;fill-opacity:1;fill-rule:evenodd;stroke:none"/>
  <path d="m 26.560883,66.299133 c 0.390216,1.69619 1.18612,3.261469 2.157018,4.695301 1.054406,1.782477 2.097962,3.661726 3.84248,4.867007 0.589103,0.499233 1.356129,0.899593 1.911543,1.358267 -0.773091,3.470325 -1.546183,6.940651 -2.319275,10.410976 -1.708595,-1.536011 -3.417191,-3.072022 -5.125786,-4.608032 -0.548784,-2.435647 -1.183555,-4.866453 -1.445557,-7.353819 0.0099,-2.210166 -0.08573,-4.430162 0.132501,-6.632545 0.198253,-0.936151 0.567056,-1.825527 0.847076,-2.737155 z" id="path8081" style="fill:#ffcb05;fill-opacity:1;fill-rule:evenodd;stroke:#000000;stroke-width:1px;stroke-linecap:butt;stroke-linejoin:miter;stroke-opacity:1"/>
  <path d="m 31.634892,80.848079 c 0,0 -1.605044,-0.517756 -2.174575,-1.708595 -0.569532,-1.190839 -1.139063,-4.090272 -1.139063,-4.090272 0,0 1.087287,2.485229 1.76037,3.417189 0.673083,0.931961 2.174575,1.242615 2.174575,1.242615 l -0.621307,1.139063 z" id="path8079" style="fill:#000000;fill-opacity:1;fill-rule:evenodd;stroke:none"/>
  <path d="m 32.618628,147.74216 c -1.567263,0.23061 -2.272921,0.42155 -3.002984,0.72485 -1.242615,1.03552 -1.65682,1.13907 -1.65682,2.79589 0,1.65682 0.103552,3.83139 1.449717,3.93494 1.346166,0.10355 3.727843,0 5.695316,-0.93196 1.967473,-0.93196 8.284096,-6.21307 9.42316,-6.21307 1.139063,0 1.967472,0 2.381677,0.82841 0.414205,0.82841 0.207103,1.44972 1.139064,2.58878 0.93196,1.13906 2.692331,0.82841 4.245599,1.13906 1.553268,0.31066 2.071024,1.65682 3.520741,1.86392 1.449716,0.20711 1.656819,1.03552 2.071024,1.44972 0.414204,0.4142 1.242614,1.13906 2.795882,0.72486 1.553268,-0.41421 2.795883,-3.00299 2.692331,-4.97046 -0.103551,-1.96747 -0.621307,-2.69233 -1.346165,-3.41719 -0.724859,-0.72486 -1.449717,-1.13906 -0.82841,-1.96747 0.621307,-0.82841 1.035512,-1.03551 2.071024,-0.41421 1.035512,0.62131 0.621307,1.96748 1.656819,2.27813 1.035512,0.31065 3.313639,0.93196 4.452702,0.4142 1.139063,-0.51775 3.106536,-0.93196 3.831394,-0.93196 0.724859,0 5.177561,-4.8669 5.177561,-4.8669 l -1.967473,-3.41719 c 0,0 -0.103551,-0.62131 -1.863922,-1.13907 -1.76037,-0.51775 -4.038497,-0.51775 -4.659804,-0.51775 -0.621307,0 -1.035512,1.13906 -1.656819,0.31065 -0.621307,-0.82841 0.414204,-1.2426 -0.724859,-1.44971 -1.139063,-0.20711 -2.485228,0.31065 -3.313638,0.82841 -0.82841,0.51775 -2.174575,1.34616 -4.245599,1.34616 -2.071024,0 -1.863922,-0.31065 -1.863922,-0.31065 0,0 0.931961,-1.03551 1.553268,-1.44972 0.621307,-0.4142 2.692331,-0.72486 4.245599,-0.62131 1.553268,0.10355 2.485229,-0.72486 2.381678,-2.17457 -0.103551,-1.44972 -1.242614,-2.69233 -1.863922,-3.41719 -0.621307,-0.72486 -2.381677,-0.93196 -3.313638,-0.72486 -0.931961,0.2071 -2.485229,1.34617 -2.899434,2.38168 -0.414205,1.03551 -2.58878,1.34616 -3.727843,1.96747 -1.139063,0.62131 -3.727843,2.58878 -3.727843,2.58878 0,0 0.517756,-0.31065 1.553268,-1.76037 1.035512,-1.44972 2.381677,-3.10654 3.106536,-4.4527 0.724858,-1.34617 0.103551,-2.17458 -0.103551,-3.8314 -0.207103,-1.65682 -2.381678,-4.14204 -2.795883,-4.55625 -0.414205,-0.4142 -3.002985,-1.13906 -3.417189,-0.2071 -0.414205,0.93196 -0.724859,2.38168 -1.035512,3.62429 -0.310654,1.24261 -0.82841,2.17458 -1.553269,3.10654 -0.724858,0.93196 -1.967472,4.03849 -1.967472,4.03849 0,0 0.517756,-1.03551 0.621307,-2.17457 0.103551,-1.13907 -0.103551,-2.48523 -0.517756,-3.93495 -0.414205,-1.44971 -1.449717,-2.69233 -3.106536,-4.14205 -1.656819,-1.44971 -3.313639,-2.69233 -4.556253,-3.10653 -1.242614,-0.41421 -1.967473,0.31065 -2.381678,1.13906 -0.414204,0.82841 0,1.96747 0.103552,3.00299 0.103551,1.03551 -0.82841,2.17457 -0.82841,3.41719 0,1.24261 0.517756,2.17457 0.517756,2.17457 0,0 -0.931961,-0.51775 -1.967473,-0.72486 -1.035512,-0.2071 -1.863922,0.20711 -3.002985,-0.2071 -1.139063,-0.4142 -1.967473,-1.86392 -2.899433,-2.07102 -0.931961,-0.20711 -2.278127,1.03551 -2.899434,2.38167 -0.621307,1.34617 -0.517756,3.10654 0.414205,4.0385 0.931961,0.93196 1.656819,0.41421 3.210087,1.34617 1.553268,0.93196 -0.310654,1.76037 1.449717,2.58878 1.76037,0.82841 2.381677,0.10355 3.106536,0.93196 0.724858,0.82841 0.517756,1.44971 1.553268,2.48523 1.035512,1.03551 1.346166,-0.31066 2.58878,-0.20711 1.242614,0.10356 0.310654,0.72486 0.310654,1.55327 0,0.82841 1.967472,1.03551 3.210087,0.72486 1.242614,-0.31065 1.863921,-0.31065 3.002985,1.24261 1.139063,1.55327 0,1.44972 -0.82841,2.48523 -0.82841,1.03552 -4.970458,1.13907 -9.008955,1.86393 z" id="path2203" style="fill:#ffd304;fill-opacity:1;fill-rule:evenodd;stroke:#000000;stroke-width:1px;stroke-linecap:butt;stroke-linejoin:miter;stroke-opacity:1"/>
  <path d="m 36.864228,135.21246 c -1.397941,-0.46598 -3.002985,-0.67308 -3.624292,-1.19084 -0.621308,-0.51775 -1.397942,-1.29439 -1.035512,-1.65682 0.362429,-0.36243 1.139063,0.25888 2.071024,0.72486 0.931961,0.46598 2.847658,0.98374 2.847658,0.98374 0,0 0.258878,-1.60505 -0.465981,-2.27813 -0.724858,-0.67308 -1.449716,-1.24261 -1.397941,-1.55327 0.05178,-0.31065 1.346166,0.25888 1.397941,0.56953 0.05178,0.31066 0.82841,1.13907 0.880186,1.60505 0.05177,0.46598 0.46598,2.07102 0.621307,2.3299 0.155327,0.25888 1.553268,1.55327 1.553268,1.9157 0,0.36243 -0.310654,0.51775 -0.776634,0.36243 -0.465981,-0.15533 -0.569532,-1.19084 -1.087288,-1.44972 -0.517756,-0.25888 -0.880185,-0.25888 -0.983736,-0.36243 z" id="path2210" style="fill:#000000;fill-opacity:1;fill-rule:evenodd;stroke:none"/>
  <path d="m 40.074315,125.94463 c 0,1.65682 0,3.05476 0.258878,3.77962 0.258878,0.72485 0.931961,2.38167 0.931961,2.84765 0,0.46598 0.776634,1.08729 0.724858,1.44972 -0.05177,0.36243 -0.155327,0.93196 -0.569531,0.41421 -0.414205,-0.51776 -0.569532,-2.07103 -0.983737,-2.69234 -0.414205,-0.6213 -1.139063,-3.00298 -1.863921,-3.98672 -0.724859,-0.98373 -1.65682,-1.60504 -1.812146,-2.1228 -0.155327,-0.51775 0.258878,-1.08728 0.517756,-0.82841 0.258878,0.25888 0.673082,1.29439 1.139063,0.72486 0.46598,-0.56953 0.569531,-1.34616 1.035512,-1.24261 0.46598,0.10355 0.569531,0.36243 0.673083,0.67308 0.103551,0.31065 -0.05178,1.03551 -0.05178,0.98374 z" id="path3183" style="fill:#000000;fill-opacity:1;fill-rule:evenodd;stroke:none"/>
  <path d="m 48.461962,131.69172 c 0.82841,-1.03551 1.760371,-2.3299 1.915698,-2.89943 0.155326,-0.56954 0.207102,-1.03552 0.414204,-0.88019 0.207103,0.15533 0.310654,0.31065 0,1.24261 -0.310653,0.93197 -0.776634,2.32991 -1.346165,3.21009 -0.569532,0.88019 -1.501493,1.55327 -1.708595,1.24262 -0.207102,-0.31066 -0.103551,-0.67309 0.155327,-1.19084 0.258878,-0.51776 0.673083,-0.67309 0.569531,-0.72486 z" id="path3185" style="fill:#000000;fill-opacity:1;fill-rule:evenodd;stroke:none"/>
  <path d="m 67.631392,143.75671 c -1.490055,-0.72443 -2.747287,-1.33566 -3.512379,-1.41977 -0.765082,-0.0841 -2.549434,-0.2032 -2.968511,-0.40694 -0.419078,-0.20375 -1.317423,0.22306 -1.620735,0.018 -0.303312,-0.20503 -0.77024,-0.54718 -0.123499,-0.69331 0.646752,-0.14613 2.111594,0.39332 2.851473,0.29247 0.739869,-0.10086 3.198759,0.2886 4.400417,0.0668 1.201649,-0.22178 2.16791,-0.78827 2.701469,-0.70158 0.533552,0.0867 0.864651,0.70822 0.518646,0.82785 -0.346014,0.11963 -1.458401,0.0394 -1.14994,0.70748 0.308461,0.6681 0.961644,1.1008 0.664772,1.4746 -0.29687,0.3738 -0.57497,0.35374 -0.899628,0.31104 -0.324659,-0.0427 -0.908644,-0.49933 -0.862085,-0.47669 z" id="path4156" style="fill:#000000;fill-opacity:1;fill-rule:evenodd;stroke:none"/>
  <path d="m 48.047758,143.03058 c 0.828409,1.03551 1.397941,0.82841 1.915697,1.50149 0.517756,0.67308 1.501492,1.9157 2.795882,2.27812 1.29439,0.36243 2.58878,2.32991 3.210087,2.74411 0.621308,0.41421 1.346166,0.88019 1.553268,0.82841 0.207103,-0.0518 -1.190838,-0.82841 -1.553268,-1.34616 -0.362429,-0.51776 -0.46598,-1.65682 -1.346165,-2.17458 -0.880185,-0.51776 -2.640556,-0.98374 -3.210087,-1.76037 -0.569532,-0.77663 -1.139064,-2.01925 -1.65682,-2.43345 -0.517756,-0.41421 -0.517756,0.2071 -0.880185,0.2071 -0.362429,0 -0.569531,-0.46598 -0.828409,-0.25888 -0.258878,0.2071 0.05177,0.56953 0,0.41421 z" id="path4158" style="fill:#000000;fill-opacity:1;fill-rule:evenodd;stroke:none"/>
  <path d="m 35.362735,87.371805 c 0,0 0.673083,0.258878 1.035512,1.242614 0.36243,0.983737 0.36243,6.730828 0.310654,8.076994 -0.05178,1.346165 -0.207102,2.951209 -1.035512,3.831397 -0.82841,0.88018 -2.951209,2.17457 -2.951209,2.17457" id="path8057" style="fill:none;stroke:#000000;stroke-width:1px;stroke-linecap:butt;stroke-linejoin:miter;stroke-opacity:1"/>
  <path d="m 4.7594142,74.230125 c 5.8307278,2.860347 11.3286988,6.550437 15.6975618,11.395313 1.825562,1.829597 3.205513,4.092918 5.435741,5.488052 1.813847,1.190958 4.192826,1.485253 5.633004,3.238862 1.73369,1.154253 0.168631,0.834662 -1.020837,0.682882 -1.713772,-0.111719 -3.408411,-0.294179 -4.905125,-1.208428 -1.353708,-0.928439 -2.699505,-1.862481 -4.2992,-2.34506 -2.991961,-1.45813 -6.401518,-1.122645 -9.618063,-0.958832 -3.3663284,0.588712 -6.5984219,1.738814 -9.7787303,2.964536 1.3056244,1.506298 2.9788422,2.739023 4.7905681,3.542722 1.6172006,0.726808 3.3477992,1.00345 5.0943692,1.216692 -2.0860211,0.73013 -4.212253,1.530786 -5.683608,3.267286 -1.5404214,1.20844 -2.1368161,3.12084 -3.1762248,4.71388 0.8333535,1.20252 2.5571888,0.85961 3.8188489,1.31881 1.6118723,0.0604 3.3277569,0.24709 4.9005889,-0.11063 2.669244,-0.64416 4.881565,-2.89907 7.757561,-2.59939 2.013026,-0.029 4.182643,0.29359 5.928859,-0.95188 1.44686,-0.55569 -0.851838,1.06528 -1.077837,1.69903 -1.741667,2.37921 -2.740594,5.20328 -3.461912,8.03946 -0.04557,2.22663 -0.341068,4.63253 0.951883,6.58996 -0.188036,-1.17225 0.114094,-2.18567 0.967659,-3.02039 1.911463,-2.36915 4.344541,-4.28659 6.501779,-6.43624 1.227185,-1.39725 3.153977,-2.2886 3.638547,-4.19836 0.329757,-0.75237 -0.531566,1.8084 -0.685835,2.40241 -1.099576,3.43938 -2.620054,6.83976 -2.573083,10.51737 -0.647933,1.66979 0.92733,1.14303 1.699933,0.35388 1.871443,-1.80588 3.649238,-3.7299 5.974013,-4.96386 0.686927,-1.23959 1.794318,-2.35523 1.506263,-3.88226 0.191106,-6.6978 0.382212,-13.395596 0.573319,-20.093392 C 34.725023,87.05542 30.257218,82.978843 25.244908,79.657524 22.422392,78.446446 19.772896,76.735968 16.686975,76.285172 13.363916,75.456443 10.032377,74.67639 6.6056601,74.442616 5.9902448,74.371786 5.3748295,74.300956 4.7594142,74.230125 z" id="path8063" style="fill:#ffb805;fill-opacity:1;fill-rule:evenodd;stroke:#000000;stroke-width:1px;stroke-linecap:butt;stroke-linejoin:miter;stroke-opacity:1"/>
  <path d="m 8.9571791,94.413284 c 1.3127829,-0.170158 2.6242819,-0.359648 3.9378639,-0.517753 1.788488,0.0069 3.577529,-0.02557 5.365102,0.0462 0.75978,0.03357 1.523075,0.01747 2.280441,0.08514 0.677859,0.07703 1.355717,0.154056 2.033576,0.231083 -0.26961,0.168417 -0.526714,0.373502 -0.803916,0.519656 -1.333935,0.08463 -2.666321,0.201528 -4.001273,0.264998 -1.221381,0.02736 -2.443198,0.07557 -3.664308,0.08993 C 12.863815,95.043149 11.61963,94.971123 10.38086,94.870896 9.9063,94.718359 9.4317395,94.565822 8.9571791,94.413284 z" id="path8066" style="fill:#000000;fill-opacity:1;fill-rule:evenodd;stroke:none"/>
  <path d="m 13.668759,101.45477 c 0.672702,-0.45065 1.363383,-0.87452 2.122736,-1.16385 0.547158,-0.319131 1.197378,-0.14098 1.798232,-0.17539 1.71517,0.0439 3.229362,-0.10901 4.939294,-0.272872 0.717147,-0.326077 1.53685,-0.682001 2.315113,-0.8896 0.789492,-0.315197 1.650058,-0.493818 2.35173,-0.992241 0.478681,-0.302324 0.957362,-0.604651 1.436043,-0.906976 -0.689432,0.610377 -1.33514,1.279787 -2.052945,1.852092 -0.771688,0.389968 -1.639099,0.628442 -2.285704,1.226867 -0.420797,0.41057 -0.944715,0.63782 -1.502354,0.79693 -0.536873,0.2651 -1.133265,0.10567 -1.705397,0.1128 -1.592299,-0.0532 -3.187768,-0.13758 -4.779176,-0.13918 -0.88825,0.14087 -1.77102,0.30838 -2.637572,0.55142 z" id="path8068" style="fill:#000000;fill-opacity:1;fill-rule:evenodd;stroke:none"/>
  <path d="m 26.975088,106.89121 c 0,0 0.103551,-1.24262 0.931961,-2.43346 0.828409,-1.19084 3.261863,-3.41719 3.261863,-3.41719 l 1.087287,0.46598 c 0,0 -2.278126,1.7086 -3.106536,2.64056 -0.828409,0.93196 -2.122799,2.89943 -2.174575,2.74411 z" id="path8073" style="fill:#000000;fill-opacity:1;fill-rule:evenodd;stroke:none"/>
  <path d="m 33.239936,113.00073 c 0,0 1.449717,-1.03551 1.605043,-1.7086 0.155327,-0.67308 0.621308,-3.57251 0.621308,-3.57251 l 1.553268,2.43345 c 0,0 -0.517756,1.34616 -1.397942,2.01925 -0.880185,0.67308 -2.381677,0.88018 -2.381677,0.82841 z" id="path8075" style="fill:#000000;fill-opacity:1;fill-rule:evenodd;stroke:none"/>
  <path d="m 32.307975,88.925073 c 0,0 -1.605044,-1.553268 -3.210087,-2.537005 -1.605044,-0.983736 -4.815131,-2.329902 -4.815131,-2.329902 0,0 2.433453,2.019249 3.676067,2.899434 1.242615,0.880185 4.142048,2.899434 4.142048,2.899434 l 0.207103,-0.931961 z" id="path8077" style="fill:#000000;fill-opacity:1;fill-rule:evenodd;stroke:none"/>
  <path d="m 44.152718,87.410042 c 0.845638,0.606281 1.691424,1.337272 2.765975,1.461615 1.06894,0.240225 2.170993,0.241383 3.2609,0.241404 0.489804,0.16813 0.564066,0.740779 0.759531,1.149779 0.108828,0.256932 0.599493,0.796707 0.1334,0.922585 -1.44912,-0.07519 -2.88871,-0.336385 -4.272549,-0.773282 -0.772493,-0.200711 -1.542674,-0.413296 -2.297657,-0.67316 -0.587394,-0.552762 -1.29301,-0.986964 -1.777836,-1.643116 -0.324735,-0.312401 -0.917166,-0.325848 -1.07068,-0.809069 -0.07216,-0.501668 0.648108,-0.936103 1.019174,-0.545055 0.279036,0.394515 0.746962,0.636677 1.229952,0.610894 0.08437,0.01369 0.168386,0.03103 0.24979,0.05741 z" id="path8098" style="fill:#000000;fill-opacity:1;fill-rule:evenodd;stroke:none"/>
  <path d="m 46.715481,118.01674 c 0,0 4.539749,5.12552 10.104602,8.34728 5.564854,3.22175 6.882845,3.95397 16.548117,6.7364 9.665272,2.78243 20.502092,2.3431 26.79916,0.87866 6.29707,-1.46444 15.08369,-4.24686 19.1841,-6.88285 4.10042,-2.63598 11.86193,-8.93305 11.86193,-8.93305 l -10.83682,7.17573 c 0,0 -8.0544,3.95398 -11.56904,4.97908 -3.51464,1.02511 -15.815899,3.66109 -15.815899,3.66109 0,0 -12.154812,0 -16.401673,-1.0251 -4.246862,-1.02511 -13.033473,-4.10042 -17.133891,-6.29708 -4.100419,-2.19665 -12.447699,-8.78661 -12.740586,-8.64016 z" id="path8115" style="fill:#000000;fill-opacity:1;fill-rule:evenodd;stroke:none"/>
  <path d="m 137.41245,152.91972 c -0.70332,-1.60475 -1.0084,-3.93327 -2.97019,-4.46279 -2.35592,-0.30561 -2.64613,2.66529 -4.32123,3.69669 -2.50885,2.20772 -5.26369,4.17313 -8.33615,5.51501 -2.74404,0.82731 -5.79081,0.4888 -8.34439,2.00873 -1.10133,0.71121 -4.2722,2.7231 -2.52945,0.1051 1.25401,-2.87662 2.27436,-6.03278 4.71841,-8.14516 1.08418,-1.81578 4.54087,-3.42359 5.27185,-3.7526 -2.80148,0.47997 -6.02207,0.89432 -8.41624,-0.99222 -1.9679,-1.11095 -3.92529,-2.24792 -5.93087,-3.29237 1.24254,-1.67885 2.94322,-2.97482 4.92466,-3.62948 1.9358,-1.03877 -2.64275,-1.26416 -3.21555,-2.68672 -1.47522,-1.17719 -3.91836,-3.67954 -0.73185,-4.08423 3.43661,-1.57269 6.87322,-3.14537 10.30982,-4.71805 2.32967,2.09318 4.30828,4.5661 6.40735,6.82874 1.77915,0.70802 -0.91809,-2.8703 -0.59729,-4.03233 -0.17354,-2.41128 -0.10123,-4.83244 -0.11475,-7.24911 1.7664,-1.02923 3.3763,-1.46143 4.31142,0.7372 1.80363,2.23172 3.59247,4.48671 5.11175,6.9256 -0.15946,-4.44458 -0.0793,-8.95323 0.78601,-13.324 1.29126,-2.97984 2.58253,-5.95968 3.87379,-8.93952 1.61169,2.47298 1.90563,5.53047 2.69135,8.32483 0.3641,3.08047 0.86615,6.21019 0.26384,9.29676 0.10967,1.58066 -1.34396,4.85355 -0.40746,5.28828 3.03128,-0.95307 5.08944,-3.61257 7.02153,-5.98709 0.59884,-0.84332 2.25295,-3.9539 1.78094,-1.11123 0.0864,2.9604 -0.12487,6.08065 -1.67256,8.67872 -1.7644,2.36681 -3.30553,4.94537 -5.67463,6.78433 -1.36603,1.57291 -4.58834,3.57882 -3.13331,5.93621 2.17292,2.60479 3.66169,5.73668 5.55047,8.55883 1.35111,2.05983 0.93136,4.41264 -1.56426,5.08742 -2.49451,0.76771 -3.57174,-2.2195 -4.21535,-4.06913 -0.36754,-1.07558 -0.56141,-2.19873 -0.84766,-3.29642 z" id="path8117" style="fill:#ffd304;fill-opacity:1;fill-rule:evenodd;stroke:#000000;stroke-width:1px;stroke-linecap:butt;stroke-linejoin:miter;stroke-opacity:1"/>
  <path d="m 120.5336,148.00103 c 0,0 2.58878,-1.34616 5.02223,-2.01925 2.43346,-0.67308 6.10952,-1.13906 6.10952,-1.13906" id="path8121" style="fill:none;stroke:#000000;stroke-width:1px;stroke-linecap:butt;stroke-linejoin:miter;stroke-opacity:1"/>
  <path d="m 117.06463,155.76736 c 0.57795,-0.88478 1.14063,-1.77952 1.72806,-2.6581 0.73857,-0.64621 1.44025,-1.34102 2.20274,-1.95585 1.09066,-0.62559 2.14434,-1.32314 3.30437,-1.81759 0.65575,-0.29841 1.2925,-0.6563 2.00599,-0.79725 0.47487,-0.1274 0.94974,-0.25481 1.42462,-0.38221 -1.4299,0.83475 -2.87528,1.64458 -4.25831,2.55655 -1.41671,0.87031 -2.77089,1.83575 -4.11504,2.81297 -0.76414,0.74716 -1.52829,1.49432 -2.29243,2.24148 z" id="path8123" style="fill:#000000;fill-opacity:1;fill-rule:evenodd;stroke:none"/>
  <path d="m 112.09418,143.49657 c 1.39465,-0.46254 2.78134,-1.00001 4.2498,-1.17525 1.0716,-0.24385 2.17451,-0.25834 3.26731,-0.22899 1.55124,-0.006 3.10401,0.0292 4.65015,0.16161 0.38415,0.37022 -0.18496,0.88941 -0.57376,0.61209 -1.82704,-0.0386 -3.65729,-0.19387 -5.48372,-0.0797 -2.03889,0.21652 -4.07422,0.46482 -6.10978,0.71022 z" id="path8125" style="fill:#000000;fill-opacity:1;fill-rule:evenodd;stroke:none"/>
  <path d="m 111.73175,132.93433 c 1.88643,1.63533 3.74118,3.32146 5.81473,4.72113 0.76127,0.61769 1.59659,1.17196 2.55405,1.4261 1.38347,0.50605 2.73858,1.11479 4.16658,1.4823 0.25983,0.006 0.97847,0.38334 0.95637,0.0406 -0.71248,-0.66163 -1.7206,-0.79341 -2.56287,-1.22471 -1.83076,-0.75303 -3.72972,-1.44289 -5.30666,-2.67337 -1.22897,-0.86413 -2.43243,-1.77614 -3.48049,-2.85735 -0.58427,-0.37928 -0.99545,-1.39763 -1.79223,-0.99233 -0.11649,0.0259 -0.23299,0.0518 -0.34948,0.0777 z" id="path8127" style="fill:#000000;fill-opacity:1;fill-rule:evenodd;stroke:none"/>
  <path d="m 127.21265,129.15471 c -0.2928,1.3462 -0.42792,2.73694 -0.2799,4.10997 -0.0332,0.52575 0.26174,1.00256 0.62582,1.35574 1.04397,1.28267 2.21987,2.4586 3.17095,3.8159 0.23055,0.10373 0.38543,0.86033 0.62411,0.55227 -0.0398,-0.67766 -0.54867,-1.19084 -0.75299,-1.8151 -0.53781,-1.09524 -1.36777,-2.0217 -1.85578,-3.14415 -0.34871,-0.57729 -0.89122,-1.11816 -0.85833,-1.84296 -0.063,-0.69787 -0.13182,-1.39811 -0.10435,-2.09969 -0.18985,-0.31066 -0.37969,-0.62132 -0.56953,-0.93198 z" id="path8129" style="fill:#000000;fill-opacity:1;fill-rule:evenodd;stroke:none"/>
  <path d="m 135.49675,130.86331 c -0.27586,-1.73552 -0.31697,-3.5086 -0.14154,-5.25594 0.13226,-0.96678 0.51864,-1.86909 0.80136,-2.79621 0.17134,-0.48525 0.37928,-0.96125 0.66455,-1.39122 -0.11656,-0.47806 0.73006,-0.26315 0.39358,0.10293 0.18107,2.77878 0.2503,5.60105 -0.32935,8.34098 -0.0998,0.65544 -0.13903,1.38406 -0.60414,1.90308 -0.53351,0.19373 -0.42527,-0.59234 -0.71327,-0.8227 -0.0225,-0.028 -0.0473,-0.054 -0.0712,-0.0809 z" id="path8131" style="fill:#000000;fill-opacity:1;fill-rule:evenodd;stroke:none"/>
  <path d="m 137.20534,140.33824 c 0.74399,-0.66098 1.49495,-1.31411 2.23458,-1.98 0.82565,-1.2557 1.65133,-2.51139 2.477,-3.76708 -0.3914,0.46599 -0.74733,0.96387 -1.16271,1.40838 -0.66519,0.54879 -1.3304,1.09757 -1.9956,1.64636 -0.55228,0.22436 -1.10454,0.44874 -1.65682,0.6731 0.0345,0.67308 0.069,1.34616 0.10355,2.01924 z" id="path8150" style="fill:#000000;fill-opacity:1;fill-rule:evenodd;stroke:none"/>
  <path d="m 155.01047,78.843094 c 1.96651,-0.05388 2.32462,-2.733484 4.21662,-2.958701 1.46004,-0.329854 2.68885,3.124569 3.85674,0.895427 0.85051,-1.42982 3.07789,-2.269724 4.3898,-0.976135 0.78429,0.763571 1.63324,2.046103 2.90808,1.593698 1.99472,-0.562021 3.83582,1.766962 3.06637,3.617413 -0.50133,1.448074 -2.10507,2.372826 -3.60284,2.154147 -1.41796,0.293394 -0.95954,2.211049 0.38864,2.067544 1.3128,0.874814 1.6654,2.886823 3.36683,3.223128 1.13723,1.148436 0.91895,3.384822 -0.17884,4.46785 -1.74393,1.375683 -4.13528,1.724161 -5.65298,3.418778 -1.22561,1.327155 -3.60417,1.2094 -5.05694,0.267648 -1.05518,-0.869736 -2.15402,-2.611338 -3.74376,-1.93408 -1.26233,0.586507 -1.96126,2.392647 -3.56433,2.111857 -1.27219,-0.657604 -2.85276,-1.677187 -4.20295,-0.529579 -2.02325,0.984232 -4.61848,0.397037 -6.08114,-1.282645 -0.93655,-1.318256 0.38562,-2.733976 0.4548,-4.131088 1.01015,-4.078986 2.02417,-8.157012 3.03161,-12.236669 1.25952,-1.056679 3.03952,-0.172033 4.50352,-0.441325 0.66114,0.140929 1.25649,0.479049 1.90077,0.672732 z" id="path8202" style="fill:#ffdb07;fill-opacity:1;fill-rule:evenodd;stroke:#000000;stroke-width:1px;stroke-linecap:butt;stroke-linejoin:miter;stroke-opacity:1"/>
  <path d="m 151.20293,87.410042 c 1.43678,-0.434097 2.91043,-0.791348 4.24963,-1.489564 0.52615,-0.202768 1.09018,-0.427075 1.39769,-0.929831 0.76987,-0.801222 1.43968,-1.694901 1.96371,-2.675536 0.12026,-0.298629 0.73817,-0.966598 0.94903,-0.614409 -0.28337,0.483448 -0.52379,0.981163 -0.59147,1.546184 -0.14617,0.488092 0.10013,0.729265 0.47811,0.344999 1.01963,-0.601116 2.04549,-1.192156 3.04912,-1.81992 0.73222,0.09763 1.46443,0.195262 2.19665,0.292892 -0.57841,0.711115 -1.6178,0.568119 -2.32218,1.080194 -0.77796,0.439375 -1.62564,0.809438 -2.21051,1.513927 -0.38655,0.510361 -0.9935,0.699557 -1.59818,0.796733 -0.70091,0.125935 -1.38487,0.347606 -1.98708,0.73367 -0.79432,0.420583 -1.57138,0.874792 -2.31903,1.373963 -0.65722,0.136462 -1.33927,0.05975 -2.00309,0.02094 -0.41856,-0.05021 -0.83335,-0.127851 -1.2524,-0.174247 z" id="path8208" style="fill:#000000;fill-opacity:1;fill-rule:evenodd;stroke:none"/>
  <path d="m 149.59206,90.558578 c 2.78204,0.694428 5.61303,1.622875 8.51874,1.265424 3.86135,-0.327812 7.68356,-1.002408 11.54402,-1.338643 0.72913,-0.442798 -0.48247,-0.883684 -0.8107,-0.456301 -2.6551,0.371847 -5.35285,0.530195 -7.95099,1.232217 -0.77921,0.0085 -2.19718,-0.05889 -2.24949,-1.047195 0.35614,-0.711925 1.05494,-1.319624 1.82537,-1.54263 2.33325,-0.434799 4.77531,-0.463712 7.00339,-1.359915 1.1733,-0.474029 2.17663,-1.746786 1.89497,-3.061123 -0.80276,-0.805121 -1.14844,0.896815 -1.48193,1.416567 -0.56946,0.985703 -1.63633,1.722114 -2.80377,1.667926 -1.68799,0.173809 -3.38196,0.281157 -5.07042,0.449914 -1.84364,0.597248 -2.85022,2.601509 -4.79005,3.013563 -1.14683,0.320661 -2.3777,0.01859 -3.3632,-0.60573 -0.72873,-0.287654 -1.78403,-0.403289 -2.26594,0.365926 z" id="path8210" style="fill:#000000;fill-opacity:1;fill-rule:evenodd;stroke:none"/>
  <path d="m 50.925732,69.873432 c 0.329498,0.988494 1.24477,1.098326 1.24477,1.098326 0,0 0.366109,-0.07322 0.732217,0.07322 0.366109,0.146443 0.366109,0.768828 0.622385,0.878661 0.256276,0.109833 0.366109,-0.03661 0.329498,-0.366109 -0.03661,-0.329498 0,-1.098326 -0.43933,-1.317991 -0.439331,-0.219666 -0.585774,0.109832 -1.098327,-0.183055 -0.512552,-0.292887 -0.622385,-0.915272 -0.988493,-0.805439 -0.366109,0.109832 -0.40272,0.695607 -0.40272,0.622385 z" id="path8055" style="fill:#000000;fill-opacity:1;fill-rule:evenodd;stroke:none"/>
  <path d="m 42.455994,59.827187 c -5.13683,-2.000343 -11.387513,-1.828036 -15.899341,1.569392 -1.603189,1.042166 -1.887225,3.278849 0.527706,2.906203 2.866056,0.689596 5.082562,2.999872 8.099103,3.218289 2.474522,0.64451 4.965881,-0.0034 7.208221,-1.093612 2.609122,-0.54058 4.720176,-3.537149 7.631252,-2.361584 3.221035,2.132792 6.663385,4.094219 10.503703,4.854923 2.120334,0.278588 5.060348,1.796935 6.692022,1.156043 -0.117104,-2.604502 -3.914816,-2.17286 -5.592429,-3.410969 -2.323419,-0.965732 -6.228518,-2.395742 -5.945477,-5.368435 1.224459,-2.017641 3.144008,-3.527904 4.368436,-5.57056 2.770639,-3.68941 2.8542,-8.499726 2.688175,-12.911174 -0.118174,-1.925133 0.474397,-4.75497 -1.359611,-5.897591 -1.888725,2.151928 -3.143898,4.989917 -4.39895,7.609908 -0.875907,2.150814 -2.211787,-1.726364 -2.173459,-2.979788 -0.208693,-3.193042 -0.265623,-6.393813 -0.50044,-9.582193 -0.471704,-1.494459 -0.998662,2.026905 -1.690778,2.604165 -0.768773,0.942576 -1.585591,3.853943 -2.150839,3.92722 0.158451,-3.641886 0.807894,-7.31814 0.24,-10.951062 -1.497266,-2.699605 -3.377627,-5.389927 -6.028289,-7.031886 -0.927866,-1.081596 -2.371337,-1.002582 -1.46751,0.682383 0.579411,3.32793 0.400552,6.761993 -0.337292,10.050194 -2.657597,-3.640575 -4.71294,-7.6655 -7.085569,-11.48756 -1.009748,4.082188 -0.04133,8.339362 0.464461,12.436632 0.629233,3.251132 0.866238,6.617778 1.933457,9.758383 0.746037,1.942774 1.65827,3.816538 2.409526,5.757189 -4.903161,-2.893054 -9.922372,-5.794981 -15.492134,-7.187214 3.007757,6.779741 7.640037,13.003545 14.017061,16.941248 1.116899,0.781628 2.223427,1.577942 3.338995,2.361456 z" id="path8230" style="fill:#ffb805;fill-opacity:1;fill-rule:evenodd;stroke:#000000;stroke-width:1px;stroke-linecap:butt;stroke-linejoin:miter;stroke-opacity:1"/>
  <path d="m 40.491632,46.698746 3.514644,4.832636 3.587866,3.880753 1.464435,1.976987 -3.368201,-3.148535 -4.100418,-4.539749 -2.269875,-2.48954 1.171549,-0.512552 z" id="path8235" style="fill:#000000;fill-opacity:1;fill-rule:evenodd;stroke:none"/>
  <path d="m 34.26778,48.163181 c 1.07624,1.259022 2.120037,2.549618 3.216891,3.788615 1.044256,0.815094 2.048552,1.684133 3.122077,2.459989 0.870871,0.556846 1.71495,1.166468 2.605752,1.685465 0.606294,0.186553 1.212587,0.373104 1.81888,0.559656 -1.930737,-1.767387 -3.800462,-3.604372 -5.827236,-5.263671 -0.918138,-0.756973 -1.845937,-1.503221 -2.789408,-2.228142 -0.715652,-0.33397 -1.431305,-0.667942 -2.146956,-1.001912 z" id="path8237" style="fill:#000000;fill-opacity:1;fill-rule:evenodd;stroke:none"/>
  <path d="m 32.217571,62.661091 c 0.997737,0.240352 1.989575,0.515722 2.991096,0.733771 0.88887,0.02153 1.777484,0.05378 2.666529,0.06788 0.780634,-0.162468 1.572466,-0.281081 2.345824,-0.472277 0.602756,-0.231831 1.205513,-0.46366 1.808269,-0.69549 -1.15395,-0.169412 -2.30649,-0.348421 -3.461319,-0.51184 -1.01493,0.04215 -2.033848,0.03839 -3.04052,0.191321 -0.6957,0.09489 -1.408044,0.113467 -2.07774,0.341631 -0.410713,0.115 -0.821427,0.23 -1.232139,0.345 z" id="path8239" style="fill:#000000;fill-opacity:1;fill-rule:evenodd;stroke:none"/>
  <path d="m 42.029289,36.374477 c 0.225721,1.399114 0.432699,2.801247 0.670105,4.198471 0.641762,1.419282 1.232603,2.864751 2.016323,4.214462 0.595314,1.054264 1.117109,2.145687 1.594375,3.257815 0.145141,0.301661 0.378305,0.890974 0.468918,1.014444 -0.229046,-1.249277 -0.390635,-2.51254 -0.670587,-3.751444 C 45.874172,44.4482 45.695512,43.567496 45.419656,42.722186 44.28374,40.609075 43.217813,38.459032 42.029289,36.374477 z" id="path8245" style="fill:#000000;fill-opacity:1;fill-rule:evenodd;stroke:none"/>
  <path d="m 42.688284,31.615064 2.635983,4.393305 1.830544,2.928871 0.878661,2.123431 0.219666,-1.464436 -0.439331,-7.615062 -0.512552,-1.391214 0.219665,3.587866 -0.219665,2.635984 -1.684101,-2.269875 -1.537656,-1.976987 -0.292887,-1.391214 -0.658996,-1.464435 -0.439331,1.903766 z" id="path8249" style="fill:#000000;fill-opacity:1;fill-rule:evenodd;stroke:none"/>
  <path d="m 50.222332,38.081432 c -0.103551,1.035513 -0.207102,2.071025 -0.310654,3.106537 -0.30008,0.455769 -0.46944,1.0891 -1.061869,1.250002 -0.546818,0.363691 -0.389911,1.109243 -0.601422,1.649433 -0.03788,0.684663 0.755428,1.074633 0.724272,1.767153 0.239787,1.819946 0.461971,3.646055 0.503448,5.482441 0.132262,0.494479 0.558924,-0.354911 0.452648,-0.617485 0.01902,-1.054304 0.05244,-2.110697 -0.02853,-3.164297 -0.05453,-1.04863 -0.160125,-2.096381 -0.176511,-3.1458 0.142266,-0.773229 0.41056,-1.525883 0.748915,-2.237982 0.390622,-0.666756 0.356475,-1.459475 0.487788,-2.197458 0.0777,-0.855821 -0.0124,-1.714779 -0.01472,-2.5714 -0.22883,-0.148379 -0.504492,0.581063 -0.723358,0.678856 z" id="path8251" style="fill:#000000;fill-opacity:1;fill-rule:evenodd;stroke:none"/>
  <path d="m 53.691299,44.501606 c 0.109546,1.502192 0.362857,2.999576 0.291774,4.509736 -0.02018,0.694981 -5.53e-4,1.396733 -0.05403,2.08735 -0.171749,0.567956 -0.09436,1.264034 -0.57817,1.693627 -0.290554,0.450937 -0.392293,1.003826 -0.462219,1.527967 -0.07442,0.695312 -0.113258,1.393791 -0.181097,2.08971 -0.526414,-0.307293 -0.357438,-0.989712 -0.413469,-1.494167 -0.06442,-1.51507 -0.161796,-3.028896 -0.19398,-4.545217 0.137549,-0.683075 0.154262,-1.398142 0.382377,-2.058237 0.244325,-0.462992 0.510513,-0.93633 0.538783,-1.471473 0.112571,-0.557922 0.138581,-1.143197 0.339097,-1.677439 0.110309,-0.22062 0.220619,-0.441239 0.33093,-0.661857 z" id="path8256" style="fill:#000000;fill-opacity:1;fill-rule:evenodd;stroke:none"/>
  <path d="m 55.762321,45.330017 c 0.22447,0.534435 0.729199,0.99594 0.724235,1.594461 -0.01466,1.926203 0.03448,3.854404 -0.02762,5.779316 -0.06286,0.864531 -0.108427,1.730442 -0.191183,2.593431 -0.513648,1.095782 -1.027296,2.191565 -1.540944,3.287347 0.690341,-1.087288 1.380682,-2.174576 2.071022,-3.261864 0.231853,-1.095175 0.441242,-2.195096 0.687099,-3.287297 0.709064,-1.290914 1.452737,-2.565306 2.038565,-3.919041 0.08971,-0.208279 0.377279,-0.779583 0.33681,-0.749018 -0.626732,0.967016 -1.145674,2.013971 -1.938215,2.861992 -0.179318,0.159992 -0.542184,0.826197 -0.452565,0.242652 -0.02994,-1.353505 0.113017,-2.72912 -0.195132,-4.059748 -0.209603,-0.431001 -0.31581,-1.075396 -0.589819,-1.373469 -0.307417,0.09708 -0.614837,0.194159 -0.922254,0.291238 z" id="path8261" style="fill:#000000;fill-opacity:1;fill-rule:evenodd;stroke:none"/>
  <path d="m 120.04707,81.625526 c 1.63922,-0.203265 3.28972,-0.332275 4.91162,-0.655861 0.34325,0.02306 0.97924,-0.211753 1.08727,0.258528 -0.0793,0.402192 -0.45539,0.67089 -0.62053,1.04226 -0.12937,0.322116 -0.44383,0.729773 -0.69859,0.261386 -0.27112,-0.408305 -0.75232,-0.454863 -1.19602,-0.48586 -1.16125,-0.140149 -2.32251,-0.280303 -3.48375,-0.420453 z" id="path4199" style="fill:#000000;fill-opacity:1;fill-rule:evenodd;stroke:none"/>
  <path d="m 118.87678,101.66187 c 0.63882,-1.0422 1.28886,-2.077527 1.92069,-3.124014 0.30447,-1.143002 0.69865,-2.263253 0.92357,-3.426554 -0.002,-0.508049 -0.45373,-0.888901 -0.90597,-1.029905 -0.42515,-0.243877 0.1237,-0.833909 0.43685,-0.457234 0.2586,0.218938 0.59715,0.332234 0.75712,0.642278 0.23851,0.288121 0.5393,0.599924 0.49459,1.006543 0.0319,0.612718 -0.0529,1.222651 -0.17208,1.821531 -0.13271,0.797227 -0.49842,1.534282 -0.89552,2.229548 -0.37877,0.587873 -0.84299,1.115427 -1.24244,1.687137 -0.18441,0.2958 -0.36872,0.70579 -0.76178,0.74133 -0.18956,0.001 -0.36547,-0.0917 -0.55503,-0.0907 z" id="path4209" style="fill:#000000;fill-opacity:1;fill-rule:evenodd;stroke:none"/>
  <path d="m 124.15789,100.3157 c 1.76999,-1.104616 3.56045,-2.176386 5.31768,-3.301424 1.40546,-1.502013 2.81696,-3.002066 4.04803,-4.653483 0.55783,-0.554225 0.82612,-1.27805 1.04959,-2.01364 0.42429,-1.223813 0.93276,-2.433813 1.03445,-3.738919 0.21367,-1.491863 0.40594,-2.996928 0.96491,-4.408201 0.53884,-1.616772 0.68751,-3.341946 0.6351,-5.03586 0.744,0.451414 0.50495,1.425922 0.42495,2.184112 -0.0795,1.910337 -0.70421,3.731824 -0.93726,5.620991 -0.21511,1.640338 -0.53959,3.262734 -1.07623,4.829887 -0.41214,1.181578 -0.79595,2.418766 -1.67153,3.351208 -1.40474,1.811879 -2.65569,3.735458 -4.0426,5.560292 -1.9157,0.53501 -3.8314,1.070029 -5.74709,1.605037 z" id="path4215" style="fill:#000000;fill-opacity:1;fill-rule:evenodd;stroke:none"/>
  <path d="m 144.125,86.59375 c -0.76543,-0.02642 -0.85602,0.746062 -1.17378,1.241228 -0.45101,0.598536 -0.95791,1.153509 -1.43664,1.729516 -1.46767,1.625451 -3.01151,3.182861 -4.53665,4.75212 -1.20443,1.009758 -2.51723,1.878402 -3.75918,2.839636 0.87736,-0.242822 1.76555,-0.454167 2.6408,-0.695469 0.65209,-0.288757 1.18675,-0.779373 1.77054,-1.177992 1.29719,-1.061336 2.3917,-2.337524 3.52616,-3.564039 0.25893,0.863906 0.0714,1.787117 0.20391,2.672299 0.0882,0.933103 -0.10004,1.927503 0.2941,2.807536 0.34084,0.319316 0.39986,-0.640724 0.36727,-0.883035 -0.0486,-1.855191 -0.0981,-3.710355 -0.14653,-5.56555 0.41655,-0.63113 0.73638,-1.337728 1.28125,-1.875 0.13008,1.297015 0.17453,2.602666 0.1875,3.90625 0.24758,0.364146 0.24499,-0.75441 0.3005,-1.061029 0.0578,-1.156257 0.1064,-2.312879 0.137,-3.470221 0.54084,-0.411144 1.45637,-0.254729 1.76053,-0.963515 -0.11719,-0.54229 -0.91642,-0.721052 -1.41678,-0.692735 z" id="path4223" style="fill:#000000;fill-opacity:1;fill-rule:evenodd;stroke:none"/>
  <path d="M 64.823051,75.670517 C 63.820446,74.671462 62.755,73.735642 61.791556,72.697431 c -0.547385,-1.529863 -1.369665,-3.014909 -1.380027,-4.680919 -0.317297,-2.25429 -0.401025,-4.533475 -0.287504,-6.80551 -0.03489,-1.210196 0.05811,-2.440682 0.544908,-3.563649 0.710532,-2.009967 1.87496,-3.833208 3.280727,-5.427003 1.084011,-0.002 1.282781,1.448624 2.086297,1.981073 0.708993,1.070902 0.935392,2.363915 1.410858,3.541721 0.571082,1.509608 0.459769,3.141659 0.603121,4.720913 0.158205,2.084874 -0.124581,4.159407 -0.26574,6.235306 -0.145327,1.508869 -0.920373,2.849778 -1.508149,4.218818 -0.450383,0.934888 -0.942546,1.849049 -1.452996,2.752336 z" id="path4297" style="fill:#ffb805;fill-opacity:1;fill-rule:evenodd;stroke:#000000;stroke-width:1px;stroke-linecap:butt;stroke-linejoin:miter;stroke-opacity:1"/>
  <path d="m 63.556484,57.75523 c -0.217513,1.062817 -0.376534,2.137686 -0.421562,3.222401 -0.116484,1.136731 -0.206285,2.280982 -0.09698,3.422134 0.09235,1.720006 0.1146,3.447012 0.301125,5.159918 0.09688,0.678155 0.193757,1.356309 0.290636,2.034464 0.08258,-2.118404 0.107903,-4.241285 0.263598,-6.35543 0.175637,-1.170465 0.422574,-2.332963 0.540052,-3.510475 -0.01244,-0.751457 0.03675,-1.50456 -0.02774,-2.254653 -0.196831,-0.582763 -0.168117,-1.324784 -0.785067,-1.663443 l -0.06407,-0.05492 0,0 z" id="path4303" style="fill:#000000;fill-opacity:1;fill-rule:evenodd;stroke:none"/>
  <path d="m 67.949791,84.334732 c -1.772005,-0.97585 -3.484948,-2.160003 -5.460367,-2.679074 -1.334307,-0.164333 -2.691142,-0.558478 -4.032569,-0.217381 -1.185421,0.06796 -2.358325,0.334657 -3.327215,1.048833 -1.290868,0.686332 -2.547678,1.452904 -3.631727,2.440551 -0.4434,0.291854 -1.551389,1.0165 -0.406885,1.055599 1.552605,0.349719 3.108319,0.734572 4.543519,1.439396 2.685884,1.132212 5.081245,2.823889 7.57677,4.307318 0.841799,0.542079 1.689497,1.081142 2.667333,1.338896 1.071024,0.300279 2.10371,0.872863 3.24602,0.759889 1.018349,-0.180206 2.314656,0.169051 3.163859,-0.30711 -1.427879,-2.890513 -2.75727,-5.855086 -4.145673,-8.775045 -0.06435,-0.13729 -0.12871,-0.274581 -0.193065,-0.411872 z" id="path4315" style="fill:#e8b80b;fill-opacity:1;fill-rule:evenodd;stroke:#000000;stroke-width:1px;stroke-linecap:butt;stroke-linejoin:miter;stroke-opacity:1"/>
  <path d="m 59.163181,84.920502 c 0.535976,-0.195151 1.085617,-0.444387 1.670437,-0.371698 0.847913,-0.04119 1.681757,0.165069 2.496575,0.369588 0.666503,0.238898 1.268632,0.623481 1.912108,0.916776 0.435171,0.254795 0.954004,0.394615 1.312602,0.758314 0.635815,0.613887 1.271625,1.227778 1.907438,1.841668 0.316029,0.71743 0.650669,1.42665 0.9551,2.149178 0.0351,0.516442 0.284448,1.120665 -0.101697,1.566845 -0.390157,0.116404 -0.27372,-0.645977 -0.479326,-0.877381 -0.281528,-0.743223 -0.730404,-1.409059 -1.15808,-2.073419 -0.428503,-0.542618 -0.907861,-1.043492 -1.358948,-1.566624 -0.488558,-0.451533 -1.07227,-0.785823 -1.634635,-1.136509 -0.675665,-0.385072 -1.39151,-0.692498 -2.090027,-1.032439 -0.559774,-0.231135 -1.170147,-0.290773 -1.759578,-0.411156 -0.553098,-0.09448 -1.112442,-0.116566 -1.671969,-0.133143 z" id="path4317" style="fill:#000000;fill-opacity:1;fill-rule:evenodd;stroke:none"/>
  <path d="m 66.778244,87.702927 c -0.562882,-2.633506 -1.580309,-5.230555 -1.338788,-7.971431 -0.05337,-3.985043 -0.3099,-7.990642 0.267996,-11.951907 0.322964,-3.028056 0.513528,-6.262002 2.181411,-8.901768 1.319054,-1.697428 2.45238,-3.640861 4.366023,-4.758034 0.464503,-0.480303 1.728637,-1.315874 0.795371,-0.07696 -1.466449,2.602605 -2.646526,5.487997 -2.655068,8.516264 -0.132934,1.777254 1.01e-4,3.582474 0.421176,5.30787 0.581487,1.594474 1.633208,3.025428 1.798292,4.758211 0.60247,2.454068 1.462293,4.926916 1.150224,7.492376 -0.08341,5.213259 -0.166827,10.426519 -0.25024,15.639778 -2.245466,-2.684799 -4.490932,-5.369598 -6.736397,-8.054397 z" id="path4330" style="fill:#ffcb05;fill-opacity:1;fill-rule:evenodd;stroke:#000000;stroke-width:1px;stroke-linecap:butt;stroke-linejoin:miter;stroke-opacity:1"/>
  <path d="M 73.441422,85.359833 C 72.707155,84.687342 71.94955,84.040371 71.229795,83.352068 70.598264,82.01765 69.855397,80.723572 69.474558,79.286312 69.106114,78.2638 68.83268,77.2101 68.690324,76.132196 68.565518,75.42495 68.440709,74.717705 68.315903,74.01046 c 0.187481,1.729614 0.261287,3.474369 0.530204,5.193378 0.329456,1.626921 0.569999,3.283513 1.172375,4.839953 0.318974,1.063756 0.662491,2.126537 1.210605,3.097495 0.598205,1.085302 1.513093,1.944644 2.263186,2.920666 0.323624,0.467003 0.07758,-0.542011 0.124194,-0.792761 -0.05835,-1.303119 -0.116696,-2.606239 -0.175045,-3.909358 z" id="path4332" style="fill:#000000;fill-opacity:1;fill-rule:evenodd;stroke:none"/>
  <path d="m 134.87448,57.682011 c -2.03057,0.316544 -3.87751,-1.58181 -3.81397,-3.56928 -4.8e-4,-0.975106 -0.19853,-2.049055 -1.05522,-2.646827 -1.33944,-1.300406 -1.9162,-3.117136 -2.56371,-4.81165 -1.11956,-1.253214 -0.76405,-2.73603 -0.25505,-4.141447 0.35883,-1.437207 0.46752,-2.939281 -0.48709,-4.16196 -0.62438,-1.454085 0.59661,-2.882021 0.3894,-4.384773 0.49404,-1.311541 -1.42948,-1.95708 -0.90177,-3.15053 0.58866,-1.457316 2.15592,-1.838205 3.47802,-2.407215 1.12266,-0.283964 2.28641,0.115037 3.33005,0.506024 1.05241,0.759371 0.60266,2.182367 0.69056,3.28039 -0.23578,1.362178 0.66264,2.67891 1.82015,3.316337 1.29206,0.862507 0.71933,2.507371 0.83578,3.765585 0.44468,1.254129 1.50621,2.294098 1.27362,3.743344 -0.036,1.934854 1.25586,3.748415 0.77481,5.709624 -0.59591,1.224333 -0.62941,2.591427 -0.92103,3.898656 -0.70723,1.574157 -1.65657,3.040576 -2.3805,4.613619 -0.0719,0.146421 -0.14328,0.293121 -0.21405,0.440103 z" id="path4349" style="fill:#ffcb05;fill-opacity:1;fill-rule:evenodd;stroke:#000000;stroke-width:1px;stroke-linecap:butt;stroke-linejoin:miter;stroke-opacity:1"/>
  <path d="m 135.67992,48.675732 c 0.76067,-0.4627 0.46954,0.902812 0.0882,1.15313 -0.28092,0.564422 -1.02488,0.964745 -0.87992,1.656756 0.0198,0.67425 0.0397,1.348501 0.0595,2.022751 -0.38349,0.386212 -0.65929,0.211558 -0.67539,-0.305881 -0.29316,-0.514897 0.0583,-1.306481 -0.4192,-1.674166 -0.36803,-0.438223 -1.00945,-0.467692 -1.39494,-0.695281 -0.1431,-0.718295 0.80308,-0.264717 1.202,-0.434716 0.73522,0.124837 0.20623,-0.860619 0.0999,-1.237134 -0.58284,-0.714685 -1.33779,-1.273497 -2.13935,-1.719035 -0.36032,-0.163841 0.24467,-0.925662 0.61783,-0.596966 0.68816,0.261763 1.07853,-0.751211 0.9024,-1.325982 -0.0606,-0.620035 -0.33433,-1.1915 -0.50742,-1.78465 -0.29709,-0.62204 -1.12071,-0.753987 -1.56991,-1.031554 -0.30344,-0.616921 0.30336,-0.587218 0.7356,-0.544007 0.33979,-0.557173 0.4297,-1.181834 0.36972,-1.826087 -1e-4,-0.574259 -0.41098,-1.151049 -0.91086,-1.428739 -0.44287,-0.300918 -0.795,-0.738093 -1.31497,-0.909968 -0.24913,-0.607425 0.29123,-1.285261 0.95896,-1.037354 0.56365,-0.188172 1.1178,-0.436385 1.70259,-0.582372 0.47976,0.49615 0.065,0.881937 -0.29289,1.282292 -0.01,0.619725 0.83464,0.954085 1.19664,1.308393 0.65319,-0.04132 0.43669,0.923228 -0.12609,0.908872 -0.57086,0.42635 -0.34262,1.234905 -0.4651,1.855613 -0.0209,0.700904 0.22971,1.32578 0.99454,1.429845 0.48696,0.218397 1.40253,-0.267713 1.21415,0.621933 -0.23468,0.516973 -1.17361,0.27615 -1.10962,1.0457 -0.0386,0.661154 0.20911,1.362638 1.00257,1.228439 0.76861,-0.143959 1.30486,0.855217 0.38539,1.037321 -0.50643,0.233161 0.0277,1.105168 -0.68322,1.314444 -0.25207,0.196327 0.0409,1.19814 0.42795,0.663634 0.18303,-0.123544 0.35129,-0.267131 0.531,-0.395231 z" id="path4356" style="fill:#000000;fill-opacity:1;fill-rule:evenodd;stroke:none"/>
  <path d="m 137.29079,51.824268 c 1.19212,-1.863605 2.79059,-3.549732 3.26154,-5.776061 0.23356,-1.294846 0.43936,-2.640871 0.20661,-3.953141 -0.94052,-1.028762 -1.89668,-2.07443 -1.76918,-3.580799 0.0608,-1.351834 1.99169,-2.424786 0.72079,-3.891785 -1.01378,-1.465888 -0.37448,-3.250584 0.93893,-4.288492 1.19009,-0.768893 1.49101,-1.917502 1.78235,-3.213001 0.27418,-1.489506 2.16078,-1.137849 2.93478,-2.223267 0.98619,-0.697296 1.23337,-2.327124 2.73526,-1.918871 1.3305,-0.392624 2.70354,0.667144 2.81035,2.012636 0.0758,1.239297 -0.43802,2.425589 -0.73388,3.58784 -0.26715,1.45128 1.87735,1.726657 1.6843,3.268883 0.13827,1.272218 -0.69318,2.352998 -1.24548,3.427944 -0.15006,1.518151 0.26907,3.018715 0.2105,4.503134 0.33663,1.84237 -2.40994,2.186601 -2.05369,4.129752 -0.23366,1.508016 -2.14053,1.266588 -2.84272,2.433553 -1.10401,1.097235 -0.0912,3.312042 -1.57792,4.016178 -1.66214,0.922817 -2.78119,2.489067 -3.91514,3.9617 -1.16709,0.840832 -1.89557,2.72235 -3.39452,2.775762 -1.53289,0.406335 -2.53109,-1.48608 -1.93908,-2.788484 0.36875,-1.009347 1.50928,-1.646445 2.1862,-2.483481 z" id="path4369" style="fill:#ffcb05;fill-opacity:1;fill-rule:evenodd;stroke:#000000;stroke-width:1px;stroke-linecap:butt;stroke-linejoin:miter;stroke-opacity:1"/>
  <path d="m 142.8394,44.758057 c 0.46549,0.780585 1.07926,-0.415026 1.37714,-0.802133 0.2651,-0.553017 0.80752,-0.783698 1.37844,-0.896624 0.68215,0.190803 0.78033,-0.818311 0.16074,-0.92345 -0.71061,-0.0045 -1.01943,-0.634359 -0.83183,-1.258411 0.13898,-0.963518 1.02136,-1.608667 1.17461,-2.569381 0.11028,-0.594705 0.2371,-1.250048 0.70651,-1.671352 0.48789,-0.07039 1.15425,-1.00085 0.36689,-1.065377 -0.61488,0.19937 -1.19084,-0.382393 -0.95049,-0.988753 0.0414,-0.699625 0.5332,-1.244697 0.75438,-1.888473 0.0628,-0.68989 0.65526,-0.723406 1.16067,-0.96115 0.37845,-0.165764 0.97045,-0.77465 0.19949,-0.810872 -0.55206,-0.133728 -1.39411,0.43669 -1.21371,-0.486713 0.098,-0.651496 -0.0597,-1.3807 -0.63231,-1.749576 -0.4169,-0.35599 -1.39963,-0.125804 -1.21893,0.510138 0.54689,0.207154 0.90403,0.696175 1.09548,1.284349 -0.16019,0.738906 0.003,1.615733 -0.36687,2.265147 -0.35278,0.338969 -0.57723,0.848292 -1.02053,1.066292 -0.52785,0.112152 -1.26169,0.689716 -1.05026,1.157392 0.67867,0.175107 1.30637,0.685217 1.14987,1.452792 -0.028,0.524338 0.26356,1.19023 -0.36254,1.433819 -0.3967,0.347061 -1.02098,0.666103 -1.5052,0.310647 -0.33553,-0.426209 -1.31807,-0.171369 -0.7222,0.365209 0.72046,0.125753 0.98716,0.761303 1.22484,1.374514 0.30095,0.721331 -0.31945,1.245041 -0.58925,1.842972 -0.40661,0.520481 -0.38954,1.089827 -0.33442,1.72842 0.0127,0.426906 0.0131,0.854803 0.0495,1.280574 z" id="path4373" style="fill:#000000;fill-opacity:1;fill-rule:evenodd;stroke:none"/>
  <path d="m 129.74895,63.246862 c 1.099,0.450677 2.28981,2.014507 3.8413,2.083776 2.50786,-0.253296 5.02249,-0.482803 7.54563,-0.350282 1.30641,0.05469 2.64708,-0.0606 3.9317,0.117906 1.33535,0.361372 1.4275,2.339952 3.1567,2.063216 1.44351,0.421292 2.97053,-0.500978 3.38127,-1.90467 1.48523,-0.725523 3.28732,0.223017 4.82503,-0.490371 1.04783,-0.722781 -0.36047,-2.795252 1.32445,-3.118475 1.1597,-0.26402 3.56346,0.481434 3.45499,-1.403637 0.51978,-1.466789 -0.91443,-1.954671 -2.03818,-2.340784 -1.20703,-0.435352 -2.1764,-1.375147 -3.43869,-1.685966 -1.0283,-0.143053 -0.0962,-2.235925 0.52993,-2.757542 0.96406,-1.032474 2.65974,-1.416226 2.57665,-3.113833 0.48986,-1.750202 -1.64825,-2.285433 -2.95062,-2.183019 -1.31455,0.287206 -2.3287,-0.809649 -3.62116,-0.739491 -1.48998,-0.182286 -2.41138,1.044802 -3.38067,1.932055 -1.00247,0.820916 -2.40534,-0.207391 -3.49933,0.453736 -1.54464,0.298228 -0.70915,2.641076 -2.3967,2.718553 -1.08544,0.279962 -2.46399,0.106895 -3.29283,0.937854 -1.14351,0.905083 -0.94333,2.541993 -2.411,3.206818 -1.40341,0.788963 -2.81207,1.594919 -4.31672,2.180852 -0.30785,1.775062 -2.18538,1.382876 -3.23853,2.260113 -0.42193,0.694931 -0.59915,0.918439 0.0168,2.133191 z" id="path4400" style="fill:#ffcb05;fill-opacity:1;fill-rule:evenodd;stroke:#000000;stroke-width:1px;stroke-linecap:butt;stroke-linejoin:miter;stroke-opacity:1"/>
  <path d="m 135.96272,61.173351 c -0.2904,0.999442 1.05159,0.708234 1.62307,0.549537 1.15616,-0.166029 2.29111,0.165974 3.43519,0.267897 1.04267,-0.134948 2.11233,-0.188838 3.08754,-0.622072 0.9474,-0.400055 2.0189,-0.05294 2.96773,-0.464318 0.75981,-0.162157 1.51026,-0.367791 2.1607,-0.806599 0.74817,-0.221418 1.53213,-0.313613 2.31023,-0.374163 0.42619,-0.706365 0.82371,-1.599249 1.70411,-1.809766 0.71253,-0.192806 1.03286,-1.123589 1.85421,-1.001077 0.46485,-0.04869 1.17206,-0.883233 0.35599,-1.031545 -0.70345,-0.257217 -1.24116,0.710409 -1.80515,1.045709 -0.58347,0.842255 -1.78524,0.492743 -2.41057,1.223511 -0.43768,0.849818 -1.47585,0.83711 -2.27668,1.116748 -0.77678,0.01048 -1.3682,0.375928 -2.00722,0.734567 -1.25875,-0.01 -2.53192,0.06018 -3.76695,0.308965 -0.76943,0.109267 -1.31246,0.750325 -2.10505,0.744772 -0.67536,0.08713 -1.37609,-0.128972 -1.1355,-0.933768 0.14948,-0.84292 0.90367,-1.078491 1.59359,-1.396677 0.61799,-0.705842 1.64878,-0.427612 2.27324,-1.034545 0.60094,-0.720951 1.72177,-0.5001 2.37984,-1.137903 0.81434,-0.419968 1.75581,-0.355199 2.63194,-0.537667 0.4909,-0.730277 1.37338,-1.05783 2.22992,-0.98498 0.6813,-0.110781 1.52292,-0.05086 1.92151,-0.722339 0.1282,-0.602501 0.17077,-2.363585 -0.79731,-1.467299 -0.71229,0.381268 -0.9708,1.367605 -1.82651,1.450582 -0.97982,0.137099 -1.78153,0.93109 -2.80082,0.768767 -0.80955,-0.151054 -1.47664,0.185083 -2.08387,0.687235 -0.96232,0.429104 -1.96916,0.76726 -2.94756,1.165353 -0.90161,0.174513 -1.49974,0.844491 -2.17373,1.412728 -0.79874,0.521281 -1.49206,1.198365 -2.38933,1.538643 -0.64897,0.466578 -1.31814,0.896054 -2.00256,1.309704 z" id="path4404" style="fill:#000000;fill-opacity:1;fill-rule:evenodd;stroke:none"/>
  <path d="m 103.5512,76.809586 c 0.70026,-1.494303 0.8361,-3.426453 2.36253,-4.366202 0.78249,-0.750799 3.01468,-0.586033 1.53705,-1.981992 -1.59861,-0.743081 -0.95851,-3.015814 0.71826,-2.869678 1.60525,0.156601 3.78086,0.124229 3.26531,-2.134698 -0.32646,-2.128426 2.44262,-2.935274 3.90333,-2.243507 1.1049,2.119548 2.2909,4.219608 2.8795,6.557032 0.58771,2.130794 1.85472,4.216247 1.42318,6.489053 -1.49715,0.99354 -0.51395,3.221027 -2.48522,3.866506 -0.64398,0.820336 -1.24711,1.815642 0.26524,1.456184 2.04985,0.02062 3.97218,-0.836136 6.00209,-1.019502 0.855,0.370521 3.02095,0.286257 1.51901,1.42943 -0.84195,1.588437 -3.04862,1.724725 -3.14546,3.775578 -0.23189,1.076729 -1.46554,1.944685 -1.77942,2.704293 2.39855,-0.167333 4.78132,-0.54984 7.14428,-0.996726 1.00971,-0.993509 3.7268,-2.078707 4.26341,-2.06941 -3.9754,4.383131 -7.9508,8.766259 -11.9262,13.149389 -6.10952,-1.242615 -12.21905,-2.485228 -18.32857,-3.727844 0.79389,-6.005969 1.58779,-12.011938 2.38168,-18.017906 z" id="path4445" style="fill:#ffcd05;fill-opacity:1;fill-rule:evenodd;stroke:#000000;stroke-width:1px;stroke-linecap:butt;stroke-linejoin:miter;stroke-opacity:1"/>
  <path d="m 107.3826,86.025642 c 0.5516,-0.05762 1.15646,-0.01882 1.52102,-0.520908 0.53607,-0.441001 1.08301,-0.882134 1.44293,-1.48628 0.63316,-0.946596 1.37191,-1.816665 2.19181,-2.606305 0.5445,-0.411901 1.13605,-0.780985 1.74044,-1.073652 0.21983,-0.515514 -0.65797,-0.378356 -0.97344,-0.389481 -0.45143,0.104764 -1.37934,0.477262 -1.16079,-0.312326 -0.0144,-1.398097 0.0404,-2.799526 -0.0337,-4.195404 -0.14644,-0.72191 0.0465,-1.574219 -0.53464,-2.12799 -0.40611,-0.574679 -0.79006,-1.179855 -1.43836,-1.503815 -0.61517,-0.499829 -1.40887,-0.632798 -2.13402,-0.902315 -0.40363,0.319547 -0.67188,0.622845 -0.0105,0.736074 1.01529,0.359121 1.88688,0.999165 2.80635,1.542047 0.15867,0.774267 0.50298,1.533699 0.38299,2.337992 -0.0152,1.414449 -0.19108,2.818438 -0.39787,4.215492 -0.17497,0.220421 -0.38757,1.157607 -0.51583,0.487998 -0.2164,-0.393787 -0.28594,-1.131524 -0.59542,-1.307329 -0.42148,0.130161 -0.80347,0.283935 -0.47491,0.74963 0.29945,0.602039 0.25186,1.25534 0.19667,1.905138 0.0447,0.636355 -0.17512,1.214397 -0.44167,1.778292 -0.21306,0.511357 -0.42613,1.022715 -0.63919,1.534074 -0.33373,0.324195 -1.07482,0.430373 -0.93196,1.009628 l 0,0.12944 0,0 z" id="path4449" style="fill:#000000;fill-opacity:1;fill-rule:evenodd;stroke:none"/>
  <path d="m 121.10313,86.543396 c -0.52401,0.30993 -1.04021,0.633061 -1.56908,0.93475 -0.6251,0.09891 -1.24499,0.243315 -1.87369,0.311615 -0.50619,0.0079 -1.01423,0.05594 -1.51943,0.03317 -0.33043,-0.05941 -0.67403,-0.07613 -0.99424,-0.170725 -0.41346,-0.231536 -0.82691,-0.463069 -1.24037,-0.694606 -0.15935,0.0564 -0.51784,0.08353 -0.19514,0.209584 0.53751,0.333991 1.04806,0.719032 1.63685,0.960793 0.57919,0.269144 1.14715,0.569431 1.76438,0.743984 0.36376,0.121254 0.72752,0.242508 1.09129,0.363761 0.43273,-0.04955 0.8734,-0.05073 1.30072,-0.134319 0.39483,-0.110557 0.78967,-0.221107 1.18451,-0.331661 0.007,-0.322963 -0.10206,-0.660817 -0.003,-0.973262 0.13923,-0.417695 0.27846,-0.8354 0.41769,-1.253087 z" id="path4453" style="fill:#000000;fill-opacity:1;fill-rule:evenodd;stroke:none"/>
  <path d="m 117.4477,75.401672 c -0.50843,-0.419888 -1.10464,-0.777014 -1.559,-1.235564 -0.18781,-0.557895 -0.43605,-1.106574 -0.33192,-1.708996 0.0413,-2.826041 0.13624,-5.651572 0.1336,-8.478032 -0.50439,-0.70448 -1.22018,-1.288832 -1.43219,-2.159462 -0.1996,-0.693205 -0.16542,-1.197701 -0.54481,-1.794513 -0.004,-0.897412 -0.46165,-1.492225 0.13048,-2.199143 0.23946,-0.316754 0.60437,-1.112948 0.7205,-1.450259 -0.3571,-0.772646 -0.74116,-1.536496 -0.83983,-2.393399 -0.24231,-0.486466 0.24275,-0.858665 0.41783,-1.279561 1.03267,-1.501224 2.13938,-2.954169 3.15889,-4.466339 0.8623,-0.986735 1.82399,-1.866069 2.92616,-2.581927 0.45531,-0.123598 0.98326,-0.0199 1.46715,-0.05406 0.47531,0.607175 1.05879,1.150768 1.25262,1.923403 0.28891,0.644506 0.52914,1.301897 0.56057,2.014563 0.0642,0.785329 0.23993,1.542754 0.56038,2.264001 0.27752,0.808708 1.18322,1.258207 1.34678,2.130968 0.15731,0.593284 0.60271,1.164113 0.35134,1.78925 -0.13946,0.746287 -0.2325,1.507858 -0.64266,2.165028 -0.27197,0.514284 -0.52192,1.034818 -0.50602,1.630769 -0.17386,1.016973 -0.12522,2.040529 -0.0571,3.06466 -0.006,0.63608 0.2088,1.314411 -0.18698,1.876302 -1.03924,2.450295 -2.43916,4.72785 -3.5995,7.116619 -0.40094,1.226418 -0.80189,2.452835 -1.20283,3.679253 -0.70781,0.04881 -1.41562,0.09762 -2.12343,0.146438 z" id="path4424" style="fill:#f3c409;fill-opacity:1;fill-rule:evenodd;stroke:#000000;stroke-width:1px;stroke-linecap:butt;stroke-linejoin:miter;stroke-opacity:1"/>
  <path d="m 118.83891,57.389122 c -0.85032,0.428387 0.74944,1.04313 0.54791,1.730996 0.19442,0.761917 0.0203,1.555985 -0.0883,2.319011 -0.22469,0.530814 -0.23809,1.543353 -0.99354,0.8859 -0.56003,0.0044 -0.90393,-0.886093 -1.19176,-0.884248 -0.24805,0.61709 0.57303,0.957447 0.8294,1.440858 0.39538,0.464298 0.79158,0.927895 1.18914,1.390326 0.20041,0.700565 0.36898,1.414835 0.29318,2.148885 0.0504,2.118341 -0.0984,4.231651 -0.21996,6.344844 0.78573,-0.494372 0.54999,-1.488849 0.72936,-2.27055 0.27374,-2.193332 0.31096,-4.40737 0.5632,-6.603472 0.0721,-0.720294 0.27179,-1.464586 0.7695,-2.014195 0.58291,-0.890878 1.32666,-1.652731 2.03836,-2.438146 -0.6812,-0.385889 -1.03984,0.584487 -1.54023,0.885183 -0.53505,0.511628 -1.05751,1.038097 -1.53509,1.604357 -0.13941,-1.071614 -0.21794,-2.167212 -0.10321,-3.241202 0.60153,-1.102656 1.08133,-2.282622 1.34673,-3.513528 0.0971,-0.515261 1.11904,-1.238837 0.56772,-1.638015 -0.4491,0.03335 -1.20895,0.908968 -1.00259,-0.01174 0.1478,-0.421301 -0.40727,-1.641626 -0.68455,-0.790023 -0.16267,0.534945 0.001,1.498984 -0.78309,0.920447 -0.50677,-0.505907 -1.10935,0.09715 -0.53868,0.508936 0.88316,0.235948 1.32483,1.197447 1.21406,2.049672 -0.0988,0.495199 -0.11387,1.47368 -0.7666,1.461664 -0.21288,-0.09707 -0.42746,-0.19038 -0.641,-0.285962 z" id="path4427" style="fill:#000000;fill-opacity:1;fill-rule:evenodd;stroke:none"/>
  <path d="m 118.56613,74.220802 c 1.48242,-0.483078 2.92669,-1.125135 4.48805,-1.313671 0.90923,-0.115593 1.66218,-0.679628 2.46637,-1.076579 0.57174,-0.315213 1.02394,-0.80014 1.58264,-1.134664 0.85598,0.04033 1.82434,-0.428256 2.5927,0.007 0.70846,0.284405 1.36338,0.989902 2.16783,0.74557 0.75279,0.0332 1.31381,-0.410583 1.83652,-0.897044 0.72287,-0.335088 0.83871,-1.023254 0.90337,-1.741191 0.10787,-0.647195 0.21574,-1.29439 0.32361,-1.941585 -0.58679,-1.449719 -1.17358,-2.899435 -1.76037,-4.349152 -1.10455,-0.517757 -2.20909,-1.035513 -3.31364,-1.553268 -0.91485,0.0064 -1.84758,-0.07972 -2.72585,0.241367 -0.6514,0.258245 -0.29201,1.374847 -0.66665,1.943892 -0.39112,0.56661 -0.68628,1.265447 -1.41219,1.459702 -0.65975,0.215582 -0.52124,1.093659 -0.78708,1.636151 -0.63659,0.464739 -1.64573,0.570996 -1.96028,1.345975 -0.41159,0.736934 -0.59269,1.655007 -1.29679,2.179926 -0.48432,0.713101 -1.42241,0.718656 -2.02037,1.196815 -0.24155,0.748869 -1.3318,1.47801 -0.96152,2.2411 0.18122,0.336542 0.36243,0.673086 0.54365,1.009626 z" id="path4412" style="fill:#f9cc07;fill-opacity:1;fill-rule:evenodd;stroke:#000000;stroke-width:1px;stroke-linecap:butt;stroke-linejoin:miter;stroke-opacity:1"/>
  <path d="m 122.06067,68.299164 c 0.63827,-0.07083 1.27522,-0.180034 1.91998,-0.146446 0.35826,0.0883 0.60211,-0.18804 0.87374,-0.370173 0.39778,-0.289028 0.79854,-0.576207 1.25082,-0.774694 0.37322,-0.201184 0.8224,-0.05589 1.22973,-0.0999 0.29545,0.02056 0.39917,-0.369791 0.65741,-0.471382 0.27825,-0.106364 0.53984,-0.308513 0.85229,-0.260834 0.44788,0 0.89576,0 1.34364,0 0.0137,0.266857 0.006,0.537558 -0.12682,0.777509 -0.0648,0.443793 -0.63768,0.248658 -0.95668,0.383634 -0.3887,0.10843 -0.74047,0.326761 -1.11571,0.47649 -0.29145,0.165485 -0.60613,0.229038 -0.93907,0.192911 -0.33234,-0.08298 -0.56304,0.128464 -0.79361,0.333849 -0.24511,0.185272 -0.47249,0.408897 -0.73779,0.558619 -0.81572,0.196668 -1.62314,0.425504 -2.43283,0.645191 -0.48814,-0.04882 -0.97629,-0.09763 -1.46443,-0.146447 0.14644,-0.366109 0.29289,-0.732219 0.43933,-1.098327 z" id="path4414" style="fill:#000000;fill-opacity:1;fill-rule:evenodd;stroke:none"/>
  <path d="m 44.09375,64.9375 c -0.29771,0.01133 -0.563423,0.100036 -0.71875,0.28125 -0.621307,0.724858 -0.697302,1.452839 -0.59375,2.28125 0.103551,0.82841 0.40625,1.343747 0.40625,1.34375 0,0 -2.278836,-0.537359 -3.625,0.1875 -1.346166,0.724858 -2.503694,1.989536 -2.84375,2.28125 -2.756377,3.367028 -3.101724,4.671287 -3.6875,6.0625 -0.585774,1.391213 -1.259808,2.869511 -1.40625,4.1875 -0.146444,1.317992 -0.282165,5.178346 -0.0625,7.375 0.199891,1.998914 0.47505,4.286245 0.53125,4.75 -0.08237,-0.228818 -0.284781,-0.463387 -0.6875,-0.5 -0.80544,-0.07322 -2.341005,0.432926 -3,1.53125 -0.658996,1.098327 -0.958944,2.57845 -0.8125,3.75 0.146444,1.171548 0.735616,2.54903 1.6875,3.28125 0.951883,0.73221 1.984703,0.96875 3.15625,0.96875 1.171548,0 0.196785,1.28687 1.09375,3.0625 0.896966,1.77563 1.389168,2.47608 2.5,4.03125 1.098327,1.53766 4.963912,7.76844 8.625,10.84375 3.661087,3.07531 10.845056,7.77209 15.53125,9.96875 4.686193,2.19665 8.062631,3.50066 15.53125,5.84375 7.468619,2.3431 14.330934,2.06433 17.40625,1.625 3.075313,-0.43933 5.864673,0.12068 10.84375,-1.34375 4.97908,-1.46444 12.01111,-4.08278 16.84375,-6.71875 4.83263,-2.63599 8.33892,-5.71391 12,-9.375 3.66108,-3.66109 7.78374,-9.588 9.6875,-13.46875 1.90376,-3.88076 3.42495,-9.018437 3.9375,-12.09375 0.51256,-3.075314 1.03126,-8.500004 1.03125,-8.5 0,0 1.7687,-0.05884 2.28125,-0.9375 0.51255,-0.878661 0.78125,-3.593753 0.78125,-3.59375 0,0 1.55975,0.358133 2.21875,-0.59375 0.659,-0.951883 1.3125,-4.156253 1.3125,-4.15625 l 1.75,-2.21875 c 0,0 0.88572,-0.777592 0.8125,-1.65625 -0.0732,-0.878661 0.12958,-1.977639 -0.96875,-2.34375 -1.09832,-0.366109 -4.21875,0.718753 -4.21875,0.71875 0,0 0.20462,-0.717832 -1.40625,-0.9375 -1.61088,-0.219666 -6.15625,4.312502 -6.15625,4.3125 0,0 -2.12043,-2.86062 -3.21875,-3.8125 -1.09832,-0.951883 -3.28124,-1.624997 -3.28125,-1.625 0,0 1.0187,0.37748 1.53125,2.28125 0.51255,1.903765 -0.875,6.812503 -0.875,6.8125 0,0 -1.18383,-3.517784 -2.0625,-4.25 -0.87866,-0.732217 -3.21234,-1.3125 -4.75,-1.3125 -1.53766,0 -5.28831,1.382973 -6.09375,1.96875 -0.80544,0.585774 -5.83211,4.476725 -6.125,5.0625 -0.29288,0.585774 0.41423,1.59375 1,1.59375 0.58577,0 3.73745,0.145527 4.25,0.21875 0.51255,0.07322 0.58826,1.467837 1.90625,1.6875 1.31799,0.219665 2.87317,0.220583 3.3125,-0.21875 0.43933,-0.43933 0.71875,-0.781251 0.71875,-0.78125 0,0 -0.14371,1.879312 -0.65625,3.34375 -0.51255,1.464435 -3.08735,2.92403 -4.625,3.65625 -1.53766,0.732217 -3.36244,2.288313 -3.875,3.09375 -0.51255,0.80544 -1.25,1.687498 -1.25,1.6875 0,0 -2.54629,0.864277 -3.9375,0.9375 -1.39121,0.07322 -7.5532,-1.382893 -10.43125,-2.883524 -2.79697,-1.458347 -7.117509,-6.193506 -8.224611,-10.716294 2.124518,-0.635504 4.988061,-2.37955 5.846601,-4.396944 1.03927,-2.442099 -0.23307,-5.236563 -1.21642,-6.327409 -2.724709,-3.022536 -6.515803,-2.940894 -9.18682,-1.808971 -2.5835,1.094834 -4.041762,3.075181 -4.041762,3.075181 0,0 -2.379327,-3.136424 -4.930669,-4.12692 -2.551343,-0.990496 -4.727353,-0.484006 -6.791264,1.258256 -2.002815,1.690687 -5.475226,10.70449 3.282039,11.865089 0,0 -1.740034,6.084503 -6.324308,9.584262 -4.584273,3.499759 -9.376804,4.414771 -12.012786,4.414774 -2.635984,0 -7.958379,-1.895882 -9.71875,-3.65625 -1.76037,-1.76037 -1.362782,-3.081537 -2.8125,-4.53125 -1.449717,-1.449717 -1.753693,-1.267185 -2.375,-2.40625 -0.621307,-1.139063 -0.621308,-2.589487 0,-3.625 0.621308,-1.035512 0.943038,-0.906249 1.875,-0.90625 0.931961,0 0.82784,1.128695 1.65625,1.75 0.82841,0.621308 1.964489,0.935656 3,0.625 1.035512,-0.310654 1.740199,-0.630537 1.84375,-1.5625 0.103551,-0.931961 0.124998,-2.187497 0.125,-2.1875 0,0 0.829685,1.164206 1.96875,0.75 1.139063,-0.414205 2.59375,-2.499998 2.59375,-2.5 0,0 1.552699,-0.191193 1.65625,-0.8125 0.103551,-0.621307 -0.234091,-2.304548 -1.0625,-2.71875 -0.82841,-0.414205 -2.464489,-1.132382 -3.5,-2.375 -1.035512,-1.242615 -0.303976,-2.464489 -2.375,-3.5 -2.071024,-1.035512 -5.400142,-1.5625 -6.125,-1.5625 -0.724859,0 -1.554547,-0.417898 -1.96875,-0.625 -0.310654,-0.155327 -1.606871,-0.721478 -2.5,-0.6875 z m -3.25,26.4375 c 2e-6,-3e-6 0.598718,2.041711 4.40625,4.53125 3.807532,2.489543 8.645267,4.96692 11.28125,5.40625 2.635984,0.43933 8.026673,0.67397 10.53125,0.15625 3.835706,-0.79287 11.61363,-5.932669 16.014556,-12.093965 0,0 3.410049,3.270279 6.1082,3.270279 2.703114,0 5.200466,-3.630289 5.200466,-3.630289 -10e-7,-3e-6 5.064724,7.903766 9.458028,9.953975 4.39331,2.05021 10.96025,3.51346 15.5,2.78125 4.53975,-0.73222 17.28125,-5.6875 17.28125,-5.6875 -1e-5,10e-7 0.1654,2.169193 -2.03125,6.5625 -2.19665,4.3933 -5.44495,10.2513 -11.15625,14.9375 -5.7113,4.68619 -12.5761,8.35604 -19.3125,10.40625 -6.736401,2.05021 -15.364671,3.24202 -20.34375,2.65625 -4.979084,-0.58578 -10.118986,-1.3193 -16.5625,-4.6875 -6.443517,-3.3682 -11.854864,-5.7164 -16.6875,-11.28125 -4.832634,-5.56486 -8.789226,-10.71208 -9.375,-14.8125 C 40.570476,95.743331 40.990194,91.375 40.84375,91.375 z" id="path7077" style="fill:#ffcb05;fill-opacity:1;fill-rule:evenodd;stroke:#000000;stroke-width:1px;stroke-linecap:butt;stroke-linejoin:miter;stroke-opacity:1"/>
  <path d="m 126.85022,76.628365 c 0.27149,-0.166668 0.48542,-0.457966 0.80253,-0.525847 0.28048,-0.0055 0.63621,-0.28891 0.83286,0.0054 0.23736,0.194401 -0.0565,0.445081 -0.0831,0.670142 -0.14608,0.242439 -0.49683,0.197495 -0.73152,0.315492 -0.29723,0.108233 -0.61783,-0.01916 -0.92589,-0.02023 -0.26181,-0.09501 -0.0566,-0.361908 0.10516,-0.444948 z" id="path3223" style="fill:#000000;fill-opacity:1;fill-rule:evenodd;stroke:none"/>
  <path d="m 131.72594,85.359833 c 0.0826,-0.719884 -0.007,-1.484728 0.3555,-2.142035 0.24018,-0.703288 0.57969,-1.370251 1.29343,-1.683517 0.60098,-0.285632 1.20516,-0.848356 1.87393,-0.817633 0.39841,0.494085 -0.65624,0.705716 -0.93733,0.997452 -0.32717,0.407052 -0.54247,0.901599 -0.81414,1.349772 -0.43722,0.800925 -0.68251,1.690249 -1.14314,2.480926 -0.19688,0.654982 -0.36803,1.317278 -0.55503,1.975077 -0.30496,-0.368349 -0.0433,-0.870756 -0.10509,-1.299236 0.0106,-0.286935 0.0212,-0.573876 0.0319,-0.860806 z" id="path4204" style="fill:#000000;fill-opacity:1;fill-rule:evenodd;stroke:none"/>
  <path d="m 139.27637,85.766762 c 0.29793,-1.263148 0.67674,-2.51177 0.78999,-3.809978 0.15218,-0.951022 0.23281,-1.90867 0.22354,-2.871928 0.08,-0.423029 -0.19389,-1.128315 0.35846,-1.250211 0.40048,0.515956 0.33535,1.210457 0.5072,1.813953 0.17902,0.80245 0.0673,1.632334 0.19184,2.442093 0.51964,-0.05809 1.39812,0.776036 0.52444,0.943657 -0.53721,0.175291 -1.02949,0.37555 -1.00002,1.032548 -0.097,0.466343 -0.46362,1.25435 0.336,1.058232 0.80284,-0.169464 0.74001,0.874894 0.20081,1.076852 -0.66246,0.276146 -0.95071,1.009875 -1.44701,1.490033 -0.41051,0.394414 -0.85288,0.815 -1.35942,1.070649 -0.4191,0.08057 -1.14292,0.544299 -0.96705,-0.218736 0.42156,-0.493307 0.85257,-0.982843 1.12625,-1.57811 0.22872,-0.374322 0.37364,-0.78633 0.51497,-1.199054 z" id="path4219" style="fill:#000000;fill-opacity:1;fill-rule:evenodd;stroke:none"/>
  <path d="m 145.33411,74.169029 c -0.25611,0.550473 -0.72042,1.043446 -0.66169,1.688463 0.0351,0.691659 0.19585,1.376285 0.31378,2.059713 0.30875,0.605377 1.28849,0.168472 1.69813,-0.162158 0.53704,-0.406065 0.84401,-1.013869 1.26092,-1.52617 0.68404,-0.355571 1.37159,-0.710914 2.12991,-0.879659 0.26893,-0.213494 0.80351,-0.06602 0.35605,0.192265 -0.52778,0.314289 -1.29466,0.356766 -1.65184,0.86486 -0.33467,0.52042 -0.66985,1.048849 -0.64489,1.693705 -0.0944,0.66988 -0.29154,1.358798 0.20262,1.919621 -0.54209,0.25178 -0.96766,-0.41249 -1.47537,-0.547531 -0.61909,-0.196748 -1.44162,-0.02177 -1.65845,0.681005 -0.26424,0.502399 -0.27369,1.18275 -0.0211,1.687385 0.43355,0.410871 0.89855,0.804505 0.92854,1.464189 0.20639,0.912667 -0.9554,0.695424 -1.13606,0.03546 -0.47464,-0.41349 -1.19278,-0.799421 -1.00437,-1.555499 0.15992,-1.636798 0.40746,-3.30996 0.0454,-4.936663 -0.14814,-0.70821 -0.46852,-1.344463 -0.85916,-1.947005 -0.18723,-0.304301 -0.46325,-0.688644 0.0483,-0.36308 0.49628,0.321191 0.9852,0.423364 1.45619,-0.0065 0.22436,-0.120808 0.44873,-0.241622 0.67308,-0.362427 z" id="path4229" style="fill:#000000;fill-opacity:1;fill-rule:evenodd;stroke:none"/>
  <path d="m 79.423772,73.806597 c -0.02589,-1.139063 1.361966,-2.019248 2.562892,-2.019248 1.197853,0 2.789411,0.634251 3.65018,2.769995 0.851802,2.113492 0.522197,5.967262 -0.06954,8.440184 -0.575181,2.403724 -0.851761,3.980125 -2.443861,6.284139" id="path4464" style="fill:none;stroke:#000000;stroke-width:1px;stroke-linecap:butt;stroke-linejoin:miter;stroke-opacity:1"/>
  <path d="m 98.165778,73.806597 c 0.02589,-1.139063 -1.361966,-2.019248 -2.562892,-2.019248 -1.197853,0 -2.789411,0.634251 -3.65018,2.769995 -0.851802,2.113492 -0.972319,3.990275 -0.735897,6.536419 0.236422,2.546143 1.980551,5.517782 3.285911,8.041461" id="path4466" style="fill:none;stroke:#000000;stroke-width:1px;stroke-linecap:butt;stroke-linejoin:miter;stroke-opacity:1"/>
  <path d="m 79.134417,81.790275 c 1.168604,0.123243 1.987983,0.06227 3.269092,-0.410684 1.264985,-0.467003 1.808503,-1.544289 2.460505,-2.975828 -0.786654,1.06873 -1.373333,1.763365 -2.521338,2.24394 -1.15463,0.483349 -2.236911,0.371273 -3.171653,0.208989 -0.0122,0.207464 -0.0244,0.72612 -0.03661,0.933583 z" id="path4470" style="fill:#000000;fill-opacity:1;fill-rule:evenodd;stroke:none"/>
  <path d="m 98.00732,82.101468 c -1.168604,0.123243 -1.987983,0.06227 -3.269092,-0.410684 -1.264985,-0.467003 -1.991557,-1.525984 -2.460505,-2.975828 0.786654,1.06873 1.373333,1.763365 2.521338,2.24394 1.15463,0.483349 2.236911,0.371273 3.171653,0.208989 0.0122,0.207464 0.0244,0.72612 0.03661,0.933583 z" id="path4474" style="fill:#000000;fill-opacity:1;fill-rule:evenodd;stroke:none"/>
  <path d="m 57.160264,79.553689 c 0,0 -2.433454,-2.071024 -3.106537,-2.58878 -0.673083,-0.517756 -1.190839,-0.724858 -1.190839,-0.517756 0,0.207102 0.103552,0.931961 0.569532,1.449717 0.46598,0.517756 1.915697,1.863921 1.915697,1.863921 l 1.812147,-0.207102 z" id="path7084" style="fill:#000000;fill-opacity:1;fill-rule:evenodd;stroke:none"/>
  <path d="m 43.025524,67.127545 0.931961,1.29439 1.242615,0.828409 0.828409,0.310654 -0.103551,0.310654 -0.82841,0.155326 -1.346165,-0.414204 -1.035512,-0.724859 0.310653,-1.76037 z" id="path4238" style="fill:#000000;fill-opacity:1;fill-rule:evenodd;stroke:none"/>
  <path d="m 50.962341,69.836823 c 0.31027,0.322392 0.479923,0.824141 0.901543,1.004506 0.412713,0.207333 0.733056,0.108967 0.999487,0.521259 0.233044,0.226773 0.686851,0.947408 1.033457,0.569665 0.266927,-0.252298 0.581881,-1.11866 0.320691,-1.309883 -0.369322,-0.426393 -1.3489,-0.225509 -1.802152,-0.550834 -0.345077,-0.20754 -0.748793,-0.376532 -0.965641,-0.701318 -0.394636,-0.345403 -0.42603,0.07729 -0.462445,0.392651 l -0.02494,0.07395 0,0 z" id="path4476" style="fill:#000000;fill-opacity:1;fill-rule:evenodd;stroke:none"/>
  <path d="m 119.64435,94.622385 3.18515,-0.549162 c -0.0366,1.464435 -0.21967,1.830543 -0.54917,2.782426 -0.48852,1.411276 -2.74581,4.832641 -2.74581,4.832641" id="path4484" style="fill:none;stroke:#000000;stroke-width:1px;stroke-linecap:butt;stroke-linejoin:miter;stroke-opacity:1"/>
  <path d="m 29.581591,93.707115 c 0.455957,-0.05805 0.938751,-0.109203 1.380906,0.04707 0.241309,0.08677 0.333319,0.347429 0.452387,0.550933 0.201579,0.383189 0.276918,0.867479 0.05674,1.260098 -0.176454,0.37832 -0.379572,0.765895 -0.400308,1.190593 -0.02775,0.233709 0.07715,0.401413 0.171988,0.570701 0.112346,0.168904 0.464366,0.178657 0.677794,0.141374 0.613344,-0.08302 1.096672,-0.569631 1.365134,-1.102339 0.179859,-0.376737 0.275637,-0.789845 0.339202,-1.200709 0.06525,-0.493331 -0.137586,-0.978887 -0.403319,-1.383129 -0.3948,-0.49251 -1.011373,-0.731471 -1.600705,-0.902165 -0.122986,-0.05361 -0.24401,-0.06165 -0.353769,0.01826 -0.562018,0.269769 -1.124036,0.539538 -1.686054,0.809307 z" id="path5750" style="fill:#000000;fill-opacity:1;fill-rule:evenodd;stroke:none"/>
  <path d="m 35.65625,87.78125 c 0,0 0.96875,4.378538 0.96875,5.40625 0,0.991202 -0.295504,2.691817 -0.625,4.15625 -0.321663,1.42961 -0.924948,2.81603 -1.4375,3.21875 -0.472154,0.37097 -1.546288,1.19731 -2.9375,1.34375 -1.04341,0.10983 -1.781413,-0.14396 -2.09375,-0.28125 0.506284,0.33164 3.568975,2.01499 4.46875,1.46875 0.244946,-0.1487 0.502536,-0.41353 0.75,-0.71875 0.294317,1.43154 0.520267,2.32963 0.96875,2.90625 0.512554,0.659 1.03125,1.09375 1.03125,1.09375 2e-6,0 -0.863363,-1.17312 -1.15625,-2.125 -0.21432,-0.69655 -0.307293,-1.87052 -0.34375,-2.59375 0.531867,-0.83375 0.997322,-1.782206 1.15625,-2.34375 0.274582,-0.97019 0.75,-2.617674 0.75,-4.375 0,-1.757322 -0.162568,-2.379713 -0.40625,-3.25 -0.24368,-0.870284 -1.093752,-3.906253 -1.09375,-3.90625 z" id="path5753" style="fill:#000000;fill-opacity:1;fill-rule:evenodd;stroke:none"/>
  <path d="m 48.461962,120.71529 c 4.893956,2.96135 22.679663,13.2446 42.495837,12.95126 19.816181,-0.29334 29.541471,-8.09047 40.552221,-15.85069 -8.14151,10.16133 -25.95482,17.89659 -42.137973,17.89659 -16.475944,0 -37.9071,-11.47642 -40.910085,-14.99716 z" id="path5758" style="fill:#000000;fill-opacity:1;fill-rule:evenodd;stroke:none"/>
  <path d="m 103.22526,108.63346 0,10.08536 c 0,0 -3.373672,-4.19287 -5.380113,-4.22789 l -7.034967,0 0,9.73486 c -0.06001,0.8582 1.232261,1.31963 3.145722,1.31963 l 0,2.125 -11.21502,0 0,-2.125 2.777603,0 0,-28.289203 -4.03125,0 0,-2.760527 18.391656,0 c 0,0 3.070849,8.3636 3.156079,10.80432 l -1.17006,0 c -0.47913,-2.2541 -4.937362,-8.043793 -6.322972,-8.043793 l -4.825508,0 0,14.643153 7.128717,0 c 2.192833,0 5.380113,-3.26591 5.380113,-3.26591 z" id="lettreF" style="fill:#ffe991;fill-opacity:1;stroke:#000000;stroke-width:0.5;stroke-linecap:butt;stroke-linejoin:bevel;stroke-miterlimit:4;stroke-opacity:1;stroke-dashoffset:0"/>
  <path d="m 73.4375,100.5 0,1.96875 4.03125,0 0,21.03125 -4.03125,0 0,2.125 13.0625,0 0,-2.125 -3.9375,0 0,-9.9375 3.59375,0 13.125,12.09375 c 1.07309,1.02643 1.64467,1.17436 4.1875,1.21875 2.58948,0.0452 5.01293,-2.1431 5.0625,-3.5625 0.0479,-1.3728 -1.11078,-2.09375 -2.4375,-2.09375 -1.28005,0 -2.50175,0.4467 -2.875,2.40625 l -10.6875,-10.0625 c 6.221219,0 10.15625,-2.47353 10.15625,-6.53125 0,-4.10437 -3.697575,-6.53125 -5.84375,-6.53125 l -23.40625,0 z m 9.03125,1.96875 11.09375,0 c 1.979001,-0.13839 4.03125,2.25663 4.03125,4.5 0,2.24337 -1.590534,4.38352 -4.03125,4.46875 l -11.09375,0 0,-8.96875 z" id="lettreR" style="fill:#ffe991;fill-opacity:1;stroke:#000000;stroke-width:0.5;stroke-linecap:butt;stroke-linejoin:bevel;stroke-miterlimit:4;stroke-opacity:1;stroke-dashoffset:0"/>
</svg>