<?xml version="1.0" encoding="UTF-8"?>
<!DOCTYPE svg PUBLIC "-//W3C//DTD SVG 1.1//EN" "http://www.w3.org/Graphics/SVG/1.1/DTD/svg11.dtd">
<svg xmlns="http://www.w3.org/2000/svg" version="1.1" width="700px" height="850px" style="shape-rendering:geometricPrecision; text-rendering:geometricPrecision; image-rendering:optimizeQuality; fill-rule:evenodd; clip-rule:evenodd" xmlns:xlink="http://www.w3.org/1999/xlink">
<g><path style="opacity:1" fill="#493d00" d="M 76.5,74.5 C 258.5,74.5 440.5,74.5 622.5,74.5C 622.667,199.167 622.5,323.834 622,448.5C 616.593,496.127 604.927,542.127 587,586.5C 560.17,635.918 525.337,679.084 482.5,716C 451.746,738.544 418.079,755.544 381.5,767C 374.105,769.132 366.772,771.465 359.5,774C 352.833,776 346.167,776 339.5,774C 307.673,764.415 277.006,752.082 247.5,737C 222.337,721.187 199.504,702.354 179,680.5C 168.373,667.538 157.373,654.871 146,642.5C 134.177,624.199 122.844,605.532 112,586.5C 94.0733,542.127 82.4067,496.127 77,448.5C 76.5,323.834 76.3333,199.167 76.5,74.5 Z"/></g>
<g><path style="opacity:1" fill="#bfc0bf" d="M 81.5,79.5 C 260.167,79.5 438.833,79.5 617.5,79.5C 617.5,101.833 617.5,124.167 617.5,146.5C 533.085,146.25 448.751,145.916 364.5,145.5C 359.167,134.833 353.833,134.833 348.5,145.5C 302.833,146.833 257.167,146.833 211.5,145.5C 209.808,143.641 208.308,141.641 207,139.5C 206.023,141.74 205.523,144.073 205.5,146.5C 164.167,146.5 122.833,146.5 81.5,146.5C 81.5,124.167 81.5,101.833 81.5,79.5 Z"/></g>
<g><path style="opacity:1" fill="#fed700" d="M 355.5,140.5 C 357.017,140.511 358.184,141.177 359,142.5C 360.697,144.699 362.197,147.032 363.5,149.5C 361.476,151.69 359.643,154.023 358,156.5C 357.675,158.553 358.009,160.553 359,162.5C 362.336,159.328 366.169,158.328 370.5,159.5C 371.833,161.5 371.833,163.5 370.5,165.5C 367.526,164.423 364.526,164.423 361.5,165.5C 361.412,169.306 362.079,172.973 363.5,176.5C 366.902,177.912 370.402,178.912 374,179.5C 376.826,176.516 379.159,173.183 381,169.5C 381.737,173.207 382.571,176.873 383.5,180.5C 385.527,180.662 387.527,180.495 389.5,180C 392.519,177.459 395.019,174.625 397,171.5C 397.798,169.741 397.631,168.074 396.5,166.5C 390.056,163.43 389.056,159.263 393.5,154C 394.5,153.333 395.5,153.333 396.5,154C 398.041,156.916 399.707,159.749 401.5,162.5C 402.522,159.559 403.355,156.559 404,153.5C 408.2,149.491 412.033,149.991 415.5,155C 407.722,160.377 402.222,167.543 399,176.5C 398.503,179.146 398.336,181.813 398.5,184.5C 370.5,184.5 342.5,184.5 314.5,184.5C 314.664,181.813 314.497,179.146 314,176.5C 310.778,167.543 305.278,160.377 297.5,155C 300.967,149.991 304.8,149.491 309,153.5C 309.645,156.559 310.478,159.559 311.5,162.5C 313.293,159.749 314.959,156.916 316.5,154C 321.296,154.147 323.13,156.647 322,161.5C 320.595,163.651 318.761,165.318 316.5,166.5C 315.398,169.19 315.564,171.857 317,174.5C 319.46,175.958 321.627,177.791 323.5,180C 325.473,180.495 327.473,180.662 329.5,180.5C 330.429,176.873 331.263,173.207 332,169.5C 333.841,173.183 336.174,176.516 339,179.5C 342.598,178.912 346.098,177.912 349.5,176.5C 350.921,172.973 351.588,169.306 351.5,165.5C 348.474,164.423 345.474,164.423 342.5,165.5C 341.167,163.5 341.167,161.5 342.5,159.5C 346.831,158.328 350.664,159.328 354,162.5C 354.991,160.553 355.325,158.553 355,156.5C 353.357,154.023 351.524,151.69 349.5,149.5C 351.526,146.482 353.526,143.482 355.5,140.5 Z"/></g>
<g><path style="opacity:1" fill="#fed700" d="M 207.5,147.5 C 213.28,151.69 217.113,157.357 219,164.5C 219.809,169.363 219.142,174.03 217,178.5C 214.204,184.658 210.871,184.992 207,179.5C 204.323,175.148 202.489,170.482 201.5,165.5C 202.183,161.801 203.683,158.468 206,155.5C 206.822,152.883 207.322,150.216 207.5,147.5 Z"/></g>
<g><path style="opacity:1" fill="#0000ff" d="M 81.5,148.5 C 122.5,148.5 163.5,148.5 204.5,148.5C 204.162,150.854 203.662,153.187 203,155.5C 199.621,156.78 196.121,158.613 192.5,161C 190.338,162.645 189.005,164.812 188.5,167.5C 191.215,172.759 193.215,178.259 194.5,184C 194.547,187.073 193.38,189.573 191,191.5C 190.487,185.578 188.487,180.245 185,175.5C 178.151,169.315 171.984,162.482 166.5,155C 158.772,151.853 150.772,150.52 142.5,151C 139.088,152.455 135.921,154.288 133,156.5C 132.503,158.81 132.337,161.143 132.5,163.5C 137.258,162.15 141.924,162.316 146.5,164C 147.357,164.689 148.023,165.522 148.5,166.5C 147.399,168.642 146.399,170.808 145.5,173C 146.687,174.019 147.687,175.186 148.5,176.5C 137.427,176.222 127.094,179.055 117.5,185C 114.833,188.667 112.167,192.333 109.5,196C 115.106,195.15 120.772,194.817 126.5,195C 125.735,207.668 131.735,212.335 144.5,209C 149.186,206.432 153.853,206.765 158.5,210C 154.835,211.497 151.502,213.497 148.5,216C 126.313,216.169 103.979,216.335 81.5,216.5C 81.5,193.833 81.5,171.167 81.5,148.5 Z"/></g>
<g><path style="opacity:1" fill="#0000ff" d="M 214.5,148.5 C 243.169,148.333 271.835,148.5 300.5,149C 297.537,150.961 294.871,153.294 292.5,156C 303.885,162.306 310.052,171.806 311,184.5C 309.104,185.68 307.604,187.18 306.5,189C 307.272,190.221 308.272,191.221 309.5,192C 308.062,192.219 306.729,192.719 305.5,193.5C 307.046,198.439 310.379,201.272 315.5,202C 314.421,202.956 313.255,203.789 312,204.5C 310.643,210.53 306.81,213.363 300.5,213C 299.5,214 298.5,215 297.5,216C 268.828,216.833 240.161,216.667 211.5,215.5C 209.185,210.354 209.019,205.021 211,199.5C 212.616,195.653 213.616,191.653 214,187.5C 221.493,179.862 223.826,170.862 221,160.5C 218.977,156.34 216.811,152.34 214.5,148.5 Z"/></g>
<g><path style="opacity:1" fill="#0000ff" d="M 308.5,149.5 C 320.989,148.505 333.656,148.171 346.5,148.5C 346.933,151.285 348.266,153.619 350.5,155.5C 338.462,154.415 335.296,159.415 341,170.5C 343.066,167.868 345.566,167.201 348.5,168.5C 346.905,170.452 346.405,172.452 347,174.5C 344.205,175.783 341.372,175.783 338.5,174.5C 336,170.167 333.5,165.833 331,161.5C 329.542,166.452 328.209,171.452 327,176.5C 326.586,176.957 326.086,177.291 325.5,177.5C 322.45,175.451 320.117,172.784 318.5,169.5C 327.364,163.157 327.697,156.49 319.5,149.5C 316.724,150.089 314.39,151.422 312.5,153.5C 311.995,151.231 310.662,149.897 308.5,149.5 Z"/></g>
<g><path style="opacity:1" fill="#0000ff" d="M 366.5,148.5 C 379.171,148.333 391.838,148.5 404.5,149C 402.396,149.791 401.063,151.291 400.5,153.5C 398.61,151.422 396.276,150.089 393.5,149.5C 385.303,156.49 385.636,163.157 394.5,169.5C 392.883,172.784 390.55,175.451 387.5,177.5C 386.914,177.291 386.414,176.957 386,176.5C 384.791,171.452 383.458,166.452 382,161.5C 379.5,165.833 377,170.167 374.5,174.5C 371.628,175.783 368.795,175.783 366,174.5C 366.595,172.452 366.095,170.452 364.5,168.5C 367.434,167.201 369.934,167.868 372,170.5C 377.704,159.415 374.538,154.415 362.5,155.5C 364.734,153.619 366.067,151.285 366.5,148.5 Z"/></g>
<g><path style="opacity:1" fill="#0000ff" d="M 412.5,149.5 C 431.329,148.338 450.329,148.171 469.5,149C 459.69,151.646 452.523,157.48 448,166.5C 446.186,170.953 444.186,175.286 442,179.5C 440,175.5 438,171.5 436,167.5C 436.022,176.699 434.022,185.366 430,193.5C 429.667,196.5 429.333,199.5 429,202.5C 426.705,199.203 424.038,196.203 421,193.5C 420.667,193.833 420.333,194.167 420,194.5C 417.798,201.967 418.631,209.133 422.5,216C 418.179,216.499 413.846,216.666 409.5,216.5C 410.36,209.908 408.36,204.408 403.5,200C 405.167,197.667 406.833,195.333 408.5,193C 406.833,192.667 405.167,192.333 403.5,192C 404.728,191.221 405.728,190.221 406.5,189C 405.396,187.18 403.896,185.68 402,184.5C 402.948,171.806 409.115,162.306 420.5,156C 418.229,153.218 415.563,151.051 412.5,149.5 Z"/></g>
<g><path style="opacity:1" fill="#0000ff" d="M 480.5,148.5 C 498.503,148.333 516.503,148.5 534.5,149C 532.564,149.813 530.564,150.313 528.5,150.5C 528.351,151.552 528.517,152.552 529,153.5C 533,157.5 537,161.5 541,165.5C 544.597,171.099 545.764,177.099 544.5,183.5C 535.525,181.644 532.025,185.31 534,194.5C 535.093,196.349 536.426,198.016 538,199.5C 538.688,200.332 538.521,200.998 537.5,201.5C 533.76,205.272 530.426,205.106 527.5,201C 522.817,197.541 517.817,196.874 512.5,199C 514.5,201.667 516.5,204.333 518.5,207C 507.686,208.794 497.686,206.794 488.5,201C 490.284,197.612 491.617,194.112 492.5,190.5C 490.734,182.117 486.067,180.283 478.5,185C 477.333,186.833 476.167,188.667 475,190.5C 471.4,186.452 466.9,184.785 461.5,185.5C 465.997,172.171 472.331,159.838 480.5,148.5 Z"/></g>
<g><path style="opacity:1" fill="#0000ff" d="M 538.5,149.5 C 542.981,148.352 547.648,148.185 552.5,149C 550.954,150.44 550.121,152.273 550,154.5C 546.658,151.648 542.825,149.981 538.5,149.5 Z"/></g>
<g><path style="opacity:1" fill="#0000ff" d="M 554.5,149.5 C 575.327,148.503 596.327,148.169 617.5,148.5C 617.5,171.167 617.5,193.833 617.5,216.5C 608.494,216.666 599.494,216.5 590.5,216C 597.356,203.089 595.023,200.755 583.5,209C 580.18,210.116 576.847,210.783 573.5,211C 581.149,205.524 587.149,198.691 591.5,190.5C 590.837,187.194 590.337,183.861 590,180.5C 586.288,185.879 581.621,190.213 576,193.5C 578.526,188.088 580.859,182.422 583,176.5C 584.339,168.84 582.006,162.507 576,157.5C 573.497,160.502 571.497,163.835 570,167.5C 568.128,158.474 562.961,152.474 554.5,149.5 Z"/></g>
<g><path style="opacity:1" fill="#fe0000" d="M 473.5,150.5 C 474.239,150.369 474.906,150.536 475.5,151C 467.79,161.919 461.79,173.753 457.5,186.5C 448.132,193.646 447.132,201.813 454.5,211C 448.482,213.535 445.982,218.035 447,224.5C 452.528,229.881 458.028,229.714 463.5,224C 464.332,223.312 464.998,223.479 465.5,224.5C 470.997,234.161 472.83,244.494 471,255.5C 462.102,247.134 451.602,242.134 439.5,240.5C 436.855,241.108 434.188,241.608 431.5,242C 425.756,248.463 424.423,247.797 427.5,240C 427.905,239.055 428.572,238.388 429.5,238C 435.5,237.667 441.5,237.333 447.5,237C 440.27,232.311 433.77,226.811 428,220.5C 423.582,214.298 421.916,207.631 423,200.5C 427.865,205.7 433.032,210.533 438.5,215C 440.274,216.756 441.941,216.756 443.5,215C 439.701,212.203 436.201,209.036 433,205.5C 431.538,198.569 432.872,192.236 437,186.5C 437.333,183.833 437.667,181.167 438,178.5C 440.863,184.589 443.03,190.922 444.5,197.5C 445.606,199.976 446.606,199.809 447.5,197C 446.471,192.545 445.138,188.212 443.5,184C 446.956,172.754 452.956,163.087 461.5,155C 465.61,153.485 469.61,151.985 473.5,150.5 Z"/></g>
<g><path style="opacity:1" fill="#fe0000" d="M 535.5,151.5 C 550.425,155.073 557.092,164.406 555.5,179.5C 556.5,179.5 557.5,179.5 558.5,179.5C 559.19,175.51 559.357,171.51 559,167.5C 556.959,163.916 554.792,160.416 552.5,157C 553.38,155.644 553.714,154.144 553.5,152.5C 558.258,153.414 561.758,156.081 564,160.5C 566.414,166.612 567.081,172.946 566,179.5C 565.215,181.286 564.049,182.786 562.5,184C 562.833,184.333 563.167,184.667 563.5,185C 558.535,185.067 554.368,186.9 551,190.5C 550.581,189.328 549.915,188.328 549,187.5C 549.539,173.079 544.039,161.579 532.5,153C 533.737,152.768 534.737,152.268 535.5,151.5 Z"/></g>
<g><path style="opacity:1" fill="#fed700" d="M 143.5,153.5 C 151.078,153.727 158.411,155.227 165.5,158C 167.743,160.488 169.743,163.154 171.5,166C 170.353,168.178 168.687,169.678 166.5,170.5C 162.047,169.776 157.714,168.609 153.5,167C 151.129,164.294 148.463,161.961 145.5,160C 142.24,159.216 139.073,159.383 136,160.5C 135.251,159.365 135.417,158.365 136.5,157.5C 139.059,156.392 141.392,155.059 143.5,153.5 Z"/></g>
<g><path style="opacity:1" fill="#fe0000" d="M 198.5,160.5 C 198.086,170.669 201.919,179.336 210,186.5C 209.095,193.976 207.929,201.476 206.5,209C 206.994,213.496 208.494,217.662 211,221.5C 220.885,232.275 229.552,243.942 237,256.5C 247.035,266.203 257.368,275.537 268,284.5C 271.081,290.331 274.415,295.998 278,301.5C 282.215,306.015 286.715,310.182 291.5,314C 285.5,318.667 279.5,323.333 273.5,328C 263.837,328.637 254.17,329.137 244.5,329.5C 244.5,330.5 244.5,331.5 244.5,332.5C 254.502,332.111 264.502,331.611 274.5,331C 279.627,325.939 285.293,321.606 291.5,318C 293.866,316.767 296.366,315.934 299,315.5C 309.475,316.705 319.975,317.205 330.5,317C 339.62,314.042 345.953,308.209 349.5,299.5C 354.434,299.744 359.101,298.744 363.5,296.5C 367.628,290.578 370.961,284.244 373.5,277.5C 371.95,272.731 370.117,268.065 368,263.5C 367.211,259.909 367.378,256.409 368.5,253C 367.069,252.535 365.903,251.701 365,250.5C 364.167,251.333 363.333,252.167 362.5,253C 363.659,261.36 366.325,269.36 370.5,277C 368.25,283.097 365.25,288.763 361.5,294C 359.913,294.862 358.246,295.529 356.5,296C 349.449,296.444 342.449,297.277 335.5,298.5C 330.616,297.242 325.782,297.242 321,298.5C 314.794,295.752 312.627,291.086 314.5,284.5C 315.242,283.713 316.075,283.047 317,282.5C 318.312,284.955 319.478,287.455 320.5,290C 327.753,291.557 335.086,291.89 342.5,291C 348.113,289.718 352.28,286.551 355,281.5C 358.787,271.54 357.787,261.874 352,252.5C 346.729,248.883 340.895,247.716 334.5,249C 330.511,250.331 326.511,251.665 322.5,253C 321.072,254.916 320.072,257.083 319.5,259.5C 311.73,253.56 305.564,246.226 301,237.5C 300.251,236.365 300.417,235.365 301.5,234.5C 309.818,231.986 311.652,226.986 307,219.5C 305.082,218.458 303.249,217.292 301.5,216C 303.167,215.333 304.833,215.333 306.5,216C 311.054,218.129 315.72,219.962 320.5,221.5C 322.423,229.766 327.423,234.432 335.5,235.5C 338.592,235.493 341.592,234.993 344.5,234C 347.5,231 350.5,228 353.5,225C 352.167,224.333 350.833,224.333 349.5,225C 346.963,227.872 344.13,230.372 341,232.5C 341.482,229.24 341.482,225.907 341,222.5C 337.819,216.748 333.819,216.081 329,220.5C 327.908,223.044 327.241,225.711 327,228.5C 324.99,226.129 323.99,223.463 324,220.5C 327.953,217.1 332.453,215.267 337.5,215C 342.044,216.882 346.044,219.549 349.5,223C 357.516,224.848 362.849,229.681 365.5,237.5C 362.255,239.478 362.088,241.478 365,243.5C 368.209,241.268 369.209,238.268 368,234.5C 366.444,231.102 364.277,228.102 361.5,225.5C 365.067,222.891 368.733,220.557 372.5,218.5C 371.667,218.167 370.833,217.833 370,217.5C 366.704,218.13 363.87,219.63 361.5,222C 359.167,222.667 356.833,222.667 354.5,222C 350.156,219.829 346.156,217.163 342.5,214C 338.698,211.172 334.698,210.839 330.5,213C 327.582,214.709 324.748,216.542 322,218.5C 317.711,217.443 313.544,215.943 309.5,214C 312.642,212.55 314.308,210.05 314.5,206.5C 316.167,205.333 317.833,204.167 319.5,203C 325.923,206.192 332.923,208.025 340.5,208.5C 355.812,207.081 371.145,205.914 386.5,205C 392.89,198.843 399.057,199.01 405,205.5C 409.082,215.375 406.582,222.875 397.5,228C 394.947,228.851 392.614,228.518 390.5,227C 396.567,224.028 399.401,219.195 399,212.5C 395.372,206.403 390.538,205.236 384.5,209C 381.27,212.357 380.937,215.857 383.5,219.5C 384.308,219.192 384.975,218.692 385.5,218C 384.28,213.5 386.113,210.667 391,209.5C 397.116,211.622 398.116,215.288 394,220.5C 390.167,221.667 387.667,224.167 386.5,228C 389.941,230.789 393.941,232.123 398.5,232C 403.454,238.076 408.287,244.243 413,250.5C 415.408,252.956 418.241,254.789 421.5,256C 414.685,257.346 408.019,256.513 401.5,253.5C 401.167,253.833 400.833,254.167 400.5,254.5C 409.476,267.474 420.142,278.807 432.5,288.5C 429.032,291.326 425.032,292.993 420.5,293.5C 415.192,292.383 409.858,291.883 404.5,292C 408.084,294.041 411.584,296.208 415,298.5C 419.751,305.666 424.251,313 428.5,320.5C 396.722,352.576 364.556,385.242 332,418.5C 332.302,410.538 330.468,403.038 326.5,396C 327.186,391.602 329.186,387.935 332.5,385C 331.975,384.308 331.308,383.808 330.5,383.5C 328.851,384.648 327.351,385.981 326,387.5C 324.071,400.763 316.571,408.929 303.5,412C 297.933,414.358 293.767,418.191 291,423.5C 290.009,422.57 289.509,421.404 289.5,420C 292.606,411.578 294.606,402.911 295.5,394C 295.681,389.225 294.681,384.725 292.5,380.5C 295.5,378.667 298.5,376.833 301.5,375C 300.5,374.5 299.5,374 298.5,373.5C 295.112,375.861 291.446,377.694 287.5,379C 276.416,391.087 263.416,393.754 248.5,387C 247.833,386.333 247.167,385.667 246.5,385C 252.703,382.984 258.203,379.817 263,375.5C 264.072,370.868 265.072,366.201 266,361.5C 271.569,356.965 277.403,352.799 283.5,349C 278.599,349.877 273.599,350.711 268.5,351.5C 266.142,351.247 263.808,350.914 261.5,350.5C 261.281,351.675 261.614,352.675 262.5,353.5C 264.776,354.213 267.109,354.713 269.5,355C 263.037,358.92 260.204,364.753 261,372.5C 255.72,378.058 249.22,381.391 241.5,382.5C 244.286,387.896 248.62,391.396 254.5,393C 268.179,395.572 279.679,391.738 289,381.5C 291.78,385.179 292.947,389.346 292.5,394C 291.824,402.872 289.657,411.372 286,419.5C 282.687,417.021 279.52,414.355 276.5,411.5C 275.909,419.465 272.742,426.132 267,431.5C 269.234,420.929 265.901,412.929 257,407.5C 255.333,404.5 253.667,401.5 252,398.5C 251.836,404.97 250.836,411.304 249,417.5C 246.629,420.206 243.963,422.539 241,424.5C 242.055,418.569 241.055,412.903 238,407.5C 232.92,405.045 228.087,402.212 223.5,399C 219.667,394.5 215.833,390 212,385.5C 214.341,392.193 216.508,399.026 218.5,406C 218.504,411.011 216.337,414.844 212,417.5C 211.667,414.833 211.333,412.167 211,409.5C 206.709,402.875 201.376,397.209 195,392.5C 191.921,388.676 189.088,384.676 186.5,380.5C 185.573,389.129 182.24,396.629 176.5,403C 174.833,403.667 173.167,403.667 171.5,403C 174.924,391.633 171.09,383.466 160,378.5C 156.609,379.058 154.776,381.058 154.5,384.5C 156.251,386.972 157.085,389.639 157,392.5C 153.336,390.189 152.003,386.855 153,382.5C 156.045,378.244 159.212,374.077 162.5,370C 154.683,371.407 147.683,374.74 141.5,380C 137.875,382.257 134.542,381.924 131.5,379C 137.772,376.738 142.939,372.905 147,367.5C 147.667,365.167 147.667,362.833 147,360.5C 144.024,356.849 140.358,354.182 136,352.5C 132.009,353.164 128.176,354.331 124.5,356C 120.048,356.86 116.548,355.36 114,351.5C 114.019,349.893 114.185,348.226 114.5,346.5C 120.42,348.089 126.42,348.923 132.5,349C 139.148,346.426 141.648,341.593 140,334.5C 134.841,330.586 129.507,326.92 124,323.5C 121.71,320.42 119.543,317.253 117.5,314C 118.047,313.075 118.713,312.242 119.5,311.5C 123.644,314.476 127.644,317.643 131.5,321C 135.645,323.426 139.978,323.926 144.5,322.5C 155.798,334.767 169.798,339.601 186.5,337C 204.067,343.951 221.733,350.617 239.5,357C 243.211,357.439 246.878,357.106 250.5,356C 253.758,354.533 257.092,353.367 260.5,352.5C 260.67,351.178 260.337,350.011 259.5,349C 254.396,346.227 249.563,343.06 245,339.5C 244.088,335.205 243.421,330.872 243,326.5C 240.986,324.155 238.653,322.155 236,320.5C 235.399,323.637 234.399,326.637 233,329.5C 229.385,325.42 228.885,321.086 231.5,316.5C 231,315.5 230.5,314.5 230,313.5C 226.611,320.43 222.111,326.597 216.5,332C 214.421,332.808 212.421,332.641 210.5,331.5C 215.079,323.28 216.246,314.613 214,305.5C 213.228,304.151 212.061,303.318 210.5,303C 213.687,300.214 214.521,297.047 213,293.5C 208.222,305.119 199.722,312.119 187.5,314.5C 186.062,314.281 184.729,313.781 183.5,313C 188.502,308.329 192.335,302.829 195,296.5C 195.531,288.047 193.031,280.547 187.5,274C 191.569,268.39 193.736,262.223 194,255.5C 190.121,262.762 185.621,269.595 180.5,276C 178.5,277.333 176.5,278.667 174.5,280C 172.421,280.808 170.421,280.641 168.5,279.5C 175.581,269.502 177.748,258.502 175,246.5C 170.38,243.522 170.547,240.689 175.5,238C 177.5,237 179.5,236 181.5,235C 180.953,234.075 180.287,233.242 179.5,232.5C 175.443,234.384 171.777,236.884 168.5,240C 165.28,241.525 161.947,242.192 158.5,242C 167.745,236.864 168.745,230.531 161.5,223C 157.256,221.987 153.423,222.82 150,225.5C 148.346,222.725 148.679,220.058 151,217.5C 153.941,215.029 157.274,213.363 161,212.5C 162.667,213.833 164.333,215.167 166,216.5C 167.23,215.725 167.563,214.725 167,213.5C 162.485,207.81 156.652,204.477 149.5,203.5C 144.14,206.276 138.474,207.11 132.5,206C 130.07,203.695 129.07,200.862 129.5,197.5C 135.739,199.057 142.072,199.557 148.5,199C 150.983,196.594 153.65,194.427 156.5,192.5C 157.609,190.615 158.443,188.615 159,186.5C 165.503,189.837 168.67,195.171 168.5,202.5C 169.5,202.5 170.5,202.5 171.5,202.5C 171.094,198.729 170.261,195.062 169,191.5C 163.333,186.5 157.667,181.5 152,176.5C 149.302,174.089 148.968,171.423 151,168.5C 157.051,172.257 163.551,173.59 170.5,172.5C 171.924,167.789 174.257,167.289 177.5,171C 180.699,174.566 183.533,178.4 186,182.5C 186.785,187.876 187.785,193.209 189,198.5C 192.147,195.532 194.814,192.198 197,188.5C 197.441,180.812 195.608,173.645 191.5,167C 193.444,164.371 195.777,162.204 198.5,160.5 Z"/></g>
<g><path style="opacity:1" fill="#fe0000" d="M 575.5,162.5 C 577.433,163.642 578.933,165.308 580,167.5C 580.505,175.988 578.172,183.655 573,190.5C 571.039,187.865 568.539,186.031 565.5,185C 568.879,181.588 570.379,177.422 570,172.5C 572.619,169.594 574.453,166.261 575.5,162.5 Z"/></g>
<g><path style="opacity:1" fill="#fed700" d="M 137.5,179.5 C 142.468,180.164 147.468,180.664 152.5,181C 154.167,182.667 155.833,184.333 157.5,186C 156.128,187.242 155.128,188.742 154.5,190.5C 151.804,191.851 149.47,193.684 147.5,196C 144.833,196.667 142.167,196.667 139.5,196C 135.231,195.297 131.231,193.964 127.5,192C 123.909,191.211 120.409,191.378 117,192.5C 117.027,190.583 117.861,188.916 119.5,187.5C 125.365,184.228 131.365,181.561 137.5,179.5 Z"/></g>
<g><path style="opacity:1" fill="#fed700" d="M 483.5,184.5 C 490.622,185.157 492.455,188.824 489,195.5C 487.167,197.333 485.333,199.167 483.5,201C 495.418,208.651 508.418,211.317 522.5,209C 529.811,207.897 536.478,205.231 542.5,201C 538.478,198.33 536.145,194.663 535.5,190C 535.22,186.461 536.887,184.628 540.5,184.5C 542.197,184.899 543.863,185.399 545.5,186C 547.333,188.5 549.167,191 551,193.5C 558.333,185.5 565.667,185.5 573,193.5C 576.037,200.529 574.537,206.362 568.5,211C 571,212.833 573.5,214.667 576,216.5C 579.057,224.248 576.557,227.415 568.5,226C 565.705,224.207 563.205,222.04 561,219.5C 550.052,238.266 549.718,257.266 560,276.5C 560.333,276.833 560.667,277.167 561,277.5C 563.205,274.96 565.705,272.793 568.5,271C 576.557,269.585 579.057,272.752 576,280.5C 573.5,282.333 571,284.167 568.5,286C 576.5,293.333 576.5,300.667 568.5,308C 561.471,311.037 555.638,309.537 551,303.5C 549.167,306 547.333,308.5 545.5,311C 537.752,314.057 534.585,311.557 536,303.5C 537.793,300.705 539.96,298.205 542.5,296C 528.875,287.574 514.208,285.241 498.5,289C 493.108,290.53 488.108,292.863 483.5,296C 486.04,298.205 488.207,300.705 490,303.5C 491.415,311.557 488.248,314.057 480.5,311C 478.667,308.5 476.833,306 475,303.5C 467.667,311.5 460.333,311.5 453,303.5C 449.963,296.471 451.463,290.638 457.5,286C 455,284.167 452.5,282.333 450,280.5C 446.943,272.752 449.443,269.585 457.5,271C 460.295,272.793 462.795,274.96 465,277.5C 475.948,258.734 476.282,239.734 466,220.5C 465.667,220.167 465.333,219.833 465,219.5C 462.795,222.04 460.295,224.207 457.5,226C 449.443,227.415 446.943,224.248 450,216.5C 452.5,214.667 455,212.833 457.5,211C 449.5,203.667 449.5,196.333 457.5,189C 464.529,185.963 470.362,187.463 475,193.5C 476.961,189.495 479.795,186.495 483.5,184.5 Z"/></g>
<g><path style="opacity:1" fill="#fed700" d="M 312.5,186.5 C 341.835,186.333 371.169,186.5 400.5,187C 402.807,188.828 402.474,190.494 399.5,192C 370.833,192.667 342.167,192.667 313.5,192C 312.5,191 311.5,190 310.5,189C 311.381,188.292 312.047,187.458 312.5,186.5 Z"/></g>
<g><path style="opacity:1" fill="#fe0000" d="M 586.5,188.5 C 587.497,188.47 588.164,188.97 588.5,190C 586.142,195.529 582.475,200.029 577.5,203.5C 576.353,201.235 576.186,198.902 577,196.5C 580.516,194.172 583.682,191.505 586.5,188.5 Z"/></g>
<g><path style="opacity:1" fill="#fed700" d="M 309.5,195.5 C 340.664,194.336 371.997,194.169 403.5,195C 402.5,196 401.5,197 400.5,198C 371.167,198.667 341.833,198.667 312.5,198C 311.627,196.955 310.627,196.122 309.5,195.5 Z"/></g>
<g><path style="opacity:1" fill="#fed700" d="M 327.5,200.5 C 347.503,200.333 367.503,200.5 387.5,201C 384.289,202.153 380.956,202.82 377.5,203C 365.116,203.155 352.783,203.989 340.5,205.5C 335.273,205.023 330.273,203.857 325.5,202C 326.416,201.722 327.082,201.222 327.5,200.5 Z"/></g>
<g><path style="opacity:1" fill="#fe0000" d="M 518.5,200.5 C 521.757,201.462 524.757,202.962 527.5,205C 522.473,207.813 519.473,206.313 518.5,200.5 Z"/></g>
<g><path style="opacity:1" fill="#fe0000" d="M 589.5,207.5 C 590.376,207.369 591.043,207.702 591.5,208.5C 588.612,213.894 584.778,218.56 580,222.5C 579.521,219.376 578.354,216.543 576.5,214C 581.723,213.389 586.057,211.222 589.5,207.5 Z"/></g>
<g><path style="opacity:1" fill="#bfc0bf" d="M 81.5,218.5 C 96.1667,218.5 110.833,218.5 125.5,218.5C 123.197,230.722 127.864,239.222 139.5,244C 144.533,244.728 149.533,244.561 154.5,243.5C 158.677,246.104 162.844,246.104 167,243.5C 169.321,244.487 170.987,246.154 172,248.5C 173.325,252.428 173.658,256.428 173,260.5C 171.402,267.961 169.069,274.961 166,281.5C 168.841,283.504 172.007,284.004 175.5,283C 178.939,280.861 182.106,278.361 185,275.5C 187.904,278.642 189.738,282.309 190.5,286.5C 154.167,286.5 117.833,286.5 81.5,286.5C 81.5,263.833 81.5,241.167 81.5,218.5 Z"/></g>
<g><path style="opacity:1" fill="#bfc0bf" d="M 133.5,219.5 C 137.683,218.189 142.016,218.189 146.5,219.5C 145.242,221.648 145.242,223.815 146.5,226C 146.167,226.5 145.833,227 145.5,227.5C 140.687,226.014 136.687,223.348 133.5,219.5 Z"/></g>
<g><path style="opacity:1" fill="#bfc0bf" d="M 213.5,218.5 C 240.5,218.5 267.5,218.5 294.5,218.5C 295.544,237.714 304.044,252.714 320,263.5C 320.772,263.355 321.439,263.022 322,262.5C 322.678,259.697 323.844,257.197 325.5,255C 331.289,252.509 337.289,251.509 343.5,252C 346.873,252.101 349.373,253.601 351,256.5C 353.359,260.668 354.192,265.001 353.5,269.5C 347.61,266.053 341.276,264.053 334.5,263.5C 323.353,264.731 312.186,265.731 301,266.5C 290.135,268.237 282.468,264.237 278,254.5C 277.048,247.638 278.882,241.638 283.5,236.5C 271.876,235.939 265.376,241.606 264,253.5C 262.955,261.586 265.455,268.42 271.5,274C 275.916,277.205 280.583,279.872 285.5,282C 296.576,284.208 306.91,282.208 316.5,276C 319.343,275.554 322.176,275.054 325,274.5C 331.185,275.921 337.352,277.421 343.5,279C 345.5,280.333 347.5,281.667 349.5,283C 348.833,284.333 347.833,285.333 346.5,286C 338.173,286.5 329.84,286.666 321.5,286.5C 320.833,283.833 320.167,281.167 319.5,278.5C 315.227,279.143 312.227,281.476 310.5,285.5C 297.846,286.666 285.18,286.833 272.5,286C 262.349,275.184 251.515,265.018 240,255.5C 235.667,248.833 231.333,242.167 227,235.5C 221.882,230.227 217.382,224.561 213.5,218.5 Z"/></g>
<g><path style="opacity:1" fill="#bfc0bf" d="M 409.5,218.5 C 414.179,218.334 418.845,218.501 423.5,219C 427.167,225.333 432.167,230.333 438.5,234C 433.824,233.89 429.491,234.89 425.5,237C 423.963,241.278 422.63,245.611 421.5,250C 426.342,250.451 430.342,248.784 433.5,245C 440.338,243.403 447.005,244.07 453.5,247C 459.598,250.702 465.265,254.869 470.5,259.5C 469.761,264.31 467.927,268.644 465,272.5C 464.535,271.069 463.701,269.903 462.5,269C 453.65,263.05 443.983,261.05 433.5,263C 437.753,265.71 441.92,268.543 446,271.5C 445.65,278.313 448.484,283.146 454.5,286C 447.833,286.667 441.167,286.667 434.5,286C 425.221,278.054 416.554,269.388 408.5,260C 415.231,260.382 421.898,259.548 428.5,257.5C 425.199,254.844 421.532,252.678 417.5,251C 412.195,243.561 406.528,236.394 400.5,229.5C 404.69,226.659 407.69,222.993 409.5,218.5 Z"/></g>
<g><path style="opacity:1" fill="#bfc0bf" d="M 587.5,218.5 C 597.5,218.5 607.5,218.5 617.5,218.5C 617.5,241.167 617.5,263.833 617.5,286.5C 602.163,286.667 586.83,286.5 571.5,286C 579.493,282.225 581.159,276.725 576.5,269.5C 570.559,267.366 565.559,268.699 561.5,273.5C 560.357,271.041 560.69,268.707 562.5,266.5C 560.604,265.534 558.604,265.201 556.5,265.5C 555.103,259.93 554.437,254.264 554.5,248.5C 558.192,247.971 561.358,248.971 564,251.5C 565.029,255.429 565.863,259.429 566.5,263.5C 576.825,255.709 577.158,247.209 567.5,238C 565.5,237 563.5,236 561.5,235C 567.888,231.139 574.554,227.806 581.5,225C 583.706,222.963 585.706,220.797 587.5,218.5 Z"/></g>
<g><path style="opacity:1" fill="#fed700" d="M 128.5,219.5 C 132.135,222.659 135.802,225.826 139.5,229C 141.5,229.5 143.5,230 145.5,230.5C 150.15,227.671 155.15,226.171 160.5,226C 164.534,230.219 164.201,234.219 159.5,238C 144.348,245.938 133.682,242.105 127.5,226.5C 128.223,224.218 128.557,221.884 128.5,219.5 Z"/></g>
<g><path style="opacity:1" fill="#fe0000" d="M 297.5,219.5 C 302.508,219.168 305.508,221.502 306.5,226.5C 305.734,229.552 303.734,231.219 300.5,231.5C 298.272,227.814 297.272,223.814 297.5,219.5 Z"/></g>
<g><path style="opacity:1" fill="#fe0000" d="M 333.5,219.5 C 338.876,221.585 340.376,225.252 338,230.5C 333.313,233.704 330.48,232.37 329.5,226.5C 330.071,223.687 331.404,221.354 333.5,219.5 Z"/></g>
<g><path style="opacity:1" fill="#fe0000" d="M 560.5,223.5 C 562.932,224.75 565.266,226.25 567.5,228C 564.006,229.579 560.673,231.413 557.5,233.5C 557.167,233.167 556.833,232.833 556.5,232.5C 558.12,229.596 559.453,226.596 560.5,223.5 Z"/></g>
<g><path style="opacity:1" fill="#493d00" d="M 492.5,227.5 C 499.258,229.231 506.091,230.565 513,231.5C 519.914,230.391 526.747,229.224 533.5,228C 533.833,228.333 534.167,228.667 534.5,229C 530.5,242 530.5,255 534.5,268C 533.975,268.692 533.308,269.192 532.5,269.5C 526.103,267.609 519.603,266.275 513,265.5C 506.086,266.609 499.253,267.776 492.5,269C 492.167,268.667 491.833,268.333 491.5,268C 495.5,255 495.5,242 491.5,229C 492.056,228.617 492.389,228.117 492.5,227.5 Z"/></g>
<g><path style="opacity:1" fill="#bfc0bf" d="M 494.5,230.5 C 498.553,231.013 502.553,231.846 506.5,233C 511.956,233.323 517.289,233.49 522.5,233.5C 519.282,240.533 515.116,246.867 510,252.5C 505.667,249.833 501.333,247.167 497,244.5C 496.481,239.762 495.648,235.095 494.5,230.5 Z"/></g>
<g><path style="opacity:1" fill="#fe0000" d="M 527.5,230.5 C 528.833,230.5 530.167,230.5 531.5,230.5C 529.882,240.067 529.049,249.734 529,259.5C 524.6,264.522 519.266,265.855 513,263.5C 508.878,263.458 504.878,264.124 501,265.5C 500.5,265.333 500,265.167 499.5,265C 504.724,260.141 510.224,255.641 516,251.5C 520.386,244.722 524.22,237.722 527.5,230.5 Z"/></g>
<g><path style="opacity:1" fill="#fe0000" d="M 555.5,237.5 C 564.213,238.209 569.547,242.875 571.5,251.5C 571.431,253.709 570.764,255.709 569.5,257.5C 568.512,248.504 563.512,244.504 554.5,245.5C 554.401,242.763 554.735,240.096 555.5,237.5 Z"/></g>
<g><path style="opacity:1" fill="#fed700" d="M 274.5,240.5 C 275.552,240.351 276.552,240.517 277.5,241C 272.004,252.516 275.004,261.516 286.5,268C 291.287,268.929 296.12,269.429 301,269.5C 313.828,268.233 326.662,267.4 339.5,267C 344.892,268.53 349.892,270.863 354.5,274C 353.745,276.175 352.912,278.341 352,280.5C 336.821,270.375 321.321,269.542 305.5,278C 297.875,280.916 290.209,280.916 282.5,278C 279.264,275.132 275.764,272.632 272,270.5C 264.412,259.784 265.246,249.784 274.5,240.5 Z"/></g>
<g><path style="opacity:1" fill="#fe0000" d="M 496.5,248.5 C 500.423,249.795 504.09,251.628 507.5,254C 503.033,257.465 498.867,261.298 495,265.5C 496.123,259.98 496.623,254.313 496.5,248.5 Z"/></g>
<g><path style="opacity:1" fill="#fe0000" d="M 443.5,266.5 C 443.917,265.876 444.584,265.543 445.5,265.5C 448.471,266.435 451.471,267.268 454.5,268C 452.645,268.422 450.811,268.922 449,269.5C 447.235,268.368 445.402,267.368 443.5,266.5 Z"/></g>
<g><path style="opacity:1" fill="#0000ff" d="M 81.5,288.5 C 118.5,288.5 155.5,288.5 192.5,288.5C 192.664,291.187 192.497,293.854 192,296.5C 187.887,302.947 183.387,309.114 178.5,315C 191.336,318.845 201.836,315.345 210,304.5C 211.838,307.037 212.671,309.871 212.5,313C 212.44,319.94 210.773,326.44 207.5,332.5C 207.833,333.167 208.167,333.833 208.5,334.5C 211.773,335.585 215.106,335.752 218.5,335C 221.333,331.5 224.167,328 227,324.5C 229.137,328.477 230.971,332.477 232.5,336.5C 235.368,333.425 237.201,329.759 238,325.5C 238.667,326.167 239.333,326.833 240,327.5C 240.667,332.167 241.333,336.833 242,341.5C 245.919,343.876 249.752,346.376 253.5,349C 254.711,349.893 254.711,350.726 253.5,351.5C 249.031,353.619 244.364,354.453 239.5,354C 222.01,347.726 204.677,341.059 187.5,334C 172.567,336.608 159.734,332.774 149,322.5C 145.033,314.729 140.2,307.562 134.5,301C 126.821,295.931 118.487,292.098 109.5,289.5C 108.348,292.106 108.182,294.773 109,297.5C 111.515,301.344 114.015,305.177 116.5,309C 115.209,311.05 114.709,313.217 115,315.5C 118.024,320.731 121.857,325.231 126.5,329C 123.691,329.18 121.024,328.513 118.5,327C 115.167,326.333 111.833,326.333 108.5,327C 103.667,330.5 99.5,334.667 96,339.5C 94.359,348.938 96.859,350.105 103.5,343C 109.824,342.319 112.157,344.985 110.5,351C 111.101,352.605 112.101,353.938 113.5,355C 102.839,355.5 92.1719,355.667 81.5,355.5C 81.5,333.167 81.5,310.833 81.5,288.5 Z"/></g>
<g><path style="opacity:1" fill="#0000ff" d="M 273.5,289.5 C 285.655,288.505 297.989,288.171 310.5,288.5C 310.844,295.347 314.344,299.681 321,301.5C 325.654,300.231 330.321,300.231 335,301.5C 348.443,296.886 349.943,299.386 339.5,309C 334.973,312.62 329.806,314.454 324,314.5C 315.489,313.931 306.989,313.264 298.5,312.5C 297.228,312.57 296.062,312.903 295,313.5C 286.856,306.199 279.689,298.199 273.5,289.5 Z"/></g>
<g><path style="opacity:1" fill="#0000ff" d="M 437.5,288.5 C 442.511,288.334 447.511,288.501 452.5,289C 449.9,291.984 448.9,295.484 449.5,299.5C 440.668,298.164 437.168,301.831 439,310.5C 436.333,313.167 433.667,315.833 431,318.5C 426.5,311.333 422,304.167 417.5,297C 425.421,296.76 432.087,293.927 437.5,288.5 Z"/></g>
<g><path style="opacity:1" fill="#0000ff" d="M 573.5,289.5 C 587.99,288.504 602.657,288.171 617.5,288.5C 617.5,310.833 617.5,333.167 617.5,355.5C 601.5,355.5 585.5,355.5 569.5,355.5C 569.773,346.802 572.439,338.968 577.5,332C 580.128,330.374 582.461,328.374 584.5,326C 590.015,323.549 595.681,322.883 601.5,324C 595.917,313.544 587.25,309.544 575.5,312C 572.963,314.906 570.796,318.073 569,321.5C 567.735,318.539 566.569,315.539 565.5,312.5C 569.058,310.454 572.225,307.787 575,304.5C 576.434,300.594 576.767,296.594 576,292.5C 575.623,291.058 574.79,290.058 573.5,289.5 Z"/></g>
<g><path style="opacity:1" fill="#0000ff" d="M 503.5,289.5 C 511.06,288.966 511.394,290.133 504.5,293C 500.298,296.867 496.465,301.033 493,305.5C 491.276,303.103 491.276,300.769 493,298.5C 494.5,296.333 496,294.167 497.5,292C 499.611,291.155 501.611,290.322 503.5,289.5 Z"/></g>
<g><path style="opacity:1" fill="#0000ff" d="M 513.5,290.5 C 516.304,289.362 519.304,289.195 522.5,290C 526.981,293.314 530.981,297.148 534.5,301.5C 533.926,304.177 533.259,306.843 532.5,309.5C 526.744,305.243 522.244,299.909 519,293.5C 518.134,301.583 519.467,309.249 523,316.5C 529.366,322.531 535.366,328.864 541,335.5C 543.062,340.331 543.729,345.331 543,350.5C 542.313,352.555 541.146,354.221 539.5,355.5C 537.563,352.56 535.896,349.394 534.5,346C 528.943,341.888 522.943,338.888 516.5,337C 518.183,343.676 521.183,349.676 525.5,355C 516.833,355.667 508.167,355.667 499.5,355C 505.984,348.853 511.317,341.853 515.5,334C 502.069,333.63 491.903,339.13 485,350.5C 483.792,348.521 482.959,346.355 482.5,344C 484.98,336.539 488.146,329.373 492,322.5C 499.667,313.833 507.333,305.167 515,296.5C 516.128,294.655 516.628,292.655 516.5,290.5C 515.5,290.5 514.5,290.5 513.5,290.5 Z"/></g>
<g><path style="opacity:1" fill="#fe0000" d="M 409.5,369.5 C 412.094,373.272 414.927,376.939 418,380.5C 418.862,382.087 419.529,383.754 420,385.5C 419.61,388.815 418.776,392.148 417.5,395.5C 420.971,403.471 426.638,409.304 434.5,413C 426.696,413.199 419.03,412.199 411.5,410C 403.706,404.54 396.873,398.04 391,390.5C 390.675,392.553 391.009,394.553 392,396.5C 396.681,401.349 401.515,406.015 406.5,410.5C 409.83,420.829 413.996,430.829 419,440.5C 427,451.167 435,461.833 443,472.5C 465.096,492.525 487.93,493.525 511.5,475.5C 514.499,463.473 513.332,451.806 508,440.5C 505.174,434.178 501.841,428.178 498,422.5C 491.92,418.21 485.753,414.043 479.5,410C 471.768,407.559 463.934,407.059 456,408.5C 453.865,407.873 451.698,407.373 449.5,407C 446.877,403.588 444.377,400.088 442,396.5C 441.333,394.5 441.333,392.5 442,390.5C 446.671,395.502 452.171,399.335 458.5,402C 469.198,402.672 479.865,403.338 490.5,404C 482.653,398.484 475.82,391.984 470,384.5C 468.698,376.944 466.032,369.944 462,363.5C 457.187,358.356 452.02,353.523 446.5,349C 448.126,349.195 449.793,349.195 451.5,349C 459.106,337.683 463.44,325.183 464.5,311.5C 468.695,311.319 472.195,309.653 475,306.5C 477.535,312.518 482.035,315.018 488.5,314C 494.806,306.36 501.806,299.36 509.5,293C 510.944,292.219 512.277,292.386 513.5,293.5C 505.147,302.685 496.98,312.019 489,321.5C 484.953,328.809 481.786,336.475 479.5,344.5C 480.667,350.253 481.833,355.92 483,361.5C 485.706,354.578 489.54,348.411 494.5,343C 499.098,339.854 504.098,338.188 509.5,338C 504.333,344.5 499.167,351 494,357.5C 489.702,366.983 489.368,376.65 493,386.5C 495.016,388.684 497.183,390.684 499.5,392.5C 503.078,399.991 506.912,407.324 511,414.5C 520.444,401.283 528.611,387.283 535.5,372.5C 532.449,361.732 527.782,351.732 521.5,342.5C 531.951,344.489 536.618,351.155 535.5,362.5C 540.771,360.698 544.271,357.032 546,351.5C 546.893,344.404 545.56,337.738 542,331.5C 534.575,325.077 528.241,317.744 523,309.5C 522.333,307.833 522.333,306.167 523,304.5C 528.611,310.567 535.111,315.567 542.5,319.5C 542.809,315.667 544.642,313 548,311.5C 549,309.833 550,308.167 551,306.5C 553.863,309.515 557.363,311.349 561.5,312C 567.053,318.727 567.386,325.56 562.5,332.5C 562.808,333.308 563.308,333.975 564,334.5C 567.67,327.824 571.836,321.491 576.5,315.5C 583.334,313.327 589.334,314.661 594.5,319.5C 590.808,320.564 587.142,321.73 583.5,323C 580.428,325.951 577.261,328.784 574,331.5C 572.527,335.779 570.527,339.779 568,343.5C 567.579,347.872 566.912,352.205 566,356.5C 558.582,366.589 550.415,376.089 541.5,385C 549.318,384.437 556.652,382.103 563.5,378C 573.106,376.236 581.773,378.236 589.5,384C 579.721,384.023 570.055,385.023 560.5,387C 548.305,393.529 539.138,403.029 533,415.5C 530.815,416.928 528.815,418.595 527,420.5C 525.669,423.834 523.835,426.834 521.5,429.5C 522.681,433.224 524.514,436.558 527,439.5C 528.146,451.963 527.479,464.296 525,476.5C 522.252,481.252 518.752,485.419 514.5,489C 519.5,489.333 524.5,489.667 529.5,490C 540.724,497.25 548.224,507.417 552,520.5C 552.733,524.972 552.233,529.305 550.5,533.5C 547.439,526.376 543.605,519.709 539,513.5C 530.078,504.966 519.411,500.299 507,499.5C 494.308,499.528 481.641,500.862 469,503.5C 460.277,500.036 451.443,497.202 442.5,495C 455.201,506.034 466.868,518.034 477.5,531C 482.327,532.048 486.66,534.048 490.5,537C 487.661,538.92 484.661,540.587 481.5,542C 485.667,545.5 489.833,549 494,552.5C 494.231,562.924 498.731,570.758 507.5,576C 503.358,576.727 499.358,577.727 495.5,579C 498.701,582.536 502.201,585.703 506,588.5C 507.175,592.688 508.341,596.854 509.5,601C 509.333,602.167 509.167,603.333 509,604.5C 507.315,606.017 505.815,607.684 504.5,609.5C 505.183,615.368 507.849,620.202 512.5,624C 503.518,624.463 495.018,622.63 487,618.5C 486.833,618.833 486.667,619.167 486.5,619.5C 489.907,624.566 493.907,628.9 498.5,632.5C 496.429,636.64 494.929,640.974 494,645.5C 491.595,647.403 489.761,649.736 488.5,652.5C 490.994,656.431 492.327,660.764 492.5,665.5C 488.973,664.74 485.64,663.406 482.5,661.5C 479.148,657.314 475.314,653.647 471,650.5C 471.969,655.074 472.302,659.741 472,664.5C 469.106,670.062 465.439,675.062 461,679.5C 460.667,682.833 460.333,686.167 460,689.5C 454.482,682.801 451.482,675.135 451,666.5C 447.794,675.474 443.461,683.807 438,691.5C 436.942,685.086 435.609,678.753 434,672.5C 430.142,679.699 425.475,686.365 420,692.5C 418.559,693.26 417.059,693.926 415.5,694.5C 414.363,690.893 412.696,687.56 410.5,684.5C 403.796,682.436 399.296,684.769 397,691.5C 395.833,690.333 394.667,689.167 393.5,688C 395.5,684.667 397.5,681.333 399.5,678C 398.584,677.626 397.75,677.126 397,676.5C 394.959,680.084 392.792,683.584 390.5,687C 384.343,691.102 379.343,690.102 375.5,684C 379.209,683.367 382.709,682.2 386,680.5C 387.384,676.579 387.384,672.579 386,668.5C 384.147,666.408 381.814,665.408 379,665.5C 375.14,665.881 371.473,666.881 368,668.5C 367.833,668.167 367.667,667.833 367.5,667.5C 373.7,664.765 375.866,660.099 374,653.5C 373.028,651.695 371.861,650.028 370.5,648.5C 365.319,647.162 360.319,645.329 355.5,643C 362.667,641.167 367.167,636.667 369,629.5C 370.231,628.892 371.564,628.559 373,628.5C 376.628,629.228 380.128,630.394 383.5,632C 391.504,632.102 399.504,632.102 407.5,632C 411.758,634.572 416.258,636.739 421,638.5C 436.414,632.182 443.247,620.682 441.5,604C 441.469,595.315 440.303,586.815 438,578.5C 428.279,570.113 419.279,561.113 411,551.5C 409,545.5 407,539.5 405,533.5C 404.667,527.167 404.333,520.833 404,514.5C 400.061,522.045 396.394,529.712 393,537.5C 392.333,541.5 392.333,545.5 393,549.5C 394.011,552.857 394.677,556.191 395,559.5C 391.427,553.521 388.261,547.354 385.5,541C 387.235,538.598 387.568,536.098 386.5,533.5C 380.616,541.318 377.616,550.152 377.5,560C 380.573,568.774 382.573,577.774 383.5,587C 379.495,595.35 374.495,603.016 368.5,610C 365.857,611.436 363.19,611.602 360.5,610.5C 364.501,605.168 368.001,599.502 371,593.5C 372.537,587.411 373.704,581.245 374.5,575C 370.839,562.686 367.506,550.353 364.5,538C 367.337,529.175 371.837,521.341 378,514.5C 379.346,505.559 379.846,496.559 379.5,487.5C 378.127,487.343 376.793,487.51 375.5,488C 378.981,500.182 374.648,504.848 362.5,502C 358.724,497.681 358.724,493.181 362.5,488.5C 361.758,487.713 360.925,487.047 360,486.5C 355.853,496.83 351.02,496.996 345.5,487C 346.104,484.532 347.438,482.532 349.5,481C 353.177,480.892 356.843,480.892 360.5,481C 358.402,478.146 356.069,475.479 353.5,473C 346.468,468.147 339.802,462.814 333.5,457C 335.833,456.333 338.167,456.333 340.5,457C 346.415,461.209 352.582,465.042 359,468.5C 359.667,467.5 359.667,466.5 359,465.5C 353.081,461.791 347.248,457.958 341.5,454C 336.79,453.625 332.123,452.958 327.5,452C 329.833,449.667 332.167,447.333 334.5,445C 337.558,444.542 340.558,444.876 343.5,446C 355.611,457.605 365.611,470.771 373.5,485.5C 374.723,486.614 376.056,486.781 377.5,486C 373.667,479.5 369.833,473 366,466.5C 357.598,457.354 349.431,448.021 341.5,438.5C 348.184,431.65 354.684,424.65 361,417.5C 361.511,419.878 362.178,422.212 363,424.5C 367.833,428.667 372.667,432.833 377.5,437C 386.606,441.192 394.939,440.192 402.5,434C 397.779,430.973 392.779,428.473 387.5,426.5C 385.31,424.144 383.31,421.644 381.5,419C 382.662,416.184 383.829,413.35 385,410.5C 387.472,408.702 389.139,406.368 390,403.5C 389.781,398.515 389.781,393.515 390,388.5C 396.369,381.964 402.869,375.631 409.5,369.5 Z"/></g>
<g><path style="opacity:1" fill="#fed700" d="M 111.5,293.5 C 119.512,295.673 126.845,299.173 133.5,304C 137.584,308.829 140.917,314.162 143.5,320C 137.716,320.739 132.716,319.072 128.5,315C 124.761,311.383 120.928,307.883 117,304.5C 114.454,301.14 112.621,297.474 111.5,293.5 Z"/></g>
<g><path style="opacity:1" fill="#fe0000" d="M 532.5,294.5 C 534.621,293.848 536.621,294.515 538.5,296.5C 538.167,297.5 537.5,298.167 536.5,298.5C 535.16,297.133 533.827,295.8 532.5,294.5 Z"/></g>
<g><path style="opacity:1" fill="#fe0000" d="M 489.5,294.5 C 490.376,294.369 491.043,294.702 491.5,295.5C 490.332,298.469 488.999,298.802 487.5,296.5C 488.243,295.818 488.909,295.151 489.5,294.5 Z"/></g>
<g><path style="opacity:1" fill="#fed700" d="M 442.5,301.5 C 445.167,301.5 447.833,301.5 450.5,301.5C 452.315,306.813 455.982,310.313 461.5,312C 461.336,314.699 461.17,317.532 461,320.5C 457.439,323.163 453.939,322.997 450.5,320C 448.317,317.65 445.984,315.483 443.5,313.5C 440.804,309.498 440.47,305.498 442.5,301.5 Z"/></g>
<g><path style="opacity:1" fill="#fed700" d="M 439.5,312.5 C 443.98,316.141 447.814,320.141 451,324.5C 359.653,416.68 268.153,508.68 176.5,600.5C 173.182,596.682 169.682,593.015 166,589.5C 165.333,588.833 165.333,588.167 166,587.5C 257.729,496.271 348.896,404.605 439.5,312.5 Z"/></g>
<g><path style="opacity:1" fill="#0000ff" d="M 452.5,324.5 C 454.924,324.192 457.257,324.526 459.5,325.5C 457.58,333.104 454.414,340.104 450,346.5C 445.816,344.663 441.65,342.829 437.5,341C 441.311,337.26 445.644,334.26 450.5,332C 449.692,331.692 449.025,331.192 448.5,330.5C 450.278,328.736 451.611,326.736 452.5,324.5 Z"/></g>
<g><path style="opacity:1" fill="#fed700" d="M 109.5,329.5 C 112.187,329.336 114.854,329.503 117.5,330C 122.286,332.62 127.286,333.453 132.5,332.5C 138.391,335.68 139.058,339.847 134.5,345C 132.801,345.958 130.967,346.458 129,346.5C 120.855,345.034 113.022,342.701 105.5,339.5C 103.029,339.795 100.863,340.795 99,342.5C 98.3333,341.833 98.3333,341.167 99,340.5C 102.704,336.964 106.204,333.298 109.5,329.5 Z"/></g>
<g><path style="opacity:1" fill="#0000ff" d="M 435.5,342.5 C 439.964,346.463 444.298,350.63 448.5,355C 440.841,355.5 433.174,355.666 425.5,355.5C 425.351,354.448 425.517,353.448 426,352.5C 429.371,349.297 432.538,345.964 435.5,342.5 Z"/></g>
<g><path style="opacity:1" fill="#fed700" d="M 134.5,355.5 C 145.988,358.787 147.321,364.287 138.5,372C 136.33,373.586 133.996,374.92 131.5,376C 120.475,376.022 112.975,381.188 109,391.5C 105.67,385.488 105.67,379.488 109,373.5C 116.229,365.336 124.729,359.336 134.5,355.5 Z"/></g>
<g><path style="opacity:1" fill="#fe0000" d="M 409.5,369.5 C 413.463,365.036 417.63,360.702 422,356.5C 423.118,359.855 424.618,363.022 426.5,366C 431.41,368.623 436.41,370.956 441.5,373C 436.48,377.004 430.813,378.337 424.5,377C 419.447,374.473 414.447,371.973 409.5,369.5 Z"/></g>
<g><path style="opacity:1" fill="#bfc0bf" d="M 81.5,357.5 C 93.5046,357.333 105.505,357.5 117.5,358C 118.672,358.419 119.672,359.085 120.5,360C 113.975,363.858 108.808,369.025 105,375.5C 102.817,383.443 104.151,390.777 109,397.5C 111.254,393.993 113.254,390.327 115,386.5C 118.918,381.031 124.084,379.031 130.5,380.5C 131.482,383.326 133.482,384.66 136.5,384.5C 141.845,383.327 146.512,380.827 150.5,377C 151.759,376.018 153.092,375.685 154.5,376C 148.596,381.342 147.929,387.342 152.5,394C 153.766,394.309 154.933,394.809 156,395.5C 154.308,399.701 150.975,401.701 146,401.5C 141,401.251 136.334,399.918 132,397.5C 131.294,399.971 131.627,402.305 133,404.5C 140.198,412.936 149.365,415.769 160.5,413C 164.283,412.446 166.95,410.446 168.5,407C 174.829,407.949 179.662,405.783 183,400.5C 184.862,396.581 186.529,392.581 188,388.5C 195.348,395.183 202.015,402.517 208,410.5C 208.499,415.489 208.666,420.489 208.5,425.5C 166.167,425.5 123.833,425.5 81.5,425.5C 81.5,402.833 81.5,380.167 81.5,357.5 Z"/></g>
<g><path style="opacity:1" fill="#bfc0bf" d="M 425.5,358.5 C 434.324,357.343 443.324,357.176 452.5,358C 456.036,361.201 459.203,364.701 462,368.5C 463.602,381.749 469.768,392.249 480.5,400C 464.455,402.89 451.289,398.057 441,385.5C 438.702,389.218 438.035,393.218 439,397.5C 441.783,401.951 444.95,406.117 448.5,410C 451.036,410.339 453.536,410.839 456,411.5C 463.601,410.091 471.101,410.591 478.5,413C 484.326,416.671 489.993,420.504 495.5,424.5C 468.84,425.667 442.173,425.833 415.5,425C 412.982,421.108 411.482,416.941 411,412.5C 413.266,413.956 415.766,414.79 418.5,415C 426.54,416.49 434.54,416.49 442.5,415C 433.488,410.164 426.155,403.497 420.5,395C 421.888,392.54 422.554,389.873 422.5,387C 422.358,383.985 421.858,381.151 421,378.5C 424.933,380.478 429.1,380.978 433.5,380C 439.112,377.861 444.446,375.194 449.5,372C 442.674,369.725 436.007,367.058 429.5,364C 428.023,362.188 426.69,360.355 425.5,358.5 Z"/></g>
<g><path style="opacity:1" fill="#bfc0bf" d="M 497.5,357.5 C 507.172,357.334 516.839,357.5 526.5,358C 529.377,362.464 531.377,367.297 532.5,372.5C 526.758,384.995 519.758,396.662 511.5,407.5C 507.842,402.192 504.675,396.525 502,390.5C 500.185,388.595 498.185,386.928 496,385.5C 492.199,375.813 492.699,366.48 497.5,357.5 Z"/></g>
<g><path style="opacity:1" fill="#bfc0bf" d="M 568.5,357.5 C 584.833,357.5 601.167,357.5 617.5,357.5C 617.5,380.167 617.5,402.833 617.5,425.5C 587.826,425.833 558.159,425.5 528.5,424.5C 534.796,417.27 540.629,409.603 546,401.5C 550.167,398 554.333,394.5 558.5,391C 562.42,389.687 566.42,388.687 570.5,388C 579.833,387.667 589.167,387.333 598.5,387C 595.167,384.333 591.833,381.667 588.5,379C 580.261,374.935 571.594,373.601 562.5,375C 558.504,376.663 554.837,378.829 551.5,381.5C 550.479,380.998 550.312,380.332 551,379.5C 557.082,372.318 562.916,364.985 568.5,357.5 Z"/></g>
<g><path style="opacity:1" fill="#fed700" d="M 159.5,381.5 C 169.52,386.727 172.02,394.394 167,404.5C 165.445,407.055 163.278,408.888 160.5,410C 150.69,412.396 142.357,410.063 135.5,403C 137.169,402.878 138.835,403.212 140.5,404C 147.806,405.785 153.972,403.952 159,398.5C 161.232,393.557 160.732,388.89 157.5,384.5C 158.193,383.482 158.859,382.482 159.5,381.5 Z"/></g>
<g><path style="opacity:1" fill="#fe0000" d="M 385.5,392.5 C 388.97,399.031 387.804,404.697 382,409.5C 380.534,412.731 379.367,416.065 378.5,419.5C 380.306,422.472 382.306,425.305 384.5,428C 388.66,429.912 392.66,432.079 396.5,434.5C 390.544,436.977 384.544,436.81 378.5,434C 374,429.5 369.5,425 365,420.5C 364.333,418.167 364.333,415.833 365,413.5C 372.036,406.632 378.869,399.632 385.5,392.5 Z"/></g>
<g><path style="opacity:1" fill="#bfc0bf" d="M 324.5,400.5 C 325.117,400.611 325.617,400.944 326,401.5C 327.244,405.644 328.411,409.811 329.5,414C 328.015,417.971 326.015,421.638 323.5,425C 313.816,425.832 304.149,425.665 294.5,424.5C 296.01,420.578 298.677,417.745 302.5,416C 312.219,413.994 319.553,408.827 324.5,400.5 Z"/></g>
<g><path style="opacity:1" fill="#bfc0bf" d="M 221.5,401.5 C 226.221,404.614 231.055,407.614 236,410.5C 238.475,415.336 238.975,420.336 237.5,425.5C 228.161,425.666 218.827,425.5 209.5,425C 212,421.167 215.167,418 219,415.5C 221.208,411.116 222.041,406.449 221.5,401.5 Z"/></g>
<g><path style="opacity:1" fill="#bfc0bf" d="M 254.5,409.5 C 257.579,411.467 260.412,413.8 263,416.5C 263.498,419.482 263.665,422.482 263.5,425.5C 257.491,425.666 251.491,425.499 245.5,425C 250.704,421.09 253.704,415.923 254.5,409.5 Z"/></g>
<g><path style="opacity:1" fill="#bfc0bf" d="M 278.5,417.5 C 281.838,419.515 284.838,422.015 287.5,425C 283.848,425.499 280.182,425.665 276.5,425.5C 276.858,422.733 277.525,420.067 278.5,417.5 Z"/></g>
<g><path style="opacity:1" fill="#0000ff" d="M 81.5,427.5 C 133.982,426.844 186.315,427.51 238.5,429.5C 239.5,429 240.5,428.5 241.5,428C 248.826,427.5 256.159,427.334 263.5,427.5C 263.5,429.5 263.5,431.5 263.5,433.5C 268.357,434.162 272.023,432.329 274.5,428C 279.833,427.333 285.167,427.333 290.5,428C 291,428.5 291.5,429 292,429.5C 296.75,428.196 301.75,427.53 307,427.5C 323.588,424.65 325.422,427.984 312.5,437.5C 277.736,437.182 243.069,439.349 208.5,444C 187.195,448.361 165.862,452.528 144.5,456.5C 135.044,457.216 131.044,453.049 132.5,444C 130.815,440.112 128.149,439.445 124.5,442C 123,442.833 121.833,444 121,445.5C 119.105,453.136 120.939,459.636 126.5,465C 131.017,468.367 136.017,470.534 141.5,471.5C 168.811,466.038 196.144,460.705 223.5,455.5C 224.696,455.846 224.696,456.346 223.5,457C 219.334,459.917 215.001,462.584 210.5,465C 199.995,466.584 189.662,468.917 179.5,472C 183.221,474.527 187.221,476.527 191.5,478C 200.213,478.798 208.88,478.464 217.5,477C 229.464,473.851 241.13,469.851 252.5,465C 258.159,463.857 263.826,463.19 269.5,463C 261.067,469.429 253.234,476.596 246,484.5C 244.69,488.07 243.857,491.737 243.5,495.5C 226.163,495.667 208.83,495.5 191.5,495C 183.173,490.188 174.173,488.521 164.5,490C 166.833,491.667 169.167,493.333 171.5,495C 144.169,495.5 116.835,495.667 89.5,495.5C 85.0522,473.034 82.3855,450.367 81.5,427.5 Z"/></g>
<g><path style="opacity:1" fill="#0000ff" d="M 416.5,427.5 C 443.502,427.333 470.502,427.5 497.5,428C 507.69,441.593 511.523,456.76 509,473.5C 484.726,491.084 462.393,488.751 442,466.5C 435.667,458.167 429.333,449.833 423,441.5C 420.548,436.932 418.382,432.265 416.5,427.5 Z"/></g>
<g><path style="opacity:1" fill="#0000ff" d="M 526.5,427.5 C 556.833,427.5 587.167,427.5 617.5,427.5C 616.614,450.367 613.948,473.034 609.5,495.5C 586.831,495.667 564.164,495.5 541.5,495C 538.113,491.947 534.447,489.28 530.5,487C 527.833,486.667 525.167,486.333 522.5,486C 526.5,480.831 529,474.997 530,468.5C 530.667,458.5 530.667,448.5 530,438.5C 526.454,435.449 525.288,431.782 526.5,427.5 Z"/></g>
<g><path style="opacity:1" fill="#fe0000" d="M 295.5,439.5 C 300.511,439.334 305.511,439.501 310.5,440C 289,461.5 267.5,483 246,504.5C 245.232,497.899 246.232,491.566 249,485.5C 254.833,479.667 260.667,473.833 266.5,468C 272.675,464.412 279.009,461.078 285.5,458C 274.463,458.671 263.463,460.004 252.5,462C 239.211,467.541 225.545,471.874 211.5,475C 204.833,475.667 198.167,475.667 191.5,475C 190.167,474.333 188.833,473.667 187.5,473C 195.403,470.905 203.403,469.238 211.5,468C 217.181,464.827 222.514,461.161 227.5,457C 233.461,456.003 239.461,455.337 245.5,455C 246.337,453.989 246.67,452.822 246.5,451.5C 238.533,452.237 230.533,452.737 222.5,453C 195.268,457.913 168.102,463.08 141,468.5C 134.662,466.839 129.328,463.505 125,458.5C 123.566,454.594 123.233,450.594 124,446.5C 125.242,445.128 126.742,444.128 128.5,443.5C 127.381,455.212 132.881,460.546 145,459.5C 166.536,455.593 188.036,451.426 209.5,447C 238.233,443.5 266.9,441 295.5,439.5 Z"/></g>
<g><path style="opacity:1" fill="#fe0000" d="M 325.5,453.5 C 334.375,461.875 343.708,469.708 353.5,477C 346.714,477.287 343.047,480.787 342.5,487.5C 343.789,490.58 345.455,493.414 347.5,496C 350.559,496.645 353.559,497.478 356.5,498.5C 356.901,500.434 357.901,501.934 359.5,503C 353.221,502.545 346.888,502.045 340.5,501.5C 336.122,501.622 331.789,502.122 327.5,503C 322.328,506.085 317.328,509.419 312.5,513C 304.586,518.297 302.753,525.131 307,533.5C 314.667,538.833 322.333,544.167 330,549.5C 330.837,552.365 331.67,555.198 332.5,558C 331.874,558.75 331.374,559.584 331,560.5C 314.887,544.387 298.721,528.221 282.5,512C 281.833,511.333 281.167,511.333 280.5,512C 277.5,515 274.5,518 271.5,521C 270.035,521.601 269.035,521.101 268.5,519.5C 272.14,516.527 275.473,513.194 278.5,509.5C 277.253,507.503 276.419,505.503 276,503.5C 292.702,486.965 309.202,470.299 325.5,453.5 Z"/></g>
<g><path style="opacity:0.127" fill="#000000" d="M 619.5,489.5 C 620.525,489.897 620.692,490.563 620,491.5C 619.536,490.906 619.369,490.239 619.5,489.5 Z"/></g>
<g><path style="opacity:1" fill="#fed700" d="M 174.5,493.5 C 174.735,492.903 175.235,492.57 176,492.5C 188.699,494.865 198.032,501.865 204,513.5C 204.667,515.5 204.667,517.5 204,519.5C 201.263,520.61 198.429,520.777 195.5,520C 190.062,515.285 186.562,509.452 185,502.5C 181.922,498.915 178.422,495.915 174.5,493.5 Z"/></g>
<g><path style="opacity:1" fill="#bfc0bf" d="M 90.5,497.5 C 119.169,497.333 147.835,497.5 176.5,498C 181.43,501.247 184.264,505.747 185,511.5C 186.697,513.699 188.197,516.032 189.5,518.5C 189.167,519.5 188.5,520.167 187.5,520.5C 182.312,517.27 177.312,513.77 172.5,510C 161.793,505.322 151.126,505.488 140.5,510.5C 147.363,513.931 153.03,518.765 157.5,525C 160.295,526.3 162.961,527.8 165.5,529.5C 167.002,531.833 166.502,533.499 164,534.5C 162.107,533.804 160.274,532.97 158.5,532C 147.032,528.788 136.198,530.288 126,536.5C 123.97,539.226 122.47,542.226 121.5,545.5C 121.833,546.167 122.167,546.833 122.5,547.5C 131.973,544.628 141.306,545.128 150.5,549C 141.859,554.147 141.526,559.481 149.5,565C 136.154,565.833 122.821,565.666 109.5,564.5C 100.528,542.917 94.1948,520.584 90.5,497.5 Z"/></g>
<g><path style="opacity:1" fill="#bfc0bf" d="M 195.5,498.5 C 210.991,497.504 226.658,497.17 242.5,497.5C 242.517,500.92 242.683,504.254 243,507.5C 231,519.5 219,531.5 207,543.5C 207.652,538.538 208.485,533.538 209.5,528.5C 209.582,525.243 208.582,522.409 206.5,520C 207.602,517.599 207.769,515.099 207,512.5C 203.865,507.211 200.031,502.544 195.5,498.5 Z"/></g>
<g><path style="opacity:1" fill="#bfc0bf" d="M 543.5,498.5 C 564.994,497.503 586.66,497.169 608.5,497.5C 604.805,520.584 598.472,542.917 589.5,564.5C 559.833,565.833 530.167,565.833 500.5,564.5C 498.694,559.916 497.194,555.249 496,550.5C 493.463,547.628 490.63,545.128 487.5,543C 490.554,540.806 493.888,539.139 497.5,538C 491.852,533.343 485.518,530.009 478.5,528C 470.833,517.667 461.833,508.667 451.5,501C 452.833,500.333 454.167,500.333 455.5,501C 459.593,503.379 463.926,505.212 468.5,506.5C 481.454,503.851 494.454,502.517 507.5,502.5C 521.93,503.138 533.097,509.472 541,521.5C 544.586,528.592 547.586,535.925 550,543.5C 557.171,531.48 557.171,519.48 550,507.5C 547.812,504.433 545.645,501.433 543.5,498.5 Z"/></g>
<g><path style="opacity:1" fill="#bfc0bf" d="M 374.5,503.5 C 375.693,503.97 376.36,504.97 376.5,506.5C 375.192,513.449 372.025,519.449 367,524.5C 365.069,528.793 363.236,533.126 361.5,537.5C 363.323,546.802 365.657,555.969 368.5,565C 357.5,565.667 346.5,565.667 335.5,565C 334.833,564.333 334.167,563.667 333.5,563C 336.156,555.64 334.49,549.307 328.5,544C 322.249,540.292 316.083,536.459 310,532.5C 307.064,528.09 307.064,523.756 310,519.5C 318.188,510.322 328.354,505.322 340.5,504.5C 351.173,506.339 361.84,506.506 372.5,505C 373.416,504.722 374.082,504.222 374.5,503.5 Z"/></g>
<g><path style="opacity:1" fill="#fed700" d="M 272.5,506.5 C 274.196,506.685 275.529,507.519 276.5,509C 272.958,512.71 269.292,516.21 265.5,519.5C 266.899,522.099 268.899,523.599 271.5,524C 274.5,521 277.5,518 280.5,515C 281.167,514.333 281.833,514.333 282.5,515C 301.167,533.667 319.833,552.333 338.5,571C 337.234,572.983 335.568,573.983 333.5,574C 328.64,568.793 323.64,564.127 318.5,560C 312.985,565.348 307.652,570.848 302.5,576.5C 307.318,581.819 312.318,586.985 317.5,592C 312.985,596.682 308.319,601.182 303.5,605.5C 293.681,596.181 284.014,586.681 274.5,577C 279.682,571.985 284.682,566.819 289.5,561.5C 284.16,555.66 278.66,549.993 273,544.5C 267.656,549.511 262.656,554.844 258,560.5C 252.667,555.167 247.333,549.833 242,544.5C 236.667,549.833 231.333,555.167 226,560.5C 225.333,561.167 225.333,561.833 226,562.5C 231.015,567.348 235.848,572.348 240.5,577.5C 236.182,582.319 231.682,586.985 227,591.5C 231.125,597.807 236.292,603.473 242.5,608.5C 247.819,603.682 252.985,598.682 258,593.5C 268.048,603.046 277.548,613.046 286.5,623.5C 282.182,628.319 277.682,632.985 273,637.5C 268.351,631.684 263.184,626.351 257.5,621.5C 251.944,626.934 246.611,632.601 241.5,638.5C 246.318,643.819 251.318,648.985 256.5,654C 255,655.5 253.5,657 252,658.5C 232.833,639.333 213.667,620.167 194.5,601C 198.167,597.333 201.833,593.667 205.5,590C 203.983,588.315 202.316,586.815 200.5,585.5C 197.015,588.484 193.682,591.651 190.5,595C 188.799,595.345 187.466,594.678 186.5,593C 215.368,564.299 244.035,535.465 272.5,506.5 Z"/></g>
<g><path style="opacity:1" fill="#fed700" d="M 151.5,509.5 C 158.514,508.805 165.181,509.972 171.5,513C 175.744,516.254 180.077,519.421 184.5,522.5C 185.182,531.354 181.182,534.187 172.5,531C 168.102,527.606 163.435,524.606 158.5,522C 155.659,517.993 152.325,514.493 148.5,511.5C 149.602,510.824 150.602,510.158 151.5,509.5 Z"/></g>
<g><path style="opacity:1" fill="#fe0000" d="M 190.5,521.5 C 195.23,523.59 200.064,523.924 205,522.5C 205.985,524.366 206.485,526.366 206.5,528.5C 205.504,533.158 204.504,537.824 203.5,542.5C 203.57,543.772 203.903,544.938 204.5,546C 192.97,557.196 181.803,568.696 171,580.5C 169.981,579.313 168.814,578.313 167.5,577.5C 164.843,578.466 162.176,578.966 159.5,579C 160.909,575.918 162.742,573.085 165,570.5C 167.719,571.444 170.552,571.777 173.5,571.5C 173.5,570.5 173.5,569.5 173.5,568.5C 164.649,567.742 156.316,565.242 148.5,561C 147.833,559.667 147.167,558.333 146.5,557C 148,554.167 150.167,552 153,550.5C 159.291,554.584 164.958,553.584 170,547.5C 170.923,545.966 171.423,544.299 171.5,542.5C 170.579,539.383 169.745,536.383 169,533.5C 169.333,533.167 169.667,532.833 170,532.5C 175.025,536.14 180.192,536.307 185.5,533C 187.247,529.139 188.914,525.306 190.5,521.5 Z"/></g>
<g><path style="opacity:1" fill="#bfc0bf" d="M 400.5,527.5 C 402.253,535.599 404.753,543.599 408,551.5C 411.118,556.286 414.618,560.786 418.5,565C 411.842,565.5 405.175,565.666 398.5,565.5C 397.955,557.942 396.955,550.442 395.5,543C 396.694,537.755 398.361,532.588 400.5,527.5 Z"/></g>
<g><path style="opacity:1" fill="#fed700" d="M 136.5,534.5 C 146.886,533.465 156.886,534.798 166.5,538.5C 169.199,541.903 168.866,545.07 165.5,548C 163.275,549.131 160.942,549.964 158.5,550.5C 155.551,548.07 152.218,546.237 148.5,545C 141.273,543.221 133.94,542.054 126.5,541.5C 129.244,538.144 132.577,535.811 136.5,534.5 Z"/></g>
<g><path style="opacity:1" fill="#bfc0bf" d="M 383.5,544.5 C 386.559,549.613 389.392,554.947 392,560.5C 393.543,562.378 395.376,563.878 397.5,565C 392.467,565.829 387.467,565.662 382.5,564.5C 380.976,557.705 381.309,551.038 383.5,544.5 Z"/></g>
<g><path style="opacity:1" fill="#bfc0bf" d="M 241.5,547.5 C 243.296,548.793 244.963,550.293 246.5,552C 244.543,555.92 241.877,559.254 238.5,562C 235.911,563.314 233.244,563.981 230.5,564C 228.993,563.163 228.493,561.996 229,560.5C 233.37,556.298 237.537,551.964 241.5,547.5 Z"/></g>
<g><path style="opacity:1" fill="#fe0000" d="M 272.5,547.5 C 277.479,551.812 282.146,556.479 286.5,561.5C 281.682,566.819 276.682,571.985 271.5,577C 275.833,581.333 280.167,585.667 284.5,590C 283.333,590.5 282.5,591.333 282,592.5C 282.115,599.22 278.949,603.553 272.5,605.5C 267.876,600.375 263.043,595.375 258,590.5C 252.633,595.532 247.633,600.865 243,606.5C 238.318,601.985 233.818,597.319 229.5,592.5C 234.167,587.5 238.833,582.5 243.5,577.5C 240.349,573.849 237.016,570.349 233.5,567C 240.761,565.574 245.761,561.407 248.5,554.5C 251.818,557.317 254.985,560.317 258,563.5C 262.671,557.997 267.504,552.664 272.5,547.5 Z"/></g>
<g><path style="opacity:1" fill="#bfc0bf" d="M 318.5,562.5 C 320.196,562.685 321.529,563.519 322.5,565C 320.5,565.667 318.5,565.667 316.5,565C 317.381,564.292 318.047,563.458 318.5,562.5 Z"/></g>
<g><path style="opacity:1" fill="#0000ff" d="M 110.5,568.5 C 125.661,567.339 140.994,567.172 156.5,568C 158.101,568.273 159.601,568.773 161,569.5C 159.588,572.323 158.088,575.323 156.5,578.5C 150.412,580.405 145.079,579.238 140.5,575C 136.081,574.78 132.247,573.28 129,570.5C 129.82,579.672 134.32,586.505 142.5,591C 145.244,591.803 147.911,592.803 150.5,594C 144.03,598.126 141.863,603.959 144,611.5C 147.781,619.305 153.947,622.138 162.5,620C 170.058,616.719 177.391,613.219 184.5,609.5C 184.675,612.329 183.342,613.996 180.5,614.5C 177.199,620.908 176.366,627.575 178,634.5C 181.21,631.991 184.043,629.158 186.5,626C 190.968,623.619 195.635,621.619 200.5,620C 202.609,618.859 204.442,617.359 206,615.5C 207.218,621.989 205.051,627.155 199.5,631C 197.004,632.08 194.67,633.414 192.5,635C 177.5,635.667 162.5,635.667 147.5,635C 137.971,620.786 128.804,606.286 120,591.5C 116.719,583.807 113.552,576.141 110.5,568.5 Z"/></g>
<g><path style="opacity:1" fill="#0000ff" d="M 314.5,568.5 C 317.64,567.359 320.973,567.192 324.5,568C 327.682,571.349 331.015,574.516 334.5,577.5C 336.984,575.517 339.317,573.35 341.5,571C 340.5,570 339.5,569 338.5,568C 348.828,567.5 359.161,567.334 369.5,567.5C 372.798,584.443 368.131,598.943 355.5,611C 362.987,616.26 369.487,615.094 375,607.5C 379.356,600.789 383.189,593.789 386.5,586.5C 385.393,580.192 384.393,573.858 383.5,567.5C 396.504,567.333 409.504,567.5 422.5,568C 427,572.5 431.5,577 436,581.5C 438.76,594.424 439.093,607.424 437,620.5C 435.291,623.418 433.458,626.252 431.5,629C 427.916,631.041 424.416,633.208 421,635.5C 417.626,634.451 414.792,632.618 412.5,630C 410.833,629.667 409.167,629.333 407.5,629C 399.504,629.102 391.504,629.102 383.5,629C 378.351,625.57 372.851,624.737 367,626.5C 352.537,620.654 340.037,623.487 329.5,635C 312.5,635.667 295.5,635.667 278.5,635C 282.349,631.318 286.016,627.485 289.5,623.5C 284.682,618.181 279.682,613.015 274.5,608C 277.266,606.533 279.766,604.7 282,602.5C 285.817,614.322 293.651,617.989 305.5,613.5C 303.313,611.15 300.813,609.15 298,607.5C 296.699,605.598 296.032,603.598 296,601.5C 298.349,604.017 300.849,606.35 303.5,608.5C 309.319,603.182 314.985,597.682 320.5,592C 318.833,590.333 317.167,588.667 315.5,587C 321.715,588.979 328.048,588.979 334.5,587C 327.01,581.674 320.343,575.508 314.5,568.5 Z"/></g>
<g><path style="opacity:1" fill="#0000ff" d="M 502.5,568.5 C 530.997,567.336 559.664,567.17 588.5,568C 585.524,575.93 582.358,583.764 579,591.5C 570.196,606.286 561.029,620.786 551.5,635C 534.837,635.5 518.17,635.667 501.5,635.5C 502.96,630.008 500.96,626.842 495.5,626C 494.304,625.346 494.304,624.846 495.5,624.5C 503.267,627.32 511.267,628.153 519.5,627C 515.659,623.492 512.159,619.659 509,615.5C 507.791,611.732 508.791,608.732 512,606.5C 512.956,596.358 509.79,587.858 502.5,581C 506.012,579.686 509.679,578.686 513.5,578C 510.256,574.25 506.589,571.083 502.5,568.5 Z"/></g>
<g><path style="opacity:1" fill="#fe0000" d="M 311.5,569.5 C 316.303,575.135 321.637,580.302 327.5,585C 325.167,585.667 322.833,585.667 320.5,585C 317.382,583.107 314.049,581.774 310.5,581C 309.044,579.255 307.711,577.422 306.5,575.5C 308.19,573.481 309.856,571.481 311.5,569.5 Z"/></g>
<g><path style="opacity:1" fill="#fed700" d="M 133.5,576.5 C 138.114,577.811 142.447,579.644 146.5,582C 153.495,582.97 160.328,582.47 167,580.5C 167.692,581.025 168.192,581.692 168.5,582.5C 166.851,584.65 165.018,586.65 163,588.5C 162.51,589.793 162.343,591.127 162.5,592.5C 151.46,592.658 142.293,588.658 135,580.5C 134.209,579.255 133.709,577.922 133.5,576.5 Z"/></g>
<g><path style="opacity:1" fill="#fe0000" d="M 199.5,588.5 C 201.686,588.511 202.519,589.511 202,591.5C 197.151,594.654 193.651,598.488 191.5,603C 186.167,605.667 180.833,608.333 175.5,611C 174.365,611.749 173.365,611.583 172.5,610.5C 175.557,604.938 179.557,600.105 184.5,596C 186.417,596.027 188.084,596.861 189.5,598.5C 193.188,595.479 196.521,592.146 199.5,588.5 Z"/></g>
<g><path style="opacity:1" fill="#fe0000" d="M 285.5,591.5 C 287.797,593.294 289.963,595.294 292,597.5C 291.751,603.837 294.251,608.67 299.5,612C 295.018,613.011 291.184,611.844 288,608.5C 286.627,605.588 285.127,602.754 283.5,600C 284.213,597.174 284.88,594.34 285.5,591.5 Z"/></g>
<g><path style="opacity:1" fill="#fed700" d="M 154.5,594.5 C 167.251,595.354 171.418,601.688 167,613.5C 158.366,621.005 151.366,619.671 146,609.5C 145.21,602.41 148.044,597.41 154.5,594.5 Z"/></g>
<g><path style="opacity:1" fill="#0000ff" d="M 169.5,597.5 C 171.544,598.031 173.211,599.198 174.5,601C 173.725,602.23 172.725,602.563 171.5,602C 170.418,600.67 169.751,599.17 169.5,597.5 Z"/></g>
<g><path style="opacity:1" fill="#fe0000" d="M 193.5,604.5 C 197.067,606.557 200.234,609.223 203,612.5C 203.667,613.167 203.667,613.833 203,614.5C 198.637,617.625 193.804,619.792 188.5,621C 185.689,622.644 183.356,624.81 181.5,627.5C 180.289,624.124 180.456,620.791 182,617.5C 185.841,613.135 189.674,608.802 193.5,604.5 Z"/></g>
<g><path style="opacity:1" fill="#fe0000" d="M 209.5,619.5 C 212.395,621.202 214.228,623.536 215,626.5C 210.337,631.211 204.837,634.044 198.5,635C 204.764,631.585 208.43,626.419 209.5,619.5 Z"/></g>
<g><path style="opacity:1" fill="#0000ff" d="M 257.5,623.5 C 260.935,627.438 264.602,631.271 268.5,635C 261.5,635.667 254.5,635.667 247.5,635C 250.669,630.999 254.003,627.166 257.5,623.5 Z"/></g>
<g><path style="opacity:1" fill="#fed700" d="M 347.5,626.5 C 351.514,626.334 355.514,626.501 359.5,627C 366.298,628.418 366.965,631.751 361.5,637C 358.533,638.7 355.367,639.867 352,640.5C 345.736,638.079 339.236,636.579 332.5,636C 336.618,631.283 341.618,628.117 347.5,626.5 Z"/></g>
<g><path style="opacity:1" fill="#0000ff" d="M 216.5,628.5 C 217.5,628.5 218.5,628.5 219.5,628.5C 219.674,630.861 220.007,633.194 220.5,635.5C 216.486,635.666 212.486,635.499 208.5,635C 211.936,633.726 214.603,631.559 216.5,628.5 Z"/></g>
<g><path style="opacity:1" fill="#fe0000" d="M 223.5,633.5 C 226.297,635.795 228.964,638.295 231.5,641C 227.174,640.514 224.507,638.014 223.5,633.5 Z"/></g>
<g><path style="opacity:1" fill="#bfc0bf" d="M 149.5,638.5 C 173.391,637.662 197.391,637.495 221.5,638C 222.453,639.955 223.787,641.622 225.5,643C 229.123,644.105 232.79,645.105 236.5,646C 241.667,651.167 246.833,656.333 252,661.5C 254.406,659.017 256.573,656.35 258.5,653.5C 253.833,648.5 249.167,643.5 244.5,638.5C 253.147,637.335 261.814,637.168 270.5,638C 271.333,638.833 272.167,639.667 273,640.5C 273.833,639.667 274.667,638.833 275.5,638C 299.73,636.562 323.063,637.562 345.5,641C 348.952,641.892 351.952,643.558 354.5,646C 341.196,651.61 333.696,661.444 332,675.5C 337.706,674.363 343.206,672.53 348.5,670C 353.848,668.827 359.182,668.66 364.5,669.5C 364.709,670.086 365.043,670.586 365.5,671C 357.888,677.889 355.388,686.389 358,696.5C 359.069,699.208 360.236,701.875 361.5,704.5C 311.503,705.667 261.503,705.833 211.5,705C 188.566,684.901 167.9,662.735 149.5,638.5 Z"/></g>
<g><path style="opacity:1" fill="#bfc0bf" d="M 499.5,637.5 C 516.17,637.333 532.837,637.5 549.5,638C 531.238,662.594 510.571,684.927 487.5,705C 462.502,705.5 437.502,705.667 412.5,705.5C 412.838,703.146 413.338,700.813 414,698.5C 416.545,697.478 419.045,696.312 421.5,695C 425.714,690.454 429.547,685.621 433,680.5C 433.636,686.531 434.47,692.531 435.5,698.5C 441.666,692.487 446.499,685.487 450,677.5C 452.098,685.362 456.431,691.695 463,696.5C 463.333,691.167 463.667,685.833 464,680.5C 470.723,674.369 474.723,667.036 476,658.5C 480.887,664.864 487.387,668.531 495.5,669.5C 495.522,663.798 494.522,658.298 492.5,653C 496.078,648.447 498.411,643.28 499.5,637.5 Z"/></g>
<g><path style="opacity:1" fill="#fed700" d="M 355.5,648.5 C 359.979,648.536 364.312,649.369 368.5,651C 373.188,656.869 372.188,661.536 365.5,665C 355.312,665.035 345.646,667.201 336.5,671.5C 336.167,671.167 335.833,670.833 335.5,670.5C 336.726,667.048 338.226,663.715 340,660.5C 344.781,655.871 349.948,651.871 355.5,648.5 Z"/></g>
<g><path style="opacity:1" fill="#fed700" d="M 375.5,668.5 C 382.333,667.63 385.166,670.63 384,677.5C 380.241,679.825 376.074,681.325 371.5,682C 366.357,687.016 363.523,693.183 363,700.5C 356.972,685.588 361.139,674.921 375.5,668.5 Z"/></g>
<g><path style="opacity:1" fill="#bfc0bf" d="M 372.5,684.5 C 377.003,693.088 383.503,694.754 392,689.5C 392.953,691.455 394.287,693.122 396,694.5C 396.635,696.635 396.301,698.635 395,700.5C 392.246,702.127 389.412,703.627 386.5,705C 378.833,705.667 371.167,705.667 363.5,705C 366.31,700.24 368.143,695.074 369,689.5C 370.176,687.804 371.343,686.138 372.5,684.5 Z"/></g>
<g><path style="opacity:1" fill="#fed700" d="M 404.5,686.5 C 406.722,686.178 408.556,686.845 410,688.5C 412.864,694.619 412.198,700.619 408,706.5C 399.99,711.302 391.49,712.469 382.5,710C 387.737,708.048 392.737,705.548 397.5,702.5C 399.134,698.298 400.301,693.965 401,689.5C 402.145,688.364 403.312,687.364 404.5,686.5 Z"/></g>
<g><path style="opacity:1" fill="#0000ff" d="M 214.5,708.5 C 267.665,707.335 320.998,707.168 374.5,708C 386.388,716.503 398.388,716.503 410.5,708C 435.167,707.333 459.833,707.333 484.5,708C 457.783,729.202 428.116,745.536 395.5,757C 380.192,761.936 364.858,766.77 349.5,771.5C 314.23,762.189 280.563,749.023 248.5,732C 236.892,724.379 225.559,716.546 214.5,708.5 Z"/></g>
</svg>
