<?xml version="1.0" encoding="UTF-8"?>
<!DOCTYPE svg PUBLIC "-//W3C//DTD SVG 1.1//EN" "http://www.w3.org/Graphics/SVG/1.1/DTD/svg11.dtd">
<svg xmlns="http://www.w3.org/2000/svg" version="1.1" width="700px" height="850px" style="shape-rendering:geometricPrecision; text-rendering:geometricPrecision; image-rendering:optimizeQuality; fill-rule:evenodd; clip-rule:evenodd" xmlns:xlink="http://www.w3.org/1999/xlink">
<g><path style="opacity:1" fill="#493d00" d="M 76.5,74.5 C 258.5,74.5 440.5,74.5 622.5,74.5C 622.667,199.167 622.5,323.834 622,448.5C 616.593,496.127 604.927,542.127 587,586.5C 560.17,635.918 525.337,679.084 482.5,716C 451.746,738.544 418.079,755.544 381.5,767C 374.105,769.132 366.772,771.465 359.5,774C 352.833,776 346.167,776 339.5,774C 307.673,764.415 277.006,752.082 247.5,737C 222.337,721.187 199.504,702.354 179,680.5C 168.373,667.538 157.373,654.871 146,642.5C 134.177,624.199 122.844,605.532 112,586.5C 94.0733,542.127 82.4067,496.127 77,448.5C 76.5,323.834 76.3333,199.167 76.5,74.5 Z"/></g>
<g><path style="opacity:1" fill="#bfc0bf" d="M 81.5,79.5 C 260.167,79.5 438.833,79.5 617.5,79.5C 617.5,101.833 617.5,124.167 617.5,146.5C 438.833,146.5 260.167,146.5 81.5,146.5C 81.5,124.167 81.5,101.833 81.5,79.5 Z"/></g>
<g><path style="opacity:1" fill="#0000ff" d="M 81.5,148.5 C 260.167,148.5 438.833,148.5 617.5,148.5C 617.5,171.167 617.5,193.833 617.5,216.5C 564.499,216.667 511.499,216.5 458.5,216C 447.005,209.011 435.505,208.845 424,215.5C 423.127,215.265 422.293,214.931 421.5,214.5C 422.616,200.971 416.616,192.971 403.5,190.5C 394.817,191.994 390.984,196.994 392,205.5C 392.308,206.308 392.808,206.975 393.5,207.5C 394.871,205.295 396.704,203.628 399,202.5C 406.74,204.326 409.573,208.993 407.5,216.5C 400.825,216.666 394.158,216.5 387.5,216C 385.8,211.586 383.133,207.92 379.5,205C 382.044,203.225 382.044,201.392 379.5,199.5C 382.087,194.746 385.254,190.413 389,186.5C 391.403,182.365 393.237,178.032 394.5,173.5C 387.465,171.854 382.465,174.187 379.5,180.5C 373.158,178.46 370.658,180.793 372,187.5C 377.096,188.868 377.596,191.035 373.5,194C 369.96,193.819 367.46,191.986 366,188.5C 364.055,192.39 360.888,194.057 356.5,193.5C 356.351,192.448 356.517,191.448 357,190.5C 359.657,187.853 361.823,184.853 363.5,181.5C 362.218,177.329 360.051,176.662 357,179.5C 354,166.167 351,166.167 348,179.5C 344.949,176.662 342.782,177.329 341.5,181.5C 343.177,184.853 345.343,187.853 348,190.5C 348.483,191.448 348.649,192.448 348.5,193.5C 344.112,194.057 340.945,192.39 339,188.5C 337.54,191.986 335.04,193.819 331.5,194C 327.404,191.035 327.904,188.868 333,187.5C 334.342,180.793 331.842,178.46 325.5,180.5C 322.535,174.187 317.535,171.854 310.5,173.5C 311.763,178.032 313.597,182.365 316,186.5C 319.746,190.413 322.913,194.746 325.5,199.5C 324.833,200.5 324.167,201.5 323.5,202.5C 325.256,204.191 325.756,206.191 325,208.5C 323.018,211.404 320.518,213.738 317.5,215.5C 303.833,216.833 290.167,216.833 276.5,215.5C 278.232,212.263 280.898,210.429 284.5,210C 290.24,205.005 290.74,199.505 286,193.5C 283.99,192.152 281.99,190.818 280,189.5C 279.055,189.905 278.388,190.572 278,191.5C 277.548,195.237 276.382,198.737 274.5,202C 270.654,205.513 267.154,209.346 264,213.5C 261.536,205.361 257.036,198.528 250.5,193C 246.848,191.227 243.015,190.06 239,189.5C 237.833,189.833 236.667,190.167 235.5,190.5C 238.737,198.043 241.237,205.71 243,213.5C 237.429,210.215 231.596,209.715 225.5,212C 224.313,213.019 223.313,214.186 222.5,215.5C 175.505,216.5 128.505,216.833 81.5,216.5C 81.5,193.833 81.5,171.167 81.5,148.5 Z"/></g>
<g><path style="opacity:1" fill="#fed700" d="M 351.5,172.5 C 352.75,172.577 353.583,173.244 354,174.5C 354.025,177.917 354.192,181.25 354.5,184.5C 356.483,183.018 358.316,181.351 360,179.5C 360.667,181.167 360.667,182.833 360,184.5C 350.586,191.943 351.586,195.61 363,195.5C 364,194.5 365,193.5 366,192.5C 368.565,196.134 371.732,196.967 375.5,195C 377.046,192.743 378.712,190.576 380.5,188.5C 378.577,187.692 376.577,187.192 374.5,187C 372.91,184.52 373.41,182.687 376,181.5C 378.058,182.112 379.891,183.112 381.5,184.5C 381.08,177.372 384.414,174.372 391.5,175.5C 389.215,182.731 385.382,189.064 380,194.5C 378.991,196.025 378.491,197.692 378.5,199.5C 361.167,200.833 343.833,200.833 326.5,199.5C 326.509,197.692 326.009,196.025 325,194.5C 319.618,189.064 315.785,182.731 313.5,175.5C 320.586,174.372 323.92,177.372 323.5,184.5C 325.688,182.13 328.188,181.463 331,182.5C 331.72,184.112 331.554,185.612 330.5,187C 328.423,187.192 326.423,187.692 324.5,188.5C 326.249,192.344 329.082,195.01 333,196.5C 335.155,195.421 337.155,194.087 339,192.5C 340.91,195.057 343.41,196.057 346.5,195.5C 348.922,195.743 350.588,194.743 351.5,192.5C 349.902,189.399 347.735,186.732 345,184.5C 344.333,182.833 344.333,181.167 345,179.5C 346.684,181.351 348.517,183.018 350.5,184.5C 350.411,180.533 350.744,176.533 351.5,172.5 Z"/></g>
<g><path style="opacity:1" fill="#fed700" d="M 238.5,191.5 C 248.151,192.676 254.651,197.676 258,206.5C 253.322,208.059 248.822,207.726 244.5,205.5C 241.595,201.204 239.595,196.538 238.5,191.5 Z"/></g>
<g><path style="opacity:1" fill="#fed700" d="M 279.5,191.5 C 286.494,195.465 288.161,200.799 284.5,207.5C 280.112,209.305 277.445,207.805 276.5,203C 278.424,199.397 279.424,195.564 279.5,191.5 Z"/></g>
<g><path style="opacity:1" fill="#fe0000" d="M 353.5,399.5 C 354.845,401.697 356.011,404.03 357,406.5C 358.703,414.645 360.703,422.645 363,430.5C 366.485,419.41 368.818,408.077 370,396.5C 371.093,398.349 372.426,400.016 374,401.5C 374.368,410.973 375.702,420.306 378,429.5C 382.062,440.622 386.396,451.622 391,462.5C 397.072,472.908 406.072,478.908 418,480.5C 431.794,476.586 437.127,467.586 434,453.5C 433,449.167 432,444.833 431,440.5C 423.545,422.137 416.879,403.47 411,384.5C 407.67,365.021 409.336,346.021 416,327.5C 421.194,318.446 425.861,309.112 430,299.5C 439.749,283 449.749,266.666 460,250.5C 461.073,242.983 460.406,235.65 458,228.5C 456.5,227 455,225.5 453.5,224C 449.167,223.333 444.833,223.333 440.5,224C 430.995,230.209 431.495,235.709 442,240.5C 446.179,239.588 449.179,237.255 451,233.5C 453.142,242.904 449.309,248.57 439.5,250.5C 434.197,248.363 430.363,244.697 428,239.5C 428.804,243.728 429.804,248.061 431,252.5C 431.667,254.833 431.667,257.167 431,259.5C 422.629,269.907 416.629,281.574 413,294.5C 412.495,299.884 412.495,305.218 413,310.5C 410.139,306.112 407.806,301.446 406,296.5C 401.667,272.139 408.001,251.139 425,233.5C 426.931,230.386 427.598,227.053 427,223.5C 420.038,230.695 414.038,230.028 409,221.5C 408.711,217.599 409.211,213.766 410.5,210C 408.135,203.481 403.469,200.481 396.5,201C 393.665,205.265 392.832,204.432 394,198.5C 402.266,190.61 409.933,191.276 417,200.5C 418.145,205.083 418.811,209.749 419,214.5C 420.325,216.338 422.159,217.338 424.5,217.5C 438.185,209.781 450.685,211.448 462,222.5C 470.78,232.579 472.78,243.912 468,256.5C 464.588,263.658 460.922,270.658 457,277.5C 447.899,287.932 439.565,298.932 432,310.5C 425.169,322.65 421.836,335.65 422,349.5C 425.298,345.2 428.965,341.2 433,337.5C 435.434,334.205 437.101,330.538 438,326.5C 446.198,319.833 454.031,312.833 461.5,305.5C 463.827,300.352 465.661,295.019 467,289.5C 470.334,296.115 470.667,302.782 468,309.5C 465.333,312.833 462.667,316.167 460,319.5C 449.86,328.728 440.194,338.395 431,348.5C 426.712,354.854 423.879,361.854 422.5,369.5C 423.508,375.199 424.675,380.866 426,386.5C 425.947,375.943 429.28,366.61 436,358.5C 439.465,356.037 442.631,353.204 445.5,350C 452.099,346.452 458.265,342.286 464,337.5C 467.089,334.082 468.756,330.082 469,325.5C 470.929,330.849 470.929,336.182 469,341.5C 457.474,352.27 446.141,363.27 435,374.5C 430.443,381.512 428.776,389.179 430,397.5C 431.955,398.453 433.622,399.787 435,401.5C 435.667,397.5 436.333,393.5 437,389.5C 439.93,385.447 443.43,381.947 447.5,379C 452.94,375.891 458.107,372.391 463,368.5C 465.274,364.286 467.274,359.953 469,355.5C 469.5,356.5 470,357.5 470.5,358.5C 469.868,363.435 468.368,368.101 466,372.5C 460.14,379.272 453.806,385.605 447,391.5C 443.366,395.1 441.033,399.433 440,404.5C 439.473,410.532 439.14,416.532 439,422.5C 444.168,409.98 452.668,400.48 464.5,394C 466.956,391.592 468.789,388.759 470,385.5C 470.61,389.236 470.277,392.903 469,396.5C 461.849,404.806 455.182,413.473 449,422.5C 446.311,429.418 444.811,436.584 444.5,444C 447.791,458.954 445.291,472.787 437,485.5C 429.951,493.917 421.118,496.417 410.5,493C 404.985,489.92 399.652,486.92 394.5,484C 395.758,488.109 397.592,491.942 400,495.5C 405.639,499.435 409.306,504.768 411,511.5C 416.069,513.617 420.902,516.117 425.5,519C 420.526,520.96 415.693,520.46 411,517.5C 410.833,517.833 410.667,518.167 410.5,518.5C 415.588,529.169 419.921,540.169 423.5,551.5C 433.792,559.582 432.459,561.082 419.5,556C 417.833,555.333 416.167,555.333 414.5,556C 416.452,558.074 418.285,560.241 420,562.5C 417.679,574.257 421.512,583.09 431.5,589C 428.129,589.744 424.963,589.244 422,587.5C 419.957,589.208 418.29,591.208 417,593.5C 413.587,602.627 413.754,611.627 417.5,620.5C 416.21,621.408 414.877,621.241 413.5,620C 410.067,616.958 407.234,613.458 405,609.5C 402.684,619.363 401.35,629.363 401,639.5C 400.333,640.833 399.667,642.167 399,643.5C 397.375,639.668 396.375,635.668 396,631.5C 394,629.5 392,627.5 390,625.5C 389.917,631.942 389.251,638.275 388,644.5C 385.916,640.664 383.583,636.997 381,633.5C 379.139,635.888 377.806,638.554 377,641.5C 372.598,639.528 369.098,640.528 366.5,644.5C 364.067,641.758 361.067,640.925 357.5,642C 352.038,644.638 346.705,647.471 341.5,650.5C 340.833,650.333 340.167,650.167 339.5,650C 344.72,646.345 346.72,641.511 345.5,635.5C 342.894,634.348 340.227,634.182 337.5,635C 333.232,636.72 329.065,638.553 325,640.5C 323.029,640.532 321.529,639.698 320.5,638C 329.594,635.073 334.928,628.907 336.5,619.5C 332.431,618.68 328.097,617.846 323.5,617C 321.156,616.163 319.156,614.829 317.5,613C 323.27,612.538 328.937,611.538 334.5,610C 337.095,607.787 339.928,605.953 343,604.5C 361.513,608.241 374.179,601.241 381,583.5C 384.088,576.446 385.088,569.113 384,561.5C 377.519,550.236 372.685,538.236 369.5,525.5C 371.475,515.933 372.308,506.266 372,496.5C 370.803,493.911 369.803,491.244 369,488.5C 366.391,496.997 363.391,505.33 360,513.5C 360.928,524.81 361.594,536.144 362,547.5C 360.657,551.51 358.491,555.01 355.5,558C 354.5,558.667 353.5,558.667 352.5,558C 355.635,552.963 357.302,547.463 357.5,541.5C 355.447,533.453 354.113,525.286 353.5,517C 355.27,504.831 356.77,492.664 358,480.5C 351.233,460.638 341.066,442.638 327.5,426.5C 332.119,422.164 334.953,416.83 336,410.5C 338.618,415.451 342.284,419.451 347,422.5C 345.721,415.921 345.054,409.254 345,402.5C 345.333,402.167 345.667,401.833 346,401.5C 346.917,406.001 348.917,410.001 352,413.5C 352.174,408.649 352.674,403.982 353.5,399.5 Z"/></g>
<g><path style="opacity:1" fill="#fed700" d="M 326.5,201.5 C 343.833,202.833 361.167,202.833 378.5,201.5C 378.67,202.822 378.337,203.989 377.5,205C 360.833,205.667 344.167,205.667 327.5,205C 326.663,203.989 326.33,202.822 326.5,201.5 Z"/></g>
<g><path style="opacity:1" fill="#fe0000" d="M 272.5,205.5 C 273.552,205.351 274.552,205.517 275.5,206C 276.257,207.512 277.257,208.846 278.5,210C 273.301,214.692 270.635,220.525 270.5,227.5C 272.476,244.931 278.31,260.931 288,275.5C 294.258,286.352 301.258,296.686 309,306.5C 309.94,310.101 311.107,313.601 312.5,317C 309.672,319.248 306.672,321.248 303.5,323C 300.424,323.346 297.424,324.012 294.5,325C 299.141,332.633 305.807,337.633 314.5,340C 309.211,343.62 304.211,347.62 299.5,352C 287.167,360.551 284.334,357.717 291,343.5C 291.808,341.421 291.641,339.421 290.5,337.5C 287.105,338.871 283.771,340.204 280.5,341.5C 278.758,332.952 278.258,324.285 279,315.5C 280.602,313.631 281.602,311.631 282,309.5C 277.312,313.689 272.479,317.689 267.5,321.5C 266.287,317.171 266.287,312.838 267.5,308.5C 266.421,303.928 264.754,299.594 262.5,295.5C 260.032,296.803 257.699,298.303 255.5,300C 253.231,300.758 251.064,300.591 249,299.5C 248.383,298.551 248.549,297.718 249.5,297C 251.746,295.961 253.913,294.794 256,293.5C 256.358,288.441 255.858,283.441 254.5,278.5C 255.516,274.121 256.349,269.788 257,265.5C 256.333,266.833 255.667,266.833 255,265.5C 252.228,270.251 248.728,270.751 244.5,267C 251.443,263.607 254.61,258.107 254,250.5C 252.209,247.605 249.709,246.772 246.5,248C 248.908,244.957 249.074,241.791 247,238.5C 243.217,235.902 239.05,234.068 234.5,233C 232.984,231.103 232.317,228.936 232.5,226.5C 237.179,226.666 241.845,226.499 246.5,226C 251.731,222.466 251.564,218.966 246,215.5C 245.689,213.444 245.189,211.444 244.5,209.5C 244.833,209.167 245.167,208.833 245.5,208.5C 250.485,209.715 255.485,209.715 260.5,208.5C 260.889,211.946 261.722,215.279 263,218.5C 266.185,214.108 269.352,209.774 272.5,205.5 Z"/></g>
<g><path style="opacity:1" fill="#fe0000" d="M 383.5,231.5 C 385.859,236.373 388.859,240.873 392.5,245C 390.413,244.782 388.413,244.949 386.5,245.5C 388.389,251.895 392.056,257.062 397.5,261C 394.5,261.333 391.5,261.667 388.5,262C 391.723,264.216 393.723,267.216 394.5,271C 390.67,280.465 392.003,288.965 398.5,296.5C 395.171,297.426 392.337,296.426 390,293.5C 391.086,303.073 392.086,312.74 393,322.5C 393.916,328.094 396.083,333.094 399.5,337.5C 399.167,338.5 398.5,339.167 397.5,339.5C 393.228,337.226 389.228,334.559 385.5,331.5C 385.167,333 384.833,334.5 384.5,336C 384.676,339.847 385.843,343.347 388,346.5C 389.035,355.136 389.702,363.803 390,372.5C 391.796,375.927 393.963,379.094 396.5,382C 392.021,382.563 388.021,381.397 384.5,378.5C 382.803,379.364 381.637,380.697 381,382.5C 380.333,385.833 380.333,389.167 381,392.5C 382.521,396.865 384.021,401.198 385.5,405.5C 377.339,402.844 371.506,397.511 368,389.5C 367.851,401.062 366.184,412.395 363,423.5C 361.587,416.436 359.921,409.436 358,402.5C 356.871,400.859 355.371,399.859 353.5,399.5C 353.814,396.053 354.648,392.72 356,389.5C 362.154,375.95 366.987,362.284 370.5,348.5C 369.914,348.709 369.414,349.043 369,349.5C 364.222,363.721 358.889,377.721 353,391.5C 351.524,396.406 350.524,401.406 350,406.5C 348.368,402.654 347.034,398.654 346,394.5C 341.739,402.451 341.406,410.451 345,418.5C 339.724,413.064 335.724,406.731 333,399.5C 334.484,406.881 333.484,413.881 330,420.5C 329,421.5 328,422.5 327,423.5C 324.895,417.073 321.561,411.406 317,406.5C 315.027,412.449 312.027,417.783 308,422.5C 303.973,417.783 300.973,412.449 299,406.5C 297.099,411.302 294.432,415.636 291,419.5C 287.62,414.73 285.953,409.397 286,403.5C 281.94,407.292 278.607,411.626 276,416.5C 274.394,411.681 274.061,406.681 275,401.5C 276.436,398.526 277.436,395.526 278,392.5C 274.588,395.123 271.088,397.623 267.5,400C 265.167,400.667 262.833,400.667 260.5,400C 264.383,395.708 264.883,391.208 262,386.5C 255.725,383.728 249.558,380.562 243.5,377C 251.642,377.209 254.976,373.542 253.5,366C 251.285,364.956 248.952,364.29 246.5,364C 246.833,363.667 247.167,363.333 247.5,363C 238.538,355.878 239.538,353.212 250.5,355C 253.379,353.334 254.212,350.834 253,347.5C 248.913,344.084 245.58,340.084 243,335.5C 242.333,332.5 242.333,329.5 243,326.5C 245.985,331.999 250.485,335.332 256.5,336.5C 258.374,336.61 259.874,335.944 261,334.5C 262.333,335.833 263.667,337.167 265,338.5C 268.65,346.469 272.317,354.469 276,362.5C 281.84,370 289.506,373.333 299,372.5C 312.73,372.135 323.73,366.468 332,355.5C 334.921,350.659 337.588,345.659 340,340.5C 343.473,337.027 346.973,333.527 350.5,330C 350,329.5 349.5,329 349,328.5C 340.794,335.244 334.794,343.578 331,353.5C 327.167,357.333 323.333,361.167 319.5,365C 313.783,368.308 307.783,369.808 301.5,369.5C 303.306,366.528 305.306,363.695 307.5,361C 304.596,361.565 301.596,362.065 298.5,362.5C 298.408,358.941 299.241,355.608 301,352.5C 307.439,348.029 313.605,343.195 319.5,338C 309.859,338.18 302.525,334.18 297.5,326C 303.393,325.553 308.393,323.22 312.5,319C 316.253,318.909 319.92,318.742 323.5,318.5C 322.226,314.787 320.56,311.287 318.5,308C 318.862,306.775 319.362,305.609 320,304.5C 326.085,303.688 332.252,303.188 338.5,303C 347.097,299.309 351.93,292.809 353,283.5C 367.685,276.414 370.685,266.081 362,252.5C 361.5,253 361,253.5 360.5,254C 368.675,267.264 365.341,276.597 350.5,282C 344.833,282.667 339.167,282.667 333.5,282C 328.605,281.489 324.105,279.989 320,277.5C 320.062,274.159 321.229,271.159 323.5,268.5C 324.711,270.422 326.044,272.255 327.5,274C 334.777,275.467 342.111,275.801 349.5,275C 351.487,273.681 352.654,271.848 353,269.5C 354.102,263.545 354.936,257.545 355.5,251.5C 354.278,246.759 351.612,242.926 347.5,240C 344.449,239.143 341.783,239.81 339.5,242C 336.5,242.667 333.5,242.667 330.5,242C 328.241,240.285 326.074,238.452 324,236.5C 323.049,230.197 321.549,224.03 319.5,218C 322.63,215.358 325.296,212.192 327.5,208.5C 339.5,207.167 351.5,207.167 363.5,208.5C 364.666,211.503 366.333,214.17 368.5,216.5C 369.738,213.617 371.072,210.783 372.5,208C 375.167,207.333 377.833,207.333 380.5,208C 385.399,213.428 386.899,219.595 385,226.5C 382.734,229.91 379.901,230.744 376.5,229C 382.098,226.69 383.931,222.523 382,216.5C 378.266,212.399 375.1,212.732 372.5,217.5C 372.833,218.167 373.167,218.833 373.5,219.5C 374.702,215.264 376.868,214.597 380,217.5C 380.667,219.5 380.667,221.5 380,223.5C 378.005,225.177 375.839,226.677 373.5,228C 375.877,231.848 379.21,233.015 383.5,231.5 Z"/></g>
<g><path style="opacity:1" fill="#0000ff" d="M 365.5,207.5 C 367.199,207.34 368.866,207.506 370.5,208C 368.518,213.886 366.851,213.719 365.5,207.5 Z"/></g>
<g><path style="opacity:1" fill="#fed700" d="M 228.5,212.5 C 236.676,211.754 243.342,214.587 248.5,221C 247.833,222.333 246.833,223.333 245.5,224C 236.837,226.378 229.837,224.045 224.5,217C 225.344,214.993 226.677,213.493 228.5,212.5 Z"/></g>
<g><path style="opacity:1" fill="#483d00" d="M 341.5,218.5 C 342.251,217.427 343.251,217.26 344.5,218C 353.261,226.88 351.261,230.547 338.5,229C 334.629,227.034 333.295,224.034 334.5,220C 331.839,220.598 329.173,220.432 326.5,219.5C 331.974,217.731 337.474,216.064 343,214.5C 345.544,214.384 347.711,215.217 349.5,217C 352.87,220.035 355.87,223.368 358.5,227C 361.444,227.97 364.444,228.804 367.5,229.5C 364.894,230.652 362.227,230.818 359.5,230C 355.554,226.054 351.554,222.054 347.5,218C 342.703,215.518 338.703,216.352 335.5,220.5C 335.853,222.731 336.686,224.731 338,226.5C 338.067,224.265 337.567,222.098 336.5,220C 338.154,219.392 339.821,218.892 341.5,218.5 Z"/></g>
<g><path style="opacity:1" fill="#bfc0bf" d="M 81.5,218.5 C 128.505,218.167 175.505,218.5 222.5,219.5C 228.471,221.201 231.304,225.201 231,231.5C 234.733,235.307 239.233,237.807 244.5,239C 245.126,239.75 245.626,240.584 246,241.5C 245.811,246.414 244.311,250.914 241.5,255C 235.191,254.184 229.524,251.684 224.5,247.5C 225.266,254.855 228.6,261.022 234.5,266C 239.354,265.867 243.354,267.533 246.5,271C 248.769,271.758 250.936,271.591 253,270.5C 252.173,275.832 252.34,281.166 253.5,286.5C 196.167,286.5 138.833,286.5 81.5,286.5C 81.5,263.833 81.5,241.167 81.5,218.5 Z"/></g>
<g><path style="opacity:1" fill="#bfc0bf" d="M 274.5,218.5 C 288.504,218.333 302.504,218.5 316.5,219C 319.802,224.703 321.635,230.869 322,237.5C 328.613,245.284 336.446,246.618 345.5,241.5C 347.029,241.529 348.196,242.196 349,243.5C 349.953,245.455 351.287,247.122 353,248.5C 353.439,252.211 353.106,255.878 352,259.5C 344.153,250.584 334.32,247.418 322.5,250C 315.762,253.126 309.095,253.126 302.5,250C 299.87,246.772 300.036,243.605 303,240.5C 303.497,238.19 303.663,235.857 303.5,233.5C 296.173,234.315 291.34,238.315 289,245.5C 286.745,259.578 292.745,266.578 307,266.5C 312.236,266.976 317.069,265.81 321.5,263C 332.477,260.156 341.144,263.323 347.5,272.5C 340.728,273.937 334.062,273.604 327.5,271.5C 326.42,269.004 325.086,266.67 323.5,264.5C 320.769,268.796 318.435,273.296 316.5,278C 320.072,280.637 324.072,282.303 328.5,283C 335.782,284.135 343.115,284.801 350.5,285C 341.49,286.155 332.323,286.655 323,286.5C 314.167,286.167 305.333,285.833 296.5,285.5C 288.617,273.069 281.784,260.069 276,246.5C 274.383,240.247 273.216,233.913 272.5,227.5C 272.449,224.303 273.115,221.303 274.5,218.5 Z"/></g>
<g><path style="opacity:1" fill="#fe0000" d="M 341.5,218.5 C 344.334,220.502 346.667,223.002 348.5,226C 347.584,226.374 346.75,226.874 346,227.5C 343.962,224.757 342.462,221.757 341.5,218.5 Z"/></g>
<g><path style="opacity:1" fill="#bfc0bf" d="M 383.5,231.5 C 387.388,228.104 388.722,223.937 387.5,219C 393.825,218.5 400.158,218.334 406.5,218.5C 408.5,229.056 414.333,232.389 424,228.5C 424.167,229 424.333,229.5 424.5,230C 414.235,240.951 407.402,253.784 404,268.5C 403.501,274.491 403.334,280.491 403.5,286.5C 400.5,286.5 397.5,286.5 394.5,286.5C 394.327,281.224 394.994,276.057 396.5,271C 395.976,268.587 394.976,266.42 393.5,264.5C 396.447,263.679 399.447,263.179 402.5,263C 397.334,258.517 393.001,253.517 389.5,248C 391.577,247.808 393.577,247.308 395.5,246.5C 392.121,240.811 388.121,235.811 383.5,231.5 Z"/></g>
<g><path style="opacity:1" fill="#bfc0bf" d="M 461.5,219.5 C 513.331,218.501 565.331,218.168 617.5,218.5C 617.5,241.167 617.5,263.833 617.5,286.5C 567.496,286.833 517.496,286.5 467.5,285.5C 465.993,281.645 465.326,281.979 465.5,286.5C 461.154,286.666 456.821,286.499 452.5,286C 461.46,275.586 467.96,263.753 472,250.5C 474.143,238.147 470.643,227.813 461.5,219.5 Z"/></g>
<g><path style="opacity:1" fill="#fe0000" d="M 339.5,220.5 C 340.933,222.519 342.267,224.686 343.5,227C 342.207,227.49 340.873,227.657 339.5,227.5C 339.5,225.167 339.5,222.833 339.5,220.5 Z"/></g>
<g><path style="opacity:1" fill="#bfc0bf" d="M 441.5,225.5 C 450.13,223.077 455.63,226.077 458,234.5C 458.667,239.833 458.667,245.167 458,250.5C 450.375,262.249 442.875,274.082 435.5,286C 429.472,286.83 423.472,286.664 417.5,285.5C 421.672,276.18 426.838,267.513 433,259.5C 433.369,256.123 433.369,252.79 433,249.5C 441.943,254.089 448.609,251.756 453,242.5C 455.334,236.831 454.001,232.164 449,228.5C 448.734,236.954 444.9,239.287 437.5,235.5C 436.96,234.252 436.293,233.085 435.5,232C 436.688,228.982 438.688,226.815 441.5,225.5 Z"/></g>
<g><path style="opacity:1" fill="#fed700" d="M 299.5,235.5 C 300.649,235.791 301.316,236.624 301.5,238C 295.926,248.343 299.093,253.843 311,254.5C 317.124,253.179 323.291,252.179 329.5,251.5C 339.472,251.15 347.139,255.15 352.5,263.5C 351.988,265.884 351.321,268.217 350.5,270.5C 349.998,271.521 349.332,271.688 348.5,271C 341.715,260.961 332.382,257.627 320.5,261C 311.985,265.227 303.318,265.561 294.5,262C 287.915,251.564 289.582,242.731 299.5,235.5 Z"/></g>
<g><path style="opacity:1" fill="#fed700" d="M 247.5,250.5 C 250.59,249.83 252.257,250.997 252.5,254C 249.731,264.216 243.397,267.216 233.5,263C 230.8,260.136 229.466,256.97 229.5,253.5C 232.746,255.039 235.912,256.706 239,258.5C 242.965,257.035 245.799,254.368 247.5,250.5 Z"/></g>
<g><path style="opacity:1" fill="#0000ff" d="M 81.5,288.5 C 139.167,288.5 196.833,288.5 254.5,288.5C 254.762,289.978 254.429,291.311 253.5,292.5C 249.525,293.949 247.359,296.616 247,300.5C 252.252,303.489 257.085,302.822 261.5,298.5C 263.385,301.604 264.718,304.938 265.5,308.5C 264.884,313.856 264.217,319.19 263.5,324.5C 263.833,324.833 264.167,325.167 264.5,325.5C 268.747,323.418 272.581,320.751 276,317.5C 276.129,326.652 277.296,335.652 279.5,344.5C 282.618,343.441 285.618,342.108 288.5,340.5C 288.833,341 289.167,341.5 289.5,342C 286.657,346.031 285.324,350.531 285.5,355.5C 281.818,355.665 278.152,355.499 274.5,355C 272.338,349.85 270.171,344.684 268,339.5C 263.137,334.005 258.804,328.005 255,321.5C 251.189,316.014 246.022,312.681 239.5,311.5C 236.972,311.763 234.639,312.596 232.5,314C 236.314,316.647 239.647,319.813 242.5,323.5C 239.261,330.574 240.261,337.074 245.5,343C 242.509,342.695 239.509,342.028 236.5,341C 232.5,340.333 228.5,340.333 224.5,341C 229.041,345.709 233.708,350.209 238.5,354.5C 186.14,355.222 133.806,355.555 81.5,355.5C 81.5,333.167 81.5,310.833 81.5,288.5 Z"/></g>
<g><path style="opacity:1" fill="#0000ff" d="M 298.5,289.5 C 315.325,288.503 332.325,288.17 349.5,288.5C 349.509,290.308 349.009,291.975 348,293.5C 344.94,296.614 341.44,299.114 337.5,301C 331.5,301.333 325.5,301.667 319.5,302C 318.03,303.793 317.03,305.793 316.5,308C 317.674,310.85 319.007,313.684 320.5,316.5C 318.448,316.705 316.114,316.705 313.5,316.5C 313.047,312.307 311.881,308.307 310,304.5C 306.303,299.315 302.47,294.315 298.5,289.5 Z"/></g>
<g><path style="opacity:1" fill="#0000ff" d="M 395.5,289.5 C 397.948,288.527 400.615,288.194 403.5,288.5C 404.349,299.537 408.515,309.204 416,317.5C 415.566,312.043 415.066,306.543 414.5,301C 414.433,297.027 415.099,293.194 416.5,289.5C 422.167,288.167 427.833,288.167 433.5,289.5C 427.271,302.292 420.771,314.959 414,327.5C 410.877,336.654 408.711,345.987 407.5,355.5C 402.156,355.666 396.823,355.499 391.5,355C 390.962,348.881 389.295,343.047 386.5,337.5C 386.833,336.833 387.167,336.167 387.5,335.5C 390.914,337.957 394.414,340.291 398,342.5C 399.878,340.957 401.378,339.124 402.5,337C 398.493,333.002 395.993,328.169 395,322.5C 393.669,314.536 393.335,306.536 394,298.5C 396.382,299.554 398.882,300.221 401.5,300.5C 400.786,296.067 398.786,292.4 395.5,289.5 Z"/></g>
<g><path style="opacity:1" fill="#0000ff" d="M 450.5,288.5 C 455.167,288.5 459.833,288.5 464.5,288.5C 464.087,293.818 462.587,298.818 460,303.5C 452.356,311.476 444.356,319.142 436,326.5C 433.971,333.202 430.304,338.868 425,343.5C 425.819,328.047 430.819,314.047 440,301.5C 443.713,297.292 447.213,292.959 450.5,288.5 Z"/></g>
<g><path style="opacity:1" fill="#0000ff" d="M 469.5,288.5 C 518.833,288.5 568.167,288.5 617.5,288.5C 617.5,310.833 617.5,333.167 617.5,355.5C 577.422,354.865 537.422,354.865 497.5,355.5C 488.5,355.167 479.5,354.833 470.5,354.5C 468.952,350.583 467.619,350.749 466.5,355C 463.833,355.667 461.167,355.667 458.5,355C 461.667,350.5 465.5,346.667 470,343.5C 472.31,338.734 472.977,333.734 472,328.5C 470.798,325.226 469.798,321.893 469,318.5C 468.396,326.518 465.229,333.352 459.5,339C 451.458,343.355 444.125,348.688 437.5,355C 434.773,355.818 432.106,355.652 429.5,354.5C 431.473,351.36 433.64,348.36 436,345.5C 448.035,335.132 459.035,323.799 469,311.5C 472.643,304.01 472.81,296.344 469.5,288.5 Z"/></g>
<g><path style="opacity:1" fill="#fed700" d="M 237.5,313.5 C 240.794,313.259 243.794,314.092 246.5,316C 250.369,319.534 253.869,323.367 257,327.5C 260.855,334.315 259.022,336.149 251.5,333C 247.542,329.579 244.708,325.412 243,320.5C 241.127,318.291 238.96,316.458 236.5,315C 237.056,314.617 237.389,314.117 237.5,313.5 Z"/></g>
<g><path style="opacity:1" fill="#fed700" d="M 229.5,343.5 C 230.449,342.848 231.615,342.514 233,342.5C 238.116,343.871 243.282,345.038 248.5,346C 252.911,349.842 252.411,352.342 247,353.5C 244.453,353.238 241.953,352.738 239.5,352C 236,349.331 232.667,346.498 229.5,343.5 Z"/></g>
<g><path style="opacity:1" fill="#fe0000" d="M 132.5,356.5 C 134.833,356.5 137.167,356.5 139.5,356.5C 139.5,359.5 139.5,362.5 139.5,365.5C 142.5,365.5 145.5,365.5 148.5,365.5C 148.5,362.5 148.5,359.5 148.5,356.5C 151.167,356.5 153.833,356.5 156.5,356.5C 156.5,359.5 156.5,362.5 156.5,365.5C 159.5,365.5 162.5,365.5 165.5,365.5C 165.5,362.5 165.5,359.5 165.5,356.5C 167.833,356.5 170.167,356.5 172.5,356.5C 175.309,372.672 168.642,378.339 152.5,373.5C 136.358,378.339 129.691,372.672 132.5,356.5 Z"/></g>
<g><path style="opacity:1" fill="#fe0000" d="M 526.5,356.5 C 528.833,356.5 531.167,356.5 533.5,356.5C 533.5,359.5 533.5,362.5 533.5,365.5C 536.5,365.5 539.5,365.5 542.5,365.5C 542.5,362.5 542.5,359.5 542.5,356.5C 545.167,356.5 547.833,356.5 550.5,356.5C 550.5,359.5 550.5,362.5 550.5,365.5C 553.5,365.5 556.5,365.5 559.5,365.5C 559.5,362.5 559.5,359.5 559.5,356.5C 561.833,356.5 564.167,356.5 566.5,356.5C 569.309,372.672 562.642,378.339 546.5,373.5C 530.358,378.339 523.691,372.672 526.5,356.5 Z"/></g>
<g><path style="opacity:1" fill="#bfc0bf" d="M 81.5,357.5 C 97.8333,357.5 114.167,357.5 130.5,357.5C 130.173,362.544 130.506,367.544 131.5,372.5C 132.478,372.977 133.311,373.643 134,374.5C 134.5,384.828 134.666,395.161 134.5,405.5C 132.5,405.5 130.5,405.5 128.5,405.5C 128.244,403.088 129.244,401.421 131.5,400.5C 132.495,394.872 132.829,389.206 132.5,383.5C 129.5,383.5 126.5,383.5 123.5,383.5C 123.5,386.5 123.5,389.5 123.5,392.5C 121.167,392.5 118.833,392.5 116.5,392.5C 116.5,389.5 116.5,386.5 116.5,383.5C 113.5,383.5 110.5,383.5 107.5,383.5C 107.5,386.5 107.5,389.5 107.5,392.5C 105.167,392.5 102.833,392.5 100.5,392.5C 100.5,389.5 100.5,386.5 100.5,383.5C 97.5,383.5 94.5,383.5 91.5,383.5C 91.1712,389.206 91.5046,394.872 92.5,400.5C 93.4776,400.977 94.3109,401.643 95,402.5C 95.4997,410.159 95.6664,417.826 95.5,425.5C 90.8333,425.5 86.1667,425.5 81.5,425.5C 81.5,402.833 81.5,380.167 81.5,357.5 Z"/></g>
<g><path style="opacity:1" fill="#bfc0bf" d="M 141.5,357.5 C 143.167,357.5 144.833,357.5 146.5,357.5C 146.5,359.5 146.5,361.5 146.5,363.5C 144.833,363.5 143.167,363.5 141.5,363.5C 141.5,361.5 141.5,359.5 141.5,357.5 Z"/></g>
<g><path style="opacity:1" fill="#bfc0bf" d="M 158.5,357.5 C 160.167,357.5 161.833,357.5 163.5,357.5C 163.5,359.5 163.5,361.5 163.5,363.5C 161.833,363.5 160.167,363.5 158.5,363.5C 158.5,361.5 158.5,359.5 158.5,357.5 Z"/></g>
<g><path style="opacity:1" fill="#bfc0bf" d="M 174.5,357.5 C 196.503,357.333 218.503,357.5 240.5,358C 241.79,360.292 243.457,362.292 245.5,364C 237.398,365.051 230.732,368.718 225.5,375C 230.833,376 236.167,377 241.5,378C 246.236,381.026 250.903,384.026 255.5,387C 249.092,393.484 241.925,394.65 234,390.5C 232.775,390.862 231.609,391.362 230.5,392C 232.736,400.378 238.236,404.544 247,404.5C 253.75,403.145 260.583,402.312 267.5,402C 269.333,400.833 271.167,399.667 273,398.5C 272.484,404.115 272.484,409.782 273,415.5C 273.29,417.952 273.956,420.285 275,422.5C 277.501,417.494 280.501,412.827 284,408.5C 285.041,413.585 287.374,417.918 291,421.5C 294.379,418.782 297.046,415.449 299,411.5C 300.838,416.517 303.672,420.85 307.5,424.5C 294.179,425.666 280.846,425.833 267.5,425C 263.785,420.407 259.952,415.907 256,411.5C 255.148,415.996 255.648,420.33 257.5,424.5C 241.514,425.499 225.514,425.833 209.5,425.5C 209.334,417.826 209.5,410.159 210,402.5C 210.689,401.643 211.522,400.977 212.5,400.5C 213.495,394.872 213.829,389.206 213.5,383.5C 210.5,383.5 207.5,383.5 204.5,383.5C 204.5,386.5 204.5,389.5 204.5,392.5C 202.167,392.5 199.833,392.5 197.5,392.5C 197.5,389.5 197.5,386.5 197.5,383.5C 194.5,383.5 191.5,383.5 188.5,383.5C 188.5,386.5 188.5,389.5 188.5,392.5C 186.167,392.5 183.833,392.5 181.5,392.5C 181.5,389.5 181.5,386.5 181.5,383.5C 178.5,383.5 175.5,383.5 172.5,383.5C 172.171,389.206 172.505,394.872 173.5,400.5C 175.756,401.421 176.756,403.088 176.5,405.5C 174.5,405.5 172.5,405.5 170.5,405.5C 170.334,395.161 170.5,384.828 171,374.5C 171.689,373.643 172.522,372.977 173.5,372.5C 174.494,367.544 174.827,362.544 174.5,357.5 Z"/></g>
<g><path style="opacity:1" fill="#bfc0bf" d="M 275.5,358.5 C 279.491,357.081 283.491,357.415 287.5,359.5C 290.479,358.672 293.479,358.005 296.5,357.5C 296.768,360.119 296.435,362.619 295.5,365C 297.856,365.155 300.189,365.155 302.5,365C 301.218,367.954 299.052,369.787 296,370.5C 291.589,370.128 287.422,368.962 283.5,367C 280.601,364.271 277.934,361.438 275.5,358.5 Z"/></g>
<g><path style="opacity:1" fill="#bfc0bf" d="M 391.5,357.5 C 396.833,357.5 402.167,357.5 407.5,357.5C 407.236,366.546 407.736,375.546 409,384.5C 413.134,398.264 417.967,411.764 423.5,425C 408.833,425.667 394.167,425.667 379.5,425C 377.297,418.012 376.464,410.845 377,403.5C 380.601,406.745 384.767,408.245 389.5,408C 384.457,400.209 382.29,391.709 383,382.5C 383.414,382.043 383.914,381.709 384.5,381.5C 390.292,383.971 396.292,385.138 402.5,385C 393.146,378.122 389.479,368.956 391.5,357.5 Z"/></g>
<g><path style="opacity:1" fill="#bfc0bf" d="M 427.5,357.5 C 429.857,357.337 432.19,357.503 434.5,358C 430.62,362.255 427.62,367.089 425.5,372.5C 425.167,371.667 424.833,370.833 424.5,370C 425.426,365.796 426.426,361.629 427.5,357.5 Z"/></g>
<g><path style="opacity:1" fill="#bfc0bf" d="M 454.5,357.5 C 458.226,357.177 461.893,357.511 465.5,358.5C 461.86,367.34 455.526,373.507 446.5,377C 443,380.5 439.5,384 436,387.5C 435,390.833 434,394.167 433,397.5C 430.893,390.203 431.893,383.203 436,376.5C 441.698,369.636 447.865,363.303 454.5,357.5 Z"/></g>
<g><path style="opacity:1" fill="#bfc0bf" d="M 472.5,357.5 C 489.833,357.5 507.167,357.5 524.5,357.5C 524.173,362.544 524.506,367.544 525.5,372.5C 526.478,372.977 527.311,373.643 528,374.5C 528.5,384.828 528.666,395.161 528.5,405.5C 526.5,405.5 524.5,405.5 522.5,405.5C 522.244,403.088 523.244,401.421 525.5,400.5C 526.495,394.872 526.829,389.206 526.5,383.5C 523.5,383.5 520.5,383.5 517.5,383.5C 517.5,386.5 517.5,389.5 517.5,392.5C 515.167,392.5 512.833,392.5 510.5,392.5C 510.5,389.5 510.5,386.5 510.5,383.5C 507.5,383.5 504.5,383.5 501.5,383.5C 501.5,386.5 501.5,389.5 501.5,392.5C 499.167,392.5 496.833,392.5 494.5,392.5C 494.5,389.5 494.5,386.5 494.5,383.5C 491.5,383.5 488.5,383.5 485.5,383.5C 485.171,389.206 485.505,394.872 486.5,400.5C 487.478,400.977 488.311,401.643 489,402.5C 489.5,410.159 489.666,417.826 489.5,425.5C 476.483,425.832 463.483,425.499 450.5,424.5C 456.754,414.746 463.587,405.412 471,396.5C 472.942,390.515 472.942,384.515 471,378.5C 469,382.5 467,386.5 465,390.5C 455.712,396.121 448.045,403.454 442,412.5C 441.371,407.672 442.038,403.005 444,398.5C 451.358,390.144 459.024,382.144 467,374.5C 470.143,369.239 471.976,363.572 472.5,357.5 Z"/></g>
<g><path style="opacity:1" fill="#bfc0bf" d="M 535.5,357.5 C 537.167,357.5 538.833,357.5 540.5,357.5C 540.5,359.5 540.5,361.5 540.5,363.5C 538.833,363.5 537.167,363.5 535.5,363.5C 535.5,361.5 535.5,359.5 535.5,357.5 Z"/></g>
<g><path style="opacity:1" fill="#bfc0bf" d="M 552.5,357.5 C 554.167,357.5 555.833,357.5 557.5,357.5C 557.5,359.5 557.5,361.5 557.5,363.5C 555.833,363.5 554.167,363.5 552.5,363.5C 552.5,361.5 552.5,359.5 552.5,357.5 Z"/></g>
<g><path style="opacity:1" fill="#bfc0bf" d="M 568.5,357.5 C 584.833,357.5 601.167,357.5 617.5,357.5C 617.5,380.167 617.5,402.833 617.5,425.5C 612.833,425.5 608.167,425.5 603.5,425.5C 603.334,417.826 603.5,410.159 604,402.5C 604.689,401.643 605.522,400.977 606.5,400.5C 607.495,394.872 607.829,389.206 607.5,383.5C 604.5,383.5 601.5,383.5 598.5,383.5C 598.5,386.5 598.5,389.5 598.5,392.5C 596.167,392.5 593.833,392.5 591.5,392.5C 591.5,389.5 591.5,386.5 591.5,383.5C 588.5,383.5 585.5,383.5 582.5,383.5C 582.5,386.5 582.5,389.5 582.5,392.5C 580.167,392.5 577.833,392.5 575.5,392.5C 575.5,389.5 575.5,386.5 575.5,383.5C 572.5,383.5 569.5,383.5 566.5,383.5C 566.171,389.206 566.505,394.872 567.5,400.5C 569.756,401.421 570.756,403.088 570.5,405.5C 568.5,405.5 566.5,405.5 564.5,405.5C 564.334,395.161 564.5,384.828 565,374.5C 565.689,373.643 566.522,372.977 567.5,372.5C 568.494,367.544 568.827,362.544 568.5,357.5 Z"/></g>
<g><path style="opacity:1" fill="#fed700" d="M 240.5,366.5 C 244.24,366.241 247.906,366.574 251.5,367.5C 252.848,369.611 252.515,371.445 250.5,373C 243.664,375.777 236.664,376.111 229.5,374C 232.886,370.982 236.553,368.482 240.5,366.5 Z"/></g>
<g><path style="opacity:1" fill="#fe0000" d="M 136.5,374.5 C 147.167,374.5 157.833,374.5 168.5,374.5C 168.5,384.833 168.5,395.167 168.5,405.5C 157.833,405.5 147.167,405.5 136.5,405.5C 136.5,395.167 136.5,384.833 136.5,374.5 Z"/></g>
<g><path style="opacity:1" fill="#fe0000" d="M 530.5,374.5 C 541.167,374.5 551.833,374.5 562.5,374.5C 562.5,384.833 562.5,395.167 562.5,405.5C 551.833,405.5 541.167,405.5 530.5,405.5C 530.5,395.167 530.5,384.833 530.5,374.5 Z"/></g>
<g><path style="opacity:1" fill="#483d00" d="M 143.5,379.5 C 145.833,379.5 148.167,379.5 150.5,379.5C 150.5,385.5 150.5,391.5 150.5,397.5C 148.167,397.5 145.833,397.5 143.5,397.5C 143.5,391.5 143.5,385.5 143.5,379.5 Z"/></g>
<g><path style="opacity:1" fill="#483d00" d="M 154.5,379.5 C 156.833,379.5 159.167,379.5 161.5,379.5C 161.5,385.5 161.5,391.5 161.5,397.5C 159.167,397.5 156.833,397.5 154.5,397.5C 154.5,391.5 154.5,385.5 154.5,379.5 Z"/></g>
<g><path style="opacity:1" fill="#483d00" d="M 537.5,379.5 C 539.833,379.5 542.167,379.5 544.5,379.5C 544.5,385.5 544.5,391.5 544.5,397.5C 542.167,397.5 539.833,397.5 537.5,397.5C 537.5,391.5 537.5,385.5 537.5,379.5 Z"/></g>
<g><path style="opacity:1" fill="#483d00" d="M 548.5,379.5 C 550.833,379.5 553.167,379.5 555.5,379.5C 555.5,385.5 555.5,391.5 555.5,397.5C 553.167,397.5 550.833,397.5 548.5,397.5C 548.5,391.5 548.5,385.5 548.5,379.5 Z"/></g>
<g><path style="opacity:1" fill="#fe0000" d="M 145.5,381.5 C 146.5,381.5 147.5,381.5 148.5,381.5C 148.5,386.167 148.5,390.833 148.5,395.5C 147.5,395.5 146.5,395.5 145.5,395.5C 145.5,390.833 145.5,386.167 145.5,381.5 Z"/></g>
<g><path style="opacity:1" fill="#fe0000" d="M 156.5,381.5 C 157.5,381.5 158.5,381.5 159.5,381.5C 159.5,386.167 159.5,390.833 159.5,395.5C 158.5,395.5 157.5,395.5 156.5,395.5C 156.5,390.833 156.5,386.167 156.5,381.5 Z"/></g>
<g><path style="opacity:1" fill="#fe0000" d="M 539.5,381.5 C 540.5,381.5 541.5,381.5 542.5,381.5C 542.5,386.167 542.5,390.833 542.5,395.5C 541.5,395.5 540.5,395.5 539.5,395.5C 539.5,390.833 539.5,386.167 539.5,381.5 Z"/></g>
<g><path style="opacity:1" fill="#fe0000" d="M 550.5,381.5 C 551.5,381.5 552.5,381.5 553.5,381.5C 553.5,386.167 553.5,390.833 553.5,395.5C 552.5,395.5 551.5,395.5 550.5,395.5C 550.5,390.833 550.5,386.167 550.5,381.5 Z"/></g>
<g><path style="opacity:1" fill="#fe0000" d="M 93.5,385.5 C 95.1667,385.5 96.8333,385.5 98.5,385.5C 98.5,388.5 98.5,391.5 98.5,394.5C 102.167,394.5 105.833,394.5 109.5,394.5C 109.5,391.5 109.5,388.5 109.5,385.5C 111.167,385.5 112.833,385.5 114.5,385.5C 114.5,388.5 114.5,391.5 114.5,394.5C 118.167,394.5 121.833,394.5 125.5,394.5C 125.5,391.5 125.5,388.5 125.5,385.5C 127.167,385.5 128.833,385.5 130.5,385.5C 130.827,390.214 130.493,394.88 129.5,399.5C 117.833,400.833 106.167,400.833 94.5,399.5C 93.5067,394.88 93.1734,390.214 93.5,385.5 Z"/></g>
<g><path style="opacity:1" fill="#fe0000" d="M 174.5,385.5 C 176.167,385.5 177.833,385.5 179.5,385.5C 179.5,388.5 179.5,391.5 179.5,394.5C 183.167,394.5 186.833,394.5 190.5,394.5C 190.5,391.5 190.5,388.5 190.5,385.5C 192.167,385.5 193.833,385.5 195.5,385.5C 195.5,388.5 195.5,391.5 195.5,394.5C 199.167,394.5 202.833,394.5 206.5,394.5C 206.5,391.5 206.5,388.5 206.5,385.5C 208.167,385.5 209.833,385.5 211.5,385.5C 211.827,390.214 211.493,394.88 210.5,399.5C 198.833,400.833 187.167,400.833 175.5,399.5C 174.507,394.88 174.173,390.214 174.5,385.5 Z"/></g>
<g><path style="opacity:1" fill="#fe0000" d="M 487.5,385.5 C 489.167,385.5 490.833,385.5 492.5,385.5C 492.5,388.5 492.5,391.5 492.5,394.5C 496.167,394.5 499.833,394.5 503.5,394.5C 503.5,391.5 503.5,388.5 503.5,385.5C 505.167,385.5 506.833,385.5 508.5,385.5C 508.5,388.5 508.5,391.5 508.5,394.5C 512.167,394.5 515.833,394.5 519.5,394.5C 519.5,391.5 519.5,388.5 519.5,385.5C 521.167,385.5 522.833,385.5 524.5,385.5C 524.827,390.214 524.493,394.88 523.5,399.5C 511.833,400.833 500.167,400.833 488.5,399.5C 487.507,394.88 487.173,390.214 487.5,385.5 Z"/></g>
<g><path style="opacity:1" fill="#fe0000" d="M 568.5,385.5 C 570.167,385.5 571.833,385.5 573.5,385.5C 573.5,388.5 573.5,391.5 573.5,394.5C 577.167,394.5 580.833,394.5 584.5,394.5C 584.5,391.5 584.5,388.5 584.5,385.5C 586.167,385.5 587.833,385.5 589.5,385.5C 589.5,388.5 589.5,391.5 589.5,394.5C 593.167,394.5 596.833,394.5 600.5,394.5C 600.5,391.5 600.5,388.5 600.5,385.5C 602.167,385.5 603.833,385.5 605.5,385.5C 605.827,390.214 605.493,394.88 604.5,399.5C 592.833,400.833 581.167,400.833 569.5,399.5C 568.507,394.88 568.173,390.214 568.5,385.5 Z"/></g>
<g><path style="opacity:1" fill="#fed700" d="M 257.5,387.5 C 262.004,389.178 263.171,392.178 261,396.5C 254.073,402.984 246.24,404.15 237.5,400C 234.598,398.06 233.598,395.56 234.5,392.5C 243.349,396.591 251.015,394.924 257.5,387.5 Z"/></g>
<g><path style="opacity:1" fill="#fe0000" d="M 97.5,402.5 C 107.167,402.5 116.833,402.5 126.5,402.5C 126.5,436.833 126.5,471.167 126.5,505.5C 116.833,505.5 107.167,505.5 97.5,505.5C 97.5,471.167 97.5,436.833 97.5,402.5 Z"/></g>
<g><path style="opacity:1" fill="#fe0000" d="M 178.5,402.5 C 188.167,402.5 197.833,402.5 207.5,402.5C 207.5,436.833 207.5,471.167 207.5,505.5C 197.833,505.5 188.167,505.5 178.5,505.5C 178.5,471.167 178.5,436.833 178.5,402.5 Z"/></g>
<g><path style="opacity:1" fill="#fe0000" d="M 491.5,402.5 C 501.167,402.5 510.833,402.5 520.5,402.5C 520.5,436.833 520.5,471.167 520.5,505.5C 510.833,505.5 501.167,505.5 491.5,505.5C 491.5,471.167 491.5,436.833 491.5,402.5 Z"/></g>
<g><path style="opacity:1" fill="#fe0000" d="M 572.5,402.5 C 582.167,402.5 591.833,402.5 601.5,402.5C 601.5,436.833 601.5,471.167 601.5,505.5C 591.833,505.5 582.167,505.5 572.5,505.5C 572.5,471.167 572.5,436.833 572.5,402.5 Z"/></g>
<g><path style="opacity:1" fill="#fe0000" d="M 128.5,407.5 C 144.5,407.5 160.5,407.5 176.5,407.5C 176.666,415.84 176.5,424.173 176,432.5C 167.614,414.558 154.78,410.391 137.5,420C 133.854,423.64 131.021,427.807 129,432.5C 128.5,424.173 128.334,415.84 128.5,407.5 Z"/></g>
<g><path style="opacity:1" fill="#fe0000" d="M 522.5,407.5 C 538.5,407.5 554.5,407.5 570.5,407.5C 570.666,415.84 570.5,424.173 570,432.5C 561.614,414.558 548.78,410.391 531.5,420C 527.854,423.64 525.021,427.807 523,432.5C 522.5,424.173 522.334,415.84 522.5,407.5 Z"/></g>
<g><path style="opacity:1" fill="#bfc0bf" d="M 316.5,411.5 C 318.017,411.511 319.184,412.177 320,413.5C 322.361,416.888 324.194,420.554 325.5,424.5C 319.863,425.663 314.196,425.83 308.5,425C 312.342,421.143 315.008,416.643 316.5,411.5 Z"/></g>
<g><path style="opacity:1" fill="#483d00" d="M 108.5,412.5 C 110.833,412.5 113.167,412.5 115.5,412.5C 115.5,418.5 115.5,424.5 115.5,430.5C 113.167,430.5 110.833,430.5 108.5,430.5C 108.5,424.5 108.5,418.5 108.5,412.5 Z"/></g>
<g><path style="opacity:1" fill="#483d00" d="M 189.5,412.5 C 191.833,412.5 194.167,412.5 196.5,412.5C 196.5,418.5 196.5,424.5 196.5,430.5C 194.167,430.5 191.833,430.5 189.5,430.5C 189.5,424.5 189.5,418.5 189.5,412.5 Z"/></g>
<g><path style="opacity:1" fill="#483d00" d="M 502.5,412.5 C 504.833,412.5 507.167,412.5 509.5,412.5C 509.5,418.5 509.5,424.5 509.5,430.5C 507.167,430.5 504.833,430.5 502.5,430.5C 502.5,424.5 502.5,418.5 502.5,412.5 Z"/></g>
<g><path style="opacity:1" fill="#483d00" d="M 583.5,412.5 C 585.833,412.5 588.167,412.5 590.5,412.5C 590.5,418.5 590.5,424.5 590.5,430.5C 588.167,430.5 585.833,430.5 583.5,430.5C 583.5,424.5 583.5,418.5 583.5,412.5 Z"/></g>
<g><path style="opacity:1" fill="#fe0000" d="M 110.5,414.5 C 111.5,414.5 112.5,414.5 113.5,414.5C 113.5,419.167 113.5,423.833 113.5,428.5C 112.5,428.5 111.5,428.5 110.5,428.5C 110.5,423.833 110.5,419.167 110.5,414.5 Z"/></g>
<g><path style="opacity:1" fill="#fe0000" d="M 191.5,414.5 C 192.5,414.5 193.5,414.5 194.5,414.5C 194.5,419.167 194.5,423.833 194.5,428.5C 193.5,428.5 192.5,428.5 191.5,428.5C 191.5,423.833 191.5,419.167 191.5,414.5 Z"/></g>
<g><path style="opacity:1" fill="#fe0000" d="M 504.5,414.5 C 505.5,414.5 506.5,414.5 507.5,414.5C 507.5,419.167 507.5,423.833 507.5,428.5C 506.5,428.5 505.5,428.5 504.5,428.5C 504.5,423.833 504.5,419.167 504.5,414.5 Z"/></g>
<g><path style="opacity:1" fill="#fe0000" d="M 585.5,414.5 C 586.5,414.5 587.5,414.5 588.5,414.5C 588.5,419.167 588.5,423.833 588.5,428.5C 587.5,428.5 586.5,428.5 585.5,428.5C 585.5,423.833 585.5,419.167 585.5,414.5 Z"/></g>
<g><path style="opacity:1" fill="#fe0000" d="M 149.5,416.5 C 163.037,416.863 171.87,423.53 176,436.5C 176.5,459.498 176.667,482.498 176.5,505.5C 175.167,505.5 173.833,505.5 172.5,505.5C 172.667,482.498 172.5,459.498 172,436.5C 165.941,420.759 155.441,416.759 140.5,424.5C 136.736,427.692 134.236,431.692 133,436.5C 132.5,459.498 132.333,482.498 132.5,505.5C 131.167,505.5 129.833,505.5 128.5,505.5C 128.333,482.498 128.5,459.498 129,436.5C 132.465,426.199 139.299,419.533 149.5,416.5 Z"/></g>
<g><path style="opacity:1" fill="#fe0000" d="M 263.5,539.5 C 262.374,537.547 260.708,536.047 258.5,535C 259.685,533.647 261.019,532.48 262.5,531.5C 264.229,527.81 263.229,525.143 259.5,523.5C 257.958,524.747 256.458,524.747 255,523.5C 254.163,521.649 253.329,519.816 252.5,518C 254.167,516.833 255.833,515.667 257.5,514.5C 253.698,511.063 251.031,506.897 249.5,502C 254.48,504.474 259.813,505.808 265.5,506C 264.778,498.821 261.944,492.654 257,487.5C 256.333,485.167 256.333,482.833 257,480.5C 259.167,483.333 261.333,486.167 263.5,489C 267.027,490.176 270.527,491.342 274,492.5C 273.956,490.721 273.289,489.055 272,487.5C 271.833,484.833 271.667,482.167 271.5,479.5C 271.378,476.309 271.878,473.309 273,470.5C 274.333,473.833 275.667,477.167 277,480.5C 279.815,482.977 281.815,485.977 283,489.5C 282.953,497.716 282.12,505.882 280.5,514C 281.059,521.023 283.559,527.19 288,532.5C 291.314,534.307 294.814,534.807 298.5,534C 306.626,528.585 309.959,520.918 308.5,511C 308.333,507.833 308.167,504.667 308,501.5C 303.864,489.424 299.53,477.424 295,465.5C 293.529,459.569 293.196,453.569 294,447.5C 297.57,442.985 300.57,438.318 303,433.5C 290.781,443.13 278.948,442.63 267.5,432C 264.667,429.167 261.833,426.333 259,423.5C 257.85,421.246 257.516,418.913 258,416.5C 260.833,420 263.667,423.5 266.5,427C 272.601,430.017 279.101,431.517 286,431.5C 293.453,430.053 300.953,429.553 308.5,430C 316.847,433.045 325.347,435.545 334,437.5C 342.796,450.43 349.963,464.097 355.5,478.5C 355.333,478.833 355.167,479.167 355,479.5C 352.147,476.948 349.647,474.115 347.5,471C 341.497,468.667 336.663,470.167 333,475.5C 330.81,480.028 331.144,484.361 334,488.5C 336.667,491.167 339.333,493.833 342,496.5C 343.202,498.677 343.702,501.011 343.5,503.5C 339.669,502.107 336.002,500.607 332.5,499C 333.12,501.473 333.786,503.973 334.5,506.5C 336.149,507.648 337.649,508.981 339,510.5C 340.265,518.918 341.598,527.251 343,535.5C 342.667,535.833 342.333,536.167 342,536.5C 338.333,533.5 334.667,530.5 331,527.5C 330.833,527.833 330.667,528.167 330.5,528.5C 333.602,533.484 334.435,538.817 333,544.5C 336.133,549.771 338.967,555.105 341.5,560.5C 338.383,560.358 335.883,559.024 334,556.5C 332.392,553.618 331.059,550.618 330,547.5C 325.821,552.92 325.487,558.587 329,564.5C 330.271,567.433 331.938,570.099 334,572.5C 334.611,576.088 333.111,577.254 329.5,576C 325.754,570.673 322.92,564.839 321,558.5C 318.867,560.933 317.7,563.767 317.5,567C 318.657,572.094 320.157,576.928 322,581.5C 319.132,580.639 316.798,578.972 315,576.5C 312.746,572.993 310.746,569.327 309,565.5C 307.072,568.851 305.572,572.351 304.5,576C 307.244,580.74 306.411,584.907 302,588.5C 295.435,582.593 291.435,575.26 290,566.5C 285.337,570.321 283.004,575.321 283,581.5C 281.915,582.293 280.748,582.96 279.5,583.5C 279.769,576.925 279.435,570.258 278.5,563.5C 280.32,558.632 280.82,553.632 280,548.5C 272.808,555.611 266.474,562.611 261,569.5C 259.543,565.259 259.209,560.926 260,556.5C 263.583,548.827 265.917,540.827 267,532.5C 265.724,534.858 264.558,537.192 263.5,539.5 Z"/></g>
<g><path style="opacity:1" fill="#fe0000" d="M 543.5,416.5 C 557.037,416.863 565.87,423.53 570,436.5C 570.5,459.498 570.667,482.498 570.5,505.5C 569.167,505.5 567.833,505.5 566.5,505.5C 566.667,482.498 566.5,459.498 566,436.5C 559.941,420.759 549.441,416.759 534.5,424.5C 530.736,427.692 528.236,431.692 527,436.5C 526.5,459.498 526.333,482.498 526.5,505.5C 525.167,505.5 523.833,505.5 522.5,505.5C 522.333,482.498 522.5,459.498 523,436.5C 526.465,426.199 533.299,419.533 543.5,416.5 Z"/></g>
<g><path style="opacity:1" fill="#bfc0bf" d="M 147.5,422.5 C 152.449,421.959 157.116,422.792 161.5,425C 155.5,425.667 149.5,425.667 143.5,425C 145.066,424.392 146.4,423.558 147.5,422.5 Z"/></g>
<g><path style="opacity:1" fill="#bfc0bf" d="M 541.5,422.5 C 546.449,421.959 551.116,422.792 555.5,425C 549.5,425.667 543.5,425.667 537.5,425C 539.066,424.392 540.4,423.558 541.5,422.5 Z"/></g>
<g><path style="opacity:1" fill="#0000ff" d="M 81.5,427.5 C 86.1667,427.5 90.8333,427.5 95.5,427.5C 95.5,450.167 95.5,472.833 95.5,495.5C 93.5,495.5 91.5,495.5 89.5,495.5C 85.0522,473.034 82.3855,450.367 81.5,427.5 Z"/></g>
<g><path style="opacity:1" fill="#0000ff" d="M 140.5,427.5 C 148.507,427.334 156.507,427.5 164.5,428C 166.956,430.408 168.789,433.241 170,436.5C 170.5,456.164 170.667,475.831 170.5,495.5C 158.5,495.5 146.5,495.5 134.5,495.5C 134.333,475.831 134.5,456.164 135,436.5C 136.343,433.138 138.176,430.138 140.5,427.5 Z"/></g>
<g><path style="opacity:1" fill="#0000ff" d="M 209.5,427.5 C 226.503,427.333 243.503,427.5 260.5,428C 267.413,436.102 276.08,440.935 286.5,442.5C 289.973,442.269 293.306,441.769 296.5,441C 294.877,443.08 293.377,445.246 292,447.5C 291.333,452.167 291.333,456.833 292,461.5C 295.678,472.543 299.512,483.543 303.5,494.5C 297.537,495.496 291.537,495.829 285.5,495.5C 285.636,492.449 285.302,489.449 284.5,486.5C 289.482,471.137 284.982,459.47 271,451.5C 270.31,456.142 270.81,460.642 272.5,465C 271.871,467.993 270.704,470.827 269,473.5C 265.601,467.432 261.435,461.932 256.5,457C 252.855,455.834 249.188,455.167 245.5,455C 249.028,462.584 252.361,470.251 255.5,478C 254.726,480.405 254.226,482.905 254,485.5C 247.667,481.5 241.333,477.5 235,473.5C 234.679,481.861 237.512,489.028 243.5,495C 232.172,495.5 220.838,495.667 209.5,495.5C 209.5,472.833 209.5,450.167 209.5,427.5 Z"/></g>
<g><path style="opacity:1" fill="#0000ff" d="M 272.5,428.5 C 280.323,427.344 288.323,427.177 296.5,428C 288.54,429.617 280.54,429.783 272.5,428.5 Z"/></g>
<g><path style="opacity:1" fill="#0000ff" d="M 308.5,428.5 C 313.985,427.348 319.651,427.182 325.5,428C 327.5,430 329.5,432 331.5,434C 323.728,432.791 316.061,430.958 308.5,428.5 Z"/></g>
<g><path style="opacity:1" fill="#0000ff" d="M 379.5,428.5 C 394.339,427.174 409.339,427.174 424.5,428.5C 430.154,440.933 432.654,453.933 432,467.5C 427.294,476.289 420.127,479.456 410.5,477C 402.782,473.947 396.948,468.781 393,461.5C 388.376,450.44 383.876,439.44 379.5,428.5 Z"/></g>
<g><path style="opacity:1" fill="#0000ff" d="M 449.5,427.5 C 462.833,427.5 476.167,427.5 489.5,427.5C 489.5,450.167 489.5,472.833 489.5,495.5C 469.497,495.667 449.497,495.5 429.5,495C 442.111,485.364 448.111,472.53 447.5,456.5C 446.247,446.7 446.913,437.034 449.5,427.5 Z"/></g>
<g><path style="opacity:1" fill="#0000ff" d="M 534.5,427.5 C 542.507,427.334 550.507,427.5 558.5,428C 560.956,430.408 562.789,433.241 564,436.5C 564.5,456.164 564.667,475.831 564.5,495.5C 552.5,495.5 540.5,495.5 528.5,495.5C 528.333,475.831 528.5,456.164 529,436.5C 530.343,433.138 532.176,430.138 534.5,427.5 Z"/></g>
<g><path style="opacity:1" fill="#0000ff" d="M 603.5,427.5 C 608.167,427.5 612.833,427.5 617.5,427.5C 616.614,450.367 613.948,473.034 609.5,495.5C 607.5,495.5 605.5,495.5 603.5,495.5C 603.5,472.833 603.5,450.167 603.5,427.5 Z"/></g>
<g><path style="opacity:1" fill="#483d00" d="M 304.5,451.5 C 305.376,451.369 306.043,451.702 306.5,452.5C 305.003,455.158 304.003,457.991 303.5,461C 304.629,464.923 306.295,468.59 308.5,472C 308.167,472.5 307.833,473 307.5,473.5C 301.054,466.837 300.054,459.504 304.5,451.5 Z"/></g>
<g><path style="opacity:1" fill="#fed700" d="M 272.5,455.5 C 283.387,461.988 286.887,471.321 283,483.5C 280.667,482.5 279,480.833 278,478.5C 275.481,470.974 273.648,463.307 272.5,455.5 Z"/></g>
<g><path style="opacity:1" fill="#fed700" d="M 249.5,457.5 C 251.564,457.687 253.564,458.187 255.5,459C 264.847,467.188 269.68,477.354 270,489.5C 268.184,488.671 266.351,487.837 264.5,487C 257.256,478.346 252.256,468.512 249.5,457.5 Z"/></g>
<g><path style="opacity:1" fill="#0000ff" d="M 340.5,471.5 C 342.564,471.687 344.564,472.187 346.5,473C 348.827,477.171 352.161,480.005 356.5,481.5C 356.578,485.954 355.911,490.287 354.5,494.5C 350.878,495.659 347.211,495.825 343.5,495C 338.739,491.427 335.405,486.927 333.5,481.5C 333.548,476.468 335.882,473.134 340.5,471.5 Z"/></g>
<g><path style="opacity:1" fill="#fed700" d="M 236.5,477.5 C 244.378,481.025 251.544,485.692 258,491.5C 266.042,504.162 263.875,506.996 251.5,500C 244.229,493.917 239.229,486.417 236.5,477.5 Z"/></g>
<g><path style="opacity:1" fill="#0000ff" d="M 398.5,488.5 C 402.345,490.923 406.345,493.09 410.5,495C 404.006,497.213 400.006,495.046 398.5,488.5 Z"/></g>
<g><path style="opacity:1" fill="#bfc0bf" d="M 263.5,539.5 C 262.573,545.449 260.739,551.115 258,556.5C 257.502,559.482 257.335,562.482 257.5,565.5C 208.162,565.833 158.829,565.5 109.5,564.5C 100.528,542.917 94.1948,520.584 90.5,497.5C 92.1667,497.5 93.8333,497.5 95.5,497.5C 95.5,500.833 95.5,504.167 95.5,507.5C 108.5,507.5 121.5,507.5 134.5,507.5C 134.5,504.167 134.5,500.833 134.5,497.5C 146.5,497.5 158.5,497.5 170.5,497.5C 170.5,500.833 170.5,504.167 170.5,507.5C 183.5,507.5 196.5,507.5 209.5,507.5C 209.5,504.167 209.5,500.833 209.5,497.5C 221.838,497.333 234.171,497.5 246.5,498C 248.335,498.928 248.668,500.094 247.5,501.5C 248.407,506.481 250.74,510.648 254.5,514C 250.043,516.624 249.71,519.957 253.5,524C 250.833,524.667 248.167,524.667 245.5,524C 240.687,522.422 236.02,520.589 231.5,518.5C 230.833,518.833 230.167,519.167 229.5,519.5C 232.566,535.275 241.733,540.942 257,536.5C 258.86,538.201 261.027,539.201 263.5,539.5 Z"/></g>
<g><path style="opacity:1" fill="#bfc0bf" d="M 284.5,497.5 C 291.618,496.895 298.452,497.562 305,499.5C 307.216,508.612 306.882,517.612 304,526.5C 296.624,534.991 290.291,534.324 285,524.5C 283.853,521.245 283.02,517.912 282.5,514.5C 283.542,508.871 284.209,503.204 284.5,497.5 Z"/></g>
<g><path style="opacity:1" fill="#bfc0bf" d="M 344.5,498.5 C 347.287,497.523 350.287,497.19 353.5,497.5C 352.509,503.958 351.842,510.458 351.5,517C 352.113,525.286 353.447,533.453 355.5,541.5C 355.099,548.369 353.099,554.703 349.5,560.5C 352.157,561.015 354.823,560.515 357.5,559C 362.713,554.171 365.046,548.171 364.5,541C 363.63,533.65 362.63,526.317 361.5,519C 363.621,511.908 365.621,504.741 367.5,497.5C 368.5,497.5 369.5,497.5 370.5,497.5C 370.019,506.901 369.019,516.234 367.5,525.5C 369.766,532.464 371.932,539.464 374,546.5C 376.868,552.896 379.702,559.23 382.5,565.5C 365.487,565.833 348.487,565.499 331.5,564.5C 328.775,561.147 328.109,557.48 329.5,553.5C 331.374,557.085 334.041,559.918 337.5,562C 340.551,562.857 343.217,562.19 345.5,560C 340.553,554.772 336.887,548.772 334.5,542C 335,539.5 335.5,537 336,534.5C 337.645,536.662 339.812,537.995 342.5,538.5C 344.272,537.73 345.272,536.397 345.5,534.5C 343.476,526.263 341.976,517.93 341,509.5C 333.331,502.972 333.831,501.638 342.5,505.5C 343.167,505.167 343.833,504.833 344.5,504.5C 345.754,502.357 345.754,500.357 344.5,498.5 Z"/></g>
<g><path style="opacity:1" fill="#bfc0bf" d="M 406.5,498.5 C 433.995,497.502 461.662,497.169 489.5,497.5C 489.5,500.833 489.5,504.167 489.5,507.5C 502.5,507.5 515.5,507.5 528.5,507.5C 528.5,504.167 528.5,500.833 528.5,497.5C 540.5,497.5 552.5,497.5 564.5,497.5C 564.5,500.833 564.5,504.167 564.5,507.5C 577.5,507.5 590.5,507.5 603.5,507.5C 603.5,504.167 603.5,500.833 603.5,497.5C 605.167,497.5 606.833,497.5 608.5,497.5C 604.805,520.584 598.472,542.917 589.5,564.5C 533.837,565.5 478.171,565.833 422.5,565.5C 422.451,562.901 421.451,560.734 419.5,559C 422.768,558.62 425.768,559.454 428.5,561.5C 431.109,560.77 433.776,560.27 436.5,560C 432.667,556.833 428.833,553.667 425,550.5C 421.726,540.895 418.226,531.395 414.5,522C 420.019,523.463 425.019,522.463 429.5,519C 424.041,516.368 418.708,513.535 413.5,510.5C 411.658,506.141 409.325,502.141 406.5,498.5 Z"/></g>
<g><path style="opacity:1" fill="#483d00" d="M 378.5,516.5 C 379.552,516.351 380.552,516.517 381.5,517C 379.703,518.594 378.703,520.594 378.5,523C 380.688,528.546 383.022,534.046 385.5,539.5C 385.167,539.833 384.833,540.167 384.5,540.5C 381.725,535.702 379.225,530.702 377,525.5C 376.212,522.228 376.712,519.228 378.5,516.5 Z"/></g>
<g><path style="opacity:1" fill="#fed700" d="M 232.5,520.5 C 240.725,526.137 249.725,527.804 259.5,525.5C 261.384,526.693 261.884,528.359 261,530.5C 255.707,536.692 249.207,538.192 241.5,535C 235.591,532.024 232.591,527.191 232.5,520.5 Z"/></g>
<g><path style="opacity:1" fill="#bfc0bf" d="M 277.5,553.5 C 278.139,554.097 278.472,554.93 278.5,556C 277.517,559.112 276.85,562.278 276.5,565.5C 273.482,565.665 270.482,565.498 267.5,565C 270.669,560.999 274.003,557.166 277.5,553.5 Z"/></g>
<g><path style="opacity:1" fill="#0000ff" d="M 110.5,568.5 C 159.668,567.169 209.002,567.169 258.5,568.5C 259.246,569.736 259.579,571.07 259.5,572.5C 263.512,573.113 265.512,571.446 265.5,567.5C 269.5,567.5 273.5,567.5 277.5,567.5C 277.899,573.667 277.232,579.667 275.5,585.5C 283.879,585.494 287.712,581.161 287,572.5C 287.667,571.833 288.333,571.167 289,570.5C 291.703,578.239 295.703,585.239 301,591.5C 303.667,590.167 305.667,588.167 307,585.5C 307.783,580.477 308.449,575.477 309,570.5C 310.667,573.167 312.333,575.833 314,578.5C 317.783,583.276 321.616,583.776 325.5,580C 322.553,576.273 320.553,572.106 319.5,567.5C 320.675,567.281 321.675,567.614 322.5,568.5C 324.157,573.219 327.157,576.552 331.5,578.5C 333.955,578.106 335.955,576.94 337.5,575C 336.167,572.667 334.833,570.333 333.5,568C 349.83,567.5 366.163,567.333 382.5,567.5C 381.87,582.602 375.204,594.102 362.5,602C 355.167,604 347.833,604 340.5,602C 332.887,595.937 324.554,594.937 315.5,599C 311.044,600.979 307.21,603.813 304,607.5C 303.333,610.167 303.333,612.833 304,615.5C 306.99,614.026 310.157,613.026 313.5,612.5C 316.022,614.856 318.688,617.023 321.5,619C 315.059,623.272 309.392,628.439 304.5,634.5C 252.17,635.667 199.837,635.833 147.5,635C 137.971,620.786 128.804,606.286 120,591.5C 116.719,583.807 113.552,576.141 110.5,568.5 Z"/></g>
<g><path style="opacity:1" fill="#0000ff" d="M 422.5,567.5 C 477.834,567.333 533.168,567.5 588.5,568C 585.524,575.93 582.358,583.764 579,591.5C 570.196,606.286 561.029,620.786 551.5,635C 502.168,635.5 452.834,635.667 403.5,635.5C 403.712,628.424 404.545,621.424 406,614.5C 409.912,619.909 415.079,623.575 421.5,625.5C 421.833,625.167 422.167,624.833 422.5,624.5C 415.889,614.86 414.722,604.527 419,593.5C 421.558,590.237 424.725,589.57 428.5,591.5C 430.867,591.158 433.2,590.658 435.5,590C 432,587.167 428.5,584.333 425,581.5C 422.896,577.078 422.063,572.412 422.5,567.5 Z"/></g>
<g><path style="opacity:1" fill="#fed700" d="M 321.5,598.5 C 328.512,597.288 334.512,599.121 339.5,604C 337.424,606.584 334.757,608.251 331.5,609C 322.91,609.863 314.41,611.03 306,612.5C 305.202,610.741 305.369,609.074 306.5,607.5C 311.099,603.706 316.099,600.706 321.5,598.5 Z"/></g>
<g><path style="opacity:1" fill="#fed700" d="M 324.5,619.5 C 328.058,619.405 331.058,620.572 333.5,623C 332.038,627.474 329.371,631.14 325.5,634C 320.023,635.604 314.689,637.604 309.5,640C 308,641.5 306.5,643 305,644.5C 304.21,641.366 304.543,638.366 306,635.5C 311.474,629.18 317.641,623.847 324.5,619.5 Z"/></g>
<g><path style="opacity:1" fill="#0000ff" d="M 391.5,630.5 C 393.727,631.401 394.727,633.067 394.5,635.5C 393.5,635.5 392.5,635.5 391.5,635.5C 391.5,633.833 391.5,632.167 391.5,630.5 Z"/></g>
<g><path style="opacity:1" fill="#fed700" d="M 337.5,636.5 C 339.833,636.5 342.167,636.5 344.5,636.5C 344.54,639.425 343.707,642.091 342,644.5C 337.62,649.211 333.62,654.211 330,659.5C 328.622,661.213 326.955,662.547 325,663.5C 323.42,660.028 323.087,656.362 324,652.5C 328.077,648.258 331.577,643.591 334.5,638.5C 335.602,637.824 336.602,637.158 337.5,636.5 Z"/></g>
<g><path style="opacity:1" fill="#bfc0bf" d="M 149.5,638.5 C 200.331,637.501 251.331,637.168 302.5,637.5C 302.335,640.85 302.502,644.183 303,647.5C 306.402,646.1 309.236,643.933 311.5,641C 313.871,640.265 316.205,639.432 318.5,638.5C 319.382,639.76 320.382,640.926 321.5,642C 324.332,642.212 326.998,642.379 329.5,642.5C 327.565,645.938 325.065,648.938 322,651.5C 321.333,655.167 321.333,658.833 322,662.5C 323.426,665.861 325.593,666.361 328.5,664C 331.5,660.333 334.5,656.667 337.5,653C 340.576,652.654 343.576,651.988 346.5,651C 350.929,646.449 356.263,644.115 362.5,644C 363.357,644.689 364.023,645.522 364.5,646.5C 363.277,650.615 361.277,654.282 358.5,657.5C 354.613,660.378 350.28,662.212 345.5,663C 347.936,667.425 351.769,669.258 357,668.5C 369.836,667.162 377.336,660.162 379.5,647.5C 378.061,643.911 378.561,640.578 381,637.5C 383.667,641.5 386.333,645.5 389,649.5C 390.739,645.689 391.572,641.689 391.5,637.5C 392.833,637.5 394.167,637.5 395.5,637.5C 396.959,647.768 399.626,648.101 403.5,638.5C 452.163,637.333 500.83,637.167 549.5,638C 531.238,662.594 510.571,684.927 487.5,705C 395.5,705.667 303.5,705.667 211.5,705C 188.566,684.901 167.9,662.735 149.5,638.5 Z"/></g>
<g><path style="opacity:1" fill="#fed700" d="M 370.5,642.5 C 374.459,641.578 376.792,643.078 377.5,647C 374.189,663.492 364.522,669.325 348.5,664.5C 351.534,663.433 354.534,662.266 357.5,661C 362.223,655.033 366.557,648.866 370.5,642.5 Z"/></g>
<g><path style="opacity:1" fill="#0000ff" d="M 214.5,708.5 C 304.332,707.334 394.332,707.168 484.5,708C 457.783,729.202 428.116,745.536 395.5,757C 380.192,761.936 364.858,766.77 349.5,771.5C 314.23,762.189 280.563,749.023 248.5,732C 236.892,724.379 225.559,716.546 214.5,708.5 Z"/></g>
</svg>
