<?xml version="1.0" encoding="UTF-8"?>
<!DOCTYPE svg PUBLIC "-//W3C//DTD SVG 1.1//EN" "http://www.w3.org/Graphics/SVG/1.1/DTD/svg11.dtd">
<svg xmlns="http://www.w3.org/2000/svg" version="1.1" width="700px" height="850px" style="shape-rendering:geometricPrecision; text-rendering:geometricPrecision; image-rendering:optimizeQuality; fill-rule:evenodd; clip-rule:evenodd" xmlns:xlink="http://www.w3.org/1999/xlink">
<g><path style="opacity:1" fill="#483d00" d="M 76.5,74.5 C 258.5,74.5 440.5,74.5 622.5,74.5C 622.667,199.167 622.5,323.834 622,448.5C 616.593,496.127 604.927,542.127 587,586.5C 560.17,635.918 525.337,679.084 482.5,716C 451.746,738.544 418.079,755.544 381.5,767C 374.105,769.132 366.772,771.465 359.5,774C 352.833,776 346.167,776 339.5,774C 307.673,764.415 277.006,752.082 247.5,737C 222.337,721.187 199.504,702.354 179,680.5C 168.373,667.538 157.373,654.871 146,642.5C 134.177,624.199 122.844,605.532 112,586.5C 94.0733,542.127 82.4067,496.127 77,448.5C 76.5,323.834 76.3333,199.167 76.5,74.5 Z"/></g>
<g><path style="opacity:1" fill="#fed600" d="M 81.5,79.5 C 259.5,79.5 437.5,79.5 615.5,79.5C 615.5,116.833 615.5,154.167 615.5,191.5C 437.5,191.5 259.5,191.5 81.5,191.5C 81.5,154.167 81.5,116.833 81.5,79.5 Z"/></g>
<g><path style="opacity:1" fill="#483d00" d="M 149.5,84.5 C 151.074,84.9371 152.241,85.9371 153,87.5C 156.578,94.9909 160.412,102.324 164.5,109.5C 175.151,110.332 185.818,110.832 196.5,111C 191.042,119.416 185.708,127.916 180.5,136.5C 185.708,145.084 191.042,153.584 196.5,162C 185.818,162.168 175.151,162.668 164.5,163.5C 160.087,171.995 155.42,180.328 150.5,188.5C 145.58,180.328 140.913,171.995 136.5,163.5C 125.849,162.668 115.182,162.168 104.5,162C 109.958,153.584 115.292,145.084 120.5,136.5C 115.292,127.916 109.958,119.416 104.5,111C 115.182,110.832 125.849,110.332 136.5,109.5C 141.114,101.27 145.447,92.937 149.5,84.5 Z"/></g>
<g><path style="opacity:1" fill="#000000" d="M 149.5,88.5 C 150.376,88.3691 151.043,88.7025 151.5,89.5C 155.627,96.9206 159.627,104.421 163.5,112C 173.167,112.333 182.833,112.667 192.5,113C 187.833,120.667 183.167,128.333 178.5,136C 182.901,144.132 187.567,152.132 192.5,160C 182.833,160.333 173.167,160.667 163.5,161C 159.547,169.075 155.214,176.908 150.5,184.5C 145.786,176.908 141.453,169.075 137.5,161C 127.833,160.667 118.167,160.333 108.5,160C 113.433,152.132 118.099,144.132 122.5,136C 117.833,128.333 113.167,120.667 108.5,113C 118.167,112.667 127.833,112.333 137.5,112C 141.654,104.191 145.654,96.3581 149.5,88.5 Z"/></g>
<g><path style="opacity:1" fill="#483d00" d="M 146.5,121.5 C 155.217,120.103 161.05,123.437 164,131.5C 165.911,147.452 159.078,153.618 143.5,150C 136.496,144.341 134.662,137.175 138,128.5C 140.217,125.323 143.05,122.989 146.5,121.5 Z"/></g>
<g><path style="opacity:1" fill="#fed600" d="M 148.5,123.5 C 156.977,123.737 161.644,128.071 162.5,136.5C 159.68,148.934 152.847,151.934 142,145.5C 136.219,135.685 138.385,128.352 148.5,123.5 Z"/></g>
<g><path style="opacity:1" fill="#0000ff" d="M 81.5,193.5 C 259.5,193.5 437.5,193.5 615.5,193.5C 615.5,231.167 615.5,268.833 615.5,306.5C 437.5,306.5 259.5,306.5 81.5,306.5C 81.5,268.833 81.5,231.167 81.5,193.5 Z"/></g>
<g><path style="opacity:1" fill="#fed700" d="M 81.5,308.5 C 259.5,308.5 437.5,308.5 615.5,308.5C 615.5,346.5 615.5,384.5 615.5,422.5C 437.5,422.5 259.5,422.5 81.5,422.5C 81.5,384.5 81.5,346.5 81.5,308.5 Z"/></g>
<g><path style="opacity:1" fill="#0000ff" d="M 81.5,424.5 C 259.5,424.5 437.5,424.5 615.5,424.5C 613.939,462.865 607.939,500.532 597.5,537.5C 431.5,537.5 265.5,537.5 99.5,537.5C 89.0608,500.532 83.0608,462.865 81.5,424.5 Z"/></g>
<g><path style="opacity:1" fill="#fed700" d="M 100.5,539.5 C 265.835,539.167 431.168,539.5 596.5,540.5C 590.481,557.729 583.981,574.729 577,591.5C 565.1,612.82 551.6,632.987 536.5,652C 411.167,652.667 285.833,652.667 160.5,652C 145.4,632.987 131.9,612.82 120,591.5C 112.815,574.448 106.315,557.114 100.5,539.5 Z"/></g>
<g><path style="opacity:1" fill="#0000ff" d="M 163.5,654.5 C 286.835,654.167 410.168,654.5 533.5,655.5C 509.377,685.795 481.044,711.295 448.5,732C 416.675,748.737 383.341,761.904 348.5,771.5C 313.659,761.904 280.325,748.737 248.5,732C 215.549,711.215 187.216,685.382 163.5,654.5 Z"/></g>
</svg>
