<?xml version="1.0" encoding="UTF-8"?>
<!DOCTYPE svg PUBLIC "-//W3C//DTD SVG 1.1//EN" "http://www.w3.org/Graphics/SVG/1.1/DTD/svg11.dtd">
<svg xmlns="http://www.w3.org/2000/svg" version="1.1" width="700px" height="850px" style="shape-rendering:geometricPrecision; text-rendering:geometricPrecision; image-rendering:optimizeQuality; fill-rule:evenodd; clip-rule:evenodd" xmlns:xlink="http://www.w3.org/1999/xlink">
<g><path style="opacity:1" fill="#483d00" d="M 76.5,74.5 C 258.5,74.5 440.5,74.5 622.5,74.5C 622.667,199.167 622.5,323.834 622,448.5C 616.676,498.458 604.01,546.458 584,592.5C 573.48,609.644 563.146,626.31 553,642.5C 541.627,654.871 530.627,667.538 520,680.5C 492.162,711.446 458.662,735.613 419.5,753C 412.424,754.534 405.757,757.201 399.5,761C 383.062,766.759 366.395,771.592 349.5,775.5C 313.688,767.426 279.688,754.592 247.5,737C 221.572,720.266 198.739,701.433 179,680.5C 166.082,665.593 153.249,650.76 140.5,636C 140.833,635.667 141.167,635.333 141.5,635C 132.541,620.917 123.708,606.751 115,592.5C 94.9979,546.512 82.3313,498.512 77,448.5C 76.5,323.834 76.3333,199.167 76.5,74.5 Z"/></g>
<g><path style="opacity:1" fill="#0000ff" d="M 81.5,79.5 C 120.835,79.3333 160.168,79.5 199.5,80C 336.362,217.861 472.862,356.028 609,494.5C 602.432,530.205 591.432,564.538 576,597.5C 567.908,609.253 560.241,621.253 553,633.5C 542.711,646.791 532.045,659.791 521,672.5C 375.029,522.195 228.696,372.195 82,222.5C 81.5,174.834 81.3333,127.168 81.5,79.5 Z"/></g>
<g><path style="opacity:1" fill="#bfc0bf" d="M 205.5,80.5 C 342.666,79.5004 479.999,79.1671 617.5,79.5C 617.5,101.833 617.5,124.167 617.5,146.5C 502.166,146.667 386.833,146.5 271.5,146C 249.632,123.965 227.632,102.132 205.5,80.5 Z"/></g>
<g><path style="opacity:1" fill="#493d00" d="M 211.5,132.5 C 212.586,132.62 213.253,133.287 213.5,134.5C 218.858,152.6 224.525,170.6 230.5,188.5C 249.825,189.333 269.158,189.833 288.5,190C 273.285,202.056 257.952,213.889 242.5,225.5C 249.3,245.231 256.3,264.898 263.5,284.5C 263.167,284.833 262.833,285.167 262.5,285.5C 245.554,273.887 228.888,261.887 212.5,249.5C 196.112,261.887 179.446,273.887 162.5,285.5C 162.167,285.167 161.833,284.833 161.5,284.5C 168.7,264.898 175.7,245.231 182.5,225.5C 167.048,213.889 151.715,202.056 136.5,190C 155.842,189.833 175.175,189.333 194.5,188.5C 200.791,169.998 206.458,151.331 211.5,132.5 Z"/></g>
<g><path style="opacity:1" fill="#bfbfbf" d="M 211.5,139.5 C 212.931,139.881 213.764,140.881 214,142.5C 219.144,158.763 223.977,175.096 228.5,191.5C 246.503,191.333 264.503,191.5 282.5,192C 268.167,203 253.833,214 239.5,225C 245.192,239.739 250.692,254.573 256,269.5C 257.647,273.422 258.647,277.422 259,281.5C 243.64,269.973 228.14,258.64 212.5,247.5C 196.86,258.64 181.36,269.973 166,281.5C 166.353,277.422 167.353,273.422 169,269.5C 174.308,254.573 179.808,239.739 185.5,225C 171.167,214 156.833,203 142.5,192C 160.497,191.5 178.497,191.333 196.5,191.5C 201.5,174.167 206.5,156.833 211.5,139.5 Z"/></g>
<g><path style="opacity:1" fill="#fe0000" d="M 273.5,149.5 C 387.999,148.5 502.665,148.167 617.5,148.5C 617.5,171.167 617.5,193.833 617.5,216.5C 525.166,216.667 432.833,216.5 340.5,216C 318.299,193.632 295.965,171.465 273.5,149.5 Z"/></g>
<g><path style="opacity:1" fill="#bfc0bf" d="M 342.5,219.5 C 433.998,218.501 525.665,218.167 617.5,218.5C 617.5,241.167 617.5,263.833 617.5,286.5C 548.166,286.667 478.833,286.5 409.5,286C 387.299,263.632 364.965,241.465 342.5,219.5 Z"/></g>
<g><path style="opacity:1" fill="#bfc0bf" d="M 81.5,228.5 C 100.994,247.16 119.994,266.327 138.5,286C 119.503,286.5 100.503,286.667 81.5,286.5C 81.5,267.167 81.5,247.833 81.5,228.5 Z"/></g>
<g><path style="opacity:1" fill="#493d00" d="M 348.5,267.5 C 349.586,267.62 350.253,268.287 350.5,269.5C 355.858,287.6 361.525,305.6 367.5,323.5C 386.825,324.333 406.158,324.833 425.5,325C 410.285,337.056 394.952,348.889 379.5,360.5C 386.3,380.231 393.3,399.898 400.5,419.5C 400.167,419.833 399.833,420.167 399.5,420.5C 382.554,408.887 365.888,396.887 349.5,384.5C 333.112,396.887 316.446,408.887 299.5,420.5C 299.167,420.167 298.833,419.833 298.5,419.5C 305.7,399.898 312.7,380.231 319.5,360.5C 304.048,348.889 288.715,337.056 273.5,325C 292.842,324.833 312.175,324.333 331.5,323.5C 337.791,304.998 343.458,286.331 348.5,267.5 Z"/></g>
<g><path style="opacity:1" fill="#bfbfbf" d="M 348.5,274.5 C 349.931,274.881 350.764,275.881 351,277.5C 356.144,293.763 360.977,310.096 365.5,326.5C 383.503,326.333 401.503,326.5 419.5,327C 405.167,338 390.833,349 376.5,360C 382.192,374.739 387.692,389.573 393,404.5C 394.647,408.422 395.647,412.422 396,416.5C 380.64,404.973 365.14,393.64 349.5,382.5C 333.86,393.64 318.36,404.973 303,416.5C 303.353,412.422 304.353,408.422 306,404.5C 311.308,389.573 316.808,374.739 322.5,360C 308.167,349 293.833,338 279.5,327C 297.497,326.5 315.497,326.333 333.5,326.5C 338.5,309.167 343.5,291.833 348.5,274.5 Z"/></g>
<g><path style="opacity:1" fill="#fe0000" d="M 81.5,288.5 C 101.503,288.333 121.503,288.5 141.5,289C 162.833,311 184.167,333 205.5,355C 164.168,355.5 122.835,355.667 81.5,355.5C 81.5,333.167 81.5,310.833 81.5,288.5 Z"/></g>
<g><path style="opacity:1" fill="#fe0000" d="M 411.5,289.5 C 479.998,288.501 548.665,288.167 617.5,288.5C 617.5,310.833 617.5,333.167 617.5,355.5C 570.832,355.667 524.165,355.5 477.5,355C 455.632,332.965 433.632,311.132 411.5,289.5 Z"/></g>
<g><path style="opacity:1" fill="#bfc0bf" d="M 81.5,357.5 C 123.835,357.333 166.168,357.5 208.5,358C 230.167,380.333 251.833,402.667 273.5,425C 209.501,425.5 145.501,425.667 81.5,425.5C 81.5,402.833 81.5,380.167 81.5,357.5 Z"/></g>
<g><path style="opacity:1" fill="#bfc0bf" d="M 479.5,358.5 C 525.33,357.501 571.33,357.168 617.5,357.5C 617.5,380.167 617.5,402.833 617.5,425.5C 593.831,425.667 570.164,425.5 546.5,425C 524.299,402.632 501.965,380.465 479.5,358.5 Z"/></g>
<g><path style="opacity:1" fill="#493d00" d="M 485.5,402.5 C 486.586,402.62 487.253,403.287 487.5,404.5C 492.858,422.6 498.525,440.6 504.5,458.5C 523.825,459.333 543.158,459.833 562.5,460C 547.285,472.056 531.952,483.889 516.5,495.5C 523.3,515.231 530.3,534.898 537.5,554.5C 537.167,554.833 536.833,555.167 536.5,555.5C 519.554,543.887 502.888,531.887 486.5,519.5C 470.112,531.887 453.446,543.887 436.5,555.5C 436.167,555.167 435.833,554.833 435.5,554.5C 442.7,534.898 449.7,515.231 456.5,495.5C 441.048,483.889 425.715,472.056 410.5,460C 429.842,459.833 449.175,459.333 468.5,458.5C 474.791,439.998 480.458,421.331 485.5,402.5 Z"/></g>
<g><path style="opacity:1" fill="#bfbfbf" d="M 485.5,409.5 C 486.931,409.881 487.764,410.881 488,412.5C 493.144,428.763 497.977,445.096 502.5,461.5C 520.503,461.333 538.503,461.5 556.5,462C 542.167,473 527.833,484 513.5,495C 519.192,509.739 524.692,524.573 530,539.5C 531.647,543.422 532.647,547.422 533,551.5C 517.64,539.973 502.14,528.64 486.5,517.5C 470.86,528.64 455.36,539.973 440,551.5C 440.353,547.422 441.353,543.422 443,539.5C 448.308,524.573 453.808,509.739 459.5,495C 445.167,484 430.833,473 416.5,462C 434.497,461.5 452.497,461.333 470.5,461.5C 475.5,444.167 480.5,426.833 485.5,409.5 Z"/></g>
<g><path style="opacity:1" fill="#fe0000" d="M 81.5,427.5 C 146.501,427.333 211.501,427.5 276.5,428C 298.167,450.333 319.833,472.667 341.5,495C 257.501,495.5 173.501,495.667 89.5,495.5C 85.0522,473.034 82.3855,450.367 81.5,427.5 Z"/></g>
<g><path style="opacity:1" fill="#fe0000" d="M 548.5,428.5 C 571.327,427.502 594.327,427.169 617.5,427.5C 617.07,448.412 614.57,469.079 610,489.5C 589.632,468.965 569.132,448.632 548.5,428.5 Z"/></g>
<g><path style="opacity:0.085" fill="#000000" d="M 619.5,486.5 C 620.613,487.946 620.78,489.613 620,491.5C 619.506,489.866 619.34,488.199 619.5,486.5 Z"/></g>
<g><path style="opacity:1" fill="#bfc0bf" d="M 90.5,497.5 C 175.167,497.333 259.834,497.5 344.5,498C 366.167,520.333 387.833,542.667 409.5,565C 309.498,565.833 209.498,565.667 109.5,564.5C 100.528,542.917 94.1948,520.584 90.5,497.5 Z"/></g>
<g><path style="opacity:1" fill="#fe0000" d="M 110.5,568.5 C 210.999,567.334 311.666,567.167 412.5,568C 434.5,590.333 456.5,612.667 478.5,635C 368.167,635.667 257.833,635.667 147.5,635C 137.971,620.786 128.804,606.286 120,591.5C 116.719,583.807 113.552,576.141 110.5,568.5 Z"/></g>
<g><path style="opacity:1" fill="#bfc0bf" d="M 149.5,638.5 C 259.999,637.334 370.666,637.167 481.5,638C 493.318,650.652 505.318,663.152 517.5,675.5C 508.702,686.464 498.702,696.297 487.5,705C 395.5,705.667 303.5,705.667 211.5,705C 188.566,684.901 167.9,662.735 149.5,638.5 Z"/></g>
<g><path style="opacity:1" fill="#fe0000" d="M 214.5,708.5 C 304.332,707.334 394.332,707.168 484.5,708C 457.783,729.202 428.116,745.536 395.5,757C 380.192,761.936 364.858,766.77 349.5,771.5C 314.23,762.189 280.563,749.023 248.5,732C 236.892,724.379 225.559,716.546 214.5,708.5 Z"/></g>
</svg>
