<?xml version="1.0" encoding="UTF-8"?>
<!DOCTYPE svg PUBLIC "-//W3C//DTD SVG 1.1//EN" "http://www.w3.org/Graphics/SVG/1.1/DTD/svg11.dtd">
<svg xmlns="http://www.w3.org/2000/svg" version="1.1" width="700px" height="850px" style="shape-rendering:geometricPrecision; text-rendering:geometricPrecision; image-rendering:optimizeQuality; fill-rule:evenodd; clip-rule:evenodd" xmlns:xlink="http://www.w3.org/1999/xlink">
<g><path style="opacity:1" fill="#493d00" d="M 76.5,74.5 C 258.5,74.5 440.5,74.5 622.5,74.5C 622.667,199.167 622.5,323.834 622,448.5C 616.593,496.127 604.927,542.127 587,586.5C 560.17,635.918 525.337,679.084 482.5,716C 451.746,738.544 418.079,755.544 381.5,767C 374.105,769.132 366.772,771.465 359.5,774C 352.833,776 346.167,776 339.5,774C 307.673,764.415 277.006,752.082 247.5,737C 222.337,721.187 199.504,702.354 179,680.5C 168.373,667.538 157.373,654.871 146,642.5C 134.177,624.199 122.844,605.532 112,586.5C 94.0733,542.127 82.4067,496.127 77,448.5C 76.5,323.834 76.3333,199.167 76.5,74.5 Z"/></g>
<g><path style="opacity:1" fill="#bfc0bf" d="M 81.5,79.5 C 260.167,79.5 438.833,79.5 617.5,79.5C 617.5,101.833 617.5,124.167 617.5,146.5C 533.085,146.25 448.751,145.916 364.5,145.5C 359.167,134.833 353.833,134.833 348.5,145.5C 302.833,146.833 257.167,146.833 211.5,145.5C 209.808,143.641 208.308,141.641 207,139.5C 206.023,141.74 205.523,144.073 205.5,146.5C 164.167,146.5 122.833,146.5 81.5,146.5C 81.5,124.167 81.5,101.833 81.5,79.5 Z"/></g>
<g><path style="opacity:1" fill="#fed700" d="M 355.5,140.5 C 357.017,140.511 358.184,141.177 359,142.5C 360.697,144.699 362.197,147.032 363.5,149.5C 361.476,151.69 359.643,154.023 358,156.5C 357.675,158.553 358.009,160.553 359,162.5C 362.336,159.328 366.169,158.328 370.5,159.5C 371.833,161.5 371.833,163.5 370.5,165.5C 367.526,164.423 364.526,164.423 361.5,165.5C 361.412,169.306 362.079,172.973 363.5,176.5C 366.902,177.912 370.402,178.912 374,179.5C 376.826,176.516 379.159,173.183 381,169.5C 381.737,173.207 382.571,176.873 383.5,180.5C 385.527,180.662 387.527,180.495 389.5,180C 392.519,177.459 395.019,174.625 397,171.5C 397.798,169.741 397.631,168.074 396.5,166.5C 390.056,163.43 389.056,159.263 393.5,154C 394.5,153.333 395.5,153.333 396.5,154C 398.041,156.916 399.707,159.749 401.5,162.5C 402.522,159.559 403.355,156.559 404,153.5C 408.2,149.491 412.033,149.991 415.5,155C 407.722,160.377 402.222,167.543 399,176.5C 398.503,179.146 398.336,181.813 398.5,184.5C 370.5,184.5 342.5,184.5 314.5,184.5C 314.664,181.813 314.497,179.146 314,176.5C 310.778,167.543 305.278,160.377 297.5,155C 300.967,149.991 304.8,149.491 309,153.5C 309.645,156.559 310.478,159.559 311.5,162.5C 313.293,159.749 314.959,156.916 316.5,154C 321.296,154.147 323.13,156.647 322,161.5C 320.595,163.651 318.761,165.318 316.5,166.5C 315.398,169.19 315.564,171.857 317,174.5C 319.46,175.958 321.627,177.791 323.5,180C 325.473,180.495 327.473,180.662 329.5,180.5C 330.429,176.873 331.263,173.207 332,169.5C 333.841,173.183 336.174,176.516 339,179.5C 342.598,178.912 346.098,177.912 349.5,176.5C 350.921,172.973 351.588,169.306 351.5,165.5C 348.474,164.423 345.474,164.423 342.5,165.5C 341.167,163.5 341.167,161.5 342.5,159.5C 346.831,158.328 350.664,159.328 354,162.5C 354.991,160.553 355.325,158.553 355,156.5C 353.357,154.023 351.524,151.69 349.5,149.5C 351.526,146.482 353.526,143.482 355.5,140.5 Z"/></g>
<g><path style="opacity:1" fill="#fed700" d="M 207.5,147.5 C 213.28,151.69 217.113,157.357 219,164.5C 219.809,169.363 219.142,174.03 217,178.5C 214.204,184.658 210.871,184.992 207,179.5C 204.323,175.148 202.489,170.482 201.5,165.5C 202.183,161.801 203.683,158.468 206,155.5C 206.822,152.883 207.322,150.216 207.5,147.5 Z"/></g>
<g><path style="opacity:1" fill="#0000ff" d="M 81.5,148.5 C 122.5,148.5 163.5,148.5 204.5,148.5C 204.162,150.854 203.662,153.187 203,155.5C 199.621,156.78 196.121,158.613 192.5,161C 190.338,162.645 189.005,164.812 188.5,167.5C 191.215,172.759 193.215,178.259 194.5,184C 194.547,187.073 193.38,189.573 191,191.5C 190.487,185.578 188.487,180.245 185,175.5C 178.151,169.315 171.984,162.482 166.5,155C 158.772,151.853 150.772,150.52 142.5,151C 139.088,152.455 135.921,154.288 133,156.5C 132.503,158.81 132.337,161.143 132.5,163.5C 137.258,162.15 141.924,162.316 146.5,164C 147.357,164.689 148.023,165.522 148.5,166.5C 147.399,168.642 146.399,170.808 145.5,173C 146.687,174.019 147.687,175.186 148.5,176.5C 137.427,176.222 127.094,179.055 117.5,185C 114.833,188.667 112.167,192.333 109.5,196C 115.106,195.15 120.772,194.817 126.5,195C 125.735,207.668 131.735,212.335 144.5,209C 149.186,206.432 153.853,206.765 158.5,210C 154.835,211.497 151.502,213.497 148.5,216C 126.313,216.169 103.979,216.335 81.5,216.5C 81.5,193.833 81.5,171.167 81.5,148.5 Z"/></g>
<g><path style="opacity:1" fill="#0000ff" d="M 214.5,148.5 C 243.169,148.333 271.835,148.5 300.5,149C 297.537,150.961 294.871,153.294 292.5,156C 303.885,162.306 310.052,171.806 311,184.5C 309.104,185.68 307.604,187.18 306.5,189C 307.272,190.221 308.272,191.221 309.5,192C 308.062,192.219 306.729,192.719 305.5,193.5C 307.046,198.439 310.379,201.272 315.5,202C 314.421,202.956 313.255,203.789 312,204.5C 310.643,210.53 306.81,213.363 300.5,213C 299.5,214 298.5,215 297.5,216C 268.828,216.833 240.161,216.667 211.5,215.5C 209.185,210.354 209.019,205.021 211,199.5C 212.616,195.653 213.616,191.653 214,187.5C 221.493,179.862 223.826,170.862 221,160.5C 218.977,156.34 216.811,152.34 214.5,148.5 Z"/></g>
<g><path style="opacity:1" fill="#0000ff" d="M 308.5,149.5 C 320.989,148.505 333.656,148.171 346.5,148.5C 346.933,151.285 348.266,153.619 350.5,155.5C 338.462,154.415 335.296,159.415 341,170.5C 343.066,167.868 345.566,167.201 348.5,168.5C 346.905,170.452 346.405,172.452 347,174.5C 344.205,175.783 341.372,175.783 338.5,174.5C 336,170.167 333.5,165.833 331,161.5C 329.542,166.452 328.209,171.452 327,176.5C 326.586,176.957 326.086,177.291 325.5,177.5C 322.45,175.451 320.117,172.784 318.5,169.5C 327.364,163.157 327.697,156.49 319.5,149.5C 316.724,150.089 314.39,151.422 312.5,153.5C 311.995,151.231 310.662,149.897 308.5,149.5 Z"/></g>
<g><path style="opacity:1" fill="#0000ff" d="M 366.5,148.5 C 379.171,148.333 391.838,148.5 404.5,149C 402.396,149.791 401.063,151.291 400.5,153.5C 398.61,151.422 396.276,150.089 393.5,149.5C 385.303,156.49 385.636,163.157 394.5,169.5C 392.883,172.784 390.55,175.451 387.5,177.5C 386.914,177.291 386.414,176.957 386,176.5C 384.791,171.452 383.458,166.452 382,161.5C 379.5,165.833 377,170.167 374.5,174.5C 371.628,175.783 368.795,175.783 366,174.5C 366.595,172.452 366.095,170.452 364.5,168.5C 367.434,167.201 369.934,167.868 372,170.5C 377.704,159.415 374.538,154.415 362.5,155.5C 364.734,153.619 366.067,151.285 366.5,148.5 Z"/></g>
<g><path style="opacity:1" fill="#0000ff" d="M 412.5,149.5 C 431.329,148.338 450.329,148.171 469.5,149C 459.69,151.646 452.523,157.48 448,166.5C 446.186,170.953 444.186,175.286 442,179.5C 440,175.5 438,171.5 436,167.5C 436.022,176.699 434.022,185.366 430,193.5C 429.667,196.5 429.333,199.5 429,202.5C 426.705,199.203 424.038,196.203 421,193.5C 420.667,193.833 420.333,194.167 420,194.5C 417.798,201.967 418.631,209.133 422.5,216C 418.179,216.499 413.846,216.666 409.5,216.5C 410.36,209.908 408.36,204.408 403.5,200C 405.167,197.667 406.833,195.333 408.5,193C 406.833,192.667 405.167,192.333 403.5,192C 404.728,191.221 405.728,190.221 406.5,189C 405.396,187.18 403.896,185.68 402,184.5C 402.948,171.806 409.115,162.306 420.5,156C 418.229,153.218 415.563,151.051 412.5,149.5 Z"/></g>
<g><path style="opacity:1" fill="#0000ff" d="M 480.5,148.5 C 498.503,148.333 516.503,148.5 534.5,149C 532.564,149.813 530.564,150.313 528.5,150.5C 528.351,151.552 528.517,152.552 529,153.5C 533,157.5 537,161.5 541,165.5C 545.117,172.669 546.45,180.336 545,188.5C 544.546,197.942 542.379,206.942 538.5,215.5C 537.675,216.386 536.675,216.719 535.5,216.5C 533.603,202.743 525.936,196.91 512.5,199C 514.974,202.775 517.807,206.275 521,209.5C 522.202,211.677 522.702,214.011 522.5,216.5C 508.829,216.667 495.163,216.5 481.5,216C 485.235,210.863 487.901,205.196 489.5,199C 489.167,198.5 488.833,198 488.5,197.5C 481.33,200.995 475.33,205.995 470.5,212.5C 462.849,203.732 460.016,193.732 462,182.5C 466.894,170.371 473.061,159.038 480.5,148.5 Z"/></g>
<g><path style="opacity:1" fill="#0000ff" d="M 538.5,149.5 C 542.981,148.352 547.648,148.185 552.5,149C 550.954,150.44 550.121,152.273 550,154.5C 546.658,151.648 542.825,149.981 538.5,149.5 Z"/></g>
<g><path style="opacity:1" fill="#0000ff" d="M 554.5,149.5 C 575.327,148.503 596.327,148.169 617.5,148.5C 617.5,171.167 617.5,193.833 617.5,216.5C 608.494,216.666 599.494,216.5 590.5,216C 597.356,203.089 595.023,200.755 583.5,209C 580.18,210.116 576.847,210.783 573.5,211C 581.149,205.524 587.149,198.691 591.5,190.5C 590.837,187.194 590.337,183.861 590,180.5C 586.288,185.879 581.621,190.213 576,193.5C 578.526,188.088 580.859,182.422 583,176.5C 584.339,168.84 582.006,162.507 576,157.5C 573.497,160.502 571.497,163.835 570,167.5C 568.128,158.474 562.961,152.474 554.5,149.5 Z"/></g>
<g><path style="opacity:1" fill="#fe0000" d="M 473.5,150.5 C 474.239,150.369 474.906,150.536 475.5,151C 465.772,163.62 459.772,177.786 457.5,193.5C 459.678,202.862 464.178,210.862 471,217.5C 474.083,212.412 477.917,207.912 482.5,204C 483.332,203.312 483.998,203.479 484.5,204.5C 481.794,209.523 479.128,214.523 476.5,219.5C 481.352,235.856 491.686,247.356 507.5,254C 502.833,258 498.167,262 493.5,266C 494.191,267.067 494.691,268.234 495,269.5C 501.706,263.126 508.706,257.126 516,251.5C 519.401,246.423 522.401,241.089 525,235.5C 526.891,227.512 526.891,219.512 525,211.5C 523.061,208.053 520.894,204.719 518.5,201.5C 527.296,202.478 531.962,207.644 532.5,217C 532.151,220.244 531.485,223.41 530.5,226.5C 530.833,226.833 531.167,227.167 531.5,227.5C 534.086,225.957 536.586,224.291 539,222.5C 546.195,207.669 549.195,192.002 548,175.5C 546.951,171.735 545.618,168.068 544,164.5C 540.167,160.667 536.333,156.833 532.5,153C 535.45,151.286 538.45,151.286 541.5,153C 552.926,158.355 557.593,167.189 555.5,179.5C 556.5,179.5 557.5,179.5 558.5,179.5C 559.19,175.51 559.357,171.51 559,167.5C 556.959,163.916 554.792,160.416 552.5,157C 553.38,155.644 553.714,154.144 553.5,152.5C 560.148,154.317 564.315,158.65 566,165.5C 566.667,170.167 566.667,174.833 566,179.5C 565.215,181.286 564.049,182.786 562.5,184C 564.727,185.835 566.56,185.335 568,182.5C 569.153,179.289 569.82,175.956 570,172.5C 572.416,169.337 574.582,166.004 576.5,162.5C 581.33,168.364 581.83,174.697 578,181.5C 574.004,189.825 568.838,197.325 562.5,204C 563.126,204.75 563.626,205.584 564,206.5C 566.872,203.963 569.372,201.13 571.5,198C 577.669,196.349 583.003,193.183 587.5,188.5C 588.314,190.952 587.814,193.285 586,195.5C 579.5,201.333 573,207.167 566.5,213C 575.344,214.999 583.344,213.166 590.5,207.5C 591.041,209.523 590.541,211.523 589,213.5C 581.409,221.718 572.242,227.551 561.5,231C 558.328,232.752 555.328,234.752 552.5,237C 562.751,236.755 569.084,241.589 571.5,251.5C 571.431,253.709 570.764,255.709 569.5,257.5C 567.362,247.086 561.028,243.253 550.5,246C 532.039,256.655 514.872,269.155 499,283.5C 492.669,292.503 487.169,302.003 482.5,312C 486.318,311.843 489.985,310.843 493.5,309C 498.167,303 503.5,297.667 509.5,293C 510.944,292.219 512.277,292.386 513.5,293.5C 505.147,302.685 496.98,312.019 489,321.5C 484.953,328.809 481.786,336.475 479.5,344.5C 480.667,350.253 481.833,355.92 483,361.5C 485.706,354.578 489.54,348.411 494.5,343C 499.098,339.854 504.098,338.188 509.5,338C 504.333,344.5 499.167,351 494,357.5C 489.702,366.983 489.368,376.65 493,386.5C 495.016,388.684 497.183,390.684 499.5,392.5C 503.078,399.991 506.912,407.324 511,414.5C 520.444,401.283 528.611,387.283 535.5,372.5C 532.449,361.732 527.782,351.732 521.5,342.5C 531.951,344.489 536.618,351.155 535.5,362.5C 540.771,360.698 544.271,357.032 546,351.5C 546.893,344.404 545.56,337.738 542,331.5C 537.027,326.527 532.027,321.527 527,316.5C 523.918,313.021 522.585,309.021 523,304.5C 528.611,310.567 535.111,315.567 542.5,319.5C 543.461,313.646 542.627,307.979 540,302.5C 536.483,299.283 533.316,295.783 530.5,292C 523.656,287.411 516.99,282.578 510.5,277.5C 515.832,273.007 521.332,268.673 527,264.5C 534.422,270.597 540.422,277.93 545,286.5C 546.814,282.265 548.48,277.932 550,273.5C 551.739,271.259 553.906,269.592 556.5,268.5C 556.833,268.833 557.167,269.167 557.5,269.5C 555.184,275.72 553.184,282.053 551.5,288.5C 551.307,290.688 552.141,292.355 554,293.5C 554.333,296.167 554.667,298.833 555,301.5C 560.13,308.308 563.964,315.808 566.5,324C 565.303,326.894 563.97,329.727 562.5,332.5C 562.808,333.308 563.308,333.975 564,334.5C 567.67,327.824 571.836,321.491 576.5,315.5C 583.334,313.327 589.334,314.661 594.5,319.5C 590.808,320.564 587.142,321.73 583.5,323C 580.428,325.951 577.261,328.784 574,331.5C 572.527,335.779 570.527,339.779 568,343.5C 567.579,347.872 566.912,352.205 566,356.5C 558.582,366.589 550.415,376.089 541.5,385C 549.318,384.437 556.652,382.103 563.5,378C 573.106,376.236 581.773,378.236 589.5,384C 579.721,384.023 570.055,385.023 560.5,387C 548.305,393.529 539.138,403.029 533,415.5C 530.815,416.928 528.815,418.595 527,420.5C 525.669,423.834 523.835,426.834 521.5,429.5C 522.681,433.224 524.514,436.558 527,439.5C 528.146,451.963 527.479,464.296 525,476.5C 522.252,481.252 518.752,485.419 514.5,489C 519.5,489.333 524.5,489.667 529.5,490C 540.724,497.25 548.224,507.417 552,520.5C 552.733,524.972 552.233,529.305 550.5,533.5C 547.439,526.376 543.605,519.709 539,513.5C 530.078,504.966 519.411,500.299 507,499.5C 494.308,499.528 481.641,500.862 469,503.5C 460.277,500.036 451.443,497.202 442.5,495C 455.201,506.034 466.868,518.034 477.5,531C 482.327,532.048 486.66,534.048 490.5,537C 487.661,538.92 484.661,540.587 481.5,542C 485.667,545.5 489.833,549 494,552.5C 494.231,562.924 498.731,570.758 507.5,576C 503.358,576.727 499.358,577.727 495.5,579C 498.701,582.536 502.201,585.703 506,588.5C 507.175,592.688 508.341,596.854 509.5,601C 509.333,602.167 509.167,603.333 509,604.5C 507.315,606.017 505.815,607.684 504.5,609.5C 505.183,615.368 507.849,620.202 512.5,624C 503.518,624.463 495.018,622.63 487,618.5C 486.833,618.833 486.667,619.167 486.5,619.5C 489.907,624.566 493.907,628.9 498.5,632.5C 496.429,636.64 494.929,640.974 494,645.5C 491.595,647.403 489.761,649.736 488.5,652.5C 490.994,656.431 492.327,660.764 492.5,665.5C 488.973,664.74 485.64,663.406 482.5,661.5C 479.148,657.314 475.314,653.647 471,650.5C 471.969,655.074 472.302,659.741 472,664.5C 469.106,670.062 465.439,675.062 461,679.5C 460.667,682.833 460.333,686.167 460,689.5C 454.482,682.801 451.482,675.135 451,666.5C 447.794,675.474 443.461,683.807 438,691.5C 436.942,685.086 435.609,678.753 434,672.5C 430.142,679.699 425.475,686.365 420,692.5C 418.559,693.26 417.059,693.926 415.5,694.5C 414.363,690.893 412.696,687.56 410.5,684.5C 403.796,682.436 399.296,684.769 397,691.5C 395.833,690.333 394.667,689.167 393.5,688C 395.5,684.667 397.5,681.333 399.5,678C 398.584,677.626 397.75,677.126 397,676.5C 394.959,680.084 392.792,683.584 390.5,687C 384.343,691.102 379.343,690.102 375.5,684C 379.209,683.367 382.709,682.2 386,680.5C 387.384,676.579 387.384,672.579 386,668.5C 384.147,666.408 381.814,665.408 379,665.5C 375.14,665.881 371.473,666.881 368,668.5C 367.833,668.167 367.667,667.833 367.5,667.5C 373.7,664.765 375.866,660.099 374,653.5C 373.028,651.695 371.861,650.028 370.5,648.5C 365.319,647.162 360.319,645.329 355.5,643C 362.667,641.167 367.167,636.667 369,629.5C 370.231,628.892 371.564,628.559 373,628.5C 376.628,629.228 380.128,630.394 383.5,632C 391.504,632.102 399.504,632.102 407.5,632C 411.758,634.572 416.258,636.739 421,638.5C 436.414,632.182 443.247,620.682 441.5,604C 441.469,595.315 440.303,586.815 438,578.5C 428.279,570.113 419.279,561.113 411,551.5C 409,545.5 407,539.5 405,533.5C 404.667,527.167 404.333,520.833 404,514.5C 400.061,522.045 396.394,529.712 393,537.5C 392.333,541.5 392.333,545.5 393,549.5C 394.011,552.857 394.677,556.191 395,559.5C 391.427,553.521 388.261,547.354 385.5,541C 387.235,538.598 387.568,536.098 386.5,533.5C 380.616,541.318 377.616,550.152 377.5,560C 380.573,568.774 382.573,577.774 383.5,587C 379.495,595.35 374.495,603.016 368.5,610C 365.857,611.436 363.19,611.602 360.5,610.5C 364.501,605.168 368.001,599.502 371,593.5C 372.537,587.411 373.704,581.245 374.5,575C 370.839,562.686 367.506,550.353 364.5,538C 367.337,529.175 371.837,521.341 378,514.5C 379.346,505.559 379.846,496.559 379.5,487.5C 378.127,487.343 376.793,487.51 375.5,488C 378.981,500.182 374.648,504.848 362.5,502C 358.724,497.681 358.724,493.181 362.5,488.5C 361.758,487.713 360.925,487.047 360,486.5C 355.853,496.83 351.02,496.996 345.5,487C 346.104,484.532 347.438,482.532 349.5,481C 353.177,480.892 356.843,480.892 360.5,481C 358.5,478.667 356.5,476.333 354.5,474C 357.333,472.219 360.333,470.719 363.5,469.5C 367.32,474.461 370.653,479.794 373.5,485.5C 374.723,486.614 376.056,486.781 377.5,486C 374.04,480.248 370.707,474.415 367.5,468.5C 387.22,456.732 401.053,440.066 409,418.5C 412.612,428.391 417.279,437.724 423,446.5C 429.667,455.167 436.333,463.833 443,472.5C 463.48,491.471 485.314,493.304 508.5,478C 512.367,474.263 514.034,469.596 513.5,464C 512.084,448.75 506.917,434.917 498,422.5C 491.92,418.21 485.753,414.043 479.5,410C 471.768,407.559 463.934,407.059 456,408.5C 448.399,406.397 443.566,401.397 441.5,393.5C 441.667,392.5 441.833,391.5 442,390.5C 446.671,395.502 452.171,399.335 458.5,402C 469.198,402.672 479.865,403.338 490.5,404C 482.653,398.484 475.82,391.984 470,384.5C 468.698,376.944 466.032,369.944 462,363.5C 457.187,358.356 452.02,353.523 446.5,349C 448.126,349.195 449.793,349.195 451.5,349C 466.13,327.375 468.297,304.541 458,280.5C 453.833,275 449,270.167 443.5,266C 449.682,266.131 455.349,267.964 460.5,271.5C 465.054,276.206 468.554,281.539 471,287.5C 472.026,292.785 472.693,298.118 473,303.5C 474.746,299.673 476.746,296.007 479,292.5C 479.346,289.424 480.012,286.424 481,283.5C 485.754,279.253 489.92,274.586 493.5,269.5C 492.885,267.884 491.885,266.551 490.5,265.5C 479.734,260.725 469.734,254.725 460.5,247.5C 451.584,241.513 441.917,239.679 431.5,242C 429.92,244.295 427.92,245.628 425.5,246C 426.095,242.916 427.428,240.249 429.5,238C 435.5,237.667 441.5,237.333 447.5,237C 440.27,232.311 433.77,226.811 428,220.5C 423.582,214.298 421.916,207.631 423,200.5C 428.513,206.66 434.68,211.994 441.5,216.5C 442.308,216.192 442.975,215.692 443.5,215C 439.701,212.203 436.201,209.036 433,205.5C 431.538,198.569 432.872,192.236 437,186.5C 437.333,183.833 437.667,181.167 438,178.5C 440.863,184.589 443.03,190.922 444.5,197.5C 445.606,199.976 446.606,199.809 447.5,197C 446.471,192.545 445.138,188.212 443.5,184C 446.956,172.754 452.956,163.087 461.5,155C 465.61,153.485 469.61,151.985 473.5,150.5 Z"/></g>
<g><path style="opacity:1" fill="#fed700" d="M 143.5,153.5 C 151.078,153.727 158.411,155.227 165.5,158C 167.743,160.488 169.743,163.154 171.5,166C 170.353,168.178 168.687,169.678 166.5,170.5C 162.047,169.776 157.714,168.609 153.5,167C 151.129,164.294 148.463,161.961 145.5,160C 142.24,159.216 139.073,159.383 136,160.5C 135.251,159.365 135.417,158.365 136.5,157.5C 139.059,156.392 141.392,155.059 143.5,153.5 Z"/></g>
<g><path style="opacity:1" fill="#fe0000" d="M 198.5,160.5 C 198.086,170.669 201.919,179.336 210,186.5C 209.095,193.976 207.929,201.476 206.5,209C 206.994,213.496 208.494,217.662 211,221.5C 220.885,232.275 229.552,243.942 237,256.5C 247.035,266.203 257.368,275.537 268,284.5C 272.992,295.987 280.492,305.487 290.5,313C 289.207,313.49 287.873,313.657 286.5,313.5C 286.66,315.199 286.494,316.866 286,318.5C 281.205,320.817 277.038,323.984 273.5,328C 263.837,328.637 254.17,329.137 244.5,329.5C 244.5,330.5 244.5,331.5 244.5,332.5C 254.502,332.111 264.502,331.611 274.5,331C 278.024,327.975 281.691,325.142 285.5,322.5C 286.666,341.825 286.833,361.158 286,380.5C 277.36,389.489 266.86,392.655 254.5,390C 251.53,388.847 248.863,387.18 246.5,385C 253.659,383.015 259.492,379.182 264,373.5C 264.231,369.416 264.898,365.416 266,361.5C 271.569,356.965 277.403,352.799 283.5,349C 278.599,349.877 273.599,350.711 268.5,351.5C 266.142,351.247 263.808,350.914 261.5,350.5C 261.281,351.675 261.614,352.675 262.5,353.5C 264.776,354.213 267.109,354.713 269.5,355C 263.037,358.92 260.204,364.753 261,372.5C 255.72,378.058 249.22,381.391 241.5,382.5C 246.223,390.779 253.39,394.446 263,393.5C 271.903,393.644 279.569,390.644 286,384.5C 286.333,392.167 286.667,399.833 287,407.5C 288.969,411.649 288.635,415.649 286,419.5C 282.687,417.021 279.52,414.355 276.5,411.5C 275.909,419.465 272.742,426.132 267,431.5C 269.234,420.929 265.901,412.929 257,407.5C 255.333,404.5 253.667,401.5 252,398.5C 251.836,404.97 250.836,411.304 249,417.5C 246.629,420.206 243.963,422.539 241,424.5C 242.055,418.569 241.055,412.903 238,407.5C 232.92,405.045 228.087,402.212 223.5,399C 219.667,394.5 215.833,390 212,385.5C 214.341,392.193 216.508,399.026 218.5,406C 218.504,411.011 216.337,414.844 212,417.5C 211.667,414.833 211.333,412.167 211,409.5C 206.709,402.875 201.376,397.209 195,392.5C 191.921,388.676 189.088,384.676 186.5,380.5C 185.573,389.129 182.24,396.629 176.5,403C 174.833,403.667 173.167,403.667 171.5,403C 174.924,391.633 171.09,383.466 160,378.5C 156.609,379.058 154.776,381.058 154.5,384.5C 156.251,386.972 157.085,389.639 157,392.5C 153.336,390.189 152.003,386.855 153,382.5C 156.045,378.244 159.212,374.077 162.5,370C 154.683,371.407 147.683,374.74 141.5,380C 137.875,382.257 134.542,381.924 131.5,379C 137.772,376.738 142.939,372.905 147,367.5C 147.667,365.167 147.667,362.833 147,360.5C 144.024,356.849 140.358,354.182 136,352.5C 132.009,353.164 128.176,354.331 124.5,356C 120.048,356.86 116.548,355.36 114,351.5C 114.019,349.893 114.185,348.226 114.5,346.5C 120.42,348.089 126.42,348.923 132.5,349C 139.148,346.426 141.648,341.593 140,334.5C 134.841,330.586 129.507,326.92 124,323.5C 121.71,320.42 119.543,317.253 117.5,314C 118.047,313.075 118.713,312.242 119.5,311.5C 123.644,314.476 127.644,317.643 131.5,321C 135.645,323.426 139.978,323.926 144.5,322.5C 155.798,334.767 169.798,339.601 186.5,337C 204.067,343.951 221.733,350.617 239.5,357C 243.211,357.439 246.878,357.106 250.5,356C 253.758,354.533 257.092,353.367 260.5,352.5C 260.67,351.178 260.337,350.011 259.5,349C 254.396,346.227 249.563,343.06 245,339.5C 244.088,335.205 243.421,330.872 243,326.5C 240.986,324.155 238.653,322.155 236,320.5C 235.399,323.637 234.399,326.637 233,329.5C 229.385,325.42 228.885,321.086 231.5,316.5C 231,315.5 230.5,314.5 230,313.5C 226.611,320.43 222.111,326.597 216.5,332C 214.421,332.808 212.421,332.641 210.5,331.5C 215.079,323.28 216.246,314.613 214,305.5C 213.228,304.151 212.061,303.318 210.5,303C 213.687,300.214 214.521,297.047 213,293.5C 208.222,305.119 199.722,312.119 187.5,314.5C 186.062,314.281 184.729,313.781 183.5,313C 188.502,308.329 192.335,302.829 195,296.5C 195.531,288.047 193.031,280.547 187.5,274C 191.569,268.39 193.736,262.223 194,255.5C 190.121,262.762 185.621,269.595 180.5,276C 178.5,277.333 176.5,278.667 174.5,280C 172.421,280.808 170.421,280.641 168.5,279.5C 175.581,269.502 177.748,258.502 175,246.5C 170.38,243.522 170.547,240.689 175.5,238C 177.5,237 179.5,236 181.5,235C 180.953,234.075 180.287,233.242 179.5,232.5C 175.443,234.384 171.777,236.884 168.5,240C 165.28,241.525 161.947,242.192 158.5,242C 167.745,236.864 168.745,230.531 161.5,223C 157.256,221.987 153.423,222.82 150,225.5C 148.346,222.725 148.679,220.058 151,217.5C 153.941,215.029 157.274,213.363 161,212.5C 162.667,213.833 164.333,215.167 166,216.5C 167.23,215.725 167.563,214.725 167,213.5C 162.485,207.81 156.652,204.477 149.5,203.5C 144.14,206.276 138.474,207.11 132.5,206C 130.07,203.695 129.07,200.862 129.5,197.5C 135.739,199.057 142.072,199.557 148.5,199C 150.983,196.594 153.65,194.427 156.5,192.5C 157.609,190.615 158.443,188.615 159,186.5C 165.503,189.837 168.67,195.171 168.5,202.5C 169.5,202.5 170.5,202.5 171.5,202.5C 171.094,198.729 170.261,195.062 169,191.5C 163.333,186.5 157.667,181.5 152,176.5C 149.302,174.089 148.968,171.423 151,168.5C 157.051,172.257 163.551,173.59 170.5,172.5C 171.924,167.789 174.257,167.289 177.5,171C 180.699,174.566 183.533,178.4 186,182.5C 186.785,187.876 187.785,193.209 189,198.5C 192.147,195.532 194.814,192.198 197,188.5C 197.441,180.812 195.608,173.645 191.5,167C 193.444,164.371 195.777,162.204 198.5,160.5 Z"/></g>
<g><path style="opacity:1" fill="#fed700" d="M 137.5,179.5 C 142.468,180.164 147.468,180.664 152.5,181C 154.167,182.667 155.833,184.333 157.5,186C 156.128,187.242 155.128,188.742 154.5,190.5C 151.804,191.851 149.47,193.684 147.5,196C 144.833,196.667 142.167,196.667 139.5,196C 135.231,195.297 131.231,193.964 127.5,192C 123.909,191.211 120.409,191.378 117,192.5C 117.027,190.583 117.861,188.916 119.5,187.5C 125.365,184.228 131.365,181.561 137.5,179.5 Z"/></g>
<g><path style="opacity:1" fill="#fed700" d="M 312.5,186.5 C 341.835,186.333 371.169,186.5 400.5,187C 402.807,188.828 402.474,190.494 399.5,192C 370.833,192.667 342.167,192.667 313.5,192C 312.5,191 311.5,190 310.5,189C 311.381,188.292 312.047,187.458 312.5,186.5 Z"/></g>
<g><path style="opacity:1" fill="#fed700" d="M 309.5,195.5 C 340.664,194.336 371.997,194.169 403.5,195C 402.5,196 401.5,197 400.5,198C 371.167,198.667 341.833,198.667 312.5,198C 311.627,196.955 310.627,196.122 309.5,195.5 Z"/></g>
<g><path style="opacity:1" fill="#fed700" d="M 327.5,200.5 C 347.503,200.333 367.503,200.5 387.5,201C 384.289,202.153 380.956,202.82 377.5,203C 365.116,203.155 352.783,203.989 340.5,205.5C 335.273,205.023 330.273,203.857 325.5,202C 326.416,201.722 327.082,201.222 327.5,200.5 Z"/></g>
<g><path style="opacity:1" fill="#fe0000" d="M 392.5,200.5 C 397.725,199.566 401.891,201.232 405,205.5C 409.082,215.375 406.582,222.875 397.5,228C 394.947,228.851 392.614,228.518 390.5,227C 395.374,224.452 398.374,220.452 399.5,215C 396.971,206.933 391.971,204.933 384.5,209C 381.27,212.357 380.937,215.857 383.5,219.5C 384.308,219.192 384.975,218.692 385.5,218C 383.995,214.117 385.329,211.45 389.5,210C 396.891,210.642 398.391,214.142 394,220.5C 390.167,221.667 387.667,224.167 386.5,228C 389.941,230.789 393.941,232.123 398.5,232C 403.454,238.076 408.287,244.243 413,250.5C 415.408,252.956 418.241,254.789 421.5,256C 414.685,257.346 408.019,256.513 401.5,253.5C 401.167,253.833 400.833,254.167 400.5,254.5C 409.476,267.474 420.142,278.807 432.5,288.5C 429.032,291.326 425.032,292.993 420.5,293.5C 415.192,292.383 409.858,291.883 404.5,292C 408.084,294.041 411.584,296.208 415,298.5C 419.918,306 424.584,313.667 429,321.5C 432.737,326.578 437.57,330.078 443.5,332C 433.964,338.14 424.464,337.973 415,331.5C 415.346,338.535 417.679,344.868 422,350.5C 421.962,355.875 423.296,360.875 426,365.5C 430.999,368.417 436.166,370.917 441.5,373C 431.446,379.514 421.946,378.681 413,370.5C 412.5,351.503 412.333,332.503 412.5,313.5C 387.831,313.667 363.164,313.5 338.5,313C 343.896,309.784 347.562,305.284 349.5,299.5C 354.434,299.744 359.101,298.744 363.5,296.5C 367.628,290.578 370.961,284.244 373.5,277.5C 371.95,272.731 370.117,268.065 368,263.5C 367.211,259.909 367.378,256.409 368.5,253C 367.069,252.535 365.903,251.701 365,250.5C 364.167,251.333 363.333,252.167 362.5,253C 363.659,261.36 366.325,269.36 370.5,277C 368.25,283.097 365.25,288.763 361.5,294C 359.913,294.862 358.246,295.529 356.5,296C 349.449,296.444 342.449,297.277 335.5,298.5C 330.616,297.242 325.782,297.242 321,298.5C 314.794,295.752 312.627,291.086 314.5,284.5C 315.242,283.713 316.075,283.047 317,282.5C 318.312,284.955 319.478,287.455 320.5,290C 327.753,291.557 335.086,291.89 342.5,291C 348.113,289.718 352.28,286.551 355,281.5C 358.787,271.54 357.787,261.874 352,252.5C 346.729,248.883 340.895,247.716 334.5,249C 330.511,250.331 326.511,251.665 322.5,253C 321.072,254.916 320.072,257.083 319.5,259.5C 311.73,253.56 305.564,246.226 301,237.5C 300.251,236.365 300.417,235.365 301.5,234.5C 309.818,231.986 311.652,226.986 307,219.5C 305.082,218.458 303.249,217.292 301.5,216C 303.167,215.333 304.833,215.333 306.5,216C 311.054,218.129 315.72,219.962 320.5,221.5C 322.423,229.766 327.423,234.432 335.5,235.5C 338.592,235.493 341.592,234.993 344.5,234C 347.5,231 350.5,228 353.5,225C 352.167,224.333 350.833,224.333 349.5,225C 346.963,227.872 344.13,230.372 341,232.5C 341.482,229.24 341.482,225.907 341,222.5C 337.819,216.748 333.819,216.081 329,220.5C 327.908,223.044 327.241,225.711 327,228.5C 324.99,226.129 323.99,223.463 324,220.5C 327.953,217.1 332.453,215.267 337.5,215C 342.044,216.882 346.044,219.549 349.5,223C 357.516,224.848 362.849,229.681 365.5,237.5C 362.255,239.478 362.088,241.478 365,243.5C 368.209,241.268 369.209,238.268 368,234.5C 366.444,231.102 364.277,228.102 361.5,225.5C 365.067,222.891 368.733,220.557 372.5,218.5C 370.926,217.369 369.259,217.202 367.5,218C 364.91,220.712 361.743,222.212 358,222.5C 352.142,220.987 346.976,218.153 342.5,214C 338.698,211.172 334.698,210.839 330.5,213C 327.582,214.709 324.748,216.542 322,218.5C 317.711,217.443 313.544,215.943 309.5,214C 312.642,212.55 314.308,210.05 314.5,206.5C 316.5,205.167 318.5,203.833 320.5,202.5C 326.523,206.343 333.19,208.343 340.5,208.5C 355.812,207.081 371.145,205.914 386.5,205C 388.747,203.723 390.747,202.223 392.5,200.5 Z"/></g>
<g><path style="opacity:1" fill="#bfc0bf" d="M 81.5,218.5 C 96.1667,218.5 110.833,218.5 125.5,218.5C 123.197,230.722 127.864,239.222 139.5,244C 144.533,244.728 149.533,244.561 154.5,243.5C 158.677,246.104 162.844,246.104 167,243.5C 169.321,244.487 170.987,246.154 172,248.5C 173.325,252.428 173.658,256.428 173,260.5C 171.402,267.961 169.069,274.961 166,281.5C 168.841,283.504 172.007,284.004 175.5,283C 178.939,280.861 182.106,278.361 185,275.5C 187.904,278.642 189.738,282.309 190.5,286.5C 154.167,286.5 117.833,286.5 81.5,286.5C 81.5,263.833 81.5,241.167 81.5,218.5 Z"/></g>
<g><path style="opacity:1" fill="#bfc0bf" d="M 133.5,219.5 C 137.683,218.189 142.016,218.189 146.5,219.5C 145.242,221.648 145.242,223.815 146.5,226C 146.167,226.5 145.833,227 145.5,227.5C 140.687,226.014 136.687,223.348 133.5,219.5 Z"/></g>
<g><path style="opacity:1" fill="#bfc0bf" d="M 213.5,218.5 C 240.5,218.5 267.5,218.5 294.5,218.5C 295.544,237.714 304.044,252.714 320,263.5C 320.772,263.355 321.439,263.022 322,262.5C 322.678,259.697 323.844,257.197 325.5,255C 331.289,252.509 337.289,251.509 343.5,252C 346.873,252.101 349.373,253.601 351,256.5C 353.359,260.668 354.192,265.001 353.5,269.5C 347.61,266.053 341.276,264.053 334.5,263.5C 323.353,264.731 312.186,265.731 301,266.5C 290.135,268.237 282.468,264.237 278,254.5C 277.048,247.638 278.882,241.638 283.5,236.5C 271.876,235.939 265.376,241.606 264,253.5C 262.955,261.586 265.455,268.42 271.5,274C 275.916,277.205 280.583,279.872 285.5,282C 296.576,284.208 306.91,282.208 316.5,276C 319.343,275.554 322.176,275.054 325,274.5C 331.185,275.921 337.352,277.421 343.5,279C 345.5,280.333 347.5,281.667 349.5,283C 348.833,284.333 347.833,285.333 346.5,286C 338.173,286.5 329.84,286.666 321.5,286.5C 320.833,283.833 320.167,281.167 319.5,278.5C 315.227,279.143 312.227,281.476 310.5,285.5C 297.846,286.666 285.18,286.833 272.5,286C 262.349,275.184 251.515,265.018 240,255.5C 235.667,248.833 231.333,242.167 227,235.5C 221.882,230.227 217.382,224.561 213.5,218.5 Z"/></g>
<g><path style="opacity:1" fill="#bfc0bf" d="M 409.5,218.5 C 414.179,218.334 418.845,218.501 423.5,219C 427.167,225.333 432.167,230.333 438.5,234C 433.824,233.89 429.491,234.89 425.5,237C 423.963,241.278 422.63,245.611 421.5,250C 426.342,250.451 430.342,248.784 433.5,245C 438.452,243.477 443.452,243.477 448.5,245C 462.142,253.492 476.142,261.492 490.5,269C 486.701,273.801 482.534,278.301 478,282.5C 477.51,283.793 477.343,285.127 477.5,286.5C 476.167,286.5 474.833,286.5 473.5,286.5C 466.649,268.223 453.316,260.39 433.5,263C 441.156,267.42 447.989,272.92 454,279.5C 455.411,281.65 456.245,283.984 456.5,286.5C 449.159,286.666 441.826,286.5 434.5,286C 425.221,278.054 416.554,269.388 408.5,260C 415.231,260.382 421.898,259.548 428.5,257.5C 425.199,254.844 421.532,252.678 417.5,251C 412.195,243.561 406.528,236.394 400.5,229.5C 404.69,226.659 407.69,222.993 409.5,218.5 Z"/></g>
<g><path style="opacity:1" fill="#bfc0bf" d="M 479.5,218.5 C 494.167,218.5 508.833,218.5 523.5,218.5C 524.263,231.967 519.763,243.301 510,252.5C 502.809,248.572 496.142,243.905 490,238.5C 484.655,232.81 481.155,226.144 479.5,218.5 Z"/></g>
<g><path style="opacity:1" fill="#bfc0bf" d="M 587.5,218.5 C 597.5,218.5 607.5,218.5 617.5,218.5C 617.5,241.167 617.5,263.833 617.5,286.5C 596.497,286.667 575.497,286.5 554.5,286C 556.853,282.558 558.02,278.725 558,274.5C 565.049,266.09 563.216,263.59 552.5,267C 548.031,270.122 545.198,274.288 544,279.5C 540.667,272.659 535.834,267.159 529.5,263C 535.342,259.246 541.009,255.246 546.5,251C 559.799,244.809 566.465,248.976 566.5,263.5C 576.825,255.709 577.158,247.209 567.5,238C 565.5,237 563.5,236 561.5,235C 567.888,231.139 574.554,227.806 581.5,225C 583.706,222.963 585.706,220.797 587.5,218.5 Z"/></g>
<g><path style="opacity:1" fill="#fed700" d="M 128.5,219.5 C 132.135,222.659 135.802,225.826 139.5,229C 141.5,229.5 143.5,230 145.5,230.5C 150.15,227.671 155.15,226.171 160.5,226C 164.534,230.219 164.201,234.219 159.5,238C 144.348,245.938 133.682,242.105 127.5,226.5C 128.223,224.218 128.557,221.884 128.5,219.5 Z"/></g>
<g><path style="opacity:1" fill="#fe0000" d="M 297.5,219.5 C 302.508,219.168 305.508,221.502 306.5,226.5C 305.734,229.552 303.734,231.219 300.5,231.5C 298.272,227.814 297.272,223.814 297.5,219.5 Z"/></g>
<g><path style="opacity:1" fill="#fe0000" d="M 333.5,219.5 C 338.876,221.585 340.376,225.252 338,230.5C 333.313,233.704 330.48,232.37 329.5,226.5C 330.071,223.687 331.404,221.354 333.5,219.5 Z"/></g>
<g><path style="opacity:1" fill="#fed700" d="M 274.5,240.5 C 275.552,240.351 276.552,240.517 277.5,241C 272.004,252.516 275.004,261.516 286.5,268C 291.287,268.929 296.12,269.429 301,269.5C 313.828,268.233 326.662,267.4 339.5,267C 344.892,268.53 349.892,270.863 354.5,274C 353.745,276.175 352.912,278.341 352,280.5C 336.821,270.375 321.321,269.542 305.5,278C 297.875,280.916 290.209,280.916 282.5,278C 279.264,275.132 275.764,272.632 272,270.5C 264.412,259.784 265.246,249.784 274.5,240.5 Z"/></g>
<g><path style="opacity:1" fill="#bfc0bf" d="M 506.5,279.5 C 510.202,281.024 513.536,283.19 516.5,286C 511.467,286.829 506.467,286.662 501.5,285.5C 503.19,283.481 504.856,281.481 506.5,279.5 Z"/></g>
<g><path style="opacity:1" fill="#0000ff" d="M 81.5,288.5 C 118.5,288.5 155.5,288.5 192.5,288.5C 192.664,291.187 192.497,293.854 192,296.5C 187.887,302.947 183.387,309.114 178.5,315C 191.336,318.845 201.836,315.345 210,304.5C 211.838,307.037 212.671,309.871 212.5,313C 212.44,319.94 210.773,326.44 207.5,332.5C 207.833,333.167 208.167,333.833 208.5,334.5C 211.773,335.585 215.106,335.752 218.5,335C 221.333,331.5 224.167,328 227,324.5C 229.137,328.477 230.971,332.477 232.5,336.5C 235.368,333.425 237.201,329.759 238,325.5C 238.667,326.167 239.333,326.833 240,327.5C 240.667,332.167 241.333,336.833 242,341.5C 245.919,343.876 249.752,346.376 253.5,349C 254.711,349.893 254.711,350.726 253.5,351.5C 249.031,353.619 244.364,354.453 239.5,354C 222.01,347.726 204.677,341.059 187.5,334C 172.567,336.608 159.734,332.774 149,322.5C 145.033,314.729 140.2,307.562 134.5,301C 126.821,295.931 118.487,292.098 109.5,289.5C 108.348,292.106 108.182,294.773 109,297.5C 111.515,301.344 114.015,305.177 116.5,309C 115.209,311.05 114.709,313.217 115,315.5C 118.024,320.731 121.857,325.231 126.5,329C 123.691,329.18 121.024,328.513 118.5,327C 115.167,326.333 111.833,326.333 108.5,327C 103.667,330.5 99.5,334.667 96,339.5C 94.359,348.938 96.859,350.105 103.5,343C 109.824,342.319 112.157,344.985 110.5,351C 111.101,352.605 112.101,353.938 113.5,355C 102.839,355.5 92.1719,355.667 81.5,355.5C 81.5,333.167 81.5,310.833 81.5,288.5 Z"/></g>
<g><path style="opacity:1" fill="#0000ff" d="M 273.5,289.5 C 285.655,288.505 297.989,288.171 310.5,288.5C 310.679,294.69 313.679,298.857 319.5,301C 324.645,300.209 329.812,300.376 335,301.5C 348.443,296.886 349.943,299.386 339.5,309C 337.33,310.586 334.996,311.92 332.5,313C 327.333,313.167 322.167,313.333 317,313.5C 309.571,313.021 302.238,313.021 295,313.5C 286.856,306.199 279.689,298.199 273.5,289.5 Z"/></g>
<g><path style="opacity:1" fill="#0000ff" d="M 437.5,288.5 C 444.5,288.5 451.5,288.5 458.5,288.5C 464.446,309.154 461.613,328.487 450,346.5C 445.627,343.979 441.127,342.645 436.5,342.5C 440.318,346.818 444.318,350.985 448.5,355C 440.841,355.5 433.174,355.666 425.5,355.5C 425.662,353.473 425.495,351.473 425,349.5C 421.64,346.125 419.974,342.125 420,337.5C 431.062,341.199 441.229,339.366 450.5,332C 443.275,329.807 437.108,325.974 432,320.5C 427.543,312.416 422.709,304.582 417.5,297C 425.421,296.76 432.087,293.927 437.5,288.5 Z"/></g>
<g><path style="opacity:1" fill="#0000ff" d="M 474.5,288.5 C 476.465,288.948 476.798,289.948 475.5,291.5C 474.614,290.675 474.281,289.675 474.5,288.5 Z"/></g>
<g><path style="opacity:1" fill="#0000ff" d="M 499.5,288.5 C 506.508,288.334 513.508,288.5 520.5,289C 526.593,293.089 532.093,297.922 537,303.5C 538.544,306.905 539.711,310.405 540.5,314C 539.833,314.667 539.167,314.667 538.5,314C 530.082,309.004 523.582,302.17 519,293.5C 518.134,301.583 519.467,309.249 523,316.5C 528.667,322.167 534.333,327.833 540,333.5C 542.689,338.89 543.689,344.557 543,350.5C 542.313,352.555 541.146,354.221 539.5,355.5C 537.563,352.56 535.896,349.394 534.5,346C 528.943,341.888 522.943,338.888 516.5,337C 518.183,343.676 521.183,349.676 525.5,355C 516.833,355.667 508.167,355.667 499.5,355C 505.984,348.853 511.317,341.853 515.5,334C 502.069,333.63 491.903,339.13 485,350.5C 483.792,348.521 482.959,346.355 482.5,344C 484.98,336.539 488.146,329.373 492,322.5C 499.667,313.833 507.333,305.167 515,296.5C 516.128,294.655 516.628,292.655 516.5,290.5C 513.396,289.136 510.396,289.302 507.5,291C 501.298,296.372 495.298,301.872 489.5,307.5C 488.432,305.813 488.599,304.146 490,302.5C 493.424,297.978 496.591,293.311 499.5,288.5 Z"/></g>
<g><path style="opacity:1" fill="#0000ff" d="M 554.5,288.5 C 575.5,288.5 596.5,288.5 617.5,288.5C 617.5,310.833 617.5,333.167 617.5,355.5C 601.5,355.5 585.5,355.5 569.5,355.5C 569.773,346.802 572.439,338.968 577.5,332C 580.128,330.374 582.461,328.374 584.5,326C 590.015,323.549 595.681,322.883 601.5,324C 595.917,313.544 587.25,309.544 575.5,312C 572.963,314.906 570.796,318.073 569,321.5C 566.207,314.041 562.54,307.041 558,300.5C 557.667,297.833 557.333,295.167 557,292.5C 555.519,291.529 554.685,290.196 554.5,288.5 Z"/></g>
<g><path style="opacity:1" fill="#fed700" d="M 111.5,293.5 C 119.512,295.673 126.845,299.173 133.5,304C 137.584,308.829 140.917,314.162 143.5,320C 137.716,320.739 132.716,319.072 128.5,315C 124.761,311.383 120.928,307.883 117,304.5C 114.454,301.14 112.621,297.474 111.5,293.5 Z"/></g>
<g><path style="opacity:1" fill="#bfc0bf" d="M 288.5,315.5 C 329.167,315.5 369.833,315.5 410.5,315.5C 410.667,345.835 410.5,376.168 410,406.5C 404.527,432.637 390.36,452.471 367.5,466C 361.668,468.666 355.668,470.833 349.5,472.5C 322.986,464.823 304.486,448.157 294,422.5C 292.131,417.228 290.465,411.894 289,406.5C 288.5,376.168 288.333,345.835 288.5,315.5 Z"/></g>
<g><path style="opacity:1" fill="#483d00" d="M 333.5,325.5 C 340.776,324.471 346.109,327.138 349.5,333.5C 353.8,325.694 360.133,323.527 368.5,327C 374.279,331.008 376.113,336.175 374,342.5C 371.998,339.113 369.165,337.613 365.5,338C 365,338.5 364.5,339 364,339.5C 363.5,351.495 363.333,363.495 363.5,375.5C 373.839,375.666 384.172,375.5 394.5,375C 396.325,373.534 396.825,371.701 396,369.5C 394.5,368 393,366.5 391.5,365C 401.444,363.09 407.111,367.256 408.5,377.5C 408.304,384.194 404.971,388.361 398.5,390C 407.713,393.6 410.546,400.1 407,409.5C 403.042,415.151 397.875,416.984 391.5,415C 394.887,412.998 396.387,410.165 396,406.5C 395.5,406 395,405.5 394.5,405C 384.172,404.5 373.839,404.334 363.5,404.5C 363.333,416.505 363.5,428.505 364,440.5C 365.466,442.325 367.299,442.825 369.5,442C 371,440.5 372.5,439 374,437.5C 376.113,443.825 374.279,448.992 368.5,453C 360.133,456.473 353.8,454.306 349.5,446.5C 345.2,454.306 338.867,456.473 330.5,453C 324.721,448.992 322.887,443.825 325,437.5C 327.002,440.887 329.835,442.387 333.5,442C 334,441.5 334.5,441 335,440.5C 335.5,428.505 335.667,416.505 335.5,404.5C 325.161,404.334 314.828,404.5 304.5,405C 302.675,406.466 302.175,408.299 303,410.5C 304.5,412 306,413.5 307.5,415C 297.556,416.91 291.889,412.744 290.5,402.5C 290.696,395.806 294.029,391.639 300.5,390C 291.287,386.4 288.454,379.9 292,370.5C 295.958,364.849 301.125,363.016 307.5,365C 304.113,367.002 302.613,369.835 303,373.5C 303.5,374 304,374.5 304.5,375C 314.828,375.5 325.161,375.666 335.5,375.5C 335.667,363.495 335.5,351.495 335,339.5C 333.534,337.675 331.701,337.175 329.5,338C 328,339.5 326.5,341 325,342.5C 322.968,334.563 325.801,328.896 333.5,325.5 Z"/></g>
<g><path style="opacity:1" fill="#fe0000" d="M 333.5,327.5 C 336.978,327.184 340.312,327.684 343.5,329C 345.869,331.57 347.869,334.404 349.5,337.5C 351.118,333.419 353.785,330.252 357.5,328C 366.269,326.464 371.436,329.964 373,338.5C 369.254,334.607 365.588,334.607 362,338.5C 361.5,351.496 361.333,364.496 361.5,377.5C 372.838,377.667 384.172,377.5 395.5,377C 399.393,373.412 399.393,369.746 395.5,366C 405.279,368.05 408.446,373.884 405,383.5C 402.226,385.797 399.392,387.964 396.5,390C 398.126,391.819 400.126,393.152 402.5,394C 408.26,400.926 407.594,407.259 400.5,413C 398.835,413.788 397.169,414.122 395.5,414C 399.393,410.254 399.393,406.588 395.5,403C 384.172,402.5 372.838,402.333 361.5,402.5C 361.333,415.504 361.5,428.504 362,441.5C 365.588,445.393 369.254,445.393 373,441.5C 370.95,451.279 365.116,454.446 355.5,451C 353.131,448.43 351.131,445.596 349.5,442.5C 347.882,446.581 345.215,449.748 341.5,452C 332.731,453.536 327.564,450.036 326,441.5C 329.746,445.393 333.412,445.393 337,441.5C 337.5,428.504 337.667,415.504 337.5,402.5C 326.162,402.333 314.828,402.5 303.5,403C 299.607,406.588 299.607,410.254 303.5,414C 293.721,411.95 290.554,406.116 294,396.5C 296.774,394.203 299.608,392.036 302.5,390C 300.874,388.181 298.874,386.848 296.5,386C 290.74,379.074 291.406,372.741 298.5,367C 300.165,366.212 301.831,365.878 303.5,366C 299.607,369.746 299.607,373.412 303.5,377C 314.828,377.5 326.162,377.667 337.5,377.5C 337.667,364.496 337.5,351.496 337,338.5C 333.412,334.607 329.746,334.607 326,338.5C 326.629,333.68 329.129,330.014 333.5,327.5 Z"/></g>
<g><path style="opacity:1" fill="#fed700" d="M 109.5,329.5 C 112.187,329.336 114.854,329.503 117.5,330C 122.286,332.62 127.286,333.453 132.5,332.5C 138.391,335.68 139.058,339.847 134.5,345C 132.801,345.958 130.967,346.458 129,346.5C 120.855,345.034 113.022,342.701 105.5,339.5C 103.029,339.795 100.863,340.795 99,342.5C 98.3333,341.833 98.3333,341.167 99,340.5C 102.704,336.964 106.204,333.298 109.5,329.5 Z"/></g>
<g><path style="opacity:1" fill="#fed700" d="M 134.5,355.5 C 145.988,358.787 147.321,364.287 138.5,372C 136.33,373.586 133.996,374.92 131.5,376C 120.475,376.022 112.975,381.188 109,391.5C 105.67,385.488 105.67,379.488 109,373.5C 116.229,365.336 124.729,359.336 134.5,355.5 Z"/></g>
<g><path style="opacity:1" fill="#bfc0bf" d="M 81.5,357.5 C 93.5046,357.333 105.505,357.5 117.5,358C 118.672,358.419 119.672,359.085 120.5,360C 113.975,363.858 108.808,369.025 105,375.5C 102.817,383.443 104.151,390.777 109,397.5C 111.254,393.993 113.254,390.327 115,386.5C 118.918,381.031 124.084,379.031 130.5,380.5C 131.482,383.326 133.482,384.66 136.5,384.5C 141.845,383.327 146.512,380.827 150.5,377C 151.759,376.018 153.092,375.685 154.5,376C 148.596,381.342 147.929,387.342 152.5,394C 153.766,394.309 154.933,394.809 156,395.5C 154.308,399.701 150.975,401.701 146,401.5C 141,401.251 136.334,399.918 132,397.5C 131.294,399.971 131.627,402.305 133,404.5C 140.198,412.936 149.365,415.769 160.5,413C 164.283,412.446 166.95,410.446 168.5,407C 174.829,407.949 179.662,405.783 183,400.5C 184.862,396.581 186.529,392.581 188,388.5C 195.348,395.183 202.015,402.517 208,410.5C 208.499,415.489 208.666,420.489 208.5,425.5C 166.167,425.5 123.833,425.5 81.5,425.5C 81.5,402.833 81.5,380.167 81.5,357.5 Z"/></g>
<g><path style="opacity:1" fill="#bfc0bf" d="M 425.5,358.5 C 434.324,357.343 443.324,357.176 452.5,358C 456.036,361.201 459.203,364.701 462,368.5C 463.602,381.749 469.768,392.249 480.5,400C 464.455,402.89 451.289,398.057 441,385.5C 438.702,389.218 438.035,393.218 439,397.5C 441.783,401.951 444.95,406.117 448.5,410C 451.036,410.339 453.536,410.839 456,411.5C 463.601,410.091 471.101,410.591 478.5,413C 484.326,416.671 489.993,420.504 495.5,424.5C 468.84,425.667 442.173,425.833 415.5,425C 412.982,421.108 411.482,416.941 411,412.5C 413.266,413.956 415.766,414.79 418.5,415C 426.54,416.49 434.54,416.49 442.5,415C 433.488,410.164 426.155,403.497 420.5,395C 421.888,392.54 422.554,389.873 422.5,387C 422.358,383.985 421.858,381.151 421,378.5C 424.933,380.478 429.1,380.978 433.5,380C 439.112,377.861 444.446,375.194 449.5,372C 442.674,369.725 436.007,367.058 429.5,364C 428.023,362.188 426.69,360.355 425.5,358.5 Z"/></g>
<g><path style="opacity:1" fill="#bfc0bf" d="M 497.5,357.5 C 507.172,357.334 516.839,357.5 526.5,358C 529.377,362.464 531.377,367.297 532.5,372.5C 526.758,384.995 519.758,396.662 511.5,407.5C 507.842,402.192 504.675,396.525 502,390.5C 500.185,388.595 498.185,386.928 496,385.5C 492.199,375.813 492.699,366.48 497.5,357.5 Z"/></g>
<g><path style="opacity:1" fill="#bfc0bf" d="M 568.5,357.5 C 584.833,357.5 601.167,357.5 617.5,357.5C 617.5,380.167 617.5,402.833 617.5,425.5C 587.826,425.833 558.159,425.5 528.5,424.5C 534.796,417.27 540.629,409.603 546,401.5C 550.167,398 554.333,394.5 558.5,391C 562.42,389.687 566.42,388.687 570.5,388C 579.833,387.667 589.167,387.333 598.5,387C 595.167,384.333 591.833,381.667 588.5,379C 580.261,374.935 571.594,373.601 562.5,375C 558.504,376.663 554.837,378.829 551.5,381.5C 550.479,380.998 550.312,380.332 551,379.5C 557.082,372.318 562.916,364.985 568.5,357.5 Z"/></g>
<g><path style="opacity:1" fill="#fe0000" d="M 412.5,374.5 C 420.18,380.182 421.846,387.182 417.5,395.5C 420.971,403.471 426.638,409.304 434.5,413C 426.754,413.038 419.087,412.205 411.5,410.5C 412.438,398.538 412.772,386.538 412.5,374.5 Z"/></g>
<g><path style="opacity:1" fill="#fed700" d="M 159.5,381.5 C 169.52,386.727 172.02,394.394 167,404.5C 165.445,407.055 163.278,408.888 160.5,410C 150.69,412.396 142.357,410.063 135.5,403C 137.169,402.878 138.835,403.212 140.5,404C 147.806,405.785 153.972,403.952 159,398.5C 161.232,393.557 160.732,388.89 157.5,384.5C 158.193,383.482 158.859,382.482 159.5,381.5 Z"/></g>
<g><path style="opacity:1" fill="#bfc0bf" d="M 221.5,401.5 C 226.221,404.614 231.055,407.614 236,410.5C 238.475,415.336 238.975,420.336 237.5,425.5C 228.161,425.666 218.827,425.5 209.5,425C 212,421.167 215.167,418 219,415.5C 221.208,411.116 222.041,406.449 221.5,401.5 Z"/></g>
<g><path style="opacity:1" fill="#bfc0bf" d="M 254.5,409.5 C 257.579,411.467 260.412,413.8 263,416.5C 263.498,419.482 263.665,422.482 263.5,425.5C 257.491,425.666 251.491,425.499 245.5,425C 250.704,421.09 253.704,415.923 254.5,409.5 Z"/></g>
<g><path style="opacity:1" fill="#bfc0bf" d="M 278.5,417.5 C 281.838,419.515 284.838,422.015 287.5,425C 283.848,425.499 280.182,425.665 276.5,425.5C 276.858,422.733 277.525,420.067 278.5,417.5 Z"/></g>
<g><path style="opacity:1" fill="#fe0000" d="M 289.5,417.5 C 291.238,419.119 291.738,421.119 291,423.5C 289.681,421.75 289.181,419.75 289.5,417.5 Z"/></g>
<g><path style="opacity:1" fill="#0000ff" d="M 81.5,427.5 C 133.982,426.844 186.315,427.51 238.5,429.5C 239.5,429 240.5,428.5 241.5,428C 248.826,427.5 256.159,427.334 263.5,427.5C 263.5,429.5 263.5,431.5 263.5,433.5C 268.357,434.162 272.023,432.329 274.5,428C 279.833,427.333 285.167,427.333 290.5,428C 291.676,429.914 292.676,429.748 293.5,427.5C 295.293,430.251 296.959,433.084 298.5,436C 268.457,437.813 238.457,440.48 208.5,444C 187.195,448.361 165.862,452.528 144.5,456.5C 135.044,457.216 131.044,453.049 132.5,444C 130.815,440.112 128.149,439.445 124.5,442C 123,442.833 121.833,444 121,445.5C 119.105,453.136 120.939,459.636 126.5,465C 131.017,468.367 136.017,470.534 141.5,471.5C 168.811,466.038 196.144,460.705 223.5,455.5C 224.696,455.846 224.696,456.346 223.5,457C 219.334,459.917 215.001,462.584 210.5,465C 199.995,466.584 189.662,468.917 179.5,472C 183.221,474.527 187.221,476.527 191.5,478C 200.213,478.798 208.88,478.464 217.5,477C 229.464,473.851 241.13,469.851 252.5,465C 258.159,463.857 263.826,463.19 269.5,463C 261.067,469.429 253.234,476.596 246,484.5C 244.69,488.07 243.857,491.737 243.5,495.5C 226.163,495.667 208.83,495.5 191.5,495C 183.173,490.188 174.173,488.521 164.5,490C 166.833,491.667 169.167,493.333 171.5,495C 144.169,495.5 116.835,495.667 89.5,495.5C 85.0522,473.034 82.3855,450.367 81.5,427.5 Z"/></g>
<g><path style="opacity:1" fill="#0000ff" d="M 416.5,427.5 C 443.502,427.333 470.502,427.5 497.5,428C 507.69,441.593 511.523,456.76 509,473.5C 484.726,491.084 462.393,488.751 442,466.5C 435.667,458.167 429.333,449.833 423,441.5C 420.548,436.932 418.382,432.265 416.5,427.5 Z"/></g>
<g><path style="opacity:1" fill="#0000ff" d="M 526.5,427.5 C 556.833,427.5 587.167,427.5 617.5,427.5C 616.614,450.367 613.948,473.034 609.5,495.5C 586.831,495.667 564.164,495.5 541.5,495C 538.113,491.947 534.447,489.28 530.5,487C 527.833,486.667 525.167,486.333 522.5,486C 526.5,480.831 529,474.997 530,468.5C 530.667,458.5 530.667,448.5 530,438.5C 526.454,435.449 525.288,431.782 526.5,427.5 Z"/></g>
<g><path style="opacity:1" fill="#fe0000" d="M 295.5,439.5 C 297.199,439.34 298.866,439.506 300.5,440C 307.462,449.296 315.462,457.63 324.5,465C 334.131,469.207 343.798,473.207 353.5,477C 346.714,477.287 343.047,480.787 342.5,487.5C 343.789,490.58 345.455,493.414 347.5,496C 350.559,496.645 353.559,497.478 356.5,498.5C 356.901,500.434 357.901,501.934 359.5,503C 353.221,502.545 346.888,502.045 340.5,501.5C 336.122,501.622 331.789,502.122 327.5,503C 322.328,506.085 317.328,509.419 312.5,513C 304.586,518.297 302.753,525.131 307,533.5C 314.667,538.833 322.333,544.167 330,549.5C 332.497,554.421 332.497,559.088 330,563.5C 327.027,554.407 320.861,548.574 311.5,546C 308.18,544.884 304.847,544.217 301.5,544C 304.667,547.833 307.833,551.667 311,555.5C 311.796,559.755 311.629,563.921 310.5,568C 315.5,574.333 321.167,580 327.5,585C 325.167,585.667 322.833,585.667 320.5,585C 317.382,583.107 314.049,581.774 310.5,581C 306.713,575.544 302.546,570.377 298,565.5C 297.541,568.93 298.541,571.93 301,574.5C 301.667,576.833 301.667,579.167 301,581.5C 296.532,587.102 293.699,593.436 292.5,600.5C 292.981,605.477 295.314,609.31 299.5,612C 295.018,613.011 291.184,611.844 288,608.5C 286.627,605.588 285.127,602.754 283.5,600C 284.211,597.204 284.878,594.37 285.5,591.5C 283.993,590.261 282.826,590.595 282,592.5C 281.759,595.289 281.092,597.956 280,600.5C 275.446,603.118 271.446,606.452 268,610.5C 267.617,616.339 267.451,622.006 267.5,627.5C 263.068,625.565 260.235,622.232 259,617.5C 259.287,611.746 259.954,606.08 261,600.5C 257.287,605.424 253.454,610.258 249.5,615C 245.215,618.661 240.215,620.661 234.5,621C 230.392,624.525 228.392,629.025 228.5,634.5C 230.02,636.662 231.02,638.995 231.5,641.5C 225.804,639.953 222.804,636.119 222.5,630C 223.492,627.012 224.492,624.012 225.5,621C 225.355,620.228 225.022,619.561 224.5,619C 226.754,617.623 228.92,616.123 231,614.5C 231.563,613.275 231.23,612.275 230,611.5C 227.305,613.694 224.472,615.694 221.5,617.5C 216.763,627.429 209.096,633.263 198.5,635C 206.937,630.626 210.437,623.792 209,614.5C 208.581,613.328 207.915,612.328 207,611.5C 201.758,616.372 195.591,619.538 188.5,621C 185.689,622.644 183.356,624.81 181.5,627.5C 180.289,624.124 180.456,620.791 182,617.5C 186.649,612.017 191.482,606.684 196.5,601.5C 196.333,601.167 196.167,600.833 196,600.5C 188.806,604.43 181.473,608.097 174,611.5C 173.5,611.167 173,610.833 172.5,610.5C 178.604,602.226 185.271,594.393 192.5,587C 189.021,586.434 186.355,587.767 184.5,591C 181.243,592.043 177.91,592.543 174.5,592.5C 174.665,589.482 174.498,586.482 174,583.5C 172.167,581.667 170.333,579.833 168.5,578C 165.5,578.333 162.5,578.667 159.5,579C 160.909,575.918 162.742,573.085 165,570.5C 167.719,571.444 170.552,571.777 173.5,571.5C 173.5,570.5 173.5,569.5 173.5,568.5C 164.649,567.742 156.316,565.242 148.5,561C 147.833,559.667 147.167,558.333 146.5,557C 148,554.167 150.167,552 153,550.5C 159.291,554.584 164.958,553.584 170,547.5C 170.923,545.966 171.423,544.299 171.5,542.5C 170.579,539.383 169.745,536.383 169,533.5C 169.333,533.167 169.667,532.833 170,532.5C 180.416,538.125 186.75,535.125 189,523.5C 189.689,522.643 190.522,521.977 191.5,521.5C 195.889,523.656 200.389,523.989 205,522.5C 205.985,524.366 206.485,526.366 206.5,528.5C 205.504,533.158 204.504,537.824 203.5,542.5C 205.588,565.392 217.588,572.892 239.5,565C 249.104,556.225 254.104,545.225 254.5,532C 250.662,523.485 247.828,514.652 246,505.5C 245.215,499.351 245.882,493.351 248,487.5C 257.581,473.915 270.081,464.082 285.5,458C 274.463,458.671 263.463,460.004 252.5,462C 239.211,467.541 225.545,471.874 211.5,475C 204.833,475.667 198.167,475.667 191.5,475C 190.167,474.333 188.833,473.667 187.5,473C 195.403,470.905 203.403,469.238 211.5,468C 217.181,464.827 222.514,461.161 227.5,457C 233.461,456.003 239.461,455.337 245.5,455C 246.337,453.989 246.67,452.822 246.5,451.5C 238.533,452.237 230.533,452.737 222.5,453C 195.268,457.913 168.102,463.08 141,468.5C 134.662,466.839 129.328,463.505 125,458.5C 123.566,454.594 123.233,450.594 124,446.5C 125.242,445.128 126.742,444.128 128.5,443.5C 127.381,455.212 132.881,460.546 145,459.5C 166.536,455.593 188.036,451.426 209.5,447C 238.233,443.5 266.9,441 295.5,439.5 Z"/></g>
<g><path style="opacity:0.127" fill="#000000" d="M 619.5,489.5 C 620.525,489.897 620.692,490.563 620,491.5C 619.536,490.906 619.369,490.239 619.5,489.5 Z"/></g>
<g><path style="opacity:1" fill="#fed700" d="M 174.5,493.5 C 174.735,492.903 175.235,492.57 176,492.5C 188.699,494.865 198.032,501.865 204,513.5C 204.667,515.5 204.667,517.5 204,519.5C 201.263,520.61 198.429,520.777 195.5,520C 190.062,515.285 186.562,509.452 185,502.5C 181.922,498.915 178.422,495.915 174.5,493.5 Z"/></g>
<g><path style="opacity:1" fill="#bfc0bf" d="M 90.5,497.5 C 119.169,497.333 147.835,497.5 176.5,498C 181.43,501.247 184.264,505.747 185,511.5C 186.697,513.699 188.197,516.032 189.5,518.5C 189.167,519.5 188.5,520.167 187.5,520.5C 182.312,517.27 177.312,513.77 172.5,510C 161.793,505.322 151.126,505.488 140.5,510.5C 147.363,513.931 153.03,518.765 157.5,525C 160.295,526.3 162.961,527.8 165.5,529.5C 167.002,531.833 166.502,533.499 164,534.5C 162.107,533.804 160.274,532.97 158.5,532C 147.032,528.788 136.198,530.288 126,536.5C 123.97,539.226 122.47,542.226 121.5,545.5C 121.833,546.167 122.167,546.833 122.5,547.5C 131.973,544.628 141.306,545.128 150.5,549C 141.859,554.147 141.526,559.481 149.5,565C 136.154,565.833 122.821,565.666 109.5,564.5C 100.528,542.917 94.1948,520.584 90.5,497.5 Z"/></g>
<g><path style="opacity:1" fill="#bfc0bf" d="M 195.5,498.5 C 210.991,497.504 226.658,497.17 242.5,497.5C 242.832,509.834 245.832,521.501 251.5,532.5C 250.971,543.092 247.304,552.425 240.5,560.5C 232.916,564.713 224.916,565.547 216.5,563C 208.999,558.54 205.666,551.873 206.5,543C 207.739,538.212 208.739,533.379 209.5,528.5C 209.582,525.243 208.582,522.409 206.5,520C 207.602,517.599 207.769,515.099 207,512.5C 203.865,507.211 200.031,502.544 195.5,498.5 Z"/></g>
<g><path style="opacity:1" fill="#bfc0bf" d="M 543.5,498.5 C 564.994,497.503 586.66,497.169 608.5,497.5C 604.805,520.584 598.472,542.917 589.5,564.5C 559.833,565.833 530.167,565.833 500.5,564.5C 498.694,559.916 497.194,555.249 496,550.5C 493.463,547.628 490.63,545.128 487.5,543C 490.554,540.806 493.888,539.139 497.5,538C 491.852,533.343 485.518,530.009 478.5,528C 470.833,517.667 461.833,508.667 451.5,501C 452.833,500.333 454.167,500.333 455.5,501C 459.593,503.379 463.926,505.212 468.5,506.5C 481.454,503.851 494.454,502.517 507.5,502.5C 521.93,503.138 533.097,509.472 541,521.5C 544.586,528.592 547.586,535.925 550,543.5C 557.171,531.48 557.171,519.48 550,507.5C 547.812,504.433 545.645,501.433 543.5,498.5 Z"/></g>
<g><path style="opacity:1" fill="#bfc0bf" d="M 374.5,503.5 C 375.693,503.97 376.36,504.97 376.5,506.5C 375.192,513.449 372.025,519.449 367,524.5C 365.069,528.793 363.236,533.126 361.5,537.5C 363.323,546.802 365.657,555.969 368.5,565C 356.838,565.5 345.171,565.667 333.5,565.5C 336.486,557.266 334.819,550.099 328.5,544C 322.249,540.292 316.083,536.459 310,532.5C 307.064,528.09 307.064,523.756 310,519.5C 318.188,510.322 328.354,505.322 340.5,504.5C 351.173,506.339 361.84,506.506 372.5,505C 373.416,504.722 374.082,504.222 374.5,503.5 Z"/></g>
<g><path style="opacity:1" fill="#fed700" d="M 151.5,509.5 C 158.514,508.805 165.181,509.972 171.5,513C 175.744,516.254 180.077,519.421 184.5,522.5C 185.182,531.354 181.182,534.187 172.5,531C 168.102,527.606 163.435,524.606 158.5,522C 155.659,517.993 152.325,514.493 148.5,511.5C 149.602,510.824 150.602,510.158 151.5,509.5 Z"/></g>
<g><path style="opacity:1" fill="#bfc0bf" d="M 400.5,527.5 C 402.253,535.599 404.753,543.599 408,551.5C 411.118,556.286 414.618,560.786 418.5,565C 411.842,565.5 405.175,565.666 398.5,565.5C 397.955,557.942 396.955,550.442 395.5,543C 396.694,537.755 398.361,532.588 400.5,527.5 Z"/></g>
<g><path style="opacity:1" fill="#fed700" d="M 136.5,534.5 C 146.886,533.465 156.886,534.798 166.5,538.5C 169.199,541.903 168.866,545.07 165.5,548C 163.275,549.131 160.942,549.964 158.5,550.5C 155.551,548.07 152.218,546.237 148.5,545C 141.273,543.221 133.94,542.054 126.5,541.5C 129.244,538.144 132.577,535.811 136.5,534.5 Z"/></g>
<g><path style="opacity:1" fill="#bfc0bf" d="M 383.5,544.5 C 386.559,549.613 389.392,554.947 392,560.5C 393.543,562.378 395.376,563.878 397.5,565C 392.467,565.829 387.467,565.662 382.5,564.5C 380.976,557.705 381.309,551.038 383.5,544.5 Z"/></g>
<g><path style="opacity:1" fill="#bfc0bf" d="M 310.5,550.5 C 311.251,549.427 312.251,549.26 313.5,550C 316.5,551.667 319.5,553.333 322.5,555C 324.294,558.088 325.961,561.254 327.5,564.5C 323.217,565.492 318.884,565.826 314.5,565.5C 315.546,559.643 314.213,554.643 310.5,550.5 Z"/></g>
<g><path style="opacity:1" fill="#0000ff" d="M 110.5,568.5 C 117.993,567.834 125.659,567.5 133.5,567.5C 142.558,567.392 151.558,567.892 160.5,569C 160.957,569.414 161.291,569.914 161.5,570.5C 159.333,572.83 157.666,575.497 156.5,578.5C 150.412,580.405 145.079,579.238 140.5,575C 136.081,574.78 132.247,573.28 129,570.5C 129.82,579.672 134.32,586.505 142.5,591C 154.591,595.908 166.924,597.741 179.5,596.5C 175.27,600.63 171.77,605.297 169,610.5C 167.85,612.754 167.516,615.087 168,617.5C 173.729,615.102 179.229,612.436 184.5,609.5C 184.675,612.329 183.342,613.996 180.5,614.5C 177.199,620.908 176.366,627.575 178,634.5C 181.21,631.991 184.043,629.158 186.5,626C 190.968,623.619 195.635,621.619 200.5,620C 202.609,618.859 204.442,617.359 206,615.5C 207.218,621.989 205.051,627.155 199.5,631C 197.004,632.08 194.67,633.414 192.5,635C 177.5,635.667 162.5,635.667 147.5,635C 137.971,620.786 128.804,606.286 120,591.5C 116.719,583.807 113.552,576.141 110.5,568.5 Z"/></g>
<g><path style="opacity:1" fill="#0000ff" d="M 314.5,568.5 C 316.641,567.837 318.975,567.503 321.5,567.5C 324.287,567.574 326.787,568.24 329,569.5C 329.5,569 330,568.5 330.5,568C 343.496,567.5 356.496,567.333 369.5,567.5C 372.798,584.443 368.131,598.943 355.5,611C 362.987,616.26 369.487,615.094 375,607.5C 379.356,600.789 383.189,593.789 386.5,586.5C 385.393,580.192 384.393,573.858 383.5,567.5C 396.504,567.333 409.504,567.5 422.5,568C 427,572.5 431.5,577 436,581.5C 438.76,594.424 439.093,607.424 437,620.5C 435.291,623.418 433.458,626.252 431.5,629C 427.916,631.041 424.416,633.208 421,635.5C 417.626,634.451 414.792,632.618 412.5,630C 410.833,629.667 409.167,629.333 407.5,629C 399.504,629.102 391.504,629.102 383.5,629C 378.351,625.57 372.851,624.737 367,626.5C 352.537,620.654 340.037,623.487 329.5,635C 297.167,635.667 264.833,635.667 232.5,635C 231.004,626.145 235.004,621.812 244.5,622C 249.284,619.55 253.117,616.05 256,611.5C 255.301,622.642 260.468,629.309 271.5,631.5C 272.167,631.167 272.833,630.833 273.5,630.5C 270.662,624.465 269.829,618.132 271,611.5C 274.667,608.5 278.333,605.5 282,602.5C 285.817,614.322 293.651,617.989 305.5,613.5C 303.313,611.15 300.813,609.15 298,607.5C 294.11,599.579 295.443,592.579 302,586.5C 303.562,584.043 304.562,581.376 305,578.5C 305.785,580.286 306.951,581.786 308.5,583C 312.286,584.393 315.952,586.059 319.5,588C 324.572,588.751 329.572,588.418 334.5,587C 327.01,581.674 320.343,575.508 314.5,568.5 Z"/></g>
<g><path style="opacity:1" fill="#0000ff" d="M 502.5,568.5 C 530.997,567.336 559.664,567.17 588.5,568C 585.524,575.93 582.358,583.764 579,591.5C 570.196,606.286 561.029,620.786 551.5,635C 534.837,635.5 518.17,635.667 501.5,635.5C 502.96,630.008 500.96,626.842 495.5,626C 494.304,625.346 494.304,624.846 495.5,624.5C 503.267,627.32 511.267,628.153 519.5,627C 515.659,623.492 512.159,619.659 509,615.5C 507.791,611.732 508.791,608.732 512,606.5C 512.956,596.358 509.79,587.858 502.5,581C 506.012,579.686 509.679,578.686 513.5,578C 510.256,574.25 506.589,571.083 502.5,568.5 Z"/></g>
<g><path style="opacity:1" fill="#fed700" d="M 133.5,576.5 C 138.114,577.811 142.447,579.644 146.5,582C 153.495,582.97 160.328,582.47 167,580.5C 170.826,584.113 172.66,588.613 172.5,594C 163.252,593.884 154.252,592.218 145.5,589C 139.927,586.262 135.927,582.095 133.5,576.5 Z"/></g>
<g><path style="opacity:1" fill="#0000ff" d="M 219.5,624.5 C 219.262,628.001 219.595,631.667 220.5,635.5C 216.486,635.666 212.486,635.499 208.5,635C 213.376,632.621 217.042,629.121 219.5,624.5 Z"/></g>
<g><path style="opacity:1" fill="#fed700" d="M 347.5,626.5 C 351.514,626.334 355.514,626.501 359.5,627C 366.298,628.418 366.965,631.751 361.5,637C 358.533,638.7 355.367,639.867 352,640.5C 345.736,638.079 339.236,636.579 332.5,636C 336.618,631.283 341.618,628.117 347.5,626.5 Z"/></g>
<g><path style="opacity:1" fill="#bfc0bf" d="M 149.5,638.5 C 173.391,637.662 197.391,637.495 221.5,638C 224.811,643.943 229.478,645.943 235.5,644C 234.983,641.923 234.316,639.923 233.5,638C 264.833,637.333 296.167,637.333 327.5,638C 327.167,638.333 326.833,638.667 326.5,639C 332.863,639.391 339.197,640.058 345.5,641C 348.952,641.892 351.952,643.558 354.5,646C 341.196,651.61 333.696,661.444 332,675.5C 337.706,674.363 343.206,672.53 348.5,670C 353.848,668.827 359.182,668.66 364.5,669.5C 364.709,670.086 365.043,670.586 365.5,671C 357.888,677.889 355.388,686.389 358,696.5C 359.069,699.208 360.236,701.875 361.5,704.5C 311.503,705.667 261.503,705.833 211.5,705C 188.566,684.901 167.9,662.735 149.5,638.5 Z"/></g>
<g><path style="opacity:1" fill="#bfc0bf" d="M 499.5,637.5 C 516.17,637.333 532.837,637.5 549.5,638C 531.238,662.594 510.571,684.927 487.5,705C 462.502,705.5 437.502,705.667 412.5,705.5C 412.838,703.146 413.338,700.813 414,698.5C 416.545,697.478 419.045,696.312 421.5,695C 425.714,690.454 429.547,685.621 433,680.5C 433.636,686.531 434.47,692.531 435.5,698.5C 441.666,692.487 446.499,685.487 450,677.5C 452.098,685.362 456.431,691.695 463,696.5C 463.333,691.167 463.667,685.833 464,680.5C 470.723,674.369 474.723,667.036 476,658.5C 480.887,664.864 487.387,668.531 495.5,669.5C 495.522,663.798 494.522,658.298 492.5,653C 496.078,648.447 498.411,643.28 499.5,637.5 Z"/></g>
<g><path style="opacity:1" fill="#fed700" d="M 355.5,648.5 C 359.979,648.536 364.312,649.369 368.5,651C 373.188,656.869 372.188,661.536 365.5,665C 355.312,665.035 345.646,667.201 336.5,671.5C 336.167,671.167 335.833,670.833 335.5,670.5C 336.726,667.048 338.226,663.715 340,660.5C 344.781,655.871 349.948,651.871 355.5,648.5 Z"/></g>
<g><path style="opacity:1" fill="#fed700" d="M 375.5,668.5 C 382.333,667.63 385.166,670.63 384,677.5C 380.241,679.825 376.074,681.325 371.5,682C 366.357,687.016 363.523,693.183 363,700.5C 356.972,685.588 361.139,674.921 375.5,668.5 Z"/></g>
<g><path style="opacity:1" fill="#bfc0bf" d="M 372.5,684.5 C 377.003,693.088 383.503,694.754 392,689.5C 392.953,691.455 394.287,693.122 396,694.5C 396.635,696.635 396.301,698.635 395,700.5C 392.246,702.127 389.412,703.627 386.5,705C 378.833,705.667 371.167,705.667 363.5,705C 366.31,700.24 368.143,695.074 369,689.5C 370.176,687.804 371.343,686.138 372.5,684.5 Z"/></g>
<g><path style="opacity:1" fill="#fed700" d="M 404.5,686.5 C 406.722,686.178 408.556,686.845 410,688.5C 412.864,694.619 412.198,700.619 408,706.5C 399.99,711.302 391.49,712.469 382.5,710C 387.737,708.048 392.737,705.548 397.5,702.5C 399.134,698.298 400.301,693.965 401,689.5C 402.145,688.364 403.312,687.364 404.5,686.5 Z"/></g>
<g><path style="opacity:1" fill="#0000ff" d="M 214.5,708.5 C 267.665,707.335 320.998,707.168 374.5,708C 386.388,716.503 398.388,716.503 410.5,708C 435.167,707.333 459.833,707.333 484.5,708C 457.783,729.202 428.116,745.536 395.5,757C 380.192,761.936 364.858,766.77 349.5,771.5C 314.23,762.189 280.563,749.023 248.5,732C 236.892,724.379 225.559,716.546 214.5,708.5 Z"/></g>
</svg>
