<?xml version="1.0" encoding="UTF-8"?>
<!DOCTYPE svg PUBLIC "-//W3C//DTD SVG 1.1//EN" "http://www.w3.org/Graphics/SVG/1.1/DTD/svg11.dtd">
<svg xmlns="http://www.w3.org/2000/svg" version="1.1" width="700px" height="850px" style="shape-rendering:geometricPrecision; text-rendering:geometricPrecision; image-rendering:optimizeQuality; fill-rule:evenodd; clip-rule:evenodd" xmlns:xlink="http://www.w3.org/1999/xlink">
<g><path style="opacity:1" fill="#483d00" d="M 76.5,74.5 C 258.5,74.5 440.5,74.5 622.5,74.5C 622.667,199.167 622.5,323.834 622,448.5C 616.593,496.127 604.927,542.127 587,586.5C 560.17,635.918 525.337,679.084 482.5,716C 451.746,738.544 418.079,755.544 381.5,767C 374.105,769.132 366.772,771.465 359.5,774C 352.833,776 346.167,776 339.5,774C 307.673,764.415 277.006,752.082 247.5,737C 222.337,721.187 199.504,702.354 179,680.5C 168.373,667.538 157.373,654.871 146,642.5C 134.177,624.199 122.844,605.532 112,586.5C 94.0733,542.127 82.4067,496.127 77,448.5C 76.5,323.834 76.3333,199.167 76.5,74.5 Z"/></g>
<g><path style="opacity:1" fill="#fe0000" d="M 81.5,79.5 C 260.167,79.5 438.833,79.5 617.5,79.5C 617.5,152.5 617.5,225.5 617.5,298.5C 438.833,298.5 260.167,298.5 81.5,298.5C 81.5,225.5 81.5,152.5 81.5,79.5 Z"/></g>
<g><path style="opacity:1" fill="#fed700" d="M 81.5,302.5 C 260.167,302.5 438.833,302.5 617.5,302.5C 617.963,353.193 617.463,403.859 616,454.5C 610.675,502.14 598.341,547.807 579,591.5C 553.506,636.95 521.006,676.784 481.5,711C 455.274,730.453 426.607,745.786 395.5,757C 380.192,761.936 364.858,766.77 349.5,771.5C 314.23,762.189 280.563,749.023 248.5,732C 224.677,717.526 203.177,700.026 184,679.5C 168.166,662.01 153.499,643.677 140,624.5C 133.585,613.334 126.918,602.334 120,591.5C 100.659,547.807 88.3252,502.14 83,454.5C 81.5372,403.859 81.0372,353.193 81.5,302.5 Z"/></g>
</svg>
