<?xml version="1.0" encoding="UTF-8" standalone="no"?>
<!-- Created with Inkscape (http://www.inkscape.org/) -->
<svg xmlns:dc="http://purl.org/dc/elements/1.1/" xmlns:cc="http://creativecommons.org/ns#" xmlns:rdf="http://www.w3.org/1999/02/22-rdf-syntax-ns#" xmlns:svg="http://www.w3.org/2000/svg" xmlns="http://www.w3.org/2000/svg" xmlns:sodipodi="http://sodipodi.sourceforge.net/DTD/sodipodi-0.dtd" xmlns:inkscape="http://www.inkscape.org/namespaces/inkscape" width="352" height="467" id="svg2" version="1.1" inkscape:version="0.48.5 r10040" sodipodi:docname="Steamma Abruzzo.svg">
  <defs id="defs4"/>
  <sodipodi:namedview id="base" pagecolor="#ffffff" bordercolor="#666666" borderopacity="1.0" inkscape:pageopacity="0.0" inkscape:pageshadow="2" inkscape:zoom="1" inkscape:cx="317.61311" inkscape:cy="304.2405" inkscape:document-units="px" inkscape:current-layer="layer1" showgrid="false" inkscape:window-width="1920" inkscape:window-height="1001" inkscape:window-x="-9" inkscape:window-y="-9" inkscape:window-maximized="1"/>
  <metadata id="metadata7">
    <rdf:RDF>
      <cc:Work rdf:about="">
        <dc:format>image/svg+xml</dc:format>
        <dc:type rdf:resource="http://purl.org/dc/dcmitype/StillImage"/>
        <dc:title/>
      </cc:Work>
    </rdf:RDF>
  </metadata>
  <g inkscape:label="Livello 1" inkscape:groupmode="layer" id="layer1" transform="translate(0,-585.36218)">
    <path style="fill:#ffffff;stroke:none" d="m 347.12028,983.408 c 0,17.673 -14.32688,32 -32,32 l -108,0 c -17.67313,0 -32.00001,14.3268 -32.00001,32 0,-17.6732 -14.32688,-32 -31.99999,-32 l -110.00003,0 c -17.6731,0 -31.99998,-14.327 -31.99998,-32 l 0,-397.00012 346.00001,0 z" id="path3826-0-1-7" inkscape:connector-curvature="0" sodipodi:nodetypes="cccccccccc"/>
    <path style="fill:#1e5da8;fill-opacity:1;stroke:none" d="m 347.24528,983.783 c 0,17.673 -14.32688,32 -32,32 l -108.00001,0 c -17.67311,0 -31.99999,14.3268 -31.99999,32 0,-17.6732 -14.32689,-32 -32.00001,-32 l -110.00002,0 c -17.6731,0 -31.99998,-14.327 -31.99998,-32 l 0,-73.92497 346.00001,-253.14426 z" id="path3826-0-1-7-1" inkscape:connector-curvature="0" sodipodi:nodetypes="cccccccccc"/>
    <path style="fill:#78b82a;fill-opacity:1;stroke:none" d="m 0.05059,859.45842 272.50004,-272.50004 74.35525,0.34138 1.3249,141.76736 -286.78571,286.78578 -33.27036,-0.2098 C 9.59721,1013.1993 5.16513,1001.1111 0.92113,988.8945 z" id="path3924" inkscape:connector-curvature="0" sodipodi:nodetypes="cccccccc"/>
    <path style="fill:none;stroke:#9e8739;stroke-width:6;stroke-linecap:butt;stroke-linejoin:miter;stroke-miterlimit:4;stroke-opacity:1;stroke-dasharray:none;stroke-dashoffset:0" d="m 349,985.36227 c 0,17.67303 -14.32688,31.99993 -32,31.99993 l -108,0 c -17.67313,0 -32.00001,14.3268 -32.00001,32 0,-17.6732 -14.32687,-32 -31.99999,-32 l -110.00003,0 C 17.32688,1017.3622 3,1003.0353 3,985.36227 l 0,-397.00009 346,0 z" id="path3826-0-1" inkscape:connector-curvature="0" sodipodi:nodetypes="cccccccccc"/>
  </g>
</svg>