<?xml version="1.0" encoding="UTF-8"?>
<!DOCTYPE svg PUBLIC "-//W3C//DTD SVG 1.1//EN" "http://www.w3.org/Graphics/SVG/1.1/DTD/svg11.dtd">
<svg xmlns="http://www.w3.org/2000/svg" version="1.1" width="1022px" height="987px" style="shape-rendering:geometricPrecision; text-rendering:geometricPrecision; image-rendering:optimizeQuality; fill-rule:evenodd; clip-rule:evenodd" xmlns:xlink="http://www.w3.org/1999/xlink">
<g><path style="opacity:1" fill="#fce608" d="M 535.5,75.5 C 534.733,74.828 534.066,73.9947 533.5,73C 535.467,61.6193 536.8,50.1193 537.5,38.5C 544.15,25.8665 551.317,13.5332 559,1.5C 557.668,18.4859 556.002,35.4859 554,52.5C 547.62,60.0411 541.453,67.7078 535.5,75.5 Z"/></g>
<g><path style="opacity:1" fill="#d2ca2d" d="M 504.5,66.5 C 502.548,73.7262 500.214,80.7262 497.5,87.5C 497.719,86.325 497.386,85.325 496.5,84.5C 482.405,88.9014 468.238,93.2348 454,97.5C 453.667,96.8333 453.333,96.1667 453,95.5C 452.578,97.4257 451.411,98.4257 449.5,98.5C 463.537,76.2642 478.204,54.4308 493.5,33C 500.182,30.5516 506.682,27.7182 513,24.5C 511.618,32.6799 509.285,40.6799 506,48.5C 505.153,54.4782 504.653,60.4782 504.5,66.5 Z"/></g>
<g><path style="opacity:1" fill="#eddd1c" d="M 537.5,38.5 C 536.8,50.1193 535.467,61.6193 533.5,73C 534.066,73.9947 534.733,74.828 535.5,75.5C 518.209,95.7921 500.209,115.459 481.5,134.5C 486.384,118.606 491.717,102.94 497.5,87.5C 500.214,80.7262 502.548,73.7262 504.5,66.5C 515.519,57.1438 526.519,47.8105 537.5,38.5 Z"/></g>
<g><path style="opacity:1" fill="#cecd51" d="M 903.5,92.5 C 904.833,93.1667 904.833,93.1667 903.5,92.5 Z"/></g>
<g><path style="opacity:1" fill="#c0bc1a" d="M 497.5,87.5 C 491.717,102.94 486.384,118.606 481.5,134.5C 481.011,135.995 480.345,137.329 479.5,138.5C 479.44,137.957 479.107,137.624 478.5,137.5C 473.621,139.87 468.621,141.87 463.5,143.5C 451.783,132.781 440.449,121.781 429.5,110.5C 435.882,106.137 442.549,102.137 449.5,98.5C 451.411,98.4257 452.578,97.4257 453,95.5C 453.333,96.1667 453.667,96.8333 454,97.5C 468.238,93.2348 482.405,88.9014 496.5,84.5C 497.386,85.325 497.719,86.325 497.5,87.5 Z"/></g>
<g><path style="opacity:1" fill="#a4a512" d="M 428.5,110.5 C 424.01,121.071 419.01,131.404 413.5,141.5C 412.127,141.657 410.793,141.49 409.5,141C 407.085,137.417 403.751,135.251 399.5,134.5C 396.328,131.385 392.661,129.052 388.5,127.5C 401.798,114.702 414.965,101.702 428,88.5C 428.5,95.8258 428.666,103.159 428.5,110.5 Z"/></g>
<g><path style="opacity:1" fill="#dcb40d" d="M 903.5,93.5 C 884.167,114.5 864.833,135.5 845.5,156.5C 843.606,157.048 841.94,158.048 840.5,159.5C 827.069,172.936 813.402,185.936 799.5,198.5C 811.52,171.942 824.02,145.609 837,119.5C 858.752,109.878 880.919,101.211 903.5,93.5 Z"/></g>
<g><path style="opacity:1" fill="#ecdd23" d="M 535.5,178.5 C 538.902,160.285 541.569,141.951 543.5,123.5C 548.443,115.383 553.61,107.383 559,99.5C 559.667,115.5 559.667,131.5 559,147.5C 551.303,158.018 543.47,168.351 535.5,178.5 Z"/></g>
<g><path style="opacity:1" fill="#8da022" d="M 428.5,110.5 C 428.833,110.5 429.167,110.5 429.5,110.5C 440.449,121.781 451.783,132.781 463.5,143.5C 448.928,152.286 433.928,160.286 418.5,167.5C 412.833,167.5 407.167,167.5 401.5,167.5C 401.675,165.156 402.842,163.489 405,162.5C 406.138,158.879 406.972,155.212 407.5,151.5C 408.5,151.5 409.5,151.5 410.5,151.5C 411.492,148.177 412.492,144.844 413.5,141.5C 419.01,131.404 424.01,121.071 428.5,110.5 Z"/></g>
<g><path style="opacity:1" fill="#cdc62f" d="M 543.5,123.5 C 541.569,141.951 538.902,160.285 535.5,178.5C 535.672,179.492 535.338,180.158 534.5,180.5C 532.563,177.366 530.063,174.032 527,170.5C 518.924,162.922 511.09,155.255 503.5,147.5C 506.773,138.684 510.44,130.018 514.5,121.5C 515.959,126.124 517.292,130.791 518.5,135.5C 526.738,131.214 535.071,127.214 543.5,123.5 Z"/></g>
<g><path style="opacity:1" fill="#f3ed0f" d="M 682.5,163.5 C 666.389,167.924 650.222,172.257 634,176.5C 633.235,176.43 632.735,176.097 632.5,175.5C 644.116,168.39 655.616,161.057 667,153.5C 674.093,138.979 681.427,124.646 689,110.5C 690.091,123.849 691.258,137.182 692.5,150.5C 689.401,155.041 686.067,159.375 682.5,163.5 Z"/></g>
<g><path style="opacity:1" fill="#96b70e" d="M 388.5,127.5 C 392.661,129.052 396.328,131.385 399.5,134.5C 403.751,135.251 407.085,137.417 409.5,141C 410.793,141.49 412.127,141.657 413.5,141.5C 412.492,144.844 411.492,148.177 410.5,151.5C 409.5,151.5 408.5,151.5 407.5,151.5C 406.972,155.212 406.138,158.879 405,162.5C 402.842,163.489 401.675,165.156 401.5,167.5C 393.922,174.576 386.422,181.909 379,189.5C 382.11,168.899 385.277,148.232 388.5,127.5 Z"/></g>
<g><path style="opacity:1" fill="#96b70d" d="M 479.5,138.5 C 478.875,147.875 477.875,157.208 476.5,166.5C 480.085,185.506 483.751,204.506 487.5,223.5C 486.279,229.403 484.612,235.069 482.5,240.5C 464.315,218.966 445.649,197.633 426.5,176.5C 425.675,175.614 424.675,175.281 423.5,175.5C 422.621,172.618 420.954,170.285 418.5,168.5C 418.5,168.167 418.5,167.833 418.5,167.5C 433.928,160.286 448.928,152.286 463.5,143.5C 468.621,141.87 473.621,139.87 478.5,137.5C 479.107,137.624 479.44,137.957 479.5,138.5 Z"/></g>
<g><path style="opacity:1" fill="#c0bb0c" d="M 503.5,147.5 C 511.09,155.255 518.924,162.922 527,170.5C 530.063,174.032 532.563,177.366 534.5,180.5C 519.159,195.174 503.492,209.507 487.5,223.5C 483.751,204.506 480.085,185.506 476.5,166.5C 485.325,159.921 494.325,153.587 503.5,147.5 Z"/></g>
<g><path style="opacity:1" fill="#f4c607" d="M 845.5,156.5 C 846.915,161.079 847.915,165.745 848.5,170.5C 853.149,170.071 857.649,169.071 862,167.5C 862.167,167.833 862.333,168.167 862.5,168.5C 853.81,179.519 845.143,190.519 836.5,201.5C 810.017,221.582 783.684,241.916 757.5,262.5C 756.893,262.376 756.56,262.043 756.5,261.5C 770.42,240.242 784.753,219.242 799.5,198.5C 813.402,185.936 827.069,172.936 840.5,159.5C 841.94,158.048 843.606,157.048 845.5,156.5 Z"/></g>
<g><path style="opacity:1" fill="#dedd10" d="M 682.5,163.5 C 685.305,164.319 688.305,164.819 691.5,165C 688.209,169.748 685.042,174.581 682,179.5C 680.001,187.495 678.001,195.495 676,203.5C 663.621,212.719 651.121,221.719 638.5,230.5C 638.5,229.833 638.167,229.5 637.5,229.5C 635.297,212.487 631.964,195.82 627.5,179.5C 629.142,178.197 630.809,176.864 632.5,175.5C 632.735,176.097 633.235,176.43 634,176.5C 650.222,172.257 666.389,167.924 682.5,163.5 Z"/></g>
<g><path style="opacity:1" fill="#b4de19" d="M 418.5,168.5 C 420.954,170.285 422.621,172.618 423.5,175.5C 424.675,175.281 425.675,175.614 426.5,176.5C 445.649,197.633 464.315,218.966 482.5,240.5C 481.148,247.908 479.481,255.241 477.5,262.5C 469.224,259.029 461.224,255.029 453.5,250.5C 432.638,240.736 411.972,230.403 391.5,219.5C 400.247,202.337 409.247,185.337 418.5,168.5 Z"/></g>
<g><path style="opacity:1" fill="#c8e00f" d="M 627.5,179.5 C 631.964,195.82 635.297,212.487 637.5,229.5C 621.073,229.619 604.74,228.619 588.5,226.5C 587.914,226.709 587.414,227.043 587,227.5C 587.019,225.893 587.185,224.226 587.5,222.5C 591.799,213.236 596.633,204.236 602,195.5C 610.136,189.52 618.636,184.187 627.5,179.5 Z"/></g>
<g><path style="opacity:1" fill="#16da63" d="M 328.5,206.5 C 321.622,208.262 314.789,210.262 308,212.5C 307.235,212.43 306.735,212.097 306.5,211.5C 314.377,203.22 322.711,195.386 331.5,188C 337.859,187.169 344.193,187.336 350.5,188.5C 343.438,194.901 336.105,200.901 328.5,206.5 Z"/></g>
<g><path style="opacity:1" fill="#f8d311" d="M 836.5,201.5 C 837.815,206.095 838.815,210.761 839.5,215.5C 843.984,215.863 848.317,216.863 852.5,218.5C 843.776,230.875 835.109,243.208 826.5,255.5C 805.72,259.225 784.72,262.225 763.5,264.5C 760.496,265.088 757.663,266.088 755,267.5C 754.722,266.584 754.222,265.918 753.5,265.5C 754.026,263.77 755.026,262.436 756.5,261.5C 756.56,262.043 756.893,262.376 757.5,262.5C 783.684,241.916 810.017,221.582 836.5,201.5 Z"/></g>
<g><path style="opacity:1" fill="#0eb150" d="M 328.5,206.5 C 329.464,213.746 329.797,221.08 329.5,228.5C 328.596,229.209 328.263,230.209 328.5,231.5C 324.541,233.767 320.541,236.1 316.5,238.5C 313.568,241.223 310.902,244.223 308.5,247.5C 303.852,249.847 299.519,252.514 295.5,255.5C 295.649,256.552 295.483,257.552 295,258.5C 287.581,264.121 281.081,270.455 275.5,277.5C 274.89,276.609 274.557,275.609 274.5,274.5C 283.732,254.37 293.232,234.37 303,214.5C 304.039,213.29 305.206,212.29 306.5,211.5C 306.735,212.097 307.235,212.43 308,212.5C 314.789,210.262 321.622,208.262 328.5,206.5 Z"/></g>
<g><path style="opacity:1" fill="#f3ed11" d="M 718.5,231.5 C 710.252,232.469 701.918,232.802 693.5,232.5C 706.508,219.994 720.008,207.994 734,196.5C 729.412,208.35 724.245,220.016 718.5,231.5 Z"/></g>
<g><path style="opacity:1" fill="#dff626" d="M 884.5,222.5 C 885.833,223.167 885.833,223.167 884.5,222.5 Z"/></g>
<g><path style="opacity:1" fill="#9ece18" d="M 391.5,219.5 C 411.972,230.403 432.638,240.736 453.5,250.5C 452.127,250.343 450.793,250.51 449.5,251C 437.691,260.308 426.024,269.808 414.5,279.5C 411.124,282.878 407.457,285.878 403.5,288.5C 399.5,265.5 395.5,242.5 391.5,219.5 Z"/></g>
<g><path style="opacity:1" fill="#c6eb23" d="M 587.5,222.5 C 587.185,224.226 587.019,225.893 587,227.5C 587.414,227.043 587.914,226.709 588.5,226.5C 604.74,228.619 621.073,229.619 637.5,229.5C 638.167,229.5 638.5,229.833 638.5,230.5C 633.32,242.882 628.653,255.549 624.5,268.5C 617.207,266.62 609.874,264.787 602.5,263C 586.392,257.814 570.392,252.647 554.5,247.5C 560.08,239.747 566.246,232.413 573,225.5C 576.41,225.984 580.076,226.65 584,227.5C 585.03,225.654 586.196,223.987 587.5,222.5 Z"/></g>
<g><path style="opacity:1" fill="#dddd11" d="M 718.5,231.5 C 723.37,232.804 728.37,232.804 733.5,231.5C 732.706,238.388 730.539,245.055 727,251.5C 719.572,258.422 712.739,265.756 706.5,273.5C 704.143,273.337 701.81,273.503 699.5,274C 687.551,277.726 675.551,281.559 663.5,285.5C 662.893,285.376 662.56,285.043 662.5,284.5C 672.345,266.8 682.678,249.467 693.5,232.5C 701.918,232.802 710.252,232.469 718.5,231.5 Z"/></g>
<g><path style="opacity:1" fill="#189f52" d="M 329.5,228.5 C 335.798,234.297 341.965,240.297 348,246.5C 348.001,255.492 347.667,264.492 347,273.5C 343.882,278.286 340.382,282.786 336.5,287C 336.728,287.399 337.062,287.565 337.5,287.5C 337.5,288.833 337.5,290.167 337.5,291.5C 335.896,290.713 335.229,289.38 335.5,287.5C 323.101,286.575 310.768,285.075 298.5,283C 291.995,281.319 285.495,279.819 279,278.5C 277.687,279.287 276.52,278.954 275.5,277.5C 281.081,270.455 287.581,264.121 295,258.5C 295.483,257.552 295.649,256.552 295.5,255.5C 299.519,252.514 303.852,249.847 308.5,247.5C 310.902,244.223 313.568,241.223 316.5,238.5C 320.541,236.1 324.541,233.767 328.5,231.5C 328.263,230.209 328.596,229.209 329.5,228.5 Z"/></g>
<g><path style="opacity:1" fill="#b6da2e" d="M 554.5,247.5 C 570.392,252.647 586.392,257.814 602.5,263C 609.874,264.787 617.207,266.62 624.5,268.5C 625.383,271.704 627.05,274.371 629.5,276.5C 601.906,287.359 574.239,297.359 546.5,306.5C 548.44,286.596 551.106,266.93 554.5,247.5 Z"/></g>
<g><path style="opacity:1" fill="#5ed015" d="M 470.5,305.5 C 451.403,297.954 432.736,289.288 414.5,279.5C 426.024,269.808 437.691,260.308 449.5,251C 450.793,250.51 452.127,250.343 453.5,250.5C 461.224,255.029 469.224,259.029 477.5,262.5C 484.13,257.549 490.796,252.549 497.5,247.5C 497.833,248.5 498.167,249.5 498.5,250.5C 497.779,257.48 497.279,264.48 497,271.5C 496.529,273.246 495.862,274.913 495,276.5C 486.593,286.064 478.426,295.731 470.5,305.5 Z"/></g>
<g><path style="opacity:1" fill="#e5d90b" d="M 884.5,223.5 C 868.171,253.501 850.838,282.834 832.5,311.5C 829.69,300.213 826.023,289.213 821.5,278.5C 842.204,259.794 863.204,241.461 884.5,223.5 Z"/></g>
<g><path style="opacity:1" fill="#dedd10" d="M 826.5,255.5 C 807.833,269.833 789.167,284.167 770.5,298.5C 768.442,300.927 766.609,303.593 765,306.5C 755.566,326.701 745.733,346.367 735.5,365.5C 728.25,344.921 721.25,324.254 714.5,303.5C 712.493,296.487 710.493,289.487 708.5,282.5C 723.818,277.398 738.818,271.731 753.5,265.5C 754.222,265.918 754.722,266.584 755,267.5C 757.663,266.088 760.496,265.088 763.5,264.5C 784.72,262.225 805.72,259.225 826.5,255.5 Z"/></g>
<g><path style="opacity:1" fill="#0abc99" d="M 204.5,306.5 C 201.369,309.129 198.369,311.962 195.5,315C 191.727,316.93 188.06,319.097 184.5,321.5C 171.367,332 158.367,342.333 145.5,352.5C 158.385,322.73 170.718,292.73 182.5,262.5C 190.46,259.235 198.46,256.069 206.5,253C 207.635,252.251 208.635,252.417 209.5,253.5C 205.126,262.077 201.459,270.91 198.5,280C 200.739,288.787 202.739,297.621 204.5,306.5 Z"/></g>
<g><path style="opacity:1" fill="#b6da2e" d="M 706.5,273.5 C 706.858,276.689 707.525,279.689 708.5,282.5C 710.493,289.487 712.493,296.487 714.5,303.5C 705.586,317.089 696.252,330.422 686.5,343.5C 685.325,343.719 684.325,343.386 683.5,342.5C 682.002,340.146 680.668,337.813 679.5,335.5C 678.178,335.67 677.011,335.337 676,334.5C 674,331.5 672,328.5 670,325.5C 660.917,316.756 652.584,307.422 645,297.5C 641.641,295.626 638.808,293.293 636.5,290.5C 636.5,289.833 636.833,289.5 637.5,289.5C 645.113,288.405 652.78,287.572 660.5,287C 661.066,286.005 661.733,285.172 662.5,284.5C 662.56,285.043 662.893,285.376 663.5,285.5C 675.551,281.559 687.551,277.726 699.5,274C 701.81,273.503 704.143,273.337 706.5,273.5 Z"/></g>
<g><path style="opacity:1" fill="#1c8e50" d="M 274.5,274.5 C 274.557,275.609 274.89,276.609 275.5,277.5C 276.52,278.954 277.687,279.287 279,278.5C 285.495,279.819 291.995,281.319 298.5,283C 310.768,285.075 323.101,286.575 335.5,287.5C 335.229,289.38 335.896,290.713 337.5,291.5C 344.1,301.312 350.267,311.312 356,321.5C 357.039,322.71 358.206,323.71 359.5,324.5C 359.5,325.167 359.5,325.833 359.5,326.5C 352.842,335.138 346.175,343.805 339.5,352.5C 328.319,343.878 316.319,336.544 303.5,330.5C 303.5,329.5 303.5,328.5 303.5,327.5C 300.951,327.613 298.618,326.946 296.5,325.5C 283.585,316.955 270.252,308.955 256.5,301.5C 254.097,299.764 252.097,297.764 250.5,295.5C 258.915,288.961 266.915,281.961 274.5,274.5 Z"/></g>
<g><path style="opacity:1" fill="#9ece18" d="M 637.5,289.5 C 636.833,289.5 636.5,289.833 636.5,290.5C 634.876,290.36 633.71,291.027 633,292.5C 630.099,297.346 625.599,301.18 619.5,304C 618.663,305.011 618.33,306.178 618.5,307.5C 617.5,307.5 616.5,307.5 615.5,307.5C 613.739,311.629 611.073,315.295 607.5,318.5C 606.311,319.429 604.978,319.762 603.5,319.5C 603.473,321.199 602.806,322.533 601.5,323.5C 583.113,340.554 565.446,358.221 548.5,376.5C 539.167,367.5 529.833,358.5 520.5,349.5C 529.202,335.144 537.868,320.811 546.5,306.5C 574.239,297.359 601.906,287.359 629.5,276.5C 636.054,272.972 642.554,269.305 649,265.5C 645.856,273.376 641.689,280.876 636.5,288C 637.056,288.383 637.389,288.883 637.5,289.5 Z"/></g>
<g><path style="opacity:1" fill="#4db20c" d="M 414.5,279.5 C 432.736,289.288 451.403,297.954 470.5,305.5C 470.833,306.167 471.167,306.833 471.5,307.5C 470.828,308.267 469.995,308.934 469,309.5C 462.429,332.368 455.596,355.035 448.5,377.5C 430.186,360.168 412.519,342.168 395.5,323.5C 394.264,322.754 392.93,322.421 391.5,322.5C 389.82,318.542 386.986,315.542 383,313.5C 382.517,312.552 382.351,311.552 382.5,310.5C 389.5,303.167 396.5,295.833 403.5,288.5C 407.457,285.878 411.124,282.878 414.5,279.5 Z"/></g>
<g><path style="opacity:1" fill="#16a21d" d="M 359.5,324.5 C 358.206,323.71 357.039,322.71 356,321.5C 350.267,311.312 344.1,301.312 337.5,291.5C 337.5,290.167 337.5,288.833 337.5,287.5C 342.216,286.992 346.882,286.158 351.5,285C 356,279.167 360.5,273.333 365,267.5C 365.333,262.833 365.667,258.167 366,253.5C 367.556,258.278 369.39,262.945 371.5,267.5C 366.215,286.26 362.215,305.26 359.5,324.5 Z"/></g>
<g><path style="opacity:1" fill="#f3ec0c" d="M 821.5,278.5 C 826.023,289.213 829.69,300.213 832.5,311.5C 811.691,329.469 790.691,347.302 769.5,365C 758.199,366.232 746.866,367.065 735.5,367.5C 735.5,366.833 735.5,366.167 735.5,365.5C 745.733,346.367 755.566,326.701 765,306.5C 766.609,303.593 768.442,300.927 770.5,298.5C 787.612,292.111 804.612,285.444 821.5,278.5 Z"/></g>
<g><path style="opacity:1" fill="#add115" d="M 636.5,290.5 C 638.808,293.293 641.641,295.626 645,297.5C 652.584,307.422 660.917,316.756 670,325.5C 672,328.5 674,331.5 676,334.5C 677.011,335.337 678.178,335.67 679.5,335.5C 680.668,337.813 682.002,340.146 683.5,342.5C 684.325,343.386 685.325,343.719 686.5,343.5C 684.926,345.643 683.592,347.976 682.5,350.5C 681.675,351.386 680.675,351.719 679.5,351.5C 678.137,357.201 675.137,361.867 670.5,365.5C 665.798,374.084 660.631,382.417 655,390.5C 650.034,397.49 644.867,404.157 639.5,410.5C 628.124,381.743 616.124,353.077 603.5,324.5C 603.043,323.702 602.376,323.369 601.5,323.5C 602.806,322.533 603.473,321.199 603.5,319.5C 604.978,319.762 606.311,319.429 607.5,318.5C 611.073,315.295 613.739,311.629 615.5,307.5C 616.5,307.5 617.5,307.5 618.5,307.5C 618.33,306.178 618.663,305.011 619.5,304C 625.599,301.18 630.099,297.346 633,292.5C 633.71,291.027 634.876,290.36 636.5,290.5 Z"/></g>
<g><path style="opacity:1" fill="#079176" d="M 250.5,295.5 C 252.097,297.764 254.097,299.764 256.5,301.5C 270.252,308.955 283.585,316.955 296.5,325.5C 298.618,326.946 300.951,327.613 303.5,327.5C 303.5,328.5 303.5,329.5 303.5,330.5C 299.936,333.538 295.936,336.038 291.5,338C 289.254,339.257 287.921,341.09 287.5,343.5C 276.691,348.65 266.691,355.15 257.5,363C 249.564,366.429 242.564,371.262 236.5,377.5C 235.325,377.719 234.325,377.386 233.5,376.5C 230.831,373.388 228.165,370.388 225.5,367.5C 227.342,348.095 229.676,328.762 232.5,309.5C 238.214,304.451 244.214,299.785 250.5,295.5 Z"/></g>
<g><path style="opacity:1" fill="#1ca089" d="M 204.5,306.5 C 213.834,307.5 223.167,308.5 232.5,309.5C 229.676,328.762 227.342,348.095 225.5,367.5C 224.508,367.328 223.842,367.662 223.5,368.5C 202.41,378.378 181.077,387.711 159.5,396.5C 159.04,384.144 158.207,371.811 157,359.5C 153.364,357.266 149.531,355.432 145.5,354C 144.262,353.31 144.262,352.81 145.5,352.5C 158.367,342.333 171.367,332 184.5,321.5C 188.06,319.097 191.727,316.93 195.5,315C 198.369,311.962 201.369,309.129 204.5,306.5 Z"/></g>
<g><path style="opacity:1" fill="#5ed015" d="M 462.5,384.5 C 455.833,392.167 449.167,399.833 442.5,407.5C 441.624,407.631 440.957,407.298 440.5,406.5C 443.437,396.945 446.103,387.278 448.5,377.5C 455.596,355.035 462.429,332.368 469,309.5C 469.995,308.934 470.828,308.267 471.5,307.5C 474.757,308.462 477.757,309.962 480.5,312C 482.754,313.15 485.087,313.484 487.5,313C 499.667,305.5 511.833,298 524,290.5C 515.679,308.145 507.013,325.811 498,343.5C 486.331,357.334 474.497,371.001 462.5,384.5 Z"/></g>
<g><path style="opacity:1" fill="#9eb713" d="M 714.5,303.5 C 721.25,324.254 728.25,344.921 735.5,365.5C 735.5,366.167 735.5,366.833 735.5,367.5C 711.167,384.833 686.833,402.167 662.5,419.5C 653.783,417.113 645.45,414.113 637.5,410.5C 638.167,410.5 638.833,410.5 639.5,410.5C 644.867,404.157 650.034,397.49 655,390.5C 660.631,382.417 665.798,374.084 670.5,365.5C 675.137,361.867 678.137,357.201 679.5,351.5C 680.675,351.719 681.675,351.386 682.5,350.5C 683.592,347.976 684.926,345.643 686.5,343.5C 696.252,330.422 705.586,317.089 714.5,303.5 Z"/></g>
<g><path style="opacity:1" fill="#4ca016" d="M 382.5,310.5 C 382.351,311.552 382.517,312.552 383,313.5C 386.986,315.542 389.82,318.542 391.5,322.5C 392.93,322.421 394.264,322.754 395.5,323.5C 412.519,342.168 430.186,360.168 448.5,377.5C 446.103,387.278 443.437,396.945 440.5,406.5C 440.957,407.298 441.624,407.631 442.5,407.5C 438.446,411.912 434.613,416.579 431,421.5C 429.549,423.464 427.716,424.797 425.5,425.5C 407.203,404.535 388.537,383.868 369.5,363.5C 370.953,355.189 372.953,347.022 375.5,339C 374.177,338.184 373.511,337.017 373.5,335.5C 374.825,336.953 375.658,336.619 376,334.5C 377.867,326.287 380.034,318.287 382.5,310.5 Z"/></g>
<g><path style="opacity:1" fill="#067a3d" d="M 303.5,330.5 C 316.319,336.544 328.319,343.878 339.5,352.5C 336.695,358.326 333.029,363.659 328.5,368.5C 318.862,382.416 309.195,396.416 299.5,410.5C 298.335,411.584 297.002,412.417 295.5,413C 295.728,413.399 296.062,413.565 296.5,413.5C 296.5,413.833 296.5,414.167 296.5,414.5C 295.508,414.328 294.842,414.662 294.5,415.5C 288.223,417.59 282.223,420.257 276.5,423.5C 276.649,422.448 276.483,421.448 276,420.5C 264.363,407.862 252.363,395.529 240,383.5C 238.179,381.854 237.013,379.854 236.5,377.5C 242.564,371.262 249.564,366.429 257.5,363C 266.691,355.15 276.691,348.65 287.5,343.5C 287.921,341.09 289.254,339.257 291.5,338C 295.936,336.038 299.936,333.538 303.5,330.5 Z"/></g>
<g><path style="opacity:1" fill="#b5d92e" d="M 601.5,323.5 C 602.376,323.369 603.043,323.702 603.5,324.5C 616.124,353.077 628.124,381.743 639.5,410.5C 638.833,410.5 638.167,410.5 637.5,410.5C 608.628,399.568 579.628,388.901 550.5,378.5C 549.5,378.167 548.833,377.5 548.5,376.5C 565.446,358.221 583.113,340.554 601.5,323.5 Z"/></g>
<g><path style="opacity:1" fill="#12a21a" d="M 359.5,326.5 C 364.506,329.001 369.173,332.001 373.5,335.5C 373.511,337.017 374.177,338.184 375.5,339C 372.953,347.022 370.953,355.189 369.5,363.5C 364.676,379.877 360.676,396.543 357.5,413.5C 337.167,413.5 316.833,413.5 296.5,413.5C 296.062,413.565 295.728,413.399 295.5,413C 297.002,412.417 298.335,411.584 299.5,410.5C 309.195,396.416 318.862,382.416 328.5,368.5C 333.029,363.659 336.695,358.326 339.5,352.5C 346.175,343.805 352.842,335.138 359.5,326.5 Z"/></g>
<g><path style="opacity:1" fill="#3c7b13" d="M 520.5,349.5 C 529.833,358.5 539.167,367.5 548.5,376.5C 548.833,377.5 549.5,378.167 550.5,378.5C 550.369,379.239 550.536,379.906 551,380.5C 572.803,401.226 594.303,422.559 615.5,444.5C 583.39,441.3 551.39,437.133 519.5,432C 514.511,431.501 509.511,431.334 504.5,431.5C 509.367,403.688 514.7,376.354 520.5,349.5 Z"/></g>
<g><path style="opacity:1" fill="#2a6605" d="M 520.5,349.5 C 514.7,376.354 509.367,403.688 504.5,431.5C 503.377,437.471 501.877,443.471 500,449.5C 498.685,456.009 497.851,462.342 497.5,468.5C 496.833,468.167 496.167,467.833 495.5,467.5C 472.408,453.07 449.075,439.07 425.5,425.5C 427.716,424.797 429.549,423.464 431,421.5C 434.613,416.579 438.446,411.912 442.5,407.5C 449.167,399.833 455.833,392.167 462.5,384.5C 481.816,372.86 501.149,361.194 520.5,349.5 Z"/></g>
<g><path style="opacity:1" fill="#0e5b10" d="M 369.5,363.5 C 388.537,383.868 407.203,404.535 425.5,425.5C 418.072,425.151 410.738,424.151 403.5,422.5C 388.876,419.618 374.209,416.951 359.5,414.5C 359.158,413.662 358.492,413.328 357.5,413.5C 360.676,396.543 364.676,379.877 369.5,363.5 Z"/></g>
<g><path style="opacity:1" fill="#268156" d="M 223.5,368.5 C 223.803,380.744 222.303,392.744 219,404.5C 217.74,418.914 215.907,433.247 213.5,447.5C 213.585,449.333 214.252,450.666 215.5,451.5C 204.602,457.406 193.269,462.739 181.5,467.5C 175.348,446.268 168.848,424.934 162,403.5C 161.26,401.681 160.093,400.348 158.5,399.5C 159.11,398.609 159.443,397.609 159.5,396.5C 181.077,387.711 202.41,378.378 223.5,368.5 Z"/></g>
<g><path style="opacity:1" fill="#0a8d4c" d="M 225.5,367.5 C 228.165,370.388 230.831,373.388 233.5,376.5C 234.325,377.386 235.325,377.719 236.5,377.5C 237.013,379.854 238.179,381.854 240,383.5C 252.363,395.529 264.363,407.862 276,420.5C 276.483,421.448 276.649,422.448 276.5,423.5C 256.167,432.833 235.833,442.167 215.5,451.5C 214.252,450.666 213.585,449.333 213.5,447.5C 215.907,433.247 217.74,418.914 219,404.5C 222.303,392.744 223.803,380.744 223.5,368.5C 223.842,367.662 224.508,367.328 225.5,367.5 Z"/></g>
<g><path style="opacity:1" fill="#8b9a13" d="M 550.5,378.5 C 579.628,388.901 608.628,399.568 637.5,410.5C 645.45,414.113 653.783,417.113 662.5,419.5C 655.301,429.241 647.634,438.574 639.5,447.5C 631.283,447.14 623.283,446.14 615.5,444.5C 594.303,422.559 572.803,401.226 551,380.5C 550.536,379.906 550.369,379.239 550.5,378.5 Z"/></g>
<g><path style="opacity:1" fill="#9b8319" d="M 776.5,415.5 C 769.238,422.419 763.571,430.419 759.5,439.5C 758.325,439.281 757.325,439.614 756.5,440.5C 749.475,450.185 742.475,459.852 735.5,469.5C 733.875,471.03 732.041,472.363 730,473.5C 723.14,474.461 716.306,475.461 709.5,476.5C 712.006,465.474 714.673,454.474 717.5,443.5C 735.327,425.84 753.327,408.34 771.5,391C 778.491,389.576 785.491,389.41 792.5,390.5C 786.896,398.72 781.563,407.054 776.5,415.5 Z"/></g>
<g><path style="opacity:1" fill="#089354" d="M 158.5,399.5 C 160.093,400.348 161.26,401.681 162,403.5C 168.848,424.934 175.348,446.268 181.5,467.5C 181.5,467.833 181.5,468.167 181.5,468.5C 180.833,468.5 180.5,468.833 180.5,469.5C 173.167,477.167 165.833,484.833 158.5,492.5C 155.008,489.571 151.675,486.405 148.5,483C 147.552,482.517 146.552,482.351 145.5,482.5C 145.321,480.394 144.321,478.728 142.5,477.5C 138.451,474.762 134.451,472.096 130.5,469.5C 128.933,465.266 125.933,462.266 121.5,460.5C 120.05,459.15 119.383,457.484 119.5,455.5C 117.217,455.392 115.217,454.559 113.5,453C 110.378,449.442 107.045,446.276 103.5,443.5C 113.01,442.572 122.343,440.905 131.5,438.5C 140.276,425.26 149.276,412.26 158.5,399.5 Z"/></g>
<g><path style="opacity:1" fill="#1d2dc1" d="M 359.5,414.5 C 374.209,416.951 388.876,419.618 403.5,422.5C 387.62,430.499 371.786,438.833 356,447.5C 355.5,447.833 355,448.167 354.5,448.5C 356.291,449.17 357.958,449.837 359.5,450.5C 355.727,450.263 352.06,450.763 348.5,452C 331.448,461.191 314.448,470.357 297.5,479.5C 297.5,457.833 297.5,436.167 297.5,414.5C 318.167,414.5 338.833,414.5 359.5,414.5 Z"/></g>
<g><path style="opacity:1" fill="#010101" d="M 294.5,415.5 C 294.842,414.662 295.508,414.328 296.5,414.5C 296.167,462.838 296.5,511.171 297.5,559.5C 298.107,559.376 298.44,559.043 298.5,558.5C 327.543,550.989 356.543,543.323 385.5,535.5C 412.303,528.339 438.97,521.005 465.5,513.5C 484.556,508.704 503.556,503.704 522.5,498.5C 552.35,490.204 582.35,482.538 612.5,475.5C 613.347,483.482 614.014,491.482 614.5,499.5C 619.158,498.332 623.824,497.499 628.5,497C 629.482,499.738 630.148,502.572 630.5,505.5C 632.434,525.841 634.434,546.174 636.5,566.5C 637.82,573.055 638.487,579.722 638.5,586.5C 638.911,591.338 639.578,596.005 640.5,600.5C 642.035,616.522 643.702,632.522 645.5,648.5C 645.413,653.537 645.746,658.537 646.5,663.5C 647.164,668.473 647.497,673.473 647.5,678.5C 639.423,680.186 631.423,682.186 623.5,684.5C 609.484,688.504 595.484,692.504 581.5,696.5C 565.501,700.833 549.501,705.166 533.5,709.5C 521.993,712.54 510.659,715.873 499.5,719.5C 483.809,723.506 468.142,727.673 452.5,732C 461.5,732.333 470.5,732.667 479.5,733C 467.993,733.169 456.659,733.669 445.5,734.5C 431.899,737.565 418.565,741.231 405.5,745.5C 369.231,754.898 333.231,764.898 297.5,775.5C 297.167,775.5 296.833,775.5 296.5,775.5C 257.956,785.798 219.623,796.464 181.5,807.5C 172.458,809.677 163.458,812.011 154.5,814.5C 141.727,817.859 129.06,821.526 116.5,825.5C 114.774,825.815 113.107,825.981 111.5,826C 105.956,821.616 100.289,817.449 94.5,813.5C 83.8519,805.03 73.0186,796.697 62,788.5C 61.8364,781.136 62.3364,773.802 63.5,766.5C 65.9413,748.851 68.2746,731.185 70.5,713.5C 72.3123,701.523 73.979,689.523 75.5,677.5C 76.7056,665.727 78.3723,654.061 80.5,642.5C 86.2078,641.323 91.8745,639.99 97.5,638.5C 98.4959,638.586 99.3292,638.252 100,637.5C 100.892,628.517 102.392,619.683 104.5,611C 114.808,608.007 125.141,605.173 135.5,602.5C 150.834,598.5 166.167,594.5 181.5,590.5C 209.005,583.126 236.338,575.46 263.5,567.5C 273.559,565.319 283.559,562.819 293.5,560C 276.301,544.971 258.634,530.471 240.5,516.5C 239.614,515.675 239.281,514.675 239.5,513.5C 258.507,481.336 277.173,448.836 295.5,416C 295.272,415.601 294.938,415.435 294.5,415.5 Z"/></g>
<g><path style="opacity:1" fill="#144ed2" d="M 403.5,422.5 C 410.738,424.151 418.072,425.151 425.5,425.5C 449.075,439.07 472.408,453.07 495.5,467.5C 486.847,466.668 478.18,466.002 469.5,465.5C 469.167,465.5 468.833,465.5 468.5,465.5C 460.679,463.806 452.679,462.306 444.5,461C 416.138,457.665 387.805,454.165 359.5,450.5C 357.958,449.837 356.291,449.17 354.5,448.5C 355,448.167 355.5,447.833 356,447.5C 371.786,438.833 387.62,430.499 403.5,422.5 Z"/></g>
<g><path style="opacity:1" fill="#05073e" d="M 294.5,415.5 C 294.938,415.435 295.272,415.601 295.5,416C 277.173,448.836 258.507,481.336 239.5,513.5C 235.501,512.016 232.167,509.516 229.5,506C 227.58,504.878 225.58,504.044 223.5,503.5C 223.719,502.325 223.386,501.325 222.5,500.5C 218.965,497.284 214.965,494.95 210.5,493.5C 210.5,492.167 210.5,490.833 210.5,489.5C 206.7,488.016 203.033,486.349 199.5,484.5C 199.762,483.022 199.429,481.689 198.5,480.5C 194.293,478.221 190.626,475.221 187.5,471.5C 185.245,470.806 183.245,469.806 181.5,468.5C 181.5,468.167 181.5,467.833 181.5,467.5C 193.269,462.739 204.602,457.406 215.5,451.5C 235.833,442.167 256.167,432.833 276.5,423.5C 282.223,420.257 288.223,417.59 294.5,415.5 Z"/></g>
<g><path style="opacity:1" fill="#52a31e" d="M 504.5,431.5 C 509.511,431.334 514.511,431.501 519.5,432C 551.39,437.133 583.39,441.3 615.5,444.5C 623.283,446.14 631.283,447.14 639.5,447.5C 639.5,447.833 639.5,448.167 639.5,448.5C 630.473,457.527 621.473,466.527 612.5,475.5C 582.35,482.538 552.35,490.204 522.5,498.5C 514.167,488.5 505.833,478.5 497.5,468.5C 497.851,462.342 498.685,456.009 500,449.5C 501.877,443.471 503.377,437.471 504.5,431.5 Z"/></g>
<g><path style="opacity:1" fill="#ee8f15" d="M 776.5,415.5 C 775.767,423.799 774.434,431.966 772.5,440C 779.171,440.808 785.837,441.641 792.5,442.5C 784.144,451.853 775.811,461.187 767.5,470.5C 756.501,471.375 745.501,471.875 734.5,472C 735.252,471.329 735.586,470.496 735.5,469.5C 742.475,459.852 749.475,450.185 756.5,440.5C 757.325,439.614 758.325,439.281 759.5,439.5C 763.571,430.419 769.238,422.419 776.5,415.5 Z"/></g>
<g><path style="opacity:1" fill="#2f9a85" d="M 103.5,443.5 C 107.045,446.276 110.378,449.442 113.5,453C 115.217,454.559 117.217,455.392 119.5,455.5C 119.383,457.484 120.05,459.15 121.5,460.5C 125.933,462.266 128.933,465.266 130.5,469.5C 113.65,476.255 96.983,483.588 80.5,491.5C 79.7492,490.624 79.2492,489.624 79,488.5C 78.7679,489.737 78.2679,490.737 77.5,491.5C 79.7694,480.255 82.436,469.088 85.5,458C 83.6158,447.477 82.1158,436.977 81,426.5C 88.6603,431.999 96.1603,437.666 103.5,443.5 Z"/></g>
<g><path style="opacity:1" fill="#bcc515" d="M 717.5,443.5 C 714.673,454.474 712.006,465.474 709.5,476.5C 705.621,489.765 701.955,503.098 698.5,516.5C 686.934,517.783 675.267,519.283 663.5,521C 655.547,530.408 647.714,539.908 640,549.5C 639.333,550.833 639.333,552.167 640,553.5C 641.515,555.677 643.015,557.844 644.5,560C 642.269,562.734 639.602,564.901 636.5,566.5C 634.434,546.174 632.434,525.841 630.5,505.5C 634.518,506.292 638.518,507.459 642.5,509C 649.247,512.222 655.913,515.722 662.5,519.5C 662.833,518.167 663.167,516.833 663.5,515.5C 661.084,496.502 658.75,477.502 656.5,458.5C 676.901,453.65 697.234,448.65 717.5,443.5 Z"/></g>
<g><path style="opacity:1" fill="#1d12af" d="M 359.5,450.5 C 387.805,454.165 416.138,457.665 444.5,461C 452.679,462.306 460.679,463.806 468.5,465.5C 432.462,481.019 396.795,497.352 361.5,514.5C 340.065,524.174 318.731,533.841 297.5,543.5C 297.5,522.167 297.5,500.833 297.5,479.5C 314.448,470.357 331.448,461.191 348.5,452C 352.06,450.763 355.727,450.263 359.5,450.5 Z"/></g>
<g><path style="opacity:1" fill="#9db613" d="M 639.5,448.5 C 645.167,451.833 650.833,455.167 656.5,458.5C 658.75,477.502 661.084,496.502 663.5,515.5C 663.167,516.833 662.833,518.167 662.5,519.5C 655.913,515.722 649.247,512.222 642.5,509C 638.518,507.459 634.518,506.292 630.5,505.5C 630.148,502.572 629.482,499.738 628.5,497C 623.824,497.499 619.158,498.332 614.5,499.5C 614.014,491.482 613.347,483.482 612.5,475.5C 621.473,466.527 630.473,457.527 639.5,448.5 Z"/></g>
<g><path style="opacity:1" fill="#0b2ab2" d="M 469.5,465.5 C 478.18,466.002 486.847,466.668 495.5,467.5C 496.167,467.833 496.833,468.167 497.5,468.5C 505.833,478.5 514.167,488.5 522.5,498.5C 503.556,503.704 484.556,508.704 465.5,513.5C 467.33,497.557 468.663,481.557 469.5,465.5 Z"/></g>
<g><path style="opacity:1" fill="#6125c0" d="M 468.5,465.5 C 468.833,465.5 469.167,465.5 469.5,465.5C 468.663,481.557 467.33,497.557 465.5,513.5C 438.97,521.005 412.303,528.339 385.5,535.5C 383.099,531.606 379.766,528.606 375.5,526.5C 371.515,521.537 366.848,517.537 361.5,514.5C 396.795,497.352 432.462,481.019 468.5,465.5 Z"/></g>
<g><path style="opacity:1" fill="#078c73" d="M 130.5,469.5 C 134.451,472.096 138.451,474.762 142.5,477.5C 144.321,478.728 145.321,480.394 145.5,482.5C 146.552,482.351 147.552,482.517 148.5,483C 151.675,486.405 155.008,489.571 158.5,492.5C 149.274,503.901 139.44,514.901 129,525.5C 125.526,534.756 122.359,544.09 119.5,553.5C 118.596,554.209 118.263,555.209 118.5,556.5C 116.952,556.179 116.285,555.179 116.5,553.5C 111.299,551.902 106.299,549.735 101.5,547C 86.303,538.568 70.9697,530.402 55.5,522.5C 55.5615,507.209 55.5615,492.042 55.5,477C 56.3317,476.312 56.9984,476.479 57.5,477.5C 60.0434,481.421 62.7101,485.254 65.5,489C 69.4486,491.29 73.4486,492.124 77.5,491.5C 78.2679,490.737 78.7679,489.737 79,488.5C 79.2492,489.624 79.7492,490.624 80.5,491.5C 96.983,483.588 113.65,476.255 130.5,469.5 Z"/></g>
<g><path style="opacity:1" fill="#25025c" d="M 180.5,469.5 C 180.5,468.833 180.833,468.5 181.5,468.5C 183.245,469.806 185.245,470.806 187.5,471.5C 190.626,475.221 194.293,478.221 198.5,480.5C 199.429,481.689 199.762,483.022 199.5,484.5C 203.033,486.349 206.7,488.016 210.5,489.5C 210.5,490.833 210.5,492.167 210.5,493.5C 214.965,494.95 218.965,497.284 222.5,500.5C 223.386,501.325 223.719,502.325 223.5,503.5C 225.58,504.044 227.58,504.878 229.5,506C 232.167,509.516 235.501,512.016 239.5,513.5C 239.281,514.675 239.614,515.675 240.5,516.5C 258.634,530.471 276.301,544.971 293.5,560C 283.559,562.819 273.559,565.319 263.5,567.5C 236.208,571.156 208.875,574.489 181.5,577.5C 181.5,564.5 181.5,551.5 181.5,538.5C 181.831,515.327 181.498,492.327 180.5,469.5 Z"/></g>
<g><path style="opacity:1" fill="#b79908" d="M 735.5,469.5 C 735.586,470.496 735.252,471.329 734.5,472C 745.501,471.875 756.501,471.375 767.5,470.5C 754.625,485.062 741.625,499.562 728.5,514C 718.533,515.297 708.533,516.13 698.5,516.5C 701.955,503.098 705.621,489.765 709.5,476.5C 716.306,475.461 723.14,474.461 730,473.5C 732.041,472.363 733.875,471.03 735.5,469.5 Z"/></g>
<g><path style="opacity:1" fill="#2a277f" d="M 296.5,413.5 C 316.833,413.5 337.167,413.5 357.5,413.5C 358.492,413.328 359.158,413.662 359.5,414.5C 338.833,414.5 318.167,414.5 297.5,414.5C 297.5,436.167 297.5,457.833 297.5,479.5C 297.5,500.833 297.5,522.167 297.5,543.5C 297.179,548.695 297.513,553.695 298.5,558.5C 298.44,559.043 298.107,559.376 297.5,559.5C 296.5,511.171 296.167,462.838 296.5,414.5C 296.5,414.167 296.5,413.833 296.5,413.5 Z"/></g>
<g><path style="opacity:1" fill="#0c0cd4" d="M 180.5,469.5 C 181.498,492.327 181.831,515.327 181.5,538.5C 174.179,541.545 167.512,545.712 161.5,551C 156.611,551.724 152.945,554.224 150.5,558.5C 142.394,563.952 134.061,568.952 125.5,573.5C 123.665,568.822 121.832,564.156 120,559.5C 119.505,557.527 119.338,555.527 119.5,553.5C 122.359,544.09 125.526,534.756 129,525.5C 139.44,514.901 149.274,503.901 158.5,492.5C 165.833,484.833 173.167,477.167 180.5,469.5 Z"/></g>
<g><path style="opacity:1" fill="#9625bf" d="M 361.5,514.5 C 366.848,517.537 371.515,521.537 375.5,526.5C 379.766,528.606 383.099,531.606 385.5,535.5C 356.543,543.323 327.543,550.989 298.5,558.5C 297.513,553.695 297.179,548.695 297.5,543.5C 318.731,533.841 340.065,524.174 361.5,514.5 Z"/></g>
<g><path style="opacity:1" fill="#d9dc96" d="M 632.5,569.5 C 629.167,571.833 625.833,574.167 622.5,576.5C 619.868,552.213 617.534,527.879 615.5,503.5C 618.376,503.073 621.209,502.406 624,501.5C 624.945,501.905 625.612,502.572 626,503.5C 628.277,525.496 630.444,547.496 632.5,569.5 Z"/></g>
<g><path style="opacity:1" fill="#1daba5" d="M 55.5,522.5 C 70.9697,530.402 86.303,538.568 101.5,547C 106.299,549.735 111.299,551.902 116.5,553.5C 116.285,555.179 116.952,556.179 118.5,556.5C 112.381,574.731 105.715,592.731 98.5,610.5C 84.5242,600.533 70.5242,590.533 56.5,580.5C 55.7025,580.957 55.3691,581.624 55.5,582.5C 54.8654,562.67 54.8654,542.67 55.5,522.5 Z"/></g>
<g><path style="opacity:1" fill="#ededed" d="M 493.5,535.5 C 496.718,535.651 497.051,536.484 494.5,538C 480.183,542.106 466.017,546.606 452,551.5C 455.046,565.141 459.213,578.474 464.5,591.5C 478.991,586.725 493.491,582.058 508,577.5C 508.483,578.448 508.649,579.448 508.5,580.5C 493.484,584.172 478.818,588.839 464.5,594.5C 467.999,605.828 471.499,617.161 475,628.5C 475.265,630.651 476.265,632.318 478,633.5C 492.694,628.824 507.361,624.157 522,619.5C 522.667,620.167 522.667,620.833 522,621.5C 506.367,627.147 490.701,631.814 475,635.5C 466.266,607.131 457.432,578.797 448.5,550.5C 463.666,545.667 478.666,540.667 493.5,535.5 Z"/></g>
<g><path style="opacity:1" fill="#fc8b09" d="M 827.5,567.5 C 825.008,564.531 822.508,561.531 820,558.5C 819.59,557.099 819.09,555.766 818.5,554.5C 822.622,549.206 826.956,544.04 831.5,539C 839.012,538.666 846.512,538.166 854,537.5C 855.5,537.833 857,538.167 858.5,538.5C 848.448,548.555 838.114,558.222 827.5,567.5 Z"/></g>
<g><path style="opacity:1" fill="#ededed" d="M 601.5,502.5 C 602.821,505.598 603.488,509.098 603.5,513C 602.937,541.518 601.937,570.018 600.5,598.5C 586.526,581.232 573.026,563.565 560,545.5C 559.272,567.86 558.106,590.194 556.5,612.5C 537.355,586.891 518.688,560.891 500.5,534.5C 500.833,534.167 501.167,533.833 501.5,533.5C 519.14,558.306 536.973,582.973 555,607.5C 556.531,586.201 557.365,564.867 557.5,543.5C 559.722,543.178 561.556,543.845 563,545.5C 574.756,562.011 586.756,578.344 599,594.5C 600.049,563.837 600.882,533.17 601.5,502.5 Z"/></g>
<g><path style="opacity:1" fill="#4d06c0" d="M 181.5,538.5 C 181.5,551.5 181.5,564.5 181.5,577.5C 181.5,581.833 181.5,586.167 181.5,590.5C 166.167,594.5 150.834,598.5 135.5,602.5C 131.446,593.105 128.113,583.438 125.5,573.5C 134.061,568.952 142.394,563.952 150.5,558.5C 152.945,554.224 156.611,551.724 161.5,551C 167.512,545.712 174.179,541.545 181.5,538.5 Z"/></g>
<g><path style="opacity:1" fill="#eaeaea" d="M 417.5,559.5 C 435.951,558.781 446.284,567.615 448.5,586C 448.38,594.572 445.046,601.572 438.5,607C 431.128,610.759 423.462,613.759 415.5,616C 432.167,623.667 448.833,631.333 465.5,639C 464.584,639.374 463.75,639.874 463,640.5C 445.569,632.534 428.403,624.2 411.5,615.5C 418.342,612.718 425.342,610.218 432.5,608C 446.043,599.651 449.543,588.151 443,573.5C 438.114,565.888 431.114,561.888 422,561.5C 410.405,564.253 398.905,567.42 387.5,571C 386.978,571.561 386.645,572.228 386.5,573C 395.426,600.919 403.759,628.752 411.5,656.5C 410.029,655.619 409.196,654.286 409,652.5C 400.599,625.131 392.099,597.797 383.5,570.5C 394.941,566.796 406.274,563.13 417.5,559.5 Z"/></g>
<g><path style="opacity:1" fill="#ee8f16" d="M 818.5,554.5 C 819.09,555.766 819.59,557.099 820,558.5C 822.508,561.531 825.008,564.531 827.5,567.5C 827.666,572.179 827.499,576.845 827,581.5C 817.236,587.033 807.069,591.7 796.5,595.5C 792.427,594.991 788.427,594.158 784.5,593C 785.252,592.329 785.586,591.496 785.5,590.5C 796.509,578.459 807.509,566.459 818.5,554.5 Z"/></g>
<g><path style="opacity:0.601" fill="#ededed" d="M 632.5,569.5 C 633.167,574.833 633.833,580.167 634.5,585.5C 630.864,584.674 627.197,584.008 623.5,583.5C 622.631,581.283 622.298,578.95 622.5,576.5C 625.833,574.167 629.167,571.833 632.5,569.5 Z"/></g>
<g><path style="opacity:1" fill="#1c0f36" d="M 263.5,567.5 C 236.338,575.46 209.005,583.126 181.5,590.5C 181.5,586.167 181.5,581.833 181.5,577.5C 208.875,574.489 236.208,571.156 263.5,567.5 Z"/></g>
<g><path style="opacity:1" fill="#1d14ae" d="M 119.5,553.5 C 119.338,555.527 119.505,557.527 120,559.5C 121.832,564.156 123.665,568.822 125.5,573.5C 128.113,583.438 131.446,593.105 135.5,602.5C 125.141,605.173 114.808,608.007 104.5,611C 102.392,619.683 100.892,628.517 100,637.5C 99.3292,638.252 98.4959,638.586 97.5,638.5C 98.2767,629.188 98.61,619.854 98.5,610.5C 105.715,592.731 112.381,574.731 118.5,556.5C 118.263,555.209 118.596,554.209 119.5,553.5 Z"/></g>
<g><path style="opacity:1" fill="#eeeeee" d="M 340.5,583.5 C 357.173,581.666 371.173,586.833 382.5,599C 379.18,598.735 376.513,597.069 374.5,594C 352.904,580.623 333.404,583.123 316,601.5C 305.444,617.744 304.777,634.41 314,651.5C 327.489,669.662 344.989,675.162 366.5,668C 380.384,661.102 388.551,649.936 391,634.5C 391.718,633.549 392.551,633.383 393.5,634C 386.899,663.595 368.566,676.262 338.5,672C 314.334,662.846 303.5,645.346 306,619.5C 310.582,600.753 322.082,588.753 340.5,583.5 Z"/></g>
<g><path style="opacity:1" fill="#03938e" d="M 98.5,610.5 C 98.61,619.854 98.2767,629.188 97.5,638.5C 91.8745,639.99 86.2078,641.323 80.5,642.5C 73.4428,640.739 66.7762,638.073 60.5,634.5C 58.5402,617.195 56.8736,599.862 55.5,582.5C 55.3691,581.624 55.7025,580.957 56.5,580.5C 70.5242,590.533 84.5242,600.533 98.5,610.5 Z"/></g>
<g><path style="opacity:1" fill="#c1ad1a" d="M 638.5,586.5 C 642.555,587.906 646.555,589.406 650.5,591C 647.297,594.371 643.964,597.538 640.5,600.5C 639.578,596.005 638.911,591.338 638.5,586.5 Z"/></g>
<g><path style="opacity:1" fill="#d9d092" d="M 623.5,583.5 C 627.197,584.008 630.864,584.674 634.5,585.5C 635.26,592.157 635.927,598.823 636.5,605.5C 632.833,608.5 629.5,611.833 626.5,615.5C 624.863,605.036 623.863,594.37 623.5,583.5 Z"/></g>
<g><path style="opacity:1" fill="#ed9e2b" d="M 785.5,590.5 C 785.586,591.496 785.252,592.329 784.5,593C 788.427,594.158 792.427,594.991 796.5,595.5C 793.264,601.301 790.597,607.301 788.5,613.5C 794.86,614.84 801.194,616.34 807.5,618C 806.934,618.995 806.267,619.828 805.5,620.5C 805.217,619.711 804.717,619.044 804,618.5C 803.599,620.521 802.432,621.855 800.5,622.5C 799.232,621.572 797.899,621.405 796.5,622C 778.812,629.179 761.145,636.346 743.5,643.5C 746.241,633.276 749.575,623.276 753.5,613.5C 762.99,606.863 772.656,600.363 782.5,594C 783.163,592.482 784.163,591.315 785.5,590.5 Z"/></g>
<g><path style="opacity:1" fill="#707070" d="M 280.5,601.5 C 281.5,601.5 282.5,601.5 283.5,601.5C 284.656,605.793 285.656,610.126 286.5,614.5C 274.435,617.684 262.435,621.184 250.5,625C 249.484,625.519 248.818,626.353 248.5,627.5C 250.742,634.725 253.075,641.892 255.5,649C 256.833,649.667 258.167,649.667 259.5,649C 269.806,645.675 280.14,642.508 290.5,639.5C 291.29,643.206 292.29,646.872 293.5,650.5C 293.167,651.167 292.833,651.833 292.5,652.5C 281.417,655.972 270.417,659.639 259.5,663.5C 263.781,675.674 267.448,688.007 270.5,700.5C 266.715,701.03 263.048,702.03 259.5,703.5C 258.914,703.291 258.414,702.957 258,702.5C 249.359,674.245 240.526,646.078 231.5,618C 247.798,612.179 264.131,606.679 280.5,601.5 Z"/></g>
<g><path style="opacity:0.492" fill="#ebebeb" d="M 636.5,605.5 C 637.966,620.158 639.299,634.825 640.5,649.5C 634.495,650.002 628.495,650.168 622.5,650C 620.611,647.618 618.945,645.118 617.5,642.5C 620.997,641.435 624.497,640.435 628,639.5C 627.894,631.496 627.394,623.496 626.5,615.5C 629.5,611.833 632.833,608.5 636.5,605.5 Z"/></g>
<g><path style="opacity:1" fill="#c0800d" d="M 753.5,613.5 C 749.575,623.276 746.241,633.276 743.5,643.5C 738.42,655.136 734.254,667.136 731,679.5C 730.5,681.333 729.333,682.5 727.5,683C 728.737,683.232 729.737,683.732 730.5,684.5C 720.192,693.805 709.859,703.138 699.5,712.5C 698.761,712.631 698.094,712.464 697.5,712C 700.935,690.678 703.435,669.178 705,647.5C 706.205,646.929 707.372,646.262 708.5,645.5C 707.873,644.583 707.539,643.583 707.5,642.5C 722.524,632.322 737.857,622.656 753.5,613.5 Z"/></g>
<g><path style="opacity:1" fill="#e18e09" d="M 805.5,620.5 C 795.288,636.592 786.288,653.426 778.5,671C 762.47,675.507 746.47,680.007 730.5,684.5C 729.737,683.732 728.737,683.232 727.5,683C 729.333,682.5 730.5,681.333 731,679.5C 734.254,667.136 738.42,655.136 743.5,643.5C 761.145,636.346 778.812,629.179 796.5,622C 797.899,621.405 799.232,621.572 800.5,622.5C 802.432,621.855 803.599,620.521 804,618.5C 804.717,619.044 805.217,619.711 805.5,620.5 Z"/></g>
<g><path style="opacity:1" fill="#717171" d="M 183.5,631.5 C 185.124,631.36 186.29,632.027 187,633.5C 194.08,657.739 201.747,681.739 210,705.5C 223,701.167 236,696.833 249,692.5C 250.985,696.284 252.485,700.284 253.5,704.5C 236.346,710.551 219.013,716.218 201.5,721.5C 193.517,698.716 186.017,675.716 179,652.5C 176.977,646.605 175.477,640.605 174.5,634.5C 177.785,634.072 180.785,633.072 183.5,631.5 Z"/></g>
<g><path style="opacity:1" fill="#19aeae" d="M 60.5,634.5 C 66.7762,638.073 73.4428,640.739 80.5,642.5C 78.3723,654.061 76.7056,665.727 75.5,677.5C 71.9719,674.902 68.6386,672.068 65.5,669C 61.2773,666.148 56.6106,664.148 51.5,663C 46.7861,659.314 41.7861,656.147 36.5,653.5C 37.6935,653.03 38.3601,652.03 38.5,650.5C 39.3,643.923 40.3,637.423 41.5,631C 47.4691,631.65 53.3024,633.15 59,635.5C 59.7648,635.43 60.2648,635.097 60.5,634.5 Z"/></g>
<g><path style="opacity:1" fill="#707070" d="M 164.5,637.5 C 165.497,637.47 166.164,637.97 166.5,639C 175.477,667.428 184.143,695.928 192.5,724.5C 188.931,725.189 185.431,726.189 182,727.5C 181.228,727.355 180.561,727.022 180,726.5C 176.333,714.833 172.667,703.167 169,691.5C 168.586,691.043 168.086,690.709 167.5,690.5C 155.651,694.116 143.984,698.116 132.5,702.5C 136.088,714.351 139.755,726.184 143.5,738C 141.287,740.081 138.62,741.415 135.5,742C 133.888,742.72 132.388,742.554 131,741.5C 122.359,713.245 113.526,685.078 104.5,657C 108.461,655.402 112.461,653.902 116.5,652.5C 120.601,664.303 124.601,676.137 128.5,688C 129.833,688.667 131.167,688.667 132.5,688C 143.095,684.519 153.761,681.352 164.5,678.5C 161.374,666.163 157.708,653.997 153.5,642C 157.262,640.583 160.928,639.083 164.5,637.5 Z"/></g>
<g><path style="opacity:1" fill="#d37e74" d="M 977.5,658.5 C 978.103,653.381 977.436,648.715 975.5,644.5C 982.774,641.199 990.107,637.866 997.5,634.5C 1005.27,634.953 1012.94,635.12 1020.5,635C 1006.43,643.366 992.1,651.199 977.5,658.5 Z"/></g>
<g><path style="opacity:1" fill="#21bac7" d="M 1.5,643.5 C 0.833333,642.167 0.833333,642.167 1.5,643.5 Z"/></g>
<g><path style="opacity:1" fill="#b07c16" d="M 707.5,642.5 C 707.539,643.583 707.873,644.583 708.5,645.5C 707.372,646.262 706.205,646.929 705,647.5C 703.435,669.178 700.935,690.678 697.5,712C 698.094,712.464 698.761,712.631 699.5,712.5C 699.167,713.167 698.833,713.833 698.5,714.5C 656.966,720.305 615.632,726.972 574.5,734.5C 575.523,732.154 576.523,729.821 577.5,727.5C 578.5,727.5 579.5,727.5 580.5,727.5C 580.5,726.5 580.5,725.5 580.5,724.5C 581.5,724.5 582.5,724.5 583.5,724.5C 583.281,723.325 583.614,722.325 584.5,721.5C 587.494,719.339 590.161,716.839 592.5,714C 597.598,708.948 603.265,704.615 609.5,701C 610.337,699.989 610.67,698.822 610.5,697.5C 614.081,696.422 616.581,694.088 618,690.5C 620.799,689.227 622.633,687.227 623.5,684.5C 631.423,682.186 639.423,680.186 647.5,678.5C 647.497,673.473 647.164,668.473 646.5,663.5C 652.399,658.389 658.066,653.056 663.5,647.5C 677.145,646.207 690.811,645.04 704.5,644C 705.527,643.487 706.527,642.987 707.5,642.5 Z"/></g>
<g><path style="opacity:1" fill="#d26b58" d="M 975.5,644.5 C 977.436,648.715 978.103,653.381 977.5,658.5C 968.9,672.038 959.566,685.038 949.5,697.5C 947.553,684.252 945.886,671.252 944.5,658.5C 954.378,653.065 964.711,648.399 975.5,644.5 Z"/></g>
<g><path style="opacity:1" fill="#b6970b" d="M 663.5,647.5 C 658.066,653.056 652.399,658.389 646.5,663.5C 645.746,658.537 645.413,653.537 645.5,648.5C 651.509,648.299 657.509,647.966 663.5,647.5 Z"/></g>
<g><path style="opacity:1" fill="#cdbc6c" d="M 617.5,642.5 C 618.945,645.118 620.611,647.618 622.5,650C 628.495,650.168 634.495,650.002 640.5,649.5C 641.946,655.274 642.612,661.274 642.5,667.5C 638.292,671.958 633.292,672.791 627.5,670C 614.679,664.614 601.679,659.614 588.5,655C 586.456,654.502 585.122,653.335 584.5,651.5C 595.544,648.656 606.544,645.656 617.5,642.5 Z"/></g>
<g><path style="opacity:1" fill="#0ab6d1" d="M 1.5,643.5 C 13.2768,646.425 24.9434,649.759 36.5,653.5C 41.7861,656.147 46.7861,659.314 51.5,663C 56.6106,664.148 61.2773,666.148 65.5,669C 68.6386,672.068 71.9719,674.902 75.5,677.5C 73.979,689.523 72.3123,701.523 70.5,713.5C 66.7026,714.959 64.3693,717.626 63.5,721.5C 58.6115,722.719 55.1115,725.719 53,730.5C 46.956,735.379 41.456,740.712 36.5,746.5C 29.0742,719.029 21.9075,691.362 15,663.5C 10.2322,656.949 5.73219,650.282 1.5,643.5 Z"/></g>
<g><path style="opacity:1" fill="#7fc9c9" d="M 92.5,687.5 C 87.6647,685.586 83.3314,682.919 79.5,679.5C 80.4273,668.414 81.9273,657.414 84,646.5C 88.9664,644.299 94.1331,643.133 99.5,643C 97.035,657.911 94.7017,672.745 92.5,687.5 Z"/></g>
<g><path style="opacity:1" fill="#746ec7" d="M 582.5,652.5 C 583.041,661.491 583.374,670.491 583.5,679.5C 582.153,678.829 580.986,678.829 580,679.5C 579.814,677.1 579.314,674.766 578.5,672.5C 577.614,673.325 577.281,674.325 577.5,675.5C 576.178,675.33 575.011,675.663 574,676.5C 573.333,673.833 572.667,673.833 572,676.5C 570.413,675.273 569.079,675.606 568,677.5C 567.667,676.833 567.333,676.167 567,675.5C 566.15,676.424 565.15,676.424 564,675.5C 561.587,679.316 559.254,679.316 557,675.5C 556.667,676.167 556.333,676.833 556,677.5C 554.324,676.569 552.491,675.902 550.5,675.5C 549.749,676.376 549.249,677.376 549,678.5C 547.887,677.289 546.72,677.289 545.5,678.5C 544.5,677.833 543.5,677.167 542.5,676.5C 541.808,677.025 541.308,677.692 541,678.5C 540,675.833 539,675.833 538,678.5C 536.43,677.386 535.097,676.053 534,674.5C 532.676,675.88 531.343,676.214 530,675.5C 529.309,677.891 528.309,677.891 527,675.5C 523.656,675.961 520.489,676.961 517.5,678.5C 515.518,677.377 513.518,677.377 511.5,678.5C 513.707,675.07 516.374,672.07 519.5,669.5C 540.456,663.678 561.456,658.011 582.5,652.5 Z"/></g>
<g><path style="opacity:1" fill="#baac6d" d="M 584.5,651.5 C 585.122,653.335 586.456,654.502 588.5,655C 601.679,659.614 614.679,664.614 627.5,670C 633.292,672.791 638.292,671.958 642.5,667.5C 643.814,669.895 643.814,672.395 642.5,675C 623.132,680.508 603.799,686.008 584.5,691.5C 584.817,687.298 584.483,683.298 583.5,679.5C 583.374,670.491 583.041,661.491 582.5,652.5C 582.842,651.662 583.508,651.328 584.5,651.5 Z"/></g>
<g><path style="opacity:1" fill="#f26549" d="M 944.5,658.5 C 945.886,671.252 947.553,684.252 949.5,697.5C 949.443,698.609 949.11,699.609 948.5,700.5C 936.884,704.601 925.551,709.435 914.5,715C 902.846,717.913 891.513,721.746 880.5,726.5C 901.467,703.531 922.801,680.865 944.5,658.5 Z"/></g>
<g><path style="opacity:1" fill="#6d66c6" d="M 583.5,679.5 C 583.5,682.5 583.5,685.5 583.5,688.5C 555.833,688.5 528.167,688.5 500.5,688.5C 504.167,685.167 507.833,681.833 511.5,678.5C 513.518,677.377 515.518,677.377 517.5,678.5C 520.489,676.961 523.656,675.961 527,675.5C 528.309,677.891 529.309,677.891 530,675.5C 531.343,676.214 532.676,675.88 534,674.5C 535.097,676.053 536.43,677.386 538,678.5C 539,675.833 540,675.833 541,678.5C 541.308,677.692 541.808,677.025 542.5,676.5C 543.5,677.167 544.5,677.833 545.5,678.5C 546.72,677.289 547.887,677.289 549,678.5C 549.249,677.376 549.749,676.376 550.5,675.5C 552.491,675.902 554.324,676.569 556,677.5C 556.333,676.833 556.667,676.167 557,675.5C 559.254,679.316 561.587,679.316 564,675.5C 565.15,676.424 566.15,676.424 567,675.5C 567.333,676.167 567.667,676.833 568,677.5C 569.079,675.606 570.413,675.273 572,676.5C 572.667,673.833 573.333,673.833 574,676.5C 575.011,675.663 576.178,675.33 577.5,675.5C 577.281,674.325 577.614,673.325 578.5,672.5C 579.314,674.766 579.814,677.1 580,679.5C 580.986,678.829 582.153,678.829 583.5,679.5 Z"/></g>
<g><path style="opacity:1" fill="#7d5fbc" d="M 519.5,669.5 C 516.374,672.07 513.707,675.07 511.5,678.5C 507.833,681.833 504.167,685.167 500.5,688.5C 484.991,688.83 469.658,688.496 454.5,687.5C 476.226,681.652 497.893,675.652 519.5,669.5 Z"/></g>
<g><path style="opacity:1" fill="#67c9da" d="M 79.5,679.5 C 83.3314,682.919 87.6647,685.586 92.5,687.5C 92.702,689.95 92.3686,692.283 91.5,694.5C 85.8394,698.5 80.5061,702.834 75.5,707.5C 76.5588,698.089 77.8921,688.755 79.5,679.5 Z"/></g>
<g><path style="opacity:1" fill="#7563a8" d="M 454.5,687.5 C 469.658,688.496 484.991,688.83 500.5,688.5C 528.167,688.5 555.833,688.5 583.5,688.5C 539.003,689.499 494.336,689.832 449.5,689.5C 451.028,688.691 452.694,688.024 454.5,687.5 Z"/></g>
<g><path style="opacity:1" fill="#9a8119" d="M 623.5,684.5 C 622.633,687.227 620.799,689.227 618,690.5C 616.581,694.088 614.081,696.422 610.5,697.5C 610.67,698.822 610.337,699.989 609.5,701C 603.265,704.615 597.598,708.948 592.5,714C 590.161,716.839 587.494,719.339 584.5,721.5C 583.614,722.325 583.281,723.325 583.5,724.5C 582.5,724.5 581.5,724.5 580.5,724.5C 580.5,725.5 580.5,726.5 580.5,727.5C 579.5,727.5 578.5,727.5 577.5,727.5C 576.523,729.821 575.523,732.154 574.5,734.5C 573.833,734.5 573.167,734.5 572.5,734.5C 575.5,721.833 578.5,709.166 581.5,696.5C 595.484,692.504 609.484,688.504 623.5,684.5 Z"/></g>
<g><path style="opacity:1" fill="#6c5562" d="M 583.5,679.5 C 584.483,683.298 584.817,687.298 584.5,691.5C 553.544,699.989 522.544,708.322 491.5,716.5C 476.739,710.412 462.072,704.079 447.5,697.5C 443.922,695.137 439.922,693.804 435.5,693.5C 439.978,691.877 444.645,690.544 449.5,689.5C 494.336,689.832 539.003,689.499 583.5,688.5C 583.5,685.5 583.5,682.5 583.5,679.5 Z"/></g>
<g><path style="opacity:1" fill="#1b0f35" d="M 581.5,696.5 C 578.5,709.166 575.5,721.833 572.5,734.5C 558.5,734.5 544.5,734.5 530.5,734.5C 524.609,730.387 518.276,727.054 511.5,724.5C 514.363,721.9 517.697,720.067 521.5,719C 525.457,715.553 529.457,712.387 533.5,709.5C 549.501,705.166 565.501,700.833 581.5,696.5 Z"/></g>
<g><path style="opacity:1" fill="#55557e" d="M 435.5,693.5 C 439.922,693.804 443.922,695.137 447.5,697.5C 447.38,698.586 446.713,699.253 445.5,699.5C 422.584,706.284 399.25,711.284 375.5,714.5C 373.78,713.692 372.113,712.692 370.5,711.5C 391.936,705.055 413.603,699.055 435.5,693.5 Z"/></g>
<g><path style="opacity:1" fill="#fd5730" d="M 948.5,700.5 C 948.335,704.182 948.501,707.848 949,711.5C 958.817,709.622 968.65,708.122 978.5,707C 970.57,714.773 962.236,721.94 953.5,728.5C 929.006,727.502 904.339,727.169 879.5,727.5C 879.5,726.833 879.833,726.5 880.5,726.5C 891.513,721.746 902.846,717.913 914.5,715C 925.551,709.435 936.884,704.601 948.5,700.5 Z"/></g>
<g><path style="opacity:1" fill="#634b58" d="M 370.5,711.5 C 372.113,712.692 373.78,713.692 375.5,714.5C 375.119,715.931 374.119,716.764 372.5,717C 359.149,720.108 345.816,723.441 332.5,727C 323.02,729.112 313.353,730.778 303.5,732C 301.881,732.236 300.881,733.069 300.5,734.5C 299.167,734.5 297.833,734.5 296.5,734.5C 295.292,733.766 293.959,733.433 292.5,733.5C 318.223,725.566 344.223,718.233 370.5,711.5 Z"/></g>
<g><path style="opacity:1" fill="#260419" d="M 533.5,709.5 C 529.457,712.387 525.457,715.553 521.5,719C 517.697,720.067 514.363,721.9 511.5,724.5C 506.951,723.988 502.951,722.322 499.5,719.5C 510.659,715.873 521.993,712.54 533.5,709.5 Z"/></g>
<g><path style="opacity:1" fill="#4d4c56" d="M 447.5,697.5 C 462.072,704.079 476.739,710.412 491.5,716.5C 470.058,722.946 448.391,728.946 426.5,734.5C 384.5,734.5 342.5,734.5 300.5,734.5C 300.881,733.069 301.881,732.236 303.5,732C 313.353,730.778 323.02,729.112 332.5,727C 345.816,723.441 359.149,720.108 372.5,717C 374.119,716.764 375.119,715.931 375.5,714.5C 399.25,711.284 422.584,706.284 445.5,699.5C 446.713,699.253 447.38,698.586 447.5,697.5 Z"/></g>
<g><path style="opacity:1" fill="#159fed" d="M 70.5,713.5 C 68.2746,731.185 65.9413,748.851 63.5,766.5C 63.1667,766.5 62.8333,766.5 62.5,766.5C 53.5242,760.185 44.8575,753.519 36.5,746.5C 41.456,740.712 46.956,735.379 53,730.5C 55.1115,725.719 58.6115,722.719 63.5,721.5C 64.3693,717.626 66.7026,714.959 70.5,713.5 Z"/></g>
<g><path style="opacity:1" fill="#df640a" d="M 698.5,714.5 C 699.017,717.582 699.85,720.582 701,723.5C 704.682,727.015 708.182,730.682 711.5,734.5C 703.456,741.21 695.123,747.543 686.5,753.5C 678.629,757.347 670.963,761.681 663.5,766.5C 661.955,767.452 660.288,767.785 658.5,767.5C 658.5,768.5 658.5,769.5 658.5,770.5C 650.027,772.988 642.361,776.988 635.5,782.5C 623.307,787.755 611.973,794.255 601.5,802C 597.747,803.114 594.08,804.281 590.5,805.5C 584.615,782.052 578.615,758.719 572.5,735.5C 572.5,735.167 572.5,734.833 572.5,734.5C 573.167,734.5 573.833,734.5 574.5,734.5C 615.632,726.972 656.966,720.305 698.5,714.5 Z"/></g>
<g><path style="opacity:1" fill="#fd3703" d="M 879.5,727.5 C 904.339,727.169 929.006,727.502 953.5,728.5C 940.883,736.146 927.883,743.313 914.5,750C 902.922,759.272 890.922,767.772 878.5,775.5C 869.934,771.144 860.934,768.31 851.5,767C 846.333,764.299 841,761.966 835.5,760C 829.802,759.235 824.302,757.735 819,755.5C 817.97,755.164 817.47,754.497 817.5,753.5C 837.869,744.321 858.535,735.655 879.5,727.5 Z"/></g>
<g><path style="opacity:1" fill="#080817" d="M 499.5,719.5 C 502.951,722.322 506.951,723.988 511.5,724.5C 518.276,727.054 524.609,730.387 530.5,734.5C 514.167,734.5 497.833,734.5 481.5,734.5C 469.5,734.5 457.5,734.5 445.5,734.5C 456.659,733.669 467.993,733.169 479.5,733C 470.5,732.667 461.5,732.333 452.5,732C 468.142,727.673 483.809,723.506 499.5,719.5 Z"/></g>
<g><path style="opacity:1" fill="#57b4e9" d="M 91.5,694.5 C 89.665,709.846 87.665,725.18 85.5,740.5C 86.3738,743.117 88.0405,745.117 90.5,746.5C 82.7597,751.361 75.4263,756.694 68.5,762.5C 70.74,744.154 73.0733,725.82 75.5,707.5C 80.5061,702.834 85.8394,698.5 91.5,694.5 Z"/></g>
<g><path style="opacity:1" fill="#910698" d="M 481.5,734.5 C 497.833,734.5 514.167,734.5 530.5,734.5C 544.5,734.5 558.5,734.5 572.5,734.5C 572.5,734.833 572.5,735.167 572.5,735.5C 562.128,753.753 552.295,772.42 543,791.5C 533.999,802.665 524.832,813.665 515.5,824.5C 514.094,824.973 513.427,825.973 513.5,827.5C 513.167,827.5 512.833,827.5 512.5,827.5C 504.046,800.139 495.046,773.139 485.5,746.5C 484.772,742.234 483.438,738.234 481.5,734.5 Z"/></g>
<g><path style="opacity:1" fill="#c31bcd" d="M 445.5,734.5 C 457.5,734.5 469.5,734.5 481.5,734.5C 483.438,738.234 484.772,742.234 485.5,746.5C 456.634,775.698 427.3,804.698 397.5,833.5C 396.735,833.923 395.902,834.257 395,834.5C 386.523,831.186 378.023,827.686 369.5,824C 366.232,822.85 362.899,822.016 359.5,821.5C 372.92,801.723 385.586,781.39 397.5,760.5C 400.653,755.722 403.986,751.055 407.5,746.5C 407.043,745.702 406.376,745.369 405.5,745.5C 418.565,741.231 431.899,737.565 445.5,734.5 Z"/></g>
<g><path style="opacity:1" fill="#aa4808" d="M 572.5,735.5 C 578.615,758.719 584.615,782.052 590.5,805.5C 590.5,806.167 590.5,806.833 590.5,807.5C 582.052,811.647 573.719,815.98 565.5,820.5C 564.244,820.461 563.244,820.961 562.5,822C 547.765,823.321 533.265,825.154 519,827.5C 517.271,827.026 516.105,826.026 515.5,824.5C 524.832,813.665 533.999,802.665 543,791.5C 552.295,772.42 562.128,753.753 572.5,735.5 Z"/></g>
<g><path style="opacity:1" fill="#3f3b63" d="M 292.5,733.5 C 293.959,733.433 295.292,733.766 296.5,734.5C 296.5,744.5 296.5,754.5 296.5,764.5C 295.603,763.402 294.77,763.402 294,764.5C 293.667,763.833 293.333,763.167 293,762.5C 290.3,763.344 287.633,764.344 285,765.5C 281.944,763.76 278.944,762.76 276,762.5C 272.968,765.283 269.801,765.616 266.5,763.5C 265.304,763.846 265.304,764.346 266.5,765C 265.5,765.167 264.5,765.333 263.5,765.5C 260.313,765.353 257.147,765.353 254,765.5C 252.289,765.561 250.956,764.894 250,763.5C 247.707,766.505 245.207,767.171 242.5,765.5C 241.808,766.025 241.308,766.692 241,767.5C 239.287,763.588 237.453,763.588 235.5,767.5C 234.808,766.975 234.308,766.308 234,765.5C 233.612,766.428 232.945,767.095 232,767.5C 230.667,766.833 229.333,766.167 228,765.5C 226.687,767.392 225.187,767.726 223.5,766.5C 224.167,761.5 224.833,756.5 225.5,751.5C 247.71,745.031 270.043,739.031 292.5,733.5 Z"/></g>
<g><path style="opacity:1" fill="#e028e4" d="M 405.5,745.5 C 406.376,745.369 407.043,745.702 407.5,746.5C 403.986,751.055 400.653,755.722 397.5,760.5C 385.586,781.39 372.92,801.723 359.5,821.5C 353.22,831.312 347.054,841.312 341,851.5C 339.583,853.398 338.083,855.064 336.5,856.5C 323.855,843.857 310.855,831.524 297.5,819.5C 297.5,804.833 297.5,790.167 297.5,775.5C 333.231,764.898 369.231,754.898 405.5,745.5 Z"/></g>
<g><path style="opacity:1" fill="#b23db5" d="M 296.5,734.5 C 297.833,734.5 299.167,734.5 300.5,734.5C 342.5,734.5 384.5,734.5 426.5,734.5C 383.731,746.945 340.731,758.945 297.5,770.5C 296.539,768.735 296.205,766.735 296.5,764.5C 296.5,754.5 296.5,744.5 296.5,734.5 Z"/></g>
<g><path style="opacity:1" fill="#804abd" d="M 485.5,746.5 C 495.046,773.139 504.046,800.139 512.5,827.5C 512.5,828.167 512.167,828.5 511.5,828.5C 508.279,828.381 504.779,828.048 501,827.5C 467.121,829.94 433.288,832.607 399.5,835.5C 398.167,835.5 397.5,834.833 397.5,833.5C 427.3,804.698 456.634,775.698 485.5,746.5 Z"/></g>
<g><path style="opacity:1" fill="#dd400c" d="M 790.5,749.5 C 798.606,750.654 806.606,752.321 814.5,754.5C 815.417,753.873 816.417,753.539 817.5,753.5C 817.47,754.497 817.97,755.164 819,755.5C 824.302,757.735 829.802,759.235 835.5,760C 841,761.966 846.333,764.299 851.5,767C 860.934,768.31 869.934,771.144 878.5,775.5C 852.037,783.929 825.37,792.096 798.5,800C 817.507,800.595 836.507,800.428 855.5,799.5C 844.033,808.846 831.367,817.679 817.5,826C 814.745,827.711 812.411,829.878 810.5,832.5C 807.49,833.269 804.49,834.103 801.5,835C 802.833,835.333 804.167,835.667 805.5,836C 803.456,836.498 802.122,837.665 801.5,839.5C 798.217,840.081 794.884,840.414 791.5,840.5C 769.167,839.417 746.834,838.417 724.5,837.5C 725.905,835.389 727.905,833.889 730.5,833C 745.579,824.89 761.579,817.223 778.5,810C 779.665,808.916 780.998,808.083 782.5,807.5C 783.386,806.675 783.719,805.675 783.5,804.5C 787.626,804.428 791.626,803.761 795.5,802.5C 795.5,801.5 795.5,800.5 795.5,799.5C 770.183,797.001 744.85,794.668 719.5,792.5C 719.5,791.167 719.5,789.833 719.5,788.5C 726.81,785.708 733.81,782.208 740.5,778C 745.01,773.245 750.343,769.745 756.5,767.5C 756.5,766.5 756.5,765.5 756.5,764.5C 763.878,761.304 771.211,757.804 778.5,754C 779.661,752.172 781.161,750.672 783,749.5C 783.95,750.022 784.784,750.689 785.5,751.5C 786.842,749.995 788.508,749.328 790.5,749.5 Z"/></g>
<g><path style="opacity:1" fill="#ca5f19" d="M 686.5,753.5 C 695.079,757.471 704.079,760.471 713.5,762.5C 714.351,770.099 715.351,778.432 716.5,787.5C 716.276,789.455 715.609,791.121 714.5,792.5C 683.009,804.402 651.342,816.069 619.5,827.5C 610.833,821.106 602.166,814.606 593.5,808C 592.552,807.517 591.552,807.351 590.5,807.5C 590.5,806.833 590.5,806.167 590.5,805.5C 594.08,804.281 597.747,803.114 601.5,802C 611.973,794.255 623.307,787.755 635.5,782.5C 642.361,776.988 650.027,772.988 658.5,770.5C 658.5,769.5 658.5,768.5 658.5,767.5C 660.288,767.785 661.955,767.452 663.5,766.5C 670.963,761.681 678.629,757.347 686.5,753.5 Z"/></g>
<g><path style="opacity:1" fill="#383743" d="M 225.5,751.5 C 224.833,756.5 224.167,761.5 223.5,766.5C 221.942,772.151 220.275,777.817 218.5,783.5C 215.894,779.052 213.061,774.719 210,770.5C 205.685,767.089 202.185,763.089 199.5,758.5C 208.253,756.478 216.92,754.145 225.5,751.5 Z"/></g>
<g><path style="opacity:1" fill="#4f97dd" d="M 90.5,746.5 C 102.538,755.512 114.538,764.512 126.5,773.5C 129.912,781.324 133.579,788.99 137.5,796.5C 137.607,798.379 137.107,798.712 136,797.5C 130.678,800.578 125.178,803.245 119.5,805.5C 112.533,806.823 105.866,808.823 99.5,811.5C 88.2106,803.384 77.0439,795.05 66,786.5C 66.1276,778.437 66.9609,770.437 68.5,762.5C 75.4263,756.694 82.7597,751.361 90.5,746.5 Z"/></g>
<g><path style="opacity:1" fill="#962e9c" d="M 151.5,772.5 C 151.524,785.052 150.857,797.385 149.5,809.5C 145.465,805.134 141.465,800.801 137.5,796.5C 133.579,788.99 129.912,781.324 126.5,773.5C 128.792,774.624 130.958,775.957 133,777.5C 139.028,775.285 145.195,773.618 151.5,772.5 Z"/></g>
<g><path style="opacity:1" fill="#b435bb" d="M 179.5,764.5 C 181.48,776.789 182.147,789.456 181.5,802.5C 171.401,805.945 161.068,808.945 150.5,811.5C 150.167,810.833 149.833,810.167 149.5,809.5C 150.857,797.385 151.524,785.052 151.5,772.5C 160.564,769.261 169.897,766.595 179.5,764.5 Z"/></g>
<g><path style="opacity:1" fill="#2f2d58" d="M 199.5,758.5 C 202.185,763.089 205.685,767.089 210,770.5C 213.061,774.719 215.894,779.052 218.5,783.5C 220.275,777.817 221.942,772.151 223.5,766.5C 225.187,767.726 226.687,767.392 228,765.5C 229.333,766.167 230.667,766.833 232,767.5C 232.945,767.095 233.612,766.428 234,765.5C 234.308,766.308 234.808,766.975 235.5,767.5C 237.453,763.588 239.287,763.588 241,767.5C 241.308,766.692 241.808,766.025 242.5,765.5C 245.207,767.171 247.707,766.505 250,763.5C 250.956,764.894 252.289,765.561 254,765.5C 257.147,765.353 260.313,765.353 263.5,765.5C 264.5,765.333 265.5,765.167 266.5,765C 265.304,764.346 265.304,763.846 266.5,763.5C 269.801,765.616 272.968,765.283 276,762.5C 278.944,762.76 281.944,763.76 285,765.5C 287.633,764.344 290.3,763.344 293,762.5C 293.333,763.167 293.667,763.833 294,764.5C 294.77,763.402 295.603,763.402 296.5,764.5C 296.205,766.735 296.539,768.735 297.5,770.5C 259.02,781.456 220.353,792.123 181.5,802.5C 182.147,789.456 181.48,776.789 179.5,764.5C 186.027,762.327 192.694,760.327 199.5,758.5 Z"/></g>
<g><path style="opacity:1" fill="#f31b0b" d="M 874.5,816.5 C 872.688,816.229 871.022,815.562 869.5,814.5C 865.512,810.678 861.679,806.678 858,802.5C 857.805,801.181 857.972,799.847 858.5,798.5C 883.805,788.005 909.139,777.839 934.5,768C 914.336,784.001 894.336,800.167 874.5,816.5 Z"/></g>
<g><path style="opacity:1" fill="#040238" d="M 296.5,775.5 C 296.5,789.833 296.5,804.167 296.5,818.5C 273.449,828.154 250.449,837.988 227.5,848C 224.39,849.851 221.39,851.851 218.5,854C 216.26,854.977 213.927,855.477 211.5,855.5C 211.5,856.5 211.5,857.5 211.5,858.5C 210.609,857.89 209.609,857.557 208.5,857.5C 199.565,852.864 190.565,848.531 181.5,844.5C 181.5,843.833 181.5,843.167 181.5,842.5C 181.5,830.833 181.5,819.167 181.5,807.5C 219.623,796.464 257.956,785.798 296.5,775.5 Z"/></g>
<g><path style="opacity:1" fill="#d64f18" d="M 790.5,749.5 C 788.508,749.328 786.842,749.995 785.5,751.5C 784.784,750.689 783.95,750.022 783,749.5C 781.161,750.672 779.661,752.172 778.5,754C 771.211,757.804 763.878,761.304 756.5,764.5C 756.5,765.5 756.5,766.5 756.5,767.5C 750.343,769.745 745.01,773.245 740.5,778C 733.81,782.208 726.81,785.708 719.5,788.5C 719.5,789.833 719.5,791.167 719.5,792.5C 744.85,794.668 770.183,797.001 795.5,799.5C 795.5,800.5 795.5,801.5 795.5,802.5C 791.626,803.761 787.626,804.428 783.5,804.5C 783.719,805.675 783.386,806.675 782.5,807.5C 780.998,808.083 779.665,808.916 778.5,810C 761.579,817.223 745.579,824.89 730.5,833C 727.905,833.889 725.905,835.389 724.5,837.5C 723.167,837.5 721.833,837.5 720.5,837.5C 719.886,824.793 718.72,812.126 717,799.5C 717.03,796.639 716.197,794.305 714.5,792.5C 715.609,791.121 716.276,789.455 716.5,787.5C 715.351,778.432 714.351,770.099 713.5,762.5C 728.98,751.922 744.313,741.089 759.5,730C 772.553,727.356 785.553,724.523 798.5,721.5C 799.583,722.365 799.749,723.365 799,724.5C 794.022,732.124 789.855,740.124 786.5,748.5C 788.099,748.232 789.432,748.566 790.5,749.5 Z"/></g>
<g><path style="opacity:1" fill="#c62626" d="M 714.5,792.5 C 716.197,794.305 717.03,796.639 717,799.5C 718.72,812.126 719.886,824.793 720.5,837.5C 704.062,845.387 687.395,852.72 670.5,859.5C 668.228,858.681 665.894,858.015 663.5,857.5C 658.187,854.509 652.854,851.509 647.5,848.5C 638.735,840.734 629.402,833.734 619.5,827.5C 651.342,816.069 683.009,804.402 714.5,792.5 Z"/></g>
<g><path style="opacity:1" fill="#2c84dc" d="M 62.5,766.5 C 62.8333,766.5 63.1667,766.5 63.5,766.5C 62.3364,773.802 61.8364,781.136 62,788.5C 73.0186,796.697 83.8519,805.03 94.5,813.5C 90.0883,814.97 85.755,816.637 81.5,818.5C 81.6107,817.883 81.944,817.383 82.5,817C 72.3518,805.351 62.0185,793.851 51.5,782.5C 55.1921,777.149 58.8588,771.815 62.5,766.5 Z"/></g>
<g><path style="opacity:1" fill="#4a6de1" d="M 137.5,796.5 C 141.465,800.801 145.465,805.134 149.5,809.5C 149.833,810.167 150.167,810.833 150.5,811.5C 139.544,814.656 128.544,817.656 117.5,820.5C 117.747,815.433 118.413,810.433 119.5,805.5C 125.178,803.245 130.678,800.578 136,797.5C 137.107,798.712 137.607,798.379 137.5,796.5 Z"/></g>
<g><path style="opacity:1" fill="#db260e" d="M 858.5,798.5 C 857.972,799.847 857.805,801.181 858,802.5C 861.679,806.678 865.512,810.678 869.5,814.5C 871.022,815.562 872.688,816.229 874.5,816.5C 850.457,824.735 826.123,832.402 801.5,839.5C 802.122,837.665 803.456,836.498 805.5,836C 804.167,835.667 802.833,835.333 801.5,835C 804.49,834.103 807.49,833.269 810.5,832.5C 812.411,829.878 814.745,827.711 817.5,826C 831.367,817.679 844.033,808.846 855.5,799.5C 856.609,799.443 857.609,799.11 858.5,798.5 Z"/></g>
<g><path style="opacity:1" fill="#ab0eb4" d="M 181.5,807.5 C 181.5,819.167 181.5,830.833 181.5,842.5C 171.855,833.854 162.855,824.52 154.5,814.5C 163.458,812.011 172.458,809.677 181.5,807.5 Z"/></g>
<g><path style="opacity:1" fill="#e02d2c" d="M 590.5,807.5 C 591.552,807.351 592.552,807.517 593.5,808C 602.166,814.606 610.833,821.106 619.5,827.5C 629.402,833.734 638.735,840.734 647.5,848.5C 652.854,851.509 658.187,854.509 663.5,857.5C 663.539,858.583 663.873,859.583 664.5,860.5C 637.815,866.469 610.815,870.135 583.5,871.5C 577.394,856.695 571.561,841.695 566,826.5C 565.505,824.527 565.338,822.527 565.5,820.5C 573.719,815.98 582.052,811.647 590.5,807.5 Z"/></g>
<g><path style="opacity:1" fill="#2a73e1" d="M 94.5,813.5 C 100.289,817.449 105.956,821.616 111.5,826C 113.107,825.981 114.774,825.815 116.5,825.5C 114.804,842.564 112.804,859.564 110.5,876.5C 109.143,885.749 108.143,895.083 107.5,904.5C 92.8642,887.023 78.3642,869.356 64,851.5C 64.8331,840.494 65.9998,829.494 67.5,818.5C 72.1667,818.5 76.8333,818.5 81.5,818.5C 85.755,816.637 90.0883,814.97 94.5,813.5 Z"/></g>
<g><path style="opacity:1" fill="#2753e4" d="M 154.5,814.5 C 162.855,824.52 171.855,833.854 181.5,842.5C 181.5,843.167 181.5,843.833 181.5,844.5C 180.504,844.586 179.671,844.252 179,843.5C 178.517,844.448 178.351,845.448 178.5,846.5C 171.691,847.993 165.358,850.66 159.5,854.5C 155.808,855.564 152.142,856.73 148.5,858C 136.323,864.92 123.657,871.087 110.5,876.5C 112.804,859.564 114.804,842.564 116.5,825.5C 129.06,821.526 141.727,817.859 154.5,814.5 Z"/></g>
<g><path style="opacity:1" fill="#4b86df" d="M 119.5,805.5 C 118.413,810.433 117.747,815.433 117.5,820.5C 115.598,821.511 113.598,821.678 111.5,821C 107.601,817.589 103.601,814.422 99.5,811.5C 105.866,808.823 112.533,806.823 119.5,805.5 Z"/></g>
<g><path style="opacity:1" fill="#2a012b" d="M 296.5,818.5 C 297.158,845.854 296.491,872.854 294.5,899.5C 266.776,886.031 239.109,872.365 211.5,858.5C 211.5,857.5 211.5,856.5 211.5,855.5C 213.927,855.477 216.26,854.977 218.5,854C 221.39,851.851 224.39,849.851 227.5,848C 250.449,837.988 273.449,828.154 296.5,818.5 Z"/></g>
<g><path style="opacity:1" fill="#9c0ca9" d="M 359.5,821.5 C 362.899,822.016 366.232,822.85 369.5,824C 378.023,827.686 386.523,831.186 395,834.5C 395.902,834.257 396.735,833.923 397.5,833.5C 397.5,834.833 398.167,835.5 399.5,835.5C 399.369,836.376 399.702,837.043 400.5,837.5C 420.278,845.521 439.945,853.687 459.5,862C 462.117,862.822 464.784,863.322 467.5,863.5C 455.52,870.468 443.52,877.468 431.5,884.5C 412.773,888.849 394.107,893.183 375.5,897.5C 375.918,896.778 376.584,896.278 377.5,896C 366.962,885.46 356.128,875.293 345,865.5C 343.306,863.76 342.139,861.76 341.5,859.5C 339.011,859.759 337.344,858.759 336.5,856.5C 338.083,855.064 339.583,853.398 341,851.5C 347.054,841.312 353.22,831.312 359.5,821.5 Z"/></g>
<g><path style="opacity:1" fill="#bc3737" d="M 565.5,820.5 C 565.338,822.527 565.505,824.527 566,826.5C 571.561,841.695 577.394,856.695 583.5,871.5C 579.48,873.641 574.98,874.974 570,875.5C 556.917,877.698 543.751,879.031 530.5,879.5C 530.614,876.784 529.614,874.784 527.5,873.5C 523.674,857.768 519.007,842.434 513.5,827.5C 513.427,825.973 514.094,824.973 515.5,824.5C 516.105,826.026 517.271,827.026 519,827.5C 533.265,825.154 547.765,823.321 562.5,822C 563.244,820.961 564.244,820.461 565.5,820.5 Z"/></g>
<g><path style="opacity:1" fill="#7510b7" d="M 297.5,819.5 C 310.855,831.524 323.855,843.857 336.5,856.5C 337.344,858.759 339.011,859.759 341.5,859.5C 342.139,861.76 343.306,863.76 345,865.5C 356.128,875.293 366.962,885.46 377.5,896C 376.584,896.278 375.918,896.778 375.5,897.5C 371.41,899.075 367.077,900.075 362.5,900.5C 352.167,900.5 341.833,900.5 331.5,900.5C 320.167,900.5 308.833,900.5 297.5,900.5C 297.5,873.5 297.5,846.5 297.5,819.5 Z"/></g>
<g><path style="opacity:1" fill="#6d06cd" d="M 511.5,828.5 C 506.073,835.683 500.406,842.683 494.5,849.5C 485.343,853.912 476.343,858.578 467.5,863.5C 464.784,863.322 462.117,862.822 459.5,862C 439.945,853.687 420.278,845.521 400.5,837.5C 399.702,837.043 399.369,836.376 399.5,835.5C 433.288,832.607 467.121,829.94 501,827.5C 504.779,828.048 508.279,828.381 511.5,828.5 Z"/></g>
<g><path style="opacity:1" fill="#69178a" d="M 296.5,775.5 C 296.833,775.5 297.167,775.5 297.5,775.5C 297.5,790.167 297.5,804.833 297.5,819.5C 297.5,846.5 297.5,873.5 297.5,900.5C 296.833,900.5 296.167,900.5 295.5,900.5C 294.833,900.5 294.5,900.167 294.5,899.5C 296.491,872.854 297.158,845.854 296.5,818.5C 296.5,804.167 296.5,789.833 296.5,775.5 Z"/></g>
<g><path style="opacity:1" fill="#d61314" d="M 512.5,827.5 C 512.833,827.5 513.167,827.5 513.5,827.5C 519.007,842.434 523.674,857.768 527.5,873.5C 531.912,886.984 536.245,900.484 540.5,914C 542.392,915.313 542.726,916.813 541.5,918.5C 536.709,922.068 531.709,925.402 526.5,928.5C 521.255,927.093 516.921,924.259 513.5,920C 504.158,914.329 495.158,908.162 486.5,901.5C 487.862,883.934 490.528,866.601 494.5,849.5C 500.406,842.683 506.073,835.683 511.5,828.5C 512.167,828.5 512.5,828.167 512.5,827.5 Z"/></g>
<g><path style="opacity:1" fill="#252fe7" d="M 181.5,844.5 C 190.565,848.531 199.565,852.864 208.5,857.5C 208.5,858.167 208.5,858.833 208.5,859.5C 202.816,862.691 198.649,867.358 196,873.5C 187.239,883.748 178.739,894.081 170.5,904.5C 149.5,904.5 128.5,904.5 107.5,904.5C 108.143,895.083 109.143,885.749 110.5,876.5C 123.657,871.087 136.323,864.92 148.5,858C 152.142,856.73 155.808,855.564 159.5,854.5C 165.358,850.66 171.691,847.993 178.5,846.5C 178.351,845.448 178.517,844.448 179,843.5C 179.671,844.252 180.504,844.586 181.5,844.5 Z"/></g>
<g><path style="opacity:1" fill="#da125f" d="M 494.5,849.5 C 490.528,866.601 487.862,883.934 486.5,901.5C 483.175,920.093 480.175,938.76 477.5,957.5C 482.742,957.977 487.742,957.144 492.5,955C 509.612,952.737 526.612,949.903 543.5,946.5C 540.081,951.668 536.414,956.668 532.5,961.5C 527.489,967.346 522.655,973.346 518,979.5C 516.181,981.503 514.015,982.836 511.5,983.5C 511.5,984.5 511.5,985.5 511.5,986.5C 508.5,986.5 505.5,986.5 502.5,986.5C 494.626,977.271 486.626,968.105 478.5,959C 471.122,959.339 463.789,960.339 456.5,962C 447.228,964.818 437.895,967.318 428.5,969.5C 429.263,968.732 430.263,968.232 431.5,968C 430.505,940.574 430.172,913.074 430.5,885.5C 431.167,885.5 431.5,885.167 431.5,884.5C 443.52,877.468 455.52,870.468 467.5,863.5C 476.343,858.578 485.343,853.912 494.5,849.5 Z"/></g>
<g><path style="opacity:1" fill="#d13332" d="M 663.5,857.5 C 665.894,858.015 668.228,858.681 670.5,859.5C 669.34,860.265 668.34,861.265 667.5,862.5C 669.612,865.75 671.945,868.75 674.5,871.5C 674.5,871.833 674.5,872.167 674.5,872.5C 658.233,887.422 641.566,902.089 624.5,916.5C 623.576,918.39 622.243,919.89 620.5,921C 623.036,921.186 625.369,921.686 627.5,922.5C 623.097,922.557 619.097,922.224 615.5,921.5C 586.781,908.262 558.448,894.262 530.5,879.5C 543.751,879.031 556.917,877.698 570,875.5C 574.98,874.974 579.48,873.641 583.5,871.5C 610.815,870.135 637.815,866.469 664.5,860.5C 663.873,859.583 663.539,858.583 663.5,857.5 Z"/></g>
<g><path style="opacity:1" fill="#2457ea" d="M 208.5,859.5 C 208.798,889.124 208.465,918.457 207.5,947.5C 203.364,942.519 199.364,937.352 195.5,932C 184.579,929.395 173.745,926.562 163,923.5C 165.445,917.256 167.945,910.922 170.5,904.5C 178.739,894.081 187.239,883.748 196,873.5C 198.649,867.358 202.816,862.691 208.5,859.5 Z"/></g>
<g><path style="opacity:1" fill="#5c21ec" d="M 208.5,857.5 C 209.609,857.557 210.609,857.89 211.5,858.5C 239.109,872.365 266.776,886.031 294.5,899.5C 294.5,900.167 294.833,900.5 295.5,900.5C 288.33,906.175 280.664,911.509 272.5,916.5C 271.614,917.325 271.281,918.325 271.5,919.5C 263.49,920.992 257.156,925.159 252.5,932C 244.214,935.026 236.881,939.526 230.5,945.5C 226.427,947.537 222.427,949.537 218.5,951.5C 215.962,951.493 213.462,951.159 211,950.5C 209.092,950.285 207.926,949.285 207.5,947.5C 208.465,918.457 208.798,889.124 208.5,859.5C 208.5,858.833 208.5,858.167 208.5,857.5 Z"/></g>
<g><path style="opacity:1" fill="#f77973" d="M 674.5,872.5 C 674.5,872.167 674.5,871.833 674.5,871.5C 690.514,871.167 706.514,871.501 722.5,872.5C 722.376,873.107 722.043,873.44 721.5,873.5C 706.342,872.504 691.009,872.17 675.5,872.5C 675.167,872.5 674.833,872.5 674.5,872.5 Z"/></g>
<g><path style="opacity:1" fill="#e41d1c" d="M 674.5,872.5 C 674.833,872.5 675.167,872.5 675.5,872.5C 674.467,875.499 675.467,877.833 678.5,879.5C 680.946,886.063 683.113,892.73 685,899.5C 686.683,900.887 687.85,902.553 688.5,904.5C 681.063,910.763 673.73,917.263 666.5,924C 653.497,923.904 640.497,923.404 627.5,922.5C 625.369,921.686 623.036,921.186 620.5,921C 622.243,919.89 623.576,918.39 624.5,916.5C 641.566,902.089 658.233,887.422 674.5,872.5 Z"/></g>
<g><path style="opacity:1" fill="#bb1817" d="M 527.5,873.5 C 529.614,874.784 530.614,876.784 530.5,879.5C 558.448,894.262 586.781,908.262 615.5,921.5C 591.104,920.642 566.438,919.642 541.5,918.5C 542.726,916.813 542.392,915.313 540.5,914C 536.245,900.484 531.912,886.984 527.5,873.5 Z"/></g>
<g><path style="opacity:1" fill="#f6140f" d="M 675.5,872.5 C 691.009,872.17 706.342,872.504 721.5,873.5C 713.194,878.322 704.861,883.155 696.5,888C 716.569,886.437 736.569,884.437 756.5,882C 733.982,890.006 711.316,897.506 688.5,904.5C 687.85,902.553 686.683,900.887 685,899.5C 683.113,892.73 680.946,886.063 678.5,879.5C 675.467,877.833 674.467,875.499 675.5,872.5 Z"/></g>
<g><path style="opacity:1" fill="#b20f8c" d="M 431.5,884.5 C 431.5,885.167 431.167,885.5 430.5,885.5C 427.539,888.284 424.373,890.951 421,893.5C 415.353,901.152 409.686,908.819 404,916.5C 401.858,918.827 399.358,920.493 396.5,921.5C 395.42,925.603 393.42,929.269 390.5,932.5C 385.691,936.837 381.357,941.504 377.5,946.5C 368.362,931.837 359.029,917.17 349.5,902.5C 353.982,901.833 358.316,901.166 362.5,900.5C 367.077,900.075 371.41,899.075 375.5,897.5C 394.107,893.183 412.773,888.849 431.5,884.5 Z"/></g>
<g><path style="opacity:1" fill="#c4086b" d="M 430.5,885.5 C 430.172,913.074 430.505,940.574 431.5,968C 430.263,968.232 429.263,968.732 428.5,969.5C 407.11,965.989 385.777,962.155 364.5,958C 369.027,954.301 373.361,950.468 377.5,946.5C 381.357,941.504 385.691,936.837 390.5,932.5C 393.42,929.269 395.42,925.603 396.5,921.5C 399.358,920.493 401.858,918.827 404,916.5C 409.686,908.819 415.353,901.152 421,893.5C 424.373,890.951 427.539,888.284 430.5,885.5 Z"/></g>
<g><path style="opacity:1" fill="#a236dc" d="M 331.5,900.5 C 341.833,900.5 352.167,900.5 362.5,900.5C 358.316,901.166 353.982,901.833 349.5,902.5C 359.029,917.17 368.362,931.837 377.5,946.5C 362.854,949.296 348.188,951.963 333.5,954.5C 333.055,936.49 332.388,918.49 331.5,900.5 Z"/></g>
<g><path style="opacity:1" fill="#6f36db" d="M 295.5,900.5 C 296.167,900.5 296.833,900.5 297.5,900.5C 308.833,900.5 320.167,900.5 331.5,900.5C 332.388,918.49 333.055,936.49 333.5,954.5C 305.893,956.63 278.226,957.797 250.5,958C 239.637,956.128 228.971,953.961 218.5,951.5C 222.427,949.537 226.427,947.537 230.5,945.5C 236.881,939.526 244.214,935.026 252.5,932C 257.156,925.159 263.49,920.992 271.5,919.5C 271.281,918.325 271.614,917.325 272.5,916.5C 280.664,911.509 288.33,906.175 295.5,900.5 Z"/></g>
<g><path style="opacity:1" fill="#be0607" d="M 486.5,901.5 C 495.158,908.162 504.158,914.329 513.5,920C 516.921,924.259 521.255,927.093 526.5,928.5C 531.785,934.452 537.452,940.119 543.5,945.5C 543.5,945.833 543.5,946.167 543.5,946.5C 526.612,949.903 509.612,952.737 492.5,955C 487.742,957.144 482.742,957.977 477.5,957.5C 480.175,938.76 483.175,920.093 486.5,901.5 Z"/></g>
<g><path style="opacity:1" fill="#930b4e" d="M 580.5,969.5 C 579.005,969.585 578.005,968.919 577.5,967.5C 581.394,964.055 585.06,960.388 588.5,956.5C 588.839,950.456 589.506,944.456 590.5,938.5C 610.666,943.888 630.666,949.888 650.5,956.5C 627.283,961.481 603.949,965.814 580.5,969.5 Z"/></g>
<g><path style="opacity:1" fill="#a02159" d="M 543.5,945.5 C 558.271,949.942 573.271,953.609 588.5,956.5C 585.06,960.388 581.394,964.055 577.5,967.5C 578.005,968.919 579.005,969.585 580.5,969.5C 578.26,970.264 575.927,971.098 573.5,972C 581.875,973.844 590.208,975.844 598.5,978C 591.728,980.368 584.895,982.535 578,984.5C 576.97,984.836 576.47,985.503 576.5,986.5C 574.167,986.5 571.833,986.5 569.5,986.5C 567.992,983.494 565.659,981.327 562.5,980C 553.351,975.592 544.351,970.926 535.5,966C 533.859,964.871 532.859,963.371 532.5,961.5C 536.414,956.668 540.081,951.668 543.5,946.5C 543.5,946.167 543.5,945.833 543.5,945.5 Z"/></g>
<g><path style="opacity:1" fill="#c60a57" d="M 532.5,961.5 C 532.859,963.371 533.859,964.871 535.5,966C 544.351,970.926 553.351,975.592 562.5,980C 565.659,981.327 567.992,983.494 569.5,986.5C 550.167,986.5 530.833,986.5 511.5,986.5C 511.5,985.5 511.5,984.5 511.5,983.5C 514.015,982.836 516.181,981.503 518,979.5C 522.655,973.346 527.489,967.346 532.5,961.5 Z"/></g>
</svg>
