<?xml version="1.0" encoding="UTF-8"?>
<!DOCTYPE svg PUBLIC "-//W3C//DTD SVG 1.1//EN" "http://www.w3.org/Graphics/SVG/1.1/DTD/svg11.dtd">
<svg xmlns="http://www.w3.org/2000/svg" version="1.1" width="1876px" height="1876px" style="shape-rendering:geometricPrecision; text-rendering:geometricPrecision; image-rendering:optimizeQuality; fill-rule:evenodd; clip-rule:evenodd" xmlns:xlink="http://www.w3.org/1999/xlink">
<g><path style="opacity:0.999" fill="#cdcdcd" d="M 893.5,0.5 C 954.091,-1.41593 1014.42,1.58407 1074.5,9.5C 1077.06,9.19845 1079.39,9.53178 1081.5,10.5C 1085.24,11.9891 1089.24,12.6558 1093.5,12.5C 1097.95,12.6314 1102.29,13.298 1106.5,14.5C 1112.33,17.6011 1118.66,18.9344 1125.5,18.5C 1125.61,19.1174 1125.94,19.6174 1126.5,20C 1129.48,20.498 1132.48,20.6646 1135.5,20.5C 1141.75,21.2315 1147.75,22.5648 1153.5,24.5C 1153.61,25.1174 1153.94,25.6174 1154.5,26C 1156.81,26.4966 1159.14,26.6633 1161.5,26.5C 1311.86,63.625 1444.53,133.125 1559.5,235C 1711.17,370.887 1809.67,538.721 1855,738.5C 1866.04,791.784 1872.87,845.451 1875.5,899.5C 1875.5,926.5 1875.5,953.5 1875.5,980.5C 1873.79,1006.04 1871.79,1031.71 1869.5,1057.5C 1868.76,1060.36 1868.09,1063.36 1867.5,1066.5C 1848,1066.83 1828.5,1067.17 1809,1067.5C 1465.17,1068.46 1121.33,1068.79 777.5,1068.5C 777.5,716.5 777.5,364.5 777.5,12.5C 815.879,5.86206 854.546,1.86206 893.5,0.5 Z"/></g>
<g><path style="opacity:0.263" fill="#2b2b2b" d="M 893.5,0.5 C 893.5,0.166667 893.5,-0.166667 893.5,-0.5C 922.833,-0.5 952.167,-0.5 981.5,-0.5C 1012.66,1.3156 1043.66,4.64893 1074.5,9.5C 1014.42,1.58407 954.091,-1.41593 893.5,0.5 Z"/></g>
<g><path style="opacity:0.225" fill="#1e1e1e" d="M 1081.5,10.5 C 1085.73,10.5387 1089.73,11.2053 1093.5,12.5C 1089.24,12.6558 1085.24,11.9891 1081.5,10.5 Z"/></g>
<g><path style="opacity:0.999" fill="#000000" d="M 777.5,12.5 C 777.5,364.5 777.5,716.5 777.5,1068.5C 1121.33,1068.79 1465.17,1068.46 1809,1067.5C 1828.5,1067.17 1848,1066.83 1867.5,1066.5C 1868.09,1063.36 1868.76,1060.36 1869.5,1057.5C 1859.78,1123.7 1844.12,1188.36 1822.5,1251.5C 1474.5,1249.5 1126.17,1248.83 777.5,1249.5C 777.5,1453.5 777.5,1657.5 777.5,1861.5C 778.5,1861.5 779.5,1861.5 780.5,1861.5C 721.11,1852.65 663.11,1837.48 606.5,1816C 507.348,1778.46 417.348,1726.12 336.5,1659C 333.882,1656.89 331.882,1654.39 330.5,1651.5C 330.833,1651.5 331.167,1651.5 331.5,1651.5C 331.56,1652.04 331.893,1652.38 332.5,1652.5C 333.833,1518 333.833,1383.67 332.5,1249.5C 239.827,1248.84 147.494,1249.5 55.5,1251.5C 54.5,1251.5 53.5,1251.5 52.5,1251.5C 31.5476,1191.69 16.8809,1130.36 8.5,1067.5C 116.494,1068.46 224.494,1068.79 332.5,1068.5C 332.5,799.167 332.5,529.833 332.5,260.5C 333.148,247.124 332.481,234.124 330.5,221.5C 460.287,112.46 609.287,42.7935 777.5,12.5 Z"/></g>
<g><path style="opacity:0.976" fill="#5b5b5b" d="M 1106.5,14.5 C 1113.06,15.3435 1119.39,16.6768 1125.5,18.5C 1118.66,18.9344 1112.33,17.6011 1106.5,14.5 Z"/></g>
<g><path style="opacity:0.969" fill="#646464" d="M 1125.5,18.5 C 1129.08,18.5488 1132.41,19.2154 1135.5,20.5C 1132.48,20.6646 1129.48,20.498 1126.5,20C 1125.94,19.6174 1125.61,19.1174 1125.5,18.5 Z"/></g>
<g><path style="opacity:0.955" fill="#646464" d="M 1153.5,24.5 C 1156.43,24.5651 1159.09,25.2318 1161.5,26.5C 1159.14,26.6633 1156.81,26.4966 1154.5,26C 1153.94,25.6174 1153.61,25.1174 1153.5,24.5 Z"/></g>
<g><path style="opacity:1" fill="#070707" d="M 1064.5,203.5 C 1062.85,203.66 1061.51,204.326 1060.5,205.5C 1051.8,206.736 1045.64,203.403 1042,195.5C 1040.71,180.452 1047.55,173.952 1062.5,176C 1070.11,180.386 1072.94,186.886 1071,195.5C 1069.52,198.828 1067.35,201.494 1064.5,203.5 Z"/></g>
<g><path style="opacity:1" fill="#050505" d="M 1153.5,204.5 C 1142.57,194.571 1142.9,185.071 1154.5,176C 1166.18,173.496 1173.18,177.996 1175.5,189.5C 1173.99,202.929 1166.65,207.929 1153.5,204.5 Z"/></g>
<g><path style="opacity:1" fill="#464646" d="M 1064.5,203.5 C 1094,204.498 1123.66,204.831 1153.5,204.5C 1153.5,204.833 1153.5,205.167 1153.5,205.5C 1123.17,205.5 1092.83,205.5 1062.5,205.5C 1061.83,205.5 1061.17,205.5 1060.5,205.5C 1061.51,204.326 1062.85,203.66 1064.5,203.5 Z"/></g>
<g><path style="opacity:1" fill="#010101" d="M 1062.5,205.5 C 1092.83,205.5 1123.17,205.5 1153.5,205.5C 1141,265.816 1128.67,326.149 1116.5,386.5C 1118.07,387.631 1119.74,387.798 1121.5,387C 1178.79,374.846 1236.12,362.679 1293.5,350.5C 1293.5,381.833 1293.5,413.167 1293.5,444.5C 1235.16,433.131 1176.99,420.798 1119,407.5C 1118.5,407.833 1118,408.167 1117.5,408.5C 1130.15,468.405 1142.15,528.405 1153.5,588.5C 1123.17,588.5 1092.83,588.5 1062.5,588.5C 1074.29,528.198 1085.96,467.865 1097.5,407.5C 1039.34,418.995 981.342,431.328 923.5,444.5C 922.833,444.833 922.167,445.167 921.5,445.5C 923.373,460.459 916.707,466.959 901.5,465C 893.63,459.723 891.13,452.556 894,443.5C 898.93,435.607 905.763,433.44 914.5,437C 916.618,438.049 918.284,439.549 919.5,441.5C 919.783,442.289 920.283,442.956 921,443.5C 921.5,412.502 921.667,381.502 921.5,350.5C 980.119,363.257 1038.79,375.924 1097.5,388.5C 1098.17,388.167 1098.83,387.833 1099.5,387.5C 1087.17,326.851 1074.84,266.184 1062.5,205.5 Z"/></g>
<g><path style="opacity:0.997" fill="#cda418" d="M 332.5,260.5 C 332.5,529.833 332.5,799.167 332.5,1068.5C 224.494,1068.79 116.494,1068.46 8.5,1067.5C 7.22275,1066.31 6.55608,1064.64 6.5,1062.5C 3.0371,1027.42 0.703768,992.417 -0.5,957.5C -0.5,944.833 -0.5,932.167 -0.5,919.5C 8.33596,655.649 107.669,432.816 297.5,251C 308.002,241.997 318.335,232.83 328.5,223.5C 329.496,223.586 330.329,223.252 331,222.5C 331.169,235.34 331.669,248.007 332.5,260.5 Z"/></g>
<g><path style="opacity:1" fill="#876c10" d="M 330.5,221.5 C 332.481,234.124 333.148,247.124 332.5,260.5C 331.669,248.007 331.169,235.34 331,222.5C 330.329,223.252 329.496,223.586 328.5,223.5C 328.833,222.5 329.5,221.833 330.5,221.5 Z"/></g>
<g><path style="opacity:1" fill="#060606" d="M 921.5,349.5 C 920.599,350.29 919.932,351.29 919.5,352.5C 912.889,359.364 905.556,360.198 897.5,355C 889.766,344.857 891.1,336.191 901.5,329C 917.212,327.211 923.879,334.044 921.5,349.5 Z"/></g>
<g><path style="opacity:1" fill="#040404" d="M 1294.5,350.5 C 1291.62,342.154 1293.62,335.32 1300.5,330C 1316.69,325.858 1323.85,332.025 1322,348.5C 1316.95,358.183 1309.45,360.683 1299.5,356C 1297.6,354.27 1295.93,352.437 1294.5,350.5 Z"/></g>
<g><path style="opacity:1" fill="#575757" d="M 1293.5,350.5 C 1293.83,350.5 1294.17,350.5 1294.5,350.5C 1294.17,381.338 1294.5,412.005 1295.5,442.5C 1295.01,443.995 1294.34,445.329 1293.5,446.5C 1293.5,445.833 1293.5,445.167 1293.5,444.5C 1293.5,413.167 1293.5,381.833 1293.5,350.5 Z"/></g>
<g><path style="opacity:1" fill="#a8a8a8" d="M 921.5,349.5 C 921.5,349.833 921.5,350.167 921.5,350.5C 921.667,381.502 921.5,412.502 921,443.5C 920.283,442.956 919.783,442.289 919.5,441.5C 920.833,411.833 920.833,382.167 919.5,352.5C 919.932,351.29 920.599,350.29 921.5,349.5 Z"/></g>
<g><path style="opacity:1" fill="#040404" d="M 1293.5,446.5 C 1294.34,445.329 1295.01,443.995 1295.5,442.5C 1299.75,435.89 1305.75,433.723 1313.5,436C 1322.48,441.215 1324.98,448.715 1321,458.5C 1316.43,464.802 1310.27,466.969 1302.5,465C 1295.36,460.886 1292.36,454.719 1293.5,446.5 Z"/></g>
<g><path style="opacity:1" fill="#4bac41" d="M 196.5,818.5 C 197.552,818.351 198.552,818.517 199.5,819C 197.484,821.289 195.151,821.789 192.5,820.5C 189.921,821.706 187.421,823.039 185,824.5C 182,823.167 179,821.833 176,820.5C 175.83,811.657 175.33,802.99 174.5,794.5C 155.5,786.917 136.666,778.917 118,770.5C 118.011,766.775 118.677,763.108 120,759.5C 129.772,729.127 139.606,698.793 149.5,668.5C 148.667,668.167 147.833,667.833 147,667.5C 138.499,668.219 129.999,668.886 121.5,669.5C 141.632,600.236 162.632,531.236 184.5,462.5C 205.902,531.04 226.902,599.706 247.5,668.5C 238.165,669.12 228.832,668.787 219.5,667.5C 229.76,701.282 240.427,734.948 251.5,768.5C 250.811,770.353 249.478,771.519 247.5,772C 230.167,779.333 212.833,786.667 195.5,794C 194.848,798.085 194.515,802.252 194.5,806.5C 194.509,810.893 195.176,814.893 196.5,818.5 Z"/></g>
<g><path style="opacity:1" fill="#000000" d="M 1430.5,511.5 C 1451.83,511.5 1473.17,511.5 1494.5,511.5C 1494.5,521.5 1494.5,531.5 1494.5,541.5C 1501.83,541.5 1509.17,541.5 1516.5,541.5C 1516.5,559.5 1516.5,577.5 1516.5,595.5C 1508.98,595.175 1501.65,595.508 1494.5,596.5C 1494.5,633.167 1494.5,669.833 1494.5,706.5C 1528.33,707.498 1562.33,707.832 1596.5,707.5C 1596.5,699.167 1596.5,690.833 1596.5,682.5C 1612.83,682.5 1629.17,682.5 1645.5,682.5C 1645.17,690.684 1645.51,698.684 1646.5,706.5C 1655.32,707.493 1664.32,707.827 1673.5,707.5C 1673.5,730.5 1673.5,753.5 1673.5,776.5C 1664.5,776.5 1655.5,776.5 1646.5,776.5C 1645.51,784.316 1645.17,792.316 1645.5,800.5C 1629.17,800.5 1612.83,800.5 1596.5,800.5C 1596.5,792.5 1596.5,784.5 1596.5,776.5C 1562.5,776.5 1528.5,776.5 1494.5,776.5C 1494.5,813.5 1494.5,850.5 1494.5,887.5C 1501.83,887.5 1509.17,887.5 1516.5,887.5C 1516.5,905.5 1516.5,923.5 1516.5,941.5C 1508.98,941.175 1501.65,941.508 1494.5,942.5C 1493.51,951.986 1493.17,961.652 1493.5,971.5C 1472.5,971.5 1451.5,971.5 1430.5,971.5C 1430.5,961.833 1430.5,952.167 1430.5,942.5C 1423.35,941.508 1416.02,941.175 1408.5,941.5C 1408.5,923.833 1408.5,906.167 1408.5,888.5C 1416.02,888.825 1423.35,888.492 1430.5,887.5C 1430.5,850.5 1430.5,813.5 1430.5,776.5C 1396.5,776.5 1362.5,776.5 1328.5,776.5C 1327.51,784.316 1327.17,792.316 1327.5,800.5C 1311.5,800.5 1295.5,800.5 1279.5,800.5C 1279.83,792.316 1279.49,784.316 1278.5,776.5C 1269.5,776.5 1260.5,776.5 1251.5,776.5C 1251.5,753.5 1251.5,730.5 1251.5,707.5C 1260.68,707.827 1269.68,707.493 1278.5,706.5C 1278.5,698.5 1278.5,690.5 1278.5,682.5C 1295.17,682.5 1311.83,682.5 1328.5,682.5C 1328.5,690.5 1328.5,698.5 1328.5,706.5C 1362.33,707.498 1396.33,707.832 1430.5,707.5C 1430.5,670.167 1430.5,632.833 1430.5,595.5C 1422.83,595.5 1415.17,595.5 1407.5,595.5C 1407.5,577.5 1407.5,559.5 1407.5,541.5C 1415.17,541.5 1422.83,541.5 1430.5,541.5C 1430.5,531.5 1430.5,521.5 1430.5,511.5 Z"/></g>
<g><path style="opacity:1" fill="#9f9f9f" d="M 1430.5,511.5 C 1430.5,521.5 1430.5,531.5 1430.5,541.5C 1422.83,541.5 1415.17,541.5 1407.5,541.5C 1414.65,540.508 1421.98,540.175 1429.5,540.5C 1429.17,530.652 1429.51,520.986 1430.5,511.5 Z"/></g>
<g><path style="opacity:1" fill="#535353" d="M 1516.5,541.5 C 1517.5,559.659 1517.83,577.992 1517.5,596.5C 1509.83,596.5 1502.17,596.5 1494.5,596.5C 1501.65,595.508 1508.98,595.175 1516.5,595.5C 1516.5,577.5 1516.5,559.5 1516.5,541.5 Z"/></g>
<g><path style="opacity:1" fill="#585858" d="M 1060.5,588.5 C 1061.17,588.5 1061.83,588.5 1062.5,588.5C 1092.83,588.5 1123.17,588.5 1153.5,588.5C 1153.5,588.833 1153.5,589.167 1153.5,589.5C 1123.33,589.169 1093.33,589.502 1063.5,590.5C 1062.29,590.068 1061.29,589.401 1060.5,588.5 Z"/></g>
<g><path style="opacity:1" fill="#060606" d="M 1060.5,588.5 C 1061.29,589.401 1062.29,590.068 1063.5,590.5C 1071.42,595.15 1073.59,601.817 1070,610.5C 1064.68,618.453 1057.52,620.619 1048.5,617C 1038.89,607.522 1039.22,598.522 1049.5,590C 1053.03,588.663 1056.69,588.163 1060.5,588.5 Z"/></g>
<g><path style="opacity:1" fill="#060606" d="M 1153.5,589.5 C 1169,586.508 1176.17,592.841 1175,608.5C 1170.81,617.177 1163.98,620.343 1154.5,618C 1142.92,608.757 1142.59,599.257 1153.5,589.5 Z"/></g>
<g><path style="opacity:1" fill="#8a8a8a" d="M 1407.5,595.5 C 1415.17,595.5 1422.83,595.5 1430.5,595.5C 1430.5,632.833 1430.5,670.167 1430.5,707.5C 1396.33,707.832 1362.33,707.498 1328.5,706.5C 1362.17,706.5 1395.83,706.5 1429.5,706.5C 1429.5,669.833 1429.5,633.167 1429.5,596.5C 1421.98,596.825 1414.65,596.492 1407.5,595.5 Z"/></g>
<g><path style="opacity:1" fill="#606060" d="M 1646.5,706.5 C 1645.51,698.684 1645.17,690.684 1645.5,682.5C 1629.17,682.5 1612.83,682.5 1596.5,682.5C 1596.5,690.833 1596.5,699.167 1596.5,707.5C 1562.33,707.832 1528.33,707.498 1494.5,706.5C 1528.17,706.5 1561.83,706.5 1595.5,706.5C 1595.5,698.167 1595.5,689.833 1595.5,681.5C 1612.5,681.5 1629.5,681.5 1646.5,681.5C 1646.5,689.833 1646.5,698.167 1646.5,706.5 Z"/></g>
<g><path style="opacity:1" fill="#595959" d="M 1278.5,706.5 C 1269.68,707.493 1260.68,707.827 1251.5,707.5C 1251.5,730.5 1251.5,753.5 1251.5,776.5C 1250.5,753.339 1250.17,730.006 1250.5,706.5C 1259.83,706.5 1269.17,706.5 1278.5,706.5 Z"/></g>
<g><path style="opacity:1" fill="#6f6f6f" d="M 1646.5,706.5 C 1655.83,706.5 1665.17,706.5 1674.5,706.5C 1674.83,730.006 1674.5,753.339 1673.5,776.5C 1673.5,753.5 1673.5,730.5 1673.5,707.5C 1664.32,707.827 1655.32,707.493 1646.5,706.5 Z"/></g>
<g><path style="opacity:1" fill="#a8a8a8" d="M 1328.5,776.5 C 1362.5,776.5 1396.5,776.5 1430.5,776.5C 1430.5,813.5 1430.5,850.5 1430.5,887.5C 1422.83,887.5 1415.17,887.5 1407.5,887.5C 1414.65,886.508 1421.98,886.175 1429.5,886.5C 1429.5,850.167 1429.5,813.833 1429.5,777.5C 1396.17,777.5 1362.83,777.5 1329.5,777.5C 1329.83,785.684 1329.49,793.684 1328.5,801.5C 1328.5,793.167 1328.5,784.833 1328.5,776.5 Z"/></g>
<g><path style="opacity:1" fill="#b6b6b6" d="M 1596.5,800.5 C 1596.5,800.833 1596.5,801.167 1596.5,801.5C 1595.51,793.684 1595.17,785.684 1595.5,777.5C 1562.17,777.5 1528.83,777.5 1495.5,777.5C 1495.5,813.833 1495.5,850.167 1495.5,886.5C 1503.02,886.175 1510.35,886.508 1517.5,887.5C 1517.17,887.5 1516.83,887.5 1516.5,887.5C 1509.17,887.5 1501.83,887.5 1494.5,887.5C 1494.5,850.5 1494.5,813.5 1494.5,776.5C 1528.5,776.5 1562.5,776.5 1596.5,776.5C 1596.5,784.5 1596.5,792.5 1596.5,800.5 Z"/></g>
<g><path style="opacity:1" fill="#252525" d="M 1278.5,776.5 C 1279.49,784.316 1279.83,792.316 1279.5,800.5C 1295.5,800.5 1311.5,800.5 1327.5,800.5C 1327.17,792.316 1327.51,784.316 1328.5,776.5C 1328.5,784.833 1328.5,793.167 1328.5,801.5C 1311.83,801.5 1295.17,801.5 1278.5,801.5C 1278.5,793.167 1278.5,784.833 1278.5,776.5 Z"/></g>
<g><path style="opacity:1" fill="#2e2e2e" d="M 1646.5,776.5 C 1646.5,784.833 1646.5,793.167 1646.5,801.5C 1629.83,801.5 1613.17,801.5 1596.5,801.5C 1596.5,801.167 1596.5,800.833 1596.5,800.5C 1612.83,800.5 1629.17,800.5 1645.5,800.5C 1645.17,792.316 1645.51,784.316 1646.5,776.5 Z"/></g>
<g><path style="opacity:1" fill="#59ac3f" d="M 174.5,794.5 C 175.33,802.99 175.83,811.657 176,820.5C 179,821.833 182,823.167 185,824.5C 187.421,823.039 189.921,821.706 192.5,820.5C 195.151,821.789 197.484,821.289 199.5,819C 198.552,818.517 197.552,818.351 196.5,818.5C 210.317,812.33 224.317,806.33 238.5,800.5C 240.446,802.044 240.946,804.044 240,806.5C 225.017,813.326 209.851,819.659 194.5,825.5C 194.334,829.846 194.501,834.179 195,838.5C 209.442,832.074 223.942,825.74 238.5,819.5C 239.086,819.709 239.586,820.043 240,820.5C 240.495,822.473 240.662,824.473 240.5,826.5C 225.149,832.341 209.983,838.674 195,845.5C 194.5,905.832 194.333,966.166 194.5,1026.5C 193.833,966.332 193.167,905.999 192.5,845.5C 189.833,846.833 187.167,848.167 184.5,849.5C 181.668,848.42 178.835,847.42 176,846.5C 175.833,906.668 175.333,966.668 174.5,1026.5C 174.833,966.163 174.5,905.83 173.5,845.5C 157.859,839.129 142.526,832.296 127.5,825C 127.938,823.08 128.605,821.246 129.5,819.5C 144.417,826.128 159.417,832.461 174.5,838.5C 174.797,834.233 174.464,830.066 173.5,826C 158.385,819.942 143.385,813.609 128.5,807C 128.014,804.973 128.014,802.807 128.5,800.5C 143.709,806.239 158.709,812.573 173.5,819.5C 174.498,811.193 174.831,802.86 174.5,794.5 Z"/></g>
<g><path style="opacity:1" fill="#48ad42" d="M 194.5,1026.5 C 214.993,1027.5 235.66,1027.83 256.5,1027.5C 256.5,1030.5 256.5,1033.5 256.5,1036.5C 208.5,1036.5 160.5,1036.5 112.5,1036.5C 112.5,1033.5 112.5,1030.5 112.5,1027.5C 133.34,1027.83 154.007,1027.5 174.5,1026.5C 175.333,966.668 175.833,906.668 176,846.5C 178.835,847.42 181.668,848.42 184.5,849.5C 187.167,848.167 189.833,846.833 192.5,845.5C 193.167,905.999 193.833,966.332 194.5,1026.5 Z"/></g>
<g><path style="opacity:1" fill="#505050" d="M 1516.5,887.5 C 1516.83,887.5 1517.17,887.5 1517.5,887.5C 1517.5,905.833 1517.5,924.167 1517.5,942.5C 1509.83,942.5 1502.17,942.5 1494.5,942.5C 1501.65,941.508 1508.98,941.175 1516.5,941.5C 1516.5,923.5 1516.5,905.5 1516.5,887.5 Z"/></g>
<g><path style="opacity:1" fill="#333333" d="M 1407.5,887.5 C 1415.17,887.5 1422.83,887.5 1430.5,887.5C 1423.35,888.492 1416.02,888.825 1408.5,888.5C 1408.5,906.167 1408.5,923.833 1408.5,941.5C 1416.02,941.175 1423.35,941.508 1430.5,942.5C 1422.83,942.5 1415.17,942.5 1407.5,942.5C 1407.5,924.167 1407.5,905.833 1407.5,887.5 Z"/></g>
<g><path style="opacity:1" fill="#545454" d="M 1494.5,942.5 C 1494.5,952.5 1494.5,962.5 1494.5,972.5C 1472.99,972.831 1451.66,972.497 1430.5,971.5C 1451.5,971.5 1472.5,971.5 1493.5,971.5C 1493.17,961.652 1493.51,951.986 1494.5,942.5 Z"/></g>
<g><path style="opacity:1" fill="#87a92e" d="M 194.5,1026.5 C 215.5,1026.5 236.5,1026.5 257.5,1026.5C 257.813,1030.04 257.479,1033.38 256.5,1036.5C 256.5,1033.5 256.5,1030.5 256.5,1027.5C 235.66,1027.83 214.993,1027.5 194.5,1026.5 Z"/></g>
<g><path style="opacity:1" fill="#91a82b" d="M 174.5,1026.5 C 154.007,1027.5 133.34,1027.83 112.5,1027.5C 112.5,1030.5 112.5,1033.5 112.5,1036.5C 160.5,1036.5 208.5,1036.5 256.5,1036.5C 208.336,1037.5 160.003,1037.83 111.5,1037.5C 111.5,1033.83 111.5,1030.17 111.5,1026.5C 132.5,1026.5 153.5,1026.5 174.5,1026.5 Z"/></g>
<g><path style="opacity:0.995" fill="#cdcdcd" d="M 332.5,1249.5 C 332.833,1383.67 332.5,1517.67 331.5,1651.5C 331.167,1651.5 330.833,1651.5 330.5,1651.5C 222.383,1560.55 139.55,1450.55 82,1321.5C 72.2745,1298.49 63.4412,1275.16 55.5,1251.5C 147.494,1249.5 239.827,1248.84 332.5,1249.5 Z"/></g>
<g><path style="opacity:0.998" fill="#cda418" d="M 1822.5,1251.5 C 1745.68,1458.38 1614.01,1620.54 1427.5,1738C 1286.92,1822.69 1134.59,1868.52 970.5,1875.5C 948.167,1875.5 925.833,1875.5 903.5,1875.5C 862.286,1873.62 821.286,1868.96 780.5,1861.5C 779.5,1861.5 778.5,1861.5 777.5,1861.5C 777.5,1657.5 777.5,1453.5 777.5,1249.5C 1126.17,1248.83 1474.5,1249.5 1822.5,1251.5 Z"/></g>
<g><path style="opacity:1" fill="#3cbdd4" d="M 1004.5,1323.5 C 1147.17,1323.5 1289.83,1323.5 1432.5,1323.5C 1432.5,1340.17 1432.5,1356.83 1432.5,1373.5C 1289.83,1373.5 1147.17,1373.5 1004.5,1373.5C 1004.5,1356.83 1004.5,1340.17 1004.5,1323.5 Z"/></g>
<g><path style="opacity:1" fill="#1ec2ff" d="M 1005.5,1324.5 C 1147.5,1324.5 1289.5,1324.5 1431.5,1324.5C 1431.5,1340.5 1431.5,1356.5 1431.5,1372.5C 1289.5,1372.5 1147.5,1372.5 1005.5,1372.5C 1005.5,1356.5 1005.5,1340.5 1005.5,1324.5 Z"/></g>
<g><path style="opacity:1" fill="#20c2f4" d="M 1399.5,1401.5 C 1399.17,1401.5 1398.83,1401.5 1398.5,1401.5C 1398.5,1400.5 1398.5,1399.5 1398.5,1398.5C 1278.5,1398.5 1158.5,1398.5 1038.5,1398.5C 1039.82,1405.77 1040.49,1413.1 1040.5,1420.5C 1039.73,1419.74 1039.23,1418.74 1039,1417.5C 1038.05,1410.86 1037.55,1404.2 1037.5,1397.5C 1158.17,1397.5 1278.83,1397.5 1399.5,1397.5C 1399.5,1398.83 1399.5,1400.17 1399.5,1401.5 Z"/></g>
<g><path style="opacity:1" fill="#20c1fe" d="M 1398.5,1401.5 C 1397.8,1405.8 1397.47,1410.13 1397.5,1414.5C 1390.9,1459.92 1364.57,1484.09 1318.5,1487C 1250.5,1487.67 1182.5,1487.67 1114.5,1487C 1108.65,1486.62 1102.98,1485.45 1097.5,1483.5C 1095.49,1482.08 1093.15,1481.41 1090.5,1481.5C 1061.48,1471.46 1044.81,1451.13 1040.5,1420.5C 1040.49,1413.1 1039.82,1405.77 1038.5,1398.5C 1158.5,1398.5 1278.5,1398.5 1398.5,1398.5C 1398.5,1399.5 1398.5,1400.5 1398.5,1401.5 Z"/></g>
<g><path style="opacity:1" fill="#62baba" d="M 1398.5,1401.5 C 1398.83,1401.5 1399.17,1401.5 1399.5,1401.5C 1399.56,1406.08 1398.9,1410.41 1397.5,1414.5C 1397.47,1410.13 1397.8,1405.8 1398.5,1401.5 Z"/></g>
<g><path style="opacity:1" fill="#848484" d="M 332.5,1249.5 C 333.833,1383.67 333.833,1518 332.5,1652.5C 331.893,1652.38 331.56,1652.04 331.5,1651.5C 332.5,1517.67 332.833,1383.67 332.5,1249.5 Z"/></g>
<g><path style="opacity:1" fill="#68b8b3" d="M 1090.5,1481.5 C 1093.15,1481.41 1095.49,1482.08 1097.5,1483.5C 1094.85,1483.59 1092.51,1482.92 1090.5,1481.5 Z"/></g>
<g><path style="opacity:1" fill="#1fc2fe" d="M 1111.5,1510.5 C 1182.5,1510.5 1253.5,1510.5 1324.5,1510.5C 1324.5,1580.83 1324.5,1651.17 1324.5,1721.5C 1323.86,1727.64 1320.53,1731.47 1314.5,1733C 1307.17,1733.5 1299.84,1733.67 1292.5,1733.5C 1292.5,1671.83 1292.5,1610.17 1292.5,1548.5C 1289.94,1548.2 1287.61,1548.53 1285.5,1549.5C 1285.5,1610.83 1285.5,1672.17 1285.5,1733.5C 1270.77,1735.97 1257.44,1732.97 1245.5,1724.5C 1245.5,1665.83 1245.5,1607.17 1245.5,1548.5C 1242.94,1548.2 1240.61,1548.53 1238.5,1549.5C 1237.83,1606.17 1237.17,1662.83 1236.5,1719.5C 1221.3,1710.64 1208.64,1698.97 1198.5,1684.5C 1198.5,1639.17 1198.5,1593.83 1198.5,1548.5C 1195.94,1548.2 1193.61,1548.53 1191.5,1549.5C 1190.83,1590.5 1190.17,1631.5 1189.5,1672.5C 1178.4,1662.28 1165.73,1654.61 1151.5,1649.5C 1151.5,1615.83 1151.5,1582.17 1151.5,1548.5C 1149.17,1548.5 1146.83,1548.5 1144.5,1548.5C 1143.5,1581 1143.17,1613.66 1143.5,1646.5C 1142.5,1646.5 1141.5,1646.5 1140.5,1646.5C 1130.87,1644.84 1121.21,1643.51 1111.5,1642.5C 1111.5,1598.5 1111.5,1554.5 1111.5,1510.5 Z"/></g>
<g><path style="opacity:1" fill="#71b390" d="M 1111.5,1510.5 C 1182.66,1509.5 1254,1509.17 1325.5,1509.5C 1325.83,1580.34 1325.5,1651 1324.5,1721.5C 1324.5,1651.17 1324.5,1580.83 1324.5,1510.5C 1253.5,1510.5 1182.5,1510.5 1111.5,1510.5 Z"/></g>
<g><path style="opacity:1" fill="#2ac0e6" d="M 1144.5,1548.5 C 1144.5,1581.5 1144.5,1614.5 1144.5,1647.5C 1142.9,1647.77 1141.57,1647.43 1140.5,1646.5C 1141.5,1646.5 1142.5,1646.5 1143.5,1646.5C 1143.17,1613.66 1143.5,1581 1144.5,1548.5 Z"/></g>
<g><path style="opacity:1" fill="#b1a93c" d="M 1191.5,1549.5 C 1191.83,1549.5 1192.17,1549.5 1192.5,1549.5C 1192.5,1591.5 1192.5,1633.5 1192.5,1675.5C 1190.82,1675.71 1189.82,1675.05 1189.5,1673.5C 1190.12,1673.61 1190.62,1673.94 1191,1674.5C 1191.5,1632.83 1191.67,1591.17 1191.5,1549.5 Z"/></g>
<g><path style="opacity:1" fill="#b6a83a" d="M 1238.5,1549.5 C 1238.83,1549.5 1239.17,1549.5 1239.5,1549.5C 1239.83,1606.84 1239.5,1664.17 1238.5,1721.5C 1237.89,1721.38 1237.56,1721.04 1237.5,1720.5C 1238.5,1663.67 1238.83,1606.67 1238.5,1549.5 Z"/></g>
<g><path style="opacity:1" fill="#a2ac53" d="M 1144.5,1548.5 C 1146.83,1548.5 1149.17,1548.5 1151.5,1548.5C 1151.5,1582.17 1151.5,1615.83 1151.5,1649.5C 1150.5,1616.34 1150.17,1583 1150.5,1549.5C 1148.83,1549.5 1147.17,1549.5 1145.5,1549.5C 1145.83,1582.34 1145.5,1615 1144.5,1647.5C 1144.5,1614.5 1144.5,1581.5 1144.5,1548.5 Z"/></g>
<g><path style="opacity:1" fill="#28c0da" d="M 1191.5,1549.5 C 1191.67,1591.17 1191.5,1632.83 1191,1674.5C 1190.62,1673.94 1190.12,1673.61 1189.5,1673.5C 1189.5,1673.17 1189.5,1672.83 1189.5,1672.5C 1190.17,1631.5 1190.83,1590.5 1191.5,1549.5 Z"/></g>
<g><path style="opacity:1" fill="#9aad5c" d="M 1191.5,1549.5 C 1193.61,1548.53 1195.94,1548.2 1198.5,1548.5C 1198.5,1593.83 1198.5,1639.17 1198.5,1684.5C 1197.5,1639.67 1197.17,1594.67 1197.5,1549.5C 1195.83,1549.5 1194.17,1549.5 1192.5,1549.5C 1192.17,1549.5 1191.83,1549.5 1191.5,1549.5 Z"/></g>
<g><path style="opacity:1" fill="#31bed4" d="M 1238.5,1549.5 C 1238.83,1606.67 1238.5,1663.67 1237.5,1720.5C 1236.83,1720.5 1236.5,1720.17 1236.5,1719.5C 1237.17,1662.83 1237.83,1606.17 1238.5,1549.5 Z"/></g>
<g><path style="opacity:1" fill="#93af67" d="M 1238.5,1549.5 C 1240.61,1548.53 1242.94,1548.2 1245.5,1548.5C 1245.5,1607.17 1245.5,1665.83 1245.5,1724.5C 1244.5,1666.34 1244.17,1608 1244.5,1549.5C 1242.83,1549.5 1241.17,1549.5 1239.5,1549.5C 1239.17,1549.5 1238.83,1549.5 1238.5,1549.5 Z"/></g>
<g><path style="opacity:1" fill="#80b27d" d="M 1285.5,1549.5 C 1287.61,1548.53 1289.94,1548.2 1292.5,1548.5C 1292.5,1610.17 1292.5,1671.83 1292.5,1733.5C 1291.5,1672.34 1291.17,1611 1291.5,1549.5C 1289.5,1549.5 1287.5,1549.5 1285.5,1549.5 Z"/></g>
</svg>
