<?xml version="1.0" encoding="UTF-8"?>
<!DOCTYPE svg PUBLIC "-//W3C//DTD SVG 1.1//EN" "http://www.w3.org/Graphics/SVG/1.1/DTD/svg11.dtd">
<svg xmlns="http://www.w3.org/2000/svg" version="1.1" width="1280px" height="1280px" style="shape-rendering:geometricPrecision; text-rendering:geometricPrecision; image-rendering:optimizeQuality; fill-rule:evenodd; clip-rule:evenodd" xmlns:xlink="http://www.w3.org/1999/xlink">
<g><path style="opacity:0.846" fill="#000000" d="M 899.5,19.5 C 904.887,19.4054 910.22,19.9054 915.5,21C 1034.1,62.0709 1152.1,102.738 1269.5,143C 1270.93,143.465 1272.1,144.299 1273,145.5C 1275,152.5 1275,159.5 1273,166.5C 1194.92,224.788 1116.76,282.955 1038.5,341C 1064.84,343.375 1091.17,345.708 1117.5,348C 1120.67,348.5 1122.5,350.333 1123,353.5C 1125.61,363.109 1123.11,370.942 1115.5,377C 1060.61,423.607 1005.94,470.44 951.5,517.5C 975.333,582.82 979.833,649.487 965,717.5C 933.546,839.954 857.713,920.788 737.5,960C 684.169,974.553 630.336,977.053 576,967.5C 398.579,1062.46 221.079,1157.29 43.5,1252C 37.1489,1253.86 30.8155,1253.86 24.5,1252C 23.2986,1251.1 22.4652,1249.93 22,1248.5C 21.6667,1244.83 21.3333,1241.17 21,1237.5C 17.7774,1236.28 16.1107,1233.94 16,1230.5C 14.7794,1223.27 16.1128,1216.6 20,1210.5C 72.4797,1149.72 125.313,1089.22 178.5,1029C 157.122,1028.13 135.789,1026.8 114.5,1025C 111.569,1021.8 110.236,1017.97 110.5,1013.5C 110.632,1009.34 111.466,1005.34 113,1001.5C 182.167,914.5 251.333,827.5 320.5,740.5C 293.648,648.25 302.481,559.583 347,474.5C 404.687,376.271 490.52,320.438 604.5,307C 625.165,305.573 645.832,305.24 666.5,306C 741.833,211.333 817.167,116.667 892.5,22C 894.927,21.0977 897.26,20.2644 899.5,19.5 Z"/></g>
<g><path style="opacity:1" fill="#fed402" d="M 847.5,366.5 C 846.406,364.388 845.406,362.221 844.5,360C 845.5,359.667 846.5,359.333 847.5,359C 847.619,357.719 847.119,356.552 846,355.5C 844.833,356.667 843.667,357.833 842.5,359C 843.258,360.364 842.758,361.531 841,362.5C 840.667,362.167 840.333,361.833 840,361.5C 839.275,363.949 838.275,366.283 837,368.5C 835.141,367.355 834.307,365.688 834.5,363.5C 837.477,359.585 837.143,356.085 833.5,353C 829.239,353.068 825.406,352.901 822,352.5C 821.5,352.667 821,352.833 820.5,353C 822.937,354.279 823.437,355.779 822,357.5C 821.333,359.167 821.333,360.833 822,362.5C 824.295,362.689 826.295,364.023 828,366.5C 830.178,365.107 831.178,363.44 831,361.5C 831.5,362 832,362.5 832.5,363C 832.421,365.305 832.254,367.805 832,370.5C 829.416,373.025 827.249,372.525 825.5,369C 822.24,368.025 819.073,366.858 816,365.5C 815.667,365.833 815.333,366.167 815,366.5C 811.151,359.311 805.485,354.311 798,351.5C 797.667,351.833 797.333,352.167 797,352.5C 797.118,350.749 797.618,349.082 798.5,347.5C 798.167,346.5 797.833,345.5 797.5,344.5C 796.914,344.709 796.414,345.043 796,345.5C 795.966,343.82 795.799,342.32 795.5,341C 792.644,339.576 789.81,339.076 787,339.5C 783.84,341.083 784.007,342.583 787.5,344C 785.341,344.912 783.175,345.745 781,346.5C 778.824,346.012 776.991,345.012 775.5,343.5C 776.592,342.169 777.926,341.336 779.5,341C 776.387,341.053 773.887,339.886 772,337.5C 771.275,338.059 770.442,338.392 769.5,338.5C 766.519,337.271 763.519,336.105 760.5,335C 762.992,333.751 762.825,332.584 760,331.5C 758.221,332.479 756.555,332.146 755,330.5C 753.598,332.973 752.098,332.973 750.5,330.5C 748.632,330.946 746.799,331.279 745,331.5C 744,330.833 743,330.167 742,329.5C 740.333,329.833 738.667,330.167 737,330.5C 732.536,328.435 727.869,327.101 723,326.5C 722.667,326.833 722.333,327.167 722,327.5C 718.254,324.489 715.588,321.155 714,317.5C 711.333,318.833 708.667,318.833 706,317.5C 702.67,319.138 699.17,319.638 695.5,319C 694.874,318.25 694.374,317.416 694,316.5C 690.009,317.451 685.842,317.451 681.5,316.5C 678.972,318.874 675.972,319.874 672.5,319.5C 749.772,223.379 826.939,127.045 904,30.5C 970.458,53.7409 1036.96,76.9076 1103.5,100C 1018.64,189.362 933.303,278.195 847.5,366.5 Z"/></g>
<g><path style="opacity:1" fill="#fed303" d="M 945.5,503.5 C 944.312,502.636 943.145,501.636 942,500.5C 940.323,501.901 938.656,503.235 937,504.5C 930.859,502.372 928.026,498.038 928.5,491.5C 930.467,491.261 932.301,491.594 934,492.5C 934.454,490.464 935.287,488.63 936.5,487C 934.993,486.451 933.326,485.284 931.5,483.5C 931.709,482.914 932.043,482.414 932.5,482C 927.446,477.661 923.446,472.995 920.5,468C 921.766,467.691 922.933,467.191 924,466.5C 925.496,463.412 926.829,460.412 928,457.5C 926.667,456.167 925.333,456.167 924,457.5C 923.667,456.5 923.333,455.5 923,454.5C 922.667,454.833 922.333,455.167 922,455.5C 921.576,453.385 920.409,452.552 918.5,453C 917.939,454.566 918.606,455.899 920.5,457C 918.502,459.482 917.168,462.315 916.5,465.5C 915.575,464.359 914.741,464.359 914,465.5C 911.445,462.219 909.278,458.719 907.5,455C 910.031,453.511 912.198,451.678 914,449.5C 918.578,451.08 922.078,449.414 924.5,444.5C 926.021,444.12 927.687,443.954 929.5,444C 931.403,442.553 933.07,440.886 934.5,439C 933.424,437.274 933.257,435.441 934,433.5C 935.634,431.938 937.134,430.271 938.5,428.5C 944.849,423.502 951.515,418.835 958.5,414.5C 928.366,411.88 898.199,409.88 868,408.5C 866.699,408.639 865.866,409.305 865.5,410.5C 864.503,410.53 863.836,410.03 863.5,409C 862.7,407.212 862.366,405.545 862.5,404C 864.256,403.798 865.922,403.298 867.5,402.5C 868.475,399.748 869.142,397.248 869.5,395C 874.3,393.718 877.134,395.551 878,400.5C 879.74,399.284 880.74,397.618 881,395.5C 882.667,395.833 884.333,396.167 886,396.5C 888.067,392.357 886.567,390.357 881.5,390.5C 877.445,392.482 874.445,391.482 872.5,387.5C 872.939,385.896 873.606,384.396 874.5,383C 873.074,379.303 870.74,378.637 867.5,381C 866.101,382.062 865.101,383.395 864.5,385C 866.152,387.323 867.819,389.656 869.5,392C 866.339,393.413 863.339,395.08 860.5,397C 850.412,395.954 849.578,392.787 858,387.5C 858.333,387.833 858.667,388.167 859,388.5C 859.465,387.069 860.299,385.903 861.5,385C 860.191,383.249 860.525,381.749 862.5,380.5C 862.167,379.5 861.5,378.833 860.5,378.5C 859.115,379.551 858.115,380.884 857.5,382.5C 856.577,384.129 856.243,385.629 856.5,387C 854.382,387.26 852.716,388.26 851.5,390C 849.5,390.333 847.5,390.667 845.5,391C 846.741,392.487 846.241,393.32 844,393.5C 843.167,393.167 842.333,392.833 841.5,392.5C 842.127,391.583 842.461,390.583 842.5,389.5C 843.117,389.611 843.617,389.944 844,390.5C 935.531,295.97 1026.7,201.137 1117.5,106C 1122.23,106.348 1126.9,107.348 1131.5,109C 1176.04,124.214 1220.37,139.881 1264.5,156C 1177.83,220.667 1091.17,285.333 1004.5,350C 1040.72,353.626 1077.05,356.959 1113.5,360C 1057.63,408.043 1001.63,455.877 945.5,503.5 Z"/></g>
<g><path style="opacity:1" fill="#fbd604" d="M 847.5,366.5 C 842.671,371.497 838.004,376.664 833.5,382C 836.531,384.508 839.531,387.008 842.5,389.5C 842.461,390.583 842.127,391.583 841.5,392.5C 842.333,392.833 843.167,393.167 844,393.5C 846.241,393.32 846.741,392.487 845.5,391C 847.5,390.667 849.5,390.333 851.5,390C 852.716,388.26 854.382,387.26 856.5,387C 856.243,385.629 856.577,384.129 857.5,382.5C 858.115,380.884 859.115,379.551 860.5,378.5C 861.5,378.833 862.167,379.5 862.5,380.5C 860.525,381.749 860.191,383.249 861.5,385C 860.299,385.903 859.465,387.069 859,388.5C 858.667,388.167 858.333,387.833 858,387.5C 849.578,392.787 850.412,395.954 860.5,397C 863.339,395.08 866.339,393.413 869.5,392C 867.819,389.656 866.152,387.323 864.5,385C 865.101,383.395 866.101,382.062 867.5,381C 870.74,378.637 873.074,379.303 874.5,383C 873.606,384.396 872.939,385.896 872.5,387.5C 874.445,391.482 877.445,392.482 881.5,390.5C 886.567,390.357 888.067,392.357 886,396.5C 884.333,396.167 882.667,395.833 881,395.5C 880.74,397.618 879.74,399.284 878,400.5C 877.134,395.551 874.3,393.718 869.5,395C 869.142,397.248 868.475,399.748 867.5,402.5C 865.922,403.298 864.256,403.798 862.5,404C 862.366,405.545 862.7,407.212 863.5,409C 863.836,410.03 864.503,410.53 865.5,410.5C 869.997,414.164 873.997,418.331 877.5,423C 888.783,424.409 900.116,425.575 911.5,426.5C 911.709,427.086 912.043,427.586 912.5,428C 906.004,432.338 899.671,436.838 893.5,441.5C 895.843,445.336 898.676,448.669 902,451.5C 914.291,443.943 926.457,436.276 938.5,428.5C 937.134,430.271 935.634,431.938 934,433.5C 933.257,435.441 933.424,437.274 934.5,439C 933.07,440.886 931.403,442.553 929.5,444C 927.687,443.954 926.021,444.12 924.5,444.5C 922.078,449.414 918.578,451.08 914,449.5C 912.198,451.678 910.031,453.511 907.5,455C 909.278,458.719 911.445,462.219 914,465.5C 914.741,464.359 915.575,464.359 916.5,465.5C 917.168,462.315 918.502,459.482 920.5,457C 918.606,455.899 917.939,454.566 918.5,453C 920.409,452.552 921.576,453.385 922,455.5C 922.333,455.167 922.667,454.833 923,454.5C 923.333,455.5 923.667,456.5 924,457.5C 925.333,456.167 926.667,456.167 928,457.5C 926.829,460.412 925.496,463.412 924,466.5C 922.933,467.191 921.766,467.691 920.5,468C 923.446,472.995 927.446,477.661 932.5,482C 932.043,482.414 931.709,482.914 931.5,483.5C 933.326,485.284 934.993,486.451 936.5,487C 935.287,488.63 934.454,490.464 934,492.5C 932.301,491.594 930.467,491.261 928.5,491.5C 928.026,498.038 930.859,502.372 937,504.5C 938.656,503.235 940.323,501.901 942,500.5C 943.145,501.636 944.312,502.636 945.5,503.5C 942.161,506.506 938.828,509.506 935.5,512.5C 970.583,598.691 970.083,684.691 934,770.5C 881.036,880.439 793.869,943.605 672.5,960C 639.061,962.781 605.894,960.947 573,954.5C 566.122,957.689 559.289,961.022 552.5,964.5C 551.153,963.829 549.986,963.829 549,964.5C 548.471,962.415 548.971,960.582 550.5,959C 550.355,958.228 550.022,957.561 549.5,957C 557.081,956.568 557.248,955.735 550,954.5C 545.73,955.944 541.564,957.61 537.5,959.5C 536.04,957.578 534.373,956.911 532.5,957.5C 530.997,956.41 530.664,955.243 531.5,954C 527.747,954.581 524.413,953.414 521.5,950.5C 521.277,951.967 520.944,953.467 520.5,955C 518.687,955.614 518.353,955.281 519.5,954C 518.646,952.978 517.646,952.145 516.5,951.5C 514.98,952.85 514.313,954.183 514.5,955.5C 512.997,954.41 512.664,953.243 513.5,952C 512.5,951.667 511.5,951.333 510.5,951C 510.493,949.417 510.826,947.751 511.5,946C 508.689,945.277 506.189,943.444 504,940.5C 500.191,944.074 496.525,944.407 493,941.5C 491.372,942.097 489.705,941.763 488,940.5C 484.736,941.527 481.903,940.694 479.5,938C 479.833,937 480.167,936 480.5,935C 479.833,933.667 479.167,932.333 478.5,931C 479.687,929.981 480.687,928.814 481.5,927.5C 478.771,926.772 475.937,925.439 473,923.5C 471.915,925.657 470.749,925.824 469.5,924C 471.394,922.899 472.061,921.566 471.5,920C 470.13,918.559 469.13,916.892 468.5,915C 465.544,914.011 462.544,913.178 459.5,912.5C 457.971,912.529 456.804,913.196 456,914.5C 454.318,913.135 454.151,911.635 455.5,910C 453.536,909.376 451.869,909.876 450.5,911.5C 448.571,910.62 446.737,909.62 445,908.5C 441.939,908.689 439.272,909.022 437,909.5C 434.833,907.333 432.667,905.167 430.5,903C 432.738,900.257 435.405,898.091 438.5,896.5C 432.9,887.285 427.4,887.285 422,896.5C 421.333,895.167 420.667,893.833 420,892.5C 417.585,892.071 415.252,892.738 413,894.5C 411.5,894 410,893.5 408.5,893C 409.5,892.667 410.5,892.333 411.5,892C 409.833,890.333 408.167,888.667 406.5,887C 409.192,884.368 408.859,882.034 405.5,880C 406.5,879.667 407.5,879.333 408.5,879C 406.685,876.446 405.518,873.946 405,871.5C 402.837,872.668 400.837,873.335 399,873.5C 398.223,868.778 398.39,864.111 399.5,859.5C 397.51,855.501 395.51,851.501 393.5,847.5C 391.114,844.048 388.281,841.048 385,838.5C 379.676,842.991 374.509,847.658 369.5,852.5C 369.176,851.188 368.509,850.355 367.5,850C 370.442,847.388 371.442,844.222 370.5,840.5C 371.313,839.186 372.313,838.019 373.5,837C 372.483,835.951 372.316,834.784 373,833.5C 374.067,832.057 375.234,830.724 376.5,829.5C 372.918,823.639 367.918,821.973 361.5,824.5C 360.958,820.787 358.792,818.454 355,817.5C 353.1,812.965 351.266,808.465 349.5,804C 350.654,803.086 350.487,802.253 349,801.5C 348.667,801.833 348.333,802.167 348,802.5C 341.626,801.771 339.459,798.271 341.5,792C 341.294,790.135 340.628,788.468 339.5,787C 339.645,786.228 339.978,785.561 340.5,785C 338.352,782.925 338.018,780.592 339.5,778C 338.237,776.295 337.903,774.628 338.5,773C 337.833,772.333 337.167,771.667 336.5,771C 337.886,767.209 339.219,763.375 340.5,759.5C 339.326,755.387 336.993,754.553 333.5,757C 332.789,758.255 331.956,759.421 331,760.5C 330.308,759.975 329.808,759.308 329.5,758.5C 331.714,755.103 333.381,751.103 334.5,746.5C 331.502,734.174 328.335,721.841 325,709.5C 303.973,599.582 330.306,502.916 404,419.5C 477.675,344.268 567.175,310.934 672.5,319.5C 675.972,319.874 678.972,318.874 681.5,316.5C 685.842,317.451 690.009,317.451 694,316.5C 694.374,317.416 694.874,318.25 695.5,319C 699.17,319.638 702.67,319.138 706,317.5C 708.667,318.833 711.333,318.833 714,317.5C 715.588,321.155 718.254,324.489 722,327.5C 722.333,327.167 722.667,326.833 723,326.5C 727.869,327.101 732.536,328.435 737,330.5C 738.667,330.167 740.333,329.833 742,329.5C 743,330.167 744,330.833 745,331.5C 746.799,331.279 748.632,330.946 750.5,330.5C 752.098,332.973 753.598,332.973 755,330.5C 756.555,332.146 758.221,332.479 760,331.5C 762.825,332.584 762.992,333.751 760.5,335C 763.519,336.105 766.519,337.271 769.5,338.5C 770.442,338.392 771.275,338.059 772,337.5C 773.887,339.886 776.387,341.053 779.5,341C 777.926,341.336 776.592,342.169 775.5,343.5C 776.991,345.012 778.824,346.012 781,346.5C 783.175,345.745 785.341,344.912 787.5,344C 784.007,342.583 783.84,341.083 787,339.5C 789.81,339.076 792.644,339.576 795.5,341C 795.799,342.32 795.966,343.82 796,345.5C 796.414,345.043 796.914,344.709 797.5,344.5C 797.833,345.5 798.167,346.5 798.5,347.5C 797.618,349.082 797.118,350.749 797,352.5C 797.333,352.167 797.667,351.833 798,351.5C 805.485,354.311 811.151,359.311 815,366.5C 815.333,366.167 815.667,365.833 816,365.5C 819.073,366.858 822.24,368.025 825.5,369C 827.249,372.525 829.416,373.025 832,370.5C 832.254,367.805 832.421,365.305 832.5,363C 832,362.5 831.5,362 831,361.5C 831.178,363.44 830.178,365.107 828,366.5C 826.295,364.023 824.295,362.689 822,362.5C 821.333,360.833 821.333,359.167 822,357.5C 823.437,355.779 822.937,354.279 820.5,353C 821,352.833 821.5,352.667 822,352.5C 825.406,352.901 829.239,353.068 833.5,353C 837.143,356.085 837.477,359.585 834.5,363.5C 834.307,365.688 835.141,367.355 837,368.5C 838.275,366.283 839.275,363.949 840,361.5C 840.333,361.833 840.667,362.167 841,362.5C 842.758,361.531 843.258,360.364 842.5,359C 843.667,357.833 844.833,356.667 846,355.5C 847.119,356.552 847.619,357.719 847.5,359C 846.5,359.333 845.5,359.667 844.5,360C 845.406,362.221 846.406,364.388 847.5,366.5 Z"/></g>
<g><path style="opacity:1" fill="#000000" d="M 713.5,350.5 C 717.215,352.405 721.215,353.738 725.5,354.5C 806.532,380.072 866.698,430.405 906,505.5C 910.397,514.29 914.23,523.29 917.5,532.5C 919.769,538.85 920.936,545.517 921,552.5C 921.615,554.116 922.615,555.449 924,556.5C 925.056,565.497 927.39,574.164 931,582.5C 931.333,584.833 931.667,587.167 932,589.5C 932.383,590.056 932.883,590.389 933.5,590.5C 939.784,629.45 938.451,668.116 929.5,706.5C 927.408,709.385 925.742,712.552 924.5,716C 925.634,717.016 925.301,717.683 923.5,718C 925.812,720.152 925.478,722.152 922.5,724C 920.485,724.424 918.651,725.258 917,726.5C 914.847,724.227 912.68,721.894 910.5,719.5C 909.167,720.833 907.833,720.833 906.5,719.5C 905.818,720.243 905.151,720.909 904.5,721.5C 907.639,709.276 910.306,696.942 912.5,684.5C 808.668,683.501 704.668,683.167 600.5,683.5C 600.833,577.665 600.499,471.999 599.5,366.5C 597.338,365.583 595.005,365.583 592.5,366.5C 583.667,366.173 575.167,367.506 567,370.5C 564.964,370.046 563.13,369.213 561.5,368C 562.333,367.167 563.167,366.333 564,365.5C 564.218,362.574 564.718,359.74 565.5,357C 565.167,356.667 564.833,356.333 564.5,356C 571.289,352.347 578.456,349.847 586,348.5C 587.827,349.184 589.327,348.517 590.5,346.5C 593.306,345.832 595.972,345.166 598.5,344.5C 619.381,341.646 640.381,340.812 661.5,342C 678.996,344.113 696.329,346.947 713.5,350.5 Z"/></g>
<g><path style="opacity:1" fill="#978721" d="M 713.5,350.5 C 717.222,351.017 720.888,351.85 724.5,353C 725.056,353.383 725.389,353.883 725.5,354.5C 721.215,353.738 717.215,352.405 713.5,350.5 Z"/></g>
<g><path style="opacity:1" fill="#fed801" d="M 599.5,366.5 C 599.5,472.5 599.5,578.5 599.5,684.5C 703.833,684.5 808.167,684.5 912.5,684.5C 910.306,696.942 907.639,709.276 904.5,721.5C 903.883,721.611 903.383,721.944 903,722.5C 902.026,726.421 900.859,730.254 899.5,734C 799.834,734.5 700.167,734.667 600.5,734.5C 698.666,733.667 796.999,733.167 895.5,733C 897.987,730.334 897.987,727.834 895.5,725.5C 891.771,726.951 887.938,727.951 884,728.5C 870.82,727.884 857.654,727.217 844.5,726.5C 769.626,727.295 694.293,727.795 618.5,728C 620.901,728.805 620.734,729.638 618,730.5C 616.818,728.643 615.151,727.643 613,727.5C 610.271,729.064 607.438,730.397 604.5,731.5C 602.088,731.594 600.255,730.594 599,728.5C 597.5,730 596,731.5 594.5,733C 595.211,734.255 596.044,735.421 597,736.5C 597.333,736.167 597.667,735.833 598,735.5C 598.167,790.002 598.667,844.335 599.5,898.5C 599.5,903.167 599.5,907.833 599.5,912.5C 553.255,906.209 511.588,889.209 474.5,861.5C 474.5,818.833 474.5,776.167 474.5,733.5C 442.833,733.5 411.167,733.5 379.5,733.5C 376.101,723.635 373.101,713.635 370.5,703.5C 368.856,697.279 367.856,690.946 367.5,684.5C 403.167,684.5 438.833,684.5 474.5,684.5C 474.5,595.5 474.5,506.5 474.5,417.5C 509.716,391.232 549.049,374.232 592.5,366.5C 595.005,365.583 597.338,365.583 599.5,366.5 Z"/></g>
<g><path style="opacity:1" fill="#000000" d="M 938.5,428.5 C 926.457,436.276 914.291,443.943 902,451.5C 898.676,448.669 895.843,445.336 893.5,441.5C 899.671,436.838 906.004,432.338 912.5,428C 912.043,427.586 911.709,427.086 911.5,426.5C 900.116,425.575 888.783,424.409 877.5,423C 873.997,418.331 869.997,414.164 865.5,410.5C 865.866,409.305 866.699,408.639 868,408.5C 898.199,409.88 928.366,411.88 958.5,414.5C 951.515,418.835 944.849,423.502 938.5,428.5 Z"/></g>
<g><path style="opacity:1" fill="#1d170d" d="M 917.5,532.5 C 925.22,551.06 930.553,570.393 933.5,590.5C 932.883,590.389 932.383,590.056 932,589.5C 931.667,587.167 931.333,584.833 931,582.5C 927.39,574.164 925.056,565.497 924,556.5C 922.615,555.449 921.615,554.116 921,552.5C 920.936,545.517 919.769,538.85 917.5,532.5 Z"/></g>
<g><path style="opacity:1" fill="#533719" d="M 474.5,417.5 C 474.5,506.5 474.5,595.5 474.5,684.5C 438.833,684.5 403.167,684.5 367.5,684.5C 367.856,690.946 368.856,697.279 370.5,703.5C 369.625,701.432 368.459,699.432 367,697.5C 366.501,692.845 366.334,688.179 366.5,683.5C 401.833,683.5 437.167,683.5 472.5,683.5C 472.333,595.166 472.5,506.833 473,418.5C 473.383,417.944 473.883,417.611 474.5,417.5 Z"/></g>
<g><path style="opacity:1" fill="#2f2911" d="M 599.5,366.5 C 600.499,471.999 600.833,577.665 600.5,683.5C 704.668,683.167 808.668,683.501 912.5,684.5C 808.167,684.5 703.833,684.5 599.5,684.5C 599.5,578.5 599.5,472.5 599.5,366.5 Z"/></g>
<g><path style="opacity:1" fill="#010101" d="M 598.5,344.5 C 595.972,345.166 593.306,345.832 590.5,346.5C 589.327,348.517 587.827,349.184 586,348.5C 578.456,349.847 571.289,352.347 564.5,356C 564.833,356.333 565.167,356.667 565.5,357C 564.718,359.74 564.218,362.574 564,365.5C 563.167,366.333 562.333,367.167 561.5,368C 563.13,369.213 564.964,370.046 567,370.5C 575.167,367.506 583.667,366.173 592.5,366.5C 549.049,374.232 509.716,391.232 474.5,417.5C 473.883,417.611 473.383,417.944 473,418.5C 472.5,506.833 472.333,595.166 472.5,683.5C 437.167,683.5 401.833,683.5 366.5,683.5C 366.334,688.179 366.501,692.845 367,697.5C 368.459,699.432 369.625,701.432 370.5,703.5C 373.101,713.635 376.101,723.635 379.5,733.5C 410.662,734.498 441.996,734.832 473.5,734.5C 473.168,777.003 473.501,819.337 474.5,861.5C 511.588,889.209 553.255,906.209 599.5,912.5C 599.5,907.833 599.5,903.167 599.5,898.5C 599.168,843.664 599.501,788.997 600.5,734.5C 700.167,734.667 799.834,734.5 899.5,734C 900.859,730.254 902.026,726.421 903,722.5C 903.383,721.944 903.883,721.611 904.5,721.5C 905.151,720.909 905.818,720.243 906.5,719.5C 907.833,720.833 909.167,720.833 910.5,719.5C 912.68,721.894 914.847,724.227 917,726.5C 918.651,725.258 920.485,724.424 922.5,724C 925.478,722.152 925.812,720.152 923.5,718C 925.301,717.683 925.634,717.016 924.5,716C 925.742,712.552 927.408,709.385 929.5,706.5C 909.443,788.701 863.443,851.868 791.5,896C 705.541,944.467 616.541,950.8 524.5,915C 431.504,872.66 372.67,801.826 348,702.5C 327.297,587.606 359.797,491.106 445.5,413C 489.872,375.483 540.872,352.649 598.5,344.5 Z"/></g>
<g><path style="opacity:1" fill="#fbdd05" d="M 600.5,734.5 C 599.501,788.997 599.168,843.664 599.5,898.5C 598.667,844.335 598.167,790.002 598,735.5C 597.667,735.833 597.333,736.167 597,736.5C 596.044,735.421 595.211,734.255 594.5,733C 596,731.5 597.5,730 599,728.5C 600.255,730.594 602.088,731.594 604.5,731.5C 607.438,730.397 610.271,729.064 613,727.5C 615.151,727.643 616.818,728.643 618,730.5C 620.734,729.638 620.901,728.805 618.5,728C 694.293,727.795 769.626,727.295 844.5,726.5C 857.654,727.217 870.82,727.884 884,728.5C 887.938,727.951 891.771,726.951 895.5,725.5C 897.987,727.834 897.987,730.334 895.5,733C 796.999,733.167 698.666,733.667 600.5,734.5 Z"/></g>
<g><path style="opacity:1" fill="#fdd404" d="M 334.5,746.5 C 333.381,751.103 331.714,755.103 329.5,758.5C 329.808,759.308 330.308,759.975 331,760.5C 331.956,759.421 332.789,758.255 333.5,757C 336.993,754.553 339.326,755.387 340.5,759.5C 339.219,763.375 337.886,767.209 336.5,771C 337.167,771.667 337.833,772.333 338.5,773C 337.903,774.628 338.237,776.295 339.5,778C 338.018,780.592 338.352,782.925 340.5,785C 339.978,785.561 339.645,786.228 339.5,787C 340.628,788.468 341.294,790.135 341.5,792C 339.459,798.271 341.626,801.771 348,802.5C 348.333,802.167 348.667,801.833 349,801.5C 350.487,802.253 350.654,803.086 349.5,804C 351.266,808.465 353.1,812.965 355,817.5C 358.792,818.454 360.958,820.787 361.5,824.5C 367.918,821.973 372.918,823.639 376.5,829.5C 375.234,830.724 374.067,832.057 373,833.5C 372.316,834.784 372.483,835.951 373.5,837C 372.313,838.019 371.313,839.186 370.5,840.5C 371.442,844.222 370.442,847.388 367.5,850C 368.509,850.355 369.176,851.188 369.5,852.5C 321.422,901.078 273.089,949.578 224.5,998C 254.562,994.992 284.562,991.492 314.5,987.5C 315.583,988.365 315.749,989.365 315,990.5C 219.603,1069.73 123.77,1148.4 27.5,1226.5C 27.1667,1226.17 26.8333,1225.83 26.5,1225.5C 85.2341,1156.26 144.901,1087.76 205.5,1020C 200.063,1018.15 194.397,1017.15 188.5,1017C 166.131,1016.48 143.798,1015.31 121.5,1013.5C 192.174,924.168 263.174,835.168 334.5,746.5 Z"/></g>
<g><path style="opacity:1" fill="#9c7512" d="M 379.5,733.5 C 411.167,733.5 442.833,733.5 474.5,733.5C 474.5,776.167 474.5,818.833 474.5,861.5C 473.501,819.337 473.168,777.003 473.5,734.5C 441.996,734.832 410.662,734.498 379.5,733.5 Z"/></g>
<g><path style="opacity:1" fill="#fed303" d="M 393.5,847.5 C 395.51,851.501 397.51,855.501 399.5,859.5C 398.39,864.111 398.223,868.778 399,873.5C 400.837,873.335 402.837,872.668 405,871.5C 405.518,873.946 406.685,876.446 408.5,879C 407.5,879.333 406.5,879.667 405.5,880C 408.859,882.034 409.192,884.368 406.5,887C 408.167,888.667 409.833,890.333 411.5,892C 410.5,892.333 409.5,892.667 408.5,893C 410,893.5 411.5,894 413,894.5C 415.252,892.738 417.585,892.071 420,892.5C 420.667,893.833 421.333,895.167 422,896.5C 427.4,887.285 432.9,887.285 438.5,896.5C 435.405,898.091 432.738,900.257 430.5,903C 432.667,905.167 434.833,907.333 437,909.5C 439.272,909.022 441.939,908.689 445,908.5C 446.737,909.62 448.571,910.62 450.5,911.5C 451.869,909.876 453.536,909.376 455.5,910C 454.151,911.635 454.318,913.135 456,914.5C 456.804,913.196 457.971,912.529 459.5,912.5C 462.544,913.178 465.544,914.011 468.5,915C 469.13,916.892 470.13,918.559 471.5,920C 472.061,921.566 471.394,922.899 469.5,924C 470.749,925.824 471.915,925.657 473,923.5C 475.937,925.439 478.771,926.772 481.5,927.5C 480.687,928.814 479.687,929.981 478.5,931C 479.167,932.333 479.833,933.667 480.5,935C 480.167,936 479.833,937 479.5,938C 481.903,940.694 484.736,941.527 488,940.5C 489.705,941.763 491.372,942.097 493,941.5C 496.525,944.407 500.191,944.074 504,940.5C 506.189,943.444 508.689,945.277 511.5,946C 510.826,947.751 510.493,949.417 510.5,951C 511.5,951.333 512.5,951.667 513.5,952C 512.664,953.243 512.997,954.41 514.5,955.5C 514.313,954.183 514.98,952.85 516.5,951.5C 517.646,952.145 518.646,952.978 519.5,954C 518.353,955.281 518.687,955.614 520.5,955C 520.944,953.467 521.277,951.967 521.5,950.5C 524.413,953.414 527.747,954.581 531.5,954C 530.664,955.243 530.997,956.41 532.5,957.5C 534.373,956.911 536.04,957.578 537.5,959.5C 541.564,957.61 545.73,955.944 550,954.5C 557.248,955.735 557.081,956.568 549.5,957C 550.022,957.561 550.355,958.228 550.5,959C 548.971,960.582 548.471,962.415 549,964.5C 549.986,963.829 551.153,963.829 552.5,964.5C 385.562,1053.97 218.562,1143.47 51.5,1233C 44.9579,1236.61 38.2912,1239.61 31.5,1242C 142.466,1150.19 253.799,1058.86 365.5,968C 332.054,970.847 298.721,974.681 265.5,979.5C 265.167,979.167 264.833,978.833 264.5,978.5C 304.901,937.265 345.735,896.598 387,856.5C 389.41,853.603 391.577,850.603 393.5,847.5 Z"/></g>
</svg>
