<?xml version="1.0" encoding="UTF-8" standalone="no"?>
<!-- Generator: Adobe Illustrator 12.0.0, SVG Export Plug-In  -->
<svg xmlns:dc="http://purl.org/dc/elements/1.1/" xmlns:cc="http://web.resource.org/cc/" xmlns:rdf="http://www.w3.org/1999/02/22-rdf-syntax-ns#" xmlns:svg="http://www.w3.org/2000/svg" xmlns="http://www.w3.org/2000/svg" xmlns:sodipodi="http://sodipodi.sourceforge.net/DTD/sodipodi-0.dtd" xmlns:inkscape="http://www.inkscape.org/namespaces/inkscape" version="1.0" width="250" height="330" viewBox="0 0 325 217" enable-background="new 0 0 325 217" xml:space="preserve" id="svg2" sodipodi:version="0.32" inkscape:version="0.45.1" sodipodi:docname="Coat_of_arms_of_Liguria.svg" inkscape:output_extension="org.inkscape.output.svg.inkscape" sodipodi:docbase="C:\Users\Luigi\Desktop\svg"><metadata id="metadata9"><rdf:RDF><cc:Work rdf:about=""><dc:format>image/svg+xml</dc:format><dc:type rdf:resource="http://purl.org/dc/dcmitype/StillImage"/></cc:Work></rdf:RDF></metadata><sodipodi:namedview inkscape:window-height="952" inkscape:window-width="1280" inkscape:pageshadow="2" inkscape:pageopacity="0.0" guidetolerance="10.0" gridtolerance="10.0" objecttolerance="10.0" borderopacity="1.0" bordercolor="#666666" pagecolor="#ffffff" id="base" inkscape:zoom="1.2566667" inkscape:cx="378.87545" inkscape:cy="165.90493" inkscape:window-x="72" inkscape:window-y="11" inkscape:current-layer="svg2" inkscape:showpageshadow="false" width="250px" height="330px" showgrid="false" showborder="true"/>
<defs id="defs4"/>

<g id="g2197" transform="matrix(2.7481141,0,0,2.7481141,-284.06876,-189.67053)"><rect y="114.81942" x="162.03348" height="48.274368" width="1.996866" id="rect3657" style="fill:#b5cece;fill-opacity:1;fill-rule:evenodd;stroke:none;stroke-width:2;stroke-linecap:round;stroke-linejoin:miter;stroke-miterlimit:4;stroke-dasharray:none;stroke-opacity:1"/><path id="path1873" d="M 107.36786,123.44307 C 107.29135,124.63276 107.21185,125.82229 107.21185,127.03119 C 107.21185,157.56474 131.99773,182.35062 162.53128,182.35062 C 192.25739,182.35062 216.52528,158.85061 217.78831,129.43367 L 202.87421,128.62245 C 202.89462,129.0946 202.90541,129.58053 202.90541,130.05769 C 202.90542,147.98127 188.34872,162.50677 170.42514,162.50677 C 152.50155,162.50678 137.97607,147.98127 137.97607,130.05769 C 137.97607,128.38793 138.10702,126.73005 138.35048,125.12793 L 107.36786,123.44307 z " style="fill:#bdbdbd;fill-opacity:1;fill-rule:evenodd;stroke:#6b6b6b;stroke-width:1.99686599;stroke-linecap:butt;stroke-linejoin:miter;stroke-miterlimit:4;stroke-dasharray:none;stroke-opacity:1"/><path sodipodi:nodetypes="cccscc" id="path4544" d="M 108.51502,120.27902 L 217.41968,120.27902 L 217.41968,55.338506 C 217.41968,41.957554 198.09828,34.649491 163.54204,34.649491 C 123.95576,34.649491 108.51502,44.950082 108.51502,55.338506 L 108.51502,120.27902 z " style="fill:#ffffff;fill-opacity:1;fill-rule:evenodd;stroke:none;stroke-width:2;stroke-linecap:butt;stroke-linejoin:miter;stroke-miterlimit:4;stroke-dasharray:none;stroke-opacity:1"/><path sodipodi:nodetypes="ccccccccccccc" id="rect4548" transform="matrix(0.3616667,0,0,0.3616667,-0.25,0)" d="M 443.34375,95.875 L 443.34375,213.03125 L 300.75,213.03125 L 300.75,229.25 L 443.34375,229.25 L 443.34375,332.59375 L 459.65625,332.59375 L 459.65625,229.25 L 601.84375,229.25 L 601.84375,213.03125 L 459.65625,213.03125 L 459.65625,95.875 C 457.37134,95.850903 446.47066,95.825714 443.34375,95.875 z " style="fill:#ff0000;fill-opacity:1;fill-rule:evenodd;stroke:none;stroke-width:2;stroke-linecap:round;stroke-linejoin:miter;stroke-miterlimit:4;stroke-dasharray:none;stroke-opacity:1"/><path transform="matrix(0.998433,0,0,0.998433,9.5238226,4.9090328)" d="M 135.556,59.530281 C 135.37458,59.829484 128.89476,58.667973 128.59173,58.842926 C 128.29705,59.01306 126.25198,65.105664 125.9118,65.098362 C 125.56197,65.090853 123.32796,58.898405 123.02493,58.723453 C 122.73025,58.55332 116.43137,59.828544 116.2676,59.530281 C 116.09919,59.22357 120.345,54.192632 120.345,53.842727 C 120.345,53.50246 116.09118,48.68508 116.2676,48.394119 C 116.44901,48.094917 122.92884,49.256427 123.23186,49.081474 C 123.52654,48.911341 125.57161,42.818737 125.9118,42.826038 C 126.26162,42.833547 128.49564,49.025995 128.79866,49.200947 C 129.09334,49.37108 135.39223,48.095857 135.556,48.394119 C 135.72441,48.700831 131.4786,53.731768 131.4786,54.081673 C 131.4786,54.42194 135.73241,59.23932 135.556,59.530281 z " inkscape:randomized="0" inkscape:rounded="0.05" inkscape:flatsided="false" sodipodi:arg2="1.068656" sodipodi:arg1="0.52359878" sodipodi:r2="5.5680809" sodipodi:r1="11.136162" sodipodi:cy="53.9622" sodipodi:cx="125.9118" sodipodi:sides="6" id="path4552" style="fill:#bdbdbd;fill-opacity:1;fill-rule:evenodd;stroke:none;stroke-width:2;stroke-linecap:round;stroke-linejoin:miter;stroke-miterlimit:4;stroke-dasharray:none;stroke-opacity:1" sodipodi:type="star"/><path sodipodi:type="star" style="fill:#bdbdbd;fill-opacity:1;fill-rule:evenodd;stroke:none;stroke-width:2;stroke-linecap:round;stroke-linejoin:miter;stroke-miterlimit:4;stroke-dasharray:none;stroke-opacity:1" id="path4554" sodipodi:sides="6" sodipodi:cx="125.9118" sodipodi:cy="53.9622" sodipodi:r1="11.136162" sodipodi:r2="5.5680809" sodipodi:arg1="0.52359878" sodipodi:arg2="1.068656" inkscape:flatsided="false" inkscape:rounded="0.05" inkscape:randomized="0" d="M 135.556,59.530281 C 135.37458,59.829484 128.89476,58.667973 128.59173,58.842926 C 128.29705,59.01306 126.25198,65.105664 125.9118,65.098362 C 125.56197,65.090853 123.32796,58.898405 123.02493,58.723453 C 122.73025,58.55332 116.43137,59.828544 116.2676,59.530281 C 116.09919,59.22357 120.345,54.192632 120.345,53.842727 C 120.345,53.50246 116.09118,48.68508 116.2676,48.394119 C 116.44901,48.094917 122.92884,49.256427 123.23186,49.081474 C 123.52654,48.911341 125.57161,42.818737 125.9118,42.826038 C 126.26162,42.833547 128.49564,49.025995 128.79866,49.200947 C 129.09334,49.37108 135.39223,48.095857 135.556,48.394119 C 135.72441,48.700831 131.4786,53.731768 131.4786,54.081673 C 131.4786,54.42194 135.73241,59.23932 135.556,59.530281 z " transform="matrix(0.998433,0,0,0.998433,65.125554,4.9090328)"/><path transform="matrix(0.998433,0,0,0.998433,65.125554,47.867477)" d="M 135.556,59.530281 C 135.37458,59.829484 128.89476,58.667973 128.59173,58.842926 C 128.29705,59.01306 126.25198,65.105664 125.9118,65.098362 C 125.56197,65.090853 123.32796,58.898405 123.02493,58.723453 C 122.73025,58.55332 116.43137,59.828544 116.2676,59.530281 C 116.09919,59.22357 120.345,54.192632 120.345,53.842727 C 120.345,53.50246 116.09118,48.68508 116.2676,48.394119 C 116.44901,48.094917 122.92884,49.256427 123.23186,49.081474 C 123.52654,48.911341 125.57161,42.818737 125.9118,42.826038 C 126.26162,42.833547 128.49564,49.025995 128.79866,49.200947 C 129.09334,49.37108 135.39223,48.095857 135.556,48.394119 C 135.72441,48.700831 131.4786,53.731768 131.4786,54.081673 C 131.4786,54.42194 135.73241,59.23932 135.556,59.530281 z " inkscape:randomized="0" inkscape:rounded="0.05" inkscape:flatsided="false" sodipodi:arg2="1.068656" sodipodi:arg1="0.52359878" sodipodi:r2="5.5680809" sodipodi:r1="11.136162" sodipodi:cy="53.9622" sodipodi:cx="125.9118" sodipodi:sides="6" id="path4556" style="fill:#bdbdbd;fill-opacity:1;fill-rule:evenodd;stroke:none;stroke-width:2;stroke-linecap:round;stroke-linejoin:miter;stroke-miterlimit:4;stroke-dasharray:none;stroke-opacity:1" sodipodi:type="star"/><path sodipodi:type="star" style="fill:#bdbdbd;fill-opacity:1;fill-rule:evenodd;stroke:none;stroke-width:2;stroke-linecap:round;stroke-linejoin:miter;stroke-miterlimit:4;stroke-dasharray:none;stroke-opacity:1" id="path4558" sodipodi:sides="6" sodipodi:cx="125.9118" sodipodi:cy="53.9622" sodipodi:r1="11.136162" sodipodi:r2="5.5680809" sodipodi:arg1="0.52359878" sodipodi:arg2="1.068656" inkscape:flatsided="false" inkscape:rounded="0.05" inkscape:randomized="0" d="M 135.556,59.530281 C 135.37458,59.829484 128.89476,58.667973 128.59173,58.842926 C 128.29705,59.01306 126.25198,65.105664 125.9118,65.098362 C 125.56197,65.090853 123.32796,58.898405 123.02493,58.723453 C 122.73025,58.55332 116.43137,59.828544 116.2676,59.530281 C 116.09919,59.22357 120.345,54.192632 120.345,53.842727 C 120.345,53.50246 116.09118,48.68508 116.2676,48.394119 C 116.44901,48.094917 122.92884,49.256427 123.23186,49.081474 C 123.52654,48.911341 125.57161,42.818737 125.9118,42.826038 C 126.26162,42.833547 128.49564,49.025995 128.79866,49.200947 C 129.09334,49.37108 135.39223,48.095857 135.556,48.394119 C 135.72441,48.700831 131.4786,53.731768 131.4786,54.081673 C 131.4786,54.42194 135.73241,59.23932 135.556,59.530281 z " transform="matrix(0.998433,0,0,0.998433,9.5238226,47.867477)"/><path style="fill:none;fill-opacity:1;fill-rule:evenodd;stroke:#b5cece;stroke-width:1.99686599;stroke-linecap:butt;stroke-linejoin:miter;stroke-miterlimit:4;stroke-dasharray:none;stroke-opacity:1" d="M 108.51502,120.27902 L 217.41968,120.27902 L 217.41968,55.338506 C 217.41968,41.957554 198.09828,34.649491 163.54204,34.649491 C 123.95576,34.649491 108.51502,44.950082 108.51502,55.338506 L 108.51502,120.27902 z " id="path6340" sodipodi:nodetypes="cccscc"/></g></svg>