<?xml version="1.0" encoding="UTF-8"?>
<!DOCTYPE svg PUBLIC "-//W3C//DTD SVG 1.1//EN" "http://www.w3.org/Graphics/SVG/1.1/DTD/svg11.dtd">
<svg xmlns="http://www.w3.org/2000/svg" version="1.1" width="900px" height="1100px" style="shape-rendering:geometricPrecision; text-rendering:geometricPrecision; image-rendering:optimizeQuality; fill-rule:evenodd; clip-rule:evenodd" xmlns:xlink="http://www.w3.org/1999/xlink">
<g><path style="opacity:0.048" fill="#000000" d="M 89.5,63.5 C 90.8117,65.7432 91.4783,68.4098 91.5,71.5C 91.6218,74.6911 91.1218,77.6911 90,80.5C 89.5006,74.8431 89.3339,69.1764 89.5,63.5 Z"/></g>
<g><path style="opacity:0.998" fill="#000000" d="M 345.5,157.5 C 348.113,161.799 350.78,166.132 353.5,170.5C 354.333,170.833 355.167,171.167 356,171.5C 422.062,156.219 487.896,157.219 553.5,174.5C 557.827,169.839 562.16,165.173 566.5,160.5C 595.63,138.149 626.964,134.649 660.5,150C 691.558,168.925 707.558,196.758 708.5,233.5C 707.345,240.321 707.179,247.321 708,254.5C 799.394,333.469 846.894,433.635 850.5,555C 850.665,596.01 844.998,636.177 833.5,675.5C 673.167,675.5 512.833,675.5 352.5,675.5C 352.667,617.166 352.5,558.832 352,500.5C 309.469,462.258 291.802,414.591 299,357.5C 302.457,337.124 309.457,318.124 320,300.5C 322.727,296.95 325.561,293.617 328.5,290.5C 329.797,288.307 329.797,285.973 328.5,283.5C 327.893,283.624 327.56,283.957 327.5,284.5C 300.345,301.897 272.012,304.063 242.5,291C 229.199,289.723 215.865,289.223 202.5,289.5C 202.5,418.167 202.5,546.833 202.5,675.5C 156.833,675.5 111.167,675.5 65.5,675.5C 28.9541,542.42 52.1208,421.087 135,311.5C 141.042,304.962 146.875,298.295 152.5,291.5C 153.043,291.44 153.376,291.107 153.5,290.5C 146.344,289.181 139.344,289.181 132.5,290.5C 131.833,290.833 131.167,291.167 130.5,291.5C 116.167,291.5 101.833,291.5 87.5,291.5C 89.1721,288.308 91.5054,285.475 94.5,283C 127.962,254.54 161.129,225.707 194,196.5C 203.804,159.03 227.637,136.197 265.5,128C 297.425,124.151 324.092,133.984 345.5,157.5 Z"/></g>
<g><path style="opacity:0.97" fill="#fcfcfc" d="M 566.5,160.5 C 562.16,165.173 557.827,169.839 553.5,174.5C 487.896,157.219 422.062,156.219 356,171.5C 355.167,171.167 354.333,170.833 353.5,170.5C 350.78,166.132 348.113,161.799 345.5,157.5C 419.407,139.326 493.073,140.326 566.5,160.5 Z"/></g>
<g><path style="opacity:1" fill="#fdfdfd" d="M 270.5,158.5 C 301.008,156.201 321.841,169.201 333,197.5C 334.321,205.439 334.821,213.439 334.5,221.5C 313.167,221.5 291.833,221.5 270.5,221.5C 270.5,200.5 270.5,179.5 270.5,158.5 Z"/></g>
<g><path style="opacity:1" fill="#949494" d="M 679.5,560.5 C 679.667,457.833 679.5,355.166 679,252.5C 672.697,228.197 657.531,212.364 633.5,205C 616.264,201.369 600.597,204.702 586.5,215C 581.898,219.094 577.898,223.594 574.5,228.5C 547.199,257.971 520.033,287.637 493,317.5C 482.642,330.019 472.142,342.353 461.5,354.5C 459.178,355.802 457.845,357.802 457.5,360.5C 451.866,354.696 446.366,348.696 441,342.5C 440.333,341.833 440.333,341.167 441,340.5C 488.167,288 535.333,235.5 582.5,183C 607.573,162.728 632.906,162.395 658.5,182C 669.989,193.141 677.155,206.641 680,222.5C 680.833,335.334 680.666,448.001 679.5,560.5 Z"/></g>
<g><path style="opacity:1" fill="#fafafa" d="M 239.5,174.5 C 240.496,189.991 240.83,205.658 240.5,221.5C 235.167,221.5 229.833,221.5 224.5,221.5C 221.769,203.311 226.769,187.644 239.5,174.5 Z"/></g>
<g><path style="opacity:1" fill="#fefefe" d="M 679.5,560.5 C 675.398,587.556 660.398,605.39 634.5,614C 602.455,618.611 579.955,606.111 567,576.5C 564.227,569.411 562.727,562.078 562.5,554.5C 562.833,500.496 562.5,446.496 561.5,392.5C 560.893,392.624 560.56,392.957 560.5,393.5C 548.839,407.326 536.672,420.659 524,433.5C 501.696,409.36 479.53,385.026 457.5,360.5C 457.845,357.802 459.178,355.802 461.5,354.5C 499.901,313.102 537.568,271.102 574.5,228.5C 577.898,223.594 581.898,219.094 586.5,215C 600.597,204.702 616.264,201.369 633.5,205C 657.531,212.364 672.697,228.197 679,252.5C 679.5,355.166 679.667,457.833 679.5,560.5 Z"/></g>
<g><path style="opacity:1" fill="#fafafa" d="M 228.5,234.5 C 232.5,234.5 236.5,234.5 240.5,234.5C 240.666,240.509 240.499,246.509 240,252.5C 234.381,247.584 230.548,241.584 228.5,234.5 Z"/></g>
<g><path style="opacity:1" fill="#fcfcfc" d="M 270.5,234.5 C 290.511,234.167 310.511,234.5 330.5,235.5C 318.135,259.933 298.302,270.933 271,268.5C 270.5,257.172 270.333,245.838 270.5,234.5 Z"/></g>
<g><path style="opacity:0.993" fill="#fefefe" d="M 708.5,233.5 C 819.355,324.926 871.855,442.926 866,587.5C 852.113,731.242 784.279,841.075 662.5,917C 549.928,980.285 432.262,991.618 309.5,951C 206.877,913.041 129.71,845.875 78,749.5C 28.9239,650.925 19.2573,548.591 49,442.5C 65.7847,386.245 92.9513,335.911 130.5,291.5C 131.167,291.167 131.833,290.833 132.5,290.5C 139.354,290.176 146.021,290.509 152.5,291.5C 146.875,298.295 141.042,304.962 135,311.5C 52.1208,421.087 28.9541,542.42 65.5,675.5C 111.167,675.5 156.833,675.5 202.5,675.5C 202.5,546.833 202.5,418.167 202.5,289.5C 215.865,289.223 229.199,289.723 242.5,291C 272.012,304.063 300.345,301.897 327.5,284.5C 328.461,286.265 328.795,288.265 328.5,290.5C 325.561,293.617 322.727,296.95 320,300.5C 309.457,318.124 302.457,337.124 299,357.5C 291.802,414.591 309.469,462.258 352,500.5C 352.5,558.832 352.667,617.166 352.5,675.5C 512.833,675.5 673.167,675.5 833.5,675.5C 844.998,636.177 850.665,596.01 850.5,555C 846.894,433.635 799.394,333.469 708,254.5C 707.179,247.321 707.345,240.321 708.5,233.5 Z"/></g>
<g><path style="opacity:1" fill="#d6d6d6" d="M 574.5,228.5 C 537.568,271.102 499.901,313.102 461.5,354.5C 472.142,342.353 482.642,330.019 493,317.5C 520.033,287.637 547.199,257.971 574.5,228.5 Z"/></g>
<g><path style="opacity:1" fill="#fafafa" d="M 199.5,245.5 C 199.5,250.167 199.5,254.833 199.5,259.5C 189.652,259.827 179.986,259.494 170.5,258.5C 178.788,251.218 187.121,243.885 195.5,236.5C 197.608,239.157 198.941,242.157 199.5,245.5 Z"/></g>
<g><path style="opacity:1" fill="#a8a8a8" d="M 199.5,245.5 C 200.487,250.305 200.821,255.305 200.5,260.5C 189.828,260.667 179.161,260.5 168.5,260C 169.044,259.283 169.711,258.783 170.5,258.5C 179.986,259.494 189.652,259.827 199.5,259.5C 199.5,254.833 199.5,250.167 199.5,245.5 Z"/></g>
<g><path style="opacity:1" fill="#9e9e9e" d="M 327.5,284.5 C 327.56,283.957 327.893,283.624 328.5,283.5C 329.797,285.973 329.797,288.307 328.5,290.5C 328.795,288.265 328.461,286.265 327.5,284.5 Z"/></g>
<g><path style="opacity:1" fill="#3c3c3c" d="M 132.5,290.5 C 139.344,289.181 146.344,289.181 153.5,290.5C 153.376,291.107 153.043,291.44 152.5,291.5C 146.021,290.509 139.354,290.176 132.5,290.5 Z"/></g>
<g><path style="opacity:1" fill="#fcfcfc" d="M 340.5,307.5 C 342.932,308.75 345.266,310.25 347.5,312C 408.308,371.23 469.308,430.23 530.5,489C 534.186,490.971 535.186,493.805 533.5,497.5C 529.111,500.532 524.444,502.698 519.5,504C 486.735,472.737 454.068,441.237 421.5,409.5C 414.216,415.282 407.382,421.615 401,428.5C 400.333,429.5 400.333,430.5 401,431.5C 430.137,458.97 458.97,486.803 487.5,515C 483.367,515.994 479.2,516.828 475,517.5C 472.62,516.799 470.453,515.633 468.5,514C 442.652,488.652 416.652,463.485 390.5,438.5C 383.374,445.125 376.374,451.958 369.5,459C 388.5,477.333 407.5,495.667 426.5,514C 386.2,505.373 355.7,483.206 335,447.5C 310.48,399.746 312.313,353.079 340.5,307.5 Z"/></g>
<g><path style="opacity:1" fill="#8a8a8a" d="M 560.5,393.5 C 560.56,392.957 560.893,392.624 561.5,392.5C 562.5,446.496 562.833,500.496 562.5,554.5C 561.833,500.833 561.167,447.167 560.5,393.5 Z"/></g>
<g><path style="opacity:1" fill="#000000" d="M 202.5,839.5 C 200.692,839.491 199.025,839.991 197.5,841C 199.265,841.64 200.932,841.473 202.5,840.5C 202.667,851.505 202.5,862.505 202,873.5C 147.953,830.457 107.12,777.29 79.5,714C 120.499,713.5 161.499,713.333 202.5,713.5C 202.5,755.5 202.5,797.5 202.5,839.5 Z"/></g>
<g><path style="opacity:1" fill="#010101" d="M 352.5,896.5 C 359.47,897.83 366.47,897.83 373.5,896.5C 373.833,895.833 374.167,895.167 374.5,894.5C 372.927,889.588 372.427,884.588 373,879.5C 375.347,874.74 379.181,872.073 384.5,871.5C 387.032,871.864 388.865,873.197 390,875.5C 393.591,881.776 396.091,888.443 397.5,895.5C 404.755,895.813 411.921,895.48 419,894.5C 420.174,889.06 419.174,884.06 416,879.5C 411.978,874.979 408.144,870.312 404.5,865.5C 409,862.415 413.667,859.582 418.5,857C 428.897,847.377 427.564,840.043 414.5,835C 398.161,833.566 381.828,833.899 365.5,836C 362.195,839.895 360.028,844.395 359,849.5C 356.228,860.526 354.061,871.526 352.5,882.5C 352.667,869.829 352.5,857.162 352,844.5C 350.199,847.785 347.365,849.619 343.5,850C 339.167,850.667 334.833,850.667 330.5,850C 324.872,845.763 318.872,845.43 312.5,849C 300.648,854.487 295.148,863.654 296,876.5C 298.468,881.989 302.635,885.489 308.5,887C 323.48,890.007 335.98,885.84 346,874.5C 350.276,883.822 347.776,890.989 338.5,896C 323.005,903.217 307.005,904.884 290.5,901C 280.325,896.486 275.325,888.653 275.5,877.5C 276.067,864.536 281.734,854.37 292.5,847C 308.95,836.034 326.95,832.367 346.5,836C 349.057,836.685 350.891,838.185 352,840.5C 352.5,833.174 352.666,825.841 352.5,818.5C 354.099,818.768 355.432,818.434 356.5,817.5C 438.682,813.117 520.682,815.283 602.5,824C 624.915,826.972 647.248,830.472 669.5,834.5C 678.705,836.78 688.039,839.113 697.5,841.5C 700.063,841.263 700.063,840.763 697.5,840C 689.465,837.825 681.465,835.659 673.5,833.5C 623.282,821.063 572.282,813.23 520.5,810C 465.782,806.226 411.115,806.726 356.5,811.5C 355.167,811.5 353.833,811.5 352.5,811.5C 352.5,804.5 352.5,797.5 352.5,790.5C 359.833,790.5 367.167,790.5 374.5,790.5C 374.5,789.5 374.5,788.5 374.5,787.5C 371.833,787.5 369.167,787.5 366.5,787.5C 366.5,782.5 366.5,777.5 366.5,772.5C 368.199,772.34 369.866,772.506 371.5,773C 376.167,778.333 380.833,783.667 385.5,789C 389.417,790.691 393.417,790.857 397.5,789.5C 394.567,788.07 392.067,786.07 390,783.5C 387.217,779.049 384.05,774.883 380.5,771C 387.017,766.755 388.183,761.255 384,754.5C 381.749,752.623 379.249,751.123 376.5,750C 368.507,749.5 360.507,749.334 352.5,749.5C 352.5,737.5 352.5,725.5 352.5,713.5C 508.167,713.333 663.834,713.5 819.5,714C 773.631,817.202 698.298,889.869 593.5,932C 514.921,961.067 434.921,965.9 353.5,946.5C 352.501,929.847 352.167,913.18 352.5,896.5 Z"/></g>
<g><path style="opacity:1" fill="#070707" d="M 235.5,773.5 C 234.837,775.641 234.503,777.975 234.5,780.5C 234.529,783.269 235.195,785.603 236.5,787.5C 238.179,787.892 239.846,788.392 241.5,789C 241.167,789.333 240.833,789.667 240.5,790C 234.584,790.807 228.75,790.641 223,789.5C 222.833,789.167 222.667,788.833 222.5,788.5C 224.743,787.526 227.076,787.192 229.5,787.5C 231.79,774.597 232.624,761.597 232,748.5C 229.471,745.652 226.304,743.985 222.5,743.5C 228.388,742.193 234.221,742.193 240,743.5C 246.245,755.664 253.245,767.331 261,778.5C 268.265,766.905 275.099,755.072 281.5,743C 287.196,742.17 292.863,742.337 298.5,743.5C 295.296,744.204 292.129,744.87 289,745.5C 288.333,750.167 288.333,754.833 289,759.5C 289.94,768.873 291.107,778.207 292.5,787.5C 294.827,787.247 296.827,787.914 298.5,789.5C 290.167,790.833 281.833,790.833 273.5,789.5C 275.933,787.946 278.6,787.28 281.5,787.5C 281.931,777.079 281.265,766.745 279.5,756.5C 272.5,767.833 265.5,779.167 258.5,790.5C 251.097,779.372 243.931,768.038 237,756.5C 235.869,762.112 235.369,767.779 235.5,773.5 Z"/></g>
<g><path style="opacity:1" fill="#121212" d="M 322.5,749.5 C 324.981,749.323 326.814,750.323 328,752.5C 332.803,764.106 338.137,775.439 344,786.5C 345.78,787.594 347.614,788.594 349.5,789.5C 342.524,790.664 335.524,790.831 328.5,790C 328.043,789.586 327.709,789.086 327.5,788.5C 330.167,787.833 332.833,787.167 335.5,786.5C 334.568,783.47 333.235,780.637 331.5,778C 325.833,777.333 320.167,777.333 314.5,778C 312.765,780.637 311.432,783.47 310.5,786.5C 312.882,788.071 315.549,788.904 318.5,789C 318.167,789.333 317.833,789.667 317.5,790C 311.804,790.83 306.137,790.663 300.5,789.5C 302.733,788.258 304.899,786.924 307,785.5C 312.456,773.633 317.623,761.633 322.5,749.5 Z"/></g>
<g><path style="opacity:1" fill="#eae4e4" d="M 417.5,749.5 C 426.167,749.5 434.833,749.5 443.5,749.5C 443.823,753.226 443.489,756.893 442.5,760.5C 441.218,758.821 440.218,756.987 439.5,755C 431.215,752.544 423.215,753.211 415.5,757C 408.208,766.918 409.208,775.918 418.5,784C 427.071,787.881 435.071,787.047 442.5,781.5C 442.833,782 443.167,782.5 443.5,783C 441.284,789.991 436.451,792.491 429,790.5C 410.377,791.541 401.377,782.874 402,764.5C 405.106,757.225 410.272,752.225 417.5,749.5 Z"/></g>
<g><path style="opacity:1" fill="#ece5e5" d="M 544.5,749.5 C 553.167,749.5 561.833,749.5 570.5,749.5C 570.823,753.226 570.489,756.893 569.5,760.5C 568.232,758.696 567.565,756.696 567.5,754.5C 561.203,753.461 554.87,753.294 548.5,754C 539.97,758.226 536.803,765.059 539,774.5C 544.166,784.495 552.332,788.161 563.5,785.5C 563.5,782.5 563.5,779.5 563.5,776.5C 560.833,776.5 558.167,776.5 555.5,776.5C 555.5,775.5 555.5,774.5 555.5,773.5C 562.5,773.5 569.5,773.5 576.5,773.5C 576.5,774.5 576.5,775.5 576.5,776.5C 574.833,776.5 573.167,776.5 571.5,776.5C 571.5,780.167 571.5,783.833 571.5,787.5C 563.059,790.237 554.392,791.071 545.5,790C 529.795,784.089 525.628,773.589 533,758.5C 536.161,754.491 539.994,751.491 544.5,749.5 Z"/></g>
<g><path style="opacity:1" fill="#eae3e3" d="M 619.5,788.5 C 614.015,789.652 608.349,789.818 602.5,789C 603.416,788.722 604.082,788.222 604.5,787.5C 605.822,787.67 606.989,787.337 608,786.5C 613.194,775.25 618.194,763.916 623,752.5C 624.224,749.527 626.224,748.86 629,750.5C 634.317,761.803 639.65,773.136 645,784.5C 646.937,786.542 649.104,788.209 651.5,789.5C 644.197,790.497 636.863,790.831 629.5,790.5C 629.5,789.5 629.5,788.5 629.5,787.5C 631.833,787.5 634.167,787.5 636.5,787.5C 636.638,779.474 632.804,776.474 625,778.5C 617.18,776.491 613.347,779.491 613.5,787.5C 615.735,787.205 617.735,787.539 619.5,788.5 Z"/></g>
<g><path style="opacity:1" fill="#ece6e6" d="M 352.5,749.5 C 360.507,749.334 368.507,749.5 376.5,750C 379.249,751.123 381.749,752.623 384,754.5C 388.183,761.255 387.017,766.755 380.5,771C 384.05,774.883 387.217,779.049 390,783.5C 392.067,786.07 394.567,788.07 397.5,789.5C 393.417,790.857 389.417,790.691 385.5,789C 380.833,783.667 376.167,778.333 371.5,773C 369.866,772.506 368.199,772.34 366.5,772.5C 366.5,777.5 366.5,782.5 366.5,787.5C 369.167,787.5 371.833,787.5 374.5,787.5C 374.5,788.5 374.5,789.5 374.5,790.5C 367.167,790.5 359.833,790.5 352.5,790.5C 351.167,789.5 351.167,788.5 352.5,787.5C 354.167,787.5 355.833,787.5 357.5,787.5C 358.388,775.86 358.721,764.193 358.5,752.5C 356.5,752.5 354.5,752.5 352.5,752.5C 351.167,751.5 351.167,750.5 352.5,749.5 Z"/></g>
<g><path style="opacity:1" fill="#e8e1e1" d="M 486.5,781.5 C 487.479,778.375 487.813,775.042 487.5,771.5C 478.5,771.5 469.5,771.5 460.5,771.5C 460.179,776.695 460.513,781.695 461.5,786.5C 463.948,787.473 466.615,787.806 469.5,787.5C 469.5,788.5 469.5,789.5 469.5,790.5C 461.833,790.5 454.167,790.5 446.5,790.5C 446.5,789.5 446.5,788.5 446.5,787.5C 448.5,787.5 450.5,787.5 452.5,787.5C 452.5,775.833 452.5,764.167 452.5,752.5C 450.5,752.5 448.5,752.5 446.5,752.5C 446.5,751.5 446.5,750.5 446.5,749.5C 453.841,749.334 461.174,749.5 468.5,750C 468.957,750.414 469.291,750.914 469.5,751.5C 466.914,752.48 464.247,752.813 461.5,752.5C 461.195,757.762 461.529,762.928 462.5,768C 470.523,768.657 478.523,768.49 486.5,767.5C 486.666,762.821 486.499,758.155 486,753.5C 483.619,752.565 481.119,752.232 478.5,752.5C 478.5,751.5 478.5,750.5 478.5,749.5C 486.167,749.5 493.833,749.5 501.5,749.5C 501.5,750.5 501.5,751.5 501.5,752.5C 498.921,752.083 496.754,752.75 495,754.5C 494.26,765.527 494.426,776.527 495.5,787.5C 497.5,787.5 499.5,787.5 501.5,787.5C 501.5,788.5 501.5,789.5 501.5,790.5C 493.833,790.5 486.167,790.5 478.5,790.5C 478.5,789.5 478.5,788.5 478.5,787.5C 481.167,787.5 483.833,787.5 486.5,787.5C 486.5,785.5 486.5,783.5 486.5,781.5 Z"/></g>
<g><path style="opacity:1" fill="#eae3e3" d="M 502.5,749.5 C 510.5,749.5 518.5,749.5 526.5,749.5C 526.5,750.5 526.5,751.5 526.5,752.5C 523.881,752.232 521.381,752.565 519,753.5C 518.5,764.828 518.333,776.162 518.5,787.5C 521.167,787.5 523.833,787.5 526.5,787.5C 526.5,788.5 526.5,789.5 526.5,790.5C 518.5,790.5 510.5,790.5 502.5,790.5C 502.5,789.5 502.5,788.5 502.5,787.5C 504.833,787.5 507.167,787.5 509.5,787.5C 510.302,775.852 510.635,764.185 510.5,752.5C 507.833,752.5 505.167,752.5 502.5,752.5C 502.5,751.5 502.5,750.5 502.5,749.5 Z"/></g>
<g><path style="opacity:1" fill="#ede6e6" d="M 596.5,787.5 C 597.952,788.302 599.618,788.802 601.5,789C 593.507,789.5 585.507,789.666 577.5,789.5C 579.279,787.656 581.612,786.99 584.5,787.5C 585.361,775.856 585.695,764.19 585.5,752.5C 582.833,752.5 580.167,752.5 577.5,752.5C 577.5,751.5 577.5,750.5 577.5,749.5C 585.5,749.5 593.5,749.5 601.5,749.5C 601.5,750.5 601.5,751.5 601.5,752.5C 598.833,752.5 596.167,752.5 593.5,752.5C 593.5,764.167 593.5,775.833 593.5,787.5C 594.5,787.5 595.5,787.5 596.5,787.5 Z"/></g>
<g><path style="opacity:1" fill="#ebe4e4" d="M 700.5,758.5 C 700.158,769.372 699.158,780.039 697.5,790.5C 687.521,779.854 677.188,769.521 666.5,759.5C 665.335,768.482 665.168,777.482 666,786.5C 668.381,787.435 670.881,787.768 673.5,787.5C 673.5,788.5 673.5,789.5 673.5,790.5C 667.167,790.5 660.833,790.5 654.5,790.5C 654.5,789.5 654.5,788.5 654.5,787.5C 656.833,787.5 659.167,787.5 661.5,787.5C 661.832,776.48 661.499,765.48 660.5,754.5C 658.149,752.771 655.482,752.104 652.5,752.5C 652.5,751.5 652.5,750.5 652.5,749.5C 657.844,749.334 663.177,749.501 668.5,750C 677.667,759.167 686.833,768.333 696,777.5C 696.667,769.5 696.667,761.5 696,753.5C 693.619,752.565 691.119,752.232 688.5,752.5C 688.5,751.5 688.5,750.5 688.5,749.5C 694.868,749.17 701.202,749.504 707.5,750.5C 705.49,752.171 703.157,752.838 700.5,752.5C 700.5,754.5 700.5,756.5 700.5,758.5 Z"/></g>
<g><path style="opacity:1" fill="#030303" d="M 352.5,752.5 C 354.5,752.5 356.5,752.5 358.5,752.5C 358.721,764.193 358.388,775.86 357.5,787.5C 355.833,787.5 354.167,787.5 352.5,787.5C 352.5,775.833 352.5,764.167 352.5,752.5 Z"/></g>
<g><path style="opacity:1" fill="#090909" d="M 367.5,753.5 C 376.878,754.013 379.878,758.513 376.5,767C 373.321,768.461 369.988,769.295 366.5,769.5C 366.324,764.12 366.658,758.787 367.5,753.5 Z"/></g>
<g><path style="opacity:1" fill="#929292" d="M 700.5,758.5 C 700.5,769.5 700.5,780.5 700.5,791.5C 699.209,791.737 698.209,791.404 697.5,790.5C 699.158,780.039 700.158,769.372 700.5,758.5 Z"/></g>
<g><path style="opacity:1" fill="#f1f1f1" d="M 329.5,773.5 C 325.167,774.833 320.833,774.833 316.5,773.5C 317.728,768.818 319.728,764.484 322.5,760.5C 325.605,764.374 327.938,768.708 329.5,773.5 Z"/></g>
<g><path style="opacity:1" fill="#090909" d="M 624.5,760.5 C 627.059,764.612 629.392,768.946 631.5,773.5C 627.167,774.833 622.833,774.833 618.5,773.5C 620.24,769.021 622.24,764.687 624.5,760.5 Z"/></g>
<g><path style="opacity:1" fill="#6e6e6e" d="M 282.5,750.5 C 284.376,762.661 285.542,774.995 286,787.5C 284.014,775.345 282.847,763.012 282.5,750.5 Z"/></g>
<g><path style="opacity:1" fill="#6b6b6b" d="M 486.5,781.5 C 486.5,778.5 486.5,775.5 486.5,772.5C 478.167,772.5 469.833,772.5 461.5,772.5C 461.5,777.167 461.5,781.833 461.5,786.5C 460.513,781.695 460.179,776.695 460.5,771.5C 469.5,771.5 478.5,771.5 487.5,771.5C 487.813,775.042 487.479,778.375 486.5,781.5 Z"/></g>
<g><path style="opacity:1" fill="#545454" d="M 316.5,773.5 C 320.833,774.833 325.167,774.833 329.5,773.5C 330.043,773.56 330.376,773.893 330.5,774.5C 325.5,775.833 320.5,775.833 315.5,774.5C 315.624,773.893 315.957,773.56 316.5,773.5 Z"/></g>
<g><path style="opacity:1" fill="#828282" d="M 235.5,773.5 C 235.226,778.263 235.559,782.93 236.5,787.5C 235.195,785.603 234.529,783.269 234.5,780.5C 234.503,777.975 234.837,775.641 235.5,773.5 Z"/></g>
<g><path style="opacity:1" fill="#adadad" d="M 596.5,787.5 C 599.167,787.5 601.833,787.5 604.5,787.5C 604.082,788.222 603.416,788.722 602.5,789C 608.349,789.818 614.015,789.652 619.5,788.5C 620.043,788.56 620.376,788.893 620.5,789.5C 606.006,790.826 591.672,790.826 577.5,789.5C 585.507,789.666 593.507,789.5 601.5,789C 599.618,788.802 597.952,788.302 596.5,787.5 Z"/></g>
<g><path style="opacity:1" fill="#ececec" d="M 673.5,833.5 C 672.432,834.434 671.099,834.768 669.5,834.5C 647.248,830.472 624.915,826.972 602.5,824C 520.682,815.283 438.682,813.117 356.5,817.5C 355.5,817.5 354.5,817.5 353.5,817.5C 353.5,815.833 353.5,814.167 353.5,812.5C 354.791,812.737 355.791,812.404 356.5,811.5C 411.115,806.726 465.782,806.226 520.5,810C 572.282,813.23 623.282,821.063 673.5,833.5 Z"/></g>
<g><path style="opacity:1" fill="#a4a4a4" d="M 348.5,812.5 C 349.568,811.566 350.901,811.232 352.5,811.5C 353.833,811.5 355.167,811.5 356.5,811.5C 355.791,812.404 354.791,812.737 353.5,812.5C 353.5,814.167 353.5,815.833 353.5,817.5C 354.5,817.5 355.5,817.5 356.5,817.5C 355.432,818.434 354.099,818.768 352.5,818.5C 352.5,816.5 352.5,814.5 352.5,812.5C 351.167,812.5 349.833,812.5 348.5,812.5 Z"/></g>
<g><path style="opacity:1" fill="#131313" d="M 348.5,812.5 C 349.833,812.5 351.167,812.5 352.5,812.5C 352.5,814.5 352.5,816.5 352.5,818.5C 313.211,820.825 274.211,825.492 235.5,832.5C 233.585,832.784 231.919,832.451 230.5,831.5C 269.287,821.901 308.62,815.568 348.5,812.5 Z"/></g>
<g><path style="opacity:1" fill="#3e3e3e" d="M 230.5,831.5 C 231.919,832.451 233.585,832.784 235.5,832.5C 224.571,834.981 213.571,837.648 202.5,840.5C 200.932,841.473 199.265,841.64 197.5,841C 199.025,839.991 200.692,839.491 202.5,839.5C 211.727,836.526 221.061,833.859 230.5,831.5 Z"/></g>
<g><path style="opacity:1" fill="#f5f5f5" d="M 352.5,896.5 C 352.5,891.833 352.5,887.167 352.5,882.5C 354.061,871.526 356.228,860.526 359,849.5C 360.028,844.395 362.195,839.895 365.5,836C 381.828,833.899 398.161,833.566 414.5,835C 427.564,840.043 428.897,847.377 418.5,857C 413.667,859.582 409,862.415 404.5,865.5C 408.144,870.312 411.978,874.979 416,879.5C 419.174,884.06 420.174,889.06 419,894.5C 411.921,895.48 404.755,895.813 397.5,895.5C 396.091,888.443 393.591,881.776 390,875.5C 388.865,873.197 387.032,871.864 384.5,871.5C 379.181,872.073 375.347,874.74 373,879.5C 372.427,884.588 372.927,889.588 374.5,894.5C 374.167,895.167 373.833,895.833 373.5,896.5C 366.47,897.83 359.47,897.83 352.5,896.5 Z"/></g>
<g><path style="opacity:1" fill="#f2f2f2" d="M 468.5,853.5 C 472.042,853.187 475.375,853.521 478.5,854.5C 476.101,858.795 473.101,862.629 469.5,866C 465.486,866.499 461.486,866.333 457.5,865.5C 445.935,865.562 440.435,871.228 441,882.5C 441.5,883 442,883.5 442.5,884C 455.949,884.265 469.283,883.098 482.5,880.5C 483.702,885.712 483.702,890.879 482.5,896C 462.177,895.847 441.844,895.514 421.5,895C 420.383,891.927 420.216,888.76 421,885.5C 425.251,867.07 432.418,849.903 442.5,834C 460.482,834.626 478.482,835.126 496.5,835.5C 496.649,836.552 496.483,837.552 496,838.5C 492.31,841.691 488.477,844.691 484.5,847.5C 474.343,843.77 464.01,842.936 453.5,845C 450.564,848.045 449.897,851.545 451.5,855.5C 457.068,854.103 462.735,853.437 468.5,853.5 Z"/></g>
<g><path style="opacity:1" fill="#bfbfbf" d="M 673.5,833.5 C 681.465,835.659 689.465,837.825 697.5,840C 700.063,840.763 700.063,841.263 697.5,841.5C 688.039,839.113 678.705,836.78 669.5,834.5C 671.099,834.768 672.432,834.434 673.5,833.5 Z"/></g>
<g><path style="opacity:1" fill="#f7f7f7" d="M 498.5,836.5 C 504.509,836.334 510.509,836.501 516.5,837C 517.428,837.388 518.095,838.055 518.5,839C 515.85,845.959 513.017,852.793 510,859.5C 507.881,885.133 514.214,887.8 529,867.5C 532.569,858.791 535.736,849.958 538.5,841C 544.845,840.556 551.178,840.723 557.5,841.5C 556.466,849.915 553.966,857.915 550,865.5C 548.128,871.725 547.461,878.059 548,884.5C 550.227,886.879 552.727,887.046 555.5,885C 561.41,879.761 566.577,873.928 571,867.5C 574.089,860.477 575.922,853.143 576.5,845.5C 581.215,845.506 585.882,846.006 590.5,847C 591.428,847.388 592.095,848.055 592.5,849C 584.464,872.91 569.297,890.743 547,902.5C 541.732,895.724 536.232,889.057 530.5,882.5C 522.7,887.136 515.033,891.969 507.5,897C 503.835,897.387 501.002,895.887 499,892.5C 490.514,879.596 488.181,865.596 492,850.5C 493.377,845.416 495.543,840.749 498.5,836.5 Z"/></g>
<g><path style="opacity:1" fill="#050505" d="M 383.5,844.5 C 389.176,844.334 394.843,844.501 400.5,845C 403.629,845.117 404.795,846.617 404,849.5C 395.077,855.865 385.243,860.198 374.5,862.5C 374.263,858.727 374.763,855.06 376,851.5C 378.015,848.588 380.515,846.255 383.5,844.5 Z"/></g>
<g><path style="opacity:1" fill="#818181" d="M 468.5,853.5 C 472.019,852.192 475.685,852.192 479.5,853.5C 479.376,854.107 479.043,854.44 478.5,854.5C 475.375,853.521 472.042,853.187 468.5,853.5 Z"/></g>
</svg>
