<?xml version="1.0" encoding="UTF-8"?>
<!DOCTYPE svg PUBLIC "-//W3C//DTD SVG 1.1//EN" "http://www.w3.org/Graphics/SVG/1.1/DTD/svg11.dtd">
<svg xmlns="http://www.w3.org/2000/svg" version="1.1" width="1888px" height="1888px" style="shape-rendering:geometricPrecision; text-rendering:geometricPrecision; image-rendering:optimizeQuality; fill-rule:evenodd; clip-rule:evenodd" xmlns:xlink="http://www.w3.org/1999/xlink">
<g><path style="opacity:0.991" fill="#86592e" d="M 945.5,73.5 C 951.209,74.0369 955.043,77.0369 957,82.5C 960.583,109.499 964.083,136.499 967.5,163.5C 995.109,169.686 1017.94,162.02 1036,140.5C 1040.31,130.049 1038.81,120.549 1031.5,112C 1027.02,108.713 1022.02,107.713 1016.5,109C 1015.09,109.368 1014.09,110.201 1013.5,111.5C 1023.39,123.809 1022.39,135.309 1010.5,146C 994.389,151.528 983.222,146.361 977,130.5C 974.756,104.506 986.256,88.0055 1011.5,81C 1043,76.8371 1064.16,89.6704 1075,119.5C 1080.37,144.399 1073.53,165.232 1054.5,182C 1241.63,209.305 1400.13,290.805 1530,426.5C 1676.72,586.573 1748.72,775.906 1746,994.5C 1743.01,1112.62 1715.18,1224.45 1662.5,1330C 1677.15,1330.94 1691.82,1331.44 1706.5,1331.5C 1706.5,1357.5 1706.5,1383.5 1706.5,1409.5C 1766.17,1409.5 1825.83,1409.5 1885.5,1409.5C 1886.34,1415.78 1884.84,1421.45 1881,1426.5C 1862.37,1458.92 1843.87,1491.42 1825.5,1524C 1844.87,1557.25 1864.37,1590.42 1884,1623.5C 1885.35,1627.36 1885.85,1631.36 1885.5,1635.5C 1759.17,1635.5 1632.83,1635.5 1506.5,1635.5C 1506.83,1618.49 1506.5,1601.49 1505.5,1584.5C 1492.9,1582.29 1480.23,1580.79 1467.5,1580C 1306.42,1715.26 1120.08,1778.92 908.5,1771C 725.44,1760.74 564.773,1696.41 426.5,1578C 413.11,1578.79 399.777,1580.29 386.5,1582.5C 386.5,1600.17 386.5,1617.83 386.5,1635.5C 258.832,1635.83 131.165,1635.5 3.5,1634.5C 24.0397,1596.59 44.7063,1558.75 65.5,1521C 44.633,1484.29 23.9664,1447.46 3.5,1410.5C 64.4964,1409.5 125.496,1409.17 186.5,1409.5C 186.5,1383.17 186.5,1356.83 186.5,1330.5C 201.847,1330.19 217.18,1329.52 232.5,1328.5C 150.632,1158.86 129.465,981.86 169,797.5C 220.1,586.635 335.6,421.469 515.5,302C 615.205,238.313 723.871,198.313 841.5,182C 817.494,160.107 812.66,134.607 827,105.5C 842.89,81.2026 864.724,73.3692 892.5,82C 913.918,91.7541 922.752,108.254 919,131.5C 910.569,148.201 898.235,152.201 882,143.5C 873.6,132.53 873.434,121.53 881.5,110.5C 869.416,105.354 861.916,109.354 859,122.5C 856.836,133.009 860.002,141.509 868.5,148C 886.112,162.569 906.112,167.403 928.5,162.5C 931.502,137.155 934.668,111.821 938,86.5C 938.471,80.8792 940.971,76.5459 945.5,73.5 Z"/></g>
<g><path style="opacity:1" fill="#fdfdfc" d="M 864.5,92.5 C 883.199,90.5943 896.699,97.9276 905,114.5C 907.911,122.109 906.411,128.609 900.5,134C 893.128,137.15 889.128,134.65 888.5,126.5C 891.415,121.001 894.082,115.334 896.5,109.5C 893.496,101.14 887.496,96.3069 878.5,95C 864.609,93.5302 854.442,99.0302 848,111.5C 840.266,130.398 844.099,146.565 859.5,160C 883.537,179.284 910.204,183.784 939.5,173.5C 942.251,153.161 945.084,132.827 948,112.5C 950.471,133.106 953.304,153.606 956.5,174C 991.721,184.946 1021.55,176.779 1046,149.5C 1055.64,130.818 1052.8,114.318 1037.5,100C 1026.8,94.0043 1016.13,94.0043 1005.5,100C 998.653,104.29 996.819,110.123 1000,117.5C 1002.89,120.048 1005.39,122.882 1007.5,126C 1005.18,136.293 1000.01,138.126 992,131.5C 987.277,112.467 994.444,99.9667 1013.5,94C 1036.74,90.5413 1052.91,99.7079 1062,121.5C 1066,136.815 1063.34,150.815 1054,163.5C 1045.85,172.987 1036.01,180.153 1024.5,185C 1005.6,193.121 985.931,198.287 965.5,200.5C 984.129,259.137 985.296,318.137 969,377.5C 955.227,369.581 941.394,369.581 927.5,377.5C 910.642,318.827 911.642,260.493 930.5,202.5C 930.291,201.914 929.957,201.414 929.5,201C 906.186,197.504 883.853,190.837 862.5,181C 840.763,169.364 830.597,151.197 832,126.5C 836.78,109.197 847.613,97.8637 864.5,92.5 Z"/></g>
<g><path style="opacity:1" fill="#fdfcfb" d="M 889.5,204.5 C 672.65,225 493.817,317.667 353,482.5C 209.821,661.156 153.821,864.489 185,1092.5C 198.177,1175.23 223.677,1253.89 261.5,1328.5C 256.5,1328.5 251.5,1328.5 246.5,1328.5C 155.368,1140.67 138.535,946.337 196,745.5C 256.225,557.404 369.391,410.571 535.5,305C 634.03,244.377 740.864,207.21 856,193.5C 866.982,197.661 878.149,201.327 889.5,204.5 Z"/></g>
<g><path style="opacity:1" fill="#fdfcfb" d="M 1636.5,1330.5 C 1635.28,1329.84 1633.95,1329.17 1632.5,1328.5C 1710.01,1174.4 1734.85,1012.07 1707,841.5C 1672.75,658.097 1585.25,505.93 1444.5,385C 1317.45,279.9 1171.45,219.734 1006.5,204.5C 1017.71,200.93 1028.88,197.263 1040,193.5C 1257.07,222.824 1433.41,322.491 1569,492.5C 1697.1,662.47 1750.1,853.804 1728,1066.5C 1716.51,1159.11 1690.01,1247.11 1648.5,1330.5C 1644.5,1330.5 1640.5,1330.5 1636.5,1330.5 Z"/></g>
<g><path style="opacity:1" fill="#986837" d="M 889.5,204.5 C 897.637,207.454 905.97,209.954 914.5,212C 913.883,214.277 913.216,216.444 912.5,218.5C 797.018,222.149 688.352,251.649 586.5,307C 456.435,379.065 354.935,479.899 282,609.5C 275.016,621.801 268.849,634.468 263.5,647.5C 259.958,652.721 256.958,658.387 254.5,664.5C 254.709,665.086 255.043,665.586 255.5,666C 251.592,670.888 248.925,676.388 247.5,682.5C 245.925,684.547 244.925,686.881 244.5,689.5C 242.119,694.302 240.119,699.302 238.5,704.5C 200.272,804.972 183.938,908.972 189.5,1016.5C 190.36,1020.43 190.693,1024.43 190.5,1028.5C 190.847,1033.68 191.513,1038.68 192.5,1043.5C 192.183,1047.7 192.517,1051.7 193.5,1055.5C 198.495,1107.17 209.161,1157.5 225.5,1206.5C 225.926,1210.9 227.26,1214.9 229.5,1218.5C 231.365,1225.24 233.532,1231.91 236,1238.5C 236.417,1239.76 237.25,1240.42 238.5,1240.5C 238.204,1244.65 239.204,1248.65 241.5,1252.5C 251.465,1278.1 262.799,1303.1 275.5,1327.5C 270.77,1327.28 266.103,1327.62 261.5,1328.5C 223.677,1253.89 198.177,1175.23 185,1092.5C 153.821,864.489 209.821,661.156 353,482.5C 493.817,317.667 672.65,225 889.5,204.5 Z"/></g>
<g><path style="opacity:1" fill="#996837" d="M 1006.5,204.5 C 1171.45,219.734 1317.45,279.9 1444.5,385C 1585.25,505.93 1672.75,658.097 1707,841.5C 1734.85,1012.07 1710.01,1174.4 1632.5,1328.5C 1633.95,1329.17 1635.28,1329.84 1636.5,1330.5C 1629,1330.02 1621.67,1329.36 1614.5,1328.5C 1615.98,1328.76 1617.31,1328.43 1618.5,1327.5C 1632.42,1301.32 1644.42,1274.32 1654.5,1246.5C 1657.29,1242.81 1658.62,1238.81 1658.5,1234.5C 1659.12,1234.39 1659.62,1234.06 1660,1233.5C 1661.94,1227.83 1663.78,1222.17 1665.5,1216.5C 1667.41,1212.77 1668.74,1208.77 1669.5,1204.5C 1684.86,1157.36 1695.2,1109.02 1700.5,1059.5C 1701.45,1058.08 1701.78,1056.41 1701.5,1054.5C 1702.01,1050.4 1702.01,1046.4 1701.5,1042.5C 1703.18,1038.46 1703.84,1034.12 1703.5,1029.5C 1701.9,1029.77 1700.57,1029.43 1699.5,1028.5C 1700.83,1028.5 1702.17,1028.5 1703.5,1028.5C 1704.01,1024.4 1704.01,1020.4 1703.5,1016.5C 1710.23,909.963 1694.73,806.629 1657,706.5C 1656.3,704.416 1655.14,702.749 1653.5,701.5C 1654.04,701.44 1654.38,701.107 1654.5,700.5C 1652.63,696.221 1650.96,691.888 1649.5,687.5C 1648.54,684.561 1646.88,682.228 1644.5,680.5C 1645.24,680.631 1645.91,680.464 1646.5,680C 1641.87,669.242 1636.87,658.742 1631.5,648.5C 1551.4,483.232 1428.07,361.732 1261.5,284C 1183.05,248.888 1101.05,227.222 1015.5,219C 1007.67,218.456 999.836,217.956 992,217.5C 988.979,217.502 986.146,217.836 983.5,218.5C 982.469,216.039 981.802,213.373 981.5,210.5C 990.116,209.596 998.449,207.596 1006.5,204.5 Z"/></g>
<g><path style="opacity:1" fill="#fefefe" d="M 912.5,218.5 C 899.644,273.59 900.644,328.423 915.5,383C 885.327,408.61 870.66,441.443 871.5,481.5C 882.59,480.953 890.424,485.62 895,495.5C 896.43,509.774 896.93,524.108 896.5,538.5C 848.5,538.5 800.5,538.5 752.5,538.5C 752.5,544.5 752.5,550.5 752.5,556.5C 738.5,556.5 724.5,556.5 710.5,556.5C 718.303,575.907 726.303,595.24 734.5,614.5C 738.298,615.483 742.298,615.817 746.5,615.5C 746.5,651.833 746.5,688.167 746.5,724.5C 647.832,714.708 549.499,702.208 451.5,687C 398.069,678.724 345.069,668.391 292.5,656C 282.802,653.267 273.135,650.434 263.5,647.5C 268.849,634.468 275.016,621.801 282,609.5C 354.935,479.899 456.435,379.065 586.5,307C 688.352,251.649 797.018,222.149 912.5,218.5 Z"/></g>
<g><path style="opacity:1" fill="#fefefe" d="M 1631.5,648.5 C 1569.95,664.844 1507.61,677.677 1444.5,687C 1346.82,701.986 1248.82,714.486 1150.5,724.5C 1150.5,688.167 1150.5,651.833 1150.5,615.5C 1154.88,615.826 1159.22,615.492 1163.5,614.5C 1171.18,595.812 1178.85,577.145 1186.5,558.5C 1187.04,558.44 1187.38,558.107 1187.5,557.5C 1180.87,556.503 1174.2,556.17 1167.5,556.5C 1160.17,556.5 1152.83,556.5 1145.5,556.5C 1145.5,550.5 1145.5,544.5 1145.5,538.5C 1097.17,538.5 1048.83,538.5 1000.5,538.5C 1000.33,525.496 1000.5,512.496 1001,499.5C 1003.32,488.788 1009.82,482.788 1020.5,481.5C 1022.5,481.5 1024.5,481.5 1026.5,481.5C 1026.82,475.974 1026.49,470.64 1025.5,465.5C 1022.96,432.073 1008.62,405.073 982.5,384.5C 982.167,383.5 981.833,382.5 981.5,381.5C 996.638,327.34 997.305,273.007 983.5,218.5C 986.146,217.836 988.979,217.502 992,217.5C 999.836,217.956 1007.67,218.456 1015.5,219C 1101.05,227.222 1183.05,248.888 1261.5,284C 1428.07,361.732 1551.4,483.232 1631.5,648.5 Z"/></g>
<g><path style="opacity:1" fill="#fdfdfc" d="M 944.5,384.5 C 961.658,385.996 976.158,392.996 988,405.5C 1002.84,423.844 1011.34,444.844 1013.5,468.5C 1004.17,468.5 994.833,468.5 985.5,468.5C 985.118,448.575 977.784,431.742 963.5,418C 959.099,414.883 954.266,412.716 949,411.5C 938.17,413.991 929.837,419.991 924,429.5C 916.913,441.509 913.08,454.509 912.5,468.5C 903.167,468.5 893.833,468.5 884.5,468.5C 886.47,439.729 898.137,415.895 919.5,397C 927.368,391.733 935.701,387.566 944.5,384.5 Z"/></g>
<g><path style="opacity:1" fill="#b6987c" d="M 940.5,429.5 C 940.56,428.957 940.893,428.624 941.5,428.5C 942.83,465.331 942.83,501.998 941.5,538.5C 941.832,501.996 941.498,465.663 940.5,429.5 Z"/></g>
<g><path style="opacity:1" fill="#9b744f" d="M 956.5,428.5 C 955.502,464.996 955.168,501.663 955.5,538.5C 954.17,501.664 954.17,464.664 955.5,427.5C 956.107,427.624 956.44,427.957 956.5,428.5 Z"/></g>
<g><path style="opacity:1" fill="#fefefe" d="M 940.5,429.5 C 941.498,465.663 941.832,501.996 941.5,538.5C 930.833,538.5 920.167,538.5 909.5,538.5C 909.667,524.829 909.5,511.163 909,497.5C 907.694,492.065 905.527,487.065 902.5,482.5C 909.982,481.508 917.648,481.175 925.5,481.5C 925.5,476.833 925.5,472.167 925.5,467.5C 926.094,452.996 931.094,440.329 940.5,429.5 Z"/></g>
<g><path style="opacity:1" fill="#fefefe" d="M 956.5,428.5 C 966.921,440.083 972.254,453.749 972.5,469.5C 972.5,473.5 972.5,477.5 972.5,481.5C 980.167,481.5 987.833,481.5 995.5,481.5C 991.745,486.921 989.245,492.921 988,499.5C 987.5,512.496 987.333,525.496 987.5,538.5C 976.833,538.5 966.167,538.5 955.5,538.5C 955.168,501.663 955.502,464.996 956.5,428.5 Z"/></g>
<g><path style="opacity:1" fill="#ab8868" d="M 1025.5,465.5 C 1026.49,470.64 1026.82,475.974 1026.5,481.5C 1024.5,481.5 1022.5,481.5 1020.5,481.5C 1021.92,480.549 1023.59,480.216 1025.5,480.5C 1025.5,475.5 1025.5,470.5 1025.5,465.5 Z"/></g>
<g><path style="opacity:1" fill="#bea389" d="M 925.5,467.5 C 925.5,472.167 925.5,476.833 925.5,481.5C 917.648,481.175 909.982,481.508 902.5,482.5C 901.957,482.44 901.624,482.107 901.5,481.5C 909.138,480.503 916.804,480.169 924.5,480.5C 924.182,475.968 924.515,471.634 925.5,467.5 Z"/></g>
<g><path style="opacity:1" fill="#bda187" d="M 972.5,469.5 C 973.482,472.962 973.815,476.629 973.5,480.5C 981.59,480.167 988.923,480.501 995.5,481.5C 987.833,481.5 980.167,481.5 972.5,481.5C 972.5,477.5 972.5,473.5 972.5,469.5 Z"/></g>
<g><path style="opacity:1" fill="#9e7854" d="M 1000.5,538.5 C 1048.83,538.5 1097.17,538.5 1145.5,538.5C 1145.5,544.5 1145.5,550.5 1145.5,556.5C 1144.51,551.025 1144.18,545.358 1144.5,539.5C 1096.33,539.832 1048.33,539.499 1000.5,538.5 Z"/></g>
<g><path style="opacity:1" fill="#fefefd" d="M 1039.5,563.5 C 1034.17,564.167 1028.83,564.833 1023.5,565.5C 975.498,566.49 927.498,566.49 879.5,565.5C 872.167,565.167 864.833,564.833 857.5,564.5C 858.706,561.921 860.039,559.421 861.5,557C 829.502,556.5 797.502,556.333 765.5,556.5C 765.5,554.833 765.5,553.167 765.5,551.5C 887.833,551.5 1010.17,551.5 1132.5,551.5C 1132.5,553.167 1132.5,554.833 1132.5,556.5C 1100.49,556.167 1068.49,556.5 1036.5,557.5C 1037.51,559.527 1038.51,561.527 1039.5,563.5 Z"/></g>
<g><path style="opacity:1" fill="#b7997d" d="M 1167.5,556.5 C 1174.2,556.17 1180.87,556.503 1187.5,557.5C 1187.38,558.107 1187.04,558.44 1186.5,558.5C 1180.17,557.833 1173.83,557.167 1167.5,556.5 Z"/></g>
<g><path style="opacity:1" fill="#d4c0ae" d="M 1039.5,563.5 C 1040.04,563.56 1040.38,563.893 1040.5,564.5C 1034.87,565.495 1029.21,565.829 1023.5,565.5C 1028.83,564.833 1034.17,564.167 1039.5,563.5 Z"/></g>
<g><path style="opacity:1" fill="#9c7651" d="M 839.5,570.5 C 810.5,569.167 781.5,569.167 752.5,570.5C 751.957,570.44 751.624,570.107 751.5,569.5C 781.167,568.167 810.833,568.167 840.5,569.5C 840.376,570.107 840.043,570.44 839.5,570.5 Z"/></g>
<g><path style="opacity:1" fill="#fdfcfb" d="M 729.5,569.5 C 732.247,569.187 734.914,569.52 737.5,570.5C 740.333,575.5 743.167,580.5 746,585.5C 746.499,591.157 746.666,596.824 746.5,602.5C 745.022,602.762 743.689,602.429 742.5,601.5C 738.16,590.809 733.827,580.143 729.5,569.5 Z"/></g>
<g><path style="opacity:1" fill="#fefefe" d="M 839.5,570.5 C 838.18,573.14 836.847,575.807 835.5,578.5C 809.167,579.833 782.833,579.833 756.5,578.5C 755.153,575.807 753.82,573.14 752.5,570.5C 781.5,569.167 810.5,569.167 839.5,570.5 Z"/></g>
<g><path style="opacity:1" fill="#fefefe" d="M 1057.5,570.5 C 1086.66,569.336 1116,569.17 1145.5,570C 1143.83,573 1142.17,576 1140.5,579C 1114.5,579.667 1088.5,579.667 1062.5,579C 1060.93,576.021 1059.27,573.188 1057.5,570.5 Z"/></g>
<g><path style="opacity:1" fill="#fdfcfb" d="M 1160.5,569.5 C 1163.19,569.336 1165.85,569.503 1168.5,570C 1163.6,580.311 1159.1,590.811 1155,601.5C 1153.64,602.38 1152.14,602.714 1150.5,602.5C 1150.33,597.156 1150.5,591.823 1151,586.5C 1154.18,580.806 1157.35,575.139 1160.5,569.5 Z"/></g>
<g><path style="opacity:1" fill="#fbfaf8" d="M 1050.5,584.5 C 982.669,585.499 914.669,585.833 846.5,585.5C 847.653,583.193 848.82,580.86 850,578.5C 851.4,577.884 852.9,577.551 854.5,577.5C 912.676,579.473 970.843,579.473 1029,577.5C 1035.17,577.833 1041.33,578.167 1047.5,578.5C 1048.51,580.527 1049.51,582.527 1050.5,584.5 Z"/></g>
<g><path style="opacity:1" fill="#9b744f" d="M 1050.5,584.5 C 1051.04,584.56 1051.38,584.893 1051.5,585.5C 983.001,586.832 914.668,586.832 846.5,585.5C 914.669,585.833 982.669,585.499 1050.5,584.5 Z"/></g>
<g><path style="opacity:1" fill="#fefffe" d="M 760.5,592.5 C 784.5,592.5 808.5,592.5 832.5,592.5C 832.5,647.167 832.5,701.833 832.5,756.5C 808.5,756.5 784.5,756.5 760.5,756.5C 760.5,701.833 760.5,647.167 760.5,592.5 Z"/></g>
<g><path style="opacity:1" fill="#fefefe" d="M 1065.5,592.5 C 1089.5,592.5 1113.5,592.5 1137.5,592.5C 1137.5,648.167 1137.5,703.833 1137.5,759.5C 1113.5,759.5 1089.5,759.5 1065.5,759.5C 1065.5,703.833 1065.5,648.167 1065.5,592.5 Z"/></g>
<g><path style="opacity:1" fill="#b7997d" d="M 845.5,598.5 C 845.168,633.004 845.502,667.337 846.5,701.5C 846.217,702.289 845.717,702.956 845,703.5C 844.169,668.331 844.336,633.331 845.5,598.5 Z"/></g>
<g><path style="opacity:1" fill="#fefefe" d="M 845.5,598.5 C 914.5,598.5 983.5,598.5 1052.5,598.5C 1052.67,632.835 1052.5,667.168 1052,701.5C 1017.94,656.474 973.107,639.641 917.5,651C 887.776,659.51 864.11,676.344 846.5,701.5C 845.502,667.337 845.168,633.004 845.5,598.5 Z"/></g>
<g><path style="opacity:1" fill="#d4c1af" d="M 734.5,614.5 C 738.833,614.5 743.167,614.5 747.5,614.5C 747.832,651.337 747.498,688.004 746.5,724.5C 746.5,688.167 746.5,651.833 746.5,615.5C 742.298,615.817 738.298,615.483 734.5,614.5 Z"/></g>
<g><path style="opacity:1" fill="#fefdfd" d="M 933.5,660.5 C 986.607,656.626 1024.44,678.626 1047,726.5C 1051.24,737.111 1053.07,748.111 1052.5,759.5C 1046.13,759.83 1039.8,759.496 1033.5,758.5C 1017.64,736.133 996.972,719.967 971.5,710C 945.706,703.019 921.706,707.019 899.5,722C 885.766,731.231 873.766,742.398 863.5,755.5C 857.537,756.496 851.537,756.829 845.5,756.5C 850.413,713.076 873.08,682.909 913.5,666C 920.208,663.834 926.874,662.001 933.5,660.5 Z"/></g>
<g><path style="opacity:1" fill="#f9f6f3" d="M 268.5,662.5 C 326.73,678.18 385.73,690.346 445.5,699C 545.588,713.886 645.922,726.719 746.5,737.5C 746.5,739.167 746.5,740.833 746.5,742.5C 608.278,729.087 470.945,709.587 334.5,684C 312.927,679.607 291.593,674.273 270.5,668C 268.808,666.599 268.141,664.766 268.5,662.5 Z"/></g>
<g><path style="opacity:1" fill="#f9f6f4" d="M 1625.5,662.5 C 1626.5,662.5 1627.5,662.5 1628.5,662.5C 1628.5,664.167 1628.5,665.833 1628.5,667.5C 1565.9,683.721 1502.56,696.554 1438.5,706C 1342.78,720.464 1246.78,732.631 1150.5,742.5C 1150.5,740.833 1150.5,739.167 1150.5,737.5C 1288.64,723.646 1425.98,704.146 1562.5,679C 1583.81,674.256 1604.81,668.756 1625.5,662.5 Z"/></g>
<g><path style="opacity:1" fill="#f9f6f4" d="M 244.5,689.5 C 244.925,686.881 245.925,684.547 247.5,682.5C 250.167,681.833 252.833,681.167 255.5,680.5C 255.5,682.5 255.5,684.5 255.5,686.5C 251.653,686.894 247.986,687.894 244.5,689.5 Z"/></g>
<g><path style="opacity:1" fill="#f5f0eb" d="M 1644.5,680.5 C 1646.88,682.228 1648.54,684.561 1649.5,687.5C 1643,688.325 1640.5,685.658 1642,679.5C 1642.67,680.252 1643.5,680.586 1644.5,680.5 Z"/></g>
<g><path style="opacity:1" fill="#f7f4f0" d="M 268.5,680.5 C 294.837,688.251 321.504,694.751 348.5,700C 424.789,714.324 501.455,726.324 578.5,736C 634.515,742.668 690.515,749.335 746.5,756C 721.733,756.71 697.066,755.377 672.5,752C 536.493,737.721 401.826,715.554 268.5,685.5C 268.5,683.833 268.5,682.167 268.5,680.5 Z"/></g>
<g><path style="opacity:1" fill="#f7f4f0" d="M 1626.5,680.5 C 1628.26,681.552 1628.92,683.219 1628.5,685.5C 1470.91,720.784 1311.57,745.118 1150.5,758.5C 1150.5,757.5 1150.5,756.5 1150.5,755.5C 1287.26,741.701 1423.26,722.534 1558.5,698C 1581.53,693.076 1604.2,687.242 1626.5,680.5 Z"/></g>
<g><path style="opacity:1" fill="#fcfaf9" d="M 268.5,698.5 C 273.145,699.497 277.811,700.497 282.5,701.5C 282.5,802.833 282.5,904.167 282.5,1005.5C 277.833,1004.83 273.167,1004.17 268.5,1003.5C 268.5,901.833 268.5,800.167 268.5,698.5 Z"/></g>
<g><path style="opacity:1" fill="#fefefe" d="M 189.5,1016.5 C 183.938,908.972 200.272,804.972 238.5,704.5C 244.108,702.631 249.775,700.964 255.5,699.5C 255.5,801.167 255.5,902.833 255.5,1004.5C 233.369,1007.87 211.369,1011.87 189.5,1016.5 Z"/></g>
<g><path style="opacity:1" fill="#fcfaf9" d="M 1627.5,698.5 C 1628.5,800.665 1628.83,902.999 1628.5,1005.5C 1623.88,1006.49 1619.22,1007.15 1614.5,1007.5C 1614.5,905.5 1614.5,803.5 1614.5,701.5C 1618.99,700.731 1623.32,699.731 1627.5,698.5 Z"/></g>
<g><path style="opacity:1" fill="#fefefe" d="M 1653.5,701.5 C 1655.14,702.749 1656.3,704.416 1657,706.5C 1694.73,806.629 1710.23,909.963 1703.5,1016.5C 1682.84,1012.83 1662.17,1009.17 1641.5,1005.5C 1641.33,903.166 1641.5,800.833 1642,698.5C 1645.69,700.007 1649.52,701.007 1653.5,701.5 Z"/></g>
<g><path style="opacity:1" fill="#d8c6b5" d="M 297.5,705.5 C 295.512,724.805 294.846,744.472 295.5,764.5C 294.503,744.674 294.17,724.674 294.5,704.5C 295.791,704.263 296.791,704.596 297.5,705.5 Z"/></g>
<g><path style="opacity:1" fill="#d6c4b3" d="M 1598.5,705.5 C 1599.57,704.566 1600.9,704.232 1602.5,704.5C 1602.83,724.674 1602.5,744.674 1601.5,764.5C 1601.5,744.833 1601.5,725.167 1601.5,705.5C 1600.5,705.5 1599.5,705.5 1598.5,705.5 Z"/></g>
<g><path style="opacity:1" fill="#fefefe" d="M 297.5,705.5 C 344.238,715.715 391.238,724.381 438.5,731.5C 438.5,749.5 438.5,767.5 438.5,785.5C 390.759,778.884 343.093,771.884 295.5,764.5C 294.846,744.472 295.512,724.805 297.5,705.5 Z"/></g>
<g><path style="opacity:1" fill="#fefefe" d="M 1598.5,705.5 C 1599.5,705.5 1600.5,705.5 1601.5,705.5C 1601.5,725.167 1601.5,744.833 1601.5,764.5C 1554.03,772.23 1506.36,779.563 1458.5,786.5C 1458.17,768.488 1458.5,750.488 1459.5,732.5C 1505.95,724.037 1552.28,715.037 1598.5,705.5 Z"/></g>
<g><path style="opacity:1" fill="#fefefe" d="M 955.5,719.5 C 966.875,721.236 977.375,725.236 987,731.5C 987.5,809.499 987.667,887.499 987.5,965.5C 976.833,965.5 966.167,965.5 955.5,965.5C 955.5,883.5 955.5,801.5 955.5,719.5 Z"/></g>
<g><path style="opacity:1" fill="#fefefe" d="M 937.5,719.5 C 938.833,719.5 940.167,719.5 941.5,719.5C 941.5,801.5 941.5,883.5 941.5,965.5C 930.833,965.5 920.167,965.5 909.5,965.5C 909.167,887.164 909.5,808.83 910.5,730.5C 919.027,725.441 928.027,721.775 937.5,719.5 Z"/></g>
<g><path style="opacity:1" fill="#fefdfd" d="M 451.5,734.5 C 539.716,749.323 628.382,760.823 717.5,769C 727,779.167 736.5,789.333 746,799.5C 746.5,838.832 746.667,878.165 746.5,917.5C 648.13,908.79 549.797,899.79 451.5,890.5C 451.5,838.5 451.5,786.5 451.5,734.5 Z"/></g>
<g><path style="opacity:1" fill="#fefdfd" d="M 1442.5,734.5 C 1443.5,734.5 1444.5,734.5 1445.5,734.5C 1445.5,786.833 1445.5,839.167 1445.5,891.5C 1347.15,901.001 1248.82,910.668 1150.5,920.5C 1150.33,882.165 1150.5,843.832 1151,805.5C 1161.19,793.608 1171.03,781.441 1180.5,769C 1268.39,760.598 1355.73,749.098 1442.5,734.5 Z"/></g>
<g><path style="opacity:1" fill="#fefefe" d="M 895.5,740.5 C 896.499,815.331 896.833,890.331 896.5,965.5C 879.5,965.5 862.5,965.5 845.5,965.5C 845.333,914.166 845.5,862.832 846,811.5C 856.883,783.806 873.383,760.139 895.5,740.5 Z"/></g>
<g><path style="opacity:1" fill="#fefefe" d="M 1000.5,741.5 C 1023.89,763.247 1041.06,789.247 1052,819.5C 1052.5,868.166 1052.67,916.832 1052.5,965.5C 1035.17,965.5 1017.83,965.5 1000.5,965.5C 1000.5,890.833 1000.5,816.167 1000.5,741.5 Z"/></g>
<g><path style="opacity:1" fill="#ae8c6d" d="M 760.5,592.5 C 760.5,647.167 760.5,701.833 760.5,756.5C 784.5,756.5 808.5,756.5 832.5,756.5C 808.339,757.498 784.006,757.831 759.5,757.5C 759.168,702.331 759.501,647.331 760.5,592.5 Z"/></g>
<g><path style="opacity:1" fill="#9b744f" d="M 852.5,769.5 C 813.33,769.168 774.33,769.501 735.5,770.5C 734.957,770.44 734.624,770.107 734.5,769.5C 773.998,768.169 813.331,768.169 852.5,769.5 Z"/></g>
<g><path style="opacity:1" fill="#fefefe" d="M 735.5,770.5 C 774.33,769.501 813.33,769.168 852.5,769.5C 847.207,777.239 841.54,784.739 835.5,792C 808.833,792.667 782.167,792.667 755.5,792C 748.967,784.636 742.3,777.47 735.5,770.5 Z"/></g>
<g><path style="opacity:1" fill="#d7c5b4" d="M 1160.5,773.5 C 1122.34,772.501 1084,772.168 1045.5,772.5C 1063.93,771.827 1083.09,771.494 1103,771.5C 1122.5,771.833 1142,772.167 1161.5,772.5C 1161.38,773.107 1161.04,773.44 1160.5,773.5 Z"/></g>
<g><path style="opacity:1" fill="#fefefe" d="M 1045.5,772.5 C 1084,772.168 1122.34,772.501 1160.5,773.5C 1155.2,780.579 1149.53,787.413 1143.5,794C 1116.49,794.833 1089.49,794.667 1062.5,793.5C 1056.43,786.771 1050.76,779.771 1045.5,772.5 Z"/></g>
<g><path style="opacity:1" fill="#fcfbfa" d="M 294.5,777.5 C 299.804,778.384 305.137,779.051 310.5,779.5C 310.5,856.167 310.5,932.833 310.5,1009.5C 305.184,1008.7 299.851,1008.04 294.5,1007.5C 294.5,930.833 294.5,854.167 294.5,777.5 Z"/></g>
<g><path style="opacity:1" fill="#fcfbfa" d="M 1597.5,778.5 C 1599.17,778.5 1600.83,778.5 1602.5,778.5C 1602.5,855.833 1602.5,933.167 1602.5,1010.5C 1597.42,1010.61 1592.42,1011.27 1587.5,1012.5C 1586.5,935.17 1586.17,857.836 1586.5,780.5C 1590.36,780.192 1594.03,779.525 1597.5,778.5 Z"/></g>
<g><path style="opacity:1" fill="#fefdfd" d="M 323.5,781.5 C 352.112,786.16 380.779,790.493 409.5,794.5C 409.5,870.833 409.5,947.167 409.5,1023.5C 408.5,1023.5 407.5,1023.5 406.5,1023.5C 406.667,967.499 406.5,911.499 406,855.5C 399.66,823.405 380.16,808.905 347.5,812C 338.105,814.782 330.272,819.949 324,827.5C 323.5,812.17 323.333,796.837 323.5,781.5 Z"/></g>
<g><path style="opacity:1" fill="#fefdfd" d="M 1567.5,782.5 C 1569.5,782.5 1571.5,782.5 1573.5,782.5C 1573.67,797.504 1573.5,812.504 1573,827.5C 1558.6,811.194 1541.1,807.027 1520.5,815C 1502.84,824.027 1493,838.527 1491,858.5C 1490.5,914.166 1490.33,969.832 1490.5,1025.5C 1489.5,1025.5 1488.5,1025.5 1487.5,1025.5C 1487.5,948.5 1487.5,871.5 1487.5,794.5C 1514.45,791.508 1541.12,787.508 1567.5,782.5 Z"/></g>
<g><path style="opacity:1" fill="#fefefe" d="M 422.5,796.5 C 427.737,797.817 433.07,798.483 438.5,798.5C 438.5,874.167 438.5,949.833 438.5,1025.5C 433.155,1025.31 427.822,1024.98 422.5,1024.5C 422.5,948.5 422.5,872.5 422.5,796.5 Z"/></g>
<g><path style="opacity:1" fill="#fefefe" d="M 1474.5,797.5 C 1474.5,873.833 1474.5,950.167 1474.5,1026.5C 1473.21,1026.26 1472.21,1026.6 1471.5,1027.5C 1467.13,1027.47 1462.8,1027.8 1458.5,1028.5C 1458.5,952.167 1458.5,875.833 1458.5,799.5C 1463.85,798.963 1469.18,798.296 1474.5,797.5 Z"/></g>
<g><path style="opacity:1" fill="#9b744f" d="M 1474.5,797.5 C 1475.5,873.998 1475.83,950.665 1475.5,1027.5C 1474.17,1027.5 1472.83,1027.5 1471.5,1027.5C 1472.21,1026.6 1473.21,1026.26 1474.5,1026.5C 1474.5,950.167 1474.5,873.833 1474.5,797.5 Z"/></g>
<g><path style="opacity:1" fill="#fefffe" d="M 832.5,805.5 C 832.5,815.167 832.5,824.833 832.5,834.5C 808.5,834.5 784.5,834.5 760.5,834.5C 760.5,824.833 760.5,815.167 760.5,805.5C 784.5,805.5 808.5,805.5 832.5,805.5 Z"/></g>
<g><path style="opacity:1" fill="#fefffe" d="M 1067.5,807.5 C 1090.83,807.5 1114.17,807.5 1137.5,807.5C 1137.5,817.5 1137.5,827.5 1137.5,837.5C 1114.17,837.5 1090.83,837.5 1067.5,837.5C 1067.5,827.5 1067.5,817.5 1067.5,807.5 Z"/></g>
<g><path style="opacity:1" fill="#885c32" d="M 479.5,809.5 C 480.274,808.853 481.274,808.52 482.5,808.5C 488.454,809.636 494.454,810.303 500.5,810.5C 500.666,816.842 500.5,823.175 500,829.5C 493.298,822.631 486.465,815.964 479.5,809.5 Z"/></g>
<g><path style="opacity:1" fill="#84572d" d="M 1412.5,810.5 C 1414.2,810.34 1415.87,810.506 1417.5,811C 1411,817.5 1404.5,824 1398,830.5C 1397.5,824.509 1397.33,818.509 1397.5,812.5C 1402.69,812.259 1407.69,811.593 1412.5,810.5 Z"/></g>
<g><path style="opacity:1" fill="#875b31" d="M 514.5,812.5 C 519.481,813.089 524.481,813.589 529.5,814C 522.667,819.5 515.833,825 509,830.5C 508.506,828.866 508.34,827.199 508.5,825.5C 509.485,821.366 509.818,817.032 509.5,812.5C 511.167,812.5 512.833,812.5 514.5,812.5 Z"/></g>
<g><path style="opacity:1" fill="#875a30" d="M 473.5,814.5 C 480.167,820.5 486.5,826.833 492.5,833.5C 486.021,834.491 479.354,834.824 472.5,834.5C 472.176,827.646 472.509,820.979 473.5,814.5 Z"/></g>
<g><path style="opacity:1" fill="#8c6138" d="M 1386.5,813.5 C 1387.5,813.5 1388.5,813.5 1389.5,813.5C 1389.67,819.842 1389.5,826.175 1389,832.5C 1382.17,827 1375.33,821.5 1368.5,816C 1374.63,815.088 1380.63,814.255 1386.5,813.5 Z"/></g>
<g><path style="opacity:1" fill="#85582e" d="M 1425.5,815.5 C 1425.5,822.5 1425.5,829.5 1425.5,836.5C 1418.5,836.5 1411.5,836.5 1404.5,836.5C 1411.17,829.167 1418.17,822.167 1425.5,815.5 Z"/></g>
<g><path style="opacity:1" fill="#c2a68d" d="M 514.5,812.5 C 512.833,812.5 511.167,812.5 509.5,812.5C 509.818,817.032 509.485,821.366 508.5,825.5C 508.5,820.833 508.5,816.167 508.5,811.5C 510.735,811.205 512.735,811.539 514.5,812.5 Z"/></g>
<g><path style="opacity:1" fill="#865a2f" d="M 572.5,819.5 C 573.097,818.861 573.93,818.528 575,818.5C 581.122,819.619 587.289,820.286 593.5,820.5C 593.666,826.842 593.5,833.175 593,839.5C 586.298,832.631 579.465,825.964 572.5,819.5 Z"/></g>
<g><path style="opacity:1" fill="#895d34" d="M 1319.5,820.5 C 1321.53,820.338 1323.53,820.505 1325.5,821C 1318.67,827.833 1311.83,834.667 1305,841.5C 1304.17,835.141 1304.34,828.807 1305.5,822.5C 1310.3,821.883 1314.97,821.216 1319.5,820.5 Z"/></g>
<g><path style="opacity:1" fill="#8b5f36" d="M 535.5,819.5 C 536.488,824.64 536.821,829.974 536.5,835.5C 529.825,835.666 523.158,835.5 516.5,835C 523.022,829.969 529.356,824.803 535.5,819.5 Z"/></g>
<g><path style="opacity:1" fill="#8a5e34" d="M 601.5,821.5 C 608.471,822.362 615.471,823.195 622.5,824C 615.667,829.5 608.833,835 602,840.5C 601.5,834.175 601.334,827.842 601.5,821.5 Z"/></g>
<g><path style="opacity:1" fill="#86592f" d="M 1362.5,822.5 C 1368.48,826.481 1374.14,830.814 1379.5,835.5C 1374.02,836.489 1368.36,836.822 1362.5,836.5C 1362.5,831.833 1362.5,827.167 1362.5,822.5 Z"/></g>
<g><path style="opacity:1" fill="#fefdfd" d="M 394.5,873.5 C 393.501,921.664 393.168,969.997 393.5,1018.5C 392.5,1018.5 391.5,1018.5 390.5,1018.5C 384.5,1017.83 378.5,1017.17 372.5,1016.5C 372.667,967.166 372.5,917.832 372,868.5C 369.081,848.92 358.248,836.086 339.5,830C 352.941,821.374 366.274,821.707 379.5,831C 391.118,842.679 396.118,856.846 394.5,873.5 Z"/></g>
<g><path style="opacity:1" fill="#86592f" d="M 585.5,843.5 C 578.687,844.491 571.687,844.825 564.5,844.5C 564.17,837.468 564.503,830.468 565.5,823.5C 571.854,830.521 578.521,837.188 585.5,843.5 Z"/></g>
<g><path style="opacity:1" fill="#8a5f36" d="M 1288.5,823.5 C 1291.17,823.5 1293.83,823.5 1296.5,823.5C 1296.67,829.842 1296.5,836.175 1296,842.5C 1289.17,837 1282.33,831.5 1275.5,826C 1280.1,825.851 1284.43,825.018 1288.5,823.5 Z"/></g>
<g><path style="opacity:1" fill="#fefefe" d="M 1530.5,824.5 C 1536.18,824.334 1541.84,824.501 1547.5,825C 1550.25,825.516 1552.58,826.683 1554.5,828.5C 1535.85,835.77 1525.35,849.436 1523,869.5C 1522.5,919.166 1522.33,968.832 1522.5,1018.5C 1516.2,1019.26 1509.86,1019.59 1503.5,1019.5C 1503.33,965.832 1503.5,912.166 1504,858.5C 1506.06,841.635 1514.89,830.302 1530.5,824.5 Z"/></g>
<g><path style="opacity:1" fill="#895d33" d="M 1333.5,846.5 C 1326.31,846.825 1319.31,846.491 1312.5,845.5C 1319.13,838.368 1325.96,831.368 1333,824.5C 1333.5,831.826 1333.67,839.159 1333.5,846.5 Z"/></g>
<g><path style="opacity:1" fill="#85582d" d="M 684.5,830.5 C 684.823,836.69 684.49,842.69 683.5,848.5C 677.369,841.869 671.036,835.369 664.5,829C 671.176,829.071 677.843,829.571 684.5,830.5 Z"/></g>
<g><path style="opacity:1" fill="#8b6037" d="M 628.5,829.5 C 629.488,834.64 629.821,839.974 629.5,845.5C 622.825,845.666 616.158,845.5 609.5,845C 616.022,839.969 622.356,834.803 628.5,829.5 Z"/></g>
<g><path style="opacity:1" fill="#875b31" d="M 1214.5,850.5 C 1213.83,846.167 1213.17,841.833 1212.5,837.5C 1212.14,835.234 1212.81,833.401 1214.5,832C 1220.82,831.067 1227.15,830.734 1233.5,831C 1226.96,837.369 1220.63,843.869 1214.5,850.5 Z"/></g>
<g><path style="opacity:1" fill="#865a30" d="M 693.5,831.5 C 700.12,832.514 706.787,833.347 713.5,834C 707,839.167 700.5,844.333 694,849.5C 693.501,843.509 693.334,837.509 693.5,831.5 Z"/></g>
<g><path style="opacity:1" fill="#895d33" d="M 1270.5,832.5 C 1276.65,837.085 1282.65,841.918 1288.5,847C 1282.18,847.5 1275.84,847.666 1269.5,847.5C 1269.18,842.305 1269.51,837.305 1270.5,832.5 Z"/></g>
<g><path style="opacity:1" fill="#885c32" d="M 1200.5,833.5 C 1201.83,833.5 1203.17,833.5 1204.5,833.5C 1204.67,839.509 1204.5,845.509 1204,851.5C 1197.5,846.333 1191,841.167 1184.5,836C 1189.94,834.989 1195.27,834.156 1200.5,833.5 Z"/></g>
<g><path style="opacity:1" fill="#b7987c" d="M 473.5,814.5 C 472.509,820.979 472.176,827.646 472.5,834.5C 479.354,834.824 486.021,834.491 492.5,833.5C 493.289,833.783 493.956,834.283 494.5,835C 486.841,835.5 479.174,835.666 471.5,835.5C 471.334,827.826 471.5,820.159 472,812.5C 472.717,813.044 473.217,813.711 473.5,814.5 Z"/></g>
<g><path style="opacity:1" fill="#85582e" d="M 656.5,833.5 C 663.833,840.167 670.833,847.167 677.5,854.5C 670.5,854.5 663.5,854.5 656.5,854.5C 656.5,847.5 656.5,840.5 656.5,833.5 Z"/></g>
<g><path style="opacity:1" fill="#ceb8a3" d="M 832.5,805.5 C 808.5,805.5 784.5,805.5 760.5,805.5C 760.5,815.167 760.5,824.833 760.5,834.5C 784.5,834.5 808.5,834.5 832.5,834.5C 808.339,835.498 784.006,835.831 759.5,835.5C 759.5,825.167 759.5,814.833 759.5,804.5C 784.006,804.169 808.339,804.502 832.5,805.5 Z"/></g>
<g><path style="opacity:1" fill="#d8c6b5" d="M 1240.5,835.5 C 1240.56,834.957 1240.89,834.624 1241.5,834.5C 1242.82,841.99 1242.82,849.323 1241.5,856.5C 1241.82,849.313 1241.49,842.313 1240.5,835.5 Z"/></g>
<g><path style="opacity:1" fill="#84572c" d="M 1240.5,835.5 C 1241.49,842.313 1241.82,849.313 1241.5,856.5C 1234.31,856.825 1227.31,856.491 1220.5,855.5C 1227.5,849.167 1234.17,842.5 1240.5,835.5 Z"/></g>
<g><path style="opacity:1" fill="#9d7652" d="M 1362.5,822.5 C 1362.5,827.167 1362.5,831.833 1362.5,836.5C 1368.36,836.822 1374.02,836.489 1379.5,835.5C 1380.29,835.783 1380.96,836.283 1381.5,837C 1374.84,837.5 1368.17,837.666 1361.5,837.5C 1361.17,831.732 1361.5,826.732 1362.5,822.5 Z"/></g>
<g><path style="opacity:1" fill="#c6ad95" d="M 1404.5,836.5 C 1411.5,836.5 1418.5,836.5 1425.5,836.5C 1425.5,829.5 1425.5,822.5 1425.5,815.5C 1426.5,822.077 1426.83,829.41 1426.5,837.5C 1418.41,837.833 1411.08,837.499 1404.5,836.5 Z"/></g>
<g><path style="opacity:1" fill="#c2a78e" d="M 1212.5,837.5 C 1213.17,841.833 1213.83,846.167 1214.5,850.5C 1214.44,851.043 1214.11,851.376 1213.5,851.5C 1212.51,846.88 1212.17,842.214 1212.5,837.5 Z"/></g>
<g><path style="opacity:1" fill="#fefefe" d="M 1538.5,1014.5 C 1537.5,1014.5 1536.5,1014.5 1535.5,1014.5C 1535.5,1005.83 1535.5,997.167 1535.5,988.5C 1535.33,948.499 1535.5,908.499 1536,868.5C 1539.5,849.82 1550.67,840.487 1569.5,840.5C 1569.5,897.167 1569.5,953.833 1569.5,1010.5C 1559.11,1011.46 1548.78,1012.79 1538.5,1014.5 Z"/></g>
<g><path style="opacity:1" fill="#fdfcfc" d="M 360.5,891.5 C 360.165,932.344 359.165,973.01 357.5,1013.5C 346.8,1012.05 336.133,1010.38 325.5,1008.5C 325.5,952.833 325.5,897.167 325.5,841.5C 340.918,840.457 351.418,847.124 357,861.5C 360.043,871.264 361.21,881.264 360.5,891.5 Z"/></g>
<g><path style="opacity:1" fill="#86592e" d="M 719.5,840.5 C 719.5,845.167 719.5,849.833 719.5,854.5C 713.642,854.822 707.975,854.489 702.5,853.5C 707.882,848.783 713.549,844.45 719.5,840.5 Z"/></g>
<g><path style="opacity:1" fill="#cfb9a5" d="M 491.5,844.5 C 485.355,843.51 479.022,843.177 472.5,843.5C 472.5,848.5 472.5,853.5 472.5,858.5C 471.5,853.932 471.167,848.599 471.5,842.5C 478.532,842.17 485.532,842.503 492.5,843.5C 492.376,844.107 492.043,844.44 491.5,844.5 Z"/></g>
<g><path style="opacity:1" fill="#c9b19b" d="M 684.5,830.5 C 685.817,836.678 685.817,843.012 684.5,849.5C 683.893,849.376 683.56,849.043 683.5,848.5C 684.49,842.69 684.823,836.69 684.5,830.5 Z"/></g>
<g><path style="opacity:1" fill="#a37e5b" d="M 1178.5,842.5 C 1178.5,847.167 1178.5,851.833 1178.5,856.5C 1184.36,856.822 1190.02,856.489 1195.5,855.5C 1196.29,855.783 1196.96,856.283 1197.5,857C 1190.84,857.5 1184.17,857.666 1177.5,857.5C 1177.17,851.732 1177.5,846.732 1178.5,842.5 Z"/></g>
<g><path style="opacity:1" fill="#86592f" d="M 491.5,844.5 C 485.167,849.167 478.833,853.833 472.5,858.5C 472.5,853.5 472.5,848.5 472.5,843.5C 479.022,843.177 485.355,843.51 491.5,844.5 Z"/></g>
<g><path style="opacity:1" fill="#885c33" d="M 535.5,843.5 C 535.824,850.354 535.491,857.021 534.5,863.5C 527.702,857.203 521.035,850.703 514.5,844C 521.492,843.5 528.492,843.334 535.5,843.5 Z"/></g>
<g><path style="opacity:1" fill="#865a2f" d="M 1178.5,842.5 C 1184.48,846.481 1190.14,850.814 1195.5,855.5C 1190.02,856.489 1184.36,856.822 1178.5,856.5C 1178.5,851.833 1178.5,847.167 1178.5,842.5 Z"/></g>
<g><path style="opacity:1" fill="#b89a7e" d="M 535.5,843.5 C 536.655,850.655 536.822,857.988 536,865.5C 535.283,864.956 534.783,864.289 534.5,863.5C 535.491,857.021 535.824,850.354 535.5,843.5 Z"/></g>
<g><path style="opacity:1" fill="#b99a7f" d="M 585.5,843.5 C 586.043,843.56 586.376,843.893 586.5,844.5C 579.01,845.819 571.677,845.819 564.5,844.5C 571.687,844.825 578.687,844.491 585.5,843.5 Z"/></g>
<g><path style="opacity:1" fill="#86592f" d="M 1361.5,845.5 C 1368.51,845.334 1375.51,845.5 1382.5,846C 1375.65,852.681 1368.99,859.514 1362.5,866.5C 1361.5,859.532 1361.17,852.532 1361.5,845.5 Z"/></g>
<g><path style="opacity:1" fill="#865a2f" d="M 1406.5,846.5 C 1412.64,845.51 1418.98,845.177 1425.5,845.5C 1425.5,850.5 1425.5,855.5 1425.5,860.5C 1419.17,855.833 1412.83,851.167 1406.5,846.5 Z"/></g>
<g><path style="opacity:1" fill="#bda086" d="M 1425.5,860.5 C 1425.5,855.5 1425.5,850.5 1425.5,845.5C 1418.98,845.177 1412.64,845.51 1406.5,846.5C 1405.96,846.44 1405.62,846.107 1405.5,845.5C 1412.47,844.503 1419.47,844.17 1426.5,844.5C 1426.83,850.599 1426.5,855.932 1425.5,860.5 Z"/></g>
<g><path style="opacity:1" fill="#d0bba7" d="M 1312.5,845.5 C 1319.31,846.491 1326.31,846.825 1333.5,846.5C 1326.01,847.656 1318.34,847.822 1310.5,847C 1311.04,846.283 1311.71,845.783 1312.5,845.5 Z"/></g>
<g><path style="opacity:1" fill="#cfbaa6" d="M 779.5,1057.5 C 779.167,1057.5 778.833,1057.5 778.5,1057.5C 778.5,987.833 778.5,918.167 778.5,848.5C 772.5,848.5 766.5,848.5 760.5,848.5C 760.5,918.167 760.5,987.833 760.5,1057.5C 760.167,1057.5 759.833,1057.5 759.5,1057.5C 759.5,987.5 759.5,917.5 759.5,847.5C 766.167,847.5 772.833,847.5 779.5,847.5C 779.5,917.5 779.5,987.5 779.5,1057.5 Z"/></g>
<g><path style="opacity:1" fill="#fefffe" d="M 778.5,1057.5 C 772.5,1057.5 766.5,1057.5 760.5,1057.5C 760.5,987.833 760.5,918.167 760.5,848.5C 766.5,848.5 772.5,848.5 778.5,848.5C 778.5,918.167 778.5,987.833 778.5,1057.5 Z"/></g>
<g><path style="opacity:1" fill="#fefefe" d="M 832.5,1057.5 C 825.167,1057.5 817.833,1057.5 810.5,1057.5C 810.5,987.5 810.5,917.5 810.5,847.5C 817.833,847.5 825.167,847.5 832.5,847.5C 832.5,917.5 832.5,987.5 832.5,1057.5 Z"/></g>
<g><path style="opacity:1" fill="#885c32" d="M 498.5,849.5 C 499.473,851.948 499.806,854.615 499.5,857.5C 499.5,860.5 499.5,863.5 499.5,866.5C 492.445,866.73 485.445,866.23 478.5,865C 485.042,859.618 491.709,854.452 498.5,849.5 Z"/></g>
<g><path style="opacity:1" fill="#d1bca8" d="M 498.5,849.5 C 498.56,848.957 498.893,848.624 499.5,848.5C 500.803,851.645 500.803,854.645 499.5,857.5C 499.806,854.615 499.473,851.948 498.5,849.5 Z"/></g>
<g><path style="opacity:1" fill="#8c6138" d="M 507.5,849.5 C 514.911,855.405 521.911,861.905 528.5,869C 521.491,869.423 514.491,869.256 507.5,868.5C 507.5,862.167 507.5,855.833 507.5,849.5 Z"/></g>
<g><path style="opacity:1" fill="#f9f6f4" d="M 797.5,1057.5 C 795.5,1057.5 793.5,1057.5 791.5,1057.5C 791.5,988.5 791.5,919.5 791.5,850.5C 793.5,850.5 795.5,850.5 797.5,850.5C 797.5,919.5 797.5,988.5 797.5,1057.5 Z"/></g>
<g><path style="opacity:1" fill="#fefffe" d="M 1086.5,1057.5 C 1079.5,1057.5 1072.5,1057.5 1065.5,1057.5C 1065.5,988.5 1065.5,919.5 1065.5,850.5C 1072.5,850.5 1079.5,850.5 1086.5,850.5C 1086.5,919.5 1086.5,988.5 1086.5,1057.5 Z"/></g>
<g><path style="opacity:1" fill="#fefffe" d="M 1105.5,1057.5 C 1103.5,1057.5 1101.5,1057.5 1099.5,1057.5C 1099.5,988.5 1099.5,919.5 1099.5,850.5C 1101.5,850.5 1103.5,850.5 1105.5,850.5C 1105.5,919.5 1105.5,988.5 1105.5,1057.5 Z"/></g>
<g><path style="opacity:1" fill="#fdfcfb" d="M 1137.5,1057.5 C 1130.83,1057.5 1124.17,1057.5 1117.5,1057.5C 1117.5,988.5 1117.5,919.5 1117.5,850.5C 1124.17,850.5 1130.83,850.5 1137.5,850.5C 1137.5,919.5 1137.5,988.5 1137.5,1057.5 Z"/></g>
<g><path style="opacity:1" fill="#875a30" d="M 1398.5,850.5 C 1405.62,855.786 1412.62,861.286 1419.5,867C 1412.51,867.666 1405.51,868.166 1398.5,868.5C 1398.5,862.5 1398.5,856.5 1398.5,850.5 Z"/></g>
<g><path style="opacity:1" fill="#8b5f36" d="M 1389.5,850.5 C 1390.49,856.645 1390.82,862.978 1390.5,869.5C 1383.54,870.745 1376.54,871.245 1369.5,871C 1376.37,864.298 1383.04,857.465 1389.5,850.5 Z"/></g>
<g><path style="opacity:1" fill="#885c32" d="M 564.5,853.5 C 571.175,853.334 577.842,853.5 584.5,854C 578,859.167 571.5,864.333 565,869.5C 564.501,864.177 564.334,858.844 564.5,853.5 Z"/></g>
<g><path style="opacity:1" fill="#8a5e35" d="M 607.5,854.5 C 614.648,853.508 621.981,853.175 629.5,853.5C 629.666,860.841 629.5,868.174 629,875.5C 621.965,868.297 614.798,861.297 607.5,854.5 Z"/></g>
<g><path style="opacity:1" fill="#bfa389" d="M 656.5,833.5 C 656.5,840.5 656.5,847.5 656.5,854.5C 663.5,854.5 670.5,854.5 677.5,854.5C 670.923,855.499 663.59,855.833 655.5,855.5C 655.167,847.41 655.501,840.077 656.5,833.5 Z"/></g>
<g><path style="opacity:1" fill="#9e7753" d="M 702.5,853.5 C 707.975,854.489 713.642,854.822 719.5,854.5C 719.5,849.833 719.5,845.167 719.5,840.5C 720.5,844.732 720.834,849.732 720.5,855.5C 713.825,855.666 707.158,855.5 700.5,855C 701.044,854.283 701.711,853.783 702.5,853.5 Z"/></g>
<g><path style="opacity:1" fill="#ba9d82" d="M 1270.5,832.5 C 1269.51,837.305 1269.18,842.305 1269.5,847.5C 1269.5,850.167 1269.5,852.833 1269.5,855.5C 1269.18,862.354 1269.51,869.021 1270.5,875.5C 1270.22,876.289 1269.72,876.956 1269,877.5C 1268.17,862.156 1268.33,846.822 1269.5,831.5C 1270.11,831.624 1270.44,831.957 1270.5,832.5 Z"/></g>
<g><path style="opacity:1" fill="#875a30" d="M 1269.5,855.5 C 1276.51,855.334 1283.51,855.5 1290.5,856C 1283.96,862.703 1277.3,869.203 1270.5,875.5C 1269.51,869.021 1269.18,862.354 1269.5,855.5 Z"/></g>
<g><path style="opacity:1" fill="#8e633b" d="M 1312.5,855.5 C 1319.31,854.509 1326.31,854.175 1333.5,854.5C 1333.67,860.176 1333.5,865.843 1333,871.5C 1326.29,865.952 1319.46,860.619 1312.5,855.5 Z"/></g>
<g><path style="opacity:1" fill="#d8c6b5" d="M 1220.5,855.5 C 1227.31,856.491 1234.31,856.825 1241.5,856.5C 1234.32,857.819 1226.99,857.819 1219.5,856.5C 1219.62,855.893 1219.96,855.56 1220.5,855.5 Z"/></g>
<g><path style="opacity:1" fill="#895d33" d="M 591.5,858.5 C 592.49,864.31 592.823,870.31 592.5,876.5C 585.445,876.73 578.445,876.23 571.5,875C 578.356,869.636 585.023,864.136 591.5,858.5 Z"/></g>
<g><path style="opacity:1" fill="#875a30" d="M 600.5,859.5 C 607.251,865.749 613.917,872.249 620.5,879C 613.856,878.862 607.189,878.695 600.5,878.5C 600.5,872.167 600.5,865.833 600.5,859.5 Z"/></g>
<g><path style="opacity:1" fill="#875b31" d="M 1305.5,860.5 C 1312.48,865.809 1319.48,871.143 1326.5,876.5C 1319.54,877.574 1312.54,878.241 1305.5,878.5C 1305.5,872.5 1305.5,866.5 1305.5,860.5 Z"/></g>
<g><path style="opacity:1" fill="#8a5e35" d="M 1296.5,860.5 C 1297.49,866.645 1297.82,872.978 1297.5,879.5C 1290.51,880.454 1283.51,880.954 1276.5,881C 1283.37,874.298 1290.04,867.465 1296.5,860.5 Z"/></g>
<g><path style="opacity:1" fill="#c0a68d" d="M 675.5,864.5 C 669.355,863.51 663.022,863.177 656.5,863.5C 656.5,868.5 656.5,873.5 656.5,878.5C 655.5,873.932 655.167,868.599 655.5,862.5C 662.532,862.17 669.532,862.503 676.5,863.5C 676.376,864.107 676.043,864.44 675.5,864.5 Z"/></g>
<g><path style="opacity:1" fill="#86592f" d="M 675.5,864.5 C 669.167,869.167 662.833,873.833 656.5,878.5C 656.5,873.5 656.5,868.5 656.5,863.5C 663.022,863.177 669.355,863.51 675.5,864.5 Z"/></g>
<g><path style="opacity:1" fill="#86592f" d="M 699.5,864.5 C 706.313,863.509 713.313,863.175 720.5,863.5C 720.83,870.532 720.497,877.532 719.5,884.5C 713.146,877.479 706.479,870.812 699.5,864.5 Z"/></g>
<g><path style="opacity:1" fill="#865a2f" d="M 1177.5,865.5 C 1184.51,865.334 1191.51,865.5 1198.5,866C 1191.67,872.833 1184.83,879.667 1178,886.5C 1177.5,879.508 1177.33,872.508 1177.5,865.5 Z"/></g>
<g><path style="opacity:1" fill="#86592f" d="M 1222.5,865.5 C 1228.83,865.5 1235.17,865.5 1241.5,865.5C 1241.82,870.695 1241.49,875.695 1240.5,880.5C 1234.5,875.5 1228.5,870.5 1222.5,865.5 Z"/></g>
<g><path style="opacity:1" fill="#ceb8a3" d="M 1240.5,880.5 C 1241.49,875.695 1241.82,870.695 1241.5,865.5C 1235.17,865.5 1228.83,865.5 1222.5,865.5C 1228.41,864.501 1235.07,864.167 1242.5,864.5C 1242.83,870.206 1242.5,875.872 1241.5,881.5C 1240.89,881.376 1240.56,881.043 1240.5,880.5 Z"/></g>
<g><path style="opacity:1" fill="#875b31" d="M 682.5,869.5 C 683.486,873.97 683.819,878.637 683.5,883.5C 683.5,884.5 683.5,885.5 683.5,886.5C 676.476,886.392 669.476,885.892 662.5,885C 669.042,879.618 675.709,874.452 682.5,869.5 Z"/></g>
<g><path style="opacity:1" fill="#8c6138" d="M 691.5,868.5 C 698.632,875.131 705.632,881.964 712.5,889C 705.513,889.002 698.513,888.835 691.5,888.5C 691.5,881.833 691.5,875.167 691.5,868.5 Z"/></g>
<g><path style="opacity:1" fill="#86592f" d="M 1214.5,870.5 C 1221.29,875.452 1227.96,880.618 1234.5,886C 1227.92,887.425 1221.25,888.258 1214.5,888.5C 1214.5,882.5 1214.5,876.5 1214.5,870.5 Z"/></g>
<g><path style="opacity:1" fill="#85582e" d="M 1204.5,871.5 C 1205.17,876.833 1205.83,882.167 1206.5,887.5C 1206.03,888.693 1205.03,889.36 1203.5,889.5C 1197.5,890.467 1191.5,890.967 1185.5,891C 1192.04,884.631 1198.37,878.131 1204.5,871.5 Z"/></g>
<g><path style="opacity:1" fill="#cdb6a1" d="M 682.5,869.5 C 682.56,868.957 682.893,868.624 683.5,868.5C 684.814,873.652 684.814,878.652 683.5,883.5C 683.819,878.637 683.486,873.97 682.5,869.5 Z"/></g>
<g><path style="opacity:1" fill="#b89a7f" d="M 394.5,873.5 C 394.5,922.167 394.5,970.833 394.5,1019.5C 392.901,1019.77 391.568,1019.43 390.5,1018.5C 391.5,1018.5 392.5,1018.5 393.5,1018.5C 393.168,969.997 393.501,921.664 394.5,873.5 Z"/></g>
<g><path style="opacity:1" fill="#c4aa92" d="M 1204.5,871.5 C 1204.56,870.957 1204.89,870.624 1205.5,870.5C 1206.5,876.128 1206.83,881.794 1206.5,887.5C 1205.83,882.167 1205.17,876.833 1204.5,871.5 Z"/></g>
<g><path style="opacity:1" fill="#9d7652" d="M 360.5,891.5 C 360.5,932.5 360.5,973.5 360.5,1014.5C 359.209,1014.74 358.209,1014.4 357.5,1013.5C 359.165,973.01 360.165,932.344 360.5,891.5 Z"/></g>
<g><path style="opacity:1" fill="#fefefe" d="M 746.5,930.5 C 746.5,971.833 746.5,1013.17 746.5,1054.5C 744.167,1054.5 741.833,1054.5 739.5,1054.5C 699.128,1051.83 658.794,1048.66 618.5,1045C 563.096,1039.99 507.763,1034.49 452.5,1028.5C 451.5,986.839 451.167,945.172 451.5,903.5C 549.823,912.624 648.156,921.624 746.5,930.5 Z"/></g>
<g><path style="opacity:1" fill="#fefefe" d="M 1441.5,904.5 C 1442.83,904.5 1444.17,904.5 1445.5,904.5C 1445.5,946.5 1445.5,988.5 1445.5,1030.5C 1347.35,1041.27 1249.02,1049.94 1150.5,1056.5C 1150.5,1015.5 1150.5,974.5 1150.5,933.5C 1247.48,923.636 1344.48,913.969 1441.5,904.5 Z"/></g>
<g><path style="opacity:1" fill="#b7997d" d="M 1441.5,904.5 C 1442.92,903.549 1444.59,903.216 1446.5,903.5C 1446.83,946.003 1446.5,988.337 1445.5,1030.5C 1445.5,988.5 1445.5,946.5 1445.5,904.5C 1444.17,904.5 1442.83,904.5 1441.5,904.5 Z"/></g>
<g><path style="opacity:1" fill="#bea38a" d="M 746.5,930.5 C 747.499,971.997 747.832,1013.66 747.5,1055.5C 744.615,1055.81 741.948,1055.47 739.5,1054.5C 741.833,1054.5 744.167,1054.5 746.5,1054.5C 746.5,1013.17 746.5,971.833 746.5,930.5 Z"/></g>
<g><path style="opacity:1" fill="#fefffe" d="M 1052.5,1057.5 C 983.5,1057.5 914.5,1057.5 845.5,1057.5C 845.5,1031.17 845.5,1004.83 845.5,978.5C 914.5,978.5 983.5,978.5 1052.5,978.5C 1052.5,1004.83 1052.5,1031.17 1052.5,1057.5 Z"/></g>
<g><path style="opacity:1" fill="#b89a7e" d="M 1535.5,988.5 C 1535.5,997.167 1535.5,1005.83 1535.5,1014.5C 1536.5,1014.5 1537.5,1014.5 1538.5,1014.5C 1537.43,1015.43 1536.1,1015.77 1534.5,1015.5C 1534.17,1006.32 1534.51,997.318 1535.5,988.5 Z"/></g>
<g><path style="opacity:1" fill="#fcfbfa" d="M 268.5,1016.5 C 299.729,1021.91 331.062,1026.75 362.5,1031C 486.555,1045.9 610.888,1057.9 735.5,1067C 728.833,1071 722.167,1075 715.5,1079C 708.5,1079.67 701.5,1079.67 694.5,1079C 581.584,1070.57 468.917,1059.57 356.5,1046C 327.087,1041.95 297.754,1037.45 268.5,1032.5C 268.5,1027.17 268.5,1021.83 268.5,1016.5 Z"/></g>
<g><path style="opacity:1" fill="#fdfcfb" d="M 192.5,1043.5 C 191.513,1038.68 190.847,1033.68 190.5,1028.5C 212.14,1024.73 233.806,1021.06 255.5,1017.5C 255.5,1022.5 255.5,1027.5 255.5,1032.5C 234.415,1035.59 213.415,1039.26 192.5,1043.5 Z"/></g>
<g><path style="opacity:1" fill="#fcfaf9" d="M 1625.5,1018.5 C 1626.5,1018.5 1627.5,1018.5 1628.5,1018.5C 1628.5,1023.17 1628.5,1027.83 1628.5,1032.5C 1541.61,1046.54 1454.28,1057.37 1366.5,1065C 1324.18,1068.94 1281.85,1072.61 1239.5,1076C 1220.5,1077.42 1201.5,1078.42 1182.5,1079C 1176.67,1075.92 1171,1072.59 1165.5,1069C 1220.48,1064.06 1275.48,1059.39 1330.5,1055C 1413.37,1047.54 1496.04,1038.21 1578.5,1027C 1594.45,1024.94 1610.11,1022.11 1625.5,1018.5 Z"/></g>
<g><path style="opacity:1" fill="#fdfcfb" d="M 1699.5,1028.5 C 1700.57,1029.43 1701.9,1029.77 1703.5,1029.5C 1703.84,1034.12 1703.18,1038.46 1701.5,1042.5C 1682.18,1039 1662.84,1035.5 1643.5,1032C 1641.6,1027.82 1640.93,1023.32 1641.5,1018.5C 1660.85,1021.83 1680.18,1025.17 1699.5,1028.5 Z"/></g>
<g><path style="opacity:1" fill="#9c7550" d="M 252.5,1045.5 C 253.568,1044.57 254.901,1044.23 256.5,1044.5C 256.832,1094 256.499,1143.34 255.5,1192.5C 255.5,1143.5 255.5,1094.5 255.5,1045.5C 254.5,1045.5 253.5,1045.5 252.5,1045.5 Z"/></g>
<g><path style="opacity:1" fill="#9c7651" d="M 1625.5,1045.5 C 1626.57,1044.57 1627.9,1044.23 1629.5,1044.5C 1629.83,1092.17 1629.5,1139.84 1628.5,1187.5C 1627.89,1187.38 1627.56,1187.04 1627.5,1186.5C 1628.5,1139.67 1628.83,1092.67 1628.5,1045.5C 1627.5,1045.5 1626.5,1045.5 1625.5,1045.5 Z"/></g>
<g><path style="opacity:1" fill="#fefefe" d="M 1697.5,1054.5 C 1698.21,1055.4 1699.21,1055.74 1700.5,1055.5C 1700.5,1056.83 1700.5,1058.17 1700.5,1059.5C 1695.2,1109.02 1684.86,1157.36 1669.5,1204.5C 1660.53,1199.76 1651.36,1195.43 1642,1191.5C 1641.5,1142.5 1641.33,1093.5 1641.5,1044.5C 1660.08,1048.26 1678.74,1051.6 1697.5,1054.5 Z"/></g>
<g><path style="opacity:1" fill="#fefefe" d="M 252.5,1045.5 C 253.5,1045.5 254.5,1045.5 255.5,1045.5C 255.5,1094.5 255.5,1143.5 255.5,1192.5C 245.167,1196.6 235.167,1201.27 225.5,1206.5C 209.161,1157.5 198.495,1107.17 193.5,1055.5C 213.213,1052.42 232.88,1049.09 252.5,1045.5 Z"/></g>
<g><path style="opacity:1" fill="#fefefe" d="M 649.5,1117.5 C 625.833,1117.5 602.167,1117.5 578.5,1117.5C 578.5,1118.5 578.5,1119.5 578.5,1120.5C 550.055,1136.23 521.388,1151.73 492.5,1167C 416.349,1155.72 341.849,1162.55 269,1187.5C 268.5,1140.17 268.333,1092.83 268.5,1045.5C 325.926,1055.07 383.592,1062.9 441.5,1069C 525.416,1077.64 609.416,1085.31 693.5,1092C 678.642,1100.26 663.976,1108.76 649.5,1117.5 Z"/></g>
<g><path style="opacity:1" fill="#fefefe" d="M 1625.5,1045.5 C 1626.5,1045.5 1627.5,1045.5 1628.5,1045.5C 1628.83,1092.67 1628.5,1139.67 1627.5,1186.5C 1570.63,1168.27 1512.3,1160.1 1452.5,1162C 1436.74,1163.3 1421.08,1164.97 1405.5,1167C 1377.32,1151.75 1348.99,1136.75 1320.5,1122C 1319.62,1120.64 1319.29,1119.14 1319.5,1117.5C 1295.16,1117.67 1270.83,1117.5 1246.5,1117C 1232.61,1108.56 1218.61,1100.39 1204.5,1092.5C 1206.83,1091.83 1209.17,1091.17 1211.5,1090.5C 1306.65,1083.32 1401.65,1074.49 1496.5,1064C 1539.65,1058.81 1582.65,1052.65 1625.5,1045.5 Z"/></g>
<g><path style="opacity:1" fill="#86592e" d="M 759.5,1057.5 C 759.833,1057.5 760.167,1057.5 760.5,1057.5C 766.5,1057.5 772.5,1057.5 778.5,1057.5C 778.833,1057.5 779.167,1057.5 779.5,1057.5C 783.5,1057.5 787.5,1057.5 791.5,1057.5C 793.5,1057.5 795.5,1057.5 797.5,1057.5C 801.833,1057.5 806.167,1057.5 810.5,1057.5C 817.833,1057.5 825.167,1057.5 832.5,1057.5C 836.833,1057.5 841.167,1057.5 845.5,1057.5C 914.5,1057.5 983.5,1057.5 1052.5,1057.5C 1056.83,1057.5 1061.17,1057.5 1065.5,1057.5C 1072.5,1057.5 1079.5,1057.5 1086.5,1057.5C 1090.83,1057.5 1095.17,1057.5 1099.5,1057.5C 1101.5,1057.5 1103.5,1057.5 1105.5,1057.5C 1109.5,1057.5 1113.5,1057.5 1117.5,1057.5C 1124.17,1057.5 1130.83,1057.5 1137.5,1057.5C 1141.83,1057.5 1146.17,1057.5 1150.5,1057.5C 1149.53,1073.33 1149.53,1089 1150.5,1104.5C 1150.5,1104.83 1150.5,1105.17 1150.5,1105.5C 1150.5,1108.83 1150.5,1112.17 1150.5,1115.5C 1146.5,1115.5 1142.5,1115.5 1138.5,1115.5C 1138.17,1115.5 1137.83,1115.5 1137.5,1115.5C 1113.5,1115.5 1089.5,1115.5 1065.5,1115.5C 1061.17,1115.5 1056.83,1115.5 1052.5,1115.5C 983.5,1115.5 914.5,1115.5 845.5,1115.5C 841.167,1115.5 836.833,1115.5 832.5,1115.5C 808.167,1115.5 783.833,1115.5 759.5,1115.5C 755.833,1115.5 752.167,1115.5 748.5,1115.5C 748.5,1096.17 748.5,1076.83 748.5,1057.5C 752.167,1057.5 755.833,1057.5 759.5,1057.5 Z"/></g>
<g><path style="opacity:1" fill="#bd9d7e" d="M 1697.5,1054.5 C 1698.83,1054.5 1700.17,1054.5 1701.5,1054.5C 1701.78,1056.41 1701.45,1058.08 1700.5,1059.5C 1700.5,1058.17 1700.5,1056.83 1700.5,1055.5C 1699.21,1055.74 1698.21,1055.4 1697.5,1054.5 Z"/></g>
<g><path style="opacity:1" fill="#fefffe" d="M 761.5,1070.5 C 785.167,1070.5 808.833,1070.5 832.5,1070.5C 832.5,1081.17 832.5,1091.83 832.5,1102.5C 808.833,1102.5 785.167,1102.5 761.5,1102.5C 761.5,1091.83 761.5,1081.17 761.5,1070.5 Z"/></g>
<g><path style="opacity:1" fill="#fefffe" d="M 845.5,1070.5 C 914.5,1070.5 983.5,1070.5 1052.5,1070.5C 1052.5,1081.17 1052.5,1091.83 1052.5,1102.5C 983.5,1102.5 914.5,1102.5 845.5,1102.5C 845.5,1091.83 845.5,1081.17 845.5,1070.5 Z"/></g>
<g><path style="opacity:1" fill="#fefffe" d="M 1065.5,1070.5 C 1089.5,1070.5 1113.5,1070.5 1137.5,1070.5C 1137.5,1081.17 1137.5,1091.83 1137.5,1102.5C 1113.5,1102.5 1089.5,1102.5 1065.5,1102.5C 1065.5,1091.83 1065.5,1081.17 1065.5,1070.5 Z"/></g>
<g><path style="opacity:1" fill="#d7c5b4" d="M 745.5,1076.5 C 745.56,1075.96 745.893,1075.62 746.5,1075.5C 747.823,1085.99 747.823,1096.33 746.5,1106.5C 746.827,1096.32 746.494,1086.32 745.5,1076.5 Z"/></g>
<g><path style="opacity:1" fill="#fefdfd" d="M 745.5,1076.5 C 746.494,1086.32 746.827,1096.32 746.5,1106.5C 717.167,1123.5 687.833,1140.5 658.5,1157.5C 657.506,1148.01 657.173,1138.35 657.5,1128.5C 686.468,1110.68 715.801,1093.34 745.5,1076.5 Z"/></g>
<g><path style="opacity:1" fill="#fefdfd" d="M 1150.5,1105.5 C 1150.5,1105.17 1150.5,1104.83 1150.5,1104.5C 1150.33,1094.83 1150.5,1085.16 1151,1075.5C 1180.92,1092.87 1210.75,1110.37 1240.5,1128C 1241.65,1137.76 1241.82,1147.59 1241,1157.5C 1211.02,1139.76 1180.86,1122.43 1150.5,1105.5 Z"/></g>
<g><path style="opacity:1" fill="#c7ae97" d="M 1211.5,1090.5 C 1209.17,1091.17 1206.83,1091.83 1204.5,1092.5C 1203.71,1092.22 1203.04,1091.72 1202.5,1091C 1205.48,1090.5 1208.48,1090.34 1211.5,1090.5 Z"/></g>
<g><path style="opacity:1" fill="#fefdfd" d="M 759.5,1115.5 C 783.833,1115.5 808.167,1115.5 832.5,1115.5C 832.5,1160.5 832.5,1205.5 832.5,1250.5C 808.141,1252.23 783.808,1254.23 759.5,1256.5C 759.5,1209.5 759.5,1162.5 759.5,1115.5 Z"/></g>
<g><path style="opacity:1" fill="#fefefe" d="M 845.5,1115.5 C 914.5,1115.5 983.5,1115.5 1052.5,1115.5C 1052.67,1142.17 1052.5,1168.84 1052,1195.5C 1016.61,1155.26 972.448,1140.09 919.5,1150C 889.891,1157.55 865.391,1173.05 846,1196.5C 845.5,1169.5 845.333,1142.5 845.5,1115.5 Z"/></g>
<g><path style="opacity:1" fill="#fefefe" d="M 1065.5,1115.5 C 1089.5,1115.5 1113.5,1115.5 1137.5,1115.5C 1137.5,1164.17 1137.5,1212.83 1137.5,1261.5C 1136.5,1261.5 1135.5,1261.5 1134.5,1261.5C 1111.57,1258.51 1088.57,1256.18 1065.5,1254.5C 1065.5,1208.17 1065.5,1161.83 1065.5,1115.5 Z"/></g>
<g><path style="opacity:1" fill="#9c7550" d="M 1137.5,1115.5 C 1137.83,1115.5 1138.17,1115.5 1138.5,1115.5C 1138.5,1164.5 1138.5,1213.5 1138.5,1262.5C 1136.9,1262.77 1135.57,1262.43 1134.5,1261.5C 1135.5,1261.5 1136.5,1261.5 1137.5,1261.5C 1137.5,1212.83 1137.5,1164.17 1137.5,1115.5 Z"/></g>
<g><path style="opacity:1" fill="#bfa58b" d="M 649.5,1117.5 C 625.777,1117.85 602.11,1118.85 578.5,1120.5C 578.5,1119.5 578.5,1118.5 578.5,1117.5C 602.167,1117.5 625.833,1117.5 649.5,1117.5 Z"/></g>
<g><path style="opacity:1" fill="#9c7550" d="M 1151.5,1120.5 C 1150.5,1168 1150.17,1215.66 1150.5,1263.5C 1149.17,1215.66 1149.17,1167.66 1150.5,1119.5C 1151.11,1119.62 1151.44,1119.96 1151.5,1120.5 Z"/></g>
<g><path style="opacity:1" fill="#fefefd" d="M 1151.5,1120.5 C 1181.47,1137.82 1211.47,1155.15 1241.5,1172.5C 1242.5,1198.49 1242.83,1224.49 1242.5,1250.5C 1233.49,1250.33 1224.49,1250.5 1215.5,1251C 1208.55,1255.62 1201.88,1260.62 1195.5,1266C 1193.44,1267.7 1191.11,1268.86 1188.5,1269.5C 1175.68,1267.58 1163.01,1265.58 1150.5,1263.5C 1150.17,1215.66 1150.5,1168 1151.5,1120.5 Z"/></g>
<g><path style="opacity:1" fill="#d8c6b5" d="M 745.5,1122.5 C 745.56,1121.96 745.893,1121.62 746.5,1121.5C 747.831,1167.33 747.831,1213 746.5,1258.5C 746.832,1213 746.499,1167.66 745.5,1122.5 Z"/></g>
<g><path style="opacity:1" fill="#fefefe" d="M 745.5,1122.5 C 746.499,1167.66 746.832,1213 746.5,1258.5C 730.859,1260.81 715.192,1262.65 699.5,1264C 693.833,1259.67 688.167,1255.33 682.5,1251C 673.84,1250.5 665.173,1250.33 656.5,1250.5C 656.333,1224.83 656.5,1199.16 657,1173.5C 686.31,1156.1 715.81,1139.1 745.5,1122.5 Z"/></g>
<g><path style="opacity:1" fill="#d6c4b3" d="M 657.5,1128.5 C 657.173,1138.35 657.506,1148.01 658.5,1157.5C 658.44,1158.04 658.107,1158.38 657.5,1158.5C 656.177,1148.34 656.177,1138.34 657.5,1128.5 Z"/></g>
<g><path style="opacity:1" fill="#fefffe" d="M 591.5,1131.5 C 608.833,1131.5 626.167,1131.5 643.5,1131.5C 643.5,1142.17 643.5,1152.83 643.5,1163.5C 626.167,1163.5 608.833,1163.5 591.5,1163.5C 591.5,1152.83 591.5,1142.17 591.5,1131.5 Z"/></g>
<g><path style="opacity:1" fill="#cdb8a3" d="M 591.5,1131.5 C 608.992,1130.5 626.659,1130.17 644.5,1130.5C 644.828,1141.68 644.495,1152.68 643.5,1163.5C 643.5,1152.83 643.5,1142.17 643.5,1131.5C 626.167,1131.5 608.833,1131.5 591.5,1131.5 Z"/></g>
<g><path style="opacity:1" fill="#bda288" d="M 1306.5,1162.5 C 1306.5,1152.17 1306.5,1141.83 1306.5,1131.5C 1289.5,1131.5 1272.5,1131.5 1255.5,1131.5C 1255.5,1141.83 1255.5,1152.17 1255.5,1162.5C 1254.51,1152.01 1254.17,1141.35 1254.5,1130.5C 1272.17,1130.5 1289.83,1130.5 1307.5,1130.5C 1307.83,1141.35 1307.49,1152.01 1306.5,1162.5 Z"/></g>
<g><path style="opacity:1" fill="#fefffe" d="M 1306.5,1162.5 C 1289.5,1162.5 1272.5,1162.5 1255.5,1162.5C 1255.5,1152.17 1255.5,1141.83 1255.5,1131.5C 1272.5,1131.5 1289.5,1131.5 1306.5,1131.5C 1306.5,1141.83 1306.5,1152.17 1306.5,1162.5 Z"/></g>
<g><path style="opacity:1" fill="#fdfdfc" d="M 577.5,1135.5 C 578.494,1145.65 578.828,1155.99 578.5,1166.5C 562.641,1173.01 546.808,1179.68 531,1186.5C 525.911,1183.03 521.078,1179.2 516.5,1175C 513.833,1174.33 511.167,1173.67 508.5,1173C 531.562,1160.47 554.562,1147.97 577.5,1135.5 Z"/></g>
<g><path style="opacity:1" fill="#fdfdfc" d="M 1320.5,1136.5 C 1343.3,1148.4 1365.97,1160.57 1388.5,1173C 1381.28,1174.53 1375.28,1178.2 1370.5,1184C 1369.27,1184.78 1367.94,1185.28 1366.5,1185.5C 1351.39,1179.11 1336.39,1172.44 1321.5,1165.5C 1320.5,1155.86 1320.17,1146.19 1320.5,1136.5 Z"/></g>
<g><path style="opacity:1" fill="#fdfcfc" d="M 936.5,1159.5 C 985.818,1157.08 1024.32,1176.08 1052,1216.5C 1052.67,1221.5 1052.67,1226.5 1052,1231.5C 1016.36,1191.73 972.193,1176.9 919.5,1187C 889.733,1194.78 865.233,1210.61 846,1234.5C 845.333,1229.17 845.333,1223.83 846,1218.5C 867.358,1185.31 897.525,1165.64 936.5,1159.5 Z"/></g>
<g><path style="opacity:1" fill="#fdfdfc" d="M 238.5,1240.5 C 237.25,1240.42 236.417,1239.76 236,1238.5C 233.532,1231.91 231.365,1225.24 229.5,1218.5C 318.459,1176.13 411.126,1165.13 507.5,1185.5C 507.5,1193.83 507.5,1202.17 507.5,1210.5C 424.242,1191.88 342.909,1198.05 263.5,1229C 255.01,1232.55 246.677,1236.38 238.5,1240.5 Z"/></g>
<g><path style="opacity:1" fill="#fdfcfc" d="M 1254.5,1175.5 C 1272.17,1175.5 1289.83,1175.5 1307.5,1175.5C 1307.67,1195.84 1307.5,1216.17 1307,1236.5C 1301.22,1240.64 1295.72,1245.14 1290.5,1250C 1278.5,1250.5 1266.5,1250.67 1254.5,1250.5C 1254.5,1225.5 1254.5,1200.5 1254.5,1175.5 Z"/></g>
<g><path style="opacity:1" fill="#fefefe" d="M 591.5,1176.5 C 608.833,1176.5 626.167,1176.5 643.5,1176.5C 643.5,1201.17 643.5,1225.83 643.5,1250.5C 631.495,1250.67 619.495,1250.5 607.5,1250C 602.059,1246.19 596.892,1242.03 592,1237.5C 591.5,1217.17 591.333,1196.84 591.5,1176.5 Z"/></g>
<g><path style="opacity:1" fill="#ceb8a4" d="M 591.5,1176.5 C 608.992,1175.5 626.659,1175.17 644.5,1175.5C 644.831,1200.67 644.498,1225.67 643.5,1250.5C 643.5,1225.83 643.5,1201.17 643.5,1176.5C 626.167,1176.5 608.833,1176.5 591.5,1176.5 Z"/></g>
<g><path style="opacity:1" fill="#fdfcfb" d="M 1665.5,1216.5 C 1663.78,1222.17 1661.94,1227.83 1660,1233.5C 1659.62,1234.06 1659.12,1234.39 1658.5,1234.5C 1596.21,1205 1530.55,1192.5 1461.5,1197C 1437.66,1198.49 1413.99,1201.32 1390.5,1205.5C 1390.5,1198.83 1390.5,1192.17 1390.5,1185.5C 1485.61,1165.84 1577.28,1176.18 1665.5,1216.5 Z"/></g>
<g><path style="opacity:1" fill="#b7997d" d="M 577.5,1180.5 C 577.56,1179.96 577.893,1179.62 578.5,1179.5C 579.833,1195.17 579.833,1210.83 578.5,1226.5C 577.893,1226.38 577.56,1226.04 577.5,1225.5C 578.833,1210.5 578.833,1195.5 577.5,1180.5 Z"/></g>
<g><path style="opacity:1" fill="#fbfaf9" d="M 1319.5,1179.5 C 1331.75,1184.25 1343.75,1189.58 1355.5,1195.5C 1343.84,1205.66 1332,1215.66 1320,1225.5C 1319.5,1210.17 1319.33,1194.84 1319.5,1179.5 Z"/></g>
<g><path style="opacity:1" fill="#fdfdfc" d="M 577.5,1180.5 C 578.833,1195.5 578.833,1210.5 577.5,1225.5C 565.864,1215.67 554.198,1205.84 542.5,1196C 553.983,1190.34 565.65,1185.18 577.5,1180.5 Z"/></g>
<g><path style="opacity:1" fill="#d5c2b0" d="M 521.5,1195.5 C 520.509,1202.31 520.175,1209.31 520.5,1216.5C 519.181,1209.32 519.181,1201.99 520.5,1194.5C 521.107,1194.62 521.44,1194.96 521.5,1195.5 Z"/></g>
<g><path style="opacity:1" fill="#fdfdfc" d="M 521.5,1195.5 C 548.469,1217.99 575.469,1240.49 602.5,1263C 627.833,1263.33 653.167,1263.67 678.5,1264C 679.833,1265 681.167,1266 682.5,1267C 654.95,1271.56 627.45,1276.4 600,1281.5C 573.032,1260.36 546.532,1238.69 520.5,1216.5C 520.175,1209.31 520.509,1202.31 521.5,1195.5 Z"/></g>
<g><path style="opacity:1" fill="#fdfcfb" d="M 1376.5,1194.5 C 1377.65,1199.98 1377.82,1205.65 1377,1211.5C 1347.89,1234.98 1319.06,1258.81 1290.5,1283C 1286.17,1283.67 1281.83,1283.67 1277.5,1283C 1254.51,1279.22 1231.51,1275.56 1208.5,1272C 1211.99,1269.09 1215.66,1266.42 1219.5,1264C 1244.5,1263.67 1269.5,1263.33 1294.5,1263C 1322.02,1240.3 1349.36,1217.47 1376.5,1194.5 Z"/></g>
<g><path style="opacity:1" fill="#fefdfd" d="M 938.5,1196.5 C 986.646,1194.24 1024.31,1212.74 1051.5,1252C 1020.88,1249.95 990.217,1248.28 959.5,1247C 923.472,1246.29 887.472,1246.63 851.5,1248C 873.178,1218.49 902.178,1201.33 938.5,1196.5 Z"/></g>
<g><path style="opacity:1" fill="#fefefe" d="M 1654.5,1246.5 C 1644.42,1274.32 1632.42,1301.32 1618.5,1327.5C 1617.31,1328.43 1615.98,1328.76 1614.5,1328.5C 1539.42,1322.93 1464.75,1313.93 1390.5,1301.5C 1390.5,1273.83 1390.5,1246.17 1390.5,1218.5C 1462.17,1203.05 1533.17,1205.55 1603.5,1226C 1620.97,1231.74 1637.97,1238.57 1654.5,1246.5 Z"/></g>
<g><path style="opacity:1" fill="#fefefd" d="M 275.5,1327.5 C 262.799,1303.1 251.465,1278.1 241.5,1252.5C 326.732,1212.3 415.399,1202.63 507.5,1223.5C 507.5,1248.17 507.5,1272.83 507.5,1297.5C 452.386,1307.11 397.052,1315.28 341.5,1322C 319.496,1323.92 297.496,1325.75 275.5,1327.5 Z"/></g>
<g><path style="opacity:1" fill="#fefdfd" d="M 1376.5,1227.5 C 1377.83,1251.34 1377.83,1275.34 1376.5,1299.5C 1352.73,1295.54 1329.06,1291.37 1305.5,1287C 1329.36,1267.3 1353.02,1247.47 1376.5,1227.5 Z"/></g>
<g><path style="opacity:1" fill="#d7c5b4" d="M 520.5,1233.5 C 520.17,1254.01 520.503,1274.34 521.5,1294.5C 521.44,1295.04 521.107,1295.38 520.5,1295.5C 520.167,1285 519.833,1274.5 519.5,1264C 519.488,1253.09 519.822,1242.92 520.5,1233.5 Z"/></g>
<g><path style="opacity:1" fill="#fefdfd" d="M 520.5,1233.5 C 540.96,1250.12 561.293,1266.95 581.5,1284C 561.555,1287.82 541.555,1291.32 521.5,1294.5C 520.503,1274.34 520.17,1254.01 520.5,1233.5 Z"/></g>
<g><path style="opacity:1" fill="#fefefe" d="M 878.5,1259.5 C 971.32,1257.95 1063.65,1263.79 1155.5,1277C 1245.53,1291.12 1335.53,1305.45 1425.5,1320C 1497.17,1330.79 1569.17,1338.46 1641.5,1343C 1658.83,1343.5 1676.16,1343.67 1693.5,1343.5C 1693.5,1423.83 1693.5,1504.17 1693.5,1584.5C 1635.64,1583.42 1577.98,1579.59 1520.5,1573C 1486.42,1568.89 1452.42,1564.23 1418.5,1559C 1346.18,1547.25 1273.84,1535.58 1201.5,1524C 1109.09,1509.13 1016.09,1500.96 922.5,1499.5C 867.632,1500.07 812.965,1503.57 758.5,1510C 671.434,1521.62 584.768,1535.62 498.5,1552C 432.47,1563.43 366.137,1572.43 299.5,1579C 266.188,1581.1 232.854,1582.6 199.5,1583.5C 199.5,1503.17 199.5,1422.83 199.5,1342.5C 257.395,1342.08 315.061,1338.25 372.5,1331C 406.541,1326.28 440.541,1321.28 474.5,1316C 560.621,1300.48 646.954,1286.15 733.5,1273C 781.818,1266.64 830.151,1262.14 878.5,1259.5 Z"/></g>
<g><path style="opacity:1" fill="#86592f" d="M 974.5,1435.5 C 974.5,1436.5 974.5,1437.5 974.5,1438.5C 968.833,1438.5 963.167,1438.5 957.5,1438.5C 947.5,1438.5 937.5,1438.5 927.5,1438.5C 927.5,1437.17 927.5,1435.83 927.5,1434.5C 933.001,1435.36 937.834,1434.03 942,1430.5C 945.039,1398.92 946.039,1367.25 945,1335.5C 940.998,1331.55 936.164,1329.89 930.5,1330.5C 930.5,1329.5 930.5,1328.5 930.5,1327.5C 946.497,1327.94 962.497,1328.27 978.5,1328.5C 978.5,1329.5 978.5,1330.5 978.5,1331.5C 969.784,1329.93 964.284,1333.26 962,1341.5C 960.863,1370.17 960.196,1398.83 960,1427.5C 962.473,1434.16 967.306,1436.82 974.5,1435.5 Z"/></g>
<g><path style="opacity:1" fill="#86592f" d="M 840.5,1328.5 C 847.833,1328.5 855.167,1328.5 862.5,1328.5C 862.5,1329.5 862.5,1330.5 862.5,1331.5C 854.775,1330.28 848.941,1332.95 845,1339.5C 845.213,1361.83 845.88,1384.17 847,1406.5C 847.114,1413.58 847.781,1420.58 849,1427.5C 850.972,1430.89 853.972,1432.22 858,1431.5C 866.49,1430.85 874.99,1430.35 883.5,1430C 889.667,1429.5 894.834,1427 899,1422.5C 902.445,1417.94 905.112,1412.94 907,1407.5C 908.183,1406.27 909.349,1406.27 910.5,1407.5C 907.811,1416.78 905.311,1426.11 903,1435.5C 898.754,1436.8 894.254,1437.47 889.5,1437.5C 865.159,1438.42 840.826,1439.42 816.5,1440.5C 816.5,1439.17 816.5,1437.83 816.5,1436.5C 820.712,1436.92 824.712,1436.26 828.5,1434.5C 829.584,1433.33 830.417,1432 831,1430.5C 831.213,1402.82 830.546,1375.15 829,1347.5C 829.183,1336.19 823.683,1331.52 812.5,1333.5C 812.5,1332.17 812.5,1330.83 812.5,1329.5C 822.015,1329.83 831.348,1329.49 840.5,1328.5 Z"/></g>
<g><path style="opacity:1" fill="#865a30" d="M 1027.5,1329.5 C 1032.51,1329.33 1037.51,1329.5 1042.5,1330C 1049.63,1332.21 1056.63,1334.71 1063.5,1337.5C 1064.5,1337.33 1065.5,1337.17 1066.5,1337C 1067.27,1334.95 1068.6,1333.45 1070.5,1332.5C 1071.17,1332.83 1071.83,1333.17 1072.5,1333.5C 1070.89,1345.76 1069.89,1358.1 1069.5,1370.5C 1068.17,1370.5 1066.83,1370.5 1065.5,1370.5C 1065.03,1347.53 1053.37,1336.37 1030.5,1337C 1018.58,1341.66 1015.08,1349.82 1020,1361.5C 1030.86,1371.35 1042.7,1379.85 1055.5,1387C 1063.24,1392.07 1068.74,1398.91 1072,1407.5C 1074.39,1425.77 1066.89,1437.94 1049.5,1444C 1043.22,1445.42 1036.89,1445.76 1030.5,1445C 1022,1442.67 1013.67,1439.83 1005.5,1436.5C 1002.7,1437.41 1001.37,1439.41 1001.5,1442.5C 1000.17,1442.5 998.833,1442.5 997.5,1442.5C 998.83,1429.87 999.83,1417.2 1000.5,1404.5C 1001.83,1404.5 1003.17,1404.5 1004.5,1404.5C 1004.51,1425.67 1015.01,1437 1036,1438.5C 1050.92,1438.57 1057.92,1431.23 1057,1416.5C 1054.98,1411.48 1051.82,1407.31 1047.5,1404C 1036.33,1396.58 1025.33,1388.91 1014.5,1381C 1002.09,1369.28 1000.26,1356.12 1009,1341.5C 1014.04,1335.61 1020.2,1331.61 1027.5,1329.5 Z"/></g>
<g><path style="opacity:1" fill="#875a30" d="M 729.5,1336.5 C 731.144,1336.29 732.644,1336.62 734,1337.5C 751.747,1369.33 769.747,1401 788,1432.5C 792.017,1437.42 797.184,1439.42 803.5,1438.5C 803.5,1439.5 803.5,1440.5 803.5,1441.5C 788.858,1443.38 774.191,1445.05 759.5,1446.5C 759.5,1445.5 759.5,1444.5 759.5,1443.5C 764.893,1443.17 768.226,1440.5 769.5,1435.5C 766.565,1426.96 762.565,1418.96 757.5,1411.5C 743.076,1411.26 728.742,1412.59 714.5,1415.5C 711.863,1423.91 709.53,1432.41 707.5,1441C 707.703,1443.41 708.703,1445.41 710.5,1447C 714.06,1448.24 717.727,1448.74 721.5,1448.5C 721.5,1449.5 721.5,1450.5 721.5,1451.5C 709.813,1452.73 698.146,1454.06 686.5,1455.5C 686.5,1454.17 686.5,1452.83 686.5,1451.5C 692.225,1450.94 696.058,1447.94 698,1442.5C 708.814,1407.24 719.314,1371.91 729.5,1336.5 Z"/></g>
<g><path style="opacity:1" fill="#875a30" d="M 1105.5,1338.5 C 1116.07,1339.94 1126.57,1341.6 1137,1343.5C 1146.01,1373.22 1155.18,1402.89 1164.5,1432.5C 1181.36,1406.8 1198.03,1380.97 1214.5,1355C 1225.21,1355.55 1235.87,1356.72 1246.5,1358.5C 1246.5,1359.5 1246.5,1360.5 1246.5,1361.5C 1241.7,1361.12 1237.04,1361.62 1232.5,1363C 1230,1367.14 1228.5,1371.64 1228,1376.5C 1224.27,1401.8 1220.77,1427.14 1217.5,1452.5C 1217.94,1461.09 1222.6,1465.09 1231.5,1464.5C 1231.5,1465.83 1231.5,1467.17 1231.5,1468.5C 1215.89,1465.8 1200.23,1463.47 1184.5,1461.5C 1184.5,1460.5 1184.5,1459.5 1184.5,1458.5C 1188.18,1458.67 1191.85,1458.5 1195.5,1458C 1198.66,1456.52 1200.5,1454.02 1201,1450.5C 1204.86,1424.8 1208.53,1399.14 1212,1373.5C 1194.17,1401.17 1176.33,1428.83 1158.5,1456.5C 1157.31,1457.43 1155.98,1457.76 1154.5,1457.5C 1145.62,1425.33 1136.12,1393.33 1126,1361.5C 1120.88,1388.99 1117.55,1416.65 1116,1444.5C 1119.06,1448.77 1123.22,1450.44 1128.5,1449.5C 1128.5,1450.83 1128.5,1452.17 1128.5,1453.5C 1115.81,1452.02 1103.14,1450.35 1090.5,1448.5C 1090.34,1447.13 1090.51,1445.79 1091,1444.5C 1094.07,1445.62 1097.24,1445.78 1100.5,1445C 1103.06,1444.31 1104.89,1442.81 1106,1440.5C 1110.47,1414.24 1114.47,1387.91 1118,1361.5C 1121.74,1349.59 1117.57,1343.26 1105.5,1342.5C 1105.5,1341.17 1105.5,1339.83 1105.5,1338.5 Z"/></g>
<g><path style="opacity:1" fill="#86592f" d="M 602.5,1357.5 C 616.679,1354.99 628.513,1358.99 638,1369.5C 646.667,1389.52 640.834,1403.86 620.5,1412.5C 632.015,1424.85 644.015,1436.68 656.5,1448C 663.083,1452.65 670.417,1454.48 678.5,1453.5C 678.5,1454.83 678.5,1456.17 678.5,1457.5C 668.563,1459.44 658.563,1460.6 648.5,1461C 635.5,1448 622.5,1435 609.5,1422C 607.277,1420.27 604.944,1418.77 602.5,1417.5C 599.855,1418.11 597.188,1418.61 594.5,1419C 595.06,1431.88 596.893,1444.71 600,1457.5C 600.45,1459.52 601.283,1461.35 602.5,1463C 607.051,1464.21 611.718,1464.88 616.5,1465C 616.957,1465.41 617.291,1465.91 617.5,1466.5C 601.753,1470.46 585.753,1473.12 569.5,1474.5C 569.5,1473.5 569.5,1472.5 569.5,1471.5C 577.701,1472.09 582.367,1468.42 583.5,1460.5C 579.422,1431.7 574.588,1403.03 569,1374.5C 568.167,1371.67 566.333,1369.83 563.5,1369C 559.848,1368.5 556.182,1368.33 552.5,1368.5C 552.5,1367.5 552.5,1366.5 552.5,1365.5C 569.332,1363.03 585.999,1360.36 602.5,1357.5 Z"/></g>
<g><path style="opacity:1" fill="#fcfbfa" d="M 729.5,1363.5 C 737.977,1376.44 745.977,1389.77 753.5,1403.5C 741.124,1405.78 728.791,1407.11 716.5,1407.5C 721.233,1392.97 725.566,1378.3 729.5,1363.5 Z"/></g>
<g><path style="opacity:1" fill="#fdfcfc" d="M 598.5,1364.5 C 614.278,1364.44 622.945,1372.28 624.5,1388C 623.395,1398.88 617.729,1406.22 607.5,1410C 602.274,1411.7 596.941,1412.87 591.5,1413.5C 590.154,1399.42 588.154,1385.42 585.5,1371.5C 585.57,1370.23 585.903,1369.06 586.5,1368C 590.543,1366.51 594.543,1365.34 598.5,1364.5 Z"/></g>
<g><path style="opacity:1" fill="#875b31" d="M 1318.5,1368.5 C 1319.83,1368.5 1321.17,1368.5 1322.5,1368.5C 1330.35,1402.89 1338.52,1437.22 1347,1471.5C 1348.36,1478.93 1352.53,1483.93 1359.5,1486.5C 1360.39,1487.32 1360.72,1488.32 1360.5,1489.5C 1346.17,1487.5 1331.83,1485.5 1317.5,1483.5C 1317.5,1482.17 1317.5,1480.83 1317.5,1479.5C 1324.6,1481.44 1328.93,1478.94 1330.5,1472C 1328.43,1463.88 1326.6,1455.72 1325,1447.5C 1313.59,1445.07 1302.09,1442.9 1290.5,1441C 1287.45,1440.18 1284.45,1440.35 1281.5,1441.5C 1276.24,1448.86 1271.9,1456.7 1268.5,1465C 1270.06,1470.37 1273.73,1472.87 1279.5,1472.5C 1279.5,1473.83 1279.5,1475.17 1279.5,1476.5C 1267.87,1474.59 1256.2,1472.92 1244.5,1471.5C 1244.5,1470.17 1244.5,1468.83 1244.5,1467.5C 1247.19,1467.66 1249.85,1467.5 1252.5,1467C 1255.63,1464.87 1258.46,1462.37 1261,1459.5C 1280.68,1429.48 1299.84,1399.14 1318.5,1368.5 Z"/></g>
<g><path style="opacity:1" fill="#875b31" d="M 478.5,1375.5 C 479.675,1375.28 480.675,1375.61 481.5,1376.5C 500.834,1407.84 520.668,1438.84 541,1469.5C 545.221,1473.92 550.387,1475.59 556.5,1474.5C 556.5,1475.5 556.5,1476.5 556.5,1477.5C 541.942,1480.48 527.276,1482.82 512.5,1484.5C 512.281,1483.32 512.614,1482.32 513.5,1481.5C 516.446,1480.69 519.112,1479.36 521.5,1477.5C 522.022,1476.39 522.355,1475.23 522.5,1474C 518.93,1465.36 514.43,1457.2 509,1449.5C 494.824,1450.61 480.657,1452.78 466.5,1456C 464.911,1463.19 463.077,1470.36 461,1477.5C 459.806,1481.92 460.972,1485.42 464.5,1488C 467.833,1488.33 471.167,1488.67 474.5,1489C 475.815,1490.39 475.481,1491.39 473.5,1492C 462.776,1493.6 452.11,1495.44 441.5,1497.5C 441.167,1496.83 440.833,1496.17 440.5,1495.5C 443.421,1493.43 446.254,1491.1 449,1488.5C 450.725,1485.33 452.058,1481.99 453,1478.5C 461.219,1444.03 469.719,1409.69 478.5,1375.5 Z"/></g>
<g><path style="opacity:1" fill="#865a30" d="M 1458.5,1428.5 C 1457.5,1428.5 1456.5,1428.5 1455.5,1428.5C 1455.78,1426.59 1455.45,1424.92 1454.5,1423.5C 1453.5,1405.17 1443.84,1394.83 1425.5,1392.5C 1415.18,1393.32 1409.18,1398.82 1407.5,1409C 1407.95,1412.41 1409.12,1415.58 1411,1418.5C 1422.19,1428.84 1434.03,1438.34 1446.5,1447C 1459.97,1459.39 1462.14,1473.56 1453,1489.5C 1441.44,1501.4 1427.61,1504.9 1411.5,1500C 1404.46,1496.81 1397.46,1493.65 1390.5,1490.5C 1387.63,1491.2 1385.97,1493.04 1385.5,1496C 1384.55,1496.48 1383.55,1496.65 1382.5,1496.5C 1383.84,1483.79 1385.51,1471.12 1387.5,1458.5C 1388.83,1458.5 1390.17,1458.5 1391.5,1458.5C 1391.28,1483.44 1403.61,1495.28 1428.5,1494C 1439.68,1491.16 1444.51,1483.99 1443,1472.5C 1440.93,1467.53 1437.76,1463.36 1433.5,1460C 1422.09,1451.92 1411.25,1443.09 1401,1433.5C 1390.11,1418.65 1391.28,1404.81 1404.5,1392C 1414.01,1385.48 1424.34,1383.82 1435.5,1387C 1442.21,1389.77 1448.71,1392.94 1455,1396.5C 1457.82,1395.68 1459.65,1393.85 1460.5,1391C 1461.45,1390.52 1462.45,1390.35 1463.5,1390.5C 1461.83,1403.16 1460.17,1415.83 1458.5,1428.5 Z"/></g>
<g><path style="opacity:1" fill="#865a30" d="M 394.5,1392.5 C 396.833,1392.5 399.167,1392.5 401.5,1392.5C 401.719,1393.68 401.386,1394.68 400.5,1395.5C 392.175,1398.31 385.342,1403.31 380,1410.5C 370.864,1423.27 361.364,1435.77 351.5,1448C 369.549,1462.38 387.882,1476.38 406.5,1490C 413.83,1494.72 421.83,1496.89 430.5,1496.5C 430.67,1497.82 430.337,1498.99 429.5,1500C 412.158,1502.17 394.825,1504.33 377.5,1506.5C 377.281,1505.32 377.614,1504.32 378.5,1503.5C 384.023,1502.82 386.189,1499.82 385,1494.5C 369.31,1481.98 353.476,1469.64 337.5,1457.5C 337.167,1458 336.833,1458.5 336.5,1459C 338.789,1473.14 340.955,1487.31 343,1501.5C 344.227,1503.73 346.061,1505.23 348.5,1506C 351.817,1506.5 355.15,1506.67 358.5,1506.5C 358.5,1507.5 358.5,1508.5 358.5,1509.5C 343.087,1511.01 327.753,1513.01 312.5,1515.5C 311.571,1514.31 311.238,1512.98 311.5,1511.5C 320.745,1512.57 325.412,1508.57 325.5,1499.5C 322.426,1470.73 318.593,1442.06 314,1413.5C 313.535,1412.07 312.701,1410.9 311.5,1410C 306.934,1408.69 302.267,1408.19 297.5,1408.5C 297.36,1406.88 298.027,1405.71 299.5,1405C 314.486,1403 329.486,1401.17 344.5,1399.5C 344.5,1400.83 344.5,1402.17 344.5,1403.5C 339.391,1402.92 335.224,1404.59 332,1408.5C 331.788,1423.67 333.288,1438.67 336.5,1453.5C 349.791,1438.91 361.625,1423.24 372,1406.5C 372.536,1404.43 372.036,1402.6 370.5,1401C 367.518,1400.5 364.518,1400.34 361.5,1400.5C 361.5,1399.17 361.5,1397.83 361.5,1396.5C 372.751,1396 383.751,1394.66 394.5,1392.5 Z"/></g>
<g><path style="opacity:1" fill="#fdfcfb" d="M 1311.5,1394.5 C 1316.14,1409.13 1319.81,1424.13 1322.5,1439.5C 1311.48,1437.88 1300.48,1436.05 1289.5,1434C 1288.69,1433.69 1288.03,1433.19 1287.5,1432.5C 1295.51,1419.81 1303.51,1407.14 1311.5,1394.5 Z"/></g>
<g><path style="opacity:1" fill="#86592e" d="M 1536.5,1402.5 C 1536.5,1403.5 1536.5,1404.5 1536.5,1405.5C 1534.83,1405.5 1533.17,1405.5 1531.5,1405.5C 1525.61,1405.22 1521.78,1407.89 1520,1413.5C 1518.17,1426.45 1517.01,1439.45 1516.5,1452.5C 1533.17,1454.17 1549.83,1455.83 1566.5,1457.5C 1568.59,1443.23 1569.76,1428.9 1570,1414.5C 1566.25,1409.88 1561.42,1407.88 1555.5,1408.5C 1555.5,1407.5 1555.5,1406.5 1555.5,1405.5C 1571.5,1406.83 1587.5,1408.17 1603.5,1409.5C 1603.5,1410.5 1603.5,1411.5 1603.5,1412.5C 1593.31,1410.49 1587.48,1414.49 1586,1424.5C 1583.1,1451.16 1580.27,1477.83 1577.5,1504.5C 1577.32,1510.82 1580.32,1514.65 1586.5,1516C 1588.47,1516.5 1590.47,1516.66 1592.5,1516.5C 1592.5,1517.5 1592.5,1518.5 1592.5,1519.5C 1578.79,1518.81 1565.12,1517.64 1551.5,1516C 1548.64,1516.03 1546.31,1515.2 1544.5,1513.5C 1547.94,1512.9 1551.27,1512.24 1554.5,1511.5C 1556.17,1511.25 1557.67,1510.58 1559,1509.5C 1560.2,1506.91 1561.2,1504.24 1562,1501.5C 1563.63,1488.87 1564.8,1476.2 1565.5,1463.5C 1549.1,1462.33 1532.77,1460.66 1516.5,1458.5C 1515.91,1458.71 1515.41,1459.04 1515,1459.5C 1512.94,1474.11 1511.94,1488.78 1512,1503.5C 1515.48,1507.82 1519.98,1509.82 1525.5,1509.5C 1525.5,1510.5 1525.5,1511.5 1525.5,1512.5C 1509.83,1511.21 1494.16,1509.88 1478.5,1508.5C 1478.24,1507.02 1478.57,1505.69 1479.5,1504.5C 1485.84,1506.95 1490.67,1505.28 1494,1499.5C 1498.91,1468.68 1501.91,1437.68 1503,1406.5C 1499.17,1403 1494.67,1401.33 1489.5,1401.5C 1489.5,1400.5 1489.5,1399.5 1489.5,1398.5C 1505.17,1399.83 1520.83,1401.17 1536.5,1402.5 Z"/></g>
<g><path style="opacity:1" fill="#fdfcfb" d="M 478.5,1402.5 C 487.516,1415.34 496.182,1428.51 504.5,1442C 492.517,1444.27 480.517,1446.44 468.5,1448.5C 472.421,1433.31 475.754,1417.98 478.5,1402.5 Z"/></g>
<g><path style="opacity:1" fill="#d0baa6" d="M 1536.5,1402.5 C 1537.43,1403.57 1537.77,1404.9 1537.5,1406.5C 1535.26,1406.79 1533.26,1406.46 1531.5,1405.5C 1533.17,1405.5 1534.83,1405.5 1536.5,1405.5C 1536.5,1404.5 1536.5,1403.5 1536.5,1402.5 Z"/></g>
<g><path style="opacity:1" fill="#9b744f" d="M 1706.5,1422.5 C 1760.33,1421.17 1814.33,1421.17 1868.5,1422.5C 1868.38,1423.11 1868.04,1423.44 1867.5,1423.5C 1814,1422.5 1760.34,1422.17 1706.5,1422.5 Z"/></g>
<g><path style="opacity:1" fill="#fefefe" d="M 186.5,1422.5 C 186.5,1480.5 186.5,1538.5 186.5,1596.5C 197.679,1596.83 208.679,1596.49 219.5,1595.5C 270,1594.03 320.334,1590.36 370.5,1584.5C 371.5,1584.5 372.5,1584.5 373.5,1584.5C 373.5,1596.83 373.5,1609.17 373.5,1621.5C 257.665,1621.83 141.999,1621.5 26.5,1620.5C 44.2212,1587.39 62.2212,1554.39 80.5,1521.5C 62.0399,1488.75 43.7066,1455.91 25.5,1423C 79.1656,1422.5 132.832,1422.33 186.5,1422.5 Z"/></g>
<g><path style="opacity:1" fill="#b99c81" d="M 186.5,1422.5 C 187.499,1480 187.832,1537.66 187.5,1595.5C 198.167,1595.5 208.833,1595.5 219.5,1595.5C 208.679,1596.49 197.679,1596.83 186.5,1596.5C 186.5,1538.5 186.5,1480.5 186.5,1422.5 Z"/></g>
<g><path style="opacity:1" fill="#fefefe" d="M 1706.5,1422.5 C 1760.34,1422.17 1814,1422.5 1867.5,1423.5C 1848.38,1456.91 1829.38,1490.41 1810.5,1524C 1829.05,1556.26 1847.71,1588.43 1866.5,1620.5C 1751,1621.5 1635.33,1621.83 1519.5,1621.5C 1519.5,1609.5 1519.5,1597.5 1519.5,1585.5C 1553.72,1589.84 1588.05,1593 1622.5,1595C 1650.48,1596.59 1678.48,1597.43 1706.5,1597.5C 1706.5,1539.17 1706.5,1480.83 1706.5,1422.5 Z"/></g>
<g><path style="opacity:1" fill="#c4ab94" d="M 1454.5,1423.5 C 1455.45,1424.92 1455.78,1426.59 1455.5,1428.5C 1456.5,1428.5 1457.5,1428.5 1458.5,1428.5C 1457.43,1429.43 1456.1,1429.77 1454.5,1429.5C 1454.5,1427.5 1454.5,1425.5 1454.5,1423.5 Z"/></g>
<g><path style="opacity:1" fill="#c1a68d" d="M 974.5,1435.5 C 975.434,1436.57 975.768,1437.9 975.5,1439.5C 969.31,1439.82 963.31,1439.49 957.5,1438.5C 963.167,1438.5 968.833,1438.5 974.5,1438.5C 974.5,1437.5 974.5,1436.5 974.5,1435.5 Z"/></g>
<g><path style="opacity:1" fill="#fefefe" d="M 940.5,1728.5 C 940.5,1729.83 940.5,1731.17 940.5,1732.5C 938.5,1732.5 936.5,1732.5 934.5,1732.5C 780.281,1729.48 639.948,1684.31 513.5,1597C 500.696,1588.02 488.363,1578.52 476.5,1568.5C 561.971,1553.25 647.637,1539.09 733.5,1526C 792.552,1517.75 851.886,1513.25 911.5,1512.5C 921.166,1584.5 930.833,1656.5 940.5,1728.5 Z"/></g>
<g><path style="opacity:1" fill="#fefdfd" d="M 941.5,1512.5 C 941.832,1553.67 941.499,1594.67 940.5,1635.5C 935.166,1594.5 929.833,1553.5 924.5,1512.5C 930.167,1512.5 935.833,1512.5 941.5,1512.5 Z"/></g>
<g><path style="opacity:1" fill="#b7997d" d="M 941.5,1512.5 C 942.665,1555.66 942.831,1599 942,1642.5C 941.338,1640.19 940.838,1637.85 940.5,1635.5C 941.499,1594.67 941.832,1553.67 941.5,1512.5 Z"/></g>
<g><path style="opacity:1" fill="#9c7651" d="M 955.5,1512.5 C 955.168,1554.34 955.501,1596 956.5,1637.5C 956.702,1639.99 956.202,1642.32 955,1644.5C 954.169,1600.33 954.335,1556.33 955.5,1512.5 Z"/></g>
<g><path style="opacity:1" fill="#fdfcfb" d="M 955.5,1512.5 C 961.5,1512.5 967.5,1512.5 973.5,1512.5C 967.469,1554.12 961.802,1595.78 956.5,1637.5C 955.501,1596 955.168,1554.34 955.5,1512.5 Z"/></g>
<g><path style="opacity:1" fill="#b89a7f" d="M 1554.5,1511.5 C 1551.27,1512.24 1547.94,1512.9 1544.5,1513.5C 1547.34,1511.6 1550.67,1510.93 1554.5,1511.5 Z"/></g>
<g><path style="opacity:1" fill="#fefefe" d="M 996.5,1514.5 C 1044.69,1516.94 1092.69,1521.44 1140.5,1528C 1232.4,1541.87 1324.06,1556.37 1415.5,1571.5C 1285.42,1671.97 1137.76,1725.64 972.5,1732.5C 966.789,1732.49 961.456,1731.83 956.5,1730.5C 965.886,1659.46 975.553,1588.46 985.5,1517.5C 986.404,1516.79 986.737,1515.79 986.5,1514.5C 989.833,1514.5 993.167,1514.5 996.5,1514.5 Z"/></g>
<g><path style="opacity:1" fill="#c8b099" d="M 996.5,1514.5 C 993.167,1514.5 989.833,1514.5 986.5,1514.5C 986.737,1515.79 986.404,1516.79 985.5,1517.5C 985.5,1516.17 985.5,1514.83 985.5,1513.5C 989.371,1513.19 993.038,1513.52 996.5,1514.5 Z"/></g>
<g><path style="opacity:1" fill="#996837" d="M 476.5,1568.5 C 488.363,1578.52 500.696,1588.02 513.5,1597C 639.948,1684.31 780.281,1729.48 934.5,1732.5C 936.607,1733.47 938.941,1733.8 941.5,1733.5C 946.167,1733.5 950.833,1733.5 955.5,1733.5C 955.263,1732.21 955.596,1731.21 956.5,1730.5C 961.456,1731.83 966.789,1732.49 972.5,1732.5C 1137.76,1725.64 1285.42,1671.97 1415.5,1571.5C 1422.3,1572.51 1428.97,1573.51 1435.5,1574.5C 1433.8,1574.34 1432.13,1574.51 1430.5,1575C 1288.58,1687.98 1126.41,1744.82 944,1745.5C 761.645,1743.56 600.145,1685.56 459.5,1571.5C 465.077,1570.18 470.743,1569.18 476.5,1568.5 Z"/></g>
<g><path style="opacity:1" fill="#fdfcfb" d="M 459.5,1571.5 C 600.145,1685.56 761.645,1743.56 944,1745.5C 1126.41,1744.82 1288.58,1687.98 1430.5,1575C 1432.13,1574.51 1433.8,1574.34 1435.5,1574.5C 1440.59,1574.82 1445.59,1575.66 1450.5,1577C 1325.29,1680.45 1181.29,1740.11 1018.5,1756C 801.198,1772.3 608.865,1711.63 441.5,1574C 447.525,1573.27 453.525,1572.44 459.5,1571.5 Z"/></g>
<g><path style="opacity:1" fill="#b7997d" d="M 370.5,1584.5 C 371.568,1583.57 372.901,1583.23 374.5,1583.5C 374.829,1596.68 374.495,1609.68 373.5,1622.5C 373.5,1622.17 373.5,1621.83 373.5,1621.5C 373.5,1609.17 373.5,1596.83 373.5,1584.5C 372.5,1584.5 371.5,1584.5 370.5,1584.5 Z"/></g>
<g><path style="opacity:1" fill="#d7c6b4" d="M 26.5,1620.5 C 141.999,1621.5 257.665,1621.83 373.5,1621.5C 373.5,1621.83 373.5,1622.17 373.5,1622.5C 257.498,1622.83 141.498,1622.5 25.5,1621.5C 25.6236,1620.89 25.9569,1620.56 26.5,1620.5 Z"/></g>
<g><path style="opacity:1" fill="#d7c5b4" d="M 1866.5,1620.5 C 1867.04,1620.56 1867.38,1620.89 1867.5,1621.5C 1751.33,1622.83 1635.33,1622.83 1519.5,1621.5C 1635.33,1621.83 1751,1621.5 1866.5,1620.5 Z"/></g>
<g><path style="opacity:1" fill="#c8ac91" d="M 940.5,1728.5 C 941.451,1729.92 941.784,1731.59 941.5,1733.5C 938.941,1733.8 936.607,1733.47 934.5,1732.5C 936.5,1732.5 938.5,1732.5 940.5,1732.5C 940.5,1731.17 940.5,1729.83 940.5,1728.5 Z"/></g>
</svg>
