<?xml version="1.0" encoding="UTF-8"?>
<!DOCTYPE svg PUBLIC "-//W3C//DTD SVG 1.1//EN" "http://www.w3.org/Graphics/SVG/1.1/DTD/svg11.dtd">
<svg xmlns="http://www.w3.org/2000/svg" version="1.1" width="1717px" height="1663px" style="shape-rendering:geometricPrecision; text-rendering:geometricPrecision; image-rendering:optimizeQuality; fill-rule:evenodd; clip-rule:evenodd" xmlns:xlink="http://www.w3.org/1999/xlink">
<g><path style="opacity:0.977" fill="#020101" d="M 871.5,76.5 C 877.282,76.5533 882.615,78.0533 887.5,81C 962.283,154.374 1045.62,216.041 1137.5,266C 1250.18,328.009 1368.52,376.343 1492.5,411C 1501.85,415.533 1506.19,423.033 1505.5,433.5C 1485.49,602.584 1458.65,770.584 1425,937.5C 1382.39,1106.3 1298.56,1250.47 1173.5,1370C 1135.93,1405.59 1096.59,1438.92 1055.5,1470C 997.965,1511.6 940.965,1553.94 884.5,1597C 877.172,1600.33 869.839,1600.33 862.5,1597C 849.167,1586.33 835.833,1575.67 822.5,1565C 751.213,1513.85 681.546,1460.51 613.5,1405C 542.235,1345.09 481.068,1276.59 430,1199.5C 380.567,1121.94 346.567,1037.94 328,947.5C 296.274,779.143 268.44,610.143 244.5,440.5C 243.963,431.07 247.629,423.903 255.5,419C 429.365,367.393 590.031,289.727 737.5,186C 781.556,152.959 823.556,117.293 863.5,79C 866.31,78.2177 868.977,77.3844 871.5,76.5 Z"/></g>
<g><path style="opacity:1" fill="#f6f0e8" d="M 872.5,97.5 C 953.654,174.811 1043.65,239.978 1142.5,293C 1251.34,351.668 1365.34,397.501 1484.5,430.5C 1464.39,599.839 1437.56,768.173 1404,935.5C 1362.59,1096.22 1282.76,1234.05 1164.5,1349C 1133.68,1378.49 1101.68,1406.49 1068.5,1433C 1003.86,1481.99 938.857,1530.49 873.5,1578.5C 858.644,1566.48 843.644,1554.64 828.5,1543C 761.88,1495.52 696.88,1445.85 633.5,1394C 581.562,1349.73 534.062,1301.23 491,1248.5C 421.555,1160.26 374.555,1060.92 350,950.5C 317.942,780.154 289.776,609.154 265.5,437.5C 444.446,384.854 609.113,304.354 759.5,196C 797.598,167.249 833.931,136.249 868.5,103C 870.464,101.549 871.797,99.7157 872.5,97.5 Z"/></g>
<g><path style="opacity:1" fill="#ed5b4a" d="M 787.5,426.5 C 757.27,450.264 736.437,480.598 725,517.5C 720.025,533.321 720.359,548.988 726,564.5C 727.029,567.875 729.196,569.042 732.5,568C 744.779,541.419 760.779,517.419 780.5,496C 783.022,494.659 785.689,493.826 788.5,493.5C 788.5,498.833 788.5,504.167 788.5,509.5C 775.068,523.031 766.901,539.364 764,558.5C 760.838,583.845 762.504,608.845 769,633.5C 770.667,636.167 772.333,636.167 774,633.5C 776.713,619.947 781.546,607.28 788.5,595.5C 788.5,605.833 788.5,616.167 788.5,626.5C 788.5,682.167 788.5,737.833 788.5,793.5C 787.752,795.332 786.752,796.999 785.5,798.5C 785.167,798.5 784.833,798.5 784.5,798.5C 689.642,752.656 604.808,692.656 530,618.5C 529.833,743.334 529.333,868.001 528.5,992.5C 528.5,867.167 528.5,741.833 528.5,616.5C 528.167,531.831 528.5,447.164 529.5,362.5C 620.957,319.238 706.623,267.238 786.5,206.5C 787.5,279.83 787.833,353.164 787.5,426.5 Z"/></g>
<g><path style="opacity:1" fill="#141312" d="M 1131.5,647.5 C 1130.85,647.804 1130.18,648.137 1129.5,648.5C 1128.83,646.5 1128.17,644.5 1127.5,642.5C 1126.89,642.624 1126.56,642.957 1126.5,643.5C 1126.44,644.609 1126.11,645.609 1125.5,646.5C 1124.21,646.737 1123.21,646.404 1122.5,645.5C 1123.5,642.833 1124.5,640.167 1125.5,637.5C 1126.83,636.5 1128.17,635.5 1129.5,634.5C 1130.32,636.969 1130.82,639.635 1131,642.5C 1134.55,635.067 1136.72,627.234 1137.5,619C 1139.37,618.289 1140.87,618.789 1142,620.5C 1143.53,623.417 1144.86,626.417 1146,629.5C 1149.25,623.584 1150.25,617.251 1149,610.5C 1147.79,604.911 1145.62,599.744 1142.5,595C 1142.61,593.72 1143.28,592.887 1144.5,592.5C 1145.83,593.167 1147.17,593.833 1148.5,594.5C 1148.83,593.333 1149.17,592.167 1149.5,591C 1147.49,579.5 1144.49,568.334 1140.5,557.5C 1141.55,557.351 1142.55,557.517 1143.5,558C 1145.02,559.685 1146.68,561.185 1148.5,562.5C 1148.83,562.167 1149.17,561.833 1149.5,561.5C 1145.52,554.079 1142.02,546.412 1139,538.5C 1137.43,534.297 1136.6,529.964 1136.5,525.5C 1139.29,525.452 1141.13,526.785 1142,529.5C 1141.73,522.869 1141.56,516.203 1141.5,509.5C 1141.57,502.21 1143.07,495.21 1146,488.5C 1147.01,487.663 1148.18,487.33 1149.5,487.5C 1146.49,476.969 1143.99,466.302 1142,455.5C 1126.19,424.23 1102.36,416.064 1070.5,431C 1061.97,435.855 1054.31,441.855 1047.5,449C 1055.29,452.746 1058.12,458.912 1056,467.5C 1055.53,468.931 1054.7,470.097 1053.5,471C 1054.57,471.739 1055.24,472.739 1055.5,474C 1053.82,478.523 1051.49,482.689 1048.5,486.5C 1048.83,486.833 1049.17,487.167 1049.5,487.5C 1051.3,486.735 1053.13,486.068 1055,485.5C 1056.28,485.613 1057.11,486.28 1057.5,487.5C 1054.78,493.22 1053.95,499.22 1055,505.5C 1056.57,503.077 1058.74,501.744 1061.5,501.5C 1061.55,508.15 1062.55,514.65 1064.5,521C 1064.5,524.651 1063.5,527.984 1061.5,531C 1056.54,532.57 1051.87,534.737 1047.5,537.5C 1052.81,539.663 1058.31,540.996 1064,541.5C 1066.65,549.009 1067.15,556.675 1065.5,564.5C 1063.59,567.042 1063.25,566.708 1064.5,563.5C 1064.04,562.702 1063.38,562.369 1062.5,562.5C 1062.84,557.07 1062.34,551.736 1061,546.5C 1060.25,545.874 1059.42,545.374 1058.5,545C 1048.4,544.08 1038.4,544.58 1028.5,546.5C 1024.02,545.953 1019.35,545.953 1014.5,546.5C 1025.57,544.049 1036.9,542.549 1048.5,542C 1046.5,541.167 1044.5,540.333 1042.5,539.5C 1045.95,534.603 1050.62,531.436 1056.5,530C 1045.35,528.69 1039.68,522.523 1039.5,511.5C 1029.23,510.005 1025.06,504.005 1027,493.5C 1031.38,485.047 1038.21,479.547 1047.5,477C 1050.19,474.368 1049.86,472.034 1046.5,470C 1035.69,466.396 1025.02,462.396 1014.5,458C 1012.7,457.363 1011.36,456.197 1010.5,454.5C 1014.43,449.083 1019.77,445.917 1026.5,445C 1031.83,444.667 1037.17,444.333 1042.5,444C 1049.44,436.884 1057.11,430.718 1065.5,425.5C 1062.86,403.248 1067.36,382.582 1079,363.5C 1099.26,337.628 1125.76,327.461 1158.5,333C 1176.9,336.204 1193.23,343.704 1207.5,355.5C 1207.29,356.086 1206.96,356.586 1206.5,357C 1195.82,356.38 1186.16,359.047 1177.5,365C 1171.37,370.085 1168.71,376.585 1169.5,384.5C 1200.69,389.523 1224.52,405.523 1241,432.5C 1250.72,449.153 1254.56,467.153 1252.5,486.5C 1250.61,486.703 1249.11,486.037 1248,484.5C 1237.15,464.619 1220.65,453.119 1198.5,450C 1205.59,470.987 1200.92,488.987 1184.5,504C 1183.55,504.617 1182.72,504.451 1182,503.5C 1182.22,488.727 1178.56,475.06 1171,462.5C 1166.23,455.202 1161.23,454.868 1156,461.5C 1153.77,465.518 1151.94,469.685 1150.5,474C 1152.72,480.741 1154.72,487.574 1156.5,494.5C 1153.85,494.108 1151.35,494.108 1149,494.5C 1143.25,508.777 1143.08,523.11 1148.5,537.5C 1148.17,538.167 1147.83,538.833 1147.5,539.5C 1146.02,538.52 1144.69,537.353 1143.5,536C 1142.67,535.312 1142,535.479 1141.5,536.5C 1144.14,545.265 1147.48,553.765 1151.5,562C 1150.77,563.765 1149.43,564.932 1147.5,565.5C 1150.31,576.005 1152.15,586.672 1153,597.5C 1151.93,598.191 1150.77,598.691 1149.5,599C 1154.2,611.198 1153.2,622.865 1146.5,634C 1145.67,634.688 1145,634.521 1144.5,633.5C 1143.65,631.118 1142.32,629.118 1140.5,627.5C 1138.26,634.592 1135.26,641.259 1131.5,647.5 Z"/></g>
<g><path style="opacity:1" fill="#e55b42" d="M 1130.5,337.5 C 1154.77,334.585 1177.1,339.752 1197.5,353C 1179.83,353.042 1168,361.208 1162,377.5C 1161.33,381.5 1161.33,385.5 1162,389.5C 1194.31,394.647 1219.65,410.647 1238,437.5C 1246.19,450.721 1249.85,465.054 1249,480.5C 1236.82,458.666 1218.32,446.832 1193.5,445C 1193.04,445.414 1192.71,445.914 1192.5,446.5C 1199.62,462.163 1199.12,477.497 1191,492.5C 1189.39,494.731 1187.56,496.731 1185.5,498.5C 1185.08,484.14 1181.24,470.807 1174,458.5C 1170.12,453.139 1164.95,450.972 1158.5,452C 1154.28,454.717 1150.95,458.217 1148.5,462.5C 1139.24,427.037 1116.57,412.537 1080.5,419C 1078.39,419.557 1076.39,420.391 1074.5,421.5C 1069.03,377.034 1087.69,349.034 1130.5,337.5 Z"/></g>
<g><path style="opacity:1" fill="#0e0f0e" d="M 1014.5,546.5 C 1019.35,545.953 1024.02,545.953 1028.5,546.5C 1016.38,548.433 1004.38,550.766 992.5,553.5C 1007.5,571.567 1026.84,579.4 1050.5,577C 1061.82,575.394 1072.48,571.894 1082.5,566.5C 1084.1,559.41 1082.43,558.243 1077.5,563C 1072.24,565.141 1066.91,566.974 1061.5,568.5C 1061.33,566.379 1061.66,564.379 1062.5,562.5C 1063.38,562.369 1064.04,562.702 1064.5,563.5C 1063.25,566.708 1063.59,567.042 1065.5,564.5C 1071.57,562.603 1076.74,559.27 1081,554.5C 1081.49,553.207 1081.66,551.873 1081.5,550.5C 1082.82,550.33 1083.99,550.663 1085,551.5C 1088.31,564.653 1086.48,576.986 1079.5,588.5C 1087.81,589.665 1096.15,589.832 1104.5,589C 1110.89,585.033 1113.05,586.867 1111,594.5C 1107.82,606.032 1102.65,616.532 1095.5,626C 1104.91,625.586 1113.91,623.42 1122.5,619.5C 1126.13,623.769 1128.46,628.769 1129.5,634.5C 1128.17,635.5 1126.83,636.5 1125.5,637.5C 1125.09,633.346 1124.09,629.346 1122.5,625.5C 1111.98,628.005 1101.31,629.671 1090.5,630.5C 1095.61,620.702 1100.44,610.702 1105,600.5C 1108.18,593.748 1106.68,591.748 1100.5,594.5C 1092.62,593.605 1084.62,592.605 1076.5,591.5C 1078.04,586.083 1079.87,580.749 1082,575.5C 1082.67,573.167 1082.67,570.833 1082,568.5C 1056.1,584.432 1029.6,585.598 1002.5,572C 999.333,569.5 996.167,567 993,564.5C 992.333,567.167 992.333,569.833 993,572.5C 994.684,578.243 996.517,583.91 998.5,589.5C 998.43,590.772 998.097,591.938 997.5,593C 994.833,593.667 992.167,593.667 989.5,593C 980.419,591.069 971.752,588.402 963.5,585C 974.032,597.263 986.699,606.596 1001.5,613C 1002.86,614.938 1002.53,616.604 1000.5,618C 985.526,620.966 970.526,621.3 955.5,619C 962.356,625.575 969.69,631.408 977.5,636.5C 977.027,637.906 976.027,638.573 974.5,638.5C 964.094,632.276 954.761,624.609 946.5,615.5C 947.865,614.544 949.365,613.878 951,613.5C 963.491,615.684 975.991,615.85 988.5,614C 971.503,604.669 958.17,591.669 948.5,575C 949.138,571.707 951.138,570.707 954.5,572C 965.168,577.751 976.335,582.251 988,585.5C 988.5,585.167 989,584.833 989.5,584.5C 986.213,574.777 984.88,564.777 985.5,554.5C 974.634,555.137 963.8,556.137 953,557.5C 950.111,557.453 947.278,557.12 944.5,556.5C 942.267,556.864 940.434,557.864 939,559.5C 935.949,584.575 940.282,608.242 952,630.5C 955.267,636.593 959.434,641.926 964.5,646.5C 964.158,647.338 963.492,647.672 962.5,647.5C 958.078,643.413 954.411,638.746 951.5,633.5C 951.167,632.5 950.5,631.833 949.5,631.5C 940.315,614.773 935.481,596.773 935,577.5C 915.804,567.314 897.304,568.481 879.5,581C 875.957,584.582 873.29,588.749 871.5,593.5C 870.914,593.291 870.414,592.957 870,592.5C 871.4,576.534 877.567,562.701 888.5,551C 891.176,548.661 894.176,546.828 897.5,545.5C 893.526,544.459 889.859,545.293 886.5,548C 873.059,561.285 865.559,577.451 864,596.5C 862.506,597.747 861.006,597.747 859.5,596.5C 852.492,580.466 850.159,563.8 852.5,546.5C 850.04,546.699 847.707,547.365 845.5,548.5C 830.348,563.139 819.514,580.472 813,600.5C 811.254,611.677 812.754,622.344 817.5,632.5C 816.048,635.944 813.714,636.444 810.5,634C 803.394,628.974 798.894,622.141 797,613.5C 795.71,607.554 794.877,601.554 794.5,595.5C 794.813,592.753 794.48,590.086 793.5,587.5C 792.893,587.624 792.56,587.957 792.5,588.5C 791.167,590.833 789.833,593.167 788.5,595.5C 781.546,607.28 776.713,619.947 774,633.5C 772.333,636.167 770.667,636.167 769,633.5C 762.504,608.845 760.838,583.845 764,558.5C 766.901,539.364 775.068,523.031 788.5,509.5C 800.315,499.501 813.981,493.667 829.5,492C 832.792,488.862 836.458,486.362 840.5,484.5C 841.289,484.217 841.956,483.717 842.5,483C 836.984,482.183 831.65,482.349 826.5,483.5C 813.064,484.357 800.398,487.691 788.5,493.5C 785.689,493.826 783.022,494.659 780.5,496C 760.779,517.419 744.779,541.419 732.5,568C 729.196,569.042 727.029,567.875 726,564.5C 720.359,548.988 720.025,533.321 725,517.5C 736.437,480.598 757.27,450.264 787.5,426.5C 827.792,399.149 864.625,403.149 898,438.5C 915.457,461.077 928.457,486.077 937,513.5C 940.946,526.736 944.446,540.069 947.5,553.5C 953.842,553.666 960.175,553.5 966.5,553C 982.582,551.292 998.582,549.126 1014.5,546.5 Z"/></g>
<g><path style="opacity:1" fill="#058e5f" d="M 827.5,415.5 C 853.14,413.322 874.64,421.655 892,440.5C 915.333,469.816 930.999,502.816 939,539.5C 929.496,513.974 914.662,492.14 894.5,474C 866.31,453.338 836.643,451.004 805.5,467C 785.793,479.705 768.96,495.538 755,514.5C 746.173,527.33 738.173,540.663 731,554.5C 728.63,541.768 729.297,529.101 733,516.5C 746.426,474.085 772.593,442.251 811.5,421C 816.839,418.847 822.172,417.014 827.5,415.5 Z"/></g>
<g><path style="opacity:1" fill="#f5efe6" d="M 528.5,616.5 C 528.5,741.833 528.5,867.167 528.5,992.5C 481.167,992.5 433.833,992.5 386.5,992.5C 380.005,971.87 374.839,950.87 371,929.5C 341.977,773.195 316.144,616.361 293.5,459C 293.833,457.833 294.167,456.667 294.5,455.5C 324.16,446.225 353.493,436.058 382.5,425C 383.944,424.219 385.277,424.386 386.5,425.5C 424.642,495.978 471.975,559.645 528.5,616.5 Z"/></g>
<g><path style="opacity:1" fill="#dca81e" d="M 1141.5,509.5 C 1140.68,513.647 1140.18,517.981 1140,522.5C 1138.85,523.636 1137.69,524.636 1136.5,525.5C 1136.6,529.964 1137.43,534.297 1139,538.5C 1142.02,546.412 1145.52,554.079 1149.5,561.5C 1149.17,561.833 1148.83,562.167 1148.5,562.5C 1146.68,561.185 1145.02,559.685 1143.5,558C 1142.55,557.517 1141.55,557.351 1140.5,557.5C 1144.49,568.334 1147.49,579.5 1149.5,591C 1149.17,592.167 1148.83,593.333 1148.5,594.5C 1147.17,593.833 1145.83,593.167 1144.5,592.5C 1143.28,592.887 1142.61,593.72 1142.5,595C 1145.62,599.744 1147.79,604.911 1149,610.5C 1150.25,617.251 1149.25,623.584 1146,629.5C 1144.86,626.417 1143.53,623.417 1142,620.5C 1140.87,618.789 1139.37,618.289 1137.5,619C 1136.72,627.234 1134.55,635.067 1131,642.5C 1130.82,639.635 1130.32,636.969 1129.5,634.5C 1128.46,628.769 1126.13,623.769 1122.5,619.5C 1113.91,623.42 1104.91,625.586 1095.5,626C 1102.65,616.532 1107.82,606.032 1111,594.5C 1113.05,586.867 1110.89,585.033 1104.5,589C 1096.15,589.832 1087.81,589.665 1079.5,588.5C 1086.48,576.986 1088.31,564.653 1085,551.5C 1083.99,550.663 1082.82,550.33 1081.5,550.5C 1081.66,551.873 1081.49,553.207 1081,554.5C 1076.74,559.27 1071.57,562.603 1065.5,564.5C 1067.15,556.675 1066.65,549.009 1064,541.5C 1058.31,540.996 1052.81,539.663 1047.5,537.5C 1051.87,534.737 1056.54,532.57 1061.5,531C 1063.5,527.984 1064.5,524.651 1064.5,521C 1062.55,514.65 1061.55,508.15 1061.5,501.5C 1058.74,501.744 1056.57,503.077 1055,505.5C 1053.95,499.22 1054.78,493.22 1057.5,487.5C 1057.11,486.28 1056.28,485.613 1055,485.5C 1053.13,486.068 1051.3,486.735 1049.5,487.5C 1049.17,487.167 1048.83,486.833 1048.5,486.5C 1051.49,482.689 1053.82,478.523 1055.5,474C 1055.24,472.739 1054.57,471.739 1053.5,471C 1054.7,470.097 1055.53,468.931 1056,467.5C 1058.12,458.912 1055.29,452.746 1047.5,449C 1054.31,441.855 1061.97,435.855 1070.5,431C 1102.36,416.064 1126.19,424.23 1142,455.5C 1143.99,466.302 1146.49,476.969 1149.5,487.5C 1148.18,487.33 1147.01,487.663 1146,488.5C 1143.07,495.21 1141.57,502.21 1141.5,509.5 Z"/></g>
<g><path style="opacity:1" fill="#302c2c" d="M 1084.5,442.5 C 1092.15,442.314 1095.32,445.981 1094,453.5C 1088.83,459.092 1084.17,458.759 1080,452.5C 1079.08,448.017 1080.58,444.683 1084.5,442.5 Z"/></g>
<g><path style="opacity:1" fill="#ddc340" d="M 1022.5,451.5 C 1030.94,451.062 1039.28,451.562 1047.5,453C 1051.82,457.311 1053.32,462.477 1052,468.5C 1041.05,463.29 1029.88,458.456 1018.5,454C 1019.86,453.066 1021.19,452.232 1022.5,451.5 Z"/></g>
<g><path style="opacity:1" fill="#e25a41" d="M 834.5,463.5 C 853.96,461.281 871.627,465.781 887.5,477C 903.908,490.038 916.408,505.871 925,524.5C 894.528,486.341 855.362,472.841 807.5,484C 799.809,486.896 792.142,489.562 784.5,492C 798.417,477.564 815.083,468.064 834.5,463.5 Z"/></g>
<g><path style="opacity:1" fill="#868480" d="M 826.5,483.5 C 831.65,482.349 836.984,482.183 842.5,483C 841.956,483.717 841.289,484.217 840.5,484.5C 836.03,483.514 831.363,483.181 826.5,483.5 Z"/></g>
<g><path style="opacity:1" fill="#eee9e1" d="M 826.5,483.5 C 831.363,483.181 836.03,483.514 840.5,484.5C 836.458,486.362 832.792,488.862 829.5,492C 813.981,493.667 800.315,499.501 788.5,509.5C 788.5,504.167 788.5,498.833 788.5,493.5C 800.398,487.691 813.064,484.357 826.5,483.5 Z"/></g>
<g><path style="opacity:1" fill="#058e5f" d="M 848.5,483.5 C 867.438,485.471 884.105,492.638 898.5,505C 881.665,509.92 866.665,518.253 853.5,530C 834.76,545.719 820.26,564.552 810,586.5C 805.771,597.516 804.438,608.849 806,620.5C 801.11,609.251 798.943,597.418 799.5,585C 799.88,550.618 810.88,520.285 832.5,494C 837.468,489.851 842.802,486.351 848.5,483.5 Z"/></g>
<g><path style="opacity:1" fill="#e15a41" d="M 1045.5,482.5 C 1046.38,482.369 1047.04,482.702 1047.5,483.5C 1045.71,485.858 1044.71,488.525 1044.5,491.5C 1046.81,491.007 1049.14,490.674 1051.5,490.5C 1050.52,498.488 1051.86,505.988 1055.5,513C 1055.83,513.167 1056.17,513.333 1056.5,513.5C 1057.3,511.922 1057.8,510.256 1058,508.5C 1060.06,514.305 1060.89,520.305 1060.5,526.5C 1047.78,526.949 1042.28,520.949 1044,508.5C 1032.31,507.117 1028.98,501.117 1034,490.5C 1037.48,487.161 1041.32,484.494 1045.5,482.5 Z"/></g>
<g><path style="opacity:1" fill="#058d5f" d="M 822.5,496.5 C 823.552,496.351 824.552,496.517 825.5,497C 812.568,512.697 803.735,530.531 799,550.5C 796.901,560.429 795.234,570.429 794,580.5C 784.678,590.816 777.678,602.483 773,615.5C 767.261,588.761 768.595,562.427 777,536.5C 786.069,516.075 801.236,502.742 822.5,496.5 Z"/></g>
<g><path style="opacity:1" fill="#e25a41" d="M 904.5,510.5 C 909.078,514.575 913.578,518.908 918,523.5C 925.114,532.228 931.614,541.394 937.5,551C 928.972,546.582 919.972,542.916 910.5,540C 894.216,536.729 881.382,541.896 872,555.5C 867.359,563.759 863.692,572.425 861,581.5C 853.024,558.557 858.19,539.39 876.5,524C 885.693,518.793 895.026,514.293 904.5,510.5 Z"/></g>
<g><path style="opacity:1" fill="#9f7b19" d="M 1141.5,509.5 C 1141.56,516.203 1141.73,522.869 1142,529.5C 1141.13,526.785 1139.29,525.452 1136.5,525.5C 1137.69,524.636 1138.85,523.636 1140,522.5C 1140.18,517.981 1140.68,513.647 1141.5,509.5 Z"/></g>
<g><path style="opacity:1" fill="#f5efe7" d="M 949.5,631.5 C 930.541,640.421 914.374,653.087 901,669.5C 896,676.167 891,682.833 886,689.5C 884.932,684.95 883.098,680.783 880.5,677C 877.211,676.254 874.711,677.42 873,680.5C 860.239,697.089 851.905,715.756 848,736.5C 831.404,745.655 817.071,757.655 805,772.5C 799.951,778.71 795.117,785.043 790.5,791.5C 789.833,736.5 789.167,681.5 788.5,626.5C 788.5,616.167 788.5,605.833 788.5,595.5C 789.833,593.167 791.167,590.833 792.5,588.5C 793.167,590.833 793.833,593.167 794.5,595.5C 794.877,601.554 795.71,607.554 797,613.5C 798.894,622.141 803.394,628.974 810.5,634C 813.714,636.444 816.048,635.944 817.5,632.5C 812.754,622.344 811.254,611.677 813,600.5C 819.514,580.472 830.348,563.139 845.5,548.5C 847.707,547.365 850.04,546.699 852.5,546.5C 850.159,563.8 852.492,580.466 859.5,596.5C 861.006,597.747 862.506,597.747 864,596.5C 865.559,577.451 873.059,561.285 886.5,548C 889.859,545.293 893.526,544.459 897.5,545.5C 894.176,546.828 891.176,548.661 888.5,551C 877.567,562.701 871.4,576.534 870,592.5C 870.414,592.957 870.914,593.291 871.5,593.5C 873.29,588.749 875.957,584.582 879.5,581C 897.304,568.481 915.804,567.314 935,577.5C 935.481,596.773 940.315,614.773 949.5,631.5 Z"/></g>
<g><path style="opacity:1" fill="#ba5222" d="M 1062.5,562.5 C 1061.66,564.379 1061.33,566.379 1061.5,568.5C 1066.91,566.974 1072.24,565.141 1077.5,563C 1082.43,558.243 1084.1,559.41 1082.5,566.5C 1072.48,571.894 1061.82,575.394 1050.5,577C 1026.84,579.4 1007.5,571.567 992.5,553.5C 1004.38,550.766 1016.38,548.433 1028.5,546.5C 1038.4,544.58 1048.4,544.08 1058.5,545C 1059.42,545.374 1060.25,545.874 1061,546.5C 1062.34,551.736 1062.84,557.07 1062.5,562.5 Z"/></g>
<g><path style="opacity:1" fill="#e15a41" d="M 904.5,547.5 C 914.163,551.991 921.83,558.824 927.5,568C 908.624,561.814 891.791,565.314 877,578.5C 879.61,562.388 888.777,552.055 904.5,547.5 Z"/></g>
<g><path style="opacity:1" fill="#058a5c" d="M 934.5,555.5 C 934.819,560.363 934.486,565.03 933.5,569.5C 927.759,559.59 920.092,551.423 910.5,545C 919.331,546.663 927.331,550.163 934.5,555.5 Z"/></g>
<g><path style="opacity:1" fill="#b95222" d="M 974.5,638.5 C 971.905,642.126 968.572,644.792 964.5,646.5C 959.434,641.926 955.267,636.593 952,630.5C 940.282,608.242 935.949,584.575 939,559.5C 940.434,557.864 942.267,556.864 944.5,556.5C 947.278,557.12 950.111,557.453 953,557.5C 963.8,556.137 974.634,555.137 985.5,554.5C 984.88,564.777 986.213,574.777 989.5,584.5C 989,584.833 988.5,585.167 988,585.5C 976.335,582.251 965.168,577.751 954.5,572C 951.138,570.707 949.138,571.707 948.5,575C 958.17,591.669 971.503,604.669 988.5,614C 975.991,615.85 963.491,615.684 951,613.5C 949.365,613.878 947.865,614.544 946.5,615.5C 954.761,624.609 964.094,632.276 974.5,638.5 Z"/></g>
<g><path style="opacity:1" fill="#074430" d="M 934.5,555.5 C 935.814,560.348 935.814,565.348 934.5,570.5C 933.893,570.376 933.56,570.043 933.5,569.5C 934.486,565.03 934.819,560.363 934.5,555.5 Z"/></g>
<g><path style="opacity:1" fill="#058e5f" d="M 1100.5,594.5 C 1093.11,604.066 1085.11,613.232 1076.5,622C 1067.84,629.997 1058.17,636.497 1047.5,641.5C 1046.9,641.265 1046.57,640.765 1046.5,640C 1047.28,637.61 1048.44,635.443 1050,633.5C 1054.49,629.692 1058.99,626.026 1063.5,622.5C 1063.39,621.558 1063.06,620.725 1062.5,620C 1040.63,615.425 1019.3,617.092 998.5,625C 991.478,628.844 984.478,632.677 977.5,636.5C 969.69,631.408 962.356,625.575 955.5,619C 970.526,621.3 985.526,620.966 1000.5,618C 1002.53,616.604 1002.86,614.938 1001.5,613C 986.699,606.596 974.032,597.263 963.5,585C 971.752,588.402 980.419,591.069 989.5,593C 992.167,593.667 994.833,593.667 997.5,593C 998.097,591.938 998.43,590.772 998.5,589.5C 996.517,583.91 994.684,578.243 993,572.5C 992.333,569.833 992.333,567.167 993,564.5C 996.167,567 999.333,569.5 1002.5,572C 1029.6,585.598 1056.1,584.432 1082,568.5C 1082.67,570.833 1082.67,573.167 1082,575.5C 1079.87,580.749 1078.04,586.083 1076.5,591.5C 1084.62,592.605 1092.62,593.605 1100.5,594.5 Z"/></g>
<g><path style="opacity:1" fill="#716f6c" d="M 792.5,588.5 C 792.56,587.957 792.893,587.624 793.5,587.5C 794.48,590.086 794.813,592.753 794.5,595.5C 793.833,593.167 793.167,590.833 792.5,588.5 Z"/></g>
<g><path style="opacity:1" fill="#ba5222" d="M 1125.5,637.5 C 1124.5,640.167 1123.5,642.833 1122.5,645.5C 1106.94,642.831 1091.27,641.998 1075.5,643C 1064.25,644.475 1053.58,647.642 1043.5,652.5C 1043.11,649.487 1043.77,646.82 1045.5,644.5C 1068.9,633.429 1087.24,616.763 1100.5,594.5C 1106.68,591.748 1108.18,593.748 1105,600.5C 1100.44,610.702 1095.61,620.702 1090.5,630.5C 1101.31,629.671 1111.98,628.005 1122.5,625.5C 1124.09,629.346 1125.09,633.346 1125.5,637.5 Z"/></g>
<g><path style="opacity:1" fill="#eb4c3b" d="M 784.5,798.5 C 767.517,825.12 750.017,851.453 732,877.5C 728.5,881 725,884.5 721.5,888C 708.286,882.303 695.786,875.136 684,866.5C 683.925,877.291 686.092,887.624 690.5,897.5C 675.821,898.512 661.155,899.679 646.5,901C 644.213,903.243 644.047,905.743 646,908.5C 661.43,940.791 674.097,974.125 684,1008.5C 685.387,1014.44 686.387,1020.44 687,1026.5C 691.584,1030.92 697.084,1033.42 703.5,1034C 743.833,1034.75 783.833,1031.42 823.5,1024C 842.989,1019.8 862.322,1015.97 881.5,1012.5C 876.239,1024.29 871.572,1036.29 867.5,1048.5C 867.57,1049.77 867.903,1050.94 868.5,1052C 912.953,1050.85 953.287,1037.52 989.5,1012C 1000.1,1013.16 1010.77,1014.16 1021.5,1015C 1067.61,1015.81 1113.61,1014.31 1159.5,1010.5C 1159.66,1013.72 1159.82,1017.05 1160,1020.5C 1160.83,1022 1162,1023.17 1163.5,1024C 1170.75,1025.56 1178.09,1025.89 1185.5,1025C 1216.48,1021.51 1247.15,1016.18 1277.5,1009C 1283.36,1007.83 1288.53,1005.33 1293,1001.5C 1293.5,998.518 1293.66,995.518 1293.5,992.5C 1295.17,992.5 1296.83,992.5 1298.5,992.5C 1299.49,999.648 1299.82,1006.98 1299.5,1014.5C 1303.64,1012.88 1307.14,1010.21 1310,1006.5C 1313.42,1001.98 1316.59,997.311 1319.5,992.5C 1323.5,992.5 1327.5,992.5 1331.5,992.5C 1333.92,995.656 1336.59,998.656 1339.5,1001.5C 1341.94,998.96 1343.6,995.96 1344.5,992.5C 1347.83,992.5 1351.17,992.5 1354.5,992.5C 1356.75,993.08 1358.42,994.413 1359.5,996.5C 1347.49,1030.52 1333.82,1063.85 1318.5,1096.5C 1172.4,1097.17 1026.4,1097.83 880.5,1098.5C 849.5,1098.5 818.5,1098.5 787.5,1098.5C 787.833,1226.33 787.5,1354 786.5,1481.5C 733.917,1442.77 682.583,1402.27 632.5,1360C 595.634,1327.47 561.134,1292.63 529,1255.5C 528.5,1202.83 528.333,1150.17 528.5,1097.5C 494.498,1097.67 460.498,1097.5 426.5,1097C 410.448,1064.01 397.448,1029.85 387.5,994.5C 434.5,993.833 481.5,993.167 528.5,992.5C 529.333,868.001 529.833,743.334 530,618.5C 604.808,692.656 689.642,752.656 784.5,798.5 Z"/></g>
<g><path style="opacity:1" fill="#322f2e" d="M 1047.5,641.5 C 1046.45,642.222 1045.78,643.222 1045.5,644.5C 1043.77,646.82 1043.11,649.487 1043.5,652.5C 1053.58,647.642 1064.25,644.475 1075.5,643C 1091.27,641.998 1106.94,642.831 1122.5,645.5C 1123.21,646.404 1124.21,646.737 1125.5,646.5C 1126.47,647.751 1127.14,647.418 1127.5,645.5C 1127.46,644.584 1127.12,643.917 1126.5,643.5C 1126.56,642.957 1126.89,642.624 1127.5,642.5C 1128.17,644.5 1128.83,646.5 1129.5,648.5C 1130.18,648.137 1130.85,647.804 1131.5,647.5C 1149.51,654.162 1167.17,661.995 1184.5,671C 1187.86,673.034 1188.19,675.368 1185.5,678C 1180.85,678.499 1176.18,678.666 1171.5,678.5C 1166.27,678.444 1161.27,679.111 1156.5,680.5C 1148.16,681.163 1140.16,682.997 1132.5,686C 1174.61,689.972 1209.45,707.805 1237,739.5C 1237.9,742.025 1237.4,744.192 1235.5,746C 1218.96,747.458 1202.63,750.124 1186.5,754C 1210.74,764.911 1231.58,780.411 1249,800.5C 1250.77,803.042 1252.27,805.709 1253.5,808.5C 1253.47,810.029 1252.8,811.196 1251.5,812C 1241.43,812.551 1231.43,812.218 1221.5,811C 1248.19,835.259 1268.86,863.759 1283.5,896.5C 1280.94,896.198 1278.61,896.532 1276.5,897.5C 1258.57,862.377 1234.41,832.043 1204,806.5C 1203.29,804.633 1203.79,803.133 1205.5,802C 1215.35,801.858 1225.18,802.358 1235,803.5C 1236.5,803.167 1238,802.833 1239.5,802.5C 1219.72,780.247 1195.55,764.58 1167,755.5C 1166.1,752.975 1166.6,750.808 1168.5,749C 1187.41,745.071 1206.41,741.571 1225.5,738.5C 1195.55,707.897 1159.05,692.564 1116,692.5C 1114.82,688.74 1115.99,685.907 1119.5,684C 1125.73,680.22 1132.39,677.553 1139.5,676C 1149.84,674.5 1160.18,673 1170.5,671.5C 1144.74,657.143 1117.08,649.476 1087.5,648.5C 1071.38,648.114 1056.38,651.947 1042.5,660C 1041.17,660.667 1039.83,660.667 1038.5,660C 1036.46,645.47 1041.12,633.47 1052.5,624C 1021.47,619.588 994.138,627.588 970.5,648C 962.292,656.375 953.959,664.542 945.5,672.5C 943.971,672.471 942.804,671.804 942,670.5C 941.061,667.236 940.561,663.903 940.5,660.5C 941.248,652.539 942.748,644.873 945,637.5C 932.868,644.621 922.201,653.621 913,664.5C 904.222,675.279 896.222,686.612 889,698.5C 891.188,712.363 892.688,726.363 893.5,740.5C 893.278,749.223 892.444,757.89 891,766.5C 891.306,744.424 888.64,722.758 883,701.5C 881.65,696.613 879.817,691.946 877.5,687.5C 870.085,697.108 864.585,707.775 861,719.5C 859.204,726.812 857.538,734.145 856,741.5C 847.738,746.045 839.905,751.212 832.5,757C 818.174,770.816 805.174,785.649 793.5,801.5C 793.167,801.5 792.833,801.5 792.5,801.5C 790.046,800.773 787.713,799.773 785.5,798.5C 786.752,796.999 787.752,795.332 788.5,793.5C 789.5,793.167 790.167,792.5 790.5,791.5C 795.117,785.043 799.951,778.71 805,772.5C 817.071,757.655 831.404,745.655 848,736.5C 851.905,715.756 860.239,697.089 873,680.5C 874.711,677.42 877.211,676.254 880.5,677C 883.098,680.783 884.932,684.95 886,689.5C 891,682.833 896,676.167 901,669.5C 914.374,653.087 930.541,640.421 949.5,631.5C 950.5,631.833 951.167,632.5 951.5,633.5C 946.06,644.133 944.06,655.466 945.5,667.5C 951.318,661.181 957.318,655.014 963.5,649C 962.944,648.617 962.611,648.117 962.5,647.5C 963.492,647.672 964.158,647.338 964.5,646.5C 968.572,644.792 971.905,642.126 974.5,638.5C 976.027,638.573 977.027,637.906 977.5,636.5C 984.478,632.677 991.478,628.844 998.5,625C 1019.3,617.092 1040.63,615.425 1062.5,620C 1063.06,620.725 1063.39,621.558 1063.5,622.5C 1058.99,626.026 1054.49,629.692 1050,633.5C 1048.44,635.443 1047.28,637.61 1046.5,640C 1046.57,640.765 1046.9,641.265 1047.5,641.5 Z"/></g>
<g><path style="opacity:1" fill="#a1733e" d="M 1276.5,897.5 C 1277.68,900.153 1278.51,902.819 1279,905.5C 1272.1,897.928 1264.6,891.095 1256.5,885C 1252.57,881.798 1248.24,880.964 1243.5,882.5C 1243.67,882.833 1243.83,883.167 1244,883.5C 1249.4,888.407 1254.9,893.073 1260.5,897.5C 1245.83,897.5 1231.17,897.5 1216.5,897.5C 1213.99,892.828 1210.33,889.328 1205.5,887C 1191.69,881.266 1178.69,882.599 1166.5,891C 1165.12,892.271 1164.12,893.771 1163.5,895.5C 1163.17,895.5 1162.83,895.5 1162.5,895.5C 1149.79,895.052 1137.12,894.052 1124.5,892.5C 1117.94,890.953 1111.27,890.286 1104.5,890.5C 1043.53,883.441 983.868,870.775 925.5,852.5C 928.503,847.378 928.17,842.545 924.5,838C 912.063,832.531 900.397,833.698 889.5,841.5C 889.167,841.5 888.833,841.5 888.5,841.5C 878.345,837.264 868.012,833.264 857.5,829.5C 835.708,821.272 814.375,811.939 793.5,801.5C 805.174,785.649 818.174,770.816 832.5,757C 839.905,751.212 847.738,746.045 856,741.5C 857.538,734.145 859.204,726.812 861,719.5C 864.585,707.775 870.085,697.108 877.5,687.5C 879.817,691.946 881.65,696.613 883,701.5C 888.64,722.758 891.306,744.424 891,766.5C 892.444,757.89 893.278,749.223 893.5,740.5C 892.688,726.363 891.188,712.363 889,698.5C 896.222,686.612 904.222,675.279 913,664.5C 922.201,653.621 932.868,644.621 945,637.5C 942.748,644.873 941.248,652.539 940.5,660.5C 940.561,663.903 941.061,667.236 942,670.5C 942.804,671.804 943.971,672.471 945.5,672.5C 953.959,664.542 962.292,656.375 970.5,648C 994.138,627.588 1021.47,619.588 1052.5,624C 1041.12,633.47 1036.46,645.47 1038.5,660C 1039.83,660.667 1041.17,660.667 1042.5,660C 1056.38,651.947 1071.38,648.114 1087.5,648.5C 1117.08,649.476 1144.74,657.143 1170.5,671.5C 1160.18,673 1149.84,674.5 1139.5,676C 1132.39,677.553 1125.73,680.22 1119.5,684C 1115.99,685.907 1114.82,688.74 1116,692.5C 1159.05,692.564 1195.55,707.897 1225.5,738.5C 1206.41,741.571 1187.41,745.071 1168.5,749C 1166.6,750.808 1166.1,752.975 1167,755.5C 1195.55,764.58 1219.72,780.247 1239.5,802.5C 1238,802.833 1236.5,803.167 1235,803.5C 1225.18,802.358 1215.35,801.858 1205.5,802C 1203.79,803.133 1203.29,804.633 1204,806.5C 1234.41,832.043 1258.57,862.377 1276.5,897.5 Z"/></g>
<g><path style="opacity:1" fill="#14110d" d="M 1100.5,594.5 C 1087.24,616.763 1068.9,633.429 1045.5,644.5C 1045.78,643.222 1046.45,642.222 1047.5,641.5C 1058.17,636.497 1067.84,629.997 1076.5,622C 1085.11,613.232 1093.11,604.066 1100.5,594.5 Z"/></g>
<g><path style="opacity:1" fill="#ede8e0" d="M 951.5,633.5 C 954.411,638.746 958.078,643.413 962.5,647.5C 962.611,648.117 962.944,648.617 963.5,649C 957.318,655.014 951.318,661.181 945.5,667.5C 944.06,655.466 946.06,644.133 951.5,633.5 Z"/></g>
<g><path style="opacity:1" fill="#cbc6c0" d="M 1126.5,643.5 C 1127.12,643.917 1127.46,644.584 1127.5,645.5C 1127.14,647.418 1126.47,647.751 1125.5,646.5C 1126.11,645.609 1126.44,644.609 1126.5,643.5 Z"/></g>
<g><path style="opacity:1" fill="#aaa5a1" d="M 1171.5,678.5 C 1166.73,679.889 1161.73,680.556 1156.5,680.5C 1161.27,679.111 1166.27,678.444 1171.5,678.5 Z"/></g>
<g><path style="opacity:1" fill="#342f2c" d="M 872.5,707.5 C 873.496,707.414 874.329,707.748 875,708.5C 877.852,721.102 878.186,733.769 876,746.5C 875.09,736.388 873.59,726.388 871.5,716.5C 867.159,723.179 863.325,730.179 860,737.5C 861.527,726.422 865.694,716.422 872.5,707.5 Z"/></g>
<g><path style="opacity:1" fill="#302c2c" d="M 1098.5,710.5 C 1107.63,709.516 1116.3,711.016 1124.5,715C 1130.6,722.197 1129.6,728.197 1121.5,733C 1108.91,737.614 1097.74,735.447 1088,726.5C 1085.66,721.863 1086.49,717.863 1090.5,714.5C 1092.99,712.588 1095.66,711.254 1098.5,710.5 Z"/></g>
<g><path style="opacity:1" fill="#302c2c" d="M 1032.5,711.5 C 1040.57,711.137 1048.57,711.637 1056.5,713C 1064.96,717.291 1065.62,722.625 1058.5,729C 1047.26,734.788 1035.59,735.788 1023.5,732C 1016.01,727.092 1015.68,721.759 1022.5,716C 1025.89,714.38 1029.23,712.88 1032.5,711.5 Z"/></g>
<g><path style="opacity:1" fill="#62431d" d="M 1101.5,716.5 C 1106.98,716.364 1112.32,717.197 1117.5,719C 1121.11,720.08 1122.11,722.247 1120.5,725.5C 1113.7,728.78 1106.7,729.28 1099.5,727C 1091.37,722.062 1092.03,718.562 1101.5,716.5 Z"/></g>
<g><path style="opacity:1" fill="#62431d" d="M 1036.5,717.5 C 1043.54,716.908 1050.21,718.074 1056.5,721C 1052.85,724.334 1048.52,726.334 1043.5,727C 1037.76,727.789 1032.1,727.456 1026.5,726C 1025.64,725.311 1024.98,724.478 1024.5,723.5C 1028.11,720.531 1032.11,718.531 1036.5,717.5 Z"/></g>
<g><path style="opacity:1" fill="#302c2b" d="M 955.5,732.5 C 964.35,730.914 971.85,733.248 978,739.5C 980.124,749.428 976.624,756.928 967.5,762C 956.579,768.929 945.245,769.929 933.5,765C 928.128,758.102 928.294,751.269 934,744.5C 940.287,738.777 947.453,734.777 955.5,732.5 Z"/></g>
<g><path style="opacity:1" fill="#64441d" d="M 954.5,739.5 C 959.959,739.103 965.292,739.603 970.5,741C 972.988,743.627 973.155,746.46 971,749.5C 962.257,759.637 951.423,763.137 938.5,760C 936.009,757.032 935.843,753.865 938,750.5C 942.654,745.433 948.154,741.766 954.5,739.5 Z"/></g>
<g><path style="opacity:1" fill="#f2bdb3" d="M 788.5,626.5 C 789.167,681.5 789.833,736.5 790.5,791.5C 790.167,792.5 789.5,793.167 788.5,793.5C 788.5,737.833 788.5,682.167 788.5,626.5 Z"/></g>
<g><path style="opacity:1" fill="#312d2c" d="M 882.5,770.5 C 888.533,769.965 894.199,771.132 899.5,774C 904.203,778.388 904.703,783.222 901,788.5C 892.715,797.442 882.548,801.275 870.5,800C 859.168,793.485 858.501,785.818 868.5,777C 872.913,774.036 877.58,771.869 882.5,770.5 Z"/></g>
<g><path style="opacity:1" fill="#63441d" d="M 882.5,777.5 C 886.637,777.146 890.637,777.646 894.5,779C 897.006,781.549 896.84,784.049 894,786.5C 886.684,792.372 878.518,794.205 869.5,792C 868.424,790.274 868.257,788.441 869,786.5C 872.826,782.348 877.326,779.348 882.5,777.5 Z"/></g>
<g><path style="opacity:1" fill="#312d2c" d="M 1110.5,782.5 C 1121.38,780.63 1130.88,783.296 1139,790.5C 1143.34,800.864 1140.17,808.031 1129.5,812C 1119.15,815.026 1109.48,813.693 1100.5,808C 1093.83,801.333 1093.83,794.667 1100.5,788C 1103.77,785.87 1107.1,784.037 1110.5,782.5 Z"/></g>
<g><path style="opacity:1" fill="#63441d" d="M 1110.5,789.5 C 1115.84,789.334 1121.18,789.501 1126.5,790C 1137.15,795.282 1137.15,800.616 1126.5,806C 1121.17,806.667 1115.83,806.667 1110.5,806C 1099.89,800.407 1099.89,794.907 1110.5,789.5 Z"/></g>
<g><path style="opacity:1" fill="#302c2b" d="M 1169.5,788.5 C 1183.12,787.034 1189.29,793.034 1188,806.5C 1184.17,814.122 1178,816.955 1169.5,815C 1160.26,810.61 1157.76,803.777 1162,794.5C 1164.11,791.879 1166.61,789.879 1169.5,788.5 Z"/></g>
<g><path style="opacity:1" fill="#63441d" d="M 1170.5,795.5 C 1181.39,794.85 1184.06,799.017 1178.5,808C 1174.76,808.929 1171.26,808.429 1168,806.5C 1165.58,802.078 1166.42,798.411 1170.5,795.5 Z"/></g>
<g><path style="opacity:1" fill="#302c2c" d="M 1054.5,794.5 C 1061.36,793.965 1068.03,794.798 1074.5,797C 1081.09,802.205 1081.09,807.538 1074.5,813C 1065.12,818.074 1055.46,818.741 1045.5,815C 1038.85,809.764 1038.85,804.43 1045.5,799C 1048.65,797.576 1051.65,796.076 1054.5,794.5 Z"/></g>
<g><path style="opacity:1" fill="#63441d" d="M 1056.5,801.5 C 1060.18,801.335 1063.85,801.501 1067.5,802C 1072.82,802.912 1073.49,804.912 1069.5,808C 1063.69,810.318 1057.69,810.984 1051.5,810C 1049.78,809.477 1048.44,808.477 1047.5,807C 1049.95,804.117 1052.95,802.284 1056.5,801.5 Z"/></g>
<g><path style="opacity:1" fill="#97652f" d="M 792.5,801.5 C 792.833,801.5 793.167,801.5 793.5,801.5C 814.375,811.939 835.708,821.272 857.5,829.5C 868.012,833.264 878.345,837.264 888.5,841.5C 881.244,848.941 881.911,855.441 890.5,861C 902.808,863.907 913.808,861.407 923.5,853.5C 924.167,853.167 924.833,852.833 925.5,852.5C 983.868,870.775 1043.53,883.441 1104.5,890.5C 1100.81,892.438 1097.31,894.771 1094,897.5C 1089.52,906.395 1091.69,913.228 1100.5,918C 1112.45,922.611 1122.95,920.444 1132,911.5C 1135.41,902.767 1132.91,896.434 1124.5,892.5C 1137.12,894.052 1149.79,895.052 1162.5,895.5C 1160.04,903.081 1162.04,909.248 1168.5,914C 1183.03,921.577 1197.36,921.243 1211.5,913C 1216.01,908.884 1217.67,904.051 1216.5,898.5C 1216.5,898.167 1216.5,897.833 1216.5,897.5C 1231.17,897.5 1245.83,897.5 1260.5,897.5C 1269.48,903.161 1277.48,909.994 1284.5,918C 1326.76,932.262 1354.93,960.429 1369,1002.5C 1362.3,992.239 1353.47,984.405 1342.5,979C 1341.21,978.51 1339.87,978.343 1338.5,978.5C 1339.16,981.825 1339.83,985.158 1340.5,988.5C 1340.41,990.923 1339.91,993.256 1339,995.5C 1334.84,989.172 1329.34,984.505 1322.5,981.5C 1321.83,981.833 1321.17,982.167 1320.5,982.5C 1316.76,992.317 1311.26,1000.98 1304,1008.5C 1305.81,994.829 1304.47,981.496 1300,968.5C 1295.19,959.023 1287.86,952.357 1278,948.5C 1277.27,945.136 1276.44,941.803 1275.5,938.5C 1274.44,945.173 1274.61,951.839 1276,958.5C 1278.46,968.449 1280.79,978.449 1283,988.5C 1283.67,991.167 1283.67,993.833 1283,996.5C 1252.1,1007.85 1220.27,1015.35 1187.5,1019C 1180.12,1019.8 1172.78,1019.63 1165.5,1018.5C 1164.36,1016.58 1164.19,1014.58 1165,1012.5C 1174.41,999.042 1186.24,988.209 1200.5,980C 1201.7,979.346 1201.7,978.846 1200.5,978.5C 1185.66,985.178 1173,994.678 1162.5,1007C 1114.47,1009.24 1066.47,1008.58 1018.5,1005C 1007.95,1004.07 997.615,1002.41 987.5,1000C 961.15,1018.17 932.484,1031.51 901.5,1040C 893.589,1041.82 885.589,1042.99 877.5,1043.5C 886.74,1013.67 898.24,984.674 912,956.5C 915.062,950.77 918.896,945.603 923.5,941C 921.117,941.446 918.95,942.612 917,944.5C 903.204,964.758 892.037,986.424 883.5,1009.5C 834.872,1013.74 786.206,1017.57 737.5,1021C 725.798,1021.8 714.132,1021.47 702.5,1020C 700.939,1019.68 699.772,1018.85 699,1017.5C 693.656,992.468 685.323,968.468 674,945.5C 667.771,932.708 661.271,920.041 654.5,907.5C 666.714,904.352 679.048,902.185 691.5,901C 703.975,927.101 723.641,945.767 750.5,957C 775.217,966.842 800.884,971.175 827.5,970C 842.071,957.973 848.238,942.473 846,923.5C 802.269,922.857 761.435,911.524 723.5,889.5C 732.859,881.308 741.359,872.308 749,862.5C 764.01,842.46 778.51,822.127 792.5,801.5 Z"/></g>
<g><path style="opacity:1" fill="#302c2b" d="M 988.5,810.5 C 994.762,809.872 1000.76,810.705 1006.5,813C 1010.43,816.793 1010.43,820.626 1006.5,824.5C 996.348,833.307 984.681,836.141 971.5,833C 967.293,829.93 966.46,826.097 969,821.5C 974.606,816.117 981.106,812.45 988.5,810.5 Z"/></g>
<g><path style="opacity:1" fill="#63441d" d="M 989.5,817.5 C 993.182,817.335 996.848,817.501 1000.5,818C 1001.83,819 1001.83,820 1000.5,821C 992.5,825.72 983.833,827.887 974.5,827.5C 974.921,825.09 976.254,823.257 978.5,822C 982.157,820.178 985.824,818.678 989.5,817.5 Z"/></g>
<g><path style="opacity:1" fill="#231f1f" d="M 857.5,829.5 C 848.17,839.665 839.003,849.998 830,860.5C 823.636,867.199 816.969,873.532 810,879.5C 810.527,873.419 812.527,867.753 816,862.5C 823.939,848.561 835.105,838.061 849.5,831C 852.063,829.921 854.729,829.421 857.5,829.5 Z"/></g>
<g><path style="opacity:1" fill="#302c2b" d="M 925.5,852.5 C 924.833,852.833 924.167,853.167 923.5,853.5C 921.967,851.755 919.967,850.755 917.5,850.5C 918.908,849.089 919.908,847.423 920.5,845.5C 920.41,843.575 919.41,842.408 917.5,842C 910.508,840.805 903.842,841.639 897.5,844.5C 895.064,843.129 892.397,842.129 889.5,841.5C 900.397,833.698 912.063,832.531 924.5,838C 928.17,842.545 928.503,847.378 925.5,852.5 Z"/></g>
<g><path style="opacity:1" fill="#23201f" d="M 888.5,841.5 C 888.833,841.5 889.167,841.5 889.5,841.5C 892.397,842.129 895.064,843.129 897.5,844.5C 893.082,846.058 890.915,849.058 891,853.5C 895.64,855.438 900.473,855.938 905.5,855C 909.44,853.408 913.44,851.908 917.5,850.5C 919.967,850.755 921.967,851.755 923.5,853.5C 913.808,861.407 902.808,863.907 890.5,861C 881.911,855.441 881.244,848.941 888.5,841.5 Z"/></g>
<g><path style="opacity:1" fill="#593916" d="M 917.5,850.5 C 913.44,851.908 909.44,853.408 905.5,855C 900.473,855.938 895.64,855.438 891,853.5C 890.915,849.058 893.082,846.058 897.5,844.5C 903.842,841.639 910.508,840.805 917.5,842C 919.41,842.408 920.41,843.575 920.5,845.5C 919.908,847.423 918.908,849.089 917.5,850.5 Z"/></g>
<g><path style="opacity:1" fill="#262120" d="M 784.5,798.5 C 784.833,798.5 785.167,798.5 785.5,798.5C 787.713,799.773 790.046,800.773 792.5,801.5C 778.51,822.127 764.01,842.46 749,862.5C 741.359,872.308 732.859,881.308 723.5,889.5C 761.435,911.524 802.269,922.857 846,923.5C 848.238,942.473 842.071,957.973 827.5,970C 800.884,971.175 775.217,966.842 750.5,957C 723.641,945.767 703.975,927.101 691.5,901C 679.048,902.185 666.714,904.352 654.5,907.5C 661.271,920.041 667.771,932.708 674,945.5C 685.323,968.468 693.656,992.468 699,1017.5C 699.772,1018.85 700.939,1019.68 702.5,1020C 714.132,1021.47 725.798,1021.8 737.5,1021C 786.206,1017.57 834.872,1013.74 883.5,1009.5C 892.037,986.424 903.204,964.758 917,944.5C 918.95,942.612 921.117,941.446 923.5,941C 918.896,945.603 915.062,950.77 912,956.5C 898.24,984.674 886.74,1013.67 877.5,1043.5C 885.589,1042.99 893.589,1041.82 901.5,1040C 932.484,1031.51 961.15,1018.17 987.5,1000C 997.615,1002.41 1007.95,1004.07 1018.5,1005C 1066.47,1008.58 1114.47,1009.24 1162.5,1007C 1173,994.678 1185.66,985.178 1200.5,978.5C 1201.7,978.846 1201.7,979.346 1200.5,980C 1186.24,988.209 1174.41,999.042 1165,1012.5C 1164.19,1014.58 1164.36,1016.58 1165.5,1018.5C 1172.78,1019.63 1180.12,1019.8 1187.5,1019C 1220.27,1015.35 1252.1,1007.85 1283,996.5C 1283.67,993.833 1283.67,991.167 1283,988.5C 1280.79,978.449 1278.46,968.449 1276,958.5C 1274.61,951.839 1274.44,945.173 1275.5,938.5C 1276.44,941.803 1277.27,945.136 1278,948.5C 1287.86,952.357 1295.19,959.023 1300,968.5C 1304.47,981.496 1305.81,994.829 1304,1008.5C 1311.26,1000.98 1316.76,992.317 1320.5,982.5C 1321.17,982.167 1321.83,981.833 1322.5,981.5C 1329.34,984.505 1334.84,989.172 1339,995.5C 1339.91,993.256 1340.41,990.923 1340.5,988.5C 1339.83,985.158 1339.16,981.825 1338.5,978.5C 1339.87,978.343 1341.21,978.51 1342.5,979C 1353.47,984.405 1362.3,992.239 1369,1002.5C 1354.93,960.429 1326.76,932.262 1284.5,918C 1277.48,909.994 1269.48,903.161 1260.5,897.5C 1254.9,893.073 1249.4,888.407 1244,883.5C 1243.83,883.167 1243.67,882.833 1243.5,882.5C 1248.24,880.964 1252.57,881.798 1256.5,885C 1264.6,891.095 1272.1,897.928 1279,905.5C 1278.51,902.819 1277.68,900.153 1276.5,897.5C 1278.61,896.532 1280.94,896.198 1283.5,896.5C 1285.82,901.778 1288.15,907.111 1290.5,912.5C 1323.07,925.233 1347.23,947.233 1363,978.5C 1368.16,989.64 1372.32,1001.14 1375.5,1013C 1375.15,1014.26 1374.48,1014.59 1373.5,1014C 1369.73,1007.4 1365.06,1001.57 1359.5,996.5C 1358.42,994.413 1356.75,993.08 1354.5,992.5C 1351.83,989.839 1348.83,987.506 1345.5,985.5C 1344.53,987.743 1344.19,990.076 1344.5,992.5C 1343.6,995.96 1341.94,998.96 1339.5,1001.5C 1336.59,998.656 1333.92,995.656 1331.5,992.5C 1329.47,989.473 1326.8,987.14 1323.5,985.5C 1321.9,987.698 1320.57,990.031 1319.5,992.5C 1316.59,997.311 1313.42,1001.98 1310,1006.5C 1307.14,1010.21 1303.64,1012.88 1299.5,1014.5C 1299.82,1006.98 1299.49,999.648 1298.5,992.5C 1298.09,979.57 1293.09,968.903 1283.5,960.5C 1283.17,960.667 1282.83,960.833 1282.5,961C 1286.86,971.268 1290.52,981.768 1293.5,992.5C 1293.66,995.518 1293.5,998.518 1293,1001.5C 1288.53,1005.33 1283.36,1007.83 1277.5,1009C 1247.15,1016.18 1216.48,1021.51 1185.5,1025C 1178.09,1025.89 1170.75,1025.56 1163.5,1024C 1162,1023.17 1160.83,1022 1160,1020.5C 1159.82,1017.05 1159.66,1013.72 1159.5,1010.5C 1113.61,1014.31 1067.61,1015.81 1021.5,1015C 1010.77,1014.16 1000.1,1013.16 989.5,1012C 953.287,1037.52 912.953,1050.85 868.5,1052C 867.903,1050.94 867.57,1049.77 867.5,1048.5C 871.572,1036.29 876.239,1024.29 881.5,1012.5C 862.322,1015.97 842.989,1019.8 823.5,1024C 783.833,1031.42 743.833,1034.75 703.5,1034C 697.084,1033.42 691.584,1030.92 687,1026.5C 686.387,1020.44 685.387,1014.44 684,1008.5C 674.097,974.125 661.43,940.791 646,908.5C 644.047,905.743 644.213,903.243 646.5,901C 661.155,899.679 675.821,898.512 690.5,897.5C 686.092,887.624 683.925,877.291 684,866.5C 695.786,875.136 708.286,882.303 721.5,888C 725,884.5 728.5,881 732,877.5C 750.017,851.453 767.517,825.12 784.5,798.5 Z"/></g>
<g><path style="opacity:1" fill="#583815" d="M 1209.5,898.5 C 1211.33,902.492 1210.33,905.658 1206.5,908C 1195.66,913.579 1184.66,913.912 1173.5,909C 1168.26,905.713 1167.26,901.547 1170.5,896.5C 1181.25,889.43 1192.58,888.596 1204.5,894C 1206.66,895.059 1208.33,896.559 1209.5,898.5 Z"/></g>
<g><path style="opacity:1" fill="#24201f" d="M 1162.5,895.5 C 1162.83,895.5 1163.17,895.5 1163.5,895.5C 1166.06,895.198 1168.39,895.532 1170.5,896.5C 1167.26,901.547 1168.26,905.713 1173.5,909C 1184.66,913.912 1195.66,913.579 1206.5,908C 1210.33,905.658 1211.33,902.492 1209.5,898.5C 1211.73,897.244 1214.06,897.244 1216.5,898.5C 1217.67,904.051 1216.01,908.884 1211.5,913C 1197.36,921.243 1183.03,921.577 1168.5,914C 1162.04,909.248 1160.04,903.081 1162.5,895.5 Z"/></g>
<g><path style="opacity:1" fill="#231f1f" d="M 1104.5,890.5 C 1111.27,890.286 1117.94,890.953 1124.5,892.5C 1132.91,896.434 1135.41,902.767 1132,911.5C 1122.95,920.444 1112.45,922.611 1100.5,918C 1091.69,913.228 1089.52,906.395 1094,897.5C 1097.31,894.771 1100.81,892.438 1104.5,890.5 Z"/></g>
<g><path style="opacity:1" fill="#563513" d="M 1105.5,897.5 C 1111.71,897.016 1117.71,897.849 1123.5,900C 1126.83,902.679 1127.33,905.845 1125,909.5C 1116.14,915.16 1107.64,914.826 1099.5,908.5C 1098.48,906.568 1098.31,904.568 1099,902.5C 1100.97,900.45 1103.13,898.783 1105.5,897.5 Z"/></g>
<g><path style="opacity:1" fill="#231f1f" d="M 1040.5,890.5 C 1050.17,889.336 1059.17,891.169 1067.5,896C 1074.28,906.486 1071.61,913.82 1059.5,918C 1048.08,921.188 1037.41,919.688 1027.5,913.5C 1021.63,906.617 1022.3,900.451 1029.5,895C 1033.05,892.879 1036.72,891.379 1040.5,890.5 Z"/></g>
<g><path style="opacity:1" fill="#302c2b" d="M 1216.5,897.5 C 1216.5,897.833 1216.5,898.167 1216.5,898.5C 1214.06,897.244 1211.73,897.244 1209.5,898.5C 1208.33,896.559 1206.66,895.059 1204.5,894C 1192.58,888.596 1181.25,889.43 1170.5,896.5C 1168.39,895.532 1166.06,895.198 1163.5,895.5C 1164.12,893.771 1165.12,892.271 1166.5,891C 1178.69,882.599 1191.69,881.266 1205.5,887C 1210.33,889.328 1213.99,892.828 1216.5,897.5 Z"/></g>
<g><path style="opacity:1" fill="#fcfcfc" d="M 805.5,960.5 C 800.402,959.043 795.069,958.376 789.5,958.5C 755.067,955.035 726.567,940.369 704,914.5C 693.767,900.71 687.434,885.377 685,868.5C 719.527,898.014 759.027,917.847 803.5,928C 814.744,930.029 826.077,930.862 837.5,930.5C 836.952,941.76 832.952,951.593 825.5,960C 818.842,960.5 812.175,960.666 805.5,960.5 Z"/></g>
<g><path style="opacity:1" fill="#563513" d="M 1039.5,897.5 C 1047.51,896.708 1055.18,897.875 1062.5,901C 1066.5,903.667 1066.5,906.333 1062.5,909C 1052.5,913.667 1042.5,913.667 1032.5,909C 1029.83,906.333 1029.83,903.667 1032.5,901C 1034.93,899.787 1037.26,898.621 1039.5,897.5 Z"/></g>
<g><path style="opacity:1" fill="#231f1f" d="M 879.5,902.5 C 885.176,902.334 890.843,902.501 896.5,903C 908.538,905.976 911.705,912.809 906,923.5C 894.306,931.682 882.14,932.515 869.5,926C 863.382,918.275 864.382,911.608 872.5,906C 874.925,904.787 877.259,903.621 879.5,902.5 Z"/></g>
<g><path style="opacity:1" fill="#23201f" d="M 958.5,903.5 C 966.681,902.549 974.347,904.049 981.5,908C 989.496,917.563 987.496,924.563 975.5,929C 965.76,931.975 956.76,930.642 948.5,925C 943.506,917.248 944.839,910.915 952.5,906C 954.723,905.434 956.723,904.6 958.5,903.5 Z"/></g>
<g><path style="opacity:1" fill="#553513" d="M 883.5,908.5 C 890.375,907.759 896.542,909.426 902,913.5C 902.667,914.833 902.667,916.167 902,917.5C 895.17,923.158 887.336,924.991 878.5,923C 873.743,921.931 871.909,919.098 873,914.5C 876.101,911.648 879.601,909.648 883.5,908.5 Z"/></g>
<g><path style="opacity:1" fill="#553513" d="M 958.5,910.5 C 963.179,910.334 967.845,910.501 972.5,911C 981.833,915 981.833,919 972.5,923C 965.682,924.402 959.348,923.402 953.5,920C 952.424,918.274 952.257,916.441 953,914.5C 955.015,913.303 956.849,911.97 958.5,910.5 Z"/></g>
<g><path style="opacity:1" fill="#a09e9e" d="M 789.5,958.5 C 795.069,958.376 800.402,959.043 805.5,960.5C 799.949,960.473 794.616,959.806 789.5,958.5 Z"/></g>
<g><path style="opacity:1" fill="#e9e2da" d="M 1298.5,992.5 C 1296.83,992.5 1295.17,992.5 1293.5,992.5C 1290.52,981.768 1286.86,971.268 1282.5,961C 1282.83,960.833 1283.17,960.667 1283.5,960.5C 1293.09,968.903 1298.09,979.57 1298.5,992.5 Z"/></g>
<g><path style="opacity:1" fill="#e6dfd7" d="M 1331.5,992.5 C 1327.5,992.5 1323.5,992.5 1319.5,992.5C 1320.57,990.031 1321.9,987.698 1323.5,985.5C 1326.8,987.14 1329.47,989.473 1331.5,992.5 Z"/></g>
<g><path style="opacity:1" fill="#e4ddd5" d="M 1354.5,992.5 C 1351.17,992.5 1347.83,992.5 1344.5,992.5C 1344.19,990.076 1344.53,987.743 1345.5,985.5C 1348.83,987.506 1351.83,989.839 1354.5,992.5 Z"/></g>
<g><path style="opacity:1" fill="#ed6252" d="M 386.5,992.5 C 433.833,992.5 481.167,992.5 528.5,992.5C 481.5,993.167 434.5,993.833 387.5,994.5C 386.662,994.158 386.328,993.492 386.5,992.5 Z"/></g>
<g><path style="opacity:1" fill="#f3b7ab" d="M 1318.5,1096.5 C 1318.67,1097.49 1318.34,1098.16 1317.5,1098.5C 1171.83,1098.5 1026.17,1098.5 880.5,1098.5C 1026.4,1097.83 1172.4,1097.17 1318.5,1096.5 Z"/></g>
<g><path style="opacity:1" fill="#f6eee5" d="M 880.5,1098.5 C 1026.17,1098.5 1171.83,1098.5 1317.5,1098.5C 1280.29,1173.19 1233.13,1240.86 1176,1301.5C 1125.39,1353.47 1071.22,1400.97 1013.5,1444C 966.658,1478.55 919.658,1512.55 872.5,1546C 844.267,1523.74 815.6,1502.24 786.5,1481.5C 787.5,1354 787.833,1226.33 787.5,1098.5C 818.5,1098.5 849.5,1098.5 880.5,1098.5 Z"/></g>
</svg>
