<?xml version="1.0" encoding="UTF-8"?>
<!DOCTYPE svg PUBLIC "-//W3C//DTD SVG 1.1//EN" "http://www.w3.org/Graphics/SVG/1.1/DTD/svg11.dtd">
<svg xmlns="http://www.w3.org/2000/svg" version="1.1" width="4955px" height="4962px" style="shape-rendering:geometricPrecision; text-rendering:geometricPrecision; image-rendering:optimizeQuality; fill-rule:evenodd; clip-rule:evenodd" xmlns:xlink="http://www.w3.org/1999/xlink">
<g><path style="opacity:0.99" fill="#000000" d="M 1819.5,2661.5 C 1782.62,2718.97 1752.46,2779.97 1729,2844.5C 1711.65,2908.23 1696.98,2972.56 1685,3037.5C 1683.97,3048.12 1685.14,3058.45 1688.5,3068.5C 1700.35,3051.47 1713.18,3035.14 1727,3019.5C 1747.65,2998.84 1769.48,2979.68 1792.5,2962C 1842.03,2925.72 1894.36,2893.72 1949.5,2866C 1950.75,2865.26 1951.75,2865.43 1952.5,2866.5C 1930.92,2936.66 1907.59,3006.16 1882.5,3075C 1845.73,3088.44 1808.73,3101.11 1771.5,3113C 1715.01,3122.6 1658.34,3131.1 1601.5,3138.5C 1600.83,3138.5 1600.17,3138.5 1599.5,3138.5C 1597.3,3112.45 1591.3,3087.45 1581.5,3063.5C 1579.29,3056.75 1576.29,3050.42 1572.5,3044.5C 1561.58,3022.24 1545.91,3003.9 1525.5,2989.5C 1525.17,2989.5 1524.83,2989.5 1524.5,2989.5C 1508.53,2977.68 1490.86,2969.35 1471.5,2964.5C 1464.09,2962.06 1456.42,2960.72 1448.5,2960.5C 1444.85,2959.83 1441.02,2959.5 1437,2959.5C 1430.93,2959.34 1425.09,2960.01 1419.5,2961.5C 1406.57,2963.22 1396.07,2969.22 1388,2979.5C 1371.47,3002.38 1367.97,3027.05 1377.5,3053.5C 1389.01,3086.55 1411.68,3099.05 1445.5,3091C 1453.07,3087.08 1459.07,3081.58 1463.5,3074.5C 1464.14,3072.67 1465.14,3072.33 1466.5,3073.5C 1469.31,3078.92 1471.31,3084.59 1472.5,3090.5C 1474.85,3102.61 1477.18,3114.61 1479.5,3126.5C 1479.5,3131.53 1479.84,3136.53 1480.5,3141.5C 1480.9,3150.71 1481.9,3159.71 1483.5,3168.5C 1484.98,3197.51 1486.65,3226.51 1488.5,3255.5C 1489.45,3271.05 1491.12,3286.38 1493.5,3301.5C 1493.5,3303.17 1493.5,3304.83 1493.5,3306.5C 1493.12,3310.49 1493.78,3314.16 1495.5,3317.5C 1495.63,3321.95 1496.3,3326.29 1497.5,3330.5C 1499.39,3341.47 1501.23,3352.47 1503,3363.5C 1503.28,3364.42 1503.78,3365.08 1504.5,3365.5C 1513.73,3416.29 1534.57,3461.62 1567,3501.5C 1572.49,3506.15 1576.99,3511.48 1580.5,3517.5C 1582.1,3530.53 1583.93,3543.53 1586,3556.5C 1586.39,3563.81 1586.56,3570.98 1586.5,3578C 1564.81,3767.49 1540.81,3956.16 1514.5,4144C 1514.96,4144.41 1515.29,4144.91 1515.5,4145.5C 1511.44,4173.34 1507.77,4200.67 1504.5,4227.5C 1474.14,4151.11 1446.31,4073.77 1421,3995.5C 1408.36,3956.21 1395.7,3916.88 1383,3877.5C 1372.19,3840.92 1361.69,3804.25 1351.5,3767.5C 1316.67,3764.7 1282.34,3758.87 1248.5,3750C 1167.75,3727.12 1092.08,3693.12 1021.5,3648C 996.292,3631.23 971.625,3613.73 947.5,3595.5C 928.005,3578.84 908.338,3562.34 888.5,3546C 870.466,3528.96 852.133,3512.3 833.5,3496C 807.303,3469.47 781.469,3442.64 756,3415.5C 749.241,3404.05 743.741,3392.05 739.5,3379.5C 785.772,3418.27 834.438,3453.77 885.5,3486C 938.997,3517.83 993.664,3547.5 1049.5,3575C 1084.71,3583.85 1119.71,3593.51 1154.5,3604C 1185.15,3610.73 1216.15,3613.73 1247.5,3613C 1266.34,3612.15 1285.01,3609.99 1303.5,3606.5C 1259.49,3465.97 1217.49,3326.64 1177.5,3188.5C 1176.17,3188.17 1174.83,3187.83 1173.5,3187.5C 1122.2,3192.4 1070.87,3196.9 1019.5,3201C 832.504,3215.44 645.504,3229.77 458.5,3244C 397.237,3248.4 335.904,3250.07 274.5,3249C 242.169,3247.53 210.836,3240.53 180.5,3228C 147.183,3202.52 115.516,3175.02 85.5,3145.5C 117.799,3133.57 150.466,3122.73 183.5,3113C 403.986,3051.17 623.986,2987.51 843.5,2922C 923.685,2899.45 1003.68,2877.45 1083.5,2856C 1085.65,2855.74 1087.32,2854.74 1088.5,2853C 1027.26,2619.52 964.426,2386.69 900,2154.5C 856.951,1990.64 815.284,1826.3 775,1661.5C 752.105,1572.25 728.772,1483.25 705,1394.5C 649.69,1456.12 599.357,1521.46 554,1590.5C 450.089,1767.54 383.422,1958.21 354,2162.5C 350.541,2190.3 347.374,2218.13 344.5,2246C 345.445,2252.5 345.945,2259 346,2265.5C 345.206,2262.53 344.539,2259.53 344,2256.5C 342.837,2258.29 342.17,2260.29 342,2262.5C 340.443,2276.96 339.61,2291.46 339.5,2306C 340.96,2340.13 342.793,2373.96 345,2407.5C 344.503,2443.35 345.003,2479.02 346.5,2514.5C 347.396,2579.02 354.896,2643.02 369,2706.5C 373.023,2753.38 378.357,2800.05 385,2846.5C 375.832,2832.84 367.165,2818.84 359,2804.5C 353.355,2793.23 348.688,2781.57 345,2769.5C 327.158,2708.91 310.491,2647.91 295,2586.5C 289.355,2560.63 284.355,2534.63 280,2508.5C 266.824,2419.32 257.157,2329.99 251,2240.5C 249.85,2218.57 249.35,2197.07 249.5,2176C 250.971,2127.97 253.304,2079.63 256.5,2031C 261.008,1941.78 273.842,1853.61 295,1766.5C 338.354,1602.51 405.021,1449.18 495,1306.5C 537.267,1243.53 583.767,1183.7 634.5,1127C 590.233,970.416 550.233,812.416 514.5,653C 512.106,637.336 509.272,621.503 506,605.5C 502.264,578.545 499.264,551.545 497,524.5C 527.435,453.962 561.768,385.629 600,319.5C 625.621,281.211 652.787,244.045 681.5,208C 682,207.833 682.5,207.667 683,207.5C 712.167,234.334 741,261.501 769.5,289C 787.141,304.638 804.808,320.305 822.5,336C 843.418,352.247 863.751,369.247 883.5,387C 924.374,419.433 968.374,446.767 1015.5,469C 1027.22,473.348 1038.88,477.681 1050.5,482C 1052.24,482.651 1053.9,482.485 1055.5,481.5C 1081.11,491.092 1106.94,499.759 1133,507.5C 1150.38,558.639 1164.71,610.639 1176,663.5C 1178.4,681.828 1180.73,700.162 1183,718.5C 1291.92,653.523 1409.09,610.689 1534.5,590C 1726.21,559.092 1916.87,564.425 2106.5,606C 2171.01,621.374 2234.67,639.374 2297.5,660C 2389.46,691.812 2478.46,730.478 2564.5,776C 2597.59,796.43 2630.92,816.43 2664.5,836C 2694.13,856.951 2723.8,877.951 2753.5,899C 2781.05,922.125 2809.05,944.791 2837.5,967C 2860.81,989.311 2884.48,1011.31 2908.5,1033C 2939,1064.83 2969.5,1096.67 3000,1128.5C 3024.62,1159.46 3049.62,1190.12 3075,1220.5C 3088.88,1241.4 3103.21,1262.06 3118,1282.5C 3140.54,1325.25 3162.88,1368.25 3185,1411.5C 3211.99,1472.82 3237.33,1534.82 3261,1597.5C 3286.65,1674.55 3304.82,1752.72 3315.5,1832C 3320.81,1886.06 3325.65,1940.89 3330,1996.5C 3328.31,2029.34 3327.14,2062.17 3326.5,2095C 3326.83,2095.33 3327.17,2095.67 3327.5,2096C 3325.42,2119.13 3323.59,2142.29 3322,2165.5C 3320.12,2145.62 3316.78,2125.95 3312,2106.5C 3298.16,2050.66 3282.5,1995.32 3265,1940.5C 3242.94,1878.96 3220.61,1817.96 3198,1757.5C 3185.18,1724.85 3171.51,1692.52 3157,1660.5C 3124.57,1607.3 3091.91,1554.3 3059,1501.5C 3039.74,1472.57 3020.07,1443.9 3000,1415.5C 2918.17,1325.33 2829.67,1242.5 2734.5,1167C 2696.74,1139.61 2657.74,1113.94 2617.5,1090C 2485.05,1026.61 2349.05,973.615 2209.5,931C 2121.82,906.259 2032.49,887.593 1941.5,875C 1849.51,862.905 1757.17,859.238 1664.5,864C 1642.45,865.559 1620.45,867.559 1598.5,870C 1569.27,875.039 1540.27,879.706 1511.5,884C 1407.75,905.005 1309.75,942.171 1217.5,995.5C 1224.97,1054.72 1232.8,1114.06 1241,1173.5C 1267.51,1345.57 1294.51,1517.57 1322,1689.5C 1337.8,1791.11 1353.13,1892.77 1368,1994.5C 1402.82,2247.7 1436.82,2501.03 1470,2754.5C 1586.46,2723.43 1702.96,2692.43 1819.5,2661.5 Z"/></g>
<g><path style="opacity:0.973" fill="#b82928" d="M 4229.5,878.5 C 4258.68,893.683 4284.51,913.349 4307,937.5C 4347.62,982.063 4374.62,1034.06 4388,1093.5C 4398.28,1143.62 4399.28,1193.95 4391,1244.5C 4379.33,1306.17 4359.67,1365.17 4332,1421.5C 4298.51,1485.84 4259.51,1546.5 4215,1603.5C 4158.64,1675.42 4097.81,1743.25 4032.5,1807C 3934.42,1899.4 3828.42,1981.74 3714.5,2054C 3730.81,2073.32 3744.31,2094.49 3755,2117.5C 3781.47,2181.61 3793.97,2248.61 3792.5,2318.5C 3793,2390.16 3780.17,2459.49 3754,2526.5C 3753.06,2534.33 3751.4,2541.99 3749,2549.5C 3729.54,2583.95 3708.87,2617.62 3687,2650.5C 3657.52,2710.82 3621.52,2766.82 3579,2818.5C 3547.2,2855.53 3512.87,2889.86 3476,2921.5C 3380.35,3029.81 3276.85,3129.98 3165.5,3222C 3116.02,3259.14 3067.69,3297.81 3020.5,3338C 2992.61,3358.77 2964.94,3379.77 2937.5,3401C 2898.03,3427.24 2859.03,3454.24 2820.5,3482C 2789.39,3503.07 2757.72,3523.4 2725.5,3543C 2675.11,3580.39 2624.45,3617.39 2573.5,3654C 2516.27,3692.23 2458.77,3730.06 2401,3767.5C 2400.33,3766.83 2400.33,3766.17 2401,3765.5C 2463.27,3705.23 2527.44,3647.06 2593.5,3591C 2618.17,3568.33 2642.83,3545.67 2667.5,3523C 2702.55,3494.95 2737.88,3467.29 2773.5,3440C 2796.53,3418.63 2819.87,3397.63 2843.5,3377C 2879.83,3342.34 2915.83,3307.34 2951.5,3272C 3036.61,3197.23 3118.28,3118.56 3196.5,3036C 3293.64,2946.53 3383.48,2850.36 3466,2747.5C 3507.99,2694.22 3544.99,2637.55 3577,2577.5C 3590.72,2548.4 3603.05,2518.73 3614,2488.5C 3625.46,2448.27 3632.63,2407.43 3635.5,2366C 3637.43,2357.5 3638.43,2348.83 3638.5,2340C 3636.05,2261.33 3613.22,2189.5 3570,2124.5C 3556.61,2107.11 3541.78,2090.94 3525.5,2076C 3532.1,2067.4 3539.43,2059.4 3547.5,2052C 3685.76,1939.9 3816.76,1820.06 3940.5,1692.5C 3997.75,1630.75 4052.25,1566.75 4104,1500.5C 4117.6,1479.64 4131.93,1459.31 4147,1439.5C 4155.75,1424.33 4164.75,1409.33 4174,1394.5C 4222.44,1310.13 4256.77,1220.8 4277,1126.5C 4283.93,1093.77 4286.76,1060.94 4285.5,1028C 4281.25,984.124 4266.42,944.29 4241,908.5C 4237.26,898.437 4233.42,888.437 4229.5,878.5 Z"/></g>
<g><path style="opacity:0.965" fill="#b82928" d="M 4528.5,1452.5 C 4529.12,1452.61 4529.62,1452.94 4530,1453.5C 4533.3,1470.22 4532.97,1486.89 4529,1503.5C 4518.54,1556.48 4504.54,1608.48 4487,1659.5C 4473.57,1692.04 4458.73,1724.04 4442.5,1755.5C 4427.66,1779.18 4412.83,1802.84 4398,1826.5C 4384.31,1844.18 4370.65,1861.85 4357,1879.5C 4336.91,1900.25 4316.41,1920.75 4295.5,1941C 4216.23,2009.98 4126.89,2061.98 4027.5,2097C 3987.46,2110.54 3946.13,2118.87 3903.5,2122C 3880.31,2123.59 3857.31,2122.26 3834.5,2118C 3811.65,2111.51 3802.49,2096.67 3807,2073.5C 3810.99,2065.17 3816.82,2058.34 3824.5,2053C 3839.24,2043.93 3854.24,2035.27 3869.5,2027C 3922.9,2001.3 3976.23,1975.63 4029.5,1950C 4076.67,1924.74 4122.01,1896.41 4165.5,1865C 4232.62,1810.9 4298.62,1755.23 4363.5,1698C 4414.38,1649.5 4457.21,1595 4492,1534.5C 4502.26,1514.65 4511.93,1494.65 4521,1474.5C 4523.02,1466.93 4525.52,1459.6 4528.5,1452.5 Z"/></g>
<g><path style="opacity:0.961" fill="#b82928" d="M 4593.5,1894.5 C 4594.5,1894.47 4595.16,1894.97 4595.5,1896C 4593.56,1903.25 4591.4,1910.41 4589,1917.5C 4572.92,1945.33 4556.59,1973 4540,2000.5C 4513.77,2040.95 4485.1,2079.62 4454,2116.5C 4423.7,2148.81 4391.53,2178.98 4357.5,2207C 4315.11,2240.4 4269.45,2268.4 4220.5,2291C 4142.97,2322.08 4062.64,2332.42 3979.5,2322C 3943.49,2316.49 3910.49,2303.49 3880.5,2283C 3866.66,2271.07 3863.82,2256.9 3872,2240.5C 3877.8,2233.51 3884.97,2228.34 3893.5,2225C 3901.78,2223.08 3910.11,2221.41 3918.5,2220C 3956.61,2215.79 3994.61,2210.79 4032.5,2205C 4058.22,2199.59 4083.89,2193.92 4109.5,2188C 4175.2,2168.85 4239.86,2146.18 4303.5,2120C 4369.92,2090.6 4431.25,2053.27 4487.5,2008C 4504.33,1992.5 4521.17,1977 4538,1961.5C 4549.57,1948.69 4560.9,1935.69 4572,1922.5C 4579,1913.01 4586.17,1903.67 4593.5,1894.5 Z"/></g>
<g><path style="opacity:0.992" fill="#b82929" d="M 3378.5,2341.5 C 3375.92,2342.98 3374.58,2345.32 3374.5,2348.5C 3365.12,2360.24 3355.95,2372.24 3347,2384.5C 3334.14,2398.03 3321.31,2411.53 3308.5,2425C 3286.98,2444.7 3263.64,2461.87 3238.5,2476.5C 3309.4,2557.85 3326.57,2649.52 3290,2751.5C 3270.07,2801.71 3243.74,2848.04 3211,2890.5C 3186.8,2921.37 3161.13,2951.04 3134,2979.5C 3095.59,3017.08 3055.75,3053.08 3014.5,3087.5C 2928.71,3154.75 2841.37,3220.08 2752.5,3283.5C 2721.36,3307.79 2690.03,3331.95 2658.5,3356C 2570.93,3413.03 2489.6,3478.2 2414.5,3551.5C 2382.05,3583.78 2350.88,3617.11 2321,3651.5C 2312.28,3661.88 2303.95,3672.55 2296,3683.5C 2276.24,3711.34 2256.24,3739.01 2236,3766.5C 2208.62,3809.61 2189.62,3856.28 2179,3906.5C 2176.79,3921.23 2177.13,3935.89 2180,3950.5C 2183.6,3961.56 2186.27,3972.56 2188,3983.5C 2196.38,4006.22 2211.88,4022.05 2234.5,4031C 2247.27,4037.05 2260.6,4041.39 2274.5,4044C 2291.05,4045.23 2307.72,4044.9 2324.5,4043C 2392.89,4034.26 2460.55,4020.59 2527.5,4002C 2562.09,3994.79 2596.75,3990.46 2631.5,3989C 2670.75,3988.87 2709.91,3988.03 2749,3986.5C 2775.71,3986.64 2803.05,3986.64 2831,3986.5C 2874.41,3988.16 2918.24,3990.66 2962.5,3994C 3015.78,4002.05 3069.28,4011.88 3123,4023.5C 3145.54,4026.23 3167.37,4032.06 3188.5,4041C 3273.58,4079.71 3346.08,4135.21 3406,4207.5C 3419.6,4226.35 3431.93,4246.02 3443,4266.5C 3453.13,4288.47 3458.97,4311.63 3460.5,4336C 3459.28,4377.41 3447.78,4415.58 3426,4450.5C 3427.03,4397.09 3408.2,4352.26 3369.5,4316C 3333.08,4285.12 3291.74,4263.12 3245.5,4250C 3204.92,4237.95 3163.25,4229.61 3120.5,4225C 3033.42,4216.9 2946.26,4216.4 2859,4223.5C 2744.13,4231.06 2630.97,4250.56 2519.5,4282C 2499.44,4288.8 2479.44,4295.8 2459.5,4303C 2428.34,4309.7 2397.34,4317.03 2366.5,4325C 2255.58,4346.96 2143.58,4356.62 2030.5,4354C 1970.68,4352.03 1912.01,4343.36 1854.5,4328C 1827.01,4320.16 1800.68,4309.16 1775.5,4295C 1686.71,4232.11 1638.71,4146.11 1631.5,4037C 1627.65,3947.23 1640.49,3859.73 1670,3774.5C 1738.47,3623.56 1827.14,3485.56 1936,3360.5C 2025.4,3258.93 2121.57,3164.27 2224.5,3076.5C 2285.26,3031.62 2343.93,2984.12 2400.5,2934C 2430.98,2906.52 2459.81,2877.36 2487,2846.5C 2492.25,2839.68 2497.25,2832.68 2502,2825.5C 2503.12,2814.48 2504.12,2803.48 2505,2792.5C 2501.05,2779.25 2494.05,2767.92 2484,2758.5C 2465.23,2808.42 2433.73,2848.08 2389.5,2877.5C 2346.93,2907.32 2299.93,2927.15 2248.5,2937C 2233.4,2939.22 2218.23,2940.72 2203,2941.5C 2194.65,2938.99 2186.48,2935.99 2178.5,2932.5C 2194.67,2928.75 2209.67,2922.25 2223.5,2913C 2242.95,2900.66 2260.45,2885.83 2276,2868.5C 2287.76,2855.75 2298.76,2842.42 2309,2828.5C 2322.8,2805.89 2336.3,2783.23 2349.5,2760.5C 2348.67,2760.17 2347.83,2759.83 2347,2759.5C 2208.37,2770.21 2076.87,2805.88 1952.5,2866.5C 1951.75,2865.43 1950.75,2865.26 1949.5,2866C 1894.36,2893.72 1842.03,2925.72 1792.5,2962C 1769.48,2979.68 1747.65,2998.84 1727,3019.5C 1713.18,3035.14 1700.35,3051.47 1688.5,3068.5C 1685.14,3058.45 1683.97,3048.12 1685,3037.5C 1696.98,2972.56 1711.65,2908.23 1729,2844.5C 1752.46,2779.97 1782.62,2718.97 1819.5,2661.5C 1820.44,2658.73 1821.6,2656.06 1823,2653.5C 1844.25,2621.91 1865.91,2590.58 1888,2559.5C 1908.9,2534.06 1929.56,2508.39 1950,2482.5C 1969.34,2460.66 1989.17,2439.33 2009.5,2418.5C 1938.37,2386.86 1891.87,2333.52 1870,2258.5C 1858.16,2212.91 1853.83,2166.58 1857,2119.5C 1858.85,2092.72 1861.51,2066.06 1865,2039.5C 1864.87,2068.52 1869.53,2096.86 1879,2124.5C 1888.19,2150.22 1900.53,2174.22 1916,2196.5C 1947.83,2240.6 1985,2279.76 2027.5,2314C 2049.67,2326.81 2073.67,2333.64 2099.5,2334.5C 2118.02,2319.48 2136.69,2304.64 2155.5,2290C 2083.8,2252.2 2041.3,2193.03 2028,2112.5C 2022.81,2070.25 2024.47,2028.25 2033,1986.5C 2036.68,1967.26 2041.18,1948.26 2046.5,1929.5C 2047.8,1930.09 2048.63,1931.09 2049,1932.5C 2056.46,1963.88 2066.13,1994.55 2078,2024.5C 2094.52,2061.87 2111.85,2098.87 2130,2135.5C 2141.79,2158.29 2157.62,2177.79 2177.5,2194C 2199.8,2208.14 2224.14,2216.64 2250.5,2219.5C 2277.72,2201.1 2305.06,2182.93 2332.5,2165C 2388.93,2130.28 2447.26,2098.95 2507.5,2071C 2530.62,2060.18 2554.28,2050.51 2578.5,2042C 2721.03,1997.63 2865.87,1970.13 3013,1959.5C 3013.41,1959.96 3013.91,1960.29 3014.5,1960.5C 3036.02,1959.73 3057.86,1958.73 3080,1957.5C 3088.77,1958.15 3097.61,1958.82 3106.5,1959.5C 3067.82,1977.39 3030.49,1997.56 2994.5,2020C 2966.51,2037.97 2940.84,2058.97 2917.5,2083C 2915.29,2084.04 2912.95,2084.71 2910.5,2085C 2831.96,2136.69 2763.63,2199.85 2705.5,2274.5C 2706.17,2274.83 2706.83,2275.17 2707.5,2275.5C 2719.23,2272.66 2730.9,2269.83 2742.5,2267C 2785.1,2253.26 2828.1,2240.26 2871.5,2228C 2902.57,2218.46 2931.9,2205.13 2959.5,2188C 2975.62,2174.88 2990.79,2160.71 3005,2145.5C 3012.02,2134.12 3019.52,2123.12 3027.5,2112.5C 3028.63,2114.07 3028.8,2115.74 3028,2117.5C 3021.59,2134.74 3015.59,2152.07 3010,2169.5C 3002.98,2188.91 2994.98,2207.91 2986,2226.5C 2979.26,2239.71 2971.59,2252.38 2963,2264.5C 2953.53,2275.91 2943.7,2287.07 2933.5,2298C 2984.26,2292.46 3034.93,2285.8 3085.5,2278C 3133.02,2267.32 3177.68,2249.99 3219.5,2226C 3230.15,2218.01 3241.15,2210.51 3252.5,2203.5C 3264.18,2192.66 3276.34,2182.33 3289,2172.5C 3252.3,2228.87 3209.46,2280.7 3160.5,2328C 3146.12,2340.05 3131.45,2351.71 3116.5,2363C 3140.84,2359.01 3165.17,2354.68 3189.5,2350C 3225,2347.43 3260,2341.77 3294.5,2333C 3310.62,2327.4 3326.62,2321.4 3342.5,2315C 3365.63,2302.94 3387.96,2289.61 3409.5,2275C 3411.13,2272.37 3413.13,2270.04 3415.5,2268C 3425,2259.68 3434.66,2251.51 3444.5,2243.5C 3444.83,2243.83 3445.17,2244.17 3445.5,2244.5C 3437.37,2257.32 3428.54,2269.65 3419,2281.5C 3405.74,2301.7 3392.24,2321.7 3378.5,2341.5 Z"/></g>
<g><path style="opacity:0.961" fill="#b82928" d="M 4590.5,2318.5 C 4591.59,2318.62 4592.25,2319.29 4592.5,2320.5C 4591.86,2321.97 4591.03,2323.3 4590,2324.5C 4571.8,2342.36 4553.97,2360.53 4536.5,2379C 4488.14,2424.72 4434.81,2463.38 4376.5,2495C 4321.65,2522.95 4264.65,2545.62 4205.5,2563C 4152.48,2575.45 4098.82,2579.78 4044.5,2576C 4000.55,2573.17 3960.22,2559.84 3923.5,2536C 3908.32,2524.82 3895.99,2511.16 3886.5,2495C 3882.28,2483.19 3881.61,2471.19 3884.5,2459C 3885.88,2456.6 3887.54,2454.44 3889.5,2452.5C 3894.61,2450.05 3899.94,2448.22 3905.5,2447C 3928.82,2445.91 3951.82,2448.24 3974.5,2454C 4028.34,2462.83 4082.34,2463.83 4136.5,2457C 4203.01,2451.55 4269.01,2442.55 4334.5,2430C 4375.54,2420.66 4415.87,2408.99 4455.5,2395C 4472.38,2387.39 4489.38,2380.06 4506.5,2373C 4523.2,2363.65 4539.87,2354.32 4556.5,2345C 4568.02,2336.3 4579.35,2327.47 4590.5,2318.5 Z"/></g>
<g><path style="opacity:0.122" fill="#030000" d="M 3378.5,2341.5 C 3378.11,2349.59 3377.11,2357.59 3375.5,2365.5C 3374.5,2359.87 3374.17,2354.21 3374.5,2348.5C 3374.58,2345.32 3375.92,2342.98 3378.5,2341.5 Z"/></g>
<g><path style="opacity:1" fill="#fefdfd" d="M 2393.5,2415.5 C 2392.11,2420.27 2391.44,2425.27 2391.5,2430.5C 2389.96,2437.02 2388.46,2443.69 2387,2450.5C 2364.09,2492.75 2331.25,2524.91 2288.5,2547C 2259.96,2559.46 2230.96,2570.62 2201.5,2580.5C 2194.6,2582.47 2187.93,2584.8 2181.5,2587.5C 2171.14,2591.4 2160.81,2595.06 2150.5,2598.5C 2134.23,2602.26 2118.56,2607.59 2103.5,2614.5C 2083.63,2621.76 2065.63,2632.1 2049.5,2645.5C 2044.31,2648.17 2039.81,2651.84 2036,2656.5C 2037.76,2649.28 2040.43,2642.28 2044,2635.5C 2075.57,2602.58 2110.07,2573.41 2147.5,2548C 2182.75,2526.81 2219.41,2508.14 2257.5,2492C 2296.17,2474.25 2332.51,2452.92 2366.5,2428C 2371.86,2422.3 2377.53,2416.97 2383.5,2412C 2386.48,2409.68 2389.81,2408.18 2393.5,2407.5C 2393.5,2410.17 2393.5,2412.83 2393.5,2415.5 Z"/></g>
<g><path style="opacity:1" fill="#cb5e5c" d="M 2393.5,2415.5 C 2393.56,2420.73 2392.89,2425.73 2391.5,2430.5C 2391.44,2425.27 2392.11,2420.27 2393.5,2415.5 Z"/></g>
<g><path style="opacity:1" fill="#c95653" d="M 2201.5,2580.5 C 2197.72,2582.67 2193.72,2584.67 2189.5,2586.5C 2186.91,2587.48 2184.25,2587.81 2181.5,2587.5C 2187.93,2584.8 2194.6,2582.47 2201.5,2580.5 Z"/></g>
<g><path style="opacity:1" fill="#c24441" d="M 2150.5,2598.5 C 2148.97,2600.52 2146.97,2602.02 2144.5,2603C 2139.29,2604.64 2133.95,2605.64 2128.5,2606C 2127.5,2607 2126.5,2608 2125.5,2609C 2118.32,2611.52 2110.98,2613.36 2103.5,2614.5C 2118.56,2607.59 2134.23,2602.26 2150.5,2598.5 Z"/></g>
<g><path style="opacity:1" fill="#c0403d" d="M 2103.5,2614.5 C 2100.06,2616.74 2096.72,2619.24 2093.5,2622C 2079.93,2627.78 2067.27,2635.12 2055.5,2644C 2053.65,2645.13 2051.65,2645.63 2049.5,2645.5C 2065.63,2632.1 2083.63,2621.76 2103.5,2614.5 Z"/></g>
<g><path style="opacity:0.964" fill="#b82928" d="M 3829.5,2638.5 C 3841.25,2638.23 3852.91,2639.07 3864.5,2641C 3878.46,2644.24 3892.12,2648.24 3905.5,2653C 3947.46,2671.48 3989.79,2689.14 4032.5,2706C 4060.43,2716.29 4088.43,2726.62 4116.5,2737C 4126.9,2739.75 4137.24,2742.75 4147.5,2746C 4218.46,2761.97 4290.46,2767.97 4363.5,2764C 4346.1,2773.7 4328.44,2783.04 4310.5,2792C 4272.21,2802.21 4233.88,2812.21 4195.5,2822C 4181.76,2825.1 4167.93,2827.27 4154,2828.5C 4142.81,2827.6 4131.48,2827.6 4120,2828.5C 4077.15,2827.73 4034.82,2823.06 3993,2814.5C 3958.28,2808.02 3924.45,2797.85 3891.5,2784C 3861.14,2765.97 3836.31,2742.14 3817,2712.5C 3811.27,2703.03 3806.6,2693.03 3803,2682.5C 3799.53,2660.14 3808.36,2645.47 3829.5,2638.5 Z"/></g>
<g><path style="opacity:1" fill="#b72828" d="M 1354.5,2802.5 C 1355.25,2804.1 1356.25,2805.6 1357.5,2807C 1364.24,2811.51 1370.4,2816.01 1376,2820.5C 1380.27,2825.73 1384.43,2831.06 1388.5,2836.5C 1389.77,2837.36 1391.1,2838.03 1392.5,2838.5C 1395,2841.36 1396.67,2844.69 1397.5,2848.5C 1400.63,2861.25 1402.63,2873.91 1403.5,2886.5C 1403.17,2903.95 1395.84,2917.45 1381.5,2927C 1374.27,2929.81 1366.94,2930.14 1359.5,2928C 1354.34,2925.64 1349.34,2923.14 1344.5,2920.5C 1342.87,2919.37 1341.37,2918.04 1340,2916.5C 1323.41,2891.56 1304.91,2868.06 1284.5,2846C 1263.6,2829.88 1240.26,2818.55 1214.5,2812C 1224.31,2804.87 1234.64,2798.54 1245.5,2793C 1277.07,2787.56 1308.4,2788.56 1339.5,2796C 1344.77,2797.7 1349.77,2799.86 1354.5,2802.5 Z"/></g>
<g><path style="opacity:1" fill="#a12323" d="M 1354.5,2802.5 C 1371.41,2810.08 1384.08,2822.08 1392.5,2838.5C 1391.1,2838.03 1389.77,2837.36 1388.5,2836.5C 1384.43,2831.06 1380.27,2825.73 1376,2820.5C 1370.4,2816.01 1364.24,2811.51 1357.5,2807C 1356.25,2805.6 1355.25,2804.1 1354.5,2802.5 Z"/></g>
<g><path style="opacity:0.955" fill="#b82928" d="M 3687.5,2824.5 C 3696.94,2823.12 3705.6,2824.95 3713.5,2830C 3718.5,2835.67 3723.5,2841.33 3728.5,2847C 3767.44,2877.14 3807.44,2905.8 3848.5,2933C 3885.6,2962.64 3925.43,2988.14 3968,3009.5C 3968.33,3009.17 3968.67,3008.83 3969,3008.5C 3980.2,3014.01 3991.7,3018.85 4003.5,3023C 4017.19,3026.51 4030.86,3030.17 4044.5,3034C 4056.57,3035.51 4068.57,3037.34 4080.5,3039.5C 4074.99,3041.06 4069.49,3041.39 4064,3040.5C 4032.74,3042.49 4001.41,3044.16 3970,3045.5C 3935.89,3045.8 3902.06,3042.96 3868.5,3037C 3855.4,3032.72 3842.07,3029.06 3828.5,3026C 3774.85,3007.41 3729.02,2976.91 3691,2934.5C 3685.67,2927.17 3680.33,2919.83 3675,2912.5C 3669.08,2900.75 3664.75,2888.42 3662,2875.5C 3659.86,2860.4 3663.19,2846.74 3672,2834.5C 3676.38,2829.78 3681.55,2826.45 3687.5,2824.5 Z"/></g>
<g><path style="opacity:1" fill="#a22424" d="M 1397.5,2848.5 C 1402.97,2859.06 1405.64,2870.4 1405.5,2882.5C 1406.8,2901.31 1400.13,2916.47 1385.5,2928C 1369.76,2936.03 1356.1,2933.53 1344.5,2920.5C 1349.34,2923.14 1354.34,2925.64 1359.5,2928C 1366.94,2930.14 1374.27,2929.81 1381.5,2927C 1395.84,2917.45 1403.17,2903.95 1403.5,2886.5C 1402.63,2873.91 1400.63,2861.25 1397.5,2848.5 Z"/></g>
<g><path style="opacity:0.01" fill="#000000" d="M 361.5,2904.5 C 360.475,2904.1 360.308,2903.44 361,2902.5C 361.464,2903.09 361.631,2903.76 361.5,2904.5 Z"/></g>
<g><path style="opacity:0.013" fill="#000000" d="M 361.5,2904.5 C 363.238,2906.12 363.738,2908.12 363,2910.5C 362.187,2908.56 361.687,2906.56 361.5,2904.5 Z"/></g>
<g><path style="opacity:1" fill="#771a1a" d="M 1448.5,2960.5 C 1438.81,2960.42 1429.15,2960.75 1419.5,2961.5C 1425.09,2960.01 1430.93,2959.34 1437,2959.5C 1441.02,2959.5 1444.85,2959.83 1448.5,2960.5 Z"/></g>
<g><path style="opacity:0.985" fill="#b82828" d="M 1448.5,2960.5 C 1456.42,2960.72 1464.09,2962.06 1471.5,2964.5C 1471.47,2965.5 1471.97,2966.16 1473,2966.5C 1488.36,2970.43 1502.53,2976.93 1515.5,2986C 1518.33,2987.66 1521.33,2988.83 1524.5,2989.5C 1524.83,2989.5 1525.17,2989.5 1525.5,2989.5C 1526.01,2991.85 1527.18,2993.85 1529,2995.5C 1545.14,3008.99 1558.48,3024.99 1569,3043.5C 1570.01,3044.34 1571.18,3044.67 1572.5,3044.5C 1576.29,3050.42 1579.29,3056.75 1581.5,3063.5C 1587.51,3087.53 1592.68,3111.86 1597,3136.5C 1597.42,3137.76 1598.25,3138.42 1599.5,3138.5C 1600.17,3138.5 1600.83,3138.5 1601.5,3138.5C 1608.04,3210.03 1614.54,3281.36 1621,3352.5C 1625.71,3393.08 1632.04,3433.42 1640,3473.5C 1644.69,3489.54 1651.02,3504.87 1659,3519.5C 1678.57,3547.04 1705.07,3563.54 1738.5,3569C 1736.88,3570.08 1735.05,3570.58 1733,3570.5C 1716.53,3568.64 1700.03,3567.14 1683.5,3566C 1643.92,3560.54 1609.58,3544.37 1580.5,3517.5C 1576.99,3511.48 1572.49,3506.15 1567,3501.5C 1534.57,3461.62 1513.73,3416.29 1504.5,3365.5C 1503.1,3357.95 1502.27,3350.28 1502,3342.5C 1500.26,3339.09 1499.26,3335.42 1499,3331.5C 1498.62,3330.94 1498.12,3330.61 1497.5,3330.5C 1496.3,3326.29 1495.63,3321.95 1495.5,3317.5C 1495.35,3313.61 1494.69,3309.95 1493.5,3306.5C 1493.5,3304.83 1493.5,3303.17 1493.5,3301.5C 1492.69,3293.26 1492.69,3285.09 1493.5,3277C 1492.54,3270.21 1491.54,3263.37 1490.5,3256.5C 1489.82,3256.14 1489.15,3255.8 1488.5,3255.5C 1486.65,3226.51 1484.98,3197.51 1483.5,3168.5C 1483.33,3160.48 1482.83,3152.48 1482,3144.5C 1481.77,3143.26 1481.27,3142.26 1480.5,3141.5C 1479.84,3136.53 1479.5,3131.53 1479.5,3126.5C 1479.27,3116.75 1478.1,3107.08 1476,3097.5C 1475.56,3094.6 1474.4,3092.27 1472.5,3090.5C 1471.31,3084.59 1469.31,3078.92 1466.5,3073.5C 1465.14,3072.33 1464.14,3072.67 1463.5,3074.5C 1458.42,3075.21 1454.42,3077.71 1451.5,3082C 1447.17,3084.55 1442.67,3086.72 1438,3088.5C 1430.57,3089.77 1423.24,3089.77 1416,3088.5C 1399.15,3083.03 1387.31,3071.7 1380.5,3054.5C 1379.68,3053.61 1378.68,3053.28 1377.5,3053.5C 1367.97,3027.05 1371.47,3002.38 1388,2979.5C 1396.07,2969.22 1406.57,2963.22 1419.5,2961.5C 1429.15,2960.75 1438.81,2960.42 1448.5,2960.5 Z"/></g>
<g><path style="opacity:1" fill="#511212" d="M 1213.5,2963.5 C 1218.15,2962.83 1222.99,2962.5 1228,2962.5C 1235.07,2962.3 1241.9,2962.97 1248.5,2964.5C 1237.19,2963.67 1225.85,2963.34 1214.5,2963.5C 1214.17,2963.5 1213.83,2963.5 1213.5,2963.5 Z"/></g>
<g><path style="opacity:1" fill="#7a1b1b" d="M 1213.5,2963.5 C 1213.83,2963.5 1214.17,2963.5 1214.5,2963.5C 1206.72,2965.46 1198.72,2966.8 1190.5,2967.5C 1197.87,2965.21 1205.54,2963.88 1213.5,2963.5 Z"/></g>
<g><path style="opacity:1" fill="#b82828" d="M 1305.5,3076.5 C 1302.1,3077.93 1298.43,3078.76 1294.5,3079C 1287.14,3079.83 1279.81,3079.66 1272.5,3078.5C 1267.56,3073.69 1261.9,3069.86 1255.5,3067C 1247.03,3063.72 1238.36,3061.05 1229.5,3059C 1217.22,3046.4 1202.22,3040.57 1184.5,3041.5C 1155.62,3042.57 1129.28,3051.24 1105.5,3067.5C 1105.85,3053.75 1109.19,3040.75 1115.5,3028.5C 1116.64,3028.09 1117.64,3027.43 1118.5,3026.5C 1136.56,2994.89 1163.22,2975.72 1198.5,2969C 1228.2,2963.37 1257.53,2966.03 1286.5,2977C 1305.83,2985 1320.33,2998.17 1330,3016.5C 1332,3021.82 1333.16,3027.32 1333.5,3033C 1334.4,3042.95 1331.56,3052.45 1325,3061.5C 1318.52,3066.64 1312.02,3071.64 1305.5,3076.5 Z"/></g>
<g><path style="opacity:1" fill="#a52424" d="M 1214.5,2963.5 C 1225.85,2963.34 1237.19,2963.67 1248.5,2964.5C 1279.05,2967.17 1304.88,2979.5 1326,3001.5C 1337.81,3016.85 1340.81,3033.85 1335,3052.5C 1329.19,3065.48 1319.35,3073.48 1305.5,3076.5C 1312.02,3071.64 1318.52,3066.64 1325,3061.5C 1331.56,3052.45 1334.4,3042.95 1333.5,3033C 1333.16,3027.32 1332,3021.82 1330,3016.5C 1320.33,2998.17 1305.83,2985 1286.5,2977C 1257.53,2966.03 1228.2,2963.37 1198.5,2969C 1163.22,2975.72 1136.56,2994.89 1118.5,3026.5C 1117.64,3027.43 1116.64,3028.09 1115.5,3028.5C 1125.93,3002.91 1143.93,2984.74 1169.5,2974C 1176.43,2971.35 1183.43,2969.19 1190.5,2967.5C 1198.72,2966.8 1206.72,2965.46 1214.5,2963.5 Z"/></g>
<g><path style="opacity:1" fill="#a52424" d="M 1471.5,2964.5 C 1490.86,2969.35 1508.53,2977.68 1524.5,2989.5C 1521.33,2988.83 1518.33,2987.66 1515.5,2986C 1502.53,2976.93 1488.36,2970.43 1473,2966.5C 1471.97,2966.16 1471.47,2965.5 1471.5,2964.5 Z"/></g>
<g><path style="opacity:0.952" fill="#b82928" d="M 3519.5,2988.5 C 3528.91,2987.19 3537.58,2989.03 3545.5,2994C 3555.1,3002.27 3563.27,3011.77 3570,3022.5C 3585.1,3040.93 3601.6,3058.1 3619.5,3074C 3641.79,3091.29 3663.79,3108.95 3685.5,3127C 3729.05,3155.59 3776.72,3173.93 3828.5,3182C 3846.67,3184.11 3864.84,3186.28 3883,3188.5C 3896.49,3187.42 3909.99,3187.25 3923.5,3188C 3869.7,3191.96 3816.04,3197.29 3762.5,3204C 3732.52,3206.6 3702.52,3206.93 3672.5,3205C 3625.83,3200.82 3586.49,3181.99 3554.5,3148.5C 3525.99,3119.5 3506.83,3085.17 3497,3045.5C 3496.33,3035.17 3496.33,3024.83 3497,3014.5C 3499.79,3001.56 3507.29,2992.89 3519.5,2988.5 Z"/></g>
<g><path style="opacity:1" fill="#a02323" d="M 1525.5,2989.5 C 1545.91,3003.9 1561.58,3022.24 1572.5,3044.5C 1571.18,3044.67 1570.01,3044.34 1569,3043.5C 1558.48,3024.99 1545.14,3008.99 1529,2995.5C 1527.18,2993.85 1526.01,2991.85 1525.5,2989.5 Z"/></g>
<g><path style="opacity:1" fill="#a22424" d="M 1377.5,3053.5 C 1378.68,3053.28 1379.68,3053.61 1380.5,3054.5C 1387.31,3071.7 1399.15,3083.03 1416,3088.5C 1423.24,3089.77 1430.57,3089.77 1438,3088.5C 1442.67,3086.72 1447.17,3084.55 1451.5,3082C 1454.42,3077.71 1458.42,3075.21 1463.5,3074.5C 1459.07,3081.58 1453.07,3087.08 1445.5,3091C 1411.68,3099.05 1389.01,3086.55 1377.5,3053.5 Z"/></g>
<g><path style="opacity:1" fill="#992222" d="M 1581.5,3063.5 C 1591.3,3087.45 1597.3,3112.45 1599.5,3138.5C 1598.25,3138.42 1597.42,3137.76 1597,3136.5C 1592.68,3111.86 1587.51,3087.53 1581.5,3063.5 Z"/></g>
<g><path style="opacity:1" fill="#9a2222" d="M 1472.5,3090.5 C 1474.4,3092.27 1475.56,3094.6 1476,3097.5C 1478.1,3107.08 1479.27,3116.75 1479.5,3126.5C 1477.18,3114.61 1474.85,3102.61 1472.5,3090.5 Z"/></g>
<g><path style="opacity:1" fill="#6c1818" d="M 1362.5,3114.5 C 1353.48,3114.45 1344.48,3114.78 1335.5,3115.5C 1340.76,3114.02 1346.26,3113.36 1352,3113.5C 1355.68,3113.5 1359.18,3113.83 1362.5,3114.5 Z"/></g>
<g><path style="opacity:1" fill="#a42424" d="M 1362.5,3114.5 C 1368.67,3114.79 1374.34,3116.46 1379.5,3119.5C 1376,3119.39 1372.67,3118.56 1369.5,3117C 1360.5,3116.33 1351.5,3116.33 1342.5,3117C 1333.83,3118.62 1325.16,3120.12 1316.5,3121.5C 1322.37,3118.32 1328.7,3116.32 1335.5,3115.5C 1344.48,3114.78 1353.48,3114.45 1362.5,3114.5 Z"/></g>
<g><path style="opacity:1" fill="#b72828" d="M 1379.5,3119.5 C 1379.83,3119.5 1380.17,3119.5 1380.5,3119.5C 1385.12,3124.46 1389.79,3129.46 1394.5,3134.5C 1401.13,3148.62 1399.13,3161.29 1388.5,3172.5C 1387.57,3173.69 1387.24,3175.02 1387.5,3176.5C 1375.55,3185.81 1363.22,3194.65 1350.5,3203C 1338.2,3213.09 1327.37,3224.59 1318,3237.5C 1308.67,3251.5 1299.33,3265.5 1290,3279.5C 1284.16,3290.36 1279.49,3301.69 1276,3313.5C 1273.99,3327.74 1275.82,3341.41 1281.5,3354.5C 1281.71,3356.18 1281.05,3357.18 1279.5,3357.5C 1256.84,3343.65 1241.34,3323.98 1233,3298.5C 1230.84,3289.89 1229.01,3281.22 1227.5,3272.5C 1227.5,3269.83 1227.5,3267.17 1227.5,3264.5C 1227.33,3254.83 1227.5,3245.16 1228,3235.5C 1232.15,3221.57 1235.98,3207.57 1239.5,3193.5C 1244.12,3181.23 1251.12,3170.56 1260.5,3161.5C 1268.1,3156.9 1274.43,3150.9 1279.5,3143.5C 1283.36,3139.48 1287.69,3135.98 1292.5,3133C 1300.13,3128.35 1308.13,3124.52 1316.5,3121.5C 1325.16,3120.12 1333.83,3118.62 1342.5,3117C 1351.5,3116.33 1360.5,3116.33 1369.5,3117C 1372.67,3118.56 1376,3119.39 1379.5,3119.5 Z"/></g>
<g><path style="opacity:1" fill="#a12323" d="M 1380.5,3119.5 C 1402.42,3130.76 1407.25,3147.09 1395,3168.5C 1392.72,3171.43 1390.22,3174.1 1387.5,3176.5C 1387.24,3175.02 1387.57,3173.69 1388.5,3172.5C 1399.13,3161.29 1401.13,3148.62 1394.5,3134.5C 1389.79,3129.46 1385.12,3124.46 1380.5,3119.5 Z"/></g>
<g><path style="opacity:1" fill="#922020" d="M 1480.5,3141.5 C 1481.27,3142.26 1481.77,3143.26 1482,3144.5C 1482.83,3152.48 1483.33,3160.48 1483.5,3168.5C 1481.9,3159.71 1480.9,3150.71 1480.5,3141.5 Z"/></g>
<g><path style="opacity:1" fill="#9d2222" d="M 1279.5,3143.5 C 1274.43,3150.9 1268.1,3156.9 1260.5,3161.5C 1265.54,3154.12 1271.88,3148.12 1279.5,3143.5 Z"/></g>
<g><path style="opacity:0.946" fill="#b82928" d="M 3380.5,3159.5 C 3387.84,3159.33 3395.17,3159.5 3402.5,3160C 3413.02,3164.76 3422.35,3171.26 3430.5,3179.5C 3471.45,3227.63 3518.12,3269.13 3570.5,3304C 3615.06,3329.47 3662.72,3343.64 3713.5,3346.5C 3677.24,3347.27 3640.9,3348.27 3604.5,3349.5C 3566.88,3349.93 3529.88,3345.43 3493.5,3336C 3454.85,3323.09 3423.35,3300.25 3399,3267.5C 3386.52,3249.54 3375.85,3230.54 3367,3210.5C 3364.57,3200.3 3363.9,3189.97 3365,3179.5C 3367.47,3170.56 3372.63,3163.89 3380.5,3159.5 Z"/></g>
<g><path style="opacity:0.961" fill="#b82928" d="M 3964.5,3211.5 C 3979.23,3208.44 3990.73,3213.11 3999,3225.5C 4005.56,3237.31 4008.39,3249.97 4007.5,3263.5C 4005.66,3293.18 3997.83,3321.18 3984,3347.5C 3965.09,3378.43 3943.42,3407.43 3919,3434.5C 3864.35,3493.51 3804.51,3546.34 3739.5,3593C 3712.38,3609.91 3685.21,3626.75 3658,3643.5C 3631.15,3656.8 3604.32,3670.3 3577.5,3684C 3555,3693.28 3532.67,3702.94 3510.5,3713C 3439.01,3738.27 3365.67,3755.94 3290.5,3766C 3278.56,3767.96 3266.56,3768.96 3254.5,3769C 3267.89,3763.09 3281.55,3757.76 3295.5,3753C 3310.75,3745.81 3326.08,3738.81 3341.5,3732C 3363.23,3719.96 3385.23,3708.3 3407.5,3697C 3469.99,3658.17 3529.99,3615.84 3587.5,3570C 3635.39,3531.56 3683.06,3492.9 3730.5,3454C 3782.85,3409.99 3833.02,3363.49 3881,3314.5C 3905.59,3287.32 3927.26,3257.99 3946,3226.5C 3951.17,3220.15 3957.34,3215.15 3964.5,3211.5 Z"/></g>
<g><path style="opacity:1" fill="#9d2323" d="M 1239.5,3193.5 C 1235.98,3207.57 1232.15,3221.57 1228,3235.5C 1227.5,3245.16 1227.33,3254.83 1227.5,3264.5C 1226.51,3257.69 1226.18,3250.69 1226.5,3243.5C 1226.52,3235.69 1227.52,3228.03 1229.5,3220.5C 1230.69,3220.03 1231.36,3219.03 1231.5,3217.5C 1232,3215.18 1232.33,3212.85 1232.5,3210.5C 1233.87,3204.37 1236.21,3198.7 1239.5,3193.5 Z"/></g>
<g><path style="opacity:1" fill="#791b1b" d="M 1232.5,3210.5 C 1232.33,3212.85 1232,3215.18 1231.5,3217.5C 1231.36,3219.03 1230.69,3220.03 1229.5,3220.5C 1229.59,3216.79 1230.59,3213.45 1232.5,3210.5 Z"/></g>
<g><path style="opacity:1" fill="#922020" d="M 1488.5,3255.5 C 1489.15,3255.8 1489.82,3256.14 1490.5,3256.5C 1491.54,3263.37 1492.54,3270.21 1493.5,3277C 1492.69,3285.09 1492.69,3293.26 1493.5,3301.5C 1491.12,3286.38 1489.45,3271.05 1488.5,3255.5 Z"/></g>
<g><path style="opacity:1" fill="#220907" d="M 1226.5,3243.5 C 1226.18,3250.69 1226.51,3257.69 1227.5,3264.5C 1227.5,3267.17 1227.5,3269.83 1227.5,3272.5C 1226.01,3266.91 1225.34,3261.07 1225.5,3255C 1225.5,3250.98 1225.83,3247.15 1226.5,3243.5 Z"/></g>
<g><path style="opacity:0.939" fill="#b82928" d="M 3239.5,3284.5 C 3246.17,3284.33 3252.84,3284.5 3259.5,3285C 3262.83,3287.33 3266.17,3289.67 3269.5,3292C 3279.8,3304.11 3289.96,3316.28 3300,3328.5C 3320.53,3347.69 3341.03,3366.86 3361.5,3386C 3391.38,3411.45 3425.38,3429.78 3463.5,3441C 3473.35,3442.53 3483.02,3444.7 3492.5,3447.5C 3467.36,3447.97 3442.2,3448.64 3417,3449.5C 3379.63,3450.11 3343.46,3443.95 3308.5,3431C 3272.61,3413.16 3245.78,3386.32 3228,3350.5C 3222.64,3337.33 3220.64,3323.66 3222,3309.5C 3223.83,3298.2 3229.67,3289.86 3239.5,3284.5 Z"/></g>
<g><path style="opacity:1" fill="#3e100f" d="M 1493.5,3306.5 C 1494.69,3309.95 1495.35,3313.61 1495.5,3317.5C 1493.78,3314.16 1493.12,3310.49 1493.5,3306.5 Z"/></g>
<g><path style="opacity:1" fill="#992222" d="M 1497.5,3330.5 C 1498.12,3330.61 1498.62,3330.94 1499,3331.5C 1499.26,3335.42 1500.26,3339.09 1502,3342.5C 1502.27,3350.28 1503.1,3357.95 1504.5,3365.5C 1503.78,3365.08 1503.28,3364.42 1503,3363.5C 1501.23,3352.47 1499.39,3341.47 1497.5,3330.5 Z"/></g>
<g><path style="opacity:1" fill="#621616" d="M 1281.5,3354.5 C 1284.2,3358.71 1287.53,3362.54 1291.5,3366C 1290.09,3366.32 1288.76,3365.98 1287.5,3365C 1284.94,3362.27 1282.27,3359.77 1279.5,3357.5C 1281.05,3357.18 1281.71,3356.18 1281.5,3354.5 Z"/></g>
<g><path style="opacity:0.004" fill="#000000" d="M 739.5,3379.5 C 738.833,3378.17 738.833,3378.17 739.5,3379.5 Z"/></g>
<g><path style="opacity:0.932" fill="#b82928" d="M 3086.5,3417.5 C 3092.51,3417.33 3098.51,3417.5 3104.5,3418C 3108.19,3419.2 3111.53,3421.03 3114.5,3423.5C 3127.37,3438.53 3140.7,3453.03 3154.5,3467C 3163.14,3474.64 3171.47,3482.64 3179.5,3491C 3185.5,3495.67 3191.5,3500.33 3197.5,3505C 3209.61,3511.44 3221.94,3517.44 3234.5,3523C 3251.3,3528.74 3268.3,3533.74 3285.5,3538C 3240.03,3548.24 3194.36,3548.9 3148.5,3540C 3110.63,3529.46 3085.46,3505.62 3073,3468.5C 3070.12,3456.91 3069.79,3445.24 3072,3433.5C 3075.31,3426.7 3080.14,3421.36 3086.5,3417.5 Z"/></g>
<g><path style="opacity:0.93" fill="#b82928" d="M 2907.5,3526.5 C 2916.99,3525.54 2925.66,3527.71 2933.5,3533C 2961.89,3558.06 2990.89,3582.39 3020.5,3606C 3046.36,3624.24 3075.02,3635.74 3106.5,3640.5C 3106.5,3641.5 3106.5,3642.5 3106.5,3643.5C 3088.57,3646.98 3070.57,3650.15 3052.5,3653C 3027.91,3655.77 3003.58,3654.44 2979.5,3649C 2957.13,3640.66 2937.97,3627.49 2922,3609.5C 2911.33,3597.5 2902.66,3584.16 2896,3569.5C 2891.59,3558.12 2891.59,3546.78 2896,3535.5C 2899.18,3531.46 2903.02,3528.46 2907.5,3526.5 Z"/></g>
<g><path style="opacity:0.91" fill="#b82928" d="M 2762.5,3630.5 C 2768.32,3630.28 2773.99,3631.11 2779.5,3633C 2796.55,3641.19 2811.88,3651.86 2825.5,3665C 2834.67,3670.75 2843.67,3676.75 2852.5,3683C 2862.06,3687.28 2871.73,3691.28 2881.5,3695C 2884.85,3695.93 2887.68,3695.1 2890,3692.5C 2891.23,3693.28 2891.56,3694.28 2891,3695.5C 2888.11,3700.04 2883.95,3702.54 2878.5,3703C 2862.18,3704.21 2845.85,3704.54 2829.5,3704C 2812.91,3702.94 2797.24,3698.6 2782.5,3691C 2761.47,3677.11 2753.63,3657.95 2759,3633.5C 2760.15,3632.36 2761.31,3631.36 2762.5,3630.5 Z"/></g>
<g><path style="opacity:0.956" fill="#b82928" d="M 3823.5,3698.5 C 3829.18,3698.33 3834.84,3698.5 3840.5,3699C 3846.28,3703.14 3848.95,3708.8 3848.5,3716C 3848.16,3737.37 3841.66,3756.54 3829,3773.5C 3781.6,3832.2 3721.77,3872.7 3649.5,3895C 3633.17,3899.09 3616.83,3903.09 3600.5,3907C 3561.34,3912.61 3522.01,3914.61 3482.5,3913C 3458.27,3910.75 3434.27,3907.25 3410.5,3902.5C 3419.77,3901.57 3429.1,3900.74 3438.5,3900C 3450.47,3896.69 3462.47,3893.36 3474.5,3890C 3487.83,3884.33 3501.17,3878.67 3514.5,3873C 3538.63,3859.65 3562.63,3846.31 3586.5,3833C 3610.9,3816.94 3635.57,3801.27 3660.5,3786C 3700.73,3763.55 3740.73,3740.55 3780.5,3717C 3787.6,3712.91 3794.93,3709.25 3802.5,3706C 3809.77,3703.94 3816.77,3701.44 3823.5,3698.5 Z"/></g>
<g><path style="opacity:0.949" fill="#b82928" d="M 3763.5,3954.5 C 3798.13,3951.63 3812.96,3967.29 3808,4001.5C 3806.72,4003.72 3805.72,4006.05 3805,4008.5C 3795.87,4022.92 3784.37,4035.09 3770.5,4045C 3751.8,4057.35 3731.8,4067.01 3710.5,4074C 3651.42,4085.69 3594.09,4080.02 3538.5,4057C 3525.77,4050.97 3513.11,4044.97 3500.5,4039C 3501.03,4038.31 3501.69,4037.81 3502.5,4037.5C 3513.63,4040.83 3524.79,4042.49 3536,4042.5C 3565.28,4039.89 3593.11,4032.06 3619.5,4019C 3637.94,4010.62 3655.6,4000.95 3672.5,3990C 3702.25,3976.45 3732.59,3964.62 3763.5,3954.5 Z"/></g>
<g><path style="opacity:0.97" fill="#b82928" d="M 1215.5,4231.5 C 1244.98,4230.44 1274.31,4231.94 1303.5,4236C 1338.82,4244.05 1373.49,4254.05 1407.5,4266C 1463.59,4286.35 1519.59,4306.68 1575.5,4327C 1621.77,4340.28 1667.11,4337.78 1711.5,4319.5C 1711.83,4320 1712.17,4320.5 1712.5,4321C 1707.51,4328.65 1702.51,4336.32 1697.5,4344C 1687.22,4351.28 1677.22,4358.95 1667.5,4367C 1653.32,4376.67 1638.98,4386.17 1624.5,4395.5C 1566.67,4428.97 1505.17,4438.97 1440,4425.5C 1398.5,4415.3 1358,4402.14 1318.5,4386C 1300.8,4380.26 1283.13,4374.59 1265.5,4369C 1236.99,4362.03 1207.99,4358.53 1178.5,4358.5C 1171.94,4382.24 1157.27,4399.07 1134.5,4409C 1097.85,4419.34 1069.02,4408.5 1048,4376.5C 1037.71,4354.68 1038.05,4333.01 1049,4311.5C 1065.83,4284.01 1089.33,4264.51 1119.5,4253C 1131.27,4249.06 1143.27,4246.06 1155.5,4244C 1175.04,4237.36 1195.04,4233.19 1215.5,4231.5 Z"/></g>
<g><path style="opacity:0.957" fill="#b82928" d="M 915.5,4244.5 C 942.015,4241.3 966.348,4246.8 988.5,4261C 1005.15,4278.02 1007.99,4297.19 997,4318.5C 993.167,4322.33 989.333,4326.17 985.5,4330C 980.446,4333.19 975.112,4335.86 969.5,4338C 954.484,4342.17 939.484,4346.51 924.5,4351C 917.833,4351.33 911.167,4351.67 904.5,4352C 890.146,4354.23 875.812,4356.57 861.5,4359C 843.696,4365.73 828.03,4375.73 814.5,4389C 792.007,4413.65 773.507,4441.15 759,4471.5C 755.601,4480.36 752.601,4489.36 750,4498.5C 731.57,4461.58 727.236,4422.91 737,4382.5C 746.096,4347.09 764.596,4317.92 792.5,4295C 828.472,4265.74 869.472,4248.9 915.5,4244.5 Z"/></g>
<g><path style="opacity:0.954" fill="#b82928" d="M 969.5,4414.5 C 983.331,4412.16 995.831,4415.49 1007,4424.5C 1016.14,4434.77 1019.14,4446.77 1016,4460.5C 1009.2,4474.64 1001.53,4488.3 993,4501.5C 991.667,4504.83 990.333,4508.17 989,4511.5C 986.528,4523.56 983.362,4535.39 979.5,4547C 972.809,4588.77 979.142,4629.6 998.5,4669.5C 998,4669.83 997.5,4670.17 997,4670.5C 981.786,4664.1 966.953,4656.93 952.5,4649C 938.792,4639.23 925.959,4628.39 914,4616.5C 880.804,4573.63 873.804,4526.63 893,4475.5C 904.889,4450.28 923.389,4431.78 948.5,4420C 955.509,4417.67 962.509,4415.83 969.5,4414.5 Z"/></g>
<g><path style="opacity:0.95" fill="#b82928" d="M 1136.5,4434.5 C 1148.88,4432.53 1159.71,4435.53 1169,4443.5C 1172.39,4447.56 1175.39,4451.89 1178,4456.5C 1181.59,4466.27 1184.59,4476.27 1187,4486.5C 1189.14,4492.11 1191.81,4497.45 1195,4502.5C 1209.34,4520.54 1223.68,4538.54 1238,4556.5C 1242.6,4560.55 1247.1,4564.72 1251.5,4569C 1257.06,4572.61 1262.73,4575.94 1268.5,4579C 1268.24,4580.26 1267.57,4581.26 1266.5,4582C 1252.18,4589.11 1237.18,4594.44 1221.5,4598C 1194.87,4602.62 1169.54,4598.96 1145.5,4587C 1111.63,4563.08 1096.13,4530.24 1099,4488.5C 1101.3,4469.22 1109.46,4453.05 1123.5,4440C 1127.92,4438.04 1132.25,4436.2 1136.5,4434.5 Z"/></g>
</svg>
