<svg id="svg" xmlns="http://www.w3.org/2000/svg" xmlns:xlink="http://www.w3.org/1999/xlink" width="400" height="400" viewBox="0, 0, 400,400"><g id="svgg"><path id="path0" d="M247.101 71.596 C 240.839 72.708,240.646 73.344,240.387 93.800 C 240.080 118.102,241.883 116.308,217.585 116.496 L 201.769 116.618 199.403 117.809 C 195.221 119.914,194.597 122.882,194.910 139.200 C 195.110 149.648,195.348 151.021,197.319 153.133 C 199.446 155.411,199.226 155.384,217.411 155.600 L 234.223 155.800 236.196 156.816 C 237.727 157.604,238.396 158.273,239.184 159.804 L 240.200 161.776 240.403 178.388 C 240.694 202.138,239.532 200.796,259.800 200.796 C 272.946 200.796,274.385 200.635,276.402 198.937 C 279.025 196.730,278.978 197.070,279.223 178.800 C 279.553 154.155,277.778 155.932,302.400 155.595 C 319.444 155.361,319.715 155.335,321.864 153.748 C 324.392 151.881,324.600 150.544,324.600 136.200 C 324.600 115.708,325.942 116.838,301.170 116.456 L 284.540 116.200 282.881 115.102 C 279.564 112.905,279.208 110.634,279.201 91.600 C 279.193 70.838,279.836 71.545,260.800 71.369 C 254.310 71.308,248.146 71.411,247.101 71.596 " stroke="none" fill="#fbf8f7" fill-rule="evenodd"></path><path id="path1" d="M192.000 1.039 C 191.230 1.131,188.440 1.471,185.800 1.795 C 183.160 2.119,178.272 2.573,174.938 2.804 C 162.413 3.672,159.200 5.707,156.944 14.201 C 156.018 17.686,155.915 222.646,156.838 225.521 C 159.062 232.452,160.766 234.211,166.901 235.908 C 170.185 236.817,376.244 236.969,382.539 236.067 C 390.240 234.964,394.923 231.571,395.848 226.425 C 395.989 225.641,396.268 224.793,396.467 224.541 C 398.421 222.069,397.770 179.724,395.644 171.000 C 395.000 168.360,394.351 164.760,394.201 163.000 C 394.051 161.240,393.589 158.450,393.176 156.800 C 392.762 155.150,392.152 152.720,391.820 151.400 C 391.489 150.080,390.864 147.560,390.432 145.800 C 389.599 142.403,387.338 135.383,385.795 131.400 C 379.945 116.298,375.680 107.293,369.509 97.009 C 361.400 83.496,351.168 70.345,340.219 59.363 C 334.904 54.033,332.470 51.794,326.185 46.454 C 303.926 27.541,269.824 10.873,243.800 6.187 C 241.820 5.830,238.490 5.111,236.400 4.589 C 232.148 3.526,227.702 2.964,220.600 2.592 C 217.960 2.454,214.000 2.078,211.800 1.756 C 207.883 1.183,194.769 0.708,192.000 1.039 M71.077 48.789 C 61.365 52.584,35.258 84.275,24.285 105.590 C 22.753 108.566,21.279 111.360,21.008 111.800 C 19.806 113.755,14.011 127.701,12.199 133.000 C 11.672 134.540,10.863 136.880,10.401 138.200 C 9.939 139.520,9.373 141.500,9.143 142.600 C 8.913 143.700,8.212 146.310,7.585 148.400 C 6.957 150.490,6.235 153.639,5.980 155.397 C 5.725 157.156,5.268 159.226,4.964 159.997 C 3.877 162.764,3.154 167.515,2.773 174.400 C 2.559 178.250,2.073 182.840,1.692 184.600 C 0.674 189.306,0.680 210.361,1.700 214.943 C 2.085 216.671,2.400 218.987,2.400 220.088 C 2.400 227.872,5.756 233.412,11.567 235.220 C 17.425 237.044,73.137 237.572,79.000 235.859 C 83.703 234.486,86.071 232.388,87.193 228.600 C 87.454 227.720,87.864 226.460,88.105 225.800 C 89.528 221.892,89.215 64.437,87.769 57.262 C 86.149 49.219,79.115 45.648,71.077 48.789 M274.108 71.960 C 278.769 73.450,279.194 75.090,279.201 91.600 C 279.208 110.634,279.564 112.905,282.881 115.102 L 284.540 116.200 301.170 116.456 C 325.942 116.838,324.600 115.708,324.600 136.200 C 324.600 150.544,324.392 151.881,321.864 153.748 C 319.715 155.335,319.444 155.361,302.400 155.595 C 277.778 155.932,279.553 154.155,279.223 178.800 C 278.910 202.121,280.080 200.796,259.800 200.796 C 239.532 200.796,240.694 202.138,240.403 178.388 L 240.200 161.776 239.184 159.804 C 238.396 158.273,237.727 157.604,236.196 156.816 L 234.223 155.800 217.411 155.600 C 199.226 155.384,199.446 155.411,197.319 153.133 C 195.348 151.021,195.110 149.648,194.910 139.200 C 194.597 122.882,195.221 119.914,199.403 117.809 L 201.769 116.618 217.585 116.496 C 234.764 116.363,236.044 116.222,237.937 114.259 C 240.152 111.961,240.158 111.914,240.387 93.800 C 240.690 69.918,239.549 71.171,260.800 71.369 C 268.609 71.441,273.110 71.641,274.108 71.960 M26.600 250.800 C 14.758 251.856,10.771 259.207,15.005 272.177 C 17.145 278.731,25.249 296.412,27.040 298.431 C 27.348 298.779,27.600 299.187,27.600 299.338 C 27.600 301.405,42.644 322.458,50.105 330.834 C 63.897 346.317,70.011 350.918,76.800 350.925 C 83.510 350.932,86.037 348.919,88.253 341.800 C 89.279 338.503,89.277 265.838,88.250 261.917 C 86.532 255.355,84.188 252.822,78.400 251.276 C 75.880 250.602,33.208 250.210,26.600 250.800 M171.000 250.786 C 163.980 251.427,158.000 255.007,158.000 258.568 C 158.000 258.890,157.840 259.252,157.644 259.373 C 156.089 260.334,155.471 378.625,156.988 385.000 C 159.380 395.051,167.327 397.370,199.400 397.376 C 219.297 397.380,222.632 397.183,229.306 395.602 C 231.118 395.173,234.580 394.531,237.000 394.176 C 275.028 388.592,318.354 364.300,346.827 332.600 C 349.900 329.178,355.348 322.685,356.726 320.800 C 362.685 312.654,364.587 309.894,367.617 305.000 C 388.468 271.321,390.787 254.598,375.058 251.355 C 371.815 250.686,178.013 250.146,171.000 250.786 " stroke="none" fill="#e30404" fill-rule="evenodd"></path></g></svg>