<svg xmlns="http://www.w3.org/2000/svg" id="BRD" viewBox="0 0 591.4 800.5" height="100%" width="100%">
<!-- <style>.bl path { fill: hsl(219,40%,85%); transition: fill 1s}</style> -->
<style>.bl path { transition: fill 1s}</style>
<g class="bl" style="stroke:#999;stroke-width:1;stroke-linejoin:round">
	<path class="Thueringen" d="m 312,351.7 1.8,-0.4 3.4,0.3 2,0.2 2.9,0.7 0.4,0.3 2,1.8 1.2,-0.6 -1.6,2.3 -0.5,1.6 1.2,2.9 2,3.2 1.7,2.6 0.9,1.3 -0,2.3 -0.2,2.7 0.8,0.5 0.9,1 0.8,0 0.8,-0 1,-0.4 0.7,-0.3 6.4,2 0.5,0 5.9,0 2,0 1,-0.2 2,0 5,1.7 0,0.2 0,0.4 0,2 0,1 0,0.4 2,0.6 -1,0.5 0,0 0,0.2 1,0.6 0,0.7 1,0 0,0.2 1,1.2 1,0.5 0,0.2 0,0.2 0,0.7 -1,1 -2,2 0,1.2 -1,0.6 0,0.2 -1,0 0,0 -1,-0.8 0,0 0,0.2 0,0.5 -1,1 0,0.8 2,1.2 1,0 1,-0.5 0,0 1,0.4 2,1.6 1,2.5 0,0.2 -1,1.3 0,0.5 -1,0.2 1,3.5 0,0.3 1,0.5 0,0.2 4,-0 1,-0.7 0,-0.2 0,-0.8 1,-0 6,1 1,0.9 1,1.2 0,1.4 0,0.5 5,1.5 2,0.5 2,-0.5 2,-0.6 1,0.3 4,2.2 2,1.5 0,0.3 2,3 1,0.5 0,0.3 0,0.8 1,-0.4 0,-0 3,-0.5 1,0 3,1.2 1,0.5 0,-0.7 0,-0.3 1,-0.3 0,-0.6 0,0 2,1.8 0,0.9 1,1 0,0 0,-0.4 0,-0 1,-1 3,-6.8 0,-0.4 0,-1 0,-0.6 0,-0.2 -2,-1 0,-1.7 2,-2.5 3,-1.4 0,-0 7,2.4 3,1 1,0.2 0,0.3 0,0.9 0,0.7 0,1.2 0,1.8 3,1.8 2,0.9 2,0.6 1,1.7 0,2.3 1,0.2 0,1.1 0,0.3 1,0.3 -1,1.3 -3,0.9 -1,0.2 -1,-0.1 -1,0.3 -4,0.8 0,0.2 -1,1.2 0,1.2 -1,2.6 -1,0.2 -1,0.3 0,0 0,-0.8 -1,-0.2 -2,0 0,0.1 -2,1.3 0,0.1 0,1.3 -4,1.6 -1,-0.1 -1,-0.8 0,1 -1,5.4 0,1.1 0,0.5 0,0.3 2,4.4 1,0.8 3,0.8 0,1.3 -1,1.4 0,0.1 -2,2.1 -2,0.5 0,0 -4,1.5 -3,1.4 -1,0.3 0,0.1 0,0.9 2,0.5 0,-0.3 1,0 0,0.1 0,0.4 0,0.5 0,0.1 0,0.1 -1,0.1 -1,-0.1 -1,0.7 -2,-0.3 -4,0.2 0,-2.8 0,-3.1 -1,-0.8 0,0.1 0,0.1 -2,1.3 0,0.8 -2,2.3 0,0.1 -1,0.3 0,0.2 -3,4.4 -1,0.4 0,0.1 1,1.8 0,0.5 1,0 2,-0.1 0,0.7 2,1.9 1,0.5 0,0.3 -1,0.5 -2,1.7 -1,0.9 -1,0.5 0,0.7 0,0.2 0,0.5 2,1.1 -3,1.2 -4,1.4 -12,1.7 -1,0 0,-0.1 0,-0.7 -1,-0.5 0,-0.1 0,-0.2 -2,0.3 0,0.1 0,0.3 0,0.7 0,0.3 -1,0.4 -2,0.6 0,-0.3 -2,-1.9 -1,-1.2 0,-2.2 -2,0.2 -2,-1.1 0,-0.2 0,-0.6 0,-2.1 0,-1.6 1,-0.7 0,0 0,-0.1 0,-0.7 0,-0.1 0,-0.9 -1,-0.4 0,-0.3 -3,-0.6 -2,0.2 0,0.1 -1,1.1 0,0.9 -3,1.6 -1,0.7 0,-0.1 -1,-0.2 0,0.2 0,0.2 0,0.6 0,0.2 0,2.2 0,0.5 1,0.1 0,0.9 1,7.5 0,0.1 -2,6.9 -3,0.5 -1,1.9 0,0.1 -0.6,0 -2.2,-2.1 -0.7,-1 -0.1,-0.1 0,-0.5 0.1,-0.6 0.4,-0.5 0.3,-0.3 0.6,-0.4 0.4,-0.1 0,-0.6 -1.3,-2.4 -1.7,-1.4 -0.8,0 -0.8,0.2 -0.1,0.1 -0.4,1.2 -1.2,0.5 -1.3,0.4 -0.4,0 -3.6,-0.7 -1.4,-1.4 -1.1,-2.1 -0.5,-0.5 -0.2,-0.1 -0.2,0 -6.6,0.1 -7.5,3 -0.3,1 0.2,3 0.1,0.4 0.4,0.3 5.5,3.9 0.2,0.1 0.6,0.1 1.3,0.4 0.5,0.3 0.5,0.6 0,1.3 -0.2,0.6 -0.1,0.2 -0.7,0.5 -0.7,0.2 -0.3,-0.1 -2.8,-0.6 -2.5,-0.6 -0.5,-0.1 -0.3,0.2 -0.1,0.2 0,1.7 0.2,0.1 0.1,1.8 -0.4,0.7 -0.2,0.1 -0.3,0 -5.2,-1.9 -1.9,-0.4 -0.2,-0.5 -0.4,-1.1 -0.6,-2.9 0.3,-3.6 0.3,-2.8 -3.1,-0.7 -4,-1.5 -2.3,-2.5 -0.3,-1.2 -0.2,-1 -0.9,0.5 -0.9,0.4 -1.9,-0.2 -0.2,0 -0.5,-0.8 0,-0.6 -0.4,-2.4 -2.4,-5.1 -0.5,-0.6 -0.6,-0.4 -4.7,-2 -1.4,-1.9 -1.9,-2.4 -0.5,-0.1 -6.6,0.7 -1.8,2 -1,1 -0.4,0.2 -0.3,0.1 -0.2,-9.7 0.2,-0.4 0.4,-0.7 0.2,-0.2 1.8,-1.5 -0.7,-2.1 -0.8,-1.3 -0.3,-0.3 -1.3,-0.1 -2.1,-0.1 -0.5,0.1 -2.5,1 -0.2,0.3 0,0.6 1.3,1.5 -0.6,1.3 -0.9,0.2 -1.1,-0.2 -3.2,-0.6 -0.1,-0.9 0.1,-2.7 0.3,-0.4 0.6,-1 1.4,-1.7 1.3,-2.7 0.5,-1.2 0,-0.4 -0.2,-1.4 -0.9,-1.1 1.3,-0.4 0.3,-0.1 0.1,-0.2 0,-0.5 -0.1,-1 -0.4,-0.7 0,-0.5 0.4,-1.8 0.1,-0.3 1.1,-0.9 0.5,-0.3 1.6,0.2 1.4,0 0.7,-1.2 1.6,-4.2 0,-0.8 -1,-5.8 -1.5,-4.9 0.7,-1.3 0.1,-0.3 0.1,-0.1 0.3,-0.1 0.9,-0.1 1.4,0.1 2.3,0.4 1.3,0.7 0.3,0.3 0.3,0.2 0.4,0.2 0.4,-0.1 1.8,-0.2 0.2,-0.2 0.2,0.1 0.5,-0.2 0.3,-0.2 0.5,-0.7 -0.1,-0.1 0.6,-1.2 0.1,-0.5 -0.5,-0.9 -0.5,-0.6 -0.2,-0.2 -0.9,-0.6 -1.8,-0.6 -0.2,-4.3 -0.6,-1.3 -1.4,-2.8 -0.1,-0.3 0.5,-0.6 2.6,-0.6 1.1,1.1 0.3,1.3 0.3,0.4 0,0.1 0.3,0.7 0.6,0 0.2,-0.2 0,-0.8 0,-1.8 -0.2,0 -0.4,-0.5 0,-0.3 0.4,-1.3 0.4,-0.3 0.3,-0.2 0.6,-0.4 0.4,-0.8 -0.3,-0.6 -1.3,-0.3 -1.3,-1.3 -0.6,-0.5 -0.8,-0.5 -1.6,-0.6 -4.6,-2.3 -0.9,-2.9 -1.9,-0.8 -3.4,-1.2 -1.2,-1.5 -1.4,-3.5 -0.6,-2.1 -0.2,-1.1 0.2,-0.9 0.2,0.2 0.2,-0.1 0.5,-0.2 3.1,-2 6.7,-3.9 5.3,-1.1 8,-5.4 2.6,-2.1 0.1,-0.1 1.5,-2.3 0.2,-0.3 0.2,-0.8 0,-0.1 -0.5,-0.2 1,-1.9 0.6,-1.2 2.4,-0.6 0.2,0 0.8,0.2 1.6,0.7 0.4,0.2 0.7,0.4 0.4,0.3 1.2,1.8 0.6,0.3 2.5,-0.3 4.5,-1.2 0.9,-1.7 2.1,-5.6 0.3,0.1 1.2,-0.2 0.1,-0.1 z"/>
	<path class="SchleswigHolstein" d="m 322,114 1,3 -1,2.2 -2.6,-0.2 -5.2,3.6 -1.4,2.3 0,1.8 1,2.5 0.2,0.4 0.3,1 0.1,0.5 -0.2,1.5 -0.4,3.1 3.8,3.7 1.5,1 0.2,0.1 1.3,0 0.4,-0.2 0,-0.1 0.2,-0.1 0.2,0 1.1,0.1 1,0.5 1.4,1.5 0.7,3.8 -1.4,2 -0.4,2.5 -6.6,8.7 -2.1,2.5 -1,1.1 -0.3,0.3 -4,3 -1.4,-0.3 -0.6,-0.3 -0.5,0 -1,0.5 -0.6,1.4 -1.8,8.1 0.1,0 -0.1,0 -0.5,0.2 -0.3,0.2 -0.5,0 -4.1,-1.2 -0.6,-0.2 -1,-0.6 -0.8,-0.5 -2.4,-1.4 -6,-2.6 -1.6,-1 -0.6,-1 -3.7,-4.1 -0.3,-0.8 0.2,-0.6 -0.5,0 -0.4,0 -3.5,-2.5 -0.2,-0.1 -0.8,-2.5 -0.1,-2 0.3,-1.2 0.6,-0.6 2.1,-1.7 1.3,-2.6 0,-0.1 0.2,-0.7 -1.6,-2.2 -0.7,-1 -0.2,-4.6 0.6,-1.5 0.2,-0.8 -1.3,-0.7 -0.2,-0.1 -0.3,-0.1 -4.3,2.1 -1.4,1 0.5,0.7 -0.8,2 -5,3.8 -0.8,0 -0.5,-0.1 -1,-0.2 -0.3,-0.2 -1.2,0 -1.1,0.1 -0.1,0.7 0,0.3 -0.3,0.6 -0.4,0.6 -3.5,4.4 -0.8,0.4 -0.5,-0.3 -1.1,-1 -1.7,-2.1 -0.1,-0.7 0.1,-0.5 -0.4,0 -0.2,0.3 -0.7,2.1 -0.3,1 -0.4,1.6 -0.5,2.3 -1.6,-0.2 -1.7,-0.6 -5.3,-3.5 -2.3,-1.8 -0.4,-0.6 -0.5,-1 -0.3,-1.2 -0.1,-1.6 -0.1,-0.5 -0.4,-1 c -2,-4.1 -5.6,-6 -7.4,-10.2 l -1.8,-4 -0.6,-1 -2.3,-3.4 -1.8,-1.3 -3.6,-1.5 c -3.6,-0.4 -7.2,-0.3 -10.8,-0.5 l -1,0 -0.8,0.2 -0.3,-2.6 -0.1,0 c -3.7,2.5 -6.6,-2.6 -7.5,-5.8 l -1.4,-3.2 -2,-3.3 -0.4,0 -0.3,0 -0.1,-0.3 1.5,-1.2 1.2,-0.7 1,-0.2 2.5,0.6 0.4,0.4 0.5,0.4 0.6,0.1 1,-0.2 0.5,-0.2 0.2,-0.2 0.3,-0.3 0.2,-0.3 0.1,-0.6 0.2,-0.7 0,-0.2 0,-0.3 -0.1,-0.4 -3.2,-6.63 -0.3,-0.29 -0.7,-0.21 -0.2,-0.1 -1,0.19 -0.4,0.26 -1.2,0.82 -0.5,-0.33 -1.1,-0.69 -0.2,-0.18 c -2.4,-3.88 -1.3,-5 0.3,-8.67 l 0.1,-0.42 0.3,-3.49 0.1,-0.72 0,-0.2 -0.2,-0.1 0.1,-0.15 0,-0.29 0,-0.59 -0.1,-0.42 -0.3,-0.52 -0.4,-0.47 -0.2,-0.13 -0.3,-0.1 -3.8,0 -0.7,0.1 -2.5,0.18 -1,1 -0.6,0.75 0.1,0.1 0.4,0.12 0.2,0 0.1,-0.1 0,0 0,0.12 -0.2,0.12 -0.1,0.1 -0.4,0 -0.4,0 -4.4,-2.34 -0.6,-0.38 c -1.1,-1.74 -0.4,-3.63 0.2,-5.43 l 0.2,-0.38 0.1,-0.11 1,-0.48 0,1 1.3,0.88 0.5,-0.1 0.2,-0.1 2.6,-1.59 0.1,-0.1 0.1,-0.21 0,-1 0,-0.18 -0.1,-0.55 0.6,-2.41 6.6,-1.15 1.3,0.14 1.4,0.65 c 3.6,-0.87 6.2,-3.75 9,-6.06 l 0.1,-0.14 0.7,-1.07 0.1,-1.1 0,-0.35 -0.2,-0.78 -1.3,-2.82 -6.4,-9.11 -3,-4.23 -1.1,-0.71 -1.8,-0.85 -1.2,-1.16 -0.4,-0.44 -2.2,-5.73 -0.7,-3.78 -1,-1.82 -0.1,-0.16 -2.3,-2.66 -2.1,-2.36 0,-0.2 0.4,-3.62 1.4,-3.36 2,0 0.7,0.1 0.4,0.19 1.2,0.82 5.4,-0.28 0.7,-0.12 0.8,-0.1 0.5,0 4.1,0.27 c 2.7,-0.1 4.2,0.85 6.6,2 l 1,0.63 0,0.21 0.4,0.27 0.7,0.4 1,0.1 c 2,0.19 3.6,-0.52 5.4,0.11 l 3,1.23 2,2 0.3,0.63 -0.4,0.48 -0.2,0.39 0.1,0.42 0.1,0.45 0.7,1.77 c 3.3,0.51 9.7,-1.21 12.5,-2.31 l 1.3,-0.37 1,-0.44 5.2,-4.58 0.5,-0.1 2.1,0.77 -0.4,0.66 -1,1.89 4.3,1.75 3.3,1.36 6,6.68 1,0.54 1,0.25 0.5,0.1 0.1,0 0.1,-0.12 1.6,-3.48 -0.1,-0.21 0.2,-0.5 0.2,-0.3 0.1,-0.1 1,0.66 1.8,1.17 1.1,2 3.3,10.59 0,2.17 -0.2,3.03 0,5.39 -0.1,0.44 -1.6,2.88 -0.2,0.26 -0.7,0.73 -1,0.88 -1.6,0.93 -2.6,1.32 -1.7,0.87 -0.5,0.1 -0.2,-0.17 -0.2,-0.24 -0.6,0 -0.3,0.1 -0.3,0.15 -0.1,0.14 0.7,1.4 0.3,0.47 0.3,0.4 0.5,0.3 0.3,0.1 2,-0.31 0.7,-0.15 0.3,-0.18 1.9,-0.83 0,-0.1 0.7,-0.26 5.2,-1.22 3.8,-0.75 0.3,-0.1 0.6,0 0.4,0.1 1.5,0.97 0.7,0.54 1.4,1.4 -0.5,0.79 -1,1.58 0.2,0.6 0.7,3.77 -1.2,1.05 -0.6,1.13 -0.1,0.61 1.3,1.78 0.4,-1.23 2.3,-5.07 0.5,-0.5 4.5,-2.25 1.1,-0.21 0.5,0 0.6,0.11 1.2,0.33 1.7,0.48 12.5,6.21 0.7,0.41 1.5,0.95 0.3,0.33 0.5,0.73 0.3,0.52 -0.1,0 0.1,0.29 2,2.19 0.5,0.35 0.2,0.14 0.6,0.16 0.6,0 2.7,-0.13 0.4,0 0.5,-0.17 0.7,-0.31 0.6,-0.31 1.8,-1.51 0.8,-0.74 1.1,-1.36 1.8,-1.55 2.5,-1.94 1.2,-0.31 8.1,-0.37 -0.2,3.58 -0.5,0.8 0,0.32 0.1,2.31 0.6,6.72 0.8,5.66 -0.1,0.11 -0.1,0.1 -2.6,2.13 -0.6,0.46 -3.2,2.26 -3,2.74 -2.6,3.29 -0.5,0.35 -0.5,0.3 -0.5,0.2 -2.2,-0.4 -0.3,-0.1 -0.5,-0.31 -3.2,3.41 -0.2,0.2 -0.2,0.4 -0.2,0.6 0,0.5 0,0.3 0.1,0.5 0.7,1.6 0.6,1.1 0.3,0.6 0.5,0.6 0.2,0.2 0.5,0.3 0.5,0.1 1.9,0 0.2,0 0.9,-0.3 0.3,0.1 0.5,0.2 0.4,0.4 0.3,0.4 0.2,0.5 0.1,0.2 -0.2,1 0.1,0.8 0.6,0.3 0.3,0 z M 168.3,10.21 l -1.1,2.86 -0.9,2.59 -0.3,1.42 -0.3,2.03 -0.2,2.38 -0.6,9.15 0,0.71 0.5,1.27 0.3,0.41 0.2,0 0.1,-0.18 0,-0.41 0.2,-7.82 -0.1,-0.23 -0.1,-0.46 0,-0.17 0.1,-1.5 0.5,-1.39 0.2,-0.33 2.1,-1.38 0.6,0.53 0.2,0.16 1.4,0.81 1.4,1.01 0.5,0.16 0.2,0 2.7,-1.39 1.8,-1.46 -0.1,-0.1 -0.4,-0.1 -0.5,-0.1 c -2.6,0.35 -3,-0.1 -4.8,-1.75 l 0,0 -1.7,-1.68 -0.4,-5.934 1.1,-2.27 0.6,-0.64 0.9,-0.76 0.1,0 1.2,-0.29 1.3,-0.79 1.6,-3.07 -0.1,-0.1 -0.1,-0.1 -2.1,-0.8789 -0.6,-0.16 -0.3,0 -0.2,0.1 -0.5,0.33 -0.1,0.13 -0.5,0.6889 -1.9,4.48 -0.3,0.94 -1.6,3.374 z m 4.4,22.92 -0.4,0.72 c -0.4,0.68 -0.5,1.35 -0.6,2.09 l 0.1,0.43 0.2,0.3 0.2,0.17 4,1.97 0.8,0.23 1,0.1 3.3,0.13 0.4,0 0.2,-0.1 1.9,-3.87 -0.6,-2.39 -0.2,-0.27 c -0.6,-0.54 -1.3,-0.77 -2,-1.03 l -0.5,-0.1 c -2.4,-0.1 -5.8,-0.2 -7.8,1.62 z m -4.8,11.55 0.7,1.14 0.2,0.1 0.3,0 1.2,0 0,0 1.2,-0.58 0.1,-0.13 0.3,-0.75 0,-0.1 -0.1,0 c -1.2,-0.39 -1.6,-1.19 -2.2,-2.21 l -1.3,-3.53 -0.1,-0.74 0.2,-0.49 c 0.2,-0.69 0.8,-1.05 1.3,-1.51 l -0.1,-0.11 -0.2,0 -0.4,0.18 -2.5,2.23 -0.3,0.41 -0.3,0.93 -0.1,0.84 c -0.3,1.31 1.2,3.06 2.1,4.32 z m 15,-0.33 3.7,-0.91 0.5,-0.29 0.3,-0.44 0.2,-0.61 0.2,-1.01 -0.2,-0.1 -6.3,2.47 -1.6,0.68 -0.2,0.41 0.1,0.15 1,0.85 2.3,-1.21 z m -4.2,5.14 -0.3,0 -0.2,0.17 0.1,0.18 0.2,0.39 0.2,0.13 1.6,1.19 0.3,0.19 0.8,0 0.5,-0.15 0.2,-0.21 0,-0.44 -0.8,-1.15 -0.1,-0.17 -0.1,-0.1 -0.3,-0.1 -0.7,0.19 -1.4,-0.2 z m 7,9.35 1,-0.21 0.9,-0.26 0.3,-0.14 0.3,-0.4 1.1,-2.44 0.6,-1.4 0.1,-1.48 -0.2,-0.14 -0.7,-0.11 -0.5,0.1 -2.2,0.7 -0.3,0.1 -2.6,1.08 c -1.8,1.48 0.4,4.51 2.2,4.6 z m 13.7,-3.29 -3.1,2.04 -0.4,0.51 0,0.27 c 1.2,7.33 6.1,3.27 8.5,-0.36 l 0,-0.15 -0.2,-1.31 -0.3,-0.35 -1,-0.22 -2.2,-0.1 -1.3,-0.34 z m 132.4,-0.73 -0.4,-0.15 -0.2,-0.19 -0.1,-0.15 -0.2,0.1 -0.3,0.26 -0.8,0.89 -0.6,0.85 -0.4,0.62 -0.7,1.56 -0.3,0.99 -0.1,0.33 -0.3,3.4 0.1,0.56 0.1,0.2 1.6,1.06 0.3,0.12 0.4,0.1 0,0 0,0 -0.1,0 0,0 -0.4,-0.14 -1,-0.6 0,-0.63 0.2,-0.18 2.3,-0.81 1.1,0.34 0.4,0.17 0.4,0.17 0.1,0.26 0.3,0.84 -0.1,0.93 -0.1,1.28 5,0.94 8.1,0.1 0,0 0,-0.1 0,-0.59 -1.5,-2.7 -1,-2.19 -3.1,-4.81 -3.3,-1.69 L 331.8,55 Z M 188,104.7 l -0.1,-0.1 -0.4,-0.4 -0.5,-0.6 0,-0.4 0.1,-0.5 0.2,-0.4 0.2,-0.3 0.2,-0.2 0.2,-0.1 0.3,-0.1 0.2,0 0.3,0.2 0.1,0.1 -0.2,2.5 -0.3,0.2 z m -47.2,-16 1.2,-0.12 0,0.62 -0.8,1.52 -0.8,-0.1 -0.3,-0.1 -0.8,-1.61 0,-0.25 0.5,-0.37 0.5,-0.15 0.5,0.49 z"/>
	<path class="SachsenAnhalt" d="m 366.1,207.8 1,-0.6 1,0 0,0 0,0.1 1,0.1 0,0.1 0,0.2 0,0.2 0,0.2 -1,1.1 0,0.3 0,0.4 0,0.3 0,0.3 4,2.9 0,0.1 1,0 0,0 1,-0.5 1,-0.5 0,-0.1 0,0.1 1,0 0,0.2 0,0.2 5,3 1,0.3 c 0,0.3 0,0.6 0,0.8 l 0,0.3 -1,0.2 0,0.4 -1,0.6 0,0.4 c 0,0.4 0,0.8 0,1.1 l 1,0.2 0,0.2 4,1.5 5,1.6 0,0.1 8,-1 1,-0.7 0,0.2 c 0,0.4 0,0.9 0,1.3 l 1,2 1,-0.5 1,-0.5 2,-0.7 1,0.6 1,0.5 0,0.2 1,4.9 0,1.8 -2,0.8 0,1.4 -1,1 0,4.5 0,0 c 0.6,1.4 1.3,2.7 2,4 l 1,0.8 c -0.1,1.4 -0.6,2.8 -1,4.2 l -1,1.2 -1,0 c -0.1,0 -0.8,1.1 -1,1.5 -0.4,2.7 -2,5.2 -2,7.9 l 0,0 c 1,1.1 2,2.2 3,3.2 1.2,-0.2 2,-0.5 3,-1 l 0,-0.1 0,-1 5,1.9 1,3.3 -1,0.9 0,1.1 -1,2.1 0,1.7 1,2.8 0,3.5 -1,2.4 0,0.1 c -0.5,1 -1.3,1.9 -2,2.8 0,0.8 0,1.5 0,2.3 0,2.2 0,4.3 0,6.5 l -2,4.1 c 1.9,2.2 3.5,4.6 5,7 l 3,3.4 1,1.9 5,2.8 7,2.8 4,0.7 c 1.2,-0.1 2,-0.8 3,-1.4 0,-0.7 0,-1.3 0,-2 l 1,0 c 1,0.4 2,0.9 3,1.4 0.8,0.8 1.9,1.2 3,1.7 l 1,0 0,1.5 5,2.8 2,0.7 c 0.8,0.1 1.3,-0.1 2,-0.4 l 5,2.6 3,3.2 0,0.2 0,0 3,0.2 2,-0.8 0,-0.4 c 0.2,-0.8 0,-0.6 1,-0.6 l 0,0.3 c 0.9,0.4 0.8,0.6 1,1.3 l 0,0.7 -2,0.3 0,0.2 0,0.3 4,11.7 0,0.3 0,0.4 1,0.8 0,0.5 0,0.2 -1,2.6 -1,0.5 -6,4.3 -3,0.3 -6,0.3 0,0 -10,0.2 -1,-0.4 0,0 0,-0.5 c -0.6,-0.4 -1.3,-0.4 -2,-0.5 -0.1,-0.2 -0.7,-0.1 -1,-0.1 -0.7,-0.2 -0.8,0.4 -1,0.5 l 0,0.3 0,0.6 -1,1.8 0,0.2 c -1.1,0.6 -2,1.2 -3,2 l -2,-1.4 -1,1.1 -2,1 -7,2.2 -2,0.2 -3,0.1 -1,0 -5,2.8 -3,3.1 c -1.1,2.5 -2,5.1 -3,7.7 l 0,1.4 1,3.4 1,0.1 0,0.1 c 0.1,2.1 0.6,4.1 1,6.1 l 0,1.6 -1,0.5 -2,0.9 2,4.5 1,1.8 0,1.9 0,0.3 1,2.4 0,7.2 2,0.5 0,0.1 1,0.6 0,0.4 -1,0.6 2,2 2,0.9 -2,2.6 0,1.6 2,1 0,0.2 0,0.7 0,1 0,0.3 -3,6.9 -1,0.9 0,0.1 0,0.4 0,0 -1,-1.1 0,-0.8 -2,-1.8 0,-0.1 0,0.5 -1,0.3 0,0.3 0,0.7 -1,-0.5 -4,-1.2 0,0 -3,0.6 0,0.1 -1,0.4 0,-0.9 0,-0.3 -1,-0.5 -2,-3 0,-0.2 -2,-1.6 -4,-2.2 -1,-0.3 -2,0.6 -2,0.6 -2,-0.5 -5,-1.5 0,-0.6 0,-1.3 -1,-1.3 -1,-0.9 -7,-1 0,0.2 0,0.7 0,0.3 -1,0.7 -4,0 0,-0.2 -1,-0.4 0,-0.4 -1,-3.4 1,-0.3 0,-0.5 1,-1.2 0,-0.3 -1,-2.5 -2,-1.6 -1,-0.3 0,0 -1,0.4 -1,0 -2,-1.3 0,-0.8 1,-1 0,-0.5 0,-0.2 0,0 1,0.9 0,0 1,-0.2 0,-0.2 0,-0.6 1,-1.2 2,-2.1 0,-1.1 1,-0.7 0,-0.1 0,-0.3 -1,-0.5 -1,-1.2 0,-0.2 -1,-0.1 0,-0.7 -1,-0.6 0,-0.1 0,-0.2 1,-0.5 -2,-0.6 0,-0.4 -1,-1 1,-1.9 0,-0.3 -1,-0.3 -4,-1.6 c -1,-0.2 -2,-0.2 -3,0 l -2,0 -6,-0.2 c -2.3,-0.7 -4.6,-1.4 -6.9,-2.1 -2.3,1.3 -3.4,0.4 -5,-0.7 0,-1.7 0.2,-3.3 0.3,-5 -0.9,-1.3 -1.8,-2.6 -2.7,-3.9 -1.3,-1.9 -2.3,-4 -3.3,-6.1 l 0.5,-1.7 1.7,-2.2 -1.3,0.5 c -0.8,-0.8 -1.5,-1.5 -2.4,-2.1 l -2.9,-0.7 c -1.8,-0.2 -3.5,-0.2 -5.3,-0.3 l -1.8,0.3 -0.4,-0.2 -0.1,0 -0.3,-0.3 -1.2,-2.2 -0.2,-0.3 -0.2,-1.2 -0.1,-0.9 0.2,-0.5 -0.9,-2.2 -3,-4.5 -1,-0.6 -0.7,-1.4 -0.3,-2.9 0,-3.4 0.1,-0.5 0.4,-0.5 2.1,-1.8 0.4,-0.1 0.4,0 0.2,-0.2 1,-1.6 0.1,-0.3 0,-0.8 -0.1,-0.6 -0.1,-0.3 -0.5,-0.7 -0.8,-0.3 -0.9,-0.4 0,-1.6 0,-0.2 0.8,-1.1 1.2,-0.4 -3.7,-2.8 -1.7,-2.4 4.2,-0.5 1.8,-1.6 0,-0.2 0.1,-0.3 -0.2,-0.5 0.1,-0.9 2,-0.6 1,-0.2 5,-0.1 0.3,0 0.9,0.3 1.8,-0.1 1.4,-0.3 0.4,-0.1 0.9,-0.7 0.5,-0.1 3.5,-0.1 1.7,0.2 0.1,0.1 0.3,-3.1 0.4,-1.9 2,-1.5 1.9,-1.5 1.2,-1.8 0.1,-0.3 0.1,-1.4 -0.1,-0.4 -0.1,-0.1 -0.1,0 -0.9,0.1 -0.5,0 -0.7,-0.4 -0.3,-0.3 -0.2,-0.2 -0.1,-0.3 -0.1,-0.4 0.1,-0.8 0.4,-1 0.3,-0.6 0.3,-0.2 1,-0.4 0.7,-0.2 1.1,-0.2 0.6,-0.8 0,-0.1 0,-0.1 -0.4,-0.9 -1.5,-2 -1.3,-1.4 -1.5,-1.6 0,-0.1 -0.4,-4.1 1.2,-1.7 0.6,0.2 0.1,-0.1 1.2,-0.5 0.8,-0.7 0,-0.1 0.1,-1.4 -0.1,-0.4 -0.6,-0.6 -0.8,-0.7 -0.2,-0.1 -0.3,-0.1 -1.3,-0.8 -4.5,-5.7 -0.9,-1.9 0.6,-1.5 2.3,-1.2 1.7,0 -1.8,-2.1 -1.3,-1.7 -0.8,-1.2 -0.3,-0.8 -0.4,-1.4 0.2,-2.1 0,-0.1 -2.8,-5.4 -3.7,-5.3 -2.6,-2 -2.6,-7.1 0.1,-0.6 0.1,-0.6 -0.2,-2.3 0,-0.2 0.5,-2.2 2.1,-0.6 2.6,-0.5 6.1,-0.2 2.9,-3.1 0.2,-0.4 0,-0.1 -0.1,-0.5 0,-0.7 0.2,-0.7 0.3,-0.4 0.3,-0.1 0.3,0 9.3,0.4 3.9,0.7 0.7,0.8 0.3,0.3 0.2,0.4 0,0.2 0,0.2 0.1,0 0.3,0.1 3.6,0.3 1,-0.3 5,-2.8 1,-0.1 0,-1.2 2,-1.7 1,-0.6 2,-0.3 0,0 0,-1.9 0,-3.2 0,-1 1,-0.7 1,-0.2 0,0.1 0,0.5 1,0.4 0,0 0,0 3,-3.6 0,0 0,-0.2 z"/>
	<path class="Sachsen" d="m 462.1,347.3 2,3.8 1,0.4 0,-0.5 1,-0.3 0,-0.3 3,1.3 0,0.8 2,4.2 1,2.7 0,0.6 0,0.7 0,5.2 -1,3.7 2,1.8 0,0.6 0,0.5 3,0 0,-0.1 2,-0.5 0,-1.1 0,-0.1 2,-2.3 5,-2.5 1,0.5 2,2 2,1.8 5,3 3,0.9 0,0 2,-0.1 3,0 1,-0.7 0,0.4 1,0.5 1,0.1 3,0.3 1,-0.5 2,-1 1,-0.6 3,0.1 0,-0.1 8,-1.5 2,-3.5 2,-5.6 1,-4.4 2.5,-3 4.5,0 4,0.5 3,1 5,-2.4 3,-0.3 0,-1.3 1,-0.2 7,-2.5 2,0.9 0,1.4 1,0.1 4,-0.1 0,-0.6 1,-0.3 0,-0.2 0,-2.4 1,-0.7 1,0.8 -1,1.9 0,0.2 1,3 4,1.2 1,-0.1 0,0 8,3.1 0,0.1 2,0.9 0,0.1 0,0.7 2,2.1 0,0.4 0,4.1 5,10.4 0,2 0,2.9 -1,2.7 0,1.2 -2,14.4 0,1.6 -1,1.2 -1,2.5 0,0.2 0,0.1 0,1.1 -1,3.2 -1,3.7 0,0.5 -2,1.9 -1,1.8 -1,2.7 -1,2.4 0,2.5 0,0.7 -1,0.2 -2,0.1 -2,-0.3 -5,-2.1 -2,-0.8 0,-0.8 1,-2.4 -1,-3.8 -2,-6.2 -2,-1.2 -5,-4.5 -1,0.3 1,0.7 -1,1.4 -4,0.7 -1,0.1 0,0 -5,-1.7 -1,-1.5 -1,-0.1 0,0.5 -1,0.6 -2,5.8 1,0.2 3,3.4 1,0.2 3,0.9 1,-0.2 1,0.8 0,0.9 -1,2.5 -5,1.9 -11,5.7 -2,1.1 -1,1.3 -1,0.3 -8,2.6 -3,0.3 1,0.4 0,3.6 -1,0.8 -2,1.7 -1,0.2 -1,0.1 0,0 -3,-1 0,0 -7,0.9 -1,0.1 -8,4.3 1,0.6 0,0.9 0,0.1 -2,4.2 -1,0.5 -2,2.5 -4,-1.9 -2,-0.2 -6,4.5 -3,3.7 0,0.7 -2,4.5 -1,0.3 -3,-0.9 -6,0.4 -1,0.3 0,2.3 0,2.1 0,1.6 0,0.8 -2,2.5 -1,0.3 -2,1.2 -1,-0.2 -2,-1.9 -5,-2.7 0,-0.3 0,0 -6,3.2 -3,2.1 -2,0.1 -5,0.6 -4,1.3 -7,9.3 -3,3.1 -1,3.7 -1,0.8 0,2.8 0,0.6 1,0.1 0,3 -1,0 -1,-0.1 -1,-0.2 0,-0.1 -1,-1.5 0,-0.8 1,-0.3 0,-0.8 -1,-1.7 -5,-8.3 -1,-1.3 -1,0 -2,0 -3,0.1 0,0.3 0,-0.6 -2,-0.8 -5,-1.3 -1,-0.2 0,-0.3 0,-1.8 0,-1.7 0,-0.4 -2,-2.6 -1,-0.7 -1,-0.2 -2,-1.1 0,-0.5 0,-0.2 0,-0.6 1,-0.5 1,-0.9 2,-1.7 1,-0.6 0,-0.2 -1,-0.5 -2,-1.9 0,-0.8 -2,0.2 -1,0 0,-0.6 -1,-1.7 0,-0.1 1,-0.4 3,-4.4 0,-0.2 1,-0.3 0,-0.1 2,-2.3 0,-0.9 2,-1.2 0,-0.1 0,-0.1 1,0.8 0,3.1 0,2.8 4,-0.2 2,0.3 1,-0.8 1,0.2 1,-0.1 0,-0.1 0,-0.1 0,-0.5 0,-0.4 0,-0.1 -1,0 0,0.3 -2,-0.6 0,-0.8 0,-0.2 1,-0.2 3,-1.4 4,-1.6 0,0.1 2,-0.5 2,-2.1 0,-0.1 1,-1.5 0,-1.3 -3,-0.7 -1,-0.8 -2,-4.5 0,-0.2 0,-0.6 0,-1 1,-5.4 0,-1 1,0.7 1,0.2 5,-1.6 0,-1.4 0,0 1,-1.3 0,-0.1 2,0 1,0.2 0,0.7 0,0.1 2,-0.4 0,-0.1 1,-2.6 0,-1.2 1,-1.3 0,-0.1 4,-0.8 1,-0.3 1,0.1 1,-0.2 3,-0.9 1,-1.3 0,-0.3 -1,-0.3 0,-1.1 -1,-0.3 0,-2.2 0,-1.7 -3,-0.6 -2,-0.9 -3,-1.8 0,-1.8 0,-1.3 0,-0.6 0,-0.9 0,-0.3 -1,-0.2 -3,-1.1 -7,-2.4 0,0 -3,1.5 -2,-1 -2,-2 1,-0.6 0,-0.4 -1,-0.5 0,-0.2 -2,-0.4 0,-7.3 -1,-2.4 0,-0.2 0,-1.9 -1,-1.9 -2,-4.5 2,-0.8 1,-0.5 0,-1.6 -1,-5.5 0,-0.7 0,-0.1 -1,0 -1,-3.4 0,-1.5 2,-5.3 1,-2.4 3,-3 5,-2.8 1,-0.1 3,0 2,-0.3 7,-2.1 2,-1 1,-1.1 2,1.4 1,-0.8 1,-0.6 1,-0.7 0,-0.1 1,-1.9 0,-0.6 0,-0.2 0,-0.3 1,-0.2 1,0 0,0 1,0.2 1,0.3 0,0.5 0,0.1 1,0.3 10,-0.1 0,0 6,-0.4 3,-0.3 z"/>
	<path class="Saarland" d="m 25.95,560.2 0.4,0.2 7.1,2.2 1.3,0.3 4.4,0.2 7,-1.2 4.3,-1.3 0.6,-0.2 1.4,-0.8 0.1,-0.1 0.6,-0.6 0.2,-0.3 0.6,-0.6 0.2,-0.3 0.8,-0.3 3,-1.3 1.9,-0.7 0.5,0 0,-0.1 0,-0.1 0.1,-0.1 3,-1.8 0.4,-0.1 2,0.2 0.9,0.2 -0.1,0.3 -0.1,0.7 0,0.3 0.1,0 1.7,-0.8 0.5,-0.4 0.5,-0.6 2.7,1.8 3.3,3 6.1,3.2 0.7,0.1 0.8,-0.2 1.2,-0.5 0.4,-0.5 0.2,0.2 0.3,0.8 0.5,1 0,0.2 0.1,0.8 0.1,4.4 -0.5,5.2 -1.6,0.6 -0.4,0.3 0,0.2 0.2,1 0.1,0.4 2.5,1.6 0.1,0.9 -0.2,1.5 0,0.3 5,2.8 0.7,-0.2 1.2,-0.5 0.5,0.3 -0.6,0.5 -0.7,4.3 0,0.1 0.5,0.4 -0.5,2.3 -0.6,0.8 -0.3,0.5 -0.7,0.2 -1.3,0.7 -2.9,2 -1,1.3 0,0.1 0,0.6 1,3.1 0.9,1.2 1.8,2.6 0.2,0.2 0.2,0.3 1,0 -0.5,0.7 -4.4,3.5 -0.3,0.3 -0.8,-0.3 -0.9,-0.7 -1.5,-0.6 -4.1,-0.4 -0.5,0.1 -0.6,0.3 -0.6,0.7 -0.2,-0.2 -0.9,-0.4 -0.5,-0.3 -1.2,-1.2 -1,-1.6 -0.8,2.5 -1.7,1.7 -0.6,0.2 -0.4,-0.1 -0.3,-0.3 -0.2,-0.5 -0.6,-3.8 -0.3,-1.4 0.1,-0.5 -1.2,-2 -2.2,-1.6 -2.4,-0.9 -1.4,-0.4 -4,-0.4 -1.4,0.9 -0.1,0.2 0.4,0.4 0.6,0.8 0.5,1.9 0,0.3 -0.1,0.4 -1,1.5 -1.7,0.3 -5.5,-1 -1.1,-1.3 -0.6,-1.3 1.4,-1.8 -0.5,-1.3 -2.1,-1.3 0.1,-1.8 0,-0.2 -1.3,-3.2 -1.9,-1.6 -1.6,-0.9 -0.3,-0.4 -1,-1.1 -0.3,-0.5 -1.4,-2.5 -0.1,-0.2 -1.5,-6 -0.1,-0.4 0.1,-0.3 0.7,-0.5 0.6,-0.2 -0.4,-0.6 -0.6,-0.6 -0.5,-0.3 -4.2,-3.4 -2.4,-0.8 -1.6,0.3 -0.4,0.2 -0.7,0.1 -1.2,0 -0.5,-0.6 -0.4,-6.2 0.1,-0.2 0.3,-0.5 1.3,-1.4 z"/>
	<path class="RheinlandPfalz" d="m 145.2,448.3 -0.9,1 -0.1,0.4 -0.1,0.6 0,0.9 0.9,4.8 0.2,0.2 0.3,0.3 1.2,0.7 0,0.6 -0.4,1.2 -0.7,1.8 -0.3,0.7 -0.8,1.8 -0.2,0.4 -0.7,0.2 -1.1,-0.4 -1,-0.3 -0.5,-1.1 -1.2,-0.4 -0.3,-0.1 -0.6,0.2 -0.4,0.1 -2.4,2.9 -0.5,1 -0.5,2.5 0,0.3 0.5,1.3 0.8,1 -1.8,4.9 -0.3,0.8 0.5,0 5.3,3.5 2.7,4.9 0.2,0.4 0.1,0.1 0.7,2.3 0.1,0.4 0,1.9 -2,1.2 -2.1,-0.9 -0.7,-0.1 -0.9,0.3 -1,1.3 0.3,0.5 1.6,1.6 0.4,0.3 0.1,0.1 -1.7,1.9 -0.3,0 -1,-0.2 -1.8,-1.1 -4.3,1.9 -0.4,0.1 -0.6,0.5 -1.5,2 -0.1,0.1 0.1,1.3 0.4,0.5 0.5,0.4 0.8,0.6 1,0.9 0.1,0.3 -0.4,3 -0.3,0.4 -2.3,-0.6 -0.4,-0.2 -4.1,3.5 -2,1.1 -1,0.2 0.7,1.9 5.4,7.6 0.5,0.3 0.3,0.1 0.3,0.1 3.4,-0.1 1.9,-0.4 0.3,0 7.1,-2.7 4.1,-1.9 2.5,-0.8 0.9,-0.1 1.1,0.2 1.8,0.3 c 4.6,2.6 6.1,7.5 7.8,12 l -0.1,0.5 0,0.4 -0.3,0.6 -0.4,0.6 -0.1,0.3 -0.1,0.5 0,0.3 0.2,0.8 2.2,5.7 0.3,0.5 1,1.4 0.5,1 2.8,2.9 0.4,2.3 -0.7,1.1 -0.1,0.2 -0.1,0.3 -0.4,0.5 -0.5,0.4 -0.4,0.3 -0.4,0.1 -1.5,0.3 -0.7,0.3 -0.5,0.3 -0.5,0.3 -0.6,0.5 -0.2,0.1 -0.2,0.4 0,0.2 -0.2,1 0.1,0.4 1.6,5.2 0.5,0.9 1.6,2.4 0.5,1.2 -0.1,1.1 -0.4,0.7 -0.1,0.5 0,0.4 0,0.4 0.1,0.3 0.4,0.9 1.1,4.4 0.1,0.6 0.5,3.2 -0.3,0.2 -0.2,0.2 -0.1,0.3 0,0.4 0.1,0.2 0.2,0.2 0.2,0.2 0.3,0.1 0.5,0.1 0.7,0 1,0 0.6,0.1 0.3,0.2 0.4,0.3 0.1,0.4 0,0.3 -0.8,2.1 0.1,2.3 0.1,0.8 0,0.6 -0.3,0.9 -0.4,0.9 -0.6,0.8 -0.5,0.6 -0.4,0.3 -0.4,0.3 -0.6,0.5 -0.2,0.3 -0.1,0.3 0,0.2 0,0.5 0.1,0.3 0.2,0.3 0.2,0.1 1.1,0.4 0.2,0.1 0.4,0.3 0.2,0.4 0.1,0.5 0,0.4 -0.1,0.3 -1.4,0.6 -1.8,2 -0.5,0.5 -1.4,0.9 -0.6,0.3 -0.5,0.5 -0.3,0.4 -0.3,0.5 -0.2,0.7 0,0.7 0,0 0.1,0 0.1,0 0.2,1.8 -2.4,10.3 -0.2,0.5 -0.4,0.7 -0.7,0.8 0,0.1 -1,1 -0.7,1.1 -0.4,0.6 -0.4,1.2 -0.2,0.9 -0.2,1.4 -0.1,0.3 -0.1,0.3 -0.4,1 -0.3,0.5 -0.3,0.5 -0.4,0.4 -1.1,0.8 -1.6,1.2 -0.4,0.3 -0.3,-0.6 -0.2,-0.3 -0.1,-0.1 -3.5,-0.4 -0.3,0.1 -1,0.1 -0.8,-0.2 -3.1,-1.2 -1.6,-0.8 -0.1,-0.2 -0.7,-0.9 -0.7,-0.7 -5,-2.4 -3.2,-0.9 -1.4,-0.1 -0.9,-0.5 -5,-0.7 -3.4,0.7 -0.3,0.1 -1.9,0.1 c -4.5,0.3 -7.6,-1.8 -11.3,-4.1 l -0.9,-0.6 -1.4,-1.2 -2.05,-4 0,-0.8 0.2,-1.2 -0.2,-1.4 -3.2,-1.7 -2.3,0.5 -2,0.3 -1.1,0.3 0,0.5 0.1,0.3 0.2,0.3 -1,0 -0.3,-0.2 -0.1,-0.3 -1.8,-2.5 -0.9,-1.2 -1,-3.1 0,-0.6 0,-0.1 1,-1.4 2.8,-1.9 1.4,-0.7 0.6,-0.3 0.4,-0.4 0.6,-0.8 0.5,-2.3 -0.6,-0.5 0,-0.1 0.8,-4.3 0.6,-0.5 -0.5,-0.4 -1.2,0.6 -0.7,0.2 -5.1,-2.9 0,-0.4 0.3,-1.4 -0.1,-0.9 -2.5,-1.7 -0.2,-0.3 -0.1,-1 0,-0.2 0.3,-0.3 1.7,-0.5 0.5,-5.2 -0.1,-4.4 -0.1,-0.8 0,-0.2 -0.5,-1.1 -0.4,-0.7 -0.1,-0.3 -0.5,0.4 -1.1,0.6 -0.8,0.3 -0.8,-0.2 -6.1,-3.2 -3.3,-3 -2.6,-1.7 -0.5,0.6 -0.6,0.4 -1.6,0.7 -0.2,0 0,-0.2 0.2,-0.7 0.1,-0.3 -0.9,-0.2 -2,-0.2 -0.4,0.1 -3.1,1.8 -0.1,0.1 0,0.1 0,0.1 -0.4,0 -1.9,0.7 c -4.33,2 -7.03,4.4 -11.8,5.7 l -7.1,1.3 -4.3,-0.3 -1.4,-0.2 -7,-2.2 -0.5,-0.3 -1.4,-2.1 0,-0.2 0.1,-0.1 1.4,-2 0.4,-0.4 0.2,-0.1 0.5,-0.1 0.3,-0.1 0.2,-0.2 1.3,-1.3 5.8,-9.4 1.5,-5.2 0,-0.6 -0.6,-4.2 -2,-1.4 -1.5,1 -1.4,0 -0.2,0 -1.8,-1.1 -0.2,-0.2 -3.1,-3.1 -5.6,-3.4 -1.8,-2.1 -3.3,-5.5 -0.5,-1 -0.3,-0.8 -1.2,-2.9 -1.5,-6.1 0.3,-3 2,-7.1 2.5,-2.1 -0.3,-4.2 0.2,-1.4 0,-0.1 0.1,-0.2 7.5,-4.8 0.3,-0.9 1.2,-2.5 0.4,-0.2 1,-0.2 2.2,1.1 2.8,-0.7 1.5,0.1 -0.7,-1.1 -0.5,-0.8 -0.2,-0.5 -0.7,-2.7 -0.3,-1.3 1.9,-0.5 2.1,2 0.1,0 0.7,1.1 4.9,-0.7 4.6,-1.6 1.3,1.3 0.2,0.2 3.8,1.6 3.2,0.9 3,-0.9 0.7,0.1 0.6,0.1 -0.9,-1.5 -1,-1.8 -0.1,-6 3.3,-2.1 0.3,0.3 2.4,1.6 0.7,-0.2 2.4,-1.1 1.9,-7.7 0.2,-1.4 2.2,0.3 0.7,0.1 1.7,-0.8 0.2,-0.2 1.1,-1.1 0.9,-1.1 2.5,-0.4 5.3,-1.2 1.7,-0.5 1,-1 0.1,-0.1 0.3,-1.4 0.1,-0.5 0.3,-0.6 0.3,-0.1 0.5,0 0.1,0.3 0,0.4 -0.1,1.6 0,0.4 2.9,0 1.6,-0.3 0.9,-0.3 2.7,-0.8 1.4,-0.7 0.2,-0.4 0.5,-2.1 0,-1.6 -0.1,-1.4 0.5,-1 0.4,-0.5 2,-0.1 2.05,0.7 0.3,-0.2 0.8,-0.4 13.1,-4.7 0.5,-0.4 1.1,-1.4 0.3,-0.8 -0.1,-1.6 -0.3,-0.3 -1,-0.9 0.7,0.2 0.3,0 1.5,-0.6 0.2,0 2.3,-2.2 1.3,-1.8 -0.6,-4.9 0.5,-0.6 2.4,-2.1 0.4,-0.2 1.3,0.3 2.4,1.6 -0.5,0.8 -0.5,0.8 -0.5,1.6 -0.1,0.4 0,0.3 0.1,0.5 2.3,0.6 1.1,0.2 4.9,2.8 0.3,0.3 0.2,0.3 0.6,1.3 0,0.6 -0.3,2.1 0,0.2 -0.4,0.4 -0.1,0.7 0,0.9 0.2,0.9 0.3,0.5 0.6,0.8 0.2,0.3 1.5,1.4 1.5,1.5 0.4,0.5 0.1,1.5 -0.3,1.5 2.6,-0.9 1.3,0.4 0.7,0.6 1,1.2 z"/>
	<path class="NordrheinWestfalen" d="m 231.5,350.8 -1.3,2.2 -3.8,4.6 -3.2,5.3 -4.5,3.5 -4.3,3.5 -0.7,1 -0.6,1 -0.6,0.1 -2.7,-0.1 -0.6,-0.2 -0.3,-0.2 -0.2,-0.3 -0.6,-1.6 0.8,-1.8 -1.2,-1.9 -2.9,-1.3 -1.2,0.1 -2.2,0.5 -1.6,0.6 -2.9,1.2 -0.7,0.7 0,0.4 0.2,0.7 2.5,4.1 0.6,0.2 0.3,0.1 0,0.3 0.2,1.3 -0.8,2.5 -0.1,0 -3.5,-0.2 -4.1,0.1 -3.8,1 -5,1.5 -2.9,1.9 -1.1,0.7 -1.1,1.4 -2.6,3.7 -0.6,0.9 2.1,2.9 0.2,0.2 0.3,0.1 0.7,0 0.2,0 0.9,-0.7 4.6,-2 0.7,-0.1 0.9,0 0.9,1.2 0.1,0.3 0.7,6.3 0.2,2 -0.1,0.4 -0.3,0.7 -2.8,6.2 -3.2,1.2 -0.4,0 -1.2,-0.2 -0.7,-0.3 -1.7,-0.3 -2.8,-0.2 -0.2,0.1 -1.2,0.5 -0.2,0.1 -0.7,0.7 -0.6,0.5 -0.4,0.6 0,0.2 0.1,0.3 1.1,3.3 0.6,1.4 0.4,0.8 -0.5,0.7 -0.4,0.4 -1,0.9 -1.4,1.5 -0.8,1 -0.1,0.1 0,0.3 0.2,0.3 -0.1,0 -0.6,0 -0.1,0 -0.4,0.3 -0.1,0.2 -0.6,2.6 -4.2,6.5 -1.2,1.2 -0.1,0.1 -0.5,0.1 -0.2,-0.1 -4.1,-2.1 -0.2,-0.1 -1,0 -0.2,0 -0.2,0.1 -9.4,9.4 0.4,1 0.4,0.8 0.7,1.5 0.8,1.1 0.2,1 0,0.3 -2,3.7 -0.8,1 -1,-1.2 -0.7,-0.6 -1.2,-0.4 -2.7,0.9 0.3,-1.5 -0.1,-1.5 -0.4,-0.5 -1.5,-1.5 -1.4,-1.4 -0.3,-0.3 -0.6,-0.8 -0.3,-0.5 -0.2,-0.9 0.1,-0.9 0,-0.7 0.4,-0.4 0.1,-0.2 0.2,-2.1 0,-0.5 -0.6,-1.4 -0.2,-0.3 -0.3,-0.3 -4.9,-2.7 -1.1,-0.3 -2.3,-0.6 -0.1,-0.5 0,-0.3 0.1,-0.4 0.5,-1.5 0.5,-0.9 0.5,-0.8 -2.4,-1.6 -1.3,-0.3 -0.4,0.2 -2.4,2.1 -0.5,0.6 0.6,4.9 -1.2,1.8 -2.4,2.2 -0.1,0 -1.6,0.6 -0.3,0 -0.7,-0.1 1,0.8 0.3,0.3 0.1,1.6 -0.3,0.8 -1.1,1.4 -0.4,0.4 -13.1,4.7 -0.9,0.4 -0.3,0.2 -2.05,-0.7 -1.9,0.1 -0.5,0.5 -0.5,1 0.1,1.4 0,1.6 -0.5,2.1 -0.2,0.4 -1.3,0.7 -2.8,0.8 -0.8,0.3 -1.6,0.3 -3,0 0,-0.4 0.1,-1.6 0,-0.4 -0.1,-0.3 -0.5,0 -0.2,0.1 -0.3,0.6 -0.1,0.5 -0.4,1.4 -0.1,0.1 -1,1 -1.6,0.5 -5.3,1.2 -2.6,0.4 -0.9,1.1 -1,1.1 -0.2,0.2 -1.8,0.8 -0.7,0 -2.1,-0.4 -0.3,1.4 -1.8,7.7 -2.4,1.1 -0.7,0.2 -2.4,-1.6 -0.4,-0.2 -3.2,2 0.1,6 0.9,1.8 0.9,1.5 -0.5,-0.1 -0.8,-0.1 -3,0.9 -3.1,-0.9 -3.9,-1.6 -0.1,-0.2 -1.3,-1.3 -4.7,1.6 -4.8,0.7 -0.7,-1.1 -0.1,0 -2.2,-2 -1.9,0.5 0.4,1.3 0.7,2.7 0.2,0.5 0.4,0.8 0.7,1.1 -1.4,-0.1 0.3,-1.2 0,-0.1 -0.5,-0.9 -2.4,-2.9 -0.1,-2 0.6,-1 0.3,-0.8 0.5,-2.5 0.1,-0.7 -0.1,-1.1 -0.1,-0.5 -1.7,-2.9 -0.5,-0.7 -1.1,-0.8 -0.2,-0.2 -0.3,-0.3 -2.5,-0.4 -1.2,0 -0.2,0.1 -0.5,0.3 -0.9,0.4 -0.1,0.1 -0.1,-0.1 -2,-2.8 -0.3,-0.5 -0.5,-1.6 -0.1,-1.5 0.1,-0.2 3.3,-3.2 0.8,-3.6 -3.5,-0.9 -0.9,-1.1 0.2,-0.1 1.1,-0.4 -0.8,-0.8 -0.5,-0.6 -1,-1.7 -0.2,-0.5 -0.1,-0.4 -1.4,-3.4 -0.3,-0.3 -0.2,-0.2 -4.394,-2.5 -2.7,-4.4 1.6,-5.2 0.2,-0.8 1,-0.3 1.094,-0.4 0.4,0.1 0.1,0.3 1,0.5 1.1,-2.6 -0.1,-0.7 -0.3,-0.4 -0.3,-0.5 -0.1,-0.5 0.4,-1.5 0.1,-0.2 0.4,-0.4 0.1,-0.2 0,-0.4 -0.7,-0.3 -1.4,-0.6 -2.394,-0.9 -0.1,-1.3 0,-1.5 0.6,-1.2 0.294,-0.9 0,-0.1 -0.494,0 -3.9,-0.4 -2.6,0.6 -0.9,-1 -1.4003,-3.1 -0.6,-3 0,-0.5 0.1,-0.1 3.0003,-1.4 6.2,-2 7.894,-5.3 1,-2.8 2.4,-1 0.4,-0.2 -1,-0.9 -1,0.5 -1.7,0.7 -0.5,0.4 -0.1,0.1 -0.2,0.2 -0.4,0.2 -0.3,0.1 -0.5,0 -0.2,0 -0.5,-0.1 -0.5,-1.1 -0.1,-3.2 1.2,-3.5 7.2,-9.1 2.3,-2.5 -1,-3.6 0.7,-3.2 0.5,-1.5 0.3,-2.3 0,-0.6 -0.5,-4 -0.6,-1.4 -2.6,-4.2 -0.7,-0.5 -3.3,-3.8 0.3,-1.1 -0.2,-4.5 -3.2,-1.4 -0.3,-0.5 -0.1,-0.1 -1.9,-6.2 -1.5,-7.1 1.5,-2.5 4.4,-1.9 2.2,0.1 4.9,-0.7 2,-1.3 4.9,0.2 0.3,0.1 0.7,0.3 0.6,0.5 3,1.9 2,1.7 1.2,0.7 0.5,0.1 -1.1,-3.5 -0.1,-0.4 0.3,-0.9 0.1,0 2.2,0.9 4.8,0.1 0.9,-0.5 1.5,-0.8 2.9,-1.1 5.8,-2 0.6,-0.1 0.5,0.3 0.3,0.5 1.4,1.4 0,0.1 0.7,-0.3 1.3,-0.8 1.2,-0.9 1.2,-1.3 2.7,-3.4 0.3,-0.6 0,-0.3 -0.1,-1.3 -0.2,-0.8 -4.5,-3.8 -2.4,-1.3 1.4,-3.5 1.6,-2.4 5.7,-1.9 0.5,0 0.8,-0.8 0.4,-0.4 0.4,-1.6 0.2,-0.8 1.8,-2 7.7,-4.8 2.5,-1.5 2.1,-0.1 0.7,-1 0.2,-0.2 0.7,-0.6 2.1,-0.5 2.6,0.3 1.3,0.1 5,0.3 0.9,-1.1 0.4,-0.6 0.8,0 0.95,-0.2 1.1,-0.5 0.2,-0.5 0.4,-0.7 0.6,-0.5 3.7,-2.8 4.2,-2.5 1.7,-1 0.3,0 0.3,-0.1 2.3,-1.1 1.8,-3.2 0.1,-0.7 -1.3,-0.7 -0.7,-0.5 0.5,-1.5 0.3,-0.8 0.6,-1 0.8,-1 0.2,0.1 4.7,1.8 0.1,0.2 0.2,0.2 0.5,1.1 1.6,4.5 5.1,3.1 2.2,0.3 1.3,-0.6 0.3,-0.1 1.5,-0.4 2.8,1.7 1,1.7 0.7,2.5 -2.1,2.2 -0.1,0.4 -0.1,0.5 0.1,0.6 0.2,0.2 1.3,1.4 -1,0.7 -2.8,5.8 0,0.1 0.2,0.8 0.3,1 0.3,0.5 1.2,0.8 0.1,0.1 2.3,0.4 2,1.9 0.2,4.1 -3.2,1 -3.7,1.2 -1,0.7 0,0.1 0.3,0 1.4,2.3 0.2,1 1.1,0.6 1.8,0.8 1.1,0.4 0.6,-0.9 0.4,-0.6 2.3,-1.7 0.2,0 1.5,0.1 1,0.1 1.1,0.3 0.3,0.7 2.3,-1.5 1.6,-0.3 4,-2.9 1.7,-1.7 1.4,-1 0.6,0.1 2.9,0.6 2.5,0.9 3,0.3 -0.3,-0.7 -0.1,-0.6 0.1,-0.3 0.3,-0.5 0.5,-0.4 2.2,-1.5 0.1,0 0.7,0 0.3,0 0.6,-0.3 0.2,-0.2 1,-1 0.5,-0.6 0.6,-0.9 -1.2,-0.6 -1.2,-0.4 -0.4,0 -0.3,-0.2 -0.7,-0.6 -0.6,-1.1 -0.1,-0.2 1.1,-4.4 0.5,-1 -0.2,-3.3 0.1,-1.8 -1.5,-4.6 -2.2,-1.7 -5.2,-3.9 -0.7,-3.2 -0.5,-1.1 0.4,-0.3 0.5,0.1 2.4,0.7 0.3,0.3 -0.1,0.1 0.5,0.6 3.4,-0.3 1,-0.1 1.5,-1.3 0.1,-0.4 0.2,-1.3 0.1,-1.4 3.1,-2.4 3.1,1.5 5.9,-3 2.2,1.6 0.7,0.7 0.2,0.6 0.1,0.3 -0.3,1.3 0.2,7.7 0.2,1.4 0.5,0.4 1.9,0.8 6.7,-0.1 5.1,-1.1 0.2,-0.1 2.9,-3.7 2.1,-2.8 0.8,-1.4 1.6,-2.1 2.3,0.6 2.7,1.2 0.2,0.7 0.1,0.2 -1.8,4.1 0.9,2.3 -0.1,0.7 -0.2,0.5 -1.5,3.1 -0.8,1.5 -0.1,0.1 -0.7,0.7 -0.8,0.4 -1.2,0.2 -1,0.5 -1,0.7 -0.7,0.4 -2.3,4.8 0.6,1.5 0.1,0.2 0.3,0.1 1.6,0.4 2,0.8 2.5,1.7 0,0.3 -2,4.9 -1.5,0 -2.3,-1.3 1.9,2.6 3.5,2.6 3.5,0.7 0.9,0.3 0.2,0.1 0.5,0.6 0.4,1 -0.3,2.2 1.3,1.2 1,1.6 -0.2,0.1 -0.5,0.3 -0.4,0.7 -0.1,0.2 0,1.8 0.3,6.2 0.6,1.5 5.6,4.1 0.9,0.5 1,-0.1 0.1,-0.1 0.3,0.1 1.1,0.6 0.1,0 0.4,0.9 0.4,1.3 -0.1,0.6 -0.1,1 -0.5,2.4 -0.3,0.2 1,-0.7 0.4,-0.2 0.6,-0.2 0.2,0 0.5,0.1 1.4,0.6 0.6,0.3 1.8,1.8 -0.1,3.4 -1.2,3 -1.8,5.6 -0.9,7.2 0.5,0.4 0.3,0.1 0.2,0 1.6,-0.1 0.1,0 0.5,-0.3 0,0 0.6,-0.2 0.3,0 0.1,0.1 z"/>
	<path class="Niedersachsen" d="m 177,149.4 -0.9,-2.2 -1.2,-3 0,-2 0,-1.3 0.1,-0.6 3.7,-11.5 c 1,-2.9 2.4,-5.4 4.6,-7.6 l 1.8,-0.6 1.3,-0.3 1.1,-0.1 0,0.6 0,0.3 0.2,0.3 1.5,1.8 c 2.2,1.8 4,3.1 6.7,3.4 l 5.1,0.4 1.6,-0.3 0.3,-0.1 0,-0.1 0.1,-0.1 0.2,-0.1 2.1,-0.5 0.6,0 2.1,0.6 -0.5,-0.7 -0.7,-1.9 -0.5,-1.3 0.9,-0.3 0.8,-0.3 0.9,-0.2 1,0 3.2,0.2 3.6,0 2.1,0 1.9,0.3 3.5,1.5 1.8,1.3 2.4,3.4 0.5,1 1.8,3.9 0.8,1.8 c 0.9,2.2 2.7,3.4 4.5,4.8 l 1,1.1 0.4,0.6 c 1.5,2.2 1.1,4.8 2.1,7.1 l 0.4,0.6 2.3,1.8 5.4,3.5 1.6,0.6 1.7,0.1 2.7,0.4 c -0.6,3.5 0.1,5.1 1.5,8.1 l 0,0.6 3.4,3.5 0.3,-0.1 0.8,-0.6 1.3,-1.4 0.3,-0.2 0.3,0.2 0.7,1 2.2,2 1.5,1.3 0.5,-0.1 2.8,-2 0.2,-0.9 0.6,-1.3 0.5,-0.8 c 2,0.9 3,2.6 4.4,4.2 l 2.6,2.4 0.4,0.3 0.4,0.1 3.2,0.1 0.4,-0.1 0.2,-0.1 0.2,-0.2 0.6,-1.5 0.2,-0.3 0.2,-0.3 0.4,-0.2 2.2,-1.2 0.2,-0.1 0.2,0 1.6,0.9 5.9,2.7 2.4,1.2 0.8,0.6 0.9,0.6 0.6,0.2 4.1,1.2 0.5,0 0.3,-0.1 0.5,-0.3 0.1,0 -0.1,0 0.7,-0.5 0.6,-0.2 1.1,-0.1 4,0 0.2,0.1 0.2,0.1 1,0.8 0.6,0.6 1.3,1.5 c 4.5,6.6 6.6,2.2 10.1,-0.6 l 2.6,0.7 1.8,0.5 2.4,5.5 2.3,4.5 1.1,1.5 0.7,0.7 2.9,2.1 c 0.7,0.2 1.3,0.4 2,0.5 0.5,0 0.9,0.3 1.4,0.5 l 0.1,0.2 0.1,0.4 -0.3,0.9 -0.1,0.2 -0.5,0.6 -0.6,0.2 3.6,1.4 0.6,0.3 c 0.6,0.3 1,0.9 1.4,1.4 0.7,0.8 1,1.2 1,2.1 l 0,0.4 0,0.2 1,1.3 3,3.1 0,0.2 0,0 1,0 1,-0.9 2,-0.8 0,-0.2 0,-0.1 2,-0.5 1,-0.1 0,0.1 1,0.2 0,0.2 1,0.8 1,1.3 0,0.4 1,0.2 4,1 1,0 0,0.2 0,0.1 -2,3.6 0,0 -1,0 -1,-0.4 0,-0.5 0,-0.1 -1,0.2 0,0.6 -1,1 0,3.2 1,2 -1,0 -2,0.3 c -1.1,0.4 -1.4,1.2 -2,2.2 l -1,1.2 c -1.8,1.1 -4,2 -6,3 l -1,0.3 -3.5,-0.3 -0.3,-0.2 -0.1,0 -0.1,-0.2 0,-0.1 -0.1,-0.4 -0.3,-0.3 -0.8,-0.7 -3.9,-0.8 -9.2,-0.5 -0.4,0 -0.2,0.2 -0.4,0.3 -0.1,0.7 -0.1,0.7 0.1,0.5 0,0.1 -0.2,0.4 -2.8,3.1 -6.1,0.2 -2.7,0.6 -2,0.5 -0.6,2.2 0,0.2 0.2,2.3 -0.1,0.6 -0.1,0.6 2.6,7.2 2.7,1.9 3.7,5.3 2.8,5.4 0,0.1 c -0.3,1.2 -0.2,2.3 0.1,3.5 0.3,0.7 0.7,1.4 1.1,2.1 l 1.3,1.6 1.9,2.2 -1.8,0 -2.2,1.2 c -1.2,3.5 2.5,6.2 4.7,9 l 1.3,0.9 0.4,0 0.2,0.1 0.8,0.7 0.6,0.6 0,0.4 0,1.4 -0.1,0.2 -0.8,0.6 -1.1,0.5 -0.2,0.1 -0.5,-0.2 -1.3,1.7 0.4,4.2 0.1,0 c 0.9,1.1 1.8,2 2.8,3 l 1.4,2 0.5,0.9 0,0.1 -0.1,0.1 -0.5,0.8 c -2.2,0.1 -4.9,1.9 -3.6,4.3 l 0.4,0.3 0.7,0.4 c 0.4,0 0.9,-0.1 1.3,-0.1 l 0.2,0 0,0.1 0.2,0.4 -0.1,1.4 -0.2,0.3 c -1.3,2.2 -3,3.3 -5.1,4.7 -0.3,1.7 -0.4,3.4 -0.6,5.1 l -0.2,-0.1 -1.7,-0.2 -3.4,0.1 -0.5,0.1 -1,0.7 c -1.5,0.5 -3,0.6 -4.5,0.2 l -0.2,0 -5.1,0.2 -1,0.1 -1.9,0.7 -0.1,0.8 0.2,0.5 -0.1,0.2 0,0.2 -1.8,1.7 -4.2,0.5 1.7,2.4 3.7,2.8 -1.3,0.4 -0.7,1.1 -0.1,0.2 0.1,1.6 0.9,0.3 0.8,0.3 0.5,0.7 0.1,0.3 c 0.4,1.5 -0.3,2.8 -1.6,3.6 l -0.4,0.1 -2.2,1.8 -0.3,0.5 -0.2,0.5 c 0.1,2.6 -0.2,5.3 1,7.7 l 1.1,0.6 3,4.4 c 0.7,1.4 0.6,2.3 0.8,3.7 l 0.2,1.2 0.1,0.4 1.3,2.1 0.3,0.4 0.1,0 0.3,0.1 -0.1,0.2 -1.1,0.2 -0.3,-0.2 -2.1,5.7 -0.9,1.7 -4.6,1.1 -2.4,0.4 -0.6,-0.4 -1.2,-1.8 c -0.3,-0.3 -0.7,-0.5 -1.1,-0.7 -1.1,-0.3 -1.8,-0.7 -2.8,-1 l -0.2,0 c -1.7,0.2 -2.3,0.4 -3.1,1.8 l -0.9,1.9 0.4,0.2 0.1,0.1 -0.2,0.8 -0.2,0.3 -1.5,2.3 c -0.9,0.8 -1.8,1.5 -2.7,2.2 -4.2,3.6 -8.2,5.4 -13.4,6.5 l -6.6,3.9 -3.1,2 -0.5,0.2 -0.2,0.1 -0.2,-0.1 0.3,-0.3 c 0.2,-0.3 0,-0.9 0,-1.3 l -0.3,-0.6 -1.3,-2 c -2,-0.3 -4.7,0.4 -6.5,0.7 -1.8,1.1 -3.6,2.8 -5,4 l -1.1,1.5 1.8,2.8 1.7,-0.8 0.5,-0.2 0.1,0.2 0,1.3 -0.1,0.5 -0.2,1.2 -2.4,1.2 -0.1,-0.2 -3.3,-1.7 -5.3,-2.1 -1.8,-0.7 c -0.3,-0.7 -0.7,-1.3 -1.1,-1.9 l 0,-0.3 0.5,-2 0.2,-0.4 1.1,-1.7 c 0.7,-0.1 1.4,-0.3 2.1,-0.4 l 1.3,0.1 0.8,-1.2 0.1,-0.2 c -0.4,-2 -0.7,-3.9 -1.1,-5.9 -1.2,-1.1 -1.8,-2.7 -2.6,-4.1 l -0.1,-0.2 0,-0.1 0.2,-0.3 2.4,-2.7 1.5,-0.3 0.2,-0.3 c 0.6,-1 1.3,-1.2 2,-1.2 l 0.1,0 0.1,-0.2 c 0.4,-0.5 0.1,-0.7 0.1,-1.2 l -0.1,-0.2 c -1.3,-0.6 -2.2,-1.8 -3,-2.7 l -0.1,-0.1 -3.4,-1.7 c -1.4,0 -2.7,-0.1 -4.1,-0.1 -0.6,0 -1,-0.3 -1.5,-0.5 -0.3,-0.2 -0.2,-0.5 -0.3,-0.7 0,-0.6 0.3,-0.9 0.5,-1.4 l -0.1,-0.4 -0.1,-0.2 -0.3,-0.1 -3.3,0.8 -0.1,-0.1 -0.2,0 -0.6,0.2 -0.1,0 -0.4,0.2 -0.2,0.1 -1.6,0 -0.2,0 -0.3,-0.1 -0.4,-0.3 0.8,-7.2 1.8,-5.6 c 1.3,-2.2 1.3,-4.1 1.3,-6.5 l -1.8,-1.7 c -0.5,-0.5 -1.3,-0.7 -2,-0.9 l -0.5,-0.1 c -0.3,0 -0.5,0.1 -0.8,0.2 l -0.3,0.2 -1,0.6 0.2,-0.1 0.5,-2.5 0.2,-1 c 0,-1.1 -0.2,-1.8 -0.8,-2.7 -0.4,-0.5 -1,-0.6 -1.5,-0.7 l 0,0 -1.1,0.2 -0.8,-0.5 c -2.3,-1.8 -5.2,-2.8 -6.3,-5.6 -0.1,-2.7 -0.3,-5.3 -0.3,-8 l 0.1,-0.3 0.4,-0.6 0.5,-0.3 0.2,-0.1 c -0.5,-1.3 -1.3,-2 -2.3,-2.8 0.2,-1.2 0.4,-2.1 0,-3.2 l -0.6,-0.6 c -1.4,-0.6 -3,-0.8 -4.6,-1.1 -2.2,-1.4 -3.8,-3.2 -5.4,-5.2 l 2.3,1.2 1.5,0 2,-4.9 0,-0.2 -2.5,-1.7 c -1.2,-0.5 -2.4,-0.9 -3.6,-1.3 l -0.3,-0.1 -0.1,-0.1 -0.5,-1.6 2.2,-4.7 0.7,-0.5 c 0.9,-0.8 2.2,-1.1 3.2,-1.3 2.1,-1.3 2.8,-3.6 3.9,-5.9 l 0.2,-0.5 c 0.2,-1.1 -0.4,-2 -0.8,-3 l 1.8,-4.1 -0.1,-0.2 -0.2,-0.7 -2.7,-1.2 c -2.3,-0.9 -2.5,-0.4 -3.9,1.5 l -0.7,1.4 -5.1,6.6 -0.2,0 -5.1,1.2 c -3,0 -5.8,0.4 -8.5,-0.8 -0.8,-0.4 -0.7,-1 -0.8,-1.8 l -0.2,-7.6 0.3,-1.4 c -0.5,-1.6 -2,-2.4 -3.2,-3.2 l -5.9,3 -3,-1.5 -3.1,2.4 c -0.1,0.9 -0.3,1.8 -0.4,2.7 -0.2,0.8 -1,1.2 -1.6,1.7 l -1,0.1 -3.4,0.3 -0.5,-0.5 0.1,-0.2 -0.3,-0.3 -2.4,-0.6 -0.4,-0.1 -0.5,0.2 0.5,1.1 0.7,3.2 5.2,3.9 2.2,1.7 1.5,4.6 -0.1,1.8 c 0.4,3.2 -0.5,5.5 -1.4,8.7 l 0.1,0.3 c 0.3,0.7 0.8,1.2 1.4,1.7 l 0.2,0.1 c 1.6,0.2 2.9,0.9 2.2,1.9 -0.4,0.6 -1,1.1 -1.5,1.6 -0.2,0.2 -0.5,0.3 -0.7,0.5 l -0.4,0.1 c -1.1,-0.2 -2.2,0.9 -3,1.4 -0.4,0.2 -0.6,0.5 -0.8,0.9 l -0.1,0.4 0.2,0.5 c -2.1,1.4 -5.7,-0.5 -8.2,-1.1 l -0.6,-0.1 c -1.1,0.8 -2.1,1.8 -3.1,2.7 -2.2,2.2 -5.5,3.2 -7.8,4.7 -0.3,-0.7 -0.7,-0.7 -1.4,-0.9 -0.9,-0.2 -1.7,-0.2 -2.6,-0.3 l -0.2,0 -2.3,1.8 c -0.3,0.5 -0.6,0.9 -1,1.4 -3.4,-0.8 -4.1,-2.5 -5.6,-5 l -0.3,0 0.1,-0.2 c 2.3,-1.6 5.5,-2.2 7.8,-2.9 l -0.2,-4.1 c -1.3,-1.7 -2.3,-2 -4.3,-2.3 l -0.1,0 -1.2,-0.9 -0.3,-0.5 c -0.2,-0.6 -0.3,-1.2 -0.5,-1.8 l 0.1,-0.1 c 0.9,-2.8 4.3,-5.9 2.4,-7.9 l -0.2,-0.2 c 0.2,-2.4 2,-4.2 1.5,-6.2 -1.1,-2.3 -3.6,-3.4 -5.3,-3 -0.5,0.3 -1.1,0.6 -1.6,0.8 -10.8,-3.7 -7.7,-5.7 -9.6,-9.3 l -0.1,-0.2 -4.6,-1.8 c -1.3,0.4 -2.1,2.9 -2.5,4.2 l 0.7,0.5 c 3.3,1.1 -1.4,5 -2.9,5.8 -0.9,-0.1 -1.6,0.6 -2.3,1 -2.8,1.6 -5.3,3.4 -7.9,5.3 l -0.6,0.5 c -0.6,1.6 -2,1.8 -3.45,2 l -0.4,0.6 -0.9,1 c -3.26,-0.2 -5.75,-0.4 -8.9,-0.8 l -2.1,0.5 c -0.27,0.3 -0.53,0.5 -0.8,0.8 l -0.7,1 -2.1,0.1 -1.4,-1.6 c -1.24,-2.4 -0.48,-4.7 0.5,-6.8 l 0.6,-1.5 1.1,-1.4 0.1,-2.2 c -0.92,-3.5 -2.96,-6.5 -4.6,-9.7 l -0.1,-0.1 -0.2,-0.2 -0.7,0.4 c -0.47,1.2 -1.16,2.2 -2,2.8 l -0.4,0.1 -10.3,-2.9 c -1.84,-0.5 -3.21,-1.9 -4.7,-3 l 0.1,-0.3 0.3,-1.9 0.3,-1.2 c 0.84,-2.3 0.97,-4.6 1.2,-7 l -0.5,-4 2.2,-1.8 c 0.84,-0.3 1.72,-0.4 2.6,-0.6 l 0.4,0 c 4.34,0.2 9.34,0.5 13.1,1.7 l 0.2,0.3 0,0 0.4,0.3 1.7,0.4 0.1,0 0.3,-0.2 c 1.39,-2.3 1.11,-5.5 1.4,-8.1 l 0.4,-4.1 c 0.1,-3.4 0.83,-6.6 1.7,-9.8 l 2.1,-2.8 c 2.61,-3.2 4.21,-6.6 5.5,-10.5 l 0.5,-1.7 0.3,-1.2 c -0.54,-3.5 -0.6,-6.9 -0.3,-10.4 l -1.1,-0.9 c -0.65,-2.7 1.35,-5.2 2.4,-7.5 l 0.4,-5.5 1.1,-4.8 0.7,-2.1 0.1,-0.2 0.1,-0.1 0.5,-0.2 2.85,0 -0.3,-0.2 -2.25,-0.6 -1.3,-0.3 -0.9,-0.1 -3.1,-0.3 -6.9,-0.2 c -5.26,-0.4 -2.63,-4 -2.5,-7.4 l 1.6,-12.7 3.4,1.5 0.9,1.4 2,-1.9 1,-1.2 c -0.44,-0.9 -0.79,-1.7 -1.6,-2.2 l -1.7,-1.1 -0.5,-0.6 0.3,-0.9 4.6,-4.8 1.2,-1.2 c 1.24,-0.9 2.49,-1.9 3.8,-2.7 l 2.75,-1 1.4,-0.3 c 1,-0.2 1.9,-0.2 2.9,-0.3 l 7.4,0.6 c 0.9,0.3 1.7,1 2.4,1.4 l 0.4,0 1.8,-0.4 c 2.7,-0.9 5.5,-1.6 8.2,-2.4 0.5,-0.2 1,-0.2 1.4,-0.2 -0.1,0.3 0.4,0.3 0.6,0.4 l 1.1,0 1.2,-0.1 3.2,-1 6.2,-0.5 3.2,0.3 2.8,0.5 c 0.5,0.1 0.9,0.5 1.3,0.8 0,0.2 -0.1,0.5 -0.2,0.7 l -0.4,0.6 -0.1,0.7 0.3,2.3 0.3,0.9 0.5,1.4 2.9,0.4 0.2,0.3 0.6,0.8 0.5,1.1 3.4,7.9 c 0,0.1 -0.1,0.3 -0.1,0.4 -0.3,2.6 -2.7,2.8 -5,3.5 l -0.9,0 -1,-0.8 c -0.1,2.2 0.2,4 1.5,5.7 l 0.8,0.9 0.4,-0.2 0.8,-0.5 0.2,-0.1 c 2,-0.2 2.8,1.7 3.8,3.2 l 0.7,1.1 0,0.1 0,0.2 c 1.8,2.7 4.5,0.5 5.8,-1.3 l 0.4,-0.8 0.8,-1.8 0.3,-0.7 0.1,-0.8 0.3,-3.8 -0.1,-1.5 -0.1,-0.2 c -0.1,-0.5 -0.4,-0.7 -0.8,-0.9 l -1.6,0.6 -0.5,0.1 -2.2,-0.4 0.5,-4.1 c 0.2,-0.7 0.2,-1.3 0.3,-2 1,-2.1 2.8,-3.6 5.2,-3.4 l 1.4,0.9 0.4,0.6 0.8,1.4 0.9,1.4 1.1,0.6 3.7,1.7 0.6,0 0.5,0 1.4,0.2 0.8,0.1 1.9,1.2 0.1,0.2 c 0.2,0.4 0.2,0.8 0.3,1.2 -0.2,0.2 -0.4,0.4 -0.6,0.5 0.5,0.8 1.1,1.5 1.7,2.3 l 0,0.2 0,0.2 c -0.6,0.1 -0.2,0.6 -0.2,0.7 l 0.3,0.2 1.8,0.2 0.2,0 2.5,-2.7 c 0.2,-1.5 -0.5,-3 -0.8,-4.4 l 1.1,-5 c -0.5,-0.3 -1.2,-0.2 -1.7,-0.3 l -5.4,-0.3 -1,0 z m 27.6,49.8 -0.2,-0.5 -1.4,-1.7 -0.7,-0.5 -0.3,0 -1.2,0.7 -4.7,-0.2 -3.7,-1.8 -4.3,-2.2 -6.5,-0.8 -7.5,-4 -0.2,-0.8 -0.1,-0.7 0,0.8 0.2,1.3 0.4,0.8 0.4,0.6 0.7,1.1 1.5,1.2 2.4,1.2 0.8,0.3 0.9,0 0.8,0.2 0.4,0.3 0.2,0.5 1.6,4.2 0.1,1.5 0.9,0.5 2,2.2 0.5,0.6 0.1,0.6 0,2.6 0.5,0.5 0.6,0.5 0.3,0.1 1,-0.4 0.4,-0.1 1.3,0 5.4,1.8 3.1,1.2 3.2,-2.7 0.1,-2 -0.4,-4.8 -0.8,-1.2 0.1,-0.1 0.2,-0.1 0.9,-0.4 1,-0.4 z m -66.9,-68 c -0.4,-0.5 -0.8,-0.9 -1.2,-1.4 l 0,-0.2 c 0.3,-0.2 0.6,-0.3 0.9,-0.5 l 1.3,0 c 0.5,0 0.9,0 1.4,0.1 l 1.8,0.4 0.6,0.2 1.5,0.9 c 0.3,0.3 -0.2,0.5 -0.2,0.5 -1.7,-0.7 -3.6,-1.1 -5.4,-1.5 l -0.2,0 c -0.2,0 -0.2,0.3 -0.3,0.5 z m 9.3,3.2 -0.1,0 -0.4,-0.2 c -0.2,-0.2 -0.4,-0.4 -0.5,-0.6 l -0.5,-1.7 0,-0.4 0.8,-0.9 0.3,0.5 0.4,2.1 z m -20.7,-1.3 c -0.7,-0.1 -0.8,-0.4 -0.9,-1 0.2,-0.5 0.6,-1 0.9,-1.4 l 0.3,-0.2 c 1.1,-0.6 2.1,-0.4 3.4,-0.4 l 2.4,0.2 c 0.6,0.2 1.2,0.3 1.8,0.4 l 0.4,0.5 c -1,0.6 -2.6,0.6 -3.7,0.8 -2.2,-0.2 -3.4,-0.7 -4.6,1.1 z m -12.7,2.8 c -0.2,-0.1 -0.4,-0.3 -0.6,-0.4 l -0.1,-0.8 0,-0.8 0.1,-0.3 c 0.4,-0.7 0.9,-1.1 1.5,-1.4 1.3,-0.2 2.6,-0.1 3.9,-0.1 l 2.6,0.1 1,0.1 c 0.7,0.1 1,0.5 1.2,1.1 0,0.1 -0.1,0.1 -0.1,0.2 l -0.8,0 0,0 0.1,-0.2 c -0.7,-0.2 -1.5,-0.2 -2.2,-0.2 -0.6,0 -1.2,0.1 -1.8,0.1 -2.3,0 -3.2,1 -4.8,2.6 z m -2.3,0.1 -1.4,0 -1.6,-0.2 -1.4,-0.3 -0.3,-0.5 0,-0.1 0.1,-0.1 1.5,-0.6 0.2,-0.1 0.4,0 2,0.5 0.2,0 0.3,1.2 0,0.1 z m -17.35,1.6 -0.6,-0.5 c -0.18,-0.2 -0.27,-0.4 -0.4,-0.6 0.18,-0.3 0.47,-0.4 0.8,-0.6 l 1.4,-0.7 0.9,-0.2 0.6,-0.1 7.15,0 1.1,0.1 0.5,0.1 c 0.3,0.1 0.3,0.5 0.4,0.8 l 0,0 -0.9,0.4 -0.6,0.1 -7.65,1 -2,0.1 z m -15.5,2.7 c -0.63,0.1 -1.11,-0.2 -1.6,-0.5 -0.32,-0.3 0.27,-0.3 0.4,-0.4 l 2.1,-0.2 6.9,-0.7 3.1,0 0.9,0.2 0.1,0.2 0,0.1 0,0.3 -0.1,0.2 -0.1,-0.2 -0.1,0 -1.5,-0.1 -0.7,0 -0.7,0 -3.6,0.1 -4.6,0.8 -0.6,0.1 c -0.1,0.1 0.1,0.1 0.1,0.1 z m -9.7,10.5 c -0.39,-1.2 -0.97,-1.2 -1.9,-0.9 -0.1,0.2 0.1,0.4 0.1,0.6 -0.87,0.4 -2.3,-1.3 -3.2,-2 -0.73,-1 -0.86,-1.7 0,-2.4 l 5.2,-1.6 c 1.39,0.1 2.23,1 3.3,1.8 1.52,1.3 -3.58,1.8 -4.7,2.1 l 1.3,1.1 0.6,0.9 0,0 c -0.11,0.4 -0.61,0.3 -0.7,0.4 z"/>
	<path class="MecklenburgVorpommern" d="m 322,113.9 4.5,-3.1 3,-1.8 1,-0.4 0.4,-0.1 2.2,-0.5 0.7,-0.1 4.9,-0.2 0.3,0.2 0.4,0.3 3.3,3.8 -0.2,1.9 0,0.6 0.4,0.8 0.6,0.5 0.6,0.3 0.5,0.2 c 1.5,-0.8 2.7,-1.5 4.5,-1.9 l 2,1 1,0.6 0,0.9 0,0.2 1,0.5 1,0.8 1,0.4 2,-2.6 0,-1 0,-5.6 1,-1.8 1,-0.2 0,-0.3 2,-1.1 1,-0.3 0,-0.2 0,-0.4 1,-0.3 2,-4.2 0,-1.14 0,-0.25 0,-1.05 -1,-0.23 0,0 0,0.27 -1,1.31 -1,0.99 -1,1 0,0.9 -2,2.1 0,0.1 0,-0.1 -1,-0.9 0,-0.5 1,-0.5 0,-1.2 2,-2.37 8,-6.23 0,-0.1 0,0 1,0 c 3.9,0.1 7.3,0.87 11,0.12 l 7,-2.78 4,0.62 3,0.38 1,-3.39 2,-3.8 1,-0.45 1,-0.91 1,-1.13 4,-2.19 1,-0.7 0,-0.36 1,-0.43 0,-0.65 1,-0.57 0,-0.94 5,-7.92 2,-5.4 3,-3.8 1,1.44 1,0.36 1,0.12 4,0.53 3,0.41 8,-0.19 4,-0.31 1,-0.16 2,0 1,0.15 0,0.1 1,0.12 0,0.2 0,0.1 -3,1.71 0,0.23 -2,0.48 -5,0.32 -2,0.1 -2,-0.1 0,0 0,-0.19 0,-0.69 -1,-0.68 0,-0.13 0,0 -1,0.1 -4,0.84 -3,1.94 -9,3.26 -1,0.77 -2,6.45 -1,1.87 0,2.5 0,0.1 3,1.52 1,0.39 1,0.1 1,-0.18 0,-0.2 0,-0.2 0,-0.24 0,-0.18 -2,-0.25 0,0 0,-0.1 -1,-1.15 0,-0.86 0,-0.99 4,-3.63 4,-3.6 6,-2.9 5,1.03 5,2.13 2,-0.35 0,-0.25 2,-1.2 0,-0.21 0,-0.42 0,-0.45 0,-0.96 1,-1.55 0,-0.14 1,-1.23 1,-0.19 3,-1.42 3,0.23 4,6 -1,1.8 0,0.79 2,5.58 2,2.82 2,-0.98 1,-0.33 0,0 6,2.92 0,0.15 1,0.73 1,3.29 0,0.59 1,0.39 0,0.12 0,0 0,0.6 2,0 3,0.85 0,0.1 -2,1.49 0,0.68 c 0,0.41 0.7,0.2 1,0.2 l 0,-0.57 1,0 1,0.77 0,0.1 0,0.28 1,1.42 0,1.2 c 0.5,0.68 0.8,1.42 1,2.16 l 1,0.17 1,0.26 0,0 1,-0.16 c -0.1,-0.56 -0.6,-0.72 -1,-0.94 l 0,-0.65 -1,-1.57 0,-0.2 1,-0.76 0,-0.11 9,-2.94 4,-1.07 3,3.88 1,0.71 1,0.88 0,0.65 0,0.36 0,4.19 3,6.75 4,4.1 1,1.1 0,1.9 0,0.3 0,0.1 -1,-0.1 0,0 0,0.2 -1,0.3 0,0.9 -2,2.1 -2,2.1 c 0,0.7 0.7,1.2 1,1.7 l 6,3.6 2,1.5 2,1.5 c 0,0 4.7,1.8 7,2.6 0.6,0.3 1.3,0.5 2,0.6 l 3,0 1,0 c 0.6,-0.8 1.3,-1.3 2,-2 l 0,-0.8 c 0.7,-0.1 1.3,0.1 2,0.2 0.1,0.3 0.7,0.6 1,0.8 l 0,1.2 1,5.7 2,6.4 1,3.8 -1,2.8 0,0.1 0,1 1,1.9 1,2.2 0,0.1 2,2.3 0,2.2 1,4.9 3,7.4 0,0.7 0,-0.1 -1,0 -5,2.1 0,0.9 0,1.8 -2,2.9 -1,0.2 -3,0.4 -5,-0.2 c -1.6,0 -2.1,0.5 -1.8,-1.2 -0.1,-0.5 0.6,-0.8 0.8,-1.3 l 2,-2 0,-0.7 1,-1 2,-1.3 0,-1 1,-1.7 1,-1 0,-3 0,-2.8 0,-0.7 -1,-0.5 -6,-0.4 -1,1.4 -4,0.1 -3,-0.4 -3,0.6 -1,0.3 -1,-0.7 -2,-3.1 -1,-3.3 -5,-5.8 0,0.1 c -0.2,0.6 -1,1 -1,1 l 0,2.2 0,1.4 2,1.2 -3,2.5 -3,0.2 c -0.5,0.9 -1.2,1.6 -2,2.2 l -7,6.3 c 0,1.2 -0.6,2.4 -1,3.5 l -1,1.5 0,1.4 1,1.8 0,0.1 0,0.1 -2,2.9 -5,4.9 -1,0.4 0,-0.2 -1,-1.6 0,-0.9 -1,-0.2 0,-0.5 0,-0.1 -4,-0.1 -1,0.5 c -2.5,1.4 -2,2.8 -2,5.3 l -1,0.9 -1,-0.3 0,-0.2 -1,-1.7 -1,-0.7 0,-0.5 -2,0.2 0,0.1 -2,1.1 -1,0.4 -7,7.6 0,0.2 0,0 -2,-0.9 0,-0.1 0,-0.1 0,-0.4 1,-0.7 1,-0.7 0,-0.1 0,-0.5 0,-0.1 -1,-0.2 -7,0.2 -2,0.6 0,0.1 0,0.1 c -2.9,1.8 -4.2,-0.3 -6,-2.6 l -4,-3.2 0,-0.1 -8,-0.7 -2,0.4 0,0.5 0,0.2 -3,0.4 -3,-2.8 0,-1.4 -1,-0.8 -2,-1 -1,-0.4 0,-0.2 -1,-0.3 -2,-0.6 -4,-3 0,0 -6,1.2 -1,0.5 -2,-0.2 -1,-0.3 -3,2.9 1,1.8 -1,0.5 -3,2.7 -1,0.2 -5,1.9 -3,0.2 1,1.9 0,0.3 0,0.1 0,0.2 -6,1.3 0,0.1 -1,-1.5 -2,-0.9 -1,-0.1 -2,0 -1,0.5 -4,3.5 1,4.1 -1,2.5 0,1 -1,0.6 -2,0 -1,-0.3 -1,-0.3 0,-0.3 -1,-0.6 -3,0.4 -3,2.2 -5,-0.3 -1,-0.4 0,-0.4 -0.8,-1 -0.5,-0.3 -0.6,-0.3 -3.6,-1.5 0.5,-0.2 0.6,-0.5 0.1,-0.2 0.3,-1 -0.1,-0.3 -0.1,-0.2 -0.8,-0.5 -0.6,0 -0.9,-0.2 -1.1,-0.3 -2.9,-2.1 -0.7,-0.7 -1.1,-1.5 -2.3,-4.5 -2.5,-5.5 -1.7,-0.5 -2.6,-0.7 -1.4,1.1 -0.4,0.8 0,0.1 0,0.2 -1.1,0.8 -1.1,0.7 -0.9,0.5 -2.7,-1 -0.6,-0.4 -1.1,-1 -0.4,-0.6 -0.5,-0.6 -1.2,-1.5 -0.6,-0.6 -1,-0.8 -0.3,-0.1 -0.2,-0.1 -3.9,0 -1.1,0.1 -0.6,0.2 -0.7,0.5 1.8,-8.1 0.6,-1.3 1,-0.6 0.5,0 0.6,0.3 1.4,0.3 3.8,-2.9 0.4,-0.3 1,-1.1 2.1,-2.5 6.6,-8.7 0.4,-2.5 1.4,-1.9 -0.7,-3.8 -1.4,-1.4 -0.9,-0.5 -1.1,-0.2 -0.2,0 -0.2,0.2 0,0.1 -0.4,0.1 -1.3,0 -0.2,-0.1 -1.5,-0.9 -3.8,-3.6 0.4,-3.2 0.2,-1.5 -0.1,-0.5 -0.3,-0.9 -0.2,-0.4 -1,-2.5 0,-1.8 1.4,-2.3 5.2,-3.6 2.6,0.1 1,-2.1 -1,-3.1 z m 141.1,-77.64 -1,0.35 -1,1.44 -2,1.48 0,0.35 -3,7.46 0,0.2 0,0.87 0,0 1,-0.16 0,-0.19 3,-2.88 0,-1.69 0,-0.6 0,-0.89 0,-0.14 0,-0.12 2,-2.34 1,-0.3 0,0 0,0.44 0,1.21 0,0.31 0,0.59 0,1.01 -1,1.32 0,0.38 -1,0.57 0,2.04 0,1.03 3,-1.33 2,-1.19 7,2.81 0,0 0,0 2,-0.23 2,-0.75 0,5.18 0,2.82 0,0.1 -1,0 -1,0.1 -3,-0.86 -1,-0.34 -4,-2.33 0,-0.26 0,-0.33 0,-3.13 -3,0.12 -3,0.14 -1,0.25 -3,0.94 -1,0.52 0,2.66 1,0.88 2,-0.11 1,0.14 3,2.28 -1,1.64 0,0.13 -3,0.79 -1,0.21 -1,0.25 -1,2.58 0,0.55 0,0.14 0,0.19 6,1.16 0,0.14 -1,0.89 -6,2.87 0,0.23 0,0.4 -1,2.45 0,1.05 2,4.97 0,0.24 15,5.2 2,-0.96 0,-0.59 0,-0.72 0,-0.94 -1,-1 0,0 -1,0 0,0.2 0,0.17 0,0.24 0,0.13 -1,0.56 0,0.39 -1,0 0,-0.42 0,-1.2 4,-4.44 3,-3.16 1,-0.78 1,-0.13 10,-1.23 0,0.1 1,2.29 1,0.12 0,0.47 -1,0.43 0,0.13 -1,0.6 0,0 -1,0.49 0,1.54 3,-0.56 0,-1.78 2,-2.49 -1,-1.66 -2,-2.88 -1,-1.03 -1,-0.9 0,0.14 -1,0.11 0,0.1 -2,0.1 0,0 0,-0.18 0,-0.37 -1,-1.19 -2,-2.09 0,-0.65 0,-1.12 0,-1.46 0,-0.56 0,-0.34 0,-0.23 0,-0.11 2,-1.79 2,-1.76 1,-0.29 0,0 0,-0.44 1,-1.17 0,-1.05 0,-2.12 -1,-0.51 0,-0.63 -2,-0.94 0,-0.1 0,0 -2,0.17 -1,0.1 -2,0.47 0,0.14 -2,0.65 -3,0.52 -1,0 -1,-0.25 0,-0.14 -1,-0.32 0,-0.2 -1,-0.85 0,-0.97 -1,-1.09 0,-1.52 -1,-0.86 0,-0.32 1,-1.04 0,-0.48 0,-0.11 1,-0.26 0,-0.1 1,0 0,-0.13 0,-0.36 1,-0.47 0,-1.37 0,-0.1 0,-0.51 -1,-0.26 -3,0.27 -4,1.27 -1,0 z m -12,22.19 0,0.31 0,0 0,-0.25 0,-0.7 1,-6.09 1,-3.89 2,-1.15 -3,-1.06 -2,10.39 0,1.04 0,0.54 0,0.34 z m 4,1.5 5,-2.35 0,-0.41 0,-0.15 0,-0.92 0,-0.31 -2,-0.61 0,-0.1 -1,-0.1 0,0.17 -1,0.45 -1,1.12 0,0.36 -1,2.48 0,0.67 0,0.15 0,0.1 1,-0.53 z m -9,0.95 0,0 -1,0 0,0.1 0,0.15 0,0.13 0,0.14 0,0.26 0,0.22 1,0 3,-1.14 1,-0.58 0,-0.38 0,-0.55 0,0 -3,1.07 -1,0.42 0,0.62 0,-0.4 z m 51,25.44 -1,-0.17 c 0,-0.3 -0.7,-0.13 -1,-0.13 -0.5,0.24 -0.7,0.7 -1,0.96 l -1,0.21 0,1.7 1,1.06 0,0.26 2,2.23 0,0.13 1,5.02 3,5.69 0,0.2 1,0.1 0,0 4,-1.8 0,0 0,-1.1 c -0.6,-1.34 -1.2,-2.38 -2,-3.64 l 0,0 0,-0.1 4,0.3 1,1.33 c 1.1,0.96 2.3,2.11 3,3.21 l 1,0.4 0,6.3 -4,-0.7 0,-1.5 -1,-2 c -1.2,-0.7 -2.8,0 -4,0.3 l 0,3 2,1.5 0,0.8 c 0.5,0.9 0.9,1.8 1,2.8 l -1,1.1 0,0.9 0,0.2 c -0.7,0.4 -1.3,0.8 -2,1.3 l -2,0.6 c 0,0 -0.7,0.1 -1,0.1 l 0,0 -1,1.5 1,0.7 1,0.5 2,0.4 1,-0.1 2,-0.5 c 1,-0.2 2.4,-0.6 3,-0.9 l 5,-2.1 7,-0.8 0,0 1,0.1 1,-6 -4,-3.3 -4,-3.9 -5,-4.74 -1,-0.64 -2,-0.77 c 0,-0.37 -0.7,-0.24 -1,-0.27 -0.7,0 -1.3,-0.29 -2,-0.53 l -1,-1.03 -1,-0.32 c -1.1,-1.05 -1.9,-1.94 -3,-2.95 -0.4,-1.27 -3,-4.92 -2,-4.91 z m -140,24.56 1,-2.2 0,-1.2 0,-0.6 0,-0.1 -1,-0.2 -1,-0.2 -1,0.2 0,0.1 0,0.2 -3,1.2 -1,1.1 -1,0.6 1,1.1 0,0.6 0,0.5 0,0.3 1,0.3 0,0.1 3,0.7 z"/>
	<path class="Hessen" d="m 262.5,379 -0.2,1 0.1,1 0.6,2.1 1.4,3.5 1.3,1.5 3.4,1.3 2,0.8 1,3 4.5,2.3 1.7,0.5 0.8,0.5 0.6,0.5 1.3,1.3 1.2,0.3 0.3,0.6 -0.3,0.8 -0.6,0.4 -0.4,0.2 -0.3,0.3 -0.4,1.4 0,0.2 0.3,0.5 0.3,0 0,1.8 0,0.8 -0.2,0.2 -0.6,0 -0.4,-0.7 0,0 -0.2,-0.5 -0.4,-1.3 -1.1,-1.1 -2.6,0.7 -0.4,0.5 0.1,0.3 1.3,3 0.6,1.2 0.3,4.3 1.8,0.7 1,0.6 0,0.2 c 2.7,2.5 -1.1,5.3 -4,4.5 l -0.3,-0.1 -0.3,-0.4 -1.3,-0.7 -2.2,-0.3 -1.5,-0.2 -0.8,0.1 -0.3,0.2 -0.2,0.1 -0.1,0.3 -0.6,1.2 1.5,5 1,6 0,0.8 -1.6,4.1 -0.7,1.1 -1.4,0 -1.6,-0.2 -0.5,0.4 -1,1 -0.2,0.3 c -0.6,3.5 0.1,6.8 -1,9.3 -1.6,3.2 -3.6,5 -3.7,8.5 l 0.1,0.8 3.3,0.7 1.1,0.2 1,-0.2 0.5,-1.2 -1.2,-1.6 -0.1,-0.7 0.3,-0.3 c 3.7,-2.7 10.8,0.2 6.3,4.5 l -0.2,0.1 -0.4,0.7 -0.1,0.3 0.2,9.7 0,0.8 -0.3,1.7 -0.5,1.3 -1,1.4 -3.5,3.8 -1.6,0.8 -1.2,1 -1.2,0.7 c -1.8,1 -3.2,0.5 -5,-0.2 l -0.7,-0.6 -3.6,1 -0.3,1.6 -0.6,2.2 -0.2,0.3 -0.6,0.7 0.6,1 c 0.7,1.4 0.5,3.2 -0.3,4.5 l -0.7,0.8 c -2.2,2 -4.5,1.6 -6,4.3 l -1,2.4 -0.1,0.4 -0.1,0.1 -1.6,0.2 -0.8,0 -3,-0.8 -1.1,-0.4 -1.2,2.5 -0.4,3.5 0.7,4 c 0,1 0.3,1.5 0.7,2.3 0.1,0.7 -0.2,1.3 -0.4,2 l -5.1,1 -1.4,0.1 -0.2,0 -0.5,-0.4 -2,-4.3 -0.1,-0.1 -0.3,-0.1 -9.7,-2 -13.5,3.7 -0.1,0.1 -0.5,0.6 -0.7,1.2 -0.5,2.5 -0.7,1.3 1.3,1.1 0.3,-0.1 0.6,0.1 0.5,0.1 0.2,0.1 0.3,0.3 0.1,0.2 0.4,4 -1.6,1 0.4,0.5 0,0.2 0.4,3 0.1,3 0.1,2 0.4,3.1 0.1,0.2 0.7,1 -1,-0.1 -0.2,0 0,0.6 0.1,1.5 0.1,0.4 0.3,0.3 4.4,4.3 0.4,0 0.7,0.2 0.3,0.1 0.1,0.1 1.2,5.3 -1.6,4.2 -0.5,0.3 -1.4,3.7 -0.8,7 1,1.6 -0.2,1.6 0.1,0.2 -0.4,1 -0.1,0.2 -0.5,0.5 1.6,0.8 0.3,0.2 0.6,1.4 0,0.4 -0.3,0.4 -1,0.3 -1.5,-1.8 -1.2,-0.2 -5.6,1.8 -0.2,0.1 -1.1,0.7 -1.6,2 -0.4,0.7 -0.2,0.6 0.8,0.7 0.5,0.8 -6.4,6 -0.3,0.1 -0.1,0.1 -2,-0.1 -0.5,-0.1 -0.6,-0.7 -0.3,-0.8 0.4,-1 1.8,-3.7 2.3,-0.8 2.3,-2.1 -0.2,-1.3 0.2,-0.6 -2.4,0 -6.5,-1.3 -0.5,-0.2 -2.3,-1 -1.4,-1 -2,-7.6 0.4,-0.2 0,0.2 0.5,0.1 0.1,-0.1 0.5,-1 -0.1,-0.5 -1,-0.2 -4,1 -1.7,0.5 -0.3,0.6 0,0.8 0.2,0.4 0.6,-0.1 1,4.1 0,0.5 -0.1,0.5 -0.6,1.1 -1.8,1.4 -1,0 -0.3,-0.1 -0.4,-0.2 -1,-0.6 -0.6,-1 -0.4,-1.2 -2,-2.6 -1.5,-1.3 -0.5,-0.4 -1,-0.2 -0.3,0.1 -0.3,0 -1.1,0.5 -0.1,0.1 -0.5,-1.2 -1.6,-2.4 -0.5,-1 -1.6,-5.1 -0.1,-0.5 0.1,-0.9 0.1,-0.3 0.2,-0.4 0.1,-0.1 0.7,-0.5 0.5,-0.3 0.5,-0.3 0.7,-0.2 1.5,-0.3 0.4,-0.2 0.4,-0.2 0.5,-0.4 0.4,-0.6 0.1,-0.2 0.1,-0.3 0.6,-1 -0.3,-2.4 -2.8,-2.9 -0.5,-1 -1,-1.4 -0.3,-0.5 -2.3,-5.6 -0.1,-0.7 0,-0.4 0.1,-0.5 0.1,-0.4 0.3,-0.6 0.4,-0.6 0,-0.3 0,-0.5 -0.1,-0.6 -0.6,-1.9 0,-0.9 -0.5,-1.2 -0.5,-0.8 -0.3,-0.6 -0.7,-0.8 -1.3,-1.2 -0.8,-1.2 -0.4,-0.7 -0.7,-0.7 -1.2,-1.1 -0.6,-0.3 -1.8,-0.4 -1.1,-0.2 -0.9,0.1 -2.5,0.8 -4.2,1.9 -7,2.7 -0.3,0.1 -2,0.3 -3.3,0.1 -0.4,0 -0.2,-0.1 -0.5,-0.3 -5.4,-7.6 -0.7,-1.9 1,-0.2 1.9,-1.2 4.2,-3.3 0.4,0.1 2.3,0.7 0.3,-0.4 0.4,-3 -0.1,-0.4 -1,-0.9 -0.8,-0.6 -0.6,-0.3 -0.3,-0.5 -0.1,-1.4 0.1,-0.1 1.5,-2 0.6,-0.4 0.3,-0.2 4.4,-1.9 1.8,1.1 1,0.2 0.3,0 1.7,-1.8 -0.1,-0.2 -0.4,-0.3 -1.6,-1.6 -0.3,-0.5 1,-1.3 0.9,-0.2 0.7,0 2.1,0.9 2,-1.2 -0.1,-1.9 0,-0.4 -0.8,-2.2 0,-0.2 -0.2,-0.4 -2.7,-4.8 -5.3,-3.6 -0.5,0 0.3,-0.7 1.8,-5 -0.8,-1 -0.5,-1.3 0,-0.3 0.5,-2.4 0.5,-1.1 2.4,-2.8 0.4,-0.2 0.6,-0.1 0.3,0 1.2,0.5 0.5,1 1,0.4 1.1,0.2 0.7,-0.1 0.2,-0.5 0.8,-1.8 0.3,-0.7 0.7,-1.8 0.4,-1.2 0,-0.5 -1.2,-0.7 -0.4,-0.2 -0.1,-0.3 -0.9,-4.8 0,-1 0.1,-0.5 0.1,-0.4 0.9,-1 0.7,-1 2,-3.8 0.1,-0.3 -0.2,-1 -0.8,-1.1 -0.8,-1.5 -0.4,-0.8 -0.4,-1 9.5,-9.4 0.2,-0.1 0.2,-0.1 1,0.1 0.2,0 4.1,2.2 0.1,0 0.6,-0.1 0.1,-0.1 1.1,-1.2 4.3,-6.5 0.6,-2.6 0.1,-0.1 0.4,-0.2 0.1,-0.1 0.6,0 0.1,0.1 -0.3,-0.4 0,-0.3 c 1.2,-1.1 2.3,-2.5 3.4,-3.5 l 0.4,-0.3 0.5,-0.8 -0.4,-0.8 -0.7,-1.5 -1,-3.3 -0.1,-0.3 0,-0.2 0.4,-0.6 0.5,-0.5 0.8,-0.6 0.1,-0.1 1.3,-0.5 0.1,-0.1 2.9,0.2 1.7,0.3 0.7,0.3 1.1,0.3 0.5,-0.1 3.2,-1.2 2.8,-6.2 0.3,-0.7 0,-0.4 -0.1,-2 -0.8,-6.4 -0.1,-0.3 -0.8,-1.1 -0.9,0 -0.7,0 -4.6,2.1 -1,0.6 -0.1,0.1 -0.7,-0.1 -0.3,-0.1 -0.3,-0.2 -2,-2.9 0.5,-0.8 2.7,-3.8 1,-1.4 1.1,-0.7 3,-1.8 5,-1.6 3.7,-1 4.2,-0.1 3.4,0.2 0.2,0 0.8,-2.5 -0.2,-1.3 0,-0.2 -0.3,-0.2 -0.6,-0.1 -2.5,-4.2 -0.2,-0.6 0,-0.5 0.7,-0.7 2.8,-1.2 1.6,-0.5 2.3,-0.6 1.1,0 3,1.2 1.1,2 -0.7,1.7 0.6,1.7 0.2,0.2 0.2,0.2 0.6,0.2 2.8,0.2 0.6,-0.1 0.6,-1 0.6,-1.1 4.4,-3.5 4.4,-3.4 3.3,-5.4 3.8,-4.6 1.3,-2.1 3.3,-0.8 0.3,0.1 0.1,0.2 0,0.4 -0.2,0.5 -0.2,0.9 0,0.3 0.3,0.4 0.8,0.4 0.7,0.1 3.1,0.1 1,0 3.4,1.7 0.1,0.1 1.4,1.6 0.7,0.6 0.8,0.5 0.2,0.2 0.2,0.4 -0.3,0.8 -0.1,0.2 -0.1,0 -0.7,-0.2 -0.7,0.6 -0.6,0.8 -0.2,0.3 -1.5,0.3 -2.5,2.7 -0.1,0.3 0,0.1 0,0.2 2.1,3.5 0.5,0.6 c 0.5,2.6 1.8,5 0.3,7.3 l -1.3,-0.1 -1.6,0.3 -0.5,0.1 -1.1,1.7 -0.2,0.4 c -1.7,4.9 3.9,5.5 7.6,7 l 3.4,1.7 0.1,0.2 2.3,-1.2 0.3,-1.2 0.1,-0.5 -0.1,-1.3 0,-0.2 -0.6,0 -1.7,0.9 -1.7,-2.8 1,-1.5 4.4,-3.7 0.5,-0.3 0.1,0 3.2,-0.5 3.1,-0.4 0.3,0.2 1.3,2 0.3,0.6 0.1,1.2 -0.1,0.1 -0.4,0.3 z"/>
	<path class="Hamburg" d="m 250.8,155.3 0.4,-2.4 0.4,-1.5 0.3,-0.9 0.7,-2.1 0.2,-0.3 0.4,-0.1 -0.1,0.6 0.2,0.6 1.7,2.1 1,1 0.5,0.2 0.8,-0.4 3.5,-4.4 0.4,-0.5 0.3,-0.6 0,-0.3 0.1,-0.8 1.1,-0.1 1.3,0.1 0.2,0.2 1,0.2 0.5,0 0.7,0 4.9,-3.7 0.8,-2 -0.5,-0.6 1.4,-0.9 4.3,-2.1 0.3,0 0.2,0.1 1.3,0.7 -0.1,0.9 -0.6,1.4 0.1,4.7 0.8,0.9 1.6,2.1 -0.3,0.7 0,0.1 -1.3,2.7 -2,1.6 -0.7,0.7 -0.3,1.2 0.1,2 0.8,2.5 0.3,0.2 3.4,2.4 0.4,0.1 0.5,-0.1 -0.1,0.7 0.2,0.7 3.7,4.1 0.6,1 -0.2,0 -0.2,0.1 -2.2,1.2 -0.3,0.2 -0.3,0.3 -0.2,0.2 -0.6,1.5 -0.2,0.3 -0.2,0.1 -0.4,0.1 -3.2,-0.2 -0.4,-0.1 -0.4,-0.3 -2.6,-2.4 -1.7,-2 -0.4,-0.5 -0.5,-0.6 -1.8,-1 -0.5,0.7 -0.6,1.3 -0.2,0.9 -2.8,2.1 -0.4,0.1 -1.6,-1.4 -2.1,-2 -0.8,-0.9 -0.3,-0.2 -0.3,0.1 -1.3,1.5 -0.8,0.6 -0.2,0.1 -3.4,-3.5 -0.1,-0.6 -1,-2.2 -0.8,-0.9 0.3,-2.2 0,-2.8 -2.7,-0.4 z"/>
	<path class="Bremen" d="m 178.4,158 0.5,-0.3 0.2,-0.5 0.1,-0.3 -0.1,-0.7 0,-0.4 -0.1,-0.3 -2.2,-3.8 -0.9,-1.3 1,-1.2 0.9,-0.1 5.4,0.3 1.7,0.3 0.1,0.1 -1.1,4.9 0.9,3.9 -0.1,0.5 -2.5,2.8 -0.2,0 -1.9,-0.1 -0.3,-0.2 -0.1,-0.3 0.3,-0.5 0.1,-0.2 0,-0.2 -1.4,-1.8 -0.3,-0.5 z m 25.8,40.4 -1.3,-1.5 -0.7,-0.5 -0.3,0 -1.2,0.7 -4.7,-0.2 -3.8,-1.8 -4.2,-2.2 -6.5,-0.8 -7.5,-4 -0.3,-0.8 0,-0.7 0,0.7 0.2,1.3 0.4,0.8 0.3,0.7 0.8,1 1.5,1.2 2.4,1.1 0.8,0.4 0.9,0.1 0.8,0.2 0.3,0.3 0.3,0.5 1.6,4.2 0.1,1.3 0.9,0.7 2,2.1 0.5,0.7 0.1,0.6 0,2.6 0.5,0.5 0.5,0.5 0.4,0 1,-0.3 0.4,-0.2 1.3,0.1 5.4,1.8 3.1,1.2 3.2,-2.8 0.1,-1.9 -0.4,-4.8 -0.8,-1.2 0.1,-0.1 0.1,-0.1 1,-0.4 1,-0.4 -0.3,-0.6 z"/>
	<path class="Brandenburg" d="m 538,170.7 0,2 1,3.2 1,0 c 0,0.5 0.6,0.8 1,1.1 l 0,0.5 -1,2.1 -3,3.7 c -0.1,0.9 -0.6,1.8 -1,2.5 l 0,1.2 c 0.6,0.4 0.8,1 1,1.5 l 1,1.3 0,2.6 -1,0.5 0,3.2 -1,2.3 0,0.9 -1,0.4 -3,3.4 -1,1.2 -2,1.4 c -0.6,0.4 -1.3,0.6 -2,0.7 l -2,1.5 -1,1.4 0,0.9 0,1.8 1,3.9 0,0.7 0,1.3 -1,1.3 0,1.1 -1,1.1 0,0.6 c 0,0.4 0.6,0.6 1,0.8 l 0,0.5 2,0.2 4,1.5 8,5 1,1.5 c 3,1.9 3.7,4.8 6,7.1 1.3,0.8 2.8,1.7 4,2.3 3.6,1.2 5.3,3.4 8,6.1 l 0,8.1 0,0.6 0,0.3 c -1.4,1.7 -2.8,5 -5,5.7 l 0,3.3 -1,0.7 2,1.6 0,3.3 2,5.6 0,0.2 0,0.2 1,1.1 0,0.2 0,0.2 1,0 1,0 4,1.2 0,0 1,0.3 0,0.2 1,1.4 0,0.2 0,0.2 0,6.5 0,0.4 c -0.9,0.8 -1.8,1.4 -2,2.6 l 1,2.5 0,0.9 0,0.4 1,0.5 0,0.2 1,0 0,0.2 1,0.3 0,0.4 1,0.4 1,1.5 0,0.3 -1,3.3 0,0.2 0,0.7 -2,2.4 1,0.1 0,0.6 0,6 -1,3.4 -3,4 -1,1 -2,1.7 0,0.4 0,0.1 0,2.9 1,0.3 0,0.2 1,0.3 3,6.3 0,1.1 2,1.7 2,1.7 0,0.2 1,0.6 1,0.6 0,1.4 c 1.2,3.3 1,5.5 -1,8.3 -1,-0.9 -1,-0.8 -2,0 l 0,2.6 -1,0.2 0,0.6 0,0 -3,0.3 -1,0 0,-0.1 -1,-0.2 0,-1.4 -2,-0.9 -7,2.5 -1,0.2 0,1.3 c -0.4,-0.4 -2.2,0.2 -3,0.3 l -5,2.4 -3,-1 -4,-0.5 c -4.1,-0.1 -4.6,-0.5 -7,3 l -1,4.5 -2,5.5 -2,3.5 -8,1.5 0,0.1 -3,-0.1 -1,0.6 -2,1 -1,0.6 c -4.1,-1.1 -5.2,-0.7 -9,-0.6 l -2,0 0,0 -3,-0.9 -5,-3 -2,-1.7 -3,-2.1 0,-0.4 -5,2.4 -2,2.3 0,0.2 0,1 -2,0.5 0,0.1 -3,0 0,-0.4 0,-0.7 -2,-1.8 1,-3.7 0,-5.2 0,-0.7 0,-0.6 -1,-2.8 -2,-4.1 0,-0.8 -3,-1.4 0,0.3 -1,0.3 0,0.5 -1,-0.3 -2,-3.9 6,-4.3 1,-0.5 1,-2.6 0,-0.1 0,-0.5 0,-0.9 -1,-0.3 0,-0.4 -4,-11.7 0,-0.3 0,-0.2 c 2.1,0 2.7,-1 1,-2.2 l 0,-0.3 -1,0 0,0.6 0,0.3 -2,0.8 -3,-0.2 0,0 0,-0.2 -3,-3.2 -5,-2.6 -1,0.4 -1,0 -2,-0.6 -5,-2.8 0,-1.5 -1,0 c -2.1,-1 -3.9,-2.2 -6,-3.2 l -1,0 0,0.6 0,1.4 -2,1.2 -1,0.2 -4,-0.6 -7,-2.8 -5,-2.9 -1,-1.9 -3,-3.4 -2,-3.2 -3,-3.8 2,-4.1 -1,-4.1 1,-2.4 0,-0.5 0,-1.8 2,-2.6 0,-0.1 0,-0.1 1,-2.4 0,-3.5 -1,-2.8 c 0.1,-2 0.6,-4.5 2,-5.8 l -1,-3.3 -5,-1.9 0,1 0,0.1 -1,0.5 -1,0.3 -1,0.2 -1,-1 -2,-2.2 0,0 0,-0.8 2,-7.1 1,-1.6 0,0.1 1,0 1,-1.2 1,-3.7 0,-0.6 -1,-0.8 -1,-1.8 -1,-2.1 0,-0.1 0,-4.4 1,-1.2 0,-1.2 2,-0.8 0,-1.8 -1,-4.9 0,-0.2 -1,-0.5 -1,-0.6 -2,0.7 -1,0.4 -1,0.6 -1,-2 0,-0.7 0,-0.6 0,-0.2 -1,0.7 -8,1 0,-0.1 -5,-1.7 -4,-1.4 0,-0.2 0,-0.2 -1,-0.5 0,-0.5 0,-0.2 0,-0.4 1,-0.6 1,-0.4 0,-0.2 0,-0.3 0,-0.2 0,-0.3 0,-0.3 -1,-0.3 -5,-3 0,-0.1 0,-0.2 -1,-0.1 0,-0.1 0,0.1 -1,0.5 -1,0.6 -1,0 0,-0.1 0,-0.1 -4,-2.8 0,-0.3 0,-0.3 0,-0.4 0,-0.3 1,-1.1 0,-0.2 0,-0.2 0,-0.2 -1,-0.2 0,-0.1 0,-0.1 0,0 -1,0 -1,0.6 -1,0 -4,-1.1 -1,-0.2 0,-0.4 -1,-1.2 -1,-0.8 0,-0.3 -1,-0.2 0,0 -1,0 -2,0.6 0,0.1 -1,0.1 -1,0.8 -1,0.9 -1,0 0,0 0,-0.2 -3,-3 -1,-1.4 0,-0.2 0,-0.3 -1,-1.5 6,0.3 3,-2.1 3,-0.4 1,0.5 0,0.3 1,0.3 1,0.3 2,0 1,-0.6 0,-0.9 1,-2.6 -1,-4.1 4,-3.5 0,-0.4 3,-0.1 1,0.1 2,1 1,1.4 0,-0.1 6,-1.2 0,-0.3 0,-0.1 0,-0.3 -1,-1.9 3,-0.2 5,-1.8 0,-0.3 4,-2.7 1,-0.5 -1,-1.7 2,-3 2,0.3 2,0.2 1,-0.5 6,-1.1 0,-0.1 4,3 2,0.6 c 0.1,0.7 1.4,0.7 2,0.9 1.1,0.4 2.1,1.1 3,1.8 l 0,1.5 3,2.8 3,-0.5 0,-0.2 c 0.1,-0.9 1.1,-0.7 2,-0.8 2.7,0.3 5.3,0.5 8,0.8 l 4,3.1 2,2.6 0,0.7 2,0.1 c 0.1,-0.7 1.3,-0.6 2,-0.8 l 0,-0.1 0,-0.1 2,-0.5 7,-0.2 0,0.2 1,0 0,0.5 c 0,0.4 -0.6,0.6 -1,0.8 l -1,0.7 0,0.4 0,0.1 0,0.1 2,0.9 0,0 0,-0.2 7,-7.6 1,-0.4 2,-1.1 0,0 2,-0.3 0,0.6 1,0.6 0,1.8 1,0.2 1,0.2 1,-0.9 0,-1.2 0,-2.5 2,-1.5 1,-0.5 4,0 0,0.1 0,0.6 c 0,0.5 0.6,0.8 1,1.1 l 1,1.6 0,0.1 1,-0.3 4,-5 3,-2.9 0,-0.1 0,-0.1 -1,-1.8 0,-1.3 1,-1.6 1,-2.8 c 1.4,-2.6 4.7,-4.8 7,-6.9 l 0,-0.8 2,-1.4 3,-0.2 3,-2.4 -2,-1.3 0,-1.7 0,-2.2 1,-0.7 0,-0.1 5,5.8 1,3.3 2,3.2 1,0.6 1,-0.2 3,-0.6 3,0.4 4,-0.1 1,-1.4 6,0.4 1,0.4 0,0.7 0,3.4 0,2.4 -1,1 -1,1.7 0,1 -2,1.3 -1,1.1 0,0.6 -2,1.9 c -0.3,1.7 -1,1 -1,2.5 l 1,0.2 6,0.2 c 1.4,-0.1 2.7,-0.3 4,-0.7 l 2,-2.8 0,-1.8 0,-1 5,-2.1 1,0 0,0.1 z m -59,74.2 c -1.6,1.4 -2.9,2 -5,1.1 l -6,0.2 -1,2.2 0,0.1 0,0.3 1,0.6 0,0.3 0,0.2 0,0.1 0,0.4 -1,-0.1 0,-0.1 -2,-0.5 0,-0.3 -1,0.1 -1,1.2 0,0.4 -1,6.1 0,0.7 c 1.7,-0.5 1.9,-0.5 3,0.8 l -2,3 c 0,0.5 -0.6,0.6 -1,0.9 l 0,0.6 0,1.5 c 0,0.7 0.4,0.8 1,1.2 -0.7,0.5 -0.8,1 -1,1.6 l -1,0.5 0,0.8 0,0.2 2,1.3 2,0.1 1,-0.1 -1,-0.1 0,-0.6 3,-1.4 1,-0.6 0,-0.1 2,0 c 1.9,0.2 2.9,0.5 4,2 l 2,-1 3,2.9 2,0.1 0,-3.3 0,-0.1 0,-0.1 c 0.6,-0.6 1.2,-0.9 2,-1.1 l 1,-0.2 0,1.9 4,1.2 7,2 1,0.2 2,-0.5 0,-0.7 0,-0.4 0,-0.3 0,0 0,-0.2 0,-0.2 c 1.3,-1.8 2.2,-3.7 3,-5.7 l -2,-1.6 c -1.9,-0.4 -3.4,-1.9 -5,-2.2 l 0,-3.2 -2,-3.5 -4,-3.7 -4,-8.7 -1,-0.5 -1,0.6 -1,0.8 0,1.4 c -0.4,0.4 -0.7,1 -1,1.4 -1.3,-0.6 -2,-1.8 -2,0.1 z"/>
	<path class="Bayern" d="m 393,475 1,0.2 1,0.6 2,2.7 0,0.4 0,1.6 0,1.9 0,0.1 1,0.2 5,1.4 2,0.7 0,0.7 2,1.4 1,2.7 -1,0.8 -1,0.3 -1,1.9 1,1.1 3,1.8 1,0.2 1,1.2 1,1.7 1,2.1 0,0.9 -1,0.7 0,4.5 1,0.6 1,0 1,0.8 2,1.7 -1,2 4,0.6 4,3.4 4,2.3 1,0 1,0.3 2,0.7 0,0.9 3,4.8 0,3.8 -1,0.7 -2,4.1 -1,1.8 0,4 -4,3 0,0.5 0,1.4 1,0.7 1,2.7 1,0.2 0,0.1 0,0.1 5,1.3 0,0.1 0,1.6 1,5.4 3,5.9 1,1.4 0,0.7 1,0.6 1,0.4 1,0.1 0,0.2 1,1.4 0,2.1 0,0.7 -1,0.8 2,2.5 7,5.5 0,1.2 0,0.8 1,2.7 1,0.3 1,0.3 5,0.8 1,-0.7 -1,-0.5 0,-0.7 2,0.1 3,0.4 0,0.1 5,5.4 6,7.8 4,3.5 0,0.1 0,0 0,3 1,0.9 1,0.8 1,0.5 2,0.7 1,-0.5 3,-0.2 2,1.8 5,4.6 0,0.9 1,2.3 1,4.3 1,0.7 4,2.9 0,0.1 1,-0.2 0,-0.9 0,-0.4 0,-0.5 0,-0.9 1,-0.6 4,0.1 0,0.2 0,0.2 3,2.8 1,1.3 1,1.8 0,1.4 1,1.3 1,0.2 1,0 1,-0.1 1,-0.2 0,-0.4 1,0 6,8.6 1,2.6 -1,2.2 0,2.2 -1,1.6 1,2.3 1,5.7 0,1.6 -1,4.5 -5,6.7 -1,-0.4 -3,-1.5 -1,-0.2 -5,-3.2 -5,-2 0,1.6 -1,1.2 -1,0.9 -1,0.2 -2,0.7 1,0.9 0,0.1 1,2.7 0,0.2 -2,3.9 0,2 1,1.3 0,1.1 -1,5 -1,1 -5,5.3 -1,0.4 -4,2.6 -5,0.3 -5,2 -1,-0.1 0,0 -1,0.2 -4,2.1 -1,0.8 0,1.2 -3,3.2 -1,0.2 -2,0.2 -3,0.5 0,0 0,0.2 0,1.2 -1,0.3 -1,2 0,1.1 -1,0.3 -2,1.7 -2,2.1 -1,0.6 0,3.1 1,0.7 0,0.8 3,2.4 3,2.5 1,0.5 0,0.8 1,4.1 3,0.7 1,1.7 3,3.5 2,5.1 1,0.4 0,0.8 -3,4.6 -4,7.5 0,0.2 0,0.2 1,0.7 1,0.6 3,0.2 1,-0.1 1,-0.7 0,-0.9 1,-0.1 0,0 2,1 4,7.3 0,1.5 -2,1.6 -2,2.8 0,5.2 0,0.6 1,0.1 0,2.8 0,0.7 -3,3 0,0.1 0,-0.1 -3,-1.1 -11,-7.2 -1,-0.7 -1,-1.2 0,-1 0,-0.3 1,-2 1,-1 -3,-5.6 -1,-0.4 -4,-1.1 -1,0 0,0.1 -1,0.1 -4,0.9 0,0.1 -1,0.7 -1,2 -5,2.4 -1,0.1 -2,-2.5 -2,-2.4 0,-0.3 -5,-0.5 -2,-0.7 0,-0.2 0,-0.4 -5,1.8 -1,-3.6 0,-0.6 1,-1.1 0,-0.5 -1,-0.6 0,0.2 -5,4.2 0,3.5 1,2.5 1,1 0,2 0,0.2 0,0.2 0,0.2 0,0.2 -1,0.3 -4,-0.1 -3,-0.4 c -3.6,-0.9 -8.1,-0.5 -12,0 l -3,1.3 -2,2 0,0.1 -1,0 -3,-0.6 -9,0 -2,-0.2 -1,1.1 0,0.2 -2,2.5 0,1.1 0,0.3 0,0.2 0,0.3 0,1.4 -1,1.1 0,0.1 -4,1 -4,-0.3 0,-0.2 -1,-0.6 0,0.1 0,0.2 -2,1.6 0,0.4 -2,1.9 -5,4.9 -1,1 0,0.3 0,1 0,0.5 -1,0.5 0,0.1 -3,0.2 -1,-0.1 0,-0.2 0,-0.4 1,-1.9 1,-0.7 0,-0.4 0,-0.1 -3,-0.2 -3,1.3 -1,0.2 -1,0.8 -3.5,1.7 -5.3,0.3 -0.7,-0.1 -1.2,-0.2 -0.6,-0.3 -0.1,-1.2 0.1,-0.5 0.1,-0.1 0.6,-0.1 0.3,-0.3 -0.1,-0.9 -1.6,-1.9 -2.3,-2.3 -3.3,-0.7 -0.2,-0.1 -0.5,-0.2 -0.2,-0.4 0.1,-1.4 0.5,-0.4 1.9,-1.5 -1.3,-2 -2.2,0.3 -3.9,1.5 -2.4,-0.5 -4.9,-1.9 -0.2,-0.7 0,-0.3 0,-0.2 0,-0.2 -5.1,-0.9 -1.2,-0.1 -1.3,1.9 -0.6,1.6 -0.3,0.1 -3.1,-0.2 -4.4,-1.7 -0.5,-0.4 0.5,-0.6 0.8,-1.8 0,-0.8 -0.3,0 -2.2,0.4 -0.1,0 -0.4,0.7 0.1,7.5 0.7,1.8 0.1,0.2 0.2,0 0.4,-0.1 1.2,0.8 0.1,0.8 0.3,3.9 -10.4,13 -2.9,1.8 -2.8,1.1 -4.4,0.8 -0.3,-0.1 -0.1,-0.3 -0.1,-0.6 0.3,-0.9 0.2,-0.7 2.6,-6.1 0.7,-0.8 0.7,-1.1 0,-0.1 0,-0.8 -0.5,-0.7 -0.2,0 -3.1,-0.4 -0.9,1.8 -0.2,0.6 -4.6,1.5 -1.6,-5.1 0.6,-1 0.6,-0.3 0.1,-0.1 0.7,-1.1 -1.8,-2.7 -4,-3 -1.4,0.2 -0.1,0 -2.5,-4 0,-1.8 0.2,-0.8 -0.3,0.2 -6.2,1.6 -4.1,-1.9 -0.1,-0.2 0.2,-0.4 0.1,-0.1 0.2,-0.1 0.1,-0.2 0.1,-3 -1.5,-0.9 -0.2,-0.1 -1.6,0.1 -1.4,1.6 -2.5,3.4 -3.8,-1.2 -3.2,-1.3 -0.9,-0.6 -0.3,-0.8 2.6,-2.1 1.3,-0.8 2.3,0.2 0.1,0.4 0.3,0.4 0.4,0.1 3.2,-0.1 5.5,-5.6 0,-0.2 4.8,-0.2 5.5,-0.1 0.3,-0.5 1,-1.3 0.3,-0.3 0.1,-0.1 1.4,-0.2 2.6,0.5 0,0 0.3,0.6 0.1,0.1 0.8,3.6 0,-0.3 0.4,-1.2 0.4,-0.4 0.6,-0.8 0.4,-0.2 0.7,0.2 0.2,0 1.1,-1 0.7,-2.3 0,-0.6 -2.5,-6.2 -0.1,-3.8 1,-0.1 1.3,-1.1 -0.2,-0.8 -0.5,-0.2 -0.5,-0.8 -0.5,-1.1 -0.5,-2.5 -0.2,-3.5 0,-0.4 0.1,-0.2 0.2,-1.8 0.3,-1.4 -0.8,-0.6 -0.3,-0.2 -0.2,-0.3 -0.3,-0.4 -0.1,-0.6 0,-0.6 0.2,-0.4 0.1,-0.3 0.2,-0.2 0.2,-0.1 0.7,-0.2 0.7,-0.2 0.1,-1.1 0.2,-1.7 0.4,-0.8 0.6,-0.6 0.1,-0.6 0.3,-2.5 -0.1,-2.9 -0.1,-3.4 -0.9,-0.7 -0.8,-0.9 -0.1,-0.1 -0.2,-0.8 -0.9,-2.7 0,-0.5 -0.3,-0.7 -0.3,-1.7 -0.2,-0.8 -1.2,-8.8 -1,-1 -2.8,-4.5 -0.9,-1.5 -0.3,-2 1.5,-3.5 0.1,-0.2 1.2,-2.3 0.3,-1.7 -0.1,-0.7 -0.4,-0.5 1.6,-0.1 3.3,-1.9 1,0.7 1.1,1.4 2.3,-0.5 4.8,-4.2 -0.2,-0.5 -0.3,-0.5 1.6,-0.8 0.2,-0.1 0.5,-0.1 1,0.3 0.5,0 0.7,-0.1 1.1,-0.6 0,-3.9 0,-0.6 -1,-5.8 -1.3,-1.7 -1.2,-1.6 -0.5,-0.8 0,-1.4 0.1,-0.2 0.8,-2.4 4.1,1.3 0.6,0.2 4.8,-1.1 1.6,-0.1 0.3,0.2 0.2,0.3 0,0.2 -1,2.1 -0.4,0.4 -0.1,0.1 0,0.3 0.1,0 1,0 2.2,-0.7 1.4,-1.7 0.4,-0.4 -0.3,-0.6 -0.3,0 -0.6,-0.6 -0.7,-2.6 0,-0.8 -2.6,-0.9 -0.2,0 -0.2,-3.2 0.6,-0.3 1.3,-3.2 0,0 0.3,-5.2 0.2,-6.1 -0.4,-1.9 -0.5,-0.6 -0.1,-0.1 -1.3,-1.4 -0.7,-2 -0.2,-0.3 -6.1,-4.5 -4.2,-1.7 -0.1,-1.1 0,-0.7 0.6,-0.2 -1.4,-6.6 -2,-3.8 -5.8,-3.3 -0.3,-0.3 -0.1,-0.2 0.2,-6.2 1,-2.7 -0.5,-0.9 -2,-4.3 -0.1,-0.3 0,-0.3 0.3,-3.6 0.3,-0.6 2.3,-0.1 0.9,-0.7 -1.7,-4.2 -1.2,-3.9 -0.1,-0.1 -1,-1.3 -0.1,-0.6 0.7,-1.1 -0.3,-1.3 -0.8,-1.8 -2.1,-1.2 -1.6,1.4 0,0.1 0.2,0.3 1.3,0.8 -0.5,0.9 -0.2,0.2 -2.2,2.4 -0.3,0.1 -4.1,0.3 -1.7,-0.5 -0.2,-1.9 0.1,-0.4 0.2,-4.3 -0.1,-1.1 -1.6,-2.6 -0.3,0 -2,-3.7 -2.3,-8.3 -0.7,-0.7 -1.7,-1.7 -1.1,0.3 -4.2,1.5 -2.7,1.5 -0.9,0.4 -0.5,0.1 -1.5,-0.8 -0.5,-0.7 0.4,-1.4 0.7,-0.4 0.7,-6.2 -0.2,-1 -1.2,0.5 -4.3,4.2 -0.1,0.1 -3.3,-2.1 -0.3,-0.4 0,-0.2 0.2,-1 -0.4,-0.7 -0.4,-0.2 -1.3,0.1 -0.6,0.7 -0.7,1 -9,0 -0.5,0.1 -0.4,0.9 0.5,1.9 1.5,2.5 0.9,1.4 1.4,0 0.3,-1.7 -0.1,-0.6 0.3,-0.5 0.9,0.2 1.1,1.8 0.4,1.6 -0.8,3.4 -0.3,1.8 -1.5,0.3 -2.3,-0.7 -3,-0.5 -1.3,1.8 -0.7,1.2 0.6,0.8 0.1,0.2 -2.4,3.1 -0.6,0.3 -1.2,0.4 -0.6,0.1 -1.3,0.2 -4.9,0 -0.2,0 -1,-0.4 -0.9,-1.6 0.8,-7 1.4,-3.7 0.5,-0.3 1.6,-4.3 -1.2,-5.3 -0.2,-0.1 -0.2,-0.1 -0.8,-0.1 -0.4,-0.1 -4.3,-4.3 -0.3,-0.3 -0.1,-0.4 -0.1,-1.4 0,-0.7 0.2,0 0.9,0.1 -0.7,-1 -0.1,-0.2 -0.4,-3 -0.1,-2.1 -0.1,-2.9 -0.4,-3 -0.1,-0.2 -0.3,-0.5 1.6,-0.9 -0.4,-3.9 -0.1,-0.2 -0.3,-0.3 -0.2,-0.1 -0.5,-0.1 -0.6,0 -0.3,0 -1.3,-1.1 0.7,-1.3 0.4,-2.5 0.8,-1.2 0.5,-0.6 0.1,-0.1 13.5,-3.7 9.7,1.9 0.3,0.1 0.1,0.1 1.9,4.3 0.5,0.5 0.2,0 1.3,-0.2 5.1,-0.9 0.4,-1.2 -0.6,-3.1 -0.7,-4 0.4,-3.4 1.1,-2.6 6.5,1.1 0.2,-0.1 1,-2.8 1,-1.9 1.8,-0.7 0.7,0 0.1,-0.1 0.7,-0.3 1.7,-1.4 0.7,-0.8 0.7,-2.3 -0.4,-2.2 -0.7,-1 0.7,-0.6 0.2,-0.4 0.5,-2.1 0.4,-1.6 3.5,-1 0.8,0.6 2.2,0.9 1.6,-0.2 5.2,-3.1 3.5,-3.8 1.7,-4.3 -0.1,-0.8 0.3,-0.1 0.4,-0.2 2.8,-2.9 6.6,-0.8 0.6,0.1 1.8,2.4 1.5,2 4.6,1.9 1.1,1 2.4,5.2 0.4,2.4 0.6,1.3 0.1,0 2.8,-0.2 0.9,-0.4 0.6,2.2 2.2,2.5 7.1,2.2 -0.6,6.3 1.1,4.1 2,0.9 5.2,1.9 0.3,0 0.2,-0.1 0.4,-0.8 -0.1,-1.7 -0.2,-1.8 0.1,-0.2 0.9,-0.1 5.2,1.2 0.3,0 0.7,-0.2 0.7,-0.4 0.3,-2.2 -1,-0.8 -1.9,-0.6 -5.7,-3.9 -0.6,-3.8 0.2,-0.9 7.5,-3.1 6.6,0 0.2,0 0.7,0.6 1.2,2 1.3,1.5 3.6,0.6 1.8,-0.4 1.5,-1.6 0.1,-0.1 0.8,-0.2 0.9,0 1.6,1.4 1.4,2.3 -0.1,0.6 -0.4,0.2 -0.6,0.4 -0.3,0.3 -0.4,0.4 -0.1,0.6 0.1,0.5 0,0.1 0.7,1 2.2,2.2 0.6,-0.1 0,-0.1 1,-1.9 3,-0.5 2,-6.9 0,0 -1,-7.6 0,-0.8 -1,-0.2 0,-0.5 0,-2.1 0,-0.2 0,-0.6 0,-0.3 0,-0.1 1,0.1 0,0.2 1,-0.7 3,-1.8 0,-0.7 1,-1.2 0,-0.1 2,-0.2 3,0.7 0,0.2 1,0.5 0,0.8 0,0.2 0,0.6 0,0.2 0,-0.1 -1,0.7 0,1.6 0,2.1 0,0.5 0,0.2 2,1.2 2,-0.2 0,2.2 1,1.2 2,1.8 0,0.3 2,-0.6 1,-0.4 0,-0.2 0,-0.8 0,-0.2 0,-0.1 2,-0.3 0,0.2 0,0.2 1,0.5 0,0.5 1,0.2 0,0 12,-1.7 4,-1.5 3,-1.2 z"/>
	<path class="BadenWuerttemberg" d="m 207.4,563 1,0.4 0.2,0.1 4.9,0 1.3,-0.3 0.6,-0.1 1.2,-0.4 0.6,-0.2 2.4,-3.1 -0.1,-0.3 -0.5,-0.7 0.7,-1.2 1.2,-1.8 3,0.5 2.4,0.7 1.4,-0.2 0.7,-0.9 0.2,-0.5 -0.5,-0.5 0.7,-3.3 -0.4,-1.7 -1,-1.8 -0.9,-0.2 -0.4,0.6 0.2,0.5 -0.1,1.6 -0.3,0.1 -0.7,0.1 -0.6,-0.1 -0.9,-1.3 -1.5,-2.6 -0.5,-1.8 0,-0.6 0.1,-0.3 0.3,-0.1 0.4,0 2.3,-0.3 5.5,-0.2 1.3,0.5 0.6,-1.1 0.4,-0.5 0.2,-0.2 1.3,-0.1 0.2,0.1 0.3,0.1 0.2,0.3 0.1,0.2 0,0.3 -0.1,0.6 -0.1,0.3 0.1,0.2 0.2,0.4 0.3,0.3 2.6,1.7 0.2,0.1 0.3,0 0.1,-0.1 4.3,-4.1 1.2,-0.6 0.1,1 -0.6,6 -0.1,0.2 -0.5,0.3 -0.1,0.1 -0.4,1.4 0.5,0.7 1.4,0.8 0.6,0 0.9,-0.5 2.6,-1.5 4.2,-1.4 1.1,-0.4 1.7,1.7 0.7,0.7 2.4,8.4 0.2,0.9 1.7,2.7 0.3,0 0.5,0 0.3,0 0.1,0.3 0.7,2.2 0,0.1 0.2,1.1 -0.2,4.2 0,0.1 -0.2,0.4 -0.4,0.5 -0.1,0.6 0.8,0.9 0.2,0.1 1.5,0.3 4,-0.2 0.4,-0.2 2.1,-2.4 0.2,-0.2 0.6,-0.9 -0.7,-0.2 -0.6,-0.6 -0.3,-0.3 0.1,-0.1 1.5,-1.4 0.4,-0.1 1.1,0.2 0.6,1.1 0.9,1.8 0.2,1.3 -0.4,0.4 -0.2,0.5 0,0.2 0,0.6 1,1.3 0.2,0.1 1.2,3.9 1.1,2.3 0.6,1.7 0,0.2 -0.3,0.5 -0.7,0.3 -2.3,0 -0.3,0.7 -0.3,3.5 0,0.3 0.1,0.3 2,4.4 0.5,0.7 -0.9,2.8 -0.2,6.2 0,0.2 0.3,0.4 2.6,1.7 1.5,0.8 1.7,0.7 2.1,3.8 1.3,6.6 -0.4,0.3 -0.2,0 0,0.6 0.2,1.1 4.2,1.8 6.1,4.4 0.1,0.4 0.7,1.8 1.3,1.4 0.1,0.1 0.5,0.7 0.4,1.8 -0.1,6.2 -0.4,5.2 0,0 -1.2,3.2 -0.7,0.3 0.3,3.3 0.2,-0.2 2.5,0.9 0.1,0.8 0.6,2.6 0.7,0.6 0.2,0 0.3,0.6 -0.3,0.5 -1.5,1.7 -2.2,0.7 -1,0 0,0 -0.1,-0.2 0.1,-0.3 0.5,-0.2 1,-2.3 -0.1,-0.2 -0.1,-0.3 -0.4,-0.2 -1.6,0 -4.8,1.1 -0.6,-0.2 -4,-1.3 -0.9,2.4 0,0.3 -0.1,1.3 0.6,0.8 1.2,1.7 1.3,1.8 0.9,5.7 0.1,0.6 -0.1,3.9 -1.1,0.6 -0.6,0.1 -0.6,0 -0.9,-0.4 -0.5,0.1 -0.3,0.1 -1.5,0.8 0.2,0.5 0.2,0.6 -4.7,4.1 -2.3,0.5 -1.2,-1.3 -0.9,-0.7 -3.3,1.9 -1.6,0.1 0.3,0.5 0.2,0.7 -0.3,1.7 -1.3,2.3 -0.1,0.2 -1.5,3.5 0.4,2 0.8,1.6 2.9,4.4 0.9,1 1.7,11.3 1.5,4.7 1.7,1.7 0.2,3.4 0.1,3 -1.4,4.4 -0.3,2.8 -1.7,0.6 -0.1,0.1 -0.3,0.8 0.3,1.5 1.4,1 -0.4,1.4 -0.2,1.8 0,0.4 0,0.4 0.2,3.4 0.4,2.6 0.5,1.1 0.6,0.6 0.4,0.3 0.3,0.8 -1.3,1.2 -1,0 0,3.7 2.6,6.2 -0.1,0.6 -0.6,2.3 -1.1,1 -0.2,0 -1.2,0.1 -0.8,1.2 -0.5,1.1 0.1,0.3 -0.9,-3.5 0,-0.1 -0.3,-0.6 -2.6,-0.5 -1.4,0.2 -0.4,0.3 -1.3,1.8 -5.5,0.1 -4.8,0.3 0,0.1 -5.6,5.6 -3.1,0.2 -0.4,-0.2 -0.2,-0.2 -0.2,-0.6 -2.4,-0.2 -1.2,0.9 -2.7,2 -2,0 -0.9,-0.1 -0.3,-0.1 -0.3,-0.2 -3.4,-6 -6.5,-2.3 -0.6,-0.1 -1.8,0.3 -0.7,0.3 -1.2,0.1 -0.9,-0.5 -2,-1.1 -2.7,-1.8 -2.3,-2.6 -0.3,-1.3 0,-0.7 -0.7,-0.6 -7.6,-5.1 -2.1,-1.3 -0.3,-0.1 -0.3,-0.6 -0.3,-0.2 -1.5,-0.3 -0.7,1.1 0,0.1 0.2,0.3 2.5,2.5 1.3,1.1 3.2,2.3 0.2,0 0.5,-0.2 0.3,0.2 1.7,1.3 2.6,5.4 0.4,1.6 -1.6,1 -1.4,0.3 c -2.7,-1.4 -5.2,-2.7 -8.2,-3.3 l -0.4,-0.1 -1.8,-0.2 c -1.7,0.3 -3.2,1.5 -4.7,2.4 l -1.2,0.6 -3,0.8 -0.2,0 -1.2,-0.7 -4.6,-4 -1,1.8 -0.3,0 -0.6,-0.2 -3.8,-1.7 -0.1,-0.2 -1,-3.6 0.3,-0.9 0.6,-0.7 -1.1,-1.9 -1.7,-1.4 -2.3,-0.7 0.3,1.1 -0.4,0.6 -0.2,0.3 -1,0.6 -0.2,-0.1 -0.6,-0.9 -0.3,-3.4 -2.8,-0.6 -0.8,1.1 -0.4,1.2 -3.2,0.7 -1.5,0.3 -1.1,0.9 -1.1,1.5 -3.3,5.6 -0.5,2 0,0.1 0.5,0.8 3.9,2.8 0.2,0.1 4,-1.6 -0.2,-0.6 0.4,-0.2 1.4,-0.6 0.6,-0.1 2.6,-0.2 0.2,0 0.3,0 1.5,2 0,0.4 -0.4,0.9 -1.4,3.1 -0.9,0.9 -0.6,0.5 -1,-0.2 -0.3,-0.5 0.2,-0.7 0.3,-0.1 0.1,-0.2 -0.1,-0.2 -0.1,-0.2 -0.7,-0.9 -1.3,-0.6 -0.1,0 -1.1,-0.3 -3.8,3 1.4,1.6 0.4,0.6 0,0.1 -0.6,0.4 -1.5,0.5 -1.8,0.5 -0.5,0 -6.7,-0.5 -0.4,-0.1 -0.1,0 -0.3,-0.2 c -3,-3.6 -1.7,-3.9 -7.6,-5 l -0.5,-0.1 -0.3,0.1 -0.2,0.1 -6.2,3.6 -0.3,0.3 -0.2,0.2 -0.1,0.3 -0.1,0.8 -0.2,0.5 -0.4,0.3 -0.3,0.1 -4.6,0.6 -0.1,0 -4.2,-0.9 -3.4,-1.4 -1,-1.5 -0.2,-0.2 -0.4,-0.1 -0.2,-0.1 -3.5,0.1 -1.5,1.5 -0.2,0.4 -1,1.1 -0.5,0.2 -2.7,1 -3.8,1.1 -0.3,0 -0.8,-0.1 -0.8,-0.3 -0.1,-0.1 -1.3,-1.3 -0.7,-1.1 0.3,-0.2 0.5,0.2 2.5,-1 0,-0.4 -0.2,-0.9 -0.4,-0.9 -5.7,-1.6 -4.35,-5.7 -0.2,-0.3 -0.2,-0.4 -0.1,-0.4 -0.4,-2.8 0.1,-0.4 0.1,-0.2 c 3.21,-2 2.54,-3.7 1.4,-7 l -0.1,-0.4 0.1,-0.8 0.1,-0.4 0.9,-2.2 1.3,-2.8 0.2,-0.7 0,-0.6 0,-0.5 -0.4,-1 -0.1,-0.4 0,-0.7 0.2,-0.5 1.75,-4.7 1.9,-2.6 c 1.1,-1.6 1.4,-2.8 0.5,-4.6 l -0.5,-0.8 -2.1,-2.7 -0.2,-0.2 0,-0.3 0,-0.4 0.1,-4.3 0.1,-0.4 0.6,-3.2 0,-0.4 0.1,-0.3 1.6,-3.4 0.2,-0.3 2.1,-2.9 2.4,-3.2 0.2,-0.4 0.3,-1.1 0.7,-2.3 0.7,-3.7 0.1,-0.3 0.2,-0.5 0.4,-0.5 0.5,-0.3 1.6,-0.7 0.5,-0.3 0.2,-0.2 0.2,-0.2 0.2,-0.3 0,-0.3 0.1,-0.3 -0.8,-3.9 -0.1,-0.9 0,-0.6 0.1,-0.7 0.2,-0.7 0.2,-0.6 2.1,-5.3 2.3,-4.6 0.3,-0.5 0.3,-0.7 0.1,-0.5 0,-0.4 0.1,-3.6 -0.1,-0.9 -0.2,-1.1 0,-0.4 0,-0.4 0.2,-0.4 2.6,-5.2 0.2,-0.3 0.2,-0.2 1.2,-0.5 1.5,-0.8 0.5,-0.4 4.8,-5.5 0.7,-3.6 0.2,-0.4 0.1,-0.1 0.5,-0.2 0.4,0 2.5,-0.7 3.5,-2.4 0.7,-0.7 c 2.2,-3.1 2.7,-7 4.6,-10.4 l 3.3,-5.3 0.3,-0.4 0.3,-0.1 2,-0.7 0.4,-0.2 1.6,-1.2 c 3.2,-3.1 3.5,-7.4 6.3,-11 l 0.4,-0.7 0.2,-0.5 2.4,-10.3 -0.1,-1.8 -0.2,0.1 -0.1,0 0,-0.1 0,-0.7 0.2,-0.6 0.3,-0.5 c 1.8,-1.6 3.5,-2.8 5.1,-4.6 l 1.4,-0.7 0.1,-0.2 0,-0.4 -0.1,-0.6 -0.2,-0.3 -0.4,-0.4 -0.2,-0.1 -1,-0.4 -0.2,-0.1 -0.2,-0.2 -0.2,-0.4 0,-0.4 0,-0.2 0.2,-0.4 0.2,-0.3 0.5,-0.5 c 2.9,-1.7 2.7,-4.5 2.4,-7.5 l 0.8,-2.1 0,-0.3 -0.1,-0.3 -0.3,-0.4 c -0.8,-0.5 -1.7,-0.2 -2.6,-0.2 l -0.6,-0.1 -0.2,-0.1 -0.3,-0.2 -0.1,-0.2 -0.2,-0.3 0,-0.3 0.1,-0.3 0.3,-0.3 0.2,-0.1 -0.4,-3.2 -0.1,-0.7 -1.1,-4.4 c -1.1,-1.6 0,-2.7 0,-4.3 l 0.2,-0.1 1,-0.5 0.4,0 c 2.4,0 3.9,2.7 5.3,4.4 l 0.4,1.2 0.6,0.9 c 1.8,1.4 2.6,0.9 4.3,-0.5 l 0.7,-1.1 0.1,-0.5 0,-0.5 -0.9,-4.1 -0.6,0.1 -0.2,-0.4 -0.1,-0.8 0.3,-0.6 1.7,-0.5 4,-1 0.9,0.3 0.2,0.4 -0.6,1 -0.1,0.1 -0.4,-0.1 -0.1,-0.2 -0.4,0.2 1.9,7.6 1.5,1 2.3,1 0.4,0.2 6.5,1.3 2.4,0 -0.1,0.6 0.2,1.3 -2.4,2.1 -2.3,0.8 -1.7,3.7 -0.4,0.9 0.3,0.8 0.6,0.7 0.5,0.1 1.8,0.1 0.2,-0.1 0.2,-0.1 6.5,-6 -0.6,-0.8 -0.7,-0.7 0.2,-0.6 0.4,-0.7 1.6,-1.9 1,-0.7 0.3,-0.1 5.6,-1.8 1.1,0.2 1.5,1.8 0.9,-0.3 0.3,-0.4 0,-0.4 -0.5,-1.4 -0.4,-0.3 -1.6,-0.8 0.5,-0.5 0.2,-0.2 0.4,-1 -0.1,-0.1 z m -29.1,192.7 -0.8,-1.9 -0.2,-0.2 -2.6,0.2 0.3,2.2 0.6,0.5 2.1,-0.2 0.7,-0.1 z"/>
	<path class="Berlin" d="m 481.1,245 0,-0.2 1,-1.2 0,-1.4 1,-0.8 1,-0.6 1,0.4 4,8.7 4,3.8 2,3.5 0,3.1 2,0.5 2,1.7 1,0 2,1.6 -1,2.5 -1,1.7 -1,1.5 0,0.3 0,0.1 0,0.1 0,0.3 0,0.4 0,0.7 -2,0.5 -1,-0.3 -7,-1.9 -4,-1.3 0,-1.8 -1,0.2 -1,0.3 -1,0.8 0,0 0,0.2 0,3.2 -2,-0.1 -3,-2.9 -2,1 -1,-1.3 -3,-0.8 -2,0.1 0,0.1 -1,0.6 -3,1.4 0,0.6 1,0.1 -1,0.1 -2,-0.1 -2,-1.3 0,-0.2 0,-0.8 1,-0.5 c 1.1,-1.8 0,-2 0,-4.3 l 0,-0.6 1,-0.7 0,-0.3 2,-2.9 -1,-1.1 -2,0.3 0,-0.6 1,-6.2 0,-0.4 1,-1.1 1,-0.1 0,0.3 2,0.5 0,0.1 1,0.1 0,-0.4 0,-0.1 0,-0.2 0,-0.3 -1,-0.6 0,-0.3 0,-0.1 1,-2.2 6,-0.2 c 4.6,1.9 3.5,-3.3 7,-1.2 z"/>
</g>

</svg>
