<?xml version="1.0" encoding="utf-8"?>
<!-- Generator: Adobe Illustrator 26.0.3, SVG Export Plug-In . SVG Version: 6.00 Build 0)  -->
<svg version="1.1" id="Layer_1" xmlns="http://www.w3.org/2000/svg" xmlns:xlink="http://www.w3.org/1999/xlink" x="0px" y="0px"
	 viewBox="0 0 397.5 397.5" style="enable-background:new 0 0 397.5 397.5;" xml:space="preserve">
<style type="text/css">
	.st0{fill:#008C45;}
	.st1{fill:url(#SVGID_1_);}
	.st2{fill:url(#SVGID_00000165213054586852084710000008817447456706813878_);}
</style>
<g>
	<path class="st0" d="M87.1,34.3C23.5,77.5-9.5,153.5,2.4,229.5h84.8V34.3z"/>
	<path class="st0" d="M7.6,253.5c12.9,44.7,41,83.6,79.5,109.7V253.5H7.6z"/>
	
		<linearGradient id="SVGID_1_" gradientUnits="userSpaceOnUse" x1="155.1344" y1="282.2636" x2="397.5544" y2="282.2636" gradientTransform="matrix(1 0 0 -1 0 397.0236)">
		<stop  offset="0" style="stop-color:#F4F5F0"/>
		<stop  offset="0.45" style="stop-color:#F4F5F0"/>
		<stop  offset="0.45" style="stop-color:#CD212A"/>
		<stop  offset="1" style="stop-color:#CD212A"/>
	</linearGradient>
	<path class="st1" d="M395.2,229.5c1.6-10.2,2.4-20.5,2.4-30.8C397.6,89,308.6,0,198.8,0c-14.7,0-29.3,1.6-43.6,4.8v224.7H395.2z"/>
	
		<linearGradient id="SVGID_00000085965359738391451190000014564250843197568662_" gradientUnits="userSpaceOnUse" x1="155.1344" y1="71.4736" x2="389.9144" y2="71.4736" gradientTransform="matrix(1 0 0 -1 0 397.0236)">
		<stop  offset="0" style="stop-color:#F4F5F0"/>
		<stop  offset="0.46" style="stop-color:#F4F5F0"/>
		<stop  offset="0.465" style="stop-color:#F4F5F0"/>
		<stop  offset="0.465" style="stop-color:#CD212A"/>
		<stop  offset="1" style="stop-color:#CD212A"/>
	</linearGradient>
	<path style="fill:url(#SVGID_00000085965359738391451190000014564250843197568662_);" d="M155.1,392.7c14.3,3.2,29,4.8,43.6,4.8
		c90.8,0,167.4-60.9,191.1-144H155.1V392.7z"/>
</g>
</svg>
