<?xml version="1.0" encoding="UTF-8"?><svg id="Layer_1" xmlns="http://www.w3.org/2000/svg" xmlns:xlink="http://www.w3.org/1999/xlink" viewBox="0 0 2928.64 2780.7"><defs><style>.cls-1{fill:none;}.cls-2{clip-path:url(#clippath);}.cls-3{fill:#ee2a5f;}.cls-4{fill:#ebc8a1;}.cls-5{fill:#ffe3c6;}.cls-6{fill:#fff;}.cls-7{fill:#feeedb;}.cls-8{fill:#efefef;}.cls-9{fill:#b7a575;}.cls-10{fill:#d2b391;}.cls-11{fill:#d1b18d;}.cls-12{fill:#af204c;}.cls-13{fill:#2462a0;}.cls-14{fill:#081723;}.cls-15{fill:#0b9a39;}.cls-16{fill:#3894ff;}.cls-17{fill:#502274;}</style><clipPath id="clippath"><rect class="cls-1" x="338.66" y="269.82" width="500" height="500"/></clipPath></defs><path class="cls-4" d="m2230.13,348.52s-102.41,21.03-196.22-25.86c-68.27-34.13-320.28-278.91-482.3-311.23-102.15-20.38-541,236.8-541,236.8l65.02,245.35s-3.18,27.52,3.5,52.74c6.68,25.21,23.21,48.09,23.21,48.09,0,0,18.65,44.91,19.68,48.8,4.52,17.25,2.16,56.56,9.36,77.5,6.02,17.51,32.12,49.62,32.12,49.62l4.22,19.48s-8.16,19.91-4.53,43.16c3.63,23.26,4.91,42.52,19.05,49.85,64.07,33.2,186.65,78.01,240.16,77.05,66.18-1.18,234.35-41.08,283.38-101.8,21.82-27.02-6.59-60.59-6.59-60.59l222.14,15.87,148.99-51.58,101.52,13.76,58.29-427Zm0,0"/><path class="cls-10" d="m1167.72,789.79l249.9,76.1s93.08-4.67,163.48-21.77c70.39-17.11,130.19-24.71,130.19-24.71,0,0,121.03,23.72,213.81,14.8,92.79-8.93,153.85-39.26,153.85-39.26l85.16,30,44.67,2.52-18.39-187.8s-242.81,2.01-437.27-57.74c-194.45-59.76-334.39-226.32-334.39-226.32l179.21-33.97,126.59-23.99-399.96-59.69-293.19,89.15,43.84,166.5,339.09,84.85s136.83-59.48,168.72-44.81c31.89,14.66,39.46,29.29,20.84,61.12-18.62,31.84-190.35,126.07-190.35,126.07l-296.1-93.33,5.36,17.62,292.22,95.11s181.5-76.22,218.33-67.91c36.82,8.31,40.49,44.92,25.12,60.13-49.03,48.5-239.88,114.99-239.88,114.99l-255.08-77.12,4.22,19.48Zm0,0"/><path class="cls-17" d="m327.83,62.42h1089.23c9.43,0,17.07,7.64,17.07,17.08v586.29c0,9.43-7.64,17.08-17.07,17.08H327.83c-9.43,0-17.08-7.65-17.08-17.08V79.5c0-9.44,7.65-17.08,17.08-17.08h0Zm0,0"/><path class="cls-9" d="m416.99,385.17h4.58c9.43,0,17.07,7.64,17.07,17.07v52.28c0,9.43-7.64,17.08-17.07,17.08h-4.58c-9.43,0-17.08-7.65-17.08-17.08v-52.28c0-9.43,7.65-17.07,17.08-17.07h0Zm0,0"/><path class="cls-9" d="m475.36,385.17h4.58c9.43,0,17.07,7.64,17.07,17.07v52.28c0,9.43-7.64,17.08-17.07,17.08h-4.58c-9.43,0-17.07-7.65-17.07-17.08v-52.28c0-9.43,7.65-17.07,17.07-17.07h0Zm0,0"/><path class="cls-9" d="m534.69,385.17h4.59c9.43,0,17.07,7.64,17.07,17.07v52.28c0,9.43-7.64,17.08-17.07,17.08h-4.59c-9.43,0-17.07-7.65-17.07-17.08v-52.28c0-9.43,7.64-17.07,17.07-17.07h0Zm0,0"/><path class="cls-9" d="m591.46,385.17h4.58c9.43,0,17.07,7.64,17.07,17.07v52.28c0,9.43-7.65,17.08-17.07,17.08h-4.58c-9.43,0-17.08-7.65-17.08-17.08v-52.28c0-9.43,7.65-17.07,17.08-17.07h0Zm0,0"/><path class="cls-9" d="m648.66,385.17h4.58c9.42,0,17.07,7.64,17.07,17.07v52.28c0,9.43-7.65,17.08-17.07,17.08h-4.58c-9.43,0-17.08-7.65-17.08-17.08v-52.28c0-9.43,7.65-17.07,17.08-17.07h0Zm0,0"/><path class="cls-9" d="m706.71,385.17h4.58c9.43,0,17.07,7.64,17.07,17.07v52.28c0,9.43-7.64,17.08-17.07,17.08h-4.58c-9.43,0-17.08-7.65-17.08-17.08v-52.28c0-9.43,7.65-17.07,17.08-17.07h0Zm0,0"/><path class="cls-5" d="m1636.6,906.07s-18.16-23.51.51-45.18c18.67-21.67,74.18-41.49,74.18-41.49,0,0,7.94,26.05-10.73,47.72-18.68,21.66-63.96,38.95-63.96,38.95h0Zm0,0"/><path class="cls-5" d="m1594.28,770.13s77.65-28.98,72.4-55.16c-7.65-38.1-64.13-14.58-82.23-.79-18.11,13.79,9.83,55.95,9.83,55.95h0Zm0,0"/><path class="cls-5" d="m1540.58,630.01s-45.52-54.38-26.32-63.54c68.77-32.83,99.49,2.59,99.49,2.59,0,0,.37,19.01-17.93,34.25-18.29,15.23-55.25,26.7-55.25,26.7h0Zm0,0"/><path class="cls-4" d="m1666.94,527.85s-221.44-81.78-262.59-91.13c-50.79-11.53-143.68,25.7-232.54-7.33-88.87-33.04-105.14-93.76-70.18-105.92,34.95-12.16,206.75-67.43,289.53-50.44,86.47,17.76,306.12,59.88,306.12,59.88l-30.34,194.93Zm0,0"/><path class="cls-5" d="m1101.62,323.47s42.14,74.9,168.42,38.97c7.95-2.26,23.2-23.3,24.22-45.28.91-19.6-12.01-40.52-12.01-40.52,0,0-25.45,2.58-72.73,14.62-47.28,12.05-107.9,32.22-107.9,32.22h0Zm0,0"/><path class="cls-4" d="m2230.13,348.52l625.57-87.55,25.3,604.28-709.16-89.72,58.29-427Zm0,0"/><path class="cls-10" d="m2190.51,638.75l-26.39,186.2,52.19,3.86,661.82,60.79-10.2-243.66c-40.84,19.96-88.11,37.45-142.69,50.15-113.54,26.41-534.74-57.34-534.74-57.34h0Zm0,0"/><path class="cls-3" d="m2488.8,970.84l148.13,24.02,291.7,43.88V247.93l-247.74,20.31-163.5,14.85-25.79,619.99-2.81,67.76Zm0,0"/><path class="cls-12" d="m2126.55,908.61l52.57-611.65,501.19-48.19,20.98,688.13-166.21,8.03,163.16,79.98-.67,13.82-571.03-130.12Zm0,0"/><path class="cls-3" d="m2488.8,970.85c-19.22-.89-34.08-16.79-33.18-35.5.9-18.72,17.21-33.16,36.44-32.27,19.23.89,34.08,16.79,33.18,35.5-.9,18.71-17.22,33.17-36.44,32.27h0Zm0,0"/><path class="cls-4" d="m869.41,1691.61s97.66-69.02,137.27-106.2c39.61-37.17,81.53-95.51,81.53-95.51,0,0-58.49,33.37-79.22,45.19-16.34,2.85-29.59,5.16-29.59,5.16,0,0-5.45,31.57-18.33,54.52-5.32,9.48-35.44,27.07-57.95,42.94-3.25,2.29-24.12,14.57-24.12,14.57l-9.58,39.34Zm0,0"/><path class="cls-4" d="m157.51,2416.22l67.52-574.21S52.19,1545.84,28.5,1522.15c-9.46-9.46-37.79-159.57-25.43-306.62,7.08-84.16,51.54-150.67,59.57-231.38,13.03-130.97,24.37-234.16,24.37-234.16,0,0,96.65,35.48,114.02,201.72,11.08,106.04-2.74,211.26,6.13,287.01,9.55,81.51,41.39,129.65,41.39,129.65l730.85-241.43s-37.95,444.32-64.25,501.03c-30.66,66.1-90.21,241.67-90.21,241.67l-4.59,546.58H157.51Zm0,0"/><path class="cls-10" d="m255.03,1254.01l-26.54,19.37s-52.46,78.78-78.38,77.85c-29.02-1.03,63.24,37.31,63.24,37.31,0,0,6.49,37.05-9.32,75.08-15.81,38.02-53.92,77.04-53.92,77.04l52.8-14.04-.4,113.41s104.16,81.23,159.53,77.41c64.63-4.45,44.18,82.76,44.18,82.76,0,0,202.58-67.88,248.93-68.43,125.78-1.49,245.87-20.37,303-84.9,108.35-122.39-180.31-422.21-180.31-422.21l-522.81,29.36Zm0,0"/><path class="cls-14" d="m981.12,1587.04l-4.01-1498.51C976.98,39.51,937.13-.14,888.1,0L287.6,1.61c-49.03.12-88.66,39.98-88.54,89.01l4.01,1498.52c.12,49.03,39.98,88.66,89.01,88.54l600.49-1.61c49.03-.14,88.67-39.98,88.54-89.02h0Zm0,0"/><path class="cls-8" d="m961.63,1557.95l-3.73-1444.18c-.11-41.77-34.06-75.55-75.85-75.43l-590.91,1.63c-41.77.11-75.56,34.08-75.45,75.85l3.73,1444.18c.11,41.78,34.07,75.55,75.85,75.43l590.9-1.62c41.78-.12,75.56-34.08,75.46-75.85h0Zm0,0"/><path class="cls-14" d="m607.14,80.11c0-10.2-8.27-18.47-18.47-18.47s-18.47,8.27-18.47,18.47,8.27,18.47,18.47,18.47,18.47-8.27,18.47-18.47h0Zm0,0"/><path class="cls-7" d="m87.01,749.99s12.91,5.77,16.69,57.16c3.78,51.4-1.57,148.42-1.57,148.42,0,0-12.82,13.55-21.84,12.21-9.02-1.33-14.24-17.54-14.24-17.54l20.96-200.25Zm0,0"/><path class="cls-4" d="m1088.21,1489.9s14.57-64.31-12.97-91.82c-27.53-27.5-53.83-30.77-97.17-18.21-43.35,12.56-76.21,68.45-76.21,68.45,0,0-9.63,42.07,0,62.27,9.64,20.19,20.14,26.91,46.92,33.03,26.78,6.13,60.21-8.53,60.21-8.53l79.22-45.19Zm0,0"/><path class="cls-7" d="m898.53,1469.17s20.31-28.03,50.86-29.5c30.56-1.46,60.29,4.7,64.43,32.99,4.14,28.29-42.95,72.1-42.95,72.1,0,0-36.45,9.34-64.21-17.92-18.07-18.14-8.14-57.68-8.14-57.68h0Zm0,0"/><path class="cls-11" d="m201.66,1060.48l.29,106.9-51.84,76.97s22.3-41.26,35.19-87.23c12.89-45.97,16.37-96.64,16.37-96.64h0Zm0,0"/><path class="cls-10" d="m195.62,1791.91l29.41,50.09-14.58,124.04s39.38-19.87,75.16-55.65c35.78-35.79,67.94-87.49,67.94-87.49,0,0-39.49,29.06-78.97,21.32-39.48-7.75-78.96-52.31-78.96-52.31h0Zm0,0"/><path class="cls-10" d="m841.15,1822.77l-16.21,46.87-.64,76.08s-24.97-11.73-53.93-45.02c-28.97-33.28-61.91-88.11-61.91-88.11,0,0,44.19,36.6,80.21,42.28,36.01,5.69,52.47-32.11,52.47-32.11h0Zm0,0"/><path class="cls-11" d="m980.86,1543.7l11.51-2.94,27.75-12.02-39.08,32.1-.19-17.14Zm0,0"/><path class="cls-16" d="m952.54,2319.01l24.75,169.65,42.63,292.04H119.22l27.24-254.98,19.93-186.5,708.69-18.23,77.46-1.99Zm0,0"/><path class="cls-13" d="m888,1904.09l-699.64,48.97-64.13,571.64,785.67,36.43,12.2-189.71,88.4,187.82,15.79-.51-138.3-654.64Zm0,0"/><path class="cls-16" d="m952.54,2319.01c-.67-21.98-18.56-39.23-39.96-38.54-21.39.69-38.19,19.06-37.52,41.04.67,21.98,18.55,39.23,39.95,38.54,21.39-.69,38.2-19.07,37.52-41.05h0Zm0,0"/><path class="cls-4" d="m979.44,1314.51l1.16,78.42,93.11-91.44s-34.79,19.81-58.17,22.88c-23.38,3.07-36.1-9.85-36.1-9.85h0Zm0,0"/><path class="cls-4" d="m1073.34,1306.45s63.34-30.37,6.11-119.71c-34.13-53.27-106.28-28.12-106.28-28.12,0,0-42.32,31.61-49.8,64.62-7.48,33-17.31,91.82,64.16,104.75,28.33,4.49,85.81-21.54,85.81-21.54h0Zm0,0"/><path class="cls-7" d="m950.73,1232.36s68.23-20.26,78.91-2.31c10.68,17.94-36.18,74.09-36.18,74.09,0,0,2.76-31.25-7.92-49.2-10.69-17.94-34.8-22.57-34.8-22.57h0Zm0,0"/><path class="cls-7" d="m1054.23,912.04s60.64,4.78,70.91,27.96c10.29,23.17-25.57,76.31-25.57,76.31l-45.34-104.27Zm0,0"/><path class="cls-4" d="m979.41,1126.94s36.85-20.81,66.84-47.72c29.98-26.9,60.73-70.4,60.73-70.4,0,0,16.52-48.03-2.92-73.81-19.43-25.78-74.8-29.31-74.8-29.31l-49.9,8.16.05,213.08Zm0,0"/><path class="cls-7" d="m994.39,713.17s21.99-1.25,30.29,8.45c8.29,9.69,1.29,32.55,1.29,32.55l-31.57-40.99Zm0,0"/><path class="cls-4" d="m979.24,705.06v121.34s47.42-46.63,47.01-77c-.41-30.38-47.01-44.34-47.01-44.34h0Zm0,0"/><path class="cls-11" d="m979.07,1326.4l.7,11.09,51.32-30.27s-17.59,10.34-30.6,15.14c-13,4.79-21.42,4.05-21.42,4.05h0Zm0,0"/><g class="cls-2"><path class="cls-15" d="m838.66,716.49c0,29.45-23.88,53.33-53.33,53.33h-393.34c-29.45,0-53.32-23.88-53.32-53.33v-393.34c0-29.45,23.87-53.33,53.32-53.33h393.34c29.45,0,53.33,23.88,53.33,53.33v393.34Z"/><path class="cls-6" d="m553.62,700.69c-1.55,0-3.06-.55-4.25-1.56l-151.43-128.72c-2.8-2.38-3.14-6.6-.76-9.4l54.78-64.45c1.27-1.48,3.13-2.34,5.1-2.34,1.59,0,3.11.56,4.31,1.58l70.09,59.58c2.59,2.2,5.89,3.42,9.29,3.42,4.29,0,8.31-1.89,11.04-5.17l153.17-183.8c1.27-1.52,3.14-2.39,5.14-2.39,1.55,0,3.07.54,4.26,1.53l64.97,54.15c1.36,1.13,2.2,2.74,2.36,4.52.16,1.79-.37,3.52-1.51,4.88l-221.52,265.81c-1.25,1.5-3.09,2.36-5.06,2.36"/></g></svg>