<?xml version="1.0" encoding="UTF-8" standalone="no"?>
<!-- Created with Inkscape (http://www.inkscape.org/) -->
<svg xmlns:dc="http://purl.org/dc/elements/1.1/" xmlns:cc="http://creativecommons.org/ns#" xmlns:rdf="http://www.w3.org/1999/02/22-rdf-syntax-ns#" xmlns:svg="http://www.w3.org/2000/svg" xmlns="http://www.w3.org/2000/svg" xmlns:inkscape="http://www.inkscape.org/namespaces/inkscape" version="1.1" width="512.06" height="597.90002" id="svg2" xml:space="preserve"><metadata id="metadata8"><rdf:RDF><cc:Work rdf:about=""><dc:format>image/svg+xml</dc:format><dc:type rdf:resource="http://purl.org/dc/dcmitype/StillImage"/></cc:Work></rdf:RDF></metadata><defs id="defs6"><clipPath id="clipPath16"><path d="m 0,478.32 409.648,0 L 409.648,0 0,0 0,478.32 z" inkscape:connector-curvature="0" id="path18"/></clipPath></defs><g transform="matrix(1.25,0,0,-1.25,0,597.9)" id="g10"><g id="g12"><g clip-path="url(#clipPath16)" id="g14"><g transform="translate(1.7832,477.3198)" id="g20"><path d="m 0,0 c -1.076,-67.808 -1.012,-135.625 0,-203.431 0.976,-65.328 4.234,-116.309 33.501,-156.172 35.255,-48.02 93.989,-82.672 169.54,-116.717 75.552,34.045 134.285,68.697 169.54,116.717 29.267,39.863 32.525,90.844 33.501,156.172 1.013,67.806 1.076,135.623 0,203.431 L 0,0 z" inkscape:connector-curvature="0" id="path22" style="fill:#ffffff;fill-opacity:1;fill-rule:nonzero;stroke:none"/></g><g transform="translate(238.5605,16.7588)" id="g24"><path d="M 0,0 C 2.184,1.399 4.459,2.312 6.915,2.631 8.093,3.214 9.249,3.88 10.389,4.588 4.072,4.73 -4.758,2.489 -4.758,1.508 c 0,-0.627 1.606,-1.425 3.932,-2.113 C -0.568,-0.396 -0.298,-0.19 0,0" inkscape:connector-curvature="0" id="path26" style="fill:#000000;fill-opacity:1;fill-rule:nonzero;stroke:none"/></g><g transform="translate(258.252,27.4609)" id="g28"><path d="m 0,0 c 0.993,0.593 1.965,0.94 2.895,1.089 0.763,0.775 1.594,1.313 2.453,1.658 -0.575,4.99 -2.61,10.225 -3.81,10.225 -1.585,0 -4.628,-8.761 -3.834,-14.426 0.769,0.507 1.534,1 2.296,1.454" inkscape:connector-curvature="0" id="path30" style="fill:#000000;fill-opacity:1;fill-rule:nonzero;stroke:none"/></g><g transform="translate(309.0674,456.1543)" id="g32"><path d="M 0,0 C -0.765,6.268 21.401,2.063 21.401,0 21.401,-2.14 0,-6.574 0,0 m -5.351,3.516 c 7.644,-0.229 2.293,18.65 0,18.65 -2.293,0 -7.642,-18.421 0,-18.65 m 0,-60 c 3.058,13.757 18.345,4.586 24.459,2.293 -15.287,16.05 -21.401,51.287 -24.459,51.287 -3.056,-0.077 -9.171,-35.237 -24.458,-51.287 6.879,2.293 22.165,11.464 24.458,-2.293 m -4.586,56.407 c 0.765,6.345 -21.401,2.14 -21.401,0 0,-2.14 21.401,-6.572 21.401,0" inkscape:connector-curvature="0" id="path34" style="fill:#000000;fill-opacity:1;fill-rule:nonzero;stroke:none"/></g><g transform="translate(402.3164,459.6699)" id="g36"><path d="M 0,0 C 7.644,-0.229 2.293,18.65 0,18.65 -2.293,18.65 -7.644,0.229 0,0" inkscape:connector-curvature="0" id="path38" style="fill:#000000;fill-opacity:1;fill-rule:nonzero;stroke:none"/></g><g transform="translate(397.7305,456.0776)" id="g40"><path d="M 0,0 C 0.765,6.344 -21.401,2.14 -21.401,0 -21.401,-2.14 0,-6.573 0,0" inkscape:connector-curvature="0" id="path42" style="fill:#000000;fill-opacity:1;fill-rule:nonzero;stroke:none"/></g><g transform="translate(407.3633,441.2695)" id="g44"><path d="m 0,0 c -2.326,7.032 -3.901,11.98 -5.047,11.98 -3.057,-0.076 -9.172,-35.236 -24.459,-51.287 6.879,2.293 22.166,11.465 24.459,-2.293 0.865,3.892 2.709,5.947 5.047,6.844 L 0,0 z" inkscape:connector-curvature="0" id="path46" style="fill:#000000;fill-opacity:1;fill-rule:nonzero;stroke:none"/></g><g transform="translate(261.832,370.5483)" id="g48"><path d="M 0,0 C -0.765,6.268 21.401,2.064 21.401,0 21.401,-2.14 0,-6.573 0,0 m -5.351,3.516 c 7.644,-0.229 2.293,18.65 0,18.65 -2.293,0 -7.643,-18.421 0,-18.65 m 0,-60 c 3.058,13.758 18.344,4.586 24.459,2.293 C 3.821,-38.14 -2.293,-2.904 -5.351,-2.904 -8.408,-2.98 -14.522,-38.14 -29.81,-54.191 c 6.879,2.293 22.166,11.465 24.459,-2.293 m -4.586,56.408 c 0.765,6.344 -21.401,2.14 -21.401,0 0,-2.14 21.401,-6.573 21.401,0" inkscape:connector-curvature="0" id="path50" style="fill:#000000;fill-opacity:1;fill-rule:nonzero;stroke:none"/></g><g transform="translate(360.4307,370.5483)" id="g52"><path d="M 0,0 C -0.764,6.268 21.401,2.064 21.401,0 21.401,-2.14 0,-6.573 0,0 m -5.35,3.516 c 7.643,-0.229 2.293,18.65 0,18.65 -2.294,0 -7.643,-18.421 0,-18.65 m 0,-60 c 3.057,13.758 18.344,4.586 24.458,2.293 C 3.822,-38.14 -2.293,-2.904 -5.35,-2.904 -8.407,-2.98 -14.522,-38.14 -29.809,-54.191 c 6.879,2.293 22.165,11.465 24.459,-2.293 m -4.587,56.408 c 0.765,6.344 -21.4,2.14 -21.4,0 0,-2.14 21.4,-6.573 21.4,0" inkscape:connector-curvature="0" id="path54" style="fill:#000000;fill-opacity:1;fill-rule:nonzero;stroke:none"/></g><g transform="translate(261.832,199.3379)" id="g56"><path d="M 0,0 C -0.765,6.268 21.401,2.063 21.401,0 21.401,-2.141 0,-6.574 0,0 m -5.351,3.516 c 7.644,-0.23 2.293,18.65 0,18.65 -2.293,0 -7.643,-18.422 0,-18.65 m 0,-60 c 3.058,13.757 18.344,4.586 24.459,2.293 -15.287,16.05 -21.401,51.286 -24.459,51.286 -3.057,-0.076 -9.171,-35.236 -24.459,-51.286 6.879,2.293 22.166,11.464 24.459,-2.293 m -4.586,56.407 c 0.765,6.345 -21.401,2.14 -21.401,0 0,-2.14 21.401,-6.573 21.401,0" inkscape:connector-curvature="0" id="path58" style="fill:#000000;fill-opacity:1;fill-rule:nonzero;stroke:none"/></g><g transform="translate(360.4307,199.3379)" id="g60"><path d="M 0,0 C -0.764,6.268 21.401,2.063 21.401,0 21.401,-2.141 0,-6.574 0,0 m -5.35,3.516 c 7.643,-0.23 2.293,18.65 0,18.65 -2.294,0 -7.643,-18.422 0,-18.65 m 0,-60 c 3.057,13.757 18.344,4.586 24.458,2.293 -15.286,16.05 -21.401,51.286 -24.458,51.286 -3.057,-0.076 -9.172,-35.236 -24.459,-51.286 6.879,2.293 22.165,11.464 24.459,-2.293 m -4.587,56.407 c 0.765,6.345 -21.4,2.14 -21.4,0 0,-2.14 21.4,-6.573 21.4,0" inkscape:connector-curvature="0" id="path62" style="fill:#000000;fill-opacity:1;fill-rule:nonzero;stroke:none"/></g><g transform="translate(309.0674,287.2358)" id="g64"><path d="M 0,0 C -0.765,6.268 21.401,2.064 21.401,0 21.401,-2.14 0,-6.573 0,0 m -5.351,3.516 c 7.644,-0.229 2.293,18.65 0,18.65 -2.293,0 -7.642,-18.421 0,-18.65 m 0,-60 c 3.058,13.758 18.345,4.586 24.459,2.293 -15.287,16.051 -21.401,51.287 -24.459,51.287 -3.056,-0.077 -9.171,-35.236 -24.458,-51.287 6.879,2.293 22.165,11.465 24.458,-2.293 m -4.586,56.407 c 0.765,6.345 -21.401,2.141 -21.401,0 0,-2.139 21.401,-6.572 21.401,0" inkscape:connector-curvature="0" id="path66" style="fill:#000000;fill-opacity:1;fill-rule:nonzero;stroke:none"/></g><g transform="translate(397.7305,287.1592)" id="g68"><path d="M 0,0 C 0.765,6.344 -21.401,2.141 -21.401,0 -21.401,-2.14 0,-6.573 0,0" inkscape:connector-curvature="0" id="path70" style="fill:#000000;fill-opacity:1;fill-rule:nonzero;stroke:none"/></g><g transform="translate(402.3164,290.752)" id="g72"><path d="M 0,0 C 7.644,-0.229 2.293,18.65 0,18.65 -2.293,18.65 -7.644,0.229 0,0" inkscape:connector-curvature="0" id="path74" style="fill:#000000;fill-opacity:1;fill-rule:nonzero;stroke:none"/></g><g transform="translate(407.791,269.8135)" id="g76"><path d="m 0,0 c -0.263,0.751 -0.414,1.591 -0.424,2.525 -2.328,7.039 -3.904,11.993 -5.051,11.993 -3.057,-0.077 -9.171,-35.236 -24.459,-51.287 6.879,2.293 22.166,11.465 24.459,-2.293 0.917,4.124 2.937,6.179 5.475,6.985 L 0,0 z" inkscape:connector-curvature="0" id="path78" style="fill:#000000;fill-opacity:1;fill-rule:nonzero;stroke:none"/></g><g transform="translate(210.4678,110.6748)" id="g80"><path d="M 0,0 C -0.764,6.268 21.401,2.063 21.401,0 21.401,-2.141 0,-6.574 0,0 m -5.35,3.516 c 7.643,-0.23 2.293,18.65 0,18.65 -2.293,0 -7.643,-18.422 0,-18.65 m 0,-60 c 3.057,13.757 18.344,4.586 24.458,2.293 -15.286,16.05 -21.401,51.287 -24.458,51.287 -3.057,-0.076 -9.172,-35.237 -24.459,-51.287 6.879,2.293 22.166,11.464 24.459,-2.293 m -4.586,56.407 c 0.765,6.345 -21.401,2.14 -21.401,0 0,-2.14 21.401,-6.573 21.401,0" inkscape:connector-curvature="0" id="path82" style="fill:#000000;fill-opacity:1;fill-rule:nonzero;stroke:none"/></g><g transform="translate(303.7168,114.1904)" id="g84"><path d="M 0,0 C 7.644,-0.229 2.293,18.65 0,18.65 -2.293,18.65 -7.643,0.229 0,0" inkscape:connector-curvature="0" id="path86" style="fill:#000000;fill-opacity:1;fill-rule:nonzero;stroke:none"/></g><g transform="translate(330.4687,110.6748)" id="g88"><path d="M 0,0 C 0,2.063 -22.166,6.268 -21.401,0 -21.401,-6.574 0,-2.141 0,0" inkscape:connector-curvature="0" id="path90" style="fill:#000000;fill-opacity:1;fill-rule:nonzero;stroke:none"/></g><g transform="translate(299.1309,110.5977)" id="g92"><path d="M 0,0 C 0.765,6.345 -21.401,2.141 -21.401,0 -21.401,-2.14 0,-6.573 0,0" inkscape:connector-curvature="0" id="path94" style="fill:#000000;fill-opacity:1;fill-rule:nonzero;stroke:none"/></g><g transform="translate(314.7373,61.3652)" id="g96"><path d="m 0,0 c 1.554,2.348 3.611,4.275 6.063,5.305 -10.003,17.382 -14.575,41.1 -17.084,41.1 -3.056,-0.076 -9.171,-35.236 -24.458,-51.287 6.879,2.293 22.166,11.465 24.458,-2.293 C -9.498,-0.325 -4.943,0.839 0,0" inkscape:connector-curvature="0" id="path98" style="fill:#000000;fill-opacity:1;fill-rule:nonzero;stroke:none"/></g><g transform="translate(200.5317,456.1543)" id="g100"><path d="M 0,0 C 0.765,6.268 -21.401,2.063 -21.401,0 -21.401,-2.14 0,-6.574 0,0 m 5.35,3.516 c -7.643,-0.229 -2.292,18.65 0,18.65 2.293,0 7.644,-18.421 0,-18.65 m 0,-60 c -3.057,13.757 -18.344,4.586 -24.458,2.293 15.286,16.05 21.401,51.287 24.458,51.287 3.058,-0.077 9.173,-35.237 24.459,-51.287 -6.879,2.293 -22.166,11.464 -24.459,-2.293 m 4.586,56.407 c -0.764,6.345 21.401,2.14 21.401,0 0,-2.14 -21.401,-6.572 -21.401,0" inkscape:connector-curvature="0" id="path102" style="fill:#000000;fill-opacity:1;fill-rule:nonzero;stroke:none"/></g><g transform="translate(200.5317,284.4082)" id="g104"><path d="M 0,0 C 0.765,6.267 -21.401,2.063 -21.401,0 -21.401,-2.141 0,-6.573 0,0 m 5.35,3.516 c -7.643,-0.229 -2.292,18.65 0,18.65 2.293,0 7.644,-18.421 0,-18.65 m 0,-60.001 c -3.057,13.758 -18.344,4.586 -24.458,2.293 C -3.822,-38.141 2.293,-2.905 5.35,-2.905 8.408,-2.981 14.523,-38.141 29.809,-54.192 22.93,-51.899 7.643,-42.727 5.35,-56.485 m 4.586,56.408 c -0.764,6.344 21.401,2.14 21.401,0 0,-2.14 -21.401,-6.573 -21.401,0" inkscape:connector-curvature="0" id="path106" style="fill:#000000;fill-opacity:1;fill-rule:nonzero;stroke:none"/></g><g transform="translate(155.0332,25.9473)" id="g108"><path d="M 0,0 C 0.824,5.663 -2.233,14.485 -3.824,14.485 -5.143,14.485 -7.471,8.159 -7.757,2.787 -5.265,2.235 -2.616,1.214 0,0" inkscape:connector-curvature="0" id="path110" style="fill:#000000;fill-opacity:1;fill-rule:nonzero;stroke:none"/></g><g transform="translate(163.8193,21.3301)" id="g112"><path d="m 0,0 c 2.609,-1.465 4.868,-2.74 6.461,-3.386 1.075,-0.435 1.995,-1.086 2.768,-1.856 2.445,0.703 4.148,1.532 4.148,2.179 C 13.377,-2.171 6.075,-0.236 0,0" inkscape:connector-curvature="0" id="path114" style="fill:#000000;fill-opacity:1;fill-rule:nonzero;stroke:none"/></g><g transform="translate(101.9326,456.1543)" id="g116"><path d="M 0,0 C 0.764,6.268 -21.401,2.063 -21.401,0 -21.401,-2.14 0,-6.574 0,0 m 5.35,3.516 c -7.643,-0.229 -2.293,18.65 0,18.65 2.293,0 7.644,-18.421 0,-18.65 m 0,-60 c -3.057,13.757 -18.344,4.586 -24.458,2.293 15.286,16.05 21.401,51.287 24.458,51.287 3.058,-0.077 9.172,-35.237 24.459,-51.287 -6.879,2.293 -22.166,11.464 -24.459,-2.293 m 4.587,56.407 c -0.765,6.345 21.401,2.14 21.401,0 0,-2.14 -21.401,-6.572 -21.401,0" inkscape:connector-curvature="0" id="path118" style="fill:#000000;fill-opacity:1;fill-rule:nonzero;stroke:none"/></g><g transform="translate(8.6836,459.6699)" id="g120"><path d="M 0,0 C 7.644,0.229 2.293,18.65 0,18.65 -2.293,18.65 -7.644,-0.229 0,0" inkscape:connector-curvature="0" id="path122" style="fill:#000000;fill-opacity:1;fill-rule:nonzero;stroke:none"/></g><g transform="translate(0.7041,453.2798)" id="g124"><path d="M 0,0 C 1.603,0.523 2.629,1.435 2.629,2.875 2.807,4.332 1.735,5.218 0,5.702 L 0,0 z" inkscape:connector-curvature="0" id="path126" style="fill:#000000;fill-opacity:1;fill-rule:nonzero;stroke:none"/></g><g transform="translate(13.2695,456.0776)" id="g128"><path d="M 0,0 C 0,-6.573 21.401,-2.14 21.401,0 21.401,2.14 -0.764,6.344 0,0" inkscape:connector-curvature="0" id="path130" style="fill:#000000;fill-opacity:1;fill-rule:nonzero;stroke:none"/></g><g transform="translate(8.6836,453.25)" id="g132"><path d="m 0,0 c -1.572,0 -3.958,-9.326 -7.979,-20.562 l 0,-25.621 c 3.682,-0.131 6.777,-1.988 7.979,-7.397 2.293,13.758 17.58,4.586 24.459,2.293 C 9.172,-35.236 3.057,-0.077 0,0" inkscape:connector-curvature="0" id="path134" style="fill:#000000;fill-opacity:1;fill-rule:nonzero;stroke:none"/></g><g transform="translate(149.1685,370.5483)" id="g136"><path d="M 0,0 C 0.764,6.268 -21.401,2.064 -21.401,0 -21.401,-2.14 0,-6.573 0,0 m 5.35,3.516 c -7.643,-0.229 -2.293,18.65 0,18.65 2.293,0 7.644,-18.421 0,-18.65 m 0,-60 c -3.057,13.758 -18.344,4.586 -24.458,2.293 C -3.822,-38.14 2.293,-2.904 5.35,-2.904 8.408,-2.98 14.522,-38.14 29.809,-54.191 22.93,-51.898 7.643,-42.726 5.35,-56.484 m 4.586,56.408 c -0.764,6.344 21.401,2.14 21.401,0 0,-2.14 -21.401,-6.573 -21.401,0" inkscape:connector-curvature="0" id="path138" style="fill:#000000;fill-opacity:1;fill-rule:nonzero;stroke:none"/></g><g transform="translate(50.5688,370.5483)" id="g140"><path d="M 0,0 C 0.765,6.268 -21.401,2.064 -21.401,0 -21.401,-2.14 0,-6.573 0,0 m 5.351,3.516 c -7.644,-0.229 -2.293,18.65 0,18.65 2.293,0 7.643,-18.421 0,-18.65 m 0,-60 c -3.058,13.758 -18.345,4.586 -24.459,2.293 C -3.821,-38.14 2.293,-2.904 5.351,-2.904 8.408,-2.98 14.522,-38.14 29.809,-54.191 22.93,-51.898 7.644,-42.726 5.351,-56.484 m 4.586,56.408 c -0.765,6.344 21.401,2.14 21.401,0 0,-2.14 -21.401,-6.573 -21.401,0" inkscape:connector-curvature="0" id="path142" style="fill:#000000;fill-opacity:1;fill-rule:nonzero;stroke:none"/></g><g transform="translate(149.1685,199.3379)" id="g144"><path d="M 0,0 C 0.764,6.268 -21.401,2.063 -21.401,0 -21.401,-2.141 0,-6.574 0,0 m 5.35,3.516 c -7.643,-0.23 -2.293,18.65 0,18.65 2.293,0 7.644,-18.422 0,-18.65 m 0,-60 c -3.057,13.757 -18.344,4.586 -24.458,2.293 15.286,16.05 21.401,51.286 24.458,51.286 3.058,-0.076 9.172,-35.236 24.459,-51.286 -6.879,2.293 -22.166,11.464 -24.459,-2.293 m 4.586,56.407 c -0.764,6.345 21.401,2.14 21.401,0 0,-2.14 -21.401,-6.573 -21.401,0" inkscape:connector-curvature="0" id="path146" style="fill:#000000;fill-opacity:1;fill-rule:nonzero;stroke:none"/></g><g transform="translate(50.5688,199.3379)" id="g148"><path d="M 0,0 C 0.765,6.268 -21.401,2.063 -21.401,0 -21.401,-2.141 0,-6.574 0,0 m 5.351,3.516 c -7.644,-0.23 -2.293,18.65 0,18.65 2.293,0 7.643,-18.422 0,-18.65 m 0,-60 c -3.058,13.757 -18.345,4.586 -24.459,2.293 15.287,16.05 21.401,51.286 24.459,51.286 3.057,-0.076 9.171,-35.236 24.458,-51.286 -6.879,2.293 -22.165,11.464 -24.458,-2.293 m 4.586,56.407 c -0.765,6.345 21.401,2.14 21.401,0 0,-2.14 -21.401,-6.573 -21.401,0" inkscape:connector-curvature="0" id="path150" style="fill:#000000;fill-opacity:1;fill-rule:nonzero;stroke:none"/></g><g transform="translate(101.9326,287.2358)" id="g152"><path d="M 0,0 C 0.764,6.268 -21.401,2.064 -21.401,0 -21.401,-2.14 0,-6.573 0,0 m 5.35,3.516 c -7.643,-0.229 -2.293,18.65 0,18.65 2.293,0 7.644,-18.421 0,-18.65 m 0,-60 c -3.057,13.758 -18.344,4.586 -24.458,2.293 C -3.822,-38.14 2.293,-2.904 5.35,-2.904 8.408,-2.981 14.522,-38.14 29.809,-54.191 22.93,-51.898 7.643,-42.726 5.35,-56.484 m 4.587,56.407 c -0.765,6.345 21.401,2.141 21.401,0 0,-2.139 -21.401,-6.572 -21.401,0" inkscape:connector-curvature="0" id="path154" style="fill:#000000;fill-opacity:1;fill-rule:nonzero;stroke:none"/></g><g transform="translate(0.7041,290.063)" id="g156"><path d="m 0,0 0,-0.935 c 0,-0.003 0,-0.006 0,-0.009 l 0,-4.757 c 1.603,0.524 2.629,1.435 2.629,2.874 C 2.807,-1.37 1.735,-0.484 0,0" inkscape:connector-curvature="0" id="path158" style="fill:#000000;fill-opacity:1;fill-rule:nonzero;stroke:none"/></g><g transform="translate(13.2695,287.1592)" id="g160"><path d="M 0,0 C 0,-6.573 21.401,-2.14 21.401,0 21.401,2.141 -0.764,6.344 0,0" inkscape:connector-curvature="0" id="path162" style="fill:#000000;fill-opacity:1;fill-rule:nonzero;stroke:none"/></g><g transform="translate(8.6836,290.752)" id="g164"><path d="M 0,0 C 7.644,0.229 2.293,18.65 0,18.65 -2.293,18.65 -7.644,-0.229 0,0" inkscape:connector-curvature="0" id="path166" style="fill:#000000;fill-opacity:1;fill-rule:nonzero;stroke:none"/></g><g transform="translate(8.6836,284.3315)" id="g168"><path d="m 0,0 c -1.481,0 -3.685,-8.275 -7.296,-18.626 0.051,-0.374 0.087,-0.757 0.087,-1.164 10e-4,-7.618 -0.123,-15.316 0.608,-22.907 0.115,-1.192 0.194,-2.426 0.199,-3.666 2.97,-0.578 5.376,-2.601 6.402,-7.217 2.293,13.758 17.58,4.586 24.459,2.293 C 9.172,-35.236 3.057,-0.077 0,0" inkscape:connector-curvature="0" id="path170" style="fill:#000000;fill-opacity:1;fill-rule:nonzero;stroke:none"/></g><g transform="translate(200.5317,110.6748)" id="g172"><path d="M 0,0 C 0.765,6.268 -21.401,2.063 -21.401,0 -21.401,-2.141 0,-6.574 0,0 m 5.35,3.516 c -7.643,-0.23 -2.292,18.65 0,18.65 2.293,0 7.644,-18.422 0,-18.65 m 0,-60 c -3.057,13.757 -18.344,4.586 -24.458,2.293 C -3.822,-38.141 2.293,-2.904 5.35,-2.904 8.408,-2.98 14.523,-38.141 29.809,-54.191 22.93,-51.898 7.643,-42.727 5.35,-56.484 m 4.586,56.407 c -0.764,6.345 21.401,2.14 21.401,0 0,-2.14 -21.401,-6.573 -21.401,0" inkscape:connector-curvature="0" id="path174" style="fill:#000000;fill-opacity:1;fill-rule:nonzero;stroke:none"/></g><g transform="translate(101.9326,110.6748)" id="g176"><path d="M 0,0 C 0.764,6.268 -21.401,2.063 -21.401,0 -21.401,-2.141 0,-6.574 0,0" inkscape:connector-curvature="0" id="path178" style="fill:#000000;fill-opacity:1;fill-rule:nonzero;stroke:none"/></g><g transform="translate(111.8691,110.5977)" id="g180"><path d="M 0,0 C 0,-6.573 21.401,-2.14 21.401,0 21.401,2.141 -0.765,6.345 0,0" inkscape:connector-curvature="0" id="path182" style="fill:#000000;fill-opacity:1;fill-rule:nonzero;stroke:none"/></g><g transform="translate(107.2827,114.1904)" id="g184"><path d="M 0,0 C 7.644,0.229 2.293,18.65 0,18.65 -2.293,18.65 -7.643,-0.229 0,0" inkscape:connector-curvature="0" id="path186" style="fill:#000000;fill-opacity:1;fill-rule:nonzero;stroke:none"/></g><g transform="translate(107.2827,107.7705)" id="g188"><path d="m 0,0 c -2.605,0 -7.436,-25.581 -18.265,-43.079 0.605,-0.18 1.187,-0.447 1.72,-0.843 0.974,-0.724 1.955,-1.41 2.757,-2.323 0.059,-0.067 0.119,-0.137 0.177,-0.205 l 0.062,-0.041 c 0.171,-0.113 0.333,-0.237 0.494,-0.36 5.682,1.497 11.326,1.054 13.055,-6.729 2.293,13.758 17.58,4.586 24.459,2.293 C 9.172,-35.236 3.058,-0.076 0,0" inkscape:connector-curvature="0" id="path190" style="fill:#000000;fill-opacity:1;fill-rule:nonzero;stroke:none"/></g><g transform="translate(1.7832,478.3198)" id="g192"><path d="m 0,0 c -1.076,-67.808 -1.012,-135.625 0,-203.431 0.976,-65.328 4.234,-116.309 33.501,-156.172 35.255,-48.02 93.989,-82.672 169.54,-116.717 75.552,34.045 134.285,68.697 169.54,116.717 29.267,39.863 32.525,90.844 33.501,156.172 1.013,67.806 1.076,135.623 0,203.431 L 0,0 z" inkscape:connector-curvature="0" id="path194" style="fill:none;stroke:#554400;stroke-width:2;stroke-linecap:butt;stroke-linejoin:miter;stroke-miterlimit:4;stroke-opacity:1;stroke-dasharray:none"/></g></g></g></g></svg>