<?xml version="1.0" encoding="UTF-8" standalone="no"?>
<svg xmlns:rdf="http://www.w3.org/1999/02/22-rdf-syntax-ns#" xmlns="http://www.w3.org/2000/svg" height="949.92" width="808.34" version="1.0" xmlns:cc="http://creativecommons.org/ns#" xmlns:dc="http://purl.org/dc/elements/1.1/">
	<path d="m6.9839 409.36c1.726 127.98 8.2949 227.85 65.63 305.95 69.066 94.069 184.12 161.96 332.13 228.65 148.01-66.695 263.07-134.58 332.13-228.65 57.334-78.092 63.719-177.96 65.629-305.95 1.9834-132.83 2.1078-265.69 0-398.52h-795.53c-2.3883 132.83-1.7876 265.68 0.0037 398.52z" stroke="#000000" stroke-width="3" fill="#ffffff"/>
	<g>
		<g transform="matrix(3.6646 0 0 3.6646 -194.78 -780.24)">
			<path d="m215.37 385.6c-16.007 7.4032-19.919 17.152-26.988 24.928-7.0687 7.7756-17.608 24.503-38.107 18.848-0.643-4.1892-3.2908-15.743-11.02-20.968-4.7763-2.9093-10.603-7.0687-11.663-14.137-8.4824 2.1206-29.724 3.8167-30.749-7.4221-0.35344-3.8878 2.9771-9.8442-0.58492-13.945-0.80455 0.0256-5.3124 0.1159-6.4942-0.4355-1.2366-1.4609-0.01583-6.776 0.88047-7.9563l-0.0096-0.0492c-2.116-0.1929-7.5756-5.1819-0.86042-8.7162 1.7709-2.0817 1.4608-3.7827 1.455-5.7013-1.1096 0.0151-3.8363-0.0162-4.2352-0.0429-7.0783-0.0263-6.1691-4.5929-4.1303-9.4535 1.4137-3.1809 9.3846-18.379 10.798-20.499 1.4137-2.1206 1.4137-3.1809 0.35347-5.3015-1.0603-2.1207-0.70691-5.655 0-8.129 0.70684-2.4741 2.1206-6.3619 1.0603-7.4222s-0.70687-4.5946-0.35343-5.3015c0.35343-0.7069 0.35343-2.474 0.35343-3.1809s0.35343-2.474 1.4137-3.1809 1.7672-3.1809 1.0603-3.8878c-0.70686-0.7069 0.35343-5.6549 1.4137-6.0084 1.0604-0.3534 3.181-1.0603 4.2413-3.5343-0.1253-3.4904 2.6163-7.4515 4.2412-9.1893 1.0603-1.0603 0.7069-4.5947 0.7069-4.5947l3.1097 0.0712c0.3388-0.1129 2.8986-3.6055 5.3727-4.3124 2.474-0.7068 8.129-3.5343 8.129-3.5343l3.8878-4.2412 3.5343 1.7671s2.8275-1.0603 5.3015-1.4137c2.4741-0.3534 7.7756-2.1206 9.5428-4.9481 1.7671-2.8275 1.4137 3.365 1.4702 3.7038 0.2258 0.0564 3.1244-1.5832 8.0725-1.2297 4.9481 0.3534 10.603 2.474 12.37 1.7671 1.7672-0.7068 3.5343 1.4138 3.5343 1.4138s3.5344 2.1206 6.3619 2.1206h5.3015l0.3534 2.474s5.3015 1.8237 7.7756 2.884c2.474 1.0602 4.5946 2.4175 7.7755 2.771 3.1809 0.3534 4.2412 1.4137 4.2412 1.4137l-1.4137 2.8275s3.8167 0.778 4.9481 4.5946c2.1206 2.8275 4.9481 7.4222 7.0687 7.7756s3.5343 1.4137 3.5343 1.4137l-2.8274 3.5344s0.7068 1.0603 2.1206 2.474c1.4137 1.4138 4.2412 3.8878 4.2412 3.8878l-1.7672 3.1809s0 0.7069 0.3534 2.474c0.3535 1.7672 0.3535 4.9481 2.1206 5.655 1.7672 0.7069 1.7672 2.8275 1.7672 2.8275s0.3535 0.3534-1.7672 1.0603c-2.1206 0.7069-3.5343 0.7069-2.474 2.1206s2.8275 3.8878 2.8275 3.8878-1.7672 1.0603-3.5344 1.4137c-1.7671 0.3534-3.5343 0.3534-3.5343 0.3534s1.4137 6.7153 2.8275 7.7756c1.4137 1.0603-2.1207 1.7672-4.2413 0.7069s-0.7955 3.1809 0.6183 3.5343-0.5131 0.848-2.1742 0.8655c-1.4137-0.3534-3.2334-0.1061-2.4205 1.9795 1.0604 2.8274 2.2093 4.2237-0.6182 5.6374-2.8275 1.4138-5.3902 7.7756-3.9764 9.8962s2.2092 5.3015 2.2092 5.3015l-6.7152 0.3535s-0.4596 1.0603 1.3076 2.8274c1.7671 1.7672 3.5343 3.7817 3.287 4.2763 0.0534 0.7649-5.3189 0.4546-5.2655 1.2194 4.5705 22.592 15.426 28.929 15.441 30.119l-0.8596 0.6017z" fill-rule="evenodd" stroke="#000000" fill="#1a1a1a"/>
			<path d="m102.76 277.38c-2.3554 1.7666-4.4164 4.7109-2.3554 6.4775 2.6498 2.3554 3.8275 3.2387 3.8275 3.2387s-4.7108-1.4722-5.5941 0.2944c-0.88328 1.7666-1.9141 4.4535 0 5.0053 1.4721 0.8833 4.7108 2.6499 4.7108 2.6499s-7.3607-0.8833-5.5941-0.5889c-0.88328 2.3554-1.7666 6.4774 2.9443 8.244s19.432 7.0663 22.082 8.5385c2.6498 1.4721 8.5384 2.3554 11.483 2.3554 2.9443 0 13.839 0.5888 12.072 0.5888l-6.4775 1.7666c-1.1048 0.1105 12.945 4.4408 15.08 4 1.1407-2.6505 16.424-16.072 24.668 1.0053 0.8833 3.8276-2.061 9.7162-5.0053 10.894-2.9442 1.1777-4.4164 2.6498-5.5941 5.8886-1.1777 3.2387-4.1931 9.0161-7.433 8.539-4.4553-2.9078-6.4052-2.6505-4.3442-0.295 2.282 3.2393 7.6181 3.3868 10.305-0.5889 2.245-2.7603 4.2678-9.8995 8.8329-11.777 2.3554-0.8833 5.2997-6.4775 5.2997-6.4775s4.122-0.2944 5.8886 1.4722c1.7666 1.7665 6.183 1.7665 8.8329 1.4721 2.6498-0.2944 7.1034-1.2876 5.6312-1.2876-1.4721 0 4.0862-0.1839 5.8527 0.1105 1.7666 0.2944 1.1765-4.417-1.7678-6.7725-2.9442-2.3554-11.188-6.183-12.955-8.5384-1.7666-2.3554-14.427-9.4217-17.96-9.7162-3.5331-0.2944-7.9496-2.6498-7.9496-2.6498s6.6255-0.1099 3.3868-0.6988c-3.2387-0.5888-9.5698-3.1288-12.808-4.3065-3.2387-1.1777-5.8886-1.1777-9.4217-1.1777-3.5332 0-26.988-5.7447-32.841-9.3161-4.4164-1.4721 20.953 5.8934 23.898 6.1879 5.0053 0.7361 6.588-0.2577-1.6561-4.2326-3.5331-2.061-19.268-10.312-31.861-13.76-1.2891 1.2891-0.8203 1.6885-3.1757 3.455z" fill-rule="evenodd" stroke="#000000" stroke-width=".125px" fill="#ffffff"/>
			<path d="m167.05 325.85c0.1147 0.0133 0.5895 0.0972 0.8941 0.416 0.3378 0.4358 0.6241 0.8269 0.7947 1.2478 0.1252 0.5615 0.2899 1.0254 0.1987 1.5598-0.1905 0.5235-0.4462 0.8957-0.7948 1.2478-0.3935 0.4858-0.6796 0.7319-1.0927 1.0399-0.4606 0.2181-0.9021 0.6428-1.2916 0.8318-0.1865 0.2527-0.6657 0.4391-0.8941 0.7279-0.2647 0.355-0.4691 0.5314-0.4967 1.0399-0.1719 0.505-0.2293 1.1271-0.2981 1.6638-0.0976 0.5902-0.236 1.1441-0.298 1.6638-0.248 0.4451-0.519 0.6735-1.0928 0.8319-0.4748 0.0842-0.9659 0.104-1.4901 0.104-0.2969-0.284-0.8029-0.6048-1.0929-0.9359v-0.832" stroke="#666666" stroke-linecap="round" stroke-width="2.5298px" fill="none"/>
			<path d="m158.77 323.53c2.5412-4.088 18.451-11.601 14.584 2.9831-0.8839 1.5468 0.7734 2.2097 1.2154 1.1049 4.088-17.236-13.479-10.054-16.241-5.5243-1.1049 1.8783 0.4419 1.5468 0.4419 1.4363z" fill-rule="evenodd" stroke="#666666" stroke-width="1px" fill="#666666"/>
			<path d="m101.43 298.67c5.9662-0.1105 12.264 0.2209 17.125 3.3145 4.8614 3.0936 9.1703 3.9775 14.363 3.9775 5.1929 0 7.8445 0.1105 7.8445 0.1105v0" stroke="#000000" stroke-linecap="round" stroke-width="2px" fill="#e6e6e6"/>
			<path d="m174.85 307.63c9.9703 3.8593 11.737 4.9945 15.947 7.7187 4.2097 2.7242 5.7661 3.1782 9.3111 5.4484 2.6369 1.5891 4.2097 3.4053 4.2097 3.4053 2.2702 1.8162-9.8503-7.0376-17.725-5.2214-2.8803 0-3.3235 0-5.9822-2.9513-2.6587-2.9512-5.7606-5.4484-10.192-7.2646-4.4312-1.8162-12.186-4.7674-12.186-4.7674" stroke="#000000" stroke-width="1.9758px" fill="none"/>
			<path d="m185.93 324.88c0.6043 0 3.1193-0.0954 4.0864 0.227 0.8438 0.114 2.194 0.2236 2.9512 0.4541 1.2838 0.1528 2.4672 0.42 3.8593 0.454 1.4974 0.0135 2.0298 0.4707 3.4053 0.681 0.43 0.5375 1.2423 1.1832 1.8162 1.5892" stroke="#000000" stroke-linecap="round" stroke-width="1.75px" fill="none"/>
			<path d="m103.56 316.52c3.6608 5.0488 9.2712 7.8171 15.403 9.1303-0.1549 1.4838-7.4424 1.5786-10.158 5.0195" stroke="#666666" stroke-width="2.25px" fill="#ffffff"/>
			<path d="m240.46 265.35c-3.1782 0.454-5.3702 0.9862-8.0945 3.7104-2.7242 2.7242-8.9586 7.3626-12.493 0.9959-1.8162-3.6323 2.607-5.3313 4.8772-5.3313 2.2311-0.0781 5.7366-1.8014 9.3689-2.7096 3.6324-0.908 5.7462-4.3075 6.2002-3.8534 0.5474 1.3169 0.49824 6.5091 0.14124 7.188z" stroke="#000000" stroke-width="2px" fill="#d7d7d7"/>
			<path d="m254.81 272.27c0.4976-0.2737 2.853-3.4211 1.6339-7.2571-1.7666-2.6498 7.9993 2.8531 5.9383 5.7974-2.6084 2.0319-7.7755 2.0071-7.5722 1.4597z" stroke="#000000" stroke-width="2px" fill="#d7d7d7"/>
			<path d="m231.56 259.98c-0.0419-0.6005-0.1146-5.9725-0.0234-7.1586 1.8247-0.2737 7.2281-1.0574 8.4058 0.7092 4.1885 6.3284-8.0098 9.4812-8.3043 8.5979l-0.08-2.15z" stroke="#000000" stroke-width="2px" fill="#ffffff"/>
			<path d="m221.7 272.67 7.6551 26.499s4.3215 18.81-8.8329 23.849c-4.122 0.2945-5.5941-0.2944-5.5941-0.2944l1.1777 6.4774c5.8391 6.0215 9.6043 4.599 14.61 2.538 5.0053-2.061 5.2085-2.2228 7.8583-3.695 2.6499-1.4721 6.3033-9.7703 6.7097-12.13 1.1362-6.1002 4.9717-18.083 16.488-43.538-2.0778-0.1824-15.626 1.1861-16.538 1.1861-0.4562 0.7298-2.5868 4.2106-5.8678 5.5858-3.6036 1.4721-8.7943-2.7715-3.5331-6.183 2.5711-1.6387 11.102 0.2925 10.944-4.1635-0.2172-3.8717-5.9384-3.4916-8.2938-3.1972s-5.5941 2.9443-7.0663 4.4164c-3.2968 3.2969-7.9496 3.8276-9.7161 2.6499z" stroke="#000000" stroke-width="2px" fill="#ffffff"/>
			<path d="m209.93 335.68c1.7666 2.9442 3.5332 6.4774 4.4165 11.188 0.8832 4.7108 3.4335 11.3 10.01 12.955 5.2997 1.4722 10.011 3.8276 11.188 7.9496 1.1777 4.122 2.0196 9.3803 2.0196 9.2891l8.1942-11.595c-0.0913-1.5509-0.1535-5.3287-0.1535-9.7451-0.0912-6.4237-4.8518-7.9911-9.5626-9.7577-4.7109-1.7665-9.9899-3.9602-11.462-6.6101-1.4722-2.6498-5.2293-7.2073-7.2903-8.9739-2.061-1.7665-7.3607 5.2998-7.3607 5.2998z" stroke="#000000" stroke-width="2px" fill="#ffffff"/>
			<path d="m218.75 390.37c0.44348 0.96271 0.64433 1.4919 1.0056 2.2766 3.5835 7.7829 4.599 17.106 6.2993 24.218 3.2475-6.1683 8.3033-10.566 13.633-14.027 0.3123-6.1417 1.8678-14.62 3.6343-17.27 8.5328-12.435 2.5279-19.554 2.5279-19.554-8.0172 9.4158-8.7562 16.312-24.132 23.036-1.2081 0.47264-2.3445 1.0191-2.9685 1.3207z" stroke="#000000" stroke-width="2px" fill="#ffffff"/>
			<path d="m210.48 415.63c-0.2344 2.0311 2.4835 9.0927 7.0839 9.408 4.5194 0.3097 7.1267-3.1668 7.953-7.2306l-2.2645-13.647c-4.26 3.82-8.5114 7.652-12.772 11.47z" stroke="#000000" stroke-width="2px" fill="#d7d7d7"/>
			<path d="m210.45 325.11c-0.9081-2.4972 0.454-2.4973 2.9513-1.3622 4.0863 2.4973 1.135 8.8538-3.4053 10.216-2.4973 1.1351-3.8594-1.8161-0.227-3.1782 3.4053-0.9081 0.681-5.9025 0.681-5.6755h0.227-0.227z" fill-rule="evenodd" stroke="#000000" stroke-width="1px" fill="#ffffff"/>
			<path d="m239.96 363.96v0.3081c0-0.8313-0.0149-0.4087 0.227 1.2315 0 1.666 0.1247 3.0652 0.227 4.6187 0 1.2868-0.1525 2.2085-0.227 3.3871" stroke="#000000" stroke-width="1.25px" fill="none"/>
			<path d="m237.69 365.5v0.5622c0-1.04-0.0298-0.7463 0.227 0.8434 0.0914 1.5842 0.409 2.4118 0.454 3.9358 0 1.5465-0.1846 2.7472-0.227 4.217" stroke="#000000" stroke-width="1.25px" fill="none"/>
			<path d="m236.78 399.35c-0.0605 0.2135 0 1.4304 0 2.2434 0 1.2236-0.0231 2.4183-0.227 3.205" stroke="#000000" stroke-width="1.25px" fill="none"/>
			<path d="m234.06 400.48v0.454-0.454 0.454-0.454c0.0491 1.6775 0.2271 2.6056 0.2271 4.3134 0 0.522 0.0982 1.069-0.2271 1.7381" stroke="#000000" stroke-width="1.25px" fill="none"/>
			<path d="m231.79 401.84c0.0923 1.8282 0.3981 3.0248 0.454 4.9036 0 0.9436-0.1894 1.0488-0.227 1.907" stroke="#000000" stroke-width="1.25px" fill="none"/>
			<path d="m229.23 403.92c0.0414 1.4096 0.2804 2.9154 0.2804 4.4756-0.0424 1.4986-0.3738 2.1231-0.4541 3.4423" stroke="#000000" stroke-width="1.25px" fill="none"/>
			<path d="m227.02 404.11c0 0.4056 0.1229 1.9795 0.2271 2.9512v3.1783c-0.126 1.0579-0.3569 2.1949-0.6811 2.9513l-0.0754 1.0956" stroke="#000000" stroke-width="1.25px" fill="none"/>
			<path d="m242.23 364.46c0.0577 0.4264 0.3941 2.0547 0 3.1013 0 0.9252-0.1056 1.3997-0.227 2.0676" stroke="#000000" stroke-width="1.25px" fill="none"/>
			<path d="m216.02 325.2c3.0469 0.625 10.469 0 13.438-2.1875l2.9688-2.1875" fill="none" stroke="#000000"/>
			<path d="m216.03 326.7c2.9103 1.0973 10.338 1.6496 13.614-0.0428l3.2764-1.6924" fill="none" stroke="#000000"/>
			<path d="m215.78 330.67c1.5625 1.875 2.6563 2.8125 3.125 5.3125l0.4688 2.5" stroke="#000000" stroke-width="1px" fill="none"/>
			<path d="m213.91 331.61c1.875 2.6563 3.125 3.5938 3.75 6.25l0.625 2.6563" stroke="#000000" stroke-width="1px" fill="none"/>
			<path d="m212.34 333.33c0.7813 4.0625 3.9063 11.719 6.25 14.219 2.3438 2.5 2.3438 2.5 2.3438 2.5" fill="none" stroke="#000000"/>
			<path d="m224.06 419.63c-1.5767-0.204-4.6437-2.7505-5.332-3.6652-0.6883-0.915-0.7388-1.3003-0.7388-1.3003" stroke="#000000" stroke-width="1.1958px" fill="none"/>
			<path d="m222.97 421.7c-1.7047-0.4129-5.0234-3.2051-5.7686-4.1493-0.7455-0.9445-0.8959-1.1908-0.8959-1.1908" stroke="#000000" stroke-width="1.1957px" fill="none"/>
			<path d="m222.03 423.6c-1.8001-0.1981-5.5241-3.0168-6.3953-4.0379l-0.8713-1.0214" stroke="#000000" stroke-width="1.3526px" fill="none"/>
			<path d="m244.4 282.04c-0.2298 1.8959-0.3447 5.6302 0.3447 7.9857l0.6894 2.3555" stroke="#000000" stroke-width="1px" fill="none"/>
			<path d="m249.91 276.06c-1.3213 0.4596-3.2747 1.4937-3.9066 2.3555l-0.632 0.8618" stroke="#000000" stroke-width="1px" fill="none"/>
			<path d="m233.97 277.76c2.8461 5.0023 1.9629 21.347 1.3741 23.208l-0.5889 1.8613" stroke="#000000" stroke-width="1.3151px" fill="none"/>
			<path d="m224.69 267.63c-1.1719 0.3906-3.5938 2.3047-3.7891 3.3593" stroke="#000000" stroke-width="1px" fill="none"/>
			<path d="m226.56 268.99c-1.1719 0.3906-3.5938 2.3047-3.7891 3.3593" fill="none" stroke="#000000"/>
			<path d="m108.88 322.74c-2.3207-0.12456-2.6819 6.4318 0.3087 6.276" fill="#000000"/>
			<path d="m109.21 321.67-0.0797 5.6392" fill="#000000"/>
			<path d="m108.68 322.57c2.3207-0.12456 3.2006 6.2588 0.21 6.103" fill="#000000"/>
			<path d="m179.9 320.77c0.69527 1.4472-0.1092 6.1945-2.1669 7.7994-4.4776 3.4922-7.4175 6.5669-8.9084 10.149-4.5191 10.859-7.0527 9.3396-12.461 3.4755-0.62634-1.6678-1.3301 0.39496-0.76186 1.4405 10.508 13.448 15.039-6.9839 20.499-10.358 19.547-14.564-14.533-30.797-21.098-13.717 7.0492-5.3771 15.714-11.753 24.897 1.2103z" fill-rule="evenodd" stroke="#666666" stroke-width="1px" fill="#808080"/>
		</g>
		<path d="m180.17 465.64c43.276 17.175-38.851 55.644-26.698 33.744 20.765-37.422-44.658 22.154-47.06-17.741-1.5906-26.427 29.902-49.068 47.086-93.515 1.3565-3.5087 4.4822-5.1237 8.4343-5.4334 3.9523-0.30971 0.48619 7.4914 9.3746 9.4001 5.3594 1.1509 0.55617 0.94212 4.0443 3.5001s12.801 6.6016 12.311 8.8159c-4.7005 21.237 19.609 42.952 17.816 44.156-5.0061 3.364 2.344-10.939 14.386-16.412 32.789-14.899 9.995 4.0463 24.749-2.9843 12.65 20.294 33.042 33.409 2.015 42.584-34.086 3.8486-11.504 18.474-58.967-8.3235-6.1314-5.5444-1.1363 8.6101-7.4902 2.2053z" fill="#666666"/>
		<path d="m271.03 381.7c0 18.197-32.305 28.551-50.056 3.8017-7.0631-9.8472-49.357-16.496-52.591-32.948-2.5928-13.195-16.825-9.0331 3.1681-11.405 14.779-1.7534 54.968 24.192 65.101 23.225 50.33-4.8038 19.805 12.03 34.378 17.326z" fill="#666666"/>
		<path d="m188.44 631.48c2.3902 7.1708 1.0985 14.06-2.8853 15.388-3.9837 1.3279-9.151-3.4086-11.541-10.579-2.3902-7.1708-1.0985-14.06 2.8853-15.388 3.9837-1.3279 9.151 3.4086 11.541 10.579z" fill="#666666"/>
		<path d="m308.39 222.89c3.3633 6.7691 18.194 22.233 14.433 24.102-3.7607 1.8685-23.963-13.71-27.327-20.479-3.3633-6.7691 3.0609-30.657 3.7817-26.521 1.9073 10.946 5.7482 16.128 9.1115 22.897z" fill="#666666"/>
		<path d="m412.59 222.12c-2.9722-7.7753-16.637-19.944-12.65-21.308 3.9875-1.3644 14.5 10.529 16.978 13.407 8.7612 10.175 7.6139 15.825 3.6514 17.253-4.6769 1.6864-5.0071-1.5767-7.9793-9.352z" fill="#808080"/>
		<path d="m132.73 529.23c3.1433 1.04 11.479-1.9738 25.52 4.263 29.621 13.158 31.374 10.846 41.198 19.006 6.5233-4.6599-29.311-21.283-43.028-25.099-15.35-3.3296-16.489-12.149-23.689 1.8305z" fill="#666666"/>
		<path d="m398.29 281.38c11.548 2.2479 49.929-10.078 48.852-3.6187-1.0779 6.4589-38.988 16.802-50.538 14.554-11.548-2.2479-35.658-32.958-29.816-29.922 15.461 8.0323 19.953 16.739 31.501 18.987z" fill="#666666"/>
		<path d="m295.16 163.5c-3.6641 3.8169-10.344 17.246-12.465 15.21-2.1206-2.0356 3.364-19.03 7.0281-22.847 3.6641-3.8172 20.922-5.2352 18.367-3.782-6.7605 3.8458-9.2658 7.6022-12.93 11.419z" fill="#666666"/>
		<path d="m489.71 308.7c6.9445-2.9846 23.204-16.939 24.862-13.081 1.6581 3.858-15.012 23.17-21.956 26.153-6.9445 2.9846-30.442-4.7484-26.273-5.2398 11.035-1.3002 16.421-4.8492 23.365-7.8338z" fill="#666666"/>
		<path d="m253.24 188.11c-3.4738 6.7133-7.1865 27.816-10.916 25.885-3.7295-1.9298-3.0992-27.433 0.37457-34.147 3.4738-6.7131 26.541-15.646 23.63-12.62-7.7041 8.0067-9.6148 14.167-13.089 20.881z" fill="#666666"/>
		<path d="m561.69 301.79c1.188-7.4648-1.9188-28.665 2.2282-28.003 4.1472 0.65998 11.563 25.069 10.375 32.535-1.188 7.4646-20.28 23.194-18.467 19.406 4.7975-10.022 4.6754-16.471 5.8635-23.936z" fill="#666666"/>
		<path d="m474 262.25c-1.9513 4.9182-11.395 16.57-8.6621 17.655 2.7322 1.084 15.916-10.961 17.867-15.879 1.9514-4.9182-3.9234-21.207-4.1847-18.279-0.69204 7.7469-3.069 11.586-5.0203 16.504z" fill="#666666"/>
		<path d="m355.28 225.42c3.3633 6.7691 18.194 22.233 14.433 24.102-3.7607 1.8685-23.963-13.71-27.327-20.479-3.3633-6.7691 3.0609-30.657 3.7817-26.521 1.9073 10.946 5.7482 16.128 9.1115 22.897z" fill="#666666"/>
		<path d="m519.69 243.34c3.6641 3.8169 10.344 17.246 12.465 15.21 2.1206-2.0356-3.364-19.03-7.0281-22.847-3.6641-3.8172-20.922-5.2352-18.367-3.7819 6.7605 3.8458 9.2658 7.6022 12.93 11.419z" fill="#666666"/>
		<path d="m343.88 163.83c-3.8169-3.6641-17.246-10.344-15.21-12.465 2.0356-2.1206 19.03 3.364 22.847 7.0281 3.8172 3.6641 5.2352 20.922 3.782 18.367-3.8458-6.7605-7.6022-9.2658-11.419-12.93z" fill="#666666"/>
		<path d="m346.66 406.91c-4.9182-1.9513-16.57-11.395-17.655-8.6621-1.0841 2.7322 10.961 15.916 15.879 17.867 4.9182 1.9514 21.207-3.9234 18.279-4.1847-7.7469-0.69204-11.586-3.069-16.504-5.0206z" fill="#666666"/>
		<path d="m344.64 435.23c6.2163-2.3878 15.934-13.336 17.03-10.148 1.0967 3.1881-8.4046 11.614-10.703 13.6-8.1286 7.0223-12.65 6.1114-13.798 2.9435-1.3552-3.7394 1.2549-4.0078 7.4712-6.3955z" fill="#808080"/>
		<path d="m520.66 471.96c0.14016-6.6576-6.3205-19.793-2.9545-19.603 3.3661 0.19026 7.5736 12.172 8.5428 15.051 3.4271 10.18 0.87438 14.022-2.4925 13.887-3.9741-0.15936-3.2355-2.6772-3.0956-9.3347z" fill="#808080"/>
		<path d="m488.59 441.13c-4.9182-1.9513-16.57-11.395-17.655-8.6621-1.084 2.7322 10.961 15.916 15.879 17.867 4.9182 1.9514 21.207-3.9234 18.279-4.1847-7.7469-0.69204-11.586-3.069-16.504-5.0206z" fill="#666666"/>
		<path d="m475.14 474.35c-4.485-4.9222-8.2599-19.065-10.67-16.708-2.4101 2.3576 2.3031 14.15 3.4672 16.956 4.1158 9.922 8.5653 11.136 11.012 8.8195 2.8883-2.7342 0.67587-4.1449-3.8093-9.0671z" fill="#808080"/>
		<path d="m523.75 503.66c-6.2164-2.3878-15.934-13.336-17.03-10.148-1.0967 3.1881 8.4046 11.614 10.703 13.6 8.1286 7.0223 12.65 6.1114 13.798 2.9436 1.3552-3.7394-1.2549-4.0078-7.4712-6.3955z" fill="#808080"/>
	</g>
</svg>