<?xml version="1.0" encoding="UTF-8"?>
<!-- Generator: Adobe Illustrator 23.0.1, SVG Export Plug-In . SVG Version: 6.00 Build 0)  -->
<svg version="1.1" id="Regione_Puglia_-_pittogramma" xmlns="http://www.w3.org/2000/svg" xmlns:xlink="http://www.w3.org/1999/xlink" x="0px" y="0px" viewBox="0 0 298.6 500" enable-background="new 0 0 298.6 500" xml:space="preserve">
<g id="Group_6392" transform="translate(0.127 21.631)">
	<path id="Path_6059" fill="#007AC1" d="M297.3,367.7v66.1c-0.7,5.4-3.4,10.3-7.4,13.9c-3.4,3.6-8,5.9-12.9,6.5h-0.4   c-16.2-0.2-44-0.1-67.4-0.1l87.3-86.3L297.3,367.7z"/>
	<path id="Path_6060" fill="#D9000D" d="M259.8,352.5v-90.6l-62.9-64.6l-0.4-0.4H99.8l-63,64.6l-0.3,0.4v90.6l65.3,65.3h92.4   L259.8,352.5z M297.3,249.5v118.2h-0.8L209.2,454c-22.4,0-40.7,0.1-40.7,0.1c-4,0-7.8,1.4-10.8,4.1c-4.2,5.4-6.5,12.2-6.4,19.1   h-4.6c0.1-6.9-2.1-13.6-6.4-19.1c-3-2.6-6.8-4.1-10.8-4.1c0,0-19.1-0.1-42.2-0.1L1.3,368.7H0.9V249.4l83.3-84.5h128.2l83.4,84.7   L297.3,249.5z"/>
</g>
<path id="Path_6061" fill="#007AC1" d="M297.4,186.5v84.7H296l-83.4-84.7H297.4z"/>
<path id="Path_6062" fill="#FFA900" d="M295.8,115H1.1v71.5h296.3v-71.5L295.8,115z"/>
<g id="Group_6393" transform="translate(3.85)">
	<path id="Path_6063" fill="#FFA900" d="M259.5,21.9c0,1.4-1.5,2.9-3.9,4.5c-1.2-12.3-56.5-19.6-110-19.6h-0.4   C91.4,6.8,36.3,14.1,35,26.4c-2.3-1.6-3.9-3.1-3.9-4.5c0-9.6,45.8-20.1,114-20.1h0.4c27.7-0.4,55.3,1.8,82.5,6.5   C248,12.1,259.4,17.1,259.5,21.9"/>
	<path id="Path_6064" fill="#161417" d="M251.1,64.4c0-8.4-43.4-17.8-105.5-17.8H145C82.9,46.7,39.6,56,39.6,64.4   s43.4,17.8,105.5,17.8h0.4C207.6,82.2,251.1,72.7,251.1,64.4 M252.6,30.4c0.8-0.9,1.2-2.1,1.1-3.3c0-8.6-44.5-18.3-108.3-18.3h-0.4   c-63.7,0-108.3,9.7-108.3,18.3c-0.1,1.2,0.3,2.4,1.1,3.3c1.1,0.9,2.3,1.7,3.5,2.5l17.7,2.2L46.1,46l-1.9,11.6   c1.5-0.7,3.2-1.4,5.1-2.1l2-0.7c19.9-6.5,56.9-9.8,93.8-9.8h0.4c36.8,0,73.8,3.4,93.8,9.8l1.9,0.7c1.9,0.7,3.6,1.4,5.2,2.1   L244.5,46l-13-10.9l17.7-2.2C250.4,32.1,251.5,31.3,252.6,30.4 M255.6,26.4c2.4-1.6,3.9-3.1,3.9-4.5c0-4.8-11.4-9.8-31.4-13.6   c-27.3-4.7-54.9-6.8-82.6-6.5h-0.4c-68.2,0-114,10.4-114,20.1c0,1.4,1.6,2.9,3.9,4.5C36.3,14.1,91.5,6.8,145.1,6.8h0.4   C199.1,6.8,254.4,14.1,255.6,26.4 M261.3,21.9c0,2.6-1.9,4.9-5.3,6.9c-1.2,2.3-3,4.1-5.3,5.3l4.6,8.5l-8.6,3.2l2.2,13.3   c2.6,1.7,4.1,3.4,4.1,5.4c0,12.4-54.5,19.8-107.4,19.8H145c-52.9,0-107.4-7.4-107.4-19.8c0-1.9,1.5-3.7,4.1-5.4l2.2-13.3l-8.6-3.2   l4.6-8.5c-2.3-1.2-4.1-3-5.3-5.3c-3.4-2-5.3-4.3-5.3-6.9C29.3,8.3,87.9,0,144.9,0h0.5c57,0,115.7,8.3,115.7,21.9"/>
</g>
<path id="Path_6065" fill="#E8E8E8" d="M259.9,283.5v90.6l-65.6,65.3H102l-65.3-65.3v-90.6l0.3-0.4l63-64.6h96.7l0.4,0.4  L259.9,283.5z"/>
<g id="Group_6394" transform="translate(0.127 1.026)">
	<path id="Path_6066" fill="#FFA900" d="M257.4,26.1c0.1,1.2-0.3,2.4-1.1,3.3c-1.1,0.9-2.2,1.7-3.4,2.5l-17.7,2.2l13,10.9l1.9,11.6   c-1.5-0.7-3.2-1.4-5.2-2.1l-1.9-0.7c-20-6.4-57-9.8-93.8-9.8h-0.4c-36.8,0-73.9,3.4-93.8,9.8l-2,0.7c-1.9,0.7-3.6,1.4-5.1,2.1   L49.8,45l13.1-10.9l-17.7-2.2c-1.2-0.7-2.4-1.6-3.5-2.5c-0.8-0.9-1.2-2.1-1.1-3.3c0-8.6,44.5-18.3,108.3-18.3h0.4   C212.9,7.8,257.4,17.5,257.4,26.1"/>
	<path id="Path_6067" fill="#FFA900" d="M150.4,77.9c46.8,0,96.3-4.9,96.3-14s-49.8-14-96.3-14h-2.8c-46.5,0-96.2,4.8-96.2,14   s49.4,14,96.2,14H150.4z M149.3,45.6c62.1,0,105.5,9.4,105.5,17.8s-43.5,17.8-105.5,17.8h-0.4c-62.1,0-105.5-9.5-105.5-17.8   s43.4-17.8,105.4-17.8H149.3L149.3,45.6z"/>
	<path id="Path_6068" fill="#FFFFFF" d="M150.4,51.7c60.9,0,94.3,7.1,94.3,12.2S211,76.1,150.4,76.1h-2.8   c-60.6,0-94.2-7.2-94.2-12.2s33.3-12.2,94.2-12.2H150.4z"/>
	<path id="Path_6069" fill="#161417" d="M244.7,63.9c0-5.2-33.4-12.2-94.3-12.2h-2.8c-60.9,0-94.2,7.1-94.2,12.2   s33.6,12.2,94.2,12.2h2.8C211,76.1,244.7,69,244.7,63.9 M246.7,63.9c0,9.1-49.5,14-96.3,14h-2.8c-46.8,0-96.2-4.9-96.2-14   s49.7-14,96.2-14h2.8C196.9,50,246.7,54.7,246.7,63.9"/>
	<path id="Path_6070" fill="#007AC1" d="M87.5,474.7c-23.1,0-50.1-0.1-65.8,0.1h-0.4c-5-0.5-9.6-2.8-13-6.5   c-4.1-3.6-6.7-8.5-7.3-13.9v-65.1h0.4L87.5,474.7z"/>
</g>
<path id="Path_6071" fill="#007AC1" d="M1.1,186.5V271l83.3-84.5H1.1z"/>
<rect id="Rectangle_2381" x="43.4" y="372.4" transform="matrix(0.7041 -0.7101 0.7101 0.7041 -294.304 159.7175)" fill="#161417" width="2.2" height="121.3"/>
<path id="Path_6072" fill="#161417" d="M0.1,270.4l0.8,0.8l0.9,0.6l83.3-84.5l-1.6-1.6L0.1,270.4z"/>
<path id="Path_6073" fill="#161417" d="M102.5,438.3h91.4l64.9-64.7V284l-62.6-64.3h-95.8l-62.6,64.2v89.8L102.5,438.3z   M194.8,440.5h-93.3l-0.3-0.3l-65.6-65.6v-91.4l0.5-0.6l63.4-65.1h97.6l0.7,0.7l63.3,65v91.5l-0.3,0.3L194.8,440.5z"/>
<rect id="Rectangle_2382" x="253.2" y="169.4" transform="matrix(0.7123 -0.7018 0.7018 0.7123 -87.4423 244.2844)" fill="#161417" width="2.2" height="118.9"/>
<path id="Path_6074" fill="#161417" d="M210.1,476.5l-1.6-1.5l0.1-0.1l87.3-86.3l1.6,1.6L210.1,476.5z"/>
<rect id="Rectangle_2383" x="1.1" y="185.4" fill="#161417" width="294.9" height="2.2"/>
<g id="Group_6395" transform="translate(0 13.21)">
	<path id="Path_6075" fill="#161417" d="M148,484.6h2.4c-0.1-6.9,2.3-13.5,6.7-18.8c3.2-2.8,7.3-4.3,11.5-4.3c0,0,18.3-0.1,40.7-0.1   h18.5c18.1,0,36.9,0,48.9,0.1h0.4c4.6-0.5,8.9-2.7,12.1-6.1c3.9-3.4,6.4-8.1,7.1-13.3V102.9H2.2v339.3c0.6,5,3.1,9.7,7,13   c3.3,3.5,7.7,5.7,12.4,6.2h0.2c11.7-0.1,30-0.1,47.6-0.1h18.2c23.1,0,42.2,0.1,42.2,0.1c4.3,0,8.4,1.6,11.6,4.4   C145.7,471.1,148.1,477.7,148,484.6 M151.5,486.8h-5.7v-1.1c0.1-6.6-2-13-6-18.3c-2.8-2.5-6.4-3.8-10.1-3.8c0,0-19.1-0.1-42.1-0.1   H69.4c-17.7,0-35.9,0-47.6,0.1h-0.4c-5.3-0.6-10.1-3-13.8-6.8c-4.2-3.7-6.9-8.9-7.6-14.5V100.7h298.6v341.6   c-0.7,5.7-3.5,10.9-7.8,14.7c-3.5,3.8-8.3,6.2-13.5,6.7h-0.5c-12.1-0.1-30.8-0.1-48.9-0.1h-18.5c-22.4,0-40.7,0.1-40.7,0.1   c-3.7,0-7.2,1.3-10,3.7c-4,5.3-6.2,11.7-6,18.3v1.1L151.5,486.8z"/>
</g>
<path id="Path_6076" fill="#007AC1" d="M149.1,13.9l-18.6,9.3l18.6,10.2l18.6-10.2L149.1,13.9z"/>
<path id="Path_6077" fill="#161615" d="M133,23.3l16.2,8.9l16.2-8.9l-16.2-8.1L133,23.3z M149.1,34.6l-0.5-0.3l-20.4-11.2l20.9-10.5  l0.5,0.2l20.5,10.2L149.1,34.6z"/>
<g id="Group_6396" transform="translate(3.459 1.586)">
	<path id="Path_6078" fill="#00863C" d="M202.9,21.4c-7-1.4-13.5,0.3-14.7,3.7c-1.2,3.3,3.7,7.3,10.6,8.4c7,1.4,13.5-0.3,14.6-3.4   C214.4,26.4,209.8,22.5,202.9,21.4"/>
	<path id="Path_6079" fill="#161417" d="M198.1,22c-4.6,0-8.1,1.5-8.8,3.4c-0.2,0.7-0.1,1.4,0.3,2c2.4,2.8,5.8,4.6,9.5,4.9   c6.6,1.3,12.5-0.3,13.4-2.7c0.1-0.9-0.1-1.7-0.6-2.4c-2.3-2.7-5.6-4.4-9.2-4.7l0,0C201.3,22.2,199.7,22.1,198.1,22 M203.8,35.1   c-1.7,0-3.4-0.2-5-0.5c-4.3-0.4-8.3-2.5-11-6c-0.8-1.2-0.9-2.6-0.5-3.9c1.4-4,8.3-5.9,15.9-4.4c4.2,0.4,8,2.5,10.6,5.7   c0.9,1.2,1.2,2.8,0.9,4.3C213.6,33.4,209.1,35.1,203.8,35.1"/>
	<path id="Path_6080" fill="#FFA900" d="M176.2,15.6c0-1.3,1.1-2.4,2.4-2.4c1.3,0,2.4,1.1,2.4,2.4c0,1.3-1.1,2.4-2.4,2.4   C177.3,18,176.2,16.9,176.2,15.6"/>
	<path id="Path_6081" fill="#161417" d="M178.6,14.3c-0.7,0-1.3,0.6-1.3,1.3s0.6,1.3,1.3,1.3s1.3-0.6,1.3-1.3S179.3,14.3,178.6,14.3   L178.6,14.3 M178.6,19.1c-1.9,0-3.5-1.6-3.5-3.5c0-1.9,1.6-3.5,3.5-3.5c1.9,0,3.5,1.6,3.5,3.5l0,0   C182.1,17.5,180.6,19.1,178.6,19.1"/>
	<path id="Path_6082" fill="#FFA900" d="M175.5,30.3c0-1.3,1.1-2.4,2.4-2.4c1.3,0,2.4,1.1,2.4,2.4c0,1.3-1.1,2.4-2.4,2.4   C176.6,32.7,175.5,31.6,175.5,30.3C175.5,30.3,175.5,30.3,175.5,30.3"/>
	<path id="Path_6083" fill="#161417" d="M177.9,29c-0.7,0-1.3,0.6-1.3,1.3c0,0.7,0.6,1.3,1.3,1.3c0.7,0,1.3-0.6,1.3-1.3   C179.2,29.6,178.6,29,177.9,29C177.9,29,177.9,29,177.9,29 M177.9,33.8c-1.9,0-3.5-1.6-3.5-3.5c0-1.9,1.6-3.5,3.5-3.5   c1.9,0,3.5,1.6,3.5,3.5c0,0,0,0,0,0C181.4,32.2,179.8,33.8,177.9,33.8C177.9,33.8,177.9,33.8,177.9,33.8"/>
	<path id="Path_6084" fill="#FFA900" d="M220.5,37.1c0-1.3,1.1-2.4,2.4-2.4c1.3,0,2.4,1.1,2.4,2.4c0,1.3-1.1,2.4-2.4,2.4   C221.6,39.5,220.5,38.4,220.5,37.1"/>
	<path id="Path_6085" fill="#161417" d="M222.9,35.8c-0.7,0-1.3,0.6-1.3,1.3c0,0.7,0.6,1.3,1.3,1.3c0.7,0,1.3-0.6,1.3-1.3l0,0   C224.2,36.3,223.6,35.8,222.9,35.8 M222.9,40.6c-1.9,0-3.5-1.6-3.5-3.5c0-1.9,1.6-3.5,3.5-3.5c1.9,0,3.5,1.6,3.5,3.5   C226.4,39,224.9,40.6,222.9,40.6"/>
	<path id="Path_6086" fill="#FFA900" d="M223.4,24.2c0-1.3,1.1-2.4,2.4-2.4c1.3,0,2.4,1.1,2.4,2.4c0,1.3-1.1,2.4-2.4,2.4   C224.5,26.7,223.4,25.6,223.4,24.2C223.4,24.3,223.4,24.2,223.4,24.2"/>
	<path id="Path_6087" fill="#161417" d="M225.8,23c-0.7,0-1.3,0.6-1.3,1.3c0,0.7,0.6,1.3,1.3,1.3c0.7,0,1.3-0.6,1.3-1.3l0,0   C227.1,23.5,226.5,22.9,225.8,23 M225.8,27.7c-1.9,0-3.5-1.6-3.5-3.5c0-1.9,1.6-3.5,3.5-3.5c1.9,0,3.5,1.6,3.5,3.5   C229.3,26.2,227.8,27.7,225.8,27.7"/>
	<path id="Path_6088" fill="#00863C" d="M88.4,21.4c7-1.4,13.5,0.3,14.7,3.7s-3.7,7.3-10.6,8.4c-7,1.4-13.5-0.3-14.6-3.4   C77,26.4,81.5,22.5,88.4,21.4"/>
	<path id="Path_6089" fill="#161417" d="M93.2,22c-1.5,0-3.1,0.2-4.6,0.5l0,0c-3.5,0.4-6.8,2.1-9.2,4.8c-0.5,0.7-0.7,1.6-0.6,2.5   c0.9,2.2,6.7,3.9,13.3,2.6c3.7-0.3,7.1-2.1,9.5-4.9c0.4-0.6,0.5-1.3,0.3-2C101.4,23.5,97.9,22,93.2,22 M87.6,35   c-5.3,0-9.7-1.7-10.8-4.6c-0.4-1.5-0.1-3.1,0.9-4.4c2.6-3.2,6.5-5.3,10.6-5.7c7.5-1.5,14.5,0.4,15.9,4.4c0.4,1.3,0.2,2.7-0.5,3.9   c-2.7,3.4-6.7,5.5-11,5.9C91,34.8,89.3,35,87.6,35"/>
	<path id="Path_6090" fill="#FFA900" d="M115.1,15.6c0-1.3-1.1-2.4-2.4-2.4c-1.3,0-2.4,1.1-2.4,2.4c0,1.3,1.1,2.4,2.4,2.4   C114,18,115.1,16.9,115.1,15.6"/>
	<path id="Path_6091" fill="#161417" d="M112.7,14.3c-0.7,0-1.3,0.6-1.3,1.3s0.6,1.3,1.3,1.3s1.3-0.6,1.3-1.3S113.5,14.3,112.7,14.3   L112.7,14.3 M112.7,19.1c-1.9,0-3.5-1.6-3.5-3.5c0-1.9,1.6-3.5,3.5-3.5c1.9,0,3.5,1.6,3.5,3.5l0,0   C116.2,17.5,114.7,19.1,112.7,19.1"/>
	<path id="Path_6092" fill="#FFA900" d="M115.9,30.3c0-1.3-1.1-2.4-2.4-2.4c-1.3,0-2.4,1.1-2.4,2.4c0,1.3,1.1,2.4,2.4,2.4   C114.8,32.7,115.9,31.6,115.9,30.3C115.9,30.3,115.9,30.3,115.9,30.3"/>
	<path id="Path_6093" fill="#161417" d="M113.5,29c-0.7,0.1-1.2,0.7-1.1,1.4c0.1,0.6,0.5,1.1,1.1,1.1c0.7-0.1,1.2-0.7,1.1-1.4   C114.6,29.5,114.1,29.1,113.5,29 M113.5,33.8c-1.9,0-3.5-1.6-3.5-3.5c0-1.9,1.6-3.5,3.5-3.5c1.9,0,3.5,1.6,3.5,3.5c0,0,0,0,0,0   C117,32.2,115.4,33.8,113.5,33.8"/>
	<path id="Path_6094" fill="#FFA900" d="M70.8,37.1c0-1.3-1.1-2.4-2.4-2.4c-1.3,0-2.4,1.1-2.4,2.4c0,1.3,1.1,2.4,2.4,2.4   C69.7,39.5,70.8,38.4,70.8,37.1"/>
	<path id="Path_6095" fill="#161417" d="M68.4,35.8c-0.7,0-1.3,0.5-1.3,1.2c0,0,0,0,0,0c0,0.7,0.6,1.3,1.3,1.3   c0.7,0,1.3-0.6,1.3-1.3C69.7,36.4,69.2,35.8,68.4,35.8C68.4,35.8,68.4,35.8,68.4,35.8 M68.4,40.6c-1.9,0-3.5-1.6-3.5-3.5   c0-1.9,1.6-3.5,3.5-3.5c1.9,0,3.5,1.6,3.5,3.5C71.9,39,70.4,40.6,68.4,40.6"/>
	<path id="Path_6096" fill="#FFA900" d="M67.9,24.2c0-1.3-1.1-2.4-2.4-2.4c-1.3,0-2.4,1.1-2.4,2.4c0,1.3,1.1,2.4,2.4,2.4   C66.8,26.7,67.9,25.6,67.9,24.2C67.9,24.3,67.9,24.2,67.9,24.2"/>
	<path id="Path_6097" fill="#161417" d="M65.5,23c-0.7,0-1.3,0.6-1.3,1.3c0,0.7,0.6,1.3,1.3,1.3c0.7,0,1.3-0.6,1.3-1.3l0,0   C66.8,23.5,66.2,22.9,65.5,23 M65.5,27.7c-1.9,0-3.5-1.6-3.5-3.5c0-1.9,1.6-3.5,3.5-3.5c1.9,0,3.5,1.6,3.5,3.5   C69,26.2,67.5,27.7,65.5,27.7"/>
	<path id="Path_6098" fill="#161615" d="M146.8,21.8c-0.6,0.2-1.2,0.3-1.8,0.3v-4.2c0-0.2,0-0.3,0.2-0.4c0.2-0.1,0.4-0.1,0.6-0.1   c0.5-0.1,1.1,0.2,1.3,0.6c0.3,0.5,0.4,1.1,0.4,1.7C147.5,20.8,147.3,21.5,146.8,21.8 M149.1,17.5c-0.9-0.5-2-0.7-3-0.6h-4.9v0.4   c0.4,0,0.7,0.1,1,0.3c0.2,0.2,0.3,0.5,0.3,1.1v6.8c0,0.4,0,0.8-0.3,1.1c-0.3,0.2-0.6,0.4-1,0.3v0.4h5.1v-0.4   c-0.4,0-0.8-0.1-1.1-0.3c-0.2-0.3-0.3-0.7-0.3-1.1v-2.9c0.9,0,1.6,0,2.1-0.1c0.5-0.1,0.9-0.2,1.4-0.4c0.5-0.2,1-0.6,1.3-1.1   c0.3-0.4,0.4-0.9,0.4-1.4C150.2,18.9,149.8,18,149.1,17.5"/>
	<path id="Path_6099" fill="#00863C" d="M250.8,159.8L250.8,159.8c6.9,0,12.4-5.6,12.4-12.4c0-6.8-5.6-12.4-12.4-12.3   c-6.8,0-12.3,5.5-12.3,12.4l0,0C238.5,154.3,244,159.8,250.8,159.8L250.8,159.8"/>
	<path id="Path_6100" fill="#161417" d="M250.8,158.7L250.8,158.7c6.2,0,11.3-5,11.3-11.3c0-6.2-5-11.2-11.3-11.3l0,0   c-6.2,0-11.3,5-11.3,11.3C239.6,153.7,244.6,158.7,250.8,158.7 M250.9,160.9L250.9,160.9c-7.5,0-13.5-6-13.5-13.5   c0-3.6,1.4-7,4-9.5c2.5-2.5,5.9-3.9,9.5-3.9l0,0c7.4,0,13.5,6,13.5,13.5C264.3,154.9,258.2,160.9,250.9,160.9"/>
	<path id="Path_6101" fill="#00863C" d="M208.6,159.8L208.6,159.8c6.9,0,12.4-5.6,12.4-12.4s-5.6-12.4-12.4-12.3   c-6.8,0-12.3,5.5-12.3,12.4l0,0C196.3,154.3,201.8,159.8,208.6,159.8L208.6,159.8"/>
	<path id="Path_6102" fill="#161417" d="M208.6,158.7L208.6,158.7c6.2,0,11.3-5,11.3-11.3c0-6.2-5-11.2-11.3-11.3l0,0   c-6.2,0-11.3,5-11.3,11.3C197.4,153.7,202.4,158.7,208.6,158.7 M208.6,160.9L208.6,160.9c-7.4,0-13.5-6-13.5-13.5   c0-3.6,1.4-7,4-9.5c2.5-2.5,5.9-3.9,9.5-3.9l0,0c7.4,0,13.5,6,13.5,13.5C222.1,154.9,216,160.9,208.6,160.9L208.6,160.9"/>
	<path id="Path_6103" fill="#00863C" d="M166.4,159.8L166.4,159.8c6.9,0,12.4-5.6,12.4-12.4s-5.6-12.4-12.4-12.3   c-6.8,0-12.3,5.5-12.3,12.4l0,0C154.1,154.3,159.6,159.8,166.4,159.8L166.4,159.8"/>
	<path id="Path_6104" fill="#161417" d="M166.4,158.7L166.4,158.7c6.2,0,11.3-5,11.3-11.3c0-6.2-5-11.2-11.3-11.3l0,0   c-6.2,0-11.3,5-11.3,11.3c0,3,1.2,5.8,3.3,7.9C160.5,157.6,163.4,158.8,166.4,158.7 M166.4,160.9L166.4,160.9   c-7.5,0-13.5-6-13.5-13.5c0-7.4,6-13.5,13.5-13.5l0,0c7.4,0,13.5,6,13.5,13.5C179.9,154.9,173.8,160.9,166.4,160.9"/>
	<path id="Path_6105" fill="#00863C" d="M124.2,159.8L124.2,159.8c6.9,0,12.4-5.6,12.4-12.4s-5.6-12.4-12.4-12.3   c-6.8,0-12.3,5.5-12.3,12.4l0,0C111.9,154.3,117.4,159.8,124.2,159.8"/>
	<path id="Path_6106" fill="#161417" d="M124.2,158.7L124.2,158.7c6.2,0,11.3-5,11.3-11.3c0-6.2-5-11.2-11.3-11.3l0,0   c-6.2,0-11.3,5-11.3,11.3C112.9,153.7,118,158.7,124.2,158.7 M124.2,160.9L124.2,160.9c-7.5,0-13.5-6-13.5-13.5c0-3.6,1.4-7,4-9.5   c2.5-2.5,5.9-3.9,9.5-3.9l0,0c7.4,0,13.5,6,13.5,13.5C137.7,154.9,131.6,160.9,124.2,160.9"/>
	<path id="Path_6107" fill="#00863C" d="M39.8,159.8L39.8,159.8c6.9,0,12.4-5.6,12.4-12.4c0-6.8-5.6-12.4-12.4-12.3   c-6.8,0-12.3,5.5-12.3,12.4l0,0C27.5,154.3,33,159.8,39.8,159.8"/>
	<path id="Path_6108" fill="#161417" d="M39.8,158.7L39.8,158.7c6.2,0,11.3-5,11.3-11.3c0-6.2-5-11.2-11.3-11.3l0,0   c-6.2,0-11.3,5-11.3,11.3C28.5,153.7,33.6,158.7,39.8,158.7 M39.8,160.9L39.8,160.9c-7.4,0-13.5-6-13.5-13.5c0-3.6,1.4-7,4-9.5   c2.5-2.5,5.9-3.9,9.5-3.9l0,0c7.4,0,13.5,6,13.5,13.5C53.3,154.9,47.2,160.9,39.8,160.9"/>
	<path id="Path_6109" fill="#00863C" d="M82,159.8L82,159.8c6.9,0,12.4-5.6,12.4-12.4c0-6.8-5.6-12.4-12.4-12.3   c-6.8,0-12.3,5.5-12.3,12.4l0,0C69.6,154.3,75.2,159.8,82,159.8"/>
	<path id="Path_6110" fill="#161417" d="M82,158.7L82,158.7c6.2,0,11.3-5,11.3-11.3c0-6.2-5-11.2-11.3-11.3l0,0   c-6.2,0-11.3,5-11.3,11.3C70.7,153.7,75.8,158.7,82,158.7 M82,160.9L82,160.9c-7.5,0-13.5-6-13.5-13.5c0-7.4,6-13.5,13.5-13.5l0,0   c7.4,0,13.5,6,13.5,13.5C95.5,154.9,89.4,160.9,82,160.9L82,160.9"/>
	<path id="Path_6111" fill="#F9A700" d="M126.7,404.5l-0.6,0.4c-0.3-0.3-0.2-0.6,0.2-0.7L126.7,404.5z"/>
	<path id="Path_6112" fill="#1F1F1F" d="M107.9,281.3c-1-3.4-0.5-7.1,1.3-10.1c2.4,2.4,3.5,5.8,3.1,9.2c-0.1,0.7-0.4,1.3,0.9,1.2   c1.3-0.1,1.4,1.3,1.8,2.3c0.2,1.8,0.6,3.6,1.2,5.3c0-2.2,0.1-3.8,0-5.4c-0.2-4.6-0.2-8.9,5.2-10.6c-1.2-2.3-2.6-2.9-4.6-1.2   c-0.5,0.4-1.1,0.7-1.7,1c-0.5,0.3-0.9,0.3-1.2-0.3s-0.1-0.9,0.4-1.2c0.5-0.3,1-0.7,1.5-0.9c1.8-0.7,2.4-1.6,0.8-3.3   c-0.8-0.8-1.1-1-2.1-0.6c-2.8,1.4-6.2,1.1-8.7-0.7c-1.1-0.9-2.5-1.9-1.7-3.4c0.7-1.6,2.3-0.9,3.6-0.7c1.3,0.2,2.6,0.7,3.6,1.5   c1,0.8,2.1,1.3,3.4,1.3l-3.4-5.5c-1.1,1.2-2.7,1.8-4.3,1.7c-1.4-0.1-2.9-0.4-2.9-2.3c0-1.7,1.2-2.2,2.6-2.3c0.8,0,1.7,0,2.5,0   c-1.1-1.9-2.1-3.6-3.1-5.4c-0.7-1.2-1.1-2.6-1.2-4c0-1.2-0.1-2.5,1.3-2.9s2.1,0.8,2.6,1.7c1.6,2.8,2.7,5.8,3.2,9   c1-2,1.8-3.5,2.7-5.2c3.4,5.3,2,11.6,3.8,17.7c0.4-1.4,0.6-2.3,0.9-3.3c0.1-0.4,0.1-1,0.8-0.9c0.8,0.1,0.9,0.6,0.8,1.3   c0,0.2,0,0.3-0.1,0.5c-2.1,4.6,1.2,6.4,4.4,8.7c0.4-3.8,0.3-7.7-0.4-11.4c-0.2-1.2-1.2-1.7-2-2.4c-4.4-4.1-4.6-11-0.5-15.3   c0.1-0.1,0.2-0.2,0.3-0.3c1.1-1.1,2.9-1.4,4.3-0.8c1,0.4,2,0.8,3,1.3c-0.6-1.9-1.1-3.4-1.5-5.1c-0.4-1.7-0.7-3.2-1-4.9   c4.5,1.1,7.2,5.6,6.1,10c0,0.1-0.1,0.3-0.1,0.4c-0.4,1.1-0.3,2.3,0.4,3.3c0.1,0,0.2-0.1,0.4-0.2c0.6-0.6,0.1-2.5,1.5-2.1   c1.7,0.5,0.4,1.8,0.1,2.6c-1.4,4.1,1.8,6,3.7,8.6c0.2-2.5,1.3-4.9,3.2-6.6c-1.9-1.1-4.6-1.7-4.1-4.5c0.3-2.1,2.3-1.2,3.8-1.3   c0.1,0.1,0.2,0.2,0.3,0.3l0.1-0.6c0-2,0.2-3.9,0.6-5.9c0.3-1.9,1.2-1.4,2.1-0.6c1,0.9,1.9,2.1,2.8,3.1c0.8-1.5,1.8-2.9,3-4.2   c2.6,8.3,2.2,10.4-2.4,13.1c1.2,2,2.6,3.8,4.2,5.4c1-3.4,1.7-6.7,2.8-9.9c0.3-0.8-0.2-1.9-0.5-2.9s0.2-1.3,1-1.3   c1.7,0.1,2.8-1,2.6-3c-0.1-1.2-0.3-2.5-0.4-3.7c0-1.8,0.8-3.4,2.2-4.5c0.8-0.7,1.2-0.5,1.7,0.2c2.1,2.7,1.8,6.6-0.8,8.9   c-1.3,1.1-2.3,2.5-2.8,4.2l9.8-3.1c-2.3,3.8-4.6,7.1-8.9,7.8c-2.4,0.1-4.3,2.1-4.3,4.5c0,0.1,0,0.2,0,0.3c0.5,0.1,1.4-0.9,1.8,0.2   s-0.5,1.3-1.1,1.6c-2.1,1.2-1.6,3.2-1.6,5.3c1.9-3.2,5-5.7,8.5-6.9c0.1,4.7-3.1,8.8-7.7,10c-0.8,0-1.5,0.7-1.5,1.5c0,0,0,0,0,0   c-0.2,1.7-0.3,3.4-0.4,5.2l0.1,0.6l0.3-0.3c1.9-1.7,4-3.1,6.4-4.2c-0.1,1.7-0.4,3.4-0.9,5.1c2.4-0.3,2.8,1.1,2.4,2.9   c-0.4,3.4-1.8,6.6-4,9.2c-3.3,4.1-7.4,7.6-12,10.3c-0.5,0.2-0.9,0.4-0.9,1c-1,6.1-0.7,12.3,1,18.2c1.6-2.8,3.5-4.8,1.8-8.2   c-1.4-3.9-0.4-8.3,2.4-11.4c0.5,1.8,0.9,3.4,1.3,5c0.3,1.8,0.5,3.5,0.6,5.3c1.1-0.7,2.1-1,1.1-2.6c-1.6-2.6-1.1-5.9,1.1-7.9   c0.6-0.5,1.2-1.2,1.9-1c0.7,0.2,0.7,1.2,0.8,1.9c0,1.6,0,3.1,0,4.7c1.8-0.2,3.4-1.4,4.2-3.1c-0.7-1.3-3.3-0.1-3-2.3   c0.8-1.9,2.5-3.4,4.5-4c1.5,0,1.3,1.1,1.4,2.2c1.1-0.6,1.4-1.8,2-2.8c1.2-1.7,1.1-3.1-1-4.1c-0.6-0.3-2.1-0.5-1.3-1.8   c0.8-1.3,1.5,0.2,2.2,0.4c0.6,0.3,1.1,0.6,1.6,1c1-1.3,0.8-3.2-0.5-4.3c0,0-0.1-0.1-0.1-0.1c-2.6-3-4.2-6.7-4.8-10.6   c3.1,0.2,5.9,2.2,7.1,5.1c0.2-2.2,0-4.3-0.4-6.4c-0.1-0.9-0.6-1.2-1.5-0.9c-2.6,0.9-4.2-0.6-5.7-2.4c-0.7-0.7-0.9-1.9-0.4-2.8   c0.7-0.9,1.8-1.3,2.9-0.9c0.7,0.2,1.4,0.5,2.1,0.7c0.2,0.1,0.5,0.3,0.6,0.2c0.3-0.3,0.1-0.5-0.2-0.7c-1.2-1.8-1.5-4-1-6.1   c0.1-1.4,0.8-1.2,1.6-0.7c1.4,0.8,2.2,2.3,2.1,4c0,2.5,0.3,5,0.7,7.5c0.1,1.3,0.6,1.5,1.7,0.7c0.5-0.4,1.1-1.3,1.8-0.2   c0.7,1.1-0.4,1.3-0.9,1.6c-1.3,0.5-2.1,2-1.7,3.3c0.2,3.2,0,6.4-0.6,9.5c3.4-3.3,7.3-5.8,7.3-11c0.1-1.1,0.4-2.3,0.9-3.3   c0.3-0.9,0.9-1.9,2-2c1.4-0.1,1.3,1.3,1.7,2.2c1.8-2.4,4.4-4.2,7.3-5c0.7,6.6-5.4,8.1-8.5,11.8c0.3,0.4,0.8,0.7,1.3,0.8   c0.6,0.2,1,0.5,0.6,1.3c-0.3,0.6-0.7,0.6-1.2,0.3c-3.8-2.2-5,1.2-6.9,3.3c3.1-1,6.6-0.4,9.2,1.6c-2.7,2.6-6.7,3.3-10.2,1.8   c-2.4-1-3.8-0.3-4.6,2.2c-0.2,0.5-0.3,1.1-0.6,1.8c2.8-1.1,5.7-1.9,8.6-2.4c0.9-0.1,1.9-0.3,2.3,0.8c0.3,1-0.5,1.5-1.1,2   c-2.9,2.8-6.7,4.3-10.8,4.4c-1.5-0.1-2,0.8-2.5,1.9c0.6,0.8,1.6,0.7,2.4,1.1c0.5,0.3,1.1,0.3,0.8,1.1c-0.3,0.6-0.7,0.8-1.1,0.5   c-3.2-2.2-4.6,0.3-6.3,2.3c-1.2,1.2-2.3,2.6-3,4.1c1.7,0.3,3.2-0.9,5-0.4c-1.3,3.3-4,5.8-7.4,6.7c-1.7,0.4-3.1,1.8-3.6,3.5   c-0.5,1.5-1.2,2.9-1.8,4.3c-0.6,1.4,0,2.2,1.5,2.3c2.5,0.5,4.9-1.2,5.4-3.6c0-0.2,0.1-0.4,0.1-0.6c0.1-0.6-0.4-1.6,0.8-1.8   c1.4-0.3,0.5,1.3,1.3,1.5c1-1,1.9-2.1,2.9-3c0.6-0.5,0.8-1.3,0.5-2c-0.9-2.9,0-6,2.3-7.9c0.4,2.4,0.7,4.5,1.1,6.9   c0.9-0.7,1.8-1.3,2.8-1.9c1.1-0.6,1-1.3,0.6-2.4c-1.9-5-1.4-6.8,2.7-10.3c0.7,2.7,1,5.5,0.7,8.3c1.4-2.3,2.2-5.1,5.4-6.1v5   c1.4,0,2.8,0,2.8-1.6c0.2-5.2,3.7-7.4,8.1-9.1c-1.3,3.3-3,6.4-5,9.3c2.6-0.8,4.7-2.6,6-5c1.7-3,4.4-5.4,7.7-6.6   c0.7,4.2-2,8.2-6.2,9.1c-2.1,0.4-2.9,2.3-4.8,3.2c0.4,0.3,0.8,0.5,1.2,0.8c0.6,0.3,0.7,0.6,0.4,1.2s-0.6,0.5-1.2,0.4   c-3.6-0.8-7.3-0.5-10.6,1.1c5.4,2,8.6,6.9,14.1,8.2c-1.6,2.8-5.2,3.8-8,2.1c-0.1,0-0.2-0.1-0.2-0.1c-2.1-1-4.5-0.8-6.4,0.5   c1.7,0.6,3.3,1.1,4.8,1.6c0.6,0.2,1.1,0.6,1.1,1.2c-0.1,0.4-0.4,0.7-0.8,0.9c-2.4,0.7-4.9,0.7-7.3,0.1c-0.7-0.2-1.2-0.7-1.3-1.4   c-0.4-1.8-1.3-1.1-2.3-0.5c0.1,0.1,0.2,0.3,0.3,0.4c1.2,1.3,3.2,3.2,2.5,4.1c-1,1.3-3.3,0-5-0.5c-0.3-0.1-0.6-0.2-0.9-0.4   c-3.5-2.5-8.3-1.6-10.7,1.8c-0.1,0.2-0.3,0.4-0.4,0.6c-4.2,5.1-6.7,11.5-7.2,18.1c-1.5,12.4-1.7,24.9-0.5,37.4   c0.2,2.1,0.5,4.1,1.1,6.1c0.9,4.2,4.2,7.6,8.5,8.5c4.5,1,8.3,3.9,10.4,8c1.2,2.2,3,4,5.3,5.1c0.7,0.3,1.4,0.7,1,1.6   c-0.4,1-1.1,0.5-1.7,0.4c-2.5-0.5-4.9-1.6-6.8-3.3c-0.2,0.2-0.4,0.3-0.4,0.4c-0.2,1.1,0.4,2.8-1.2,3.2c-1.7,0.4-2-1.4-2.5-2.6   c-2.2-5.2-7.3-8.5-12.9-8.2c3,3.5,5.9,6.9,8.9,10.3c1.6,1.8,2.9,3.8,3.8,6c0.3,0.6,0.6,1.3,0,1.8s-1.4,0.2-2-0.2   c-1.2-0.8-2.2-1.8-3-2.9c-1.4-2-3.3-3.6-5.5-4.8c-0.7,1.6-1.3,3-2.2,5c-0.6-3.5-1.8-7-3.4-10.2c-2-2.9-5.4-4.3-7.7-7.3   c-1.6,4.6-3.8,9-6.5,13.1l-1.7-3.6c-2.3,2.2-5.3,3.6-6,7.2c-0.4,1.6-0.4,3.3,0.1,4.9c0.2,0.6,0.8,1.5-0.3,1.9   c-1.1,0.4-1.1-0.7-1.4-1.3c-1.5-3.2-1.2-7,0.7-10c1.8-3.4,3.2-6.9,4.8-10.3c0.3-0.5,0.9-0.9,0.7-1.7c-0.7-0.1-0.9,0.4-1.2,0.9   l-3.8,3.5c-0.6,0.5-1.2,1.1-2,0.6s-0.4-1.3-0.4-2c0.1-0.9,1.2-2.1,0.3-2.7c-1.1-0.7-1.6,0.9-2.6,1.4c-5.3,2.5-9.8,6.6-12.9,11.6   c-0.2,0.3-0.5,0.7-0.8,0.9c-0.6,0.6-1.4,1.2-2.2,0.6s-0.4-1.4-0.1-2.1c1.7-4.2,4.5-7.9,8.1-10.7c2.8-1.8,5.7-3.3,8.5-5   c2.6-1.4,5.1-3,7.5-4.8c4.6-4,7-10.1,6.3-16.2c0.5-12.7,0.2-25.5-0.9-38.1c-0.7-5-3.3-9.6-7.4-12.7c-0.9-0.7-1.5-0.1-2.2,0.1   c-1.9,1-4.1,1.3-6.2,0.9c-1-0.4-1.9-1-2-2c-0.1-1.3,1.3-0.9,2.1-1.2c1.1-0.3,2.2-0.6,3.3-0.9c-0.1-0.2-0.1-0.4-0.2-0.5   c-1.4-1.1-2.9-2.9-4.4-3c-1.2-0.1-2.5,2-3.7,3.2c-0.2,0.2-0.4,0.3-0.6,0.5c-1.3,0.8-2.8,1.8-4,0.5c-1.3-1.3,0.4-2.3,1.1-3.4   c0.1-0.2,0.2-0.4,0.6-0.9c-2.3-0.2-4.3-0.7-5.9,1.3c-0.4,0.5-0.9,1.6-1.9,0.8c-1.1-0.8,0.5-1.3,0.3-2.2c-3.6-0.6-7.2,0.5-9.9,2.9   c-1.1,1.1-2.7,1.5-4.1,1.1c-0.4-0.1-0.9-0.4-0.9-1c0.3-1.6,1.3-2.9,2.7-3.6c0.5-0.3,1.2-0.7,1.6-0.5c3.7,1.4,7-1.6,10.7-0.4   c-0.1-1.2-0.4-1.7-1.4-1.7c-1,0-2-0.2-2.9-0.5c-0.9-0.3-2.3-0.3-2.3-1.3c0-0.9,1.2-1.5,2-2c2.1-1.1,4.5-1.8,6.8-2   c0.8,0,1.5-0.3,2.2-0.7c-2.3-1.8-5.5-1.8-7.8,0c-0.5,0.4-1.4,1.9-2.4,0.5c-0.9-1.4,1-1.2,1.5-1.9c0.2-0.2,0.5-0.4,1-0.7   c-1.9-0.6-3.7-1.1-5.4-1.6c-1.1-0.4-1,0.4-1.2,1c-1.1,2.6-4.1,3.8-6.7,2.7c-0.8-0.3-1.5-0.8-2-1.5c-0.5-0.4-0.7-1.1-0.5-1.8   c0.3-0.7,1.1-0.7,1.7-0.6c1.4,0.1,2.8,0.2,4.2,0.3c0.6,0,1.1-0.4,1.3-1c0.3-0.7-0.5-0.9-1-1.2c-2.2-1.2-4.2-2.6-6-4.3   c-0.8-0.7-1.4-1.6-1.9-2.6c-0.3-0.7-0.5-1.4,0.1-2.1c0.7-0.6,1.2-0.4,1.8-0.1c2.6,0.5,4.7,2.2,5.7,4.6c0.3,0.7,0.8,1.3,1.2,1.8   c0.1,0.2,0.2,0.4,0.3,0.6c0.3,0.4,0.4,1,1.1,1c0.1,0.4,0.2,0.7,0.7,0.9c0.1,0.3,0.5,0.5,0.8,0.4c0,0,0.1,0,0.1-0.1l-0.5-0.7   l-0.8-0.8c-0.3-0.4-0.6-0.7-0.9-1.1l-0.3-0.6c-0.2-1.1-0.1-2.3,1.2-2.6c1.9-0.4,2.5,1.2,3.2,2.4c0.9,4.6,0.9,4.6,4.6,5.2   c-1.6-1.7-3-3.6-4.1-5.6c-0.3-0.9-0.4-1.8-0.3-2.7c0.3-1.5,1.7-2.1,2.7-1c3,2.4,5,5.8,5.6,9.6c0.1,1.1,0.7,0.9,1.2,1.2   c0.7,0.4,1.3,0.3,1.6-0.5c0.2-0.4,0.4-0.7,0.5-1.1c0.3-0.6,0.4-1.6,1.5-1.2c1.1,0.4,0.3,1.4,0,1.8c-1.7,2.6,0.6,3,2.1,4.2   c0.2-2.4-0.2-4.7-0.9-6.9c2.1-0.4,4.2,0.9,4.8,2.9c0.6,1.3,0.9,2.7,0.7,4.1c-0.5,3.2,1.6,4.7,4,6.5c-0.1-2.1,0.7-4-1.4-5.4   c3.3-0.6,6.8-0.3,9.9,0.9c-0.3-1.6-0.9-3.1-1.7-4.4c-0.6-1.3-1.6-0.1-2.4-0.2c-0.8-0.2-1.6,1.2-2-0.3c-0.4-1.5,0.9-1,1.6-1.3   c0.4-0.2,0.8-0.3,1.2-0.5c-0.6-1.5-1.8-2.5-2.4-4c-0.6-1.5-2.1-0.9-3.3-1.1c-0.5-0.1-1,0.1-1.5,0c-0.8-0.1-2.1,0.6-2.1-0.9   c0-1.5,1.4-0.6,2.1-0.9c0.2-0.1,0.5-0.1,0.8-0.1c-1.5-2.5-1.9-2.5-4.5-1.3c-3.3,1.4-7.1,1.2-10.3-0.6c-0.6-0.2-0.9-0.7-0.9-1.3   c0.2-0.8,0.9-1.1,1.7-1.3c2.9-0.6,5.9-0.5,8.8,0.2c-1-1.5-1.8-2.1-3.3-2c-1.8,0-3.6,0-5.4-0.2c-0.6,0-1-0.1-0.9-0.8   c0-0.7,0.4-0.8,1-0.8c1.3,0,2.6,0,4.2,0c-2.1-2-3.6-3.4-6.8-2.2c-4.4,1.9-9.5,0.8-12.8-2.7c4.3-1.4,8.9-1.3,13.2,0.1   c-1.5-2.7-4.5-4.2-7.5-3.6c-0.6,0.1-1.9,0.6-1.8-0.9c0.1-1.2,1.1-0.6,1.8-0.7c0.8,0,1.5-0.1,2.3-0.2c-4.1-2.1-6.3-6.8-5.4-11.3   c3.7,1.2,6.3,4.4,6.7,8.2c0.2,1.8,1.2,3.5,2.7,4.4c0.3-3.4-0.7-7.1,2.3-9.9c2.4,2.8,2.8,6.9,0.9,10.1c-1,1.8-0.8,2.8,1.1,3.6   c0.4-0.2,0.2-0.7,0.1-1c0-0.6-0.2-1.2,0.7-1.3s0.8,0.6,0.9,1.1c0.4,1.2-0.2,2.7,1.2,3.5c0.2,0.1,0.4,0.3,0.5,0.3   c0.4-0.2,0.2-0.5,0.1-0.7 M109.1,315.7c0.4,0.2,0.9,0,1.1-0.4c1-0.4,1.8-1.1,2.1-2.1c-1,0.1-2,0.8-2.4,1.8   C109.7,315.2,109.4,315.5,109.1,315.7l-0.1,0.2L109.1,315.7 M152.6,258.4c-0.2-0.3-0.4-0.6-0.7-0.9c-1.1-1.5-2.2-3.1-3.2-4.7   c-1.4-2.6-3.1-3.7-6-2.2c1.3,1.8,2.2,3.8,2.4,6c0.3,2.2-1.6,4.1-0.6,6.4c0.7-1.6,1.4-3.3,2.1-4.9c1.2,0.7,1.4,2.1,2,3.1   c1.2-1,0.3-3.6,2.9-3.4l0.6,0.8c0.1,0.4,0,0.9,0.6,1.3C152.8,259.4,153,258.9,152.6,258.4 M123.1,285.9c-0.1-0.2,0-0.6-0.4-0.2   C122.8,285.7,122.9,285.8,123.1,285.9c0.2,1.2,1,1.9,2.8,2.6C125.4,287.2,124.4,286.3,123.1,285.9 M136.6,298.7   c-0.1-0.2-0.1-0.7-0.4-0.5s0,0.5,0.2,0.7c0.4,1.6,1.1,3,2.1,4.2C138,301.1,138.2,299.5,136.6,298.7 M156.9,260.6   c1.7-0.7,3-2.1,3.4-3.9C158.6,257.3,157.3,258.7,156.9,260.6c-0.2,0-0.6,0-0.2,0.3C156.8,260.8,156.8,260.7,156.9,260.6    M183.6,268.5c1.8-0.6,3.2-2.1,3.6-4C185.3,265.6,183.8,266.4,183.6,268.5l-0.2,0.2h0.1C183.6,268.7,183.6,268.6,183.6,268.5    M163.3,244.2c-2.1,0-4.1,0.9-5.6,2.3C159.8,246.8,161.9,245.9,163.3,244.2c0.1-0.1,0.5,0,0.1-0.3L163.3,244.2 M96.8,291.8   l-0.3-0.2l0.2,0.3c0.5,2.3,1.8,4.3,3.8,5.6c0.2,0.2,0.2,0.7,0.6,0.4s0-0.6-0.2-0.7C99.9,295.1,98.5,293.3,96.8,291.8 M164.7,272   l-0.2-0.1L164.7,272c0.3,2.1,1.3,4,2.9,5.4C167.7,274.1,167,272.9,164.7,272 M136,263.5l-0.2-0.2L136,263.5   c1.2,3.4,3.2,4.4,7.4,3.6C141.2,265.3,138.7,264.1,136,263.5 M168.7,314.2c-0.7-0.1-1.4-0.3-2.1-0.5c-3.6-1.6-4.6-1.1-7,3.4   C162.5,315.7,165.6,314.7,168.7,314.2l1.2-0.2C169.4,313.5,169.1,313.7,168.7,314.2 M145.7,270.3h0.6c-0.1-0.2-0.1-0.4-0.2-0.6   c-0.5-1.7-1.8-0.8-2.7-0.7c-2.6,0.4-5.3-0.3-7.5-1.9c-1.9-2.3-3.2-5.1-3.9-8c-0.5-1.3-1.6-2.3-3-2.7c0.4,1.7,0,3.5-1,4.9   c-1.7,1.8-0.9,3.6-0.5,5.5c0.7-0.8,1.2-1.6,1.7-2.5c0.2-0.5,0.8-0.7,1.2-0.5c0.5,0.1,0.6,0.5,0.6,0.9c0.4,3.3-0.4,6.7-2.2,9.5   c-1.3,1.8-1.8,4.2-1.3,6.4c0.9-1,2.6-0.6,2.4-1.7c-0.4-1.6,0.5-1.1,1.2-1.1c3.4-0.2,6.8,1.2,9.1,3.8c0.3,0.4,0.5,1.1,1.2,1.1   c2.1-0.1,2-0.1,1.1,1.9c-1.4,2.4-1.6,5.4-0.4,8c2.2-3.7,3.6-7.7,4.2-11.9c0.1-1-0.6-1-1.2-1.2c-3-1.4-5.9-3.1-8.5-5.2   c3.9-2.8,7.1-0.7,10.4,0.6c0-2.2,0-2.2-2.1-3.1c-0.7-0.3-2.2-0.1-1.6-1.6C144,269.2,145,270.4,145.7,270.3 M123.5,396   c0.9,0.3,1.1-0.5,1.5-0.9c1.9-2.2,4.4-3.7,7.2-4.3c0.1,0.2,0.2,0.3,0.4,0.5c-2.5,4-4.6,8.2-6.2,12.7c-0.4,0.2-0.4,0.4-0.2,0.7   c0.2-0.1,0.4-0.3,0.6-0.4c0.6-0.5,1.2-0.9,1.7-1.4c1.4-1.3,2.6-2.1,3.3,0.9c2.1-3.2,3.8-6.7,4.9-10.3c0.6-1.8,1.5-1.8,2.5-0.4   c1,1.5,2.4,2.8,3.9,3.8c3.4,2.1,5.7,5.5,6.4,9.4c3-2.5,4.5,1.1,7.2,1.9c-2-2.5-3.7-4.6-5.5-6.6c-1.8-2.1-3.7-4.1-5.7-6.2   c4.2-1.6,7.5,0.5,11,1.5c3.6,1.4,6.4,4.3,7.6,8c0.2-4.6-0.2-4.4,3.3-2.7c-1.4-3.7-4.4-6.5-8.1-7.7c-7.4-1.3-12.7-7.9-12.5-15.4   c-1.2-10.7-1.3-21.5-0.3-32.2c-0.4-9.9,3-19.5,9.4-27c-0.9,0.2-1.3,0.4-1.6,0.4c-1.9,0.4-3.9,0.8-5.3-0.9s-0.3-3.6,0.4-5.3   c1.1-2.5,2-5,3.1-7.8c-2.7,1.6-3.1,4.2-4.5,6.3c-0.6,1-1,2.6-2.6,2.2c-1.4-0.2-1.2-1.7-1.6-2.8c-1.3-5.9-1.5-11.9-0.6-17.8   c-1.8,2.7-2.8,5.9-2.9,9.1c0,3.9,0.2,7.8,0.7,11.6c0.1,0.9,0.1,1.9-0.9,2.4c-0.9,0.3-1.9,0-2.4-0.9c-3.7-3.8-6.8-8.1-9-12.9   c-0.6-1.6-1.6-3.1-2.8-4.2c0.9,1.6,1.6,3.1,2.5,4.7c0.6,2.8,1.8,5.5,3.7,7.8c1.8,2.5,3.1,5.2,4,8.2c0.4,0.7,0.3,1.7-0.3,2.3   c-0.7,0.6-1.6,0.3-2.3,0c-3.6-1.5-6.9-3.7-9.6-6.5c-1.9-1.9-4.3-3.2-7-3.7c2.1,1.8,4.4,3.4,6.8,4.9c6.5,4.2,10.6,11.2,10.8,19   c0.9,12.6,0.7,25.1,0.4,37.7c0.2,6.9-3.4,13.3-9.3,16.7l-4.7,2.9c2.2,0.3,2.9,1.4,2.6,3.2l-0.1,0.1v0.1L123.5,396 M157.2,275.4   c-2.3,1.4-4.3,2.3-6,3.5c-1.2,0.9-2.8,1.8-3.1,3c-0.8,3.3-2.1,6.5-3.2,9.9c2.6-1.2,4.9-2.9,6.9-4.9c0.6-0.6,1.7-1.1,0.2-2.1   c-1.1-0.7-0.7-2.1,0-3.1c0.7-1.1,1.7-1.9,2.8-1.6s0.2,1.7,0.7,2.6l0.3,0.4C157.3,280.6,155.7,277.9,157.2,275.4 M134.5,320.4   c-0.2-1.4-0.7-2.8-1.4-4.1c-1.4-3.4-3.2-6.3-7.5-6.2c-1-0.1-1.9-0.4-2.8-0.7c-0.9,2.6,0.9,3.6,2.6,4.9c0.1-0.3,0.3-0.7,0.4-1   c0.4-0.5,0.1-1.7,1.4-1.1c1,0.4,0.4,1.2,0.2,1.6c-1,1.7-0.2,2.7,1.2,3.6C130.4,318.5,132.4,319.6,134.5,320.4 M123.4,273.9   c-0.1,2.4-1.6,4.6-3.9,5.5c-1.4,0.5-0.4,1.2-0.2,1.7c0.1,0.3-0.1,1.5,0.9,0.9c1.9-1.2,2.7-0.1,3.4,1.4c0.4,1,1.3,1.7,2.4,1.9   C124.9,281.4,127.6,277.2,123.4,273.9 M135.1,254.2c-1.7-3.4-1.7-3.4-4.9-4.1c-1.4-0.4-2.8-1-4-1.8c-0.9-0.5-1.5-1.4-2.7-1.6   c0.2,1.7,0.5,3.1,0.7,4.6c0.2,1.5,0.4,2.8,0.5,4.3c2-0.8,1-4.1,3.6-3.8c1.9,0.3,3.7,0.9,5.3,1.9C134,253.8,134.4,253.9,135.1,254.2    M167.3,309.4l0.1,0.4c1.1-0.2,2.2-0.4,3.4-0.6c2.1-0.2,4.3,0.2,6.3,1.1c1,0.4,2.1,0.5,2.5-0.6c0.6-1.4-0.9-1.3-1.6-1.6   c-1.7-0.7-3.4-1.5-4-3.6L167.3,309.4 M120.7,287.1c-0.6,5.5-0.6,5.5,5.4,8.1c0.2-2.4,0.8-4.8-2.4-6   C122.6,288.7,121.6,287.9,120.7,287.1 M132.3,291.6c0.9,1.2-1.1,3.7,2.3,2.9c0.8-0.2,1.6,0.7,2.2,1.4c0.8,0.9,1.6,1.9,2.4,2.9   c0.6-1.4,1.1-2.7,1.7-4c0.3-0.8,0.4-1.5-0.8-1.4C137.4,293.3,134.8,292.7,132.3,291.6 M133.4,283c0.4,1.9-0.9,4,0.2,4.7   c1.1,0.7,3.2,0.3,4.8,0.6c2.7,0.4,1.2-2.2,2.4-3.3C138.2,285.2,135.6,284.5,133.4,283 M139.5,315c-0.4-2.6-0.6-5.3-0.6-8   c0.1-1.8,0-1.8-1.7-2.2C135.7,308.6,134.8,312.4,139.5,315 M113.9,311.4c-1.3-2.7-3.2-4.9-5.7-6.6c0,1.7-1.3,2.3-2.5,3.2   C108.6,309,110.4,312.1,113.9,311.4 M148.6,266.8c-0.1,1.3-1.3,1.6-0.8,2.8c1,2.8,1.4,5.8,1.2,8.8c1.4-3.6,4.6-7.1,0.3-10.7   C149.2,267.5,149.1,267.3,148.6,266.8 M133.2,282.8c-1-0.9-1.3-2.3-3.1-1.4c-2,0.5-3.3,2.5-2.8,4.6c0.1,0.3,0.2,0.5,0.3,0.8   c0.4,1.3,1,0.8,1.5,0.1C130.2,285.2,131.6,283.8,133.2,282.8 M157.5,269.6c-2.1,2-4.8,3.4-5.6,7   C155.1,274.9,157.3,273.1,157.5,269.6 M124.7,244.5c1.4,1.9,3.4,3.2,5.7,3.8c0.4,0.1,1.1,0.4,1.3-0.1c0.1-0.5,0-1-0.3-1.3   C129.4,245.5,127.1,244.6,124.7,244.5 M131.6,305.3c0.1-1.6,0.4-3.2,0.9-4.8c0.5-1.3,2.2-2.5,0.4-4.1c-0.2,1.7-1.1,3.2-2.5,4.2   c-0.4,0.2-0.6,0.6-0.4,1.1c0,0.1,0.1,0.1,0.1,0.2C130.6,302.9,131.1,304.1,131.6,305.3 M145,240.3c-1.2,3.2-0.7,4.9,1.7,6.2   C146.9,244.2,147.2,241.9,145,240.3 M97.3,307.5c3.6,1.1,5.9-0.8,8.4-2.1C102.8,305.4,99.9,306.2,97.3,307.5 M168.8,289.3   c2.8-0.1,5.4-1.3,7.3-3.3C173.7,286.7,170.8,286.4,168.8,289.3 M115.6,261.6c-0.5-2.4,0.7-5.2-1-7.7   C112.6,257,114.7,259.2,115.6,261.6 M132.9,289.8c1.6,0.9,3.3,1.6,5.1,1.9c0.5,0.1,1.2,0.4,1.4-0.5c0.1-0.5-0.2-1.1-0.7-1.2   c-0.1,0-0.1,0-0.2,0C136.7,289.4,134.8,289.3,132.9,289.8 M160.5,238.1c1.3-1.3,1.7-3.2,1.2-4.9c-0.1-0.3-0.3-0.6-0.5-0.7   c-0.5-0.2-0.7,0.3-0.9,0.6C159.7,234.7,159.8,236.5,160.5,238.1 M95.6,271.2c0.3-2.3-1.1-4.5-3.3-5.2   C92.4,268.2,93.7,270.2,95.6,271.2 M110,253.3c-0.4-2.7-1.5-5.2-3.1-7.3C107,248.7,108.1,251.3,110,253.3 M133.2,279.9   c2.3,2.8,3,3.2,5.8,3C137.6,281.1,135.4,280,133.2,279.9 M142.5,260.4c1.3-2,1.2-4.5-0.1-6.5C140.9,256.1,141.6,258,142.5,260.4    M110.4,281.9c0.7-2.4,0.5-4.9-0.6-7.1C108.8,277.1,109,279.8,110.4,281.9 M123,256.1c-0.9-2.3,0.1-4.8-1.1-7.5   C120.7,251.2,121.1,254.1,123,256.1 M149.8,297.8c-1.4,2-1.2,4.7,0.3,6.7C150.5,302.3,150.4,300,149.8,297.8 M140.8,275.1   c1.2,1.2,2.7,2.2,4.4,2.8c0.4,0.2,0.9,0.1,1.2-0.3c0,0,0.1-0.1,0.1-0.1c0.2-0.5-0.2-0.7-0.6-0.9   C144.4,275.7,142.6,275.1,140.8,275.1 M131.2,291c-4,1-4.5,2-3,5.4C128.1,294,129.5,292.7,131.2,291 M159.3,304.2   c-3.7,0.4-4.1,0.7-4.6,2.9C156.5,306.7,158.1,305.7,159.3,304.2 M110.9,265.6c-1.1-1.5-2.9-2.3-4.7-2   C107.5,265.6,108.2,265.9,110.9,265.6 M92.9,280.6c1.8,1.1,4,1.2,5.9,0.2C96.9,280.1,94.9,280,92.9,280.6 M134.4,308.3   c0.7-2.3,0.6-4.7-0.3-6.9C133,303.6,133.1,306.2,134.4,308.3 M149.5,247.1c1.9-1.6,1.1-3.6,0.6-5.8   C149.2,243.1,149,245.1,149.5,247.1 M129.9,237.7c0.3,2.1,1,4.2,2.1,6C132.6,241.4,131.7,239,129.9,237.7 M162.6,262.9   c0.4,1.5,1.7,2.5,3.2,2.5c0.4,0,1.1-0.4,0.6-1C165.5,263.2,164.5,262.2,162.6,262.9 M175,280.8c2.5,1,3.4,0.9,5.1-0.1   C178.5,279.9,176.5,279.9,175,280.8 M182.1,311.7c1.6,1.1,3.6,1.3,5.4,0.7C185.7,311.3,184.1,310.6,182.1,311.7 M121.9,306.7   c1.6,1.6,3.9,2.3,6.1,2C126.1,307.5,124,306.8,121.9,306.7 M154.5,300.3c0.7-1.8,0.8-3.8,0.5-5.8   C153.5,296.1,153.3,298.5,154.5,300.3 M104.8,289.8c2.2,0.4,4.2,1.3,6.2-0.1C109,289.2,106.8,289.2,104.8,289.8 M145.2,248.4   c-1.5-1.1-3.2-1.8-5.1-1.9C141,248.4,143.3,249.2,145.2,248.4 M191.9,295.1c2.7-1.5,3-1.9,3.2-3.9   C193.4,291.8,192.2,293.3,191.9,295.1 M129.6,298.9c1.4-1.1,1.8-3.1,1-4.6C129.7,295.7,129.4,297.3,129.6,298.9 M158.2,278.7   c1-1.8,1.7-3.7,1.9-5.7C158.7,274.5,158,276.6,158.2,278.7 M86.7,294c-0.6-2.2-1.6-3.4-4-3.4C83.7,292,85.1,293.2,86.7,294    M111.8,300.3c-0.4,1.9,0,4,1.1,5.6C113.1,304,112.7,302,111.8,300.3 M128.9,269.3c-2,2.1-2,2.1-1.5,4.4   C128.3,272.4,128.9,270.9,128.9,269.3 M170.9,297.6c-1.4,1.1-1.6,3.1-0.5,4.5C171.1,300.6,171.2,299.1,170.9,297.6 M150.5,261.9   c-0.5,1.8-0.3,3.8,0.6,5.5C151.3,265.5,151,263.6,150.5,261.9 M134.3,256.1c-1.1-1.1-2.6-1.7-4.2-1.6   C131.1,255.8,132.7,256.4,134.3,256.1 M102.2,269.9c-0.9,1.3-0.4,2.7-0.5,4.5C102.7,273.1,102.9,271.3,102.2,269.9 M117.9,283.3   c0.2,2.1-0.3,3.6,0.9,5.1C119.1,286.7,118.8,284.9,117.9,283.3 M126.8,260.1c0.8-1.2,0.8-2.8,0.2-4.1   C126.3,257.4,126.3,258.8,126.8,260.1 M138.1,260.6c-1.8-0.9-2.9-2.1-4.9-1.6C134.5,260.2,136.3,260.8,138.1,260.6 M109.5,258.2   c-1.5-0.4-2.5-0.8-3.3,0.1c-0.1,0.1,0,0.6,0.1,0.6C107.4,259.4,108.7,259.1,109.5,258.2 M106.3,310.5c-1.1-0.6-2.1-1.4-3.6-1   C103.6,311.1,104.9,310.8,106.3,310.5 M122.3,284.8l-0.1-0.1v0.1L122.3,284.8z"/>
	<path id="Path_6113" fill="#F9A700" d="M132.1,390.9c-2.8,0.6-5.3,2.1-7.2,4.3c-0.4,0.4-0.7,1.2-1.5,0.9h0.1   c0.2-1.7-0.4-2.9-2.6-3.2c1.7-1.1,3.2-2,4.7-2.9c5.9-3.5,9.5-9.9,9.3-16.7c0.3-12.6,0.4-25.1-0.4-37.7c-0.3-7.7-4.3-14.8-10.8-19   c-2.4-1.4-4.7-3.1-6.8-4.9c2.7,0.5,5.1,1.8,7,3.8c2.7,2.8,6,5,9.6,6.4c0.8,0.3,1.6,0.7,2.3,0c0.6-0.6,0.7-1.6,0.3-2.3   c-0.9-2.9-2.2-5.7-4-8.2c-1.8-2.2-3.1-4.9-3.7-7.8c0.1-0.1,0.2-0.3,0.4-0.4c2.2,4.8,5.3,9.2,9,12.9c0.5,0.8,1.5,1.2,2.4,0.9   c1-0.4,1-1.5,0.9-2.4c-0.5-3.9-0.7-7.7-0.7-11.6c0.1-3.2,1.1-6.4,2.8-9.1c-0.9,5.9-0.7,12,0.6,17.8c0.3,1.1,0.1,2.6,1.6,2.8   c1.6,0.3,1.9-1.3,2.6-2.3c1.3-2,1.8-4.7,4.5-6.3c-1.1,2.8-2.1,5.3-3.1,7.8c-0.8,1.7-1.9,3.6-0.4,5.3c1.4,1.7,3.4,1.3,5.3,0.9   c0.4-0.1,0.8-0.2,1.6-0.4c-6.4,7.5-9.8,17.2-9.4,27c-0.9,10.7-0.8,21.5,0.3,32.2c-0.2,7.5,5.1,14.1,12.5,15.4   c3.7,1.2,6.7,4,8.1,7.7c-3.6-1.7-3.1-1.9-3.3,2.7c-1.2-3.7-4-6.6-7.6-8c-3.5-1-6.8-3.1-11-1.5c2,2.2,3.9,4.2,5.7,6.2   c1.8,2.1,3.4,4.2,5.5,6.6c-2.6-0.8-4.1-4.4-7.2-1.9c-0.7-3.9-3.1-7.3-6.4-9.4c-1.5-1-2.8-2.3-3.8-3.8c-1.1-1.4-1.9-1.4-2.5,0.4   c-1.1,3.7-2.8,7.2-4.9,10.3c-0.6-2.9-1.9-2.2-3.2-0.9c-0.5,0.5-1.1,0.9-1.7,1.4l-0.4-0.4c1.6-4.4,3.7-8.7,6.2-12.7l0.2-0.5h-0.6"/>
	<path id="Path_6114" fill="#267F36" d="M168.6,314.3c-3.2,0.6-6.2,1.6-9.1,3c2.4-4.6,3.4-5,7-3.4   C167.1,314.1,167.9,314.2,168.6,314.3L168.6,314.3z"/>
	<path id="Path_6115" fill="#267F36" d="M157.3,269.7c-0.2,3.4-2.4,5.3-5.6,7C152.6,273.2,155.2,271.7,157.3,269.7"/>
	<path id="Path_6116" fill="#267F36" d="M124.6,244.6c2.4,0.1,4.7,1,6.7,2.4c0.3,0.4,0.4,0.9,0.3,1.3c-0.2,0.6-0.9,0.3-1.3,0.1   C128,247.8,126,246.4,124.6,244.6"/>
	<path id="Path_6117" fill="#267F36" d="M135.8,263.6c2.7,0.6,5.2,1.9,7.4,3.6C139,268.1,137,267,135.8,263.6L135.8,263.6z"/>
	<path id="Path_6118" fill="#267F36" d="M144.8,240.4c2.2,1.6,2,3.9,1.7,6.2C144.1,245.3,143.6,243.6,144.8,240.4"/>
	<path id="Path_6119" fill="#267F36" d="M97.2,307.7c2.6-1.4,5.4-2.1,8.4-2.1C103.1,306.9,100.8,308.8,97.2,307.7"/>
	<path id="Path_6120" fill="#267F36" d="M168.7,289.4c2-2.9,4.8-2.7,7.3-3.3C174.1,288.2,171.5,289.3,168.7,289.4"/>
	<path id="Path_6121" fill="#267F36" d="M115.5,261.7c-0.9-2.4-3-4.6-1-7.7C116.2,256.5,115,259.3,115.5,261.7"/>
	<path id="Path_6122" fill="#267F36" d="M132.8,289.9c1.8-0.4,3.7-0.4,5.5,0.2c0.6,0,1,0.5,1,1c0,0.1,0,0.1,0,0.2   c-0.2,0.9-0.9,0.6-1.4,0.5C136.1,291.4,134.4,290.8,132.8,289.9"/>
	<path id="Path_6123" fill="#267F36" d="M160.4,238.2c-0.8-1.6-0.9-3.4-0.2-5.1c0.2-0.3,0.4-0.8,0.9-0.6c0.3,0.2,0.5,0.4,0.5,0.7   C162.1,235,161.6,236.9,160.4,238.2"/>
	<path id="Path_6124" fill="#267F36" d="M95.4,271.3c-1.9-1-3.2-3-3.3-5.2C94.3,266.9,95.7,269,95.4,271.3"/>
	<path id="Path_6125" fill="#267F36" d="M109.8,253.4c-1.9-2-3-4.6-3.1-7.3C108.4,248.2,109.4,250.7,109.8,253.4"/>
	<path id="Path_6126" fill="#267F36" d="M133,280c2.3,0.1,4.4,1.2,5.8,3C136,283.2,135.2,282.9,133,280"/>
	<path id="Path_6127" fill="#267F36" d="M142.4,260.5c-0.9-2.4-1.7-4.3-0.1-6.5C143.6,256,143.6,258.5,142.4,260.5"/>
	<path id="Path_6128" fill="#267F36" d="M110.3,282c-1.4-2.1-1.6-4.8-0.6-7.1C110.8,277.1,111,279.6,110.3,282"/>
	<path id="Path_6129" fill="#267F36" d="M122.8,256.3c-1.9-2-2.3-5-1.1-7.5C122.9,251.4,122,254,122.8,256.3"/>
	<path id="Path_6130" fill="#267F36" d="M149.5,298c0.6,2.2,0.7,4.5,0.3,6.7C148.3,302.7,148.2,300,149.5,298"/>
	<path id="Path_6131" fill="#267F36" d="M164.6,272.1c2.3,0.9,2.9,2.2,2.9,5.4C165.9,276.1,164.9,274.2,164.6,272.1L164.6,272.1z"/>
	<path id="Path_6132" fill="#267F36" d="M140.8,275.1c1.8,0,3.5,0.5,5,1.5c0.3,0.2,0.8,0.4,0.6,0.9c-0.2,0.4-0.7,0.7-1.1,0.5   c-0.1,0-0.1,0-0.1-0.1C143.5,277.3,142.1,276.3,140.8,275.1"/>
	<path id="Path_6133" fill="#267F36" d="M159.2,304.2c-1.1,1.5-2.8,2.5-4.6,2.9C155.2,304.8,155.6,304.6,159.2,304.2"/>
	<path id="Path_6134" fill="#267F36" d="M100.3,297.7c-2-1.3-3.3-3.3-3.8-5.6l0.1-0.1c1.8,1.5,3.1,3.3,4,5.4   C100.5,297.5,100.4,297.6,100.3,297.7"/>
	<path id="Path_6135" fill="#267F36" d="M110.8,265.5c-2.7,0.3-3.4,0-4.7-2C108,263.3,109.8,264,110.8,265.5"/>
	<path id="Path_6136" fill="#267F36" d="M92.9,280.6c1.9-0.6,4-0.5,5.9,0.2C97,281.7,94.7,281.6,92.9,280.6"/>
	<path id="Path_6137" fill="#267F36" d="M134.4,308.3c-1.3-2.1-1.4-4.7-0.3-6.9C135,303.6,135.1,306.1,134.4,308.3"/>
	<path id="Path_6138" fill="#267F36" d="M149.5,247.1c-0.6-1.9-0.4-4,0.6-5.8C150.7,243.5,151.5,245.4,149.5,247.1"/>
	<path id="Path_6139" fill="#267F36" d="M163.1,244.3c-1.3,1.7-3.5,2.6-5.6,2.4C159,245.2,161,244.3,163.1,244.3L163.1,244.3z"/>
	<path id="Path_6140" fill="#267F36" d="M129.9,237.7c1.9,1.4,2.7,3.7,2.1,6C130.8,241.8,130.1,239.8,129.9,237.7"/>
	<path id="Path_6141" fill="#267F36" d="M162.6,262.9c1.8-0.7,2.9,0.3,3.8,1.5c0.4,0.6-0.2,1-0.6,1   C164.3,265.4,163,264.4,162.6,262.9"/>
	<path id="Path_6142" fill="#267F36" d="M175,280.8c1.6-0.9,3.5-1,5.1-0.1C178.4,281.7,177.5,281.8,175,280.8"/>
	<path id="Path_6143" fill="#267F36" d="M182.1,311.7c2-1.2,3.5-0.4,5.4,0.7C185.8,313,183.7,312.8,182.1,311.7"/>
	<path id="Path_6144" fill="#267F36" d="M121.8,306.7c2.2,0.2,4.3,0.9,6.1,2C125.7,309,123.4,308.3,121.8,306.7"/>
	<path id="Path_6145" fill="#267F36" d="M154.5,300.2c-1.2-1.8-1-4.2,0.5-5.8C155.4,296.4,155.2,298.4,154.5,300.2"/>
	<path id="Path_6146" fill="#267F36" d="M104.8,289.8c2-0.6,4.2-0.6,6.2-0.1C109,291.2,107,290.2,104.8,289.8"/>
	<path id="Path_6147" fill="#267F36" d="M183.5,268.6c0.1-2.1,1.6-3,3.5-4C186.7,266.5,185.3,268,183.5,268.6L183.5,268.6z"/>
	<path id="Path_6148" fill="#267F36" d="M145.2,248.4c-1.9,0.8-4.2,0-5.1-1.9C141.9,246.6,143.7,247.3,145.2,248.4"/>
	<path id="Path_6149" fill="#267F36" d="M191.9,295.1c0.3-1.8,1.5-3.2,3.2-3.9C194.9,293.1,194.5,293.6,191.9,295.1"/>
	<path id="Path_6150" fill="#267F36" d="M129.5,298.9c-0.2-1.6,0.2-3.3,1-4.6C131.4,295.9,130.9,297.8,129.5,298.9"/>
	<path id="Path_6151" fill="#267F36" d="M158.2,278.7c-0.2-2.1,0.5-4.2,1.9-5.7C159.9,275,159.2,277,158.2,278.7"/>
	<path id="Path_6152" fill="#267F36" d="M156.7,260.7c0.4-1.8,1.8-3.3,3.5-3.8C159.7,258.6,158.5,260.1,156.7,260.7L156.7,260.7z"/>
	<path id="Path_6153" fill="#267F36" d="M86.6,294c-1.6-0.8-3-2-4-3.4C85,290.6,86,291.8,86.6,294"/>
	<path id="Path_6154" fill="#267F36" d="M111.8,300.3c1,1.7,1.4,3.7,1.1,5.6C111.8,304.3,111.4,302.2,111.8,300.3"/>
	<path id="Path_6155" fill="#267F36" d="M128.8,269.3c0,1.6-0.5,3.2-1.5,4.4C126.8,271.5,126.8,271.5,128.8,269.3"/>
	<path id="Path_6156" fill="#267F36" d="M170.9,297.6c0.3,1.5,0.2,3.1-0.5,4.5C169.3,300.7,169.5,298.7,170.9,297.6"/>
	<path id="Path_6157" fill="#267F36" d="M150.4,261.9c0.6,1.8,0.8,3.6,0.6,5.5C150.1,265.7,149.9,263.7,150.4,261.9"/>
	<path id="Path_6158" fill="#267F36" d="M134.3,256.1c-1.6,0.3-3.2-0.3-4.2-1.6C131.7,254.5,133.2,255,134.3,256.1"/>
	<path id="Path_6159" fill="#267F36" d="M102.2,269.9c0.7,1.5,0.5,3.2-0.5,4.5C101.7,272.6,101.3,271.2,102.2,269.9"/>
	<path id="Path_6160" fill="#267F36" d="M117.9,283.4c0.9,1.5,1.3,3.3,0.9,5.1C117.6,287,118,285.5,117.9,283.4"/>
	<path id="Path_6161" fill="#267F36" d="M128.7,303.4l-0.4,0.5l-2.5-4.7C127.2,300.4,128.2,301.8,128.7,303.4"/>
	<path id="Path_6162" fill="#267F36" d="M126.7,260.2c-0.5-1.3-0.4-2.8,0.2-4.1C127.6,257.4,127.5,259,126.7,260.2"/>
	<path id="Path_6163" fill="#267F36" d="M138.1,260.6c-1.8,0.2-3.6-0.4-4.9-1.6C135.2,258.5,136.3,259.7,138.1,260.6"/>
	<path id="Path_6164" fill="#267F36" d="M109.5,258.2c-0.8,0.9-2.1,1.2-3.3,0.7c-0.1-0.2-0.1-0.4-0.1-0.6   C107,257.4,108,257.8,109.5,258.2"/>
	<path id="Path_6165" fill="#267F36" d="M106.2,310.5c-1.3,0.3-2.7,0.6-3.6-1C104.2,309.1,105.2,309.9,106.2,310.5"/>
	<path id="Path_6166" fill="#267F36" d="M136.5,298.8c1.5,0.9,1.3,2.4,1.9,4.4c-1.1-1.2-1.8-2.6-2.2-4.2L136.5,298.8"/>
	<path id="Path_6167" fill="#267F36" d="M122.9,286c1.3,0.4,2.3,1.3,2.8,2.6C124,287.9,123.2,287.2,122.9,286L122.9,286z"/>
	<path id="Path_6168" fill="#267F36" d="M109.8,315.1c0.4-1,1.3-1.6,2.4-1.8c-0.4,1-1.1,1.7-2.1,2.1L109.8,315.1"/>
	<path id="Path_6169" fill="#267F36" d="M168.6,314.3c0.3-0.4,0.7-0.6,1.2-0.1L168.6,314.3L168.6,314.3z"/>
	<path id="Path_6170" fill="#267F36" d="M100.6,297.4c0.3,0.2,0.5,0.6,0.2,0.7c-0.3,0.2-0.4-0.2-0.6-0.4   C100.4,297.6,100.5,297.5,100.6,297.4"/>
	<path id="Path_6171" fill="#267F36" d="M136.3,299c-0.3-0.2-0.5-0.5-0.2-0.7c0.3-0.2,0.3,0.3,0.5,0.5L136.3,299"/>
	<path id="Path_6172" fill="#267F36" d="M109,315.8c0.3-0.2,0.5-0.5,0.8-0.7c0.1,0.1,0.2,0.2,0.2,0.3   C109.9,315.8,109.4,315.9,109,315.8L109,315.8z"/>
	<path id="Path_6173" fill="#267F36" d="M135.8,263.7l-0.2-0.2L135.8,263.7L135.8,263.7z"/>
</g>
<path id="Path_6174" fill="#267F36" d="M125.6,286.4l0.1-0.1l-0.1-0.1L125.6,286.4z"/>
<g id="Group_6397" transform="translate(11.576 28.481)">
	<path id="Path_6175" fill="#267F36" d="M156.5,245.2l-0.2-0.1L156.5,245.2L156.5,245.2z"/>
	<path id="Path_6176" fill="#267F36" d="M100.9,288.9l-0.1,0.2L100.9,288.9L100.9,288.9z"/>
	<path id="Path_6177" fill="#267F36" d="M148.6,233.8l-0.2,0.3C148,233.9,148.4,233.8,148.6,233.8L148.6,233.8"/>
	<path id="Path_6178" fill="#267F36" d="M155,217.4l0.1-0.3C155.5,217.4,155.1,217.3,155,217.4L155,217.4z"/>
	<path id="Path_6179" fill="#267F36" d="M114.8,259.1l-0.3-0.3C114.8,258.5,114.8,258.9,114.8,259.1L114.8,259.1z"/>
	<path id="Path_6180" fill="#267F36" d="M175.4,241.7l-0.1,0.2h-0.1L175.4,241.7L175.4,241.7z"/>
	<path id="Path_6181" fill="#267F36" d="M88.4,265.2l-0.2-0.3l0.3,0.2L88.4,265.2z"/>
	<path id="Path_6182" fill="#F9A700" d="M115.3,369.3l-0.1,0.3v-0.1L115.3,369.3L115.3,369.3z"/>
	<path id="Path_6183" fill="#1F1F1F" d="M124,364h0.6l-0.2,0.5C124.2,364.4,124.1,364.2,124,364"/>
</g>
<path id="Path_6184" fill="#D60013" d="M42,41.5l7.1,2.4l9-7.6l-12.4-1.5L42,41.5z"/>
<path id="Path_6185" fill="#D60013" d="M239.9,36.3l9,7.6l7.1-2.4l-3.7-6.8L239.9,36.3z"/>
</svg>