<?xml version="1.0" encoding="UTF-8" standalone="no"?>
<svg xmlns:dc="http://purl.org/dc/elements/1.1/" xmlns:cc="http://creativecommons.org/ns#" xmlns:rdf="http://www.w3.org/1999/02/22-rdf-syntax-ns#" xmlns:svg="http://www.w3.org/2000/svg" xmlns="http://www.w3.org/2000/svg" xmlns:sodipodi="http://sodipodi.sourceforge.net/DTD/sodipodi-0.dtd" xmlns:inkscape="http://www.inkscape.org/namespaces/inkscape" width="595" height="653" viewBox="-1 -1 300.59091 329.53016" id="svg2" version="1.1" inkscape:version="0.48.5 r10040" sodipodi:docname="Coat_of_arms_of_Calabria.svg">
  <metadata id="metadata64">
    <rdf:RDF>
      <cc:Work rdf:about="">
        <dc:format>image/svg+xml</dc:format>
        <dc:type rdf:resource="http://purl.org/dc/dcmitype/StillImage"/>
      </cc:Work>
    </rdf:RDF>
  </metadata>
  <defs id="defs62"/>
  <sodipodi:namedview pagecolor="#ffffff" bordercolor="#666666" borderopacity="1" objecttolerance="10" gridtolerance="10" guidetolerance="10" inkscape:pageopacity="0" inkscape:pageshadow="2" inkscape:window-width="1920" inkscape:window-height="1001" id="namedview60" showgrid="false" inkscape:zoom="0.35355339" inkscape:cx="940.7909" inkscape:cy="212.77445" inkscape:window-x="-9" inkscape:window-y="-9" inkscape:window-maximized="1" inkscape:current-layer="svg2"/>
  <path style="fill:#d5d6d8;fill-opacity:1" d="m 299.59093,163.82661 c 0,91.09722 -67.2896,164.94612 -150.2955,164.94612 C 66.28956,328.77273 -1,254.92383 -1,163.82661 -1,72.729411 66.28956,-1.1194832 149.29543,-1.1194832 c 83.0059,0 150.2955,73.8488942 150.2955,164.9460932 z" id="ellipse4" inkscape:connector-curvature="0"/>
  <path style="fill:#ffffff;stroke:none" d="m 141.79079,11.005197 4.40087,-12.0912502 c 2.02635,-0.12918 4.12592,-0.0387 6.20823,0 l 4.40087,12.0912502 z" id="path4218" inkscape:connector-curvature="0" sodipodi:nodetypes="ccccc"/>
  <path style="fill:#deb308;fill-opacity:1;stroke:none" d="m 149.30932,318.41624 c 41.23001,0 78.31794,-19.48486 104.05625,-50.53261 L 45.225325,59.764024 C 70.971145,28.734164 108.06941,9.2370368 149.31242,9.2370368 c 41.23371,0 78.32464,19.4883672 104.04985,50.5450772 L 45.245825,267.88754 c 25.73993,31.04087 62.830385,50.5287 104.063495,50.5287 z" id="ellipse4-5" inkscape:connector-curvature="0" sodipodi:nodetypes="sccsccs"/>
  <path style="fill:#32b457;fill-opacity:1" d="m 170.64208,133.06485 0,3.88384 -42.8174,0 0,-3.88384 18.5244,0 0,-55.099744 -16.5125,-4.340072 9.2055,-25.392599 -8.5253,1.04929 18.7166,-50.4145082 18.7167,50.4145082 -8.5254,-1.04929 9.2053,25.392599 -16.5122,4.340072 0,55.099744 z" id="polygon8" inkscape:connector-curvature="0" sodipodi:nodetypes="cccccccccccccccc"/>
  <path style="fill:none;stroke:#32b457;stroke-width:1.51558447;stroke-miterlimit:4;stroke-opacity:1;stroke-dasharray:none" d="m 166.61378,85.096536 -17.3804,5.95246 -17.3804,-5.95246" id="polyline10" inkscape:connector-curvature="0"/>
  <path style="fill:none;stroke:#32b457;stroke-width:1.51558447;stroke-miterlimit:4;stroke-opacity:1;stroke-dasharray:none" d="m 166.61378,80.488886 -17.3804,5.95247 -17.3804,-5.95247" id="polyline12" inkscape:connector-curvature="0"/>
  <path inkscape:connector-curvature="0" d="m 77.568913,126.55794 -8.667009,41.45927 8.667009,42.49472 -20.678019,0 8.71411,-42.49472 -8.71411,-41.45927 z" id="polygon28-7"/>
  <path inkscape:connector-curvature="0" d="m 59.037734,123.42652 c 0,1.86045 -1.50819,3.36866 -3.36865,3.36866 -1.86045,0 -3.36864,-1.50821 -3.36864,-3.36866 0,-1.86044 1.50819,-3.36865 3.36864,-3.36865 1.86046,0 3.36865,1.50821 3.36865,3.36865 z" id="circle30-4"/>
  <path inkscape:connector-curvature="0" d="m 82.479763,123.42652 c 0,1.86045 -1.50821,3.36866 -3.36865,3.36866 -1.86045,0 -3.36868,-1.50821 -3.36868,-3.36866 0,-1.86044 1.50823,-3.36865 3.36868,-3.36865 1.86044,0 3.36865,1.50821 3.36865,3.36865 z" id="circle32-0"/>
  <path inkscape:connector-curvature="0" d="m 59.037734,213.68661 c 0,1.86047 -1.50819,3.36866 -3.36865,3.36866 -1.86045,0 -3.36864,-1.50819 -3.36864,-3.36866 0,-1.86044 1.50819,-3.36863 3.36864,-3.36863 1.86046,0 3.36865,1.50819 3.36865,3.36863 z" id="circle34-9"/>
  <path inkscape:connector-curvature="0" d="m 82.479763,213.68661 c 0,1.86047 -1.50821,3.36866 -3.36865,3.36866 -1.86045,0 -3.36868,-1.50819 -3.36868,-3.36866 0,-1.86044 1.50823,-3.36863 3.36868,-3.36863 1.86044,0 3.36865,1.50819 3.36865,3.36863 z" id="circle36-4"/>
  <path inkscape:connector-curvature="0" d="m 25.232035,158.3565 41.459269,8.66624 42.493966,-8.667 0,20.678 -42.493966,-8.71332 -41.459269,8.71332 z" id="polygon38-8"/>
  <path inkscape:connector-curvature="0" d="m 25.469655,180.25593 c 0,1.86068 -1.50836,3.36905 -3.36904,3.36905 -1.86066,0 -3.36902,-1.50837 -3.36902,-3.36905 0,-1.86065 1.50836,-3.36902 3.36902,-3.36902 1.86068,0 3.36904,1.50837 3.36904,3.36902 z" id="circle40-8"/>
  <path inkscape:connector-curvature="0" d="m 25.469655,156.81393 c 0,1.86067 -1.50836,3.36903 -3.36904,3.36903 -1.86066,0 -3.36902,-1.50836 -3.36902,-3.36903 0,-1.86067 1.50836,-3.36903 3.36902,-3.36903 1.86068,0 3.36904,1.50836 3.36904,3.36903 z" id="circle42-2"/>
  <path inkscape:connector-curvature="0" d="m 115.72899,180.25593 c 0,1.86068 -1.50836,3.36905 -3.36903,3.36905 -1.86065,0 -3.36904,-1.50837 -3.36904,-3.36905 0,-1.86065 1.50839,-3.36902 3.36904,-3.36902 1.86067,0 3.36903,1.50837 3.36903,3.36902 z" id="circle44-4"/>
  <path inkscape:connector-curvature="0" d="m 115.72861,156.81354 c 0,1.86045 -1.5082,3.36865 -3.36865,3.36865 -1.86046,0 -3.36865,-1.5082 -3.36865,-3.36865 0,-1.86045 1.50819,-3.36865 3.36865,-3.36865 1.86045,0 3.36865,1.5082 3.36865,3.36865 z" id="circle46-5"/>
  <path d="m 225.90453,121.25431 14.11454,0 0,93.46104 -14.11454,0 z" id="rect48" inkscape:connector-curvature="0"/>
  <path d="m 186.23128,160.92756 93.46104,0 0,14.11453 -93.46104,0 z" id="rect50" inkscape:connector-curvature="0"/>
  <path d="m 220.85001,127.35789 24.22357,0 0,11.06275 -24.22357,0 z" id="rect52" inkscape:connector-curvature="0"/>
  <path d="m 220.85001,197.549 24.22357,0 0,11.06273 -24.22357,0 z" id="rect54" inkscape:connector-curvature="0"/>
  <path d="m 192.33486,155.87305 11.06275,0 0,24.22357 -11.06275,0 z" id="rect56" inkscape:connector-curvature="0"/>
  <path d="m 262.526,155.87305 11.06273,0 0,24.22357 -11.06273,0 z" id="rect58" inkscape:connector-curvature="0"/>
  <path d="m 123.99766,264.39319 h 51.01955 v 44.94148 c 0,0 -0.26743,2.77812 -3.77104,2.77812 h -10.41069 c 0,0 -10.11038,-2.62157 -16.31675,-10.86085 -6.20638,-8.23928 -19.41996,-8.52017 -20.52107,-8.52017 v -28.33858 z" id="path18" inkscape:connector-curvature="0" style="fill:#00aeef;fill-opacity:1"/>
  <path style="fill:none;stroke:#deb308;stroke-width:1.51558447;stroke-miterlimit:4;stroke-opacity:1;stroke-dasharray:none" d="m 133.86301,271.95299 0,26.95447" id="line20" inkscape:connector-curvature="0"/>
  <path style="fill:none;stroke:#deb308;stroke-width:1.51558447;stroke-miterlimit:4;stroke-opacity:1;stroke-dasharray:none" d="m 144.27503,271.95299 0,33.4445" id="line22" inkscape:connector-curvature="0"/>
  <path style="fill:none;stroke:#deb308;stroke-width:1.51558447;stroke-miterlimit:4;stroke-opacity:1;stroke-dasharray:none" d="m 154.68706,272.01614 0,39.43289" id="line24" inkscape:connector-curvature="0"/>
  <path style="fill:none;stroke:#deb308;stroke-width:1.51558447;stroke-miterlimit:4;stroke-opacity:1;stroke-dasharray:none" d="m 165.09907,271.95299 0,41.43051" id="line26" inkscape:connector-curvature="0"/>
  <path d="m 126.24791,259.94304 c 0,0 -9.05083,0 -14.52111,-5.43398 -5.47028,-5.434 -5.37082,-14.82 -5.37082,-14.82 h 85.96501 c 0,0 0.0996,9.386 -5.37083,14.82 -5.4703,5.43398 -14.52112,5.43398 -14.52112,5.43398 h -46.18113 z" id="path16" inkscape:connector-curvature="0" style="fill:#00aeef;fill-opacity:1"/>
  <path style="fill:#00aeef;fill-opacity:1" d="m 99.799362,225.51936 99.543358,0 0,10.5312 -99.543358,0 z" id="rect14" inkscape:connector-curvature="0"/>
</svg>