<?xml version="1.0" encoding="UTF-8"?>
<svg version="1.1" xmlns="http://www.w3.org/2000/svg" width="486" height="484">
<path d="M0 0 C0.60102539 0.40573242 1.20205078 0.81146484 1.82128906 1.22949219 C22.86831586 15.53693197 42.12582471 33.29429337 57 54 C57.76183594 55.04027344 58.52367187 56.08054687 59.30859375 57.15234375 C80.78052466 87.25770269 93.76498843 120.6243885 100 157 C100.14550293 157.81388184 100.29100586 158.62776367 100.44091797 159.46630859 C102.32817356 170.44647694 102.1957904 181.57859137 102.25 192.6875 C102.25553894 193.4313092 102.26107788 194.17511841 102.26678467 194.94146729 C102.27869392 197.13174211 102.2746455 199.32143869 102.265625 201.51171875 C102.26336914 202.78490967 102.26111328 204.05810059 102.25878906 205.36987305 C101.89122432 211.94616107 100.87050322 218.47122583 100 225 C11.56 225 -76.88 225 -168 225 C-168 139.2 -168 53.4 -168 -35 C-110.03754879 -44.66040853 -48.8758989 -33.28001986 0 0 Z " fill="#0048CC" transform="translate(372,51)"/>
<path d="M0 0 C84.81 0 169.62 0 257 0 C255.87348377 6.75909738 255.87348377 6.75909738 254.25 10.36328125 C253.89405762 11.15847168 253.53811523 11.95366211 253.17138672 12.77294922 C252.7848291 13.61100098 252.39827148 14.44905273 252 15.3125 C251.59410645 16.19695801 251.18821289 17.08141602 250.77001953 17.99267578 C249.52886768 20.66943462 248.26977258 23.3367101 247 26 C246.64905273 26.73750488 246.29810547 27.47500977 245.93652344 28.23486328 C236.93879127 46.83686728 224.85812432 63.72945237 211 79 C210.26136719 79.85851562 209.52273438 80.71703125 208.76171875 81.6015625 C205.12785669 85.82107612 201.36209475 89.61339785 197.10546875 93.203125 C194.81845764 95.15493411 192.63665319 97.19988033 190.4375 99.25 C184.01956715 105.036984 177.0553312 110.02864126 170 115 C168.94167969 115.74765625 167.88335937 116.4953125 166.79296875 117.265625 C161.05502582 121.20623063 155.24269379 124.5725134 148.96484375 127.578125 C147.06414952 128.48965688 145.179073 129.43495986 143.31640625 130.421875 C125.44671007 139.85099128 105.74661362 146.12106706 86 150.1875 C85.25419678 150.34250977 84.50839355 150.49751953 83.73999023 150.65722656 C70.10134623 153.31235862 56.50777685 154.35397086 42.63574219 154.31567383 C40.26450246 154.31251929 37.89452432 154.33608816 35.5234375 154.36132812 C23.18551624 154.36639295 12.49757166 152.78536738 0 151 C0 101.17 0 51.34 0 0 Z " fill="#0048CC" transform="translate(204,319)"/>
<path d="M0 0 C0 78.21 0 156.42 0 237 C80.52 237 161.04 237 244 237 C244 248 244 248 242 263 C153.56 263 65.12 263 -26 263 C-26 177.2 -26 91.4 -26 3 C-12.46017699 0.74336283 -12.46017699 0.74336283 -7.9375 0.375 C-7.05964844 0.30023438 -6.18179688 0.22546875 -5.27734375 0.1484375 C-3.52125981 0.03397577 -1.7598103 0 0 0 Z " fill="#D82F2F" transform="translate(230,13)"/>
<path d="M0 0 C1.76345082 69.33738533 0.74506071 138.65425334 0 208 C-10.41342925 208.02312359 -20.82685244 208.04091517 -31.24030209 208.05181217 C-36.07516827 208.05704097 -40.91001694 208.06413854 -45.74487305 208.07543945 C-50.4067712 208.08626847 -55.06865246 208.09227686 -59.73056221 208.09487724 C-61.51324288 208.09673147 -63.29592259 208.10035203 -65.07859612 208.10573006 C-67.5666596 208.11294069 -70.05465243 208.11399093 -72.54272461 208.11352539 C-73.28718842 208.11712067 -74.03165222 208.12071594 -74.79867554 208.12442017 C-79.88594784 208.11405216 -79.88594784 208.11405216 -81 207 C-89.32407916 151.22206323 -74.79500004 88.65593608 -41.6015625 43.11328125 C-41.07304688 42.41589844 -40.54453125 41.71851563 -40 41 C-39.45085938 40.27167969 -38.90171875 39.54335937 -38.3359375 38.79296875 C-36.582657 36.50729943 -34.79862611 34.25014844 -33 32 C-32.27554688 31.08863281 -31.55109375 30.17726563 -30.8046875 29.23828125 C-26.46206341 23.84312285 -22.00877518 18.77994789 -17 14 C-15.824375 12.824375 -15.824375 12.824375 -14.625 11.625 C-13.75875 10.75875 -12.8925 9.8925 -12 9 C-11.27296875 8.23816406 -10.5459375 7.47632812 -9.796875 6.69140625 C-8.99765625 5.86511719 -8.1984375 5.03882812 -7.375 4.1875 C-6.61960937 3.39730469 -5.86421875 2.60710937 -5.0859375 1.79296875 C-3 0 -3 0 0 0 Z " fill="#D52829" transform="translate(96,68)"/>
<path d="M0 0 C84.81 0 169.62 0 257 0 C255.8743619 6.75382857 255.8743619 6.75382857 254.40625 10.05078125 C254.09816406 10.74880859 253.79007813 11.44683594 253.47265625 12.16601562 C253.15167969 12.87435547 252.83070313 13.58269531 252.5 14.3125 C252.17902344 15.04017578 251.85804688 15.76785156 251.52734375 16.51757812 C249.15334821 21.84665179 249.15334821 21.84665179 248 23 C245.14267276 23.09793251 242.30951505 23.12992391 239.45176697 23.12025452 C238.09066239 23.12153615 238.09066239 23.12153615 236.70206076 23.12284368 C233.63721038 23.12450127 230.57241377 23.11897258 227.50756836 23.11352539 C225.32025656 23.11324355 223.13294467 23.11340119 220.94563293 23.1139679 C214.98719628 23.114256 209.02877955 23.10835714 203.07034755 23.10139394 C196.85098161 23.09516259 190.63161528 23.09455678 184.4122467 23.09336853 C173.96680358 23.09060885 163.52136732 23.08435336 153.07592773 23.07543945 C142.31518592 23.066266 131.5544461 23.0591963 120.79370117 23.05493164 C120.1240835 23.05466364 119.45446582 23.05439565 118.76455671 23.05411953 C112.94020931 23.0518068 107.11586186 23.04965395 101.2915144 23.04751682 C76.19433602 23.03810045 51.0971771 23.01818197 26 23 C26 66.23 26 109.46 26 154 C11 153 11 153 0 151 C0 101.17 0 51.34 0 0 Z " fill="#D82F2F" transform="translate(204,319)"/>
<path d="M0 0 C0.33 0 0.66 0 1 0 C1 52.14 1 104.28 1 158 C-17.48 158 -35.96 158 -55 158 C-55 103.50599782 -41.81333006 53.37464033 -7.70703125 10.18359375 C-5.46285028 7.31289087 -3.31052558 4.37780647 -1.1640625 1.43359375 C-0.58785156 0.72396484 -0.58785156 0.72396484 0 0 Z " fill="#0249CC" transform="translate(69,92)"/>
<path d="M0 0 C0 78.21 0 156.42 0 237 C80.52 237 161.04 237 244 237 C244 240.63 244 244.26 244 248 C243 249 243 249 241.24073404 249.1241985 C240.07935941 249.12362892 240.07935941 249.12362892 238.89452267 249.12304783 C238.00426575 249.12503888 237.11400883 249.12702993 236.19677442 249.12908131 C235.20749545 249.12616847 234.21821648 249.12325563 233.19895935 249.12025452 C232.15679907 249.12110894 231.1146388 249.12196337 230.04089791 249.12284368 C226.52000539 249.1245016 222.99915967 249.11897203 219.47827148 249.11352539 C216.96584067 249.11324356 214.45340977 249.11340117 211.940979 249.1139679 C206.51708306 249.11419622 201.09320241 249.11134475 195.66930962 249.10573006 C187.82718701 249.09761733 179.98507022 249.09500007 172.14294387 249.09374207 C159.42089483 249.09155119 146.6988522 249.08489013 133.97680664 249.07543945 C121.61547884 249.06626626 109.25415278 249.05919644 96.89282227 249.05493164 C96.12362699 249.05466364 95.35443172 249.05439565 94.5619275 249.05411953 C88.546687 249.05204021 82.53144646 249.05008325 76.51620591 249.04816496 C47.01079807 249.03872419 17.50540623 249.01860757 -12 249 C-12 167.16 -12 85.32 -12 1 C-3 0 -3 0 0 0 Z " fill="#FEFEFE" transform="translate(230,13)"/>
<path d="M0 0 C22.44 0 44.88 0 68 0 C68.75038904 21.1984903 69.10929794 42.35152035 69.125 63.5625 C69.12749756 64.74934387 69.12999512 65.93618774 69.13256836 67.15899658 C69.13849306 70.58649567 69.13695644 74.01390603 69.1328125 77.44140625 C69.13479645 78.46004257 69.1367804 79.47867889 69.13882446 80.52818298 C69.11885628 86.74303843 68.74168738 92.82919269 68 99 C64.02605698 98.18573996 62.38073005 96.70010564 59.5625 93.75 C58.45068359 92.59757812 58.45068359 92.59757812 57.31640625 91.421875 C56.55199219 90.62265625 55.78757813 89.8234375 55 89 C52.59732084 86.57476047 50.18117674 84.172829 47.7109375 81.81640625 C28.34054824 63.12624805 13.36966683 38.90840851 3.3125 14.0625 C2.97331543 13.22823486 2.63413086 12.39396973 2.28466797 11.53442383 C0.60993771 7.21890933 0 4.81740491 0 0 Z " fill="#FDF4F4" transform="translate(28,319)"/>
<path d="M0 0 C78.54 0 157.08 0 238 0 C235 9 235 9 234 10 C231.14267276 10.09793251 228.30951505 10.12992391 225.45176697 10.12025452 C224.09066239 10.12153615 224.09066239 10.12153615 222.70206076 10.12284368 C219.63721038 10.12450127 216.57241377 10.11897258 213.50756836 10.11352539 C211.32025656 10.11324355 209.13294467 10.11340119 206.94563293 10.1139679 C200.98719628 10.114256 195.02877955 10.10835714 189.07034755 10.10139394 C182.85098161 10.09516259 176.63161528 10.09455678 170.4122467 10.09336853 C159.96680358 10.09060885 149.52136732 10.08435336 139.07592773 10.07543945 C128.31518592 10.066266 117.5544461 10.0591963 106.79370117 10.05493164 C106.1240835 10.05466364 105.45446582 10.05439565 104.76455671 10.05411953 C98.94020931 10.0518068 93.11586186 10.04965395 87.2915144 10.04751682 C62.19433602 10.03810045 37.0971771 10.01818197 12 10 C12 53.23 12 96.46 12 141 C8.04 140.67 4.08 140.34 0 140 C0 93.8 0 47.6 0 0 Z " fill="#FFFFFF" transform="translate(218,332)"/>
<path d="M0 0 C0.66 0 1.32 0 2 0 C2 60.72 2 121.44 2 184 C-20.77 184 -43.54 184 -67 184 C-67 179.71 -67 175.42 -67 171 C-48.52 171 -30.04 171 -11 171 C-11.04713135 166.23054932 -11.0942627 161.46109863 -11.14282227 156.54711914 C-11.29194612 140.7893399 -11.39181945 125.03153289 -11.46630955 109.27323246 C-11.51267611 99.71881657 -11.5758652 90.16507012 -11.67895508 80.61108398 C-11.76878786 72.28173013 -11.82675381 63.95286117 -11.84679645 55.62303632 C-11.85850914 51.21398749 -11.88594288 46.80632557 -11.95157051 42.39772224 C-12.01291108 38.24323416 -12.03145595 34.09069658 -12.01796913 29.93579865 C-12.02043423 28.41560428 -12.03819399 26.89534108 -12.07284927 25.37553978 C-12.321857 13.88654448 -12.321857 13.88654448 -8.99799919 9.14275932 C-6.76676222 6.91656598 -4.45213266 4.9734066 -2 3 C-1.34 2.01 -0.68 1.02 0 0 Z " fill="#FDF6F6" transform="translate(81,79)"/>
<path d="M0 0 C22.44 0 44.88 0 68 0 C68.75038904 21.1984903 69.10929794 42.35152035 69.125 63.5625 C69.12749756 64.74934387 69.12999512 65.93618774 69.13256836 67.15899658 C69.13849306 70.58649567 69.13695644 74.01390603 69.1328125 77.44140625 C69.13479645 78.46004257 69.1367804 79.47867889 69.13882446 80.52818298 C69.11885628 86.74303843 68.74168738 92.82919269 68 99 C63.12949907 98.18925872 60.27040138 95.55150324 56.92288208 92.06228638 C52.99388558 85.80516194 53.91462434 78.41213897 54.12109375 71.27734375 C54.13790475 69.56388204 54.15070415 67.85037672 54.15968323 66.13685608 C54.19385379 61.65257827 54.28208271 57.17097403 54.38201904 52.68774414 C54.49080746 47.29499817 54.53169058 41.90135207 54.58409882 36.50782013 C54.67102923 28.33669415 54.84356299 20.1714198 55 12 C37.84 12 20.68 12 3 12 C0 5 0 5 0 0 Z " fill="#D4282A" transform="translate(28,319)"/>
<path d="M0 0 C11.22 0 22.44 0 34 0 C34 17.16 34 34.32 34 52 C21.99612855 39.99612855 13.04886139 25.98132732 4.875 11.1875 C4.38926514 10.30916504 3.90353027 9.43083008 3.40307617 8.52587891 C0 2.25948661 0 2.25948661 0 0 Z " fill="#044BCC" transform="translate(36,342)"/>
</svg>
